M48
; DRILL file {KiCad 9.0.6} date 2026-03-09T11:50:47+0900
; FORMAT={-:-/ absolute / metric / decimal}
; #@! TF.CreationDate,2026-03-09T11:50:47+09:00
; #@! TF.GenerationSoftware,Kicad,Pcbnew,9.0.6
; #@! TF.FileFunction,Plated,1,2,PTH
FMAT,2
METRIC
; #@! TA.AperFunction,Plated,PTH,ViaDrill
T1C0.300
; #@! TA.AperFunction,Plated,PTH,ViaDrill
T2C0.400
; #@! TA.AperFunction,Plated,PTH,ComponentDrill
T3C0.700
; #@! TA.AperFunction,Plated,PTH,ComponentDrill
T4C0.800
; #@! TA.AperFunction,Plated,PTH,ComponentDrill
T5C0.900
; #@! TA.AperFunction,Plated,PTH,ComponentDrill
T6C1.000
; #@! TA.AperFunction,Plated,PTH,ComponentDrill
T7C1.100
%
G90
G05
T1
X136.62Y-142.89
X138.065Y-132.225
X138.335Y-140.455
X138.435Y-146.955
X141.435Y-136.555
X141.81Y-142.93
X142.595Y-132.285
X148.4Y-134.4
X148.7Y-139.7
X149.275Y-110.67
X149.8Y-120.6
X150.1Y-116.8
X151.2Y-144.3
X151.7Y-111.4
X151.7Y-133.3
X152.1Y-138.7
X152.537Y-117.762
X153.048Y-119.706
X153.862Y-127.9
X154.25Y-111.8
X154.25Y-113.325
X154.8Y-125.6
X155.0Y-131.0
X155.325Y-127.2
X155.4Y-118.025
X155.4Y-119.575
X156.15Y-124.15
X156.3Y-146.6
X156.475Y-129.5
X156.6Y-136.7
X157.875Y-132.4
X157.925Y-134.2
X158.225Y-115.0
X158.375Y-123.7
X159.0Y-143.6
X159.5Y-130.85
X159.525Y-132.4
X159.688Y-120.5
X160.2Y-111.0
X160.675Y-136.2
X160.8Y-115.3
X161.2Y-117.125
X161.2Y-118.675
X161.4Y-125.25
X162.463Y-116.7
X162.7Y-146.3
X162.825Y-132.35
X162.95Y-125.25
X164.25Y-116.175
X164.375Y-114.124
X164.8Y-124.6
X165.3Y-117.75
X166.6Y-130.5
X166.8Y-134.0
X168.1Y-138.8
X168.7Y-113.5
X170.8Y-141.5
X170.8Y-147.3
X170.9Y-125.9
X172.8Y-112.3
X172.8Y-112.3
X173.675Y-128.7
X173.8Y-143.8
X175.7Y-111.7
X176.2Y-140.8
X179.3Y-137.6
X182.095Y-144.95
X182.655Y-149.45
X182.785Y-139.05
X183.26Y-141.45
X183.26Y-142.45
X186.46Y-143.9
X187.46Y-143.9
X187.625Y-149.51
X189.627Y-142.417
X189.66Y-140.45
X191.155Y-140.92
X191.195Y-145.01
T2
X170.85Y-113.9
T3
X171.85Y-130.16
X171.85Y-132.7
X171.85Y-135.24
T4
X167.295Y-116.99
X167.295Y-119.53
X167.295Y-122.07
X167.295Y-124.61
X174.915Y-116.99
X174.915Y-119.53
X174.915Y-122.07
X174.915Y-124.61
T5
X158.95Y-140.8
X159.97Y-138.26
X160.99Y-140.8
X162.01Y-138.26
X163.03Y-140.8
X164.05Y-138.26
T6
X134.85Y-134.89
X137.39Y-134.89
X139.93Y-134.89
X142.47Y-134.89
X148.7Y-125.385
X148.7Y-127.925
X148.7Y-130.465
X151.24Y-125.385
X151.24Y-127.925
X151.24Y-130.465
X163.2Y-111.175
X165.74Y-111.175
X168.28Y-111.175
X170.82Y-111.175
X176.625Y-129.5
X176.625Y-132.04
X176.625Y-134.58
X176.625Y-137.12
X182.7Y-146.84
X185.24Y-146.84
X187.78Y-146.84
X190.32Y-146.84
T7
X178.037Y-111.91
X178.037Y-114.45
X178.037Y-116.99
X178.037Y-119.53
X178.037Y-122.07
X178.037Y-124.61
M30
