G04 #@! TF.GenerationSoftware,KiCad,Pcbnew,9.0.6*
G04 #@! TF.CreationDate,2026-03-09T11:50:09+09:00*
G04 #@! TF.ProjectId,PitotBoard2026,5069746f-7442-46f6-9172-64323032362e,rev?*
G04 #@! TF.SameCoordinates,Original*
G04 #@! TF.FileFunction,Paste,Bot*
G04 #@! TF.FilePolarity,Positive*
%FSLAX46Y46*%
G04 Gerber Fmt 4.6, Leading zero omitted, Abs format (unit mm)*
G04 Created by KiCad (PCBNEW 9.0.6) date 2026-03-09 11:50:09*
%MOMM*%
%LPD*%
G01*
G04 APERTURE LIST*
G04 Aperture macros list*
%AMRoundRect*
0 Rectangle with rounded corners*
0 $1 Rounding radius*
0 $2 $3 $4 $5 $6 $7 $8 $9 X,Y pos of 4 corners*
0 Add a 4 corners polygon primitive as box body*
4,1,4,$2,$3,$4,$5,$6,$7,$8,$9,$2,$3,0*
0 Add four circle primitives for the rounded corners*
1,1,$1+$1,$2,$3*
1,1,$1+$1,$4,$5*
1,1,$1+$1,$6,$7*
1,1,$1+$1,$8,$9*
0 Add four rect primitives between the rounded corners*
20,1,$1+$1,$2,$3,$4,$5,0*
20,1,$1+$1,$4,$5,$6,$7,0*
20,1,$1+$1,$6,$7,$8,$9,0*
20,1,$1+$1,$8,$9,$2,$3,0*%
G04 Aperture macros list end*
%ADD10RoundRect,0.137500X0.600000X0.137500X-0.600000X0.137500X-0.600000X-0.137500X0.600000X-0.137500X0*%
%ADD11RoundRect,0.137500X0.137500X0.600000X-0.137500X0.600000X-0.137500X-0.600000X0.137500X-0.600000X0*%
%ADD12RoundRect,0.225000X-0.225000X-0.250000X0.225000X-0.250000X0.225000X0.250000X-0.225000X0.250000X0*%
%ADD13RoundRect,0.100000X0.100000X-0.850000X0.100000X0.850000X-0.100000X0.850000X-0.100000X-0.850000X0*%
%ADD14RoundRect,0.200000X0.200000X0.275000X-0.200000X0.275000X-0.200000X-0.275000X0.200000X-0.275000X0*%
%ADD15RoundRect,0.200000X-0.200000X-0.275000X0.200000X-0.275000X0.200000X0.275000X-0.200000X0.275000X0*%
%ADD16RoundRect,0.150000X0.150000X-0.512500X0.150000X0.512500X-0.150000X0.512500X-0.150000X-0.512500X0*%
%ADD17RoundRect,0.225000X0.225000X0.250000X-0.225000X0.250000X-0.225000X-0.250000X0.225000X-0.250000X0*%
%ADD18RoundRect,0.225000X-0.250000X0.225000X-0.250000X-0.225000X0.250000X-0.225000X0.250000X0.225000X0*%
%ADD19R,0.400000X1.900000*%
%ADD20RoundRect,0.225000X0.250000X-0.225000X0.250000X0.225000X-0.250000X0.225000X-0.250000X-0.225000X0*%
%ADD21R,1.900000X0.400000*%
%ADD22RoundRect,0.225000X-0.225000X-0.375000X0.225000X-0.375000X0.225000X0.375000X-0.225000X0.375000X0*%
G04 APERTURE END LIST*
D10*
X162462500Y-115100000D03*
X162462500Y-115900000D03*
X162462500Y-116700000D03*
X162462500Y-117500000D03*
X162462500Y-118300000D03*
X162462500Y-119100000D03*
X162462500Y-119900000D03*
X162462500Y-120700000D03*
D11*
X161100000Y-122062500D03*
X160300000Y-122062500D03*
X159500000Y-122062500D03*
X158700000Y-122062500D03*
X157900000Y-122062500D03*
X157100000Y-122062500D03*
X156300000Y-122062500D03*
X155500000Y-122062500D03*
D10*
X154137500Y-120700000D03*
X154137500Y-119900000D03*
X154137500Y-119100000D03*
X154137500Y-118300000D03*
X154137500Y-117500000D03*
X154137500Y-116700000D03*
X154137500Y-115900000D03*
X154137500Y-115100000D03*
D11*
X155500000Y-113737500D03*
X156300000Y-113737500D03*
X157100000Y-113737500D03*
X157900000Y-113737500D03*
X158700000Y-113737500D03*
X159500000Y-113737500D03*
X160300000Y-113737500D03*
X161100000Y-113737500D03*
D12*
X173425000Y-113700000D03*
X174975000Y-113700000D03*
D13*
X163125000Y-134200000D03*
X162475000Y-134200000D03*
X161825000Y-134200000D03*
X161175000Y-134200000D03*
X160525000Y-134200000D03*
X159875000Y-134200000D03*
X159225000Y-134200000D03*
X158575000Y-134200000D03*
X157925000Y-134200000D03*
X157275000Y-134200000D03*
X156625000Y-134200000D03*
X155975000Y-134200000D03*
X155325000Y-134200000D03*
X154675000Y-134200000D03*
X154675000Y-127200000D03*
X155325000Y-127200000D03*
X155975000Y-127200000D03*
X156625000Y-127200000D03*
X157275000Y-127200000D03*
X157925000Y-127200000D03*
X158575000Y-127200000D03*
X159225000Y-127200000D03*
X159875000Y-127200000D03*
X160525000Y-127200000D03*
X161175000Y-127200000D03*
X161825000Y-127200000D03*
X162475000Y-127200000D03*
X163125000Y-127200000D03*
D14*
X170150000Y-120000000D03*
X168500000Y-120000000D03*
D15*
X152600000Y-111800000D03*
X154250000Y-111800000D03*
D14*
X170150000Y-122075000D03*
X168500000Y-122075000D03*
D16*
X171950000Y-115937500D03*
X171000000Y-115937500D03*
X170050000Y-115937500D03*
X170050000Y-113662500D03*
X171950000Y-113662500D03*
D15*
X152600000Y-113325000D03*
X154250000Y-113325000D03*
D17*
X162950000Y-125250000D03*
X161400000Y-125250000D03*
D15*
X171750000Y-120025000D03*
X173400000Y-120025000D03*
D18*
X149200000Y-112875000D03*
X149200000Y-114425000D03*
D19*
X156600000Y-136700000D03*
X157800000Y-136700000D03*
X159000000Y-136700000D03*
D20*
X152400000Y-118875000D03*
X152400000Y-117325000D03*
D15*
X171750000Y-122075000D03*
X173400000Y-122075000D03*
D17*
X187460000Y-143925000D03*
X185910000Y-143925000D03*
D21*
X164725000Y-122150000D03*
X164725000Y-120950000D03*
X164725000Y-119750000D03*
D15*
X160675000Y-136200000D03*
X162325000Y-136200000D03*
D17*
X168575000Y-114900000D03*
X167025000Y-114900000D03*
D22*
X169650000Y-118100000D03*
X172950000Y-118100000D03*
M02*
