G04 #@! TF.GenerationSoftware,KiCad,Pcbnew,9.0.6*
G04 #@! TF.CreationDate,2026-03-10T19:02:13+09:00*
G04 #@! TF.ProjectId,PitotBoard2026,5069746f-7442-46f6-9172-64323032362e,rev?*
G04 #@! TF.SameCoordinates,Original*
G04 #@! TF.FileFunction,Profile,NP*
%FSLAX46Y46*%
G04 Gerber Fmt 4.6, Leading zero omitted, Abs format (unit mm)*
G04 Created by KiCad (PCBNEW 9.0.6) date 2026-03-10 19:02:13*
%MOMM*%
%LPD*%
G01*
G04 APERTURE LIST*
G04 #@! TA.AperFunction,Profile*
%ADD10C,0.050000*%
G04 #@! TD*
G04 #@! TA.AperFunction,Profile*
%ADD11C,0.010000*%
G04 #@! TD*
G04 APERTURE END LIST*
D10*
X145410000Y-141900000D02*
G75*
G02*
X141980501Y-142689159I-2130000J1410000D01*
G01*
X181220000Y-132890000D02*
X191620000Y-132890000D01*
X180300000Y-140360000D02*
X180300000Y-109700000D01*
X144779456Y-125390000D02*
X144280000Y-124890000D01*
X146700000Y-109200000D02*
X146200000Y-109700000D01*
X145470000Y-139190000D02*
X146200000Y-139190000D01*
X179800000Y-109200000D02*
X146700000Y-109200000D01*
X179800000Y-149390150D02*
X180300000Y-148890000D01*
X146200000Y-141900000D02*
X146200221Y-148899997D01*
X144765287Y-138420000D02*
X144779456Y-125390000D01*
X179800000Y-149390150D02*
X146700237Y-149399850D01*
X133180000Y-138676165D02*
X133180000Y-125390000D01*
X144280000Y-124890000D02*
X133680000Y-124890000D01*
X145410000Y-141900000D02*
X146200000Y-141900000D01*
X179800000Y-109200000D02*
X180300000Y-109700000D01*
X181220000Y-146090000D02*
X191620000Y-146090000D01*
X133180000Y-125390000D02*
X133680000Y-124890000D01*
X192120000Y-145590000D02*
X192120000Y-133390000D01*
X146200000Y-139190000D02*
X146200000Y-109700000D01*
X180720000Y-143070000D02*
X180720000Y-145590000D01*
X144764174Y-138420001D02*
G75*
G02*
X145470003Y-139189998I-1485274J-2069999D01*
G01*
X180300000Y-140360000D02*
X180720000Y-140360000D01*
X180300000Y-143070000D02*
X180720000Y-143070000D01*
X180720000Y-133390000D02*
X181220000Y-132890000D01*
X146700237Y-149399850D02*
X146200221Y-148899997D01*
X180720000Y-140360000D02*
X180720000Y-133390000D01*
X136279999Y-142690000D02*
X141980003Y-142690000D01*
X191620000Y-146090000D02*
X192120000Y-145590000D01*
X136280000Y-142690000D02*
G75*
G02*
X133173069Y-138683069I-1300000J2200000D01*
G01*
X180720000Y-145590000D02*
X181220000Y-146090000D01*
X180300000Y-143070000D02*
X180300000Y-148890000D01*
X191620000Y-132890000D02*
X192120000Y-133390000D01*
D11*
X183145000Y-140240000D02*
G75*
G02*
X182445000Y-140240000I-350000J0D01*
G01*
X182445000Y-140240000D02*
G75*
G02*
X183145000Y-140240000I350000J0D01*
G01*
X183145000Y-144540000D02*
G75*
G02*
X182445000Y-144540000I-350000J0D01*
G01*
X182445000Y-144540000D02*
G75*
G02*
X183145000Y-144540000I350000J0D01*
G01*
X190445000Y-140240000D02*
G75*
G02*
X189745000Y-140240000I-350000J0D01*
G01*
X189745000Y-140240000D02*
G75*
G02*
X190445000Y-140240000I350000J0D01*
G01*
M02*
