G04 #@! TF.GenerationSoftware,KiCad,Pcbnew,9.0.6*
G04 #@! TF.CreationDate,2026-03-10T19:02:13+09:00*
G04 #@! TF.ProjectId,PitotBoard2026,5069746f-7442-46f6-9172-64323032362e,rev?*
G04 #@! TF.SameCoordinates,Original*
G04 #@! TF.FileFunction,Legend,Top*
G04 #@! TF.FilePolarity,Positive*
%FSLAX46Y46*%
G04 Gerber Fmt 4.6, Leading zero omitted, Abs format (unit mm)*
G04 Created by KiCad (PCBNEW 9.0.6) date 2026-03-10 19:02:13*
%MOMM*%
%LPD*%
G01*
G04 APERTURE LIST*
G04 Aperture macros list*
%AMRoundRect*
0 Rectangle with rounded corners*
0 $1 Rounding radius*
0 $2 $3 $4 $5 $6 $7 $8 $9 X,Y pos of 4 corners*
0 Add a 4 corners polygon primitive as box body*
4,1,4,$2,$3,$4,$5,$6,$7,$8,$9,$2,$3,0*
0 Add four circle primitives for the rounded corners*
1,1,$1+$1,$2,$3*
1,1,$1+$1,$4,$5*
1,1,$1+$1,$6,$7*
1,1,$1+$1,$8,$9*
0 Add four rect primitives between the rounded corners*
20,1,$1+$1,$2,$3,$4,$5,0*
20,1,$1+$1,$4,$5,$6,$7,0*
20,1,$1+$1,$6,$7,$8,$9,0*
20,1,$1+$1,$8,$9,$2,$3,0*%
G04 Aperture macros list end*
%ADD10C,0.150000*%
%ADD11C,0.100000*%
%ADD12C,0.120000*%
%ADD13C,0.000000*%
%ADD14RoundRect,0.225000X-0.225000X-0.250000X0.225000X-0.250000X0.225000X0.250000X-0.225000X0.250000X0*%
%ADD15C,0.500000*%
%ADD16RoundRect,0.225000X-0.225000X-0.375000X0.225000X-0.375000X0.225000X0.375000X-0.225000X0.375000X0*%
%ADD17RoundRect,0.200000X0.200000X0.275000X-0.200000X0.275000X-0.200000X-0.275000X0.200000X-0.275000X0*%
%ADD18RoundRect,0.218750X-0.218750X-0.256250X0.218750X-0.256250X0.218750X0.256250X-0.218750X0.256250X0*%
%ADD19C,2.200000*%
%ADD20RoundRect,0.225000X0.250000X-0.225000X0.250000X0.225000X-0.250000X0.225000X-0.250000X-0.225000X0*%
%ADD21RoundRect,0.225000X-0.250000X0.225000X-0.250000X-0.225000X0.250000X-0.225000X0.250000X0.225000X0*%
%ADD22R,1.700000X1.700000*%
%ADD23C,1.700000*%
%ADD24RoundRect,0.150000X0.150000X-0.825000X0.150000X0.825000X-0.150000X0.825000X-0.150000X-0.825000X0*%
%ADD25RoundRect,0.200000X-0.200000X-0.275000X0.200000X-0.275000X0.200000X0.275000X-0.200000X0.275000X0*%
%ADD26R,0.650000X1.050000*%
%ADD27C,2.300000*%
%ADD28R,1.520000X1.520000*%
%ADD29C,1.520000*%
%ADD30RoundRect,0.225000X0.225000X0.250000X-0.225000X0.250000X-0.225000X-0.250000X0.225000X-0.250000X0*%
%ADD31RoundRect,0.250000X-0.550000X-0.550000X0.550000X-0.550000X0.550000X0.550000X-0.550000X0.550000X0*%
%ADD32C,1.600000*%
%ADD33C,0.000010*%
%ADD34RoundRect,0.125000X0.625000X0.125000X-0.625000X0.125000X-0.625000X-0.125000X0.625000X-0.125000X0*%
%ADD35RoundRect,0.125000X0.125000X-0.625000X0.125000X0.625000X-0.125000X0.625000X-0.125000X-0.625000X0*%
%ADD36RoundRect,0.125000X-0.625000X-0.125000X0.625000X-0.125000X0.625000X0.125000X-0.625000X0.125000X0*%
%ADD37RoundRect,0.125000X-0.125000X0.625000X-0.125000X-0.625000X0.125000X-0.625000X0.125000X0.625000X0*%
%ADD38RoundRect,0.225000X0.675000X0.225000X-0.675000X0.225000X-0.675000X-0.225000X0.675000X-0.225000X0*%
%ADD39RoundRect,0.250000X-0.300000X-1.000000X0.300000X-1.000000X0.300000X1.000000X-0.300000X1.000000X0*%
%ADD40C,1.900000*%
%ADD41RoundRect,0.225000X-0.375000X0.225000X-0.375000X-0.225000X0.375000X-0.225000X0.375000X0.225000X0*%
%ADD42RoundRect,0.150000X-0.825000X-0.150000X0.825000X-0.150000X0.825000X0.150000X-0.825000X0.150000X0*%
%ADD43RoundRect,0.200000X-0.275000X0.200000X-0.275000X-0.200000X0.275000X-0.200000X0.275000X0.200000X0*%
%ADD44R,1.300000X1.300000*%
%ADD45C,1.300000*%
G04 APERTURE END LIST*
D10*
X169233333Y-132029580D02*
X169185714Y-132077200D01*
X169185714Y-132077200D02*
X169042857Y-132124819D01*
X169042857Y-132124819D02*
X168947619Y-132124819D01*
X168947619Y-132124819D02*
X168804762Y-132077200D01*
X168804762Y-132077200D02*
X168709524Y-131981961D01*
X168709524Y-131981961D02*
X168661905Y-131886723D01*
X168661905Y-131886723D02*
X168614286Y-131696247D01*
X168614286Y-131696247D02*
X168614286Y-131553390D01*
X168614286Y-131553390D02*
X168661905Y-131362914D01*
X168661905Y-131362914D02*
X168709524Y-131267676D01*
X168709524Y-131267676D02*
X168804762Y-131172438D01*
X168804762Y-131172438D02*
X168947619Y-131124819D01*
X168947619Y-131124819D02*
X169042857Y-131124819D01*
X169042857Y-131124819D02*
X169185714Y-131172438D01*
X169185714Y-131172438D02*
X169233333Y-131220057D01*
X169709524Y-132124819D02*
X169900000Y-132124819D01*
X169900000Y-132124819D02*
X169995238Y-132077200D01*
X169995238Y-132077200D02*
X170042857Y-132029580D01*
X170042857Y-132029580D02*
X170138095Y-131886723D01*
X170138095Y-131886723D02*
X170185714Y-131696247D01*
X170185714Y-131696247D02*
X170185714Y-131315295D01*
X170185714Y-131315295D02*
X170138095Y-131220057D01*
X170138095Y-131220057D02*
X170090476Y-131172438D01*
X170090476Y-131172438D02*
X169995238Y-131124819D01*
X169995238Y-131124819D02*
X169804762Y-131124819D01*
X169804762Y-131124819D02*
X169709524Y-131172438D01*
X169709524Y-131172438D02*
X169661905Y-131220057D01*
X169661905Y-131220057D02*
X169614286Y-131315295D01*
X169614286Y-131315295D02*
X169614286Y-131553390D01*
X169614286Y-131553390D02*
X169661905Y-131648628D01*
X169661905Y-131648628D02*
X169709524Y-131696247D01*
X169709524Y-131696247D02*
X169804762Y-131743866D01*
X169804762Y-131743866D02*
X169995238Y-131743866D01*
X169995238Y-131743866D02*
X170090476Y-131696247D01*
X170090476Y-131696247D02*
X170138095Y-131648628D01*
X170138095Y-131648628D02*
X170185714Y-131553390D01*
X171461905Y-135704819D02*
X171461905Y-134704819D01*
X171461905Y-134704819D02*
X171700000Y-134704819D01*
X171700000Y-134704819D02*
X171842857Y-134752438D01*
X171842857Y-134752438D02*
X171938095Y-134847676D01*
X171938095Y-134847676D02*
X171985714Y-134942914D01*
X171985714Y-134942914D02*
X172033333Y-135133390D01*
X172033333Y-135133390D02*
X172033333Y-135276247D01*
X172033333Y-135276247D02*
X171985714Y-135466723D01*
X171985714Y-135466723D02*
X171938095Y-135561961D01*
X171938095Y-135561961D02*
X171842857Y-135657200D01*
X171842857Y-135657200D02*
X171700000Y-135704819D01*
X171700000Y-135704819D02*
X171461905Y-135704819D01*
X172414286Y-134800057D02*
X172461905Y-134752438D01*
X172461905Y-134752438D02*
X172557143Y-134704819D01*
X172557143Y-134704819D02*
X172795238Y-134704819D01*
X172795238Y-134704819D02*
X172890476Y-134752438D01*
X172890476Y-134752438D02*
X172938095Y-134800057D01*
X172938095Y-134800057D02*
X172985714Y-134895295D01*
X172985714Y-134895295D02*
X172985714Y-134990533D01*
X172985714Y-134990533D02*
X172938095Y-135133390D01*
X172938095Y-135133390D02*
X172366667Y-135704819D01*
X172366667Y-135704819D02*
X172985714Y-135704819D01*
X158057142Y-134284819D02*
X157723809Y-133808628D01*
X157485714Y-134284819D02*
X157485714Y-133284819D01*
X157485714Y-133284819D02*
X157866666Y-133284819D01*
X157866666Y-133284819D02*
X157961904Y-133332438D01*
X157961904Y-133332438D02*
X158009523Y-133380057D01*
X158009523Y-133380057D02*
X158057142Y-133475295D01*
X158057142Y-133475295D02*
X158057142Y-133618152D01*
X158057142Y-133618152D02*
X158009523Y-133713390D01*
X158009523Y-133713390D02*
X157961904Y-133761009D01*
X157961904Y-133761009D02*
X157866666Y-133808628D01*
X157866666Y-133808628D02*
X157485714Y-133808628D01*
X159009523Y-134284819D02*
X158438095Y-134284819D01*
X158723809Y-134284819D02*
X158723809Y-133284819D01*
X158723809Y-133284819D02*
X158628571Y-133427676D01*
X158628571Y-133427676D02*
X158533333Y-133522914D01*
X158533333Y-133522914D02*
X158438095Y-133570533D01*
X159342857Y-133284819D02*
X160009523Y-133284819D01*
X160009523Y-133284819D02*
X159580952Y-134284819D01*
X156757142Y-116884819D02*
X156423809Y-116408628D01*
X156185714Y-116884819D02*
X156185714Y-115884819D01*
X156185714Y-115884819D02*
X156566666Y-115884819D01*
X156566666Y-115884819D02*
X156661904Y-115932438D01*
X156661904Y-115932438D02*
X156709523Y-115980057D01*
X156709523Y-115980057D02*
X156757142Y-116075295D01*
X156757142Y-116075295D02*
X156757142Y-116218152D01*
X156757142Y-116218152D02*
X156709523Y-116313390D01*
X156709523Y-116313390D02*
X156661904Y-116361009D01*
X156661904Y-116361009D02*
X156566666Y-116408628D01*
X156566666Y-116408628D02*
X156185714Y-116408628D01*
X157709523Y-116884819D02*
X157138095Y-116884819D01*
X157423809Y-116884819D02*
X157423809Y-115884819D01*
X157423809Y-115884819D02*
X157328571Y-116027676D01*
X157328571Y-116027676D02*
X157233333Y-116122914D01*
X157233333Y-116122914D02*
X157138095Y-116170533D01*
X158566666Y-116218152D02*
X158566666Y-116884819D01*
X158328571Y-115837200D02*
X158090476Y-116551485D01*
X158090476Y-116551485D02*
X158709523Y-116551485D01*
X161316666Y-122251009D02*
X160983333Y-122251009D01*
X160983333Y-122774819D02*
X160983333Y-121774819D01*
X160983333Y-121774819D02*
X161459523Y-121774819D01*
X162173809Y-122251009D02*
X162316666Y-122298628D01*
X162316666Y-122298628D02*
X162364285Y-122346247D01*
X162364285Y-122346247D02*
X162411904Y-122441485D01*
X162411904Y-122441485D02*
X162411904Y-122584342D01*
X162411904Y-122584342D02*
X162364285Y-122679580D01*
X162364285Y-122679580D02*
X162316666Y-122727200D01*
X162316666Y-122727200D02*
X162221428Y-122774819D01*
X162221428Y-122774819D02*
X161840476Y-122774819D01*
X161840476Y-122774819D02*
X161840476Y-121774819D01*
X161840476Y-121774819D02*
X162173809Y-121774819D01*
X162173809Y-121774819D02*
X162269047Y-121822438D01*
X162269047Y-121822438D02*
X162316666Y-121870057D01*
X162316666Y-121870057D02*
X162364285Y-121965295D01*
X162364285Y-121965295D02*
X162364285Y-122060533D01*
X162364285Y-122060533D02*
X162316666Y-122155771D01*
X162316666Y-122155771D02*
X162269047Y-122203390D01*
X162269047Y-122203390D02*
X162173809Y-122251009D01*
X162173809Y-122251009D02*
X161840476Y-122251009D01*
X163364285Y-122774819D02*
X162792857Y-122774819D01*
X163078571Y-122774819D02*
X163078571Y-121774819D01*
X163078571Y-121774819D02*
X162983333Y-121917676D01*
X162983333Y-121917676D02*
X162888095Y-122012914D01*
X162888095Y-122012914D02*
X162792857Y-122060533D01*
X158161905Y-119524819D02*
X158161905Y-118524819D01*
X158161905Y-118524819D02*
X158400000Y-118524819D01*
X158400000Y-118524819D02*
X158542857Y-118572438D01*
X158542857Y-118572438D02*
X158638095Y-118667676D01*
X158638095Y-118667676D02*
X158685714Y-118762914D01*
X158685714Y-118762914D02*
X158733333Y-118953390D01*
X158733333Y-118953390D02*
X158733333Y-119096247D01*
X158733333Y-119096247D02*
X158685714Y-119286723D01*
X158685714Y-119286723D02*
X158638095Y-119381961D01*
X158638095Y-119381961D02*
X158542857Y-119477200D01*
X158542857Y-119477200D02*
X158400000Y-119524819D01*
X158400000Y-119524819D02*
X158161905Y-119524819D01*
X159638095Y-118524819D02*
X159161905Y-118524819D01*
X159161905Y-118524819D02*
X159114286Y-119001009D01*
X159114286Y-119001009D02*
X159161905Y-118953390D01*
X159161905Y-118953390D02*
X159257143Y-118905771D01*
X159257143Y-118905771D02*
X159495238Y-118905771D01*
X159495238Y-118905771D02*
X159590476Y-118953390D01*
X159590476Y-118953390D02*
X159638095Y-119001009D01*
X159638095Y-119001009D02*
X159685714Y-119096247D01*
X159685714Y-119096247D02*
X159685714Y-119334342D01*
X159685714Y-119334342D02*
X159638095Y-119429580D01*
X159638095Y-119429580D02*
X159590476Y-119477200D01*
X159590476Y-119477200D02*
X159495238Y-119524819D01*
X159495238Y-119524819D02*
X159257143Y-119524819D01*
X159257143Y-119524819D02*
X159161905Y-119477200D01*
X159161905Y-119477200D02*
X159114286Y-119429580D01*
X175966666Y-143704819D02*
X175633333Y-143228628D01*
X175395238Y-143704819D02*
X175395238Y-142704819D01*
X175395238Y-142704819D02*
X175776190Y-142704819D01*
X175776190Y-142704819D02*
X175871428Y-142752438D01*
X175871428Y-142752438D02*
X175919047Y-142800057D01*
X175919047Y-142800057D02*
X175966666Y-142895295D01*
X175966666Y-142895295D02*
X175966666Y-143038152D01*
X175966666Y-143038152D02*
X175919047Y-143133390D01*
X175919047Y-143133390D02*
X175871428Y-143181009D01*
X175871428Y-143181009D02*
X175776190Y-143228628D01*
X175776190Y-143228628D02*
X175395238Y-143228628D01*
X176395238Y-143181009D02*
X176728571Y-143181009D01*
X176871428Y-143704819D02*
X176395238Y-143704819D01*
X176395238Y-143704819D02*
X176395238Y-142704819D01*
X176395238Y-142704819D02*
X176871428Y-142704819D01*
X177633333Y-143181009D02*
X177300000Y-143181009D01*
X177300000Y-143704819D02*
X177300000Y-142704819D01*
X177300000Y-142704819D02*
X177776190Y-142704819D01*
X178300000Y-142704819D02*
X178300000Y-142942914D01*
X178061905Y-142847676D02*
X178300000Y-142942914D01*
X178300000Y-142942914D02*
X178538095Y-142847676D01*
X178157143Y-143133390D02*
X178300000Y-142942914D01*
X178300000Y-142942914D02*
X178442857Y-143133390D01*
X179061905Y-142704819D02*
X179061905Y-142942914D01*
X178823810Y-142847676D02*
X179061905Y-142942914D01*
X179061905Y-142942914D02*
X179300000Y-142847676D01*
X178919048Y-143133390D02*
X179061905Y-142942914D01*
X179061905Y-142942914D02*
X179204762Y-143133390D01*
X134249580Y-135167857D02*
X134297200Y-135215476D01*
X134297200Y-135215476D02*
X134344819Y-135358333D01*
X134344819Y-135358333D02*
X134344819Y-135453571D01*
X134344819Y-135453571D02*
X134297200Y-135596428D01*
X134297200Y-135596428D02*
X134201961Y-135691666D01*
X134201961Y-135691666D02*
X134106723Y-135739285D01*
X134106723Y-135739285D02*
X133916247Y-135786904D01*
X133916247Y-135786904D02*
X133773390Y-135786904D01*
X133773390Y-135786904D02*
X133582914Y-135739285D01*
X133582914Y-135739285D02*
X133487676Y-135691666D01*
X133487676Y-135691666D02*
X133392438Y-135596428D01*
X133392438Y-135596428D02*
X133344819Y-135453571D01*
X133344819Y-135453571D02*
X133344819Y-135358333D01*
X133344819Y-135358333D02*
X133392438Y-135215476D01*
X133392438Y-135215476D02*
X133440057Y-135167857D01*
X134344819Y-134215476D02*
X134344819Y-134786904D01*
X134344819Y-134501190D02*
X133344819Y-134501190D01*
X133344819Y-134501190D02*
X133487676Y-134596428D01*
X133487676Y-134596428D02*
X133582914Y-134691666D01*
X133582914Y-134691666D02*
X133630533Y-134786904D01*
X133678152Y-133358333D02*
X134344819Y-133358333D01*
X133297200Y-133596428D02*
X134011485Y-133834523D01*
X134011485Y-133834523D02*
X134011485Y-133215476D01*
X172257142Y-127629580D02*
X172209523Y-127677200D01*
X172209523Y-127677200D02*
X172066666Y-127724819D01*
X172066666Y-127724819D02*
X171971428Y-127724819D01*
X171971428Y-127724819D02*
X171828571Y-127677200D01*
X171828571Y-127677200D02*
X171733333Y-127581961D01*
X171733333Y-127581961D02*
X171685714Y-127486723D01*
X171685714Y-127486723D02*
X171638095Y-127296247D01*
X171638095Y-127296247D02*
X171638095Y-127153390D01*
X171638095Y-127153390D02*
X171685714Y-126962914D01*
X171685714Y-126962914D02*
X171733333Y-126867676D01*
X171733333Y-126867676D02*
X171828571Y-126772438D01*
X171828571Y-126772438D02*
X171971428Y-126724819D01*
X171971428Y-126724819D02*
X172066666Y-126724819D01*
X172066666Y-126724819D02*
X172209523Y-126772438D01*
X172209523Y-126772438D02*
X172257142Y-126820057D01*
X173209523Y-127724819D02*
X172638095Y-127724819D01*
X172923809Y-127724819D02*
X172923809Y-126724819D01*
X172923809Y-126724819D02*
X172828571Y-126867676D01*
X172828571Y-126867676D02*
X172733333Y-126962914D01*
X172733333Y-126962914D02*
X172638095Y-127010533D01*
X173590476Y-126820057D02*
X173638095Y-126772438D01*
X173638095Y-126772438D02*
X173733333Y-126724819D01*
X173733333Y-126724819D02*
X173971428Y-126724819D01*
X173971428Y-126724819D02*
X174066666Y-126772438D01*
X174066666Y-126772438D02*
X174114285Y-126820057D01*
X174114285Y-126820057D02*
X174161904Y-126915295D01*
X174161904Y-126915295D02*
X174161904Y-127010533D01*
X174161904Y-127010533D02*
X174114285Y-127153390D01*
X174114285Y-127153390D02*
X173542857Y-127724819D01*
X173542857Y-127724819D02*
X174161904Y-127724819D01*
X174789580Y-134066666D02*
X174837200Y-134114285D01*
X174837200Y-134114285D02*
X174884819Y-134257142D01*
X174884819Y-134257142D02*
X174884819Y-134352380D01*
X174884819Y-134352380D02*
X174837200Y-134495237D01*
X174837200Y-134495237D02*
X174741961Y-134590475D01*
X174741961Y-134590475D02*
X174646723Y-134638094D01*
X174646723Y-134638094D02*
X174456247Y-134685713D01*
X174456247Y-134685713D02*
X174313390Y-134685713D01*
X174313390Y-134685713D02*
X174122914Y-134638094D01*
X174122914Y-134638094D02*
X174027676Y-134590475D01*
X174027676Y-134590475D02*
X173932438Y-134495237D01*
X173932438Y-134495237D02*
X173884819Y-134352380D01*
X173884819Y-134352380D02*
X173884819Y-134257142D01*
X173884819Y-134257142D02*
X173932438Y-134114285D01*
X173932438Y-134114285D02*
X173980057Y-134066666D01*
X174313390Y-133495237D02*
X174265771Y-133590475D01*
X174265771Y-133590475D02*
X174218152Y-133638094D01*
X174218152Y-133638094D02*
X174122914Y-133685713D01*
X174122914Y-133685713D02*
X174075295Y-133685713D01*
X174075295Y-133685713D02*
X173980057Y-133638094D01*
X173980057Y-133638094D02*
X173932438Y-133590475D01*
X173932438Y-133590475D02*
X173884819Y-133495237D01*
X173884819Y-133495237D02*
X173884819Y-133304761D01*
X173884819Y-133304761D02*
X173932438Y-133209523D01*
X173932438Y-133209523D02*
X173980057Y-133161904D01*
X173980057Y-133161904D02*
X174075295Y-133114285D01*
X174075295Y-133114285D02*
X174122914Y-133114285D01*
X174122914Y-133114285D02*
X174218152Y-133161904D01*
X174218152Y-133161904D02*
X174265771Y-133209523D01*
X174265771Y-133209523D02*
X174313390Y-133304761D01*
X174313390Y-133304761D02*
X174313390Y-133495237D01*
X174313390Y-133495237D02*
X174361009Y-133590475D01*
X174361009Y-133590475D02*
X174408628Y-133638094D01*
X174408628Y-133638094D02*
X174503866Y-133685713D01*
X174503866Y-133685713D02*
X174694342Y-133685713D01*
X174694342Y-133685713D02*
X174789580Y-133638094D01*
X174789580Y-133638094D02*
X174837200Y-133590475D01*
X174837200Y-133590475D02*
X174884819Y-133495237D01*
X174884819Y-133495237D02*
X174884819Y-133304761D01*
X174884819Y-133304761D02*
X174837200Y-133209523D01*
X174837200Y-133209523D02*
X174789580Y-133161904D01*
X174789580Y-133161904D02*
X174694342Y-133114285D01*
X174694342Y-133114285D02*
X174503866Y-133114285D01*
X174503866Y-133114285D02*
X174408628Y-133161904D01*
X174408628Y-133161904D02*
X174361009Y-133209523D01*
X174361009Y-133209523D02*
X174313390Y-133304761D01*
X141946666Y-137794819D02*
X141613333Y-137318628D01*
X141375238Y-137794819D02*
X141375238Y-136794819D01*
X141375238Y-136794819D02*
X141756190Y-136794819D01*
X141756190Y-136794819D02*
X141851428Y-136842438D01*
X141851428Y-136842438D02*
X141899047Y-136890057D01*
X141899047Y-136890057D02*
X141946666Y-136985295D01*
X141946666Y-136985295D02*
X141946666Y-137128152D01*
X141946666Y-137128152D02*
X141899047Y-137223390D01*
X141899047Y-137223390D02*
X141851428Y-137271009D01*
X141851428Y-137271009D02*
X141756190Y-137318628D01*
X141756190Y-137318628D02*
X141375238Y-137318628D01*
X142375238Y-137271009D02*
X142708571Y-137271009D01*
X142851428Y-137794819D02*
X142375238Y-137794819D01*
X142375238Y-137794819D02*
X142375238Y-136794819D01*
X142375238Y-136794819D02*
X142851428Y-136794819D01*
X143613333Y-137271009D02*
X143280000Y-137271009D01*
X143280000Y-137794819D02*
X143280000Y-136794819D01*
X143280000Y-136794819D02*
X143756190Y-136794819D01*
X144280000Y-136794819D02*
X144280000Y-137032914D01*
X144041905Y-136937676D02*
X144280000Y-137032914D01*
X144280000Y-137032914D02*
X144518095Y-136937676D01*
X144137143Y-137223390D02*
X144280000Y-137032914D01*
X144280000Y-137032914D02*
X144422857Y-137223390D01*
X145041905Y-136794819D02*
X145041905Y-137032914D01*
X144803810Y-136937676D02*
X145041905Y-137032914D01*
X145041905Y-137032914D02*
X145280000Y-136937676D01*
X144899048Y-137223390D02*
X145041905Y-137032914D01*
X145041905Y-137032914D02*
X145184762Y-137223390D01*
X132279819Y-124973333D02*
X132994104Y-124973333D01*
X132994104Y-124973333D02*
X133136961Y-125020952D01*
X133136961Y-125020952D02*
X133232200Y-125116190D01*
X133232200Y-125116190D02*
X133279819Y-125259047D01*
X133279819Y-125259047D02*
X133279819Y-125354285D01*
X132613152Y-124068571D02*
X133279819Y-124068571D01*
X132232200Y-124306666D02*
X132946485Y-124544761D01*
X132946485Y-124544761D02*
X132946485Y-123925714D01*
X134824819Y-135311904D02*
X135634342Y-135311904D01*
X135634342Y-135311904D02*
X135729580Y-135264285D01*
X135729580Y-135264285D02*
X135777200Y-135216666D01*
X135777200Y-135216666D02*
X135824819Y-135121428D01*
X135824819Y-135121428D02*
X135824819Y-134930952D01*
X135824819Y-134930952D02*
X135777200Y-134835714D01*
X135777200Y-134835714D02*
X135729580Y-134788095D01*
X135729580Y-134788095D02*
X135634342Y-134740476D01*
X135634342Y-134740476D02*
X134824819Y-134740476D01*
X134824819Y-134359523D02*
X134824819Y-133692857D01*
X134824819Y-133692857D02*
X135824819Y-134121428D01*
X168757142Y-129029580D02*
X168709523Y-129077200D01*
X168709523Y-129077200D02*
X168566666Y-129124819D01*
X168566666Y-129124819D02*
X168471428Y-129124819D01*
X168471428Y-129124819D02*
X168328571Y-129077200D01*
X168328571Y-129077200D02*
X168233333Y-128981961D01*
X168233333Y-128981961D02*
X168185714Y-128886723D01*
X168185714Y-128886723D02*
X168138095Y-128696247D01*
X168138095Y-128696247D02*
X168138095Y-128553390D01*
X168138095Y-128553390D02*
X168185714Y-128362914D01*
X168185714Y-128362914D02*
X168233333Y-128267676D01*
X168233333Y-128267676D02*
X168328571Y-128172438D01*
X168328571Y-128172438D02*
X168471428Y-128124819D01*
X168471428Y-128124819D02*
X168566666Y-128124819D01*
X168566666Y-128124819D02*
X168709523Y-128172438D01*
X168709523Y-128172438D02*
X168757142Y-128220057D01*
X169709523Y-129124819D02*
X169138095Y-129124819D01*
X169423809Y-129124819D02*
X169423809Y-128124819D01*
X169423809Y-128124819D02*
X169328571Y-128267676D01*
X169328571Y-128267676D02*
X169233333Y-128362914D01*
X169233333Y-128362914D02*
X169138095Y-128410533D01*
X170661904Y-129124819D02*
X170090476Y-129124819D01*
X170376190Y-129124819D02*
X170376190Y-128124819D01*
X170376190Y-128124819D02*
X170280952Y-128267676D01*
X170280952Y-128267676D02*
X170185714Y-128362914D01*
X170185714Y-128362914D02*
X170090476Y-128410533D01*
X158257142Y-118024819D02*
X157923809Y-117548628D01*
X157685714Y-118024819D02*
X157685714Y-117024819D01*
X157685714Y-117024819D02*
X158066666Y-117024819D01*
X158066666Y-117024819D02*
X158161904Y-117072438D01*
X158161904Y-117072438D02*
X158209523Y-117120057D01*
X158209523Y-117120057D02*
X158257142Y-117215295D01*
X158257142Y-117215295D02*
X158257142Y-117358152D01*
X158257142Y-117358152D02*
X158209523Y-117453390D01*
X158209523Y-117453390D02*
X158161904Y-117501009D01*
X158161904Y-117501009D02*
X158066666Y-117548628D01*
X158066666Y-117548628D02*
X157685714Y-117548628D01*
X159209523Y-118024819D02*
X158638095Y-118024819D01*
X158923809Y-118024819D02*
X158923809Y-117024819D01*
X158923809Y-117024819D02*
X158828571Y-117167676D01*
X158828571Y-117167676D02*
X158733333Y-117262914D01*
X158733333Y-117262914D02*
X158638095Y-117310533D01*
X159828571Y-117024819D02*
X159923809Y-117024819D01*
X159923809Y-117024819D02*
X160019047Y-117072438D01*
X160019047Y-117072438D02*
X160066666Y-117120057D01*
X160066666Y-117120057D02*
X160114285Y-117215295D01*
X160114285Y-117215295D02*
X160161904Y-117405771D01*
X160161904Y-117405771D02*
X160161904Y-117643866D01*
X160161904Y-117643866D02*
X160114285Y-117834342D01*
X160114285Y-117834342D02*
X160066666Y-117929580D01*
X160066666Y-117929580D02*
X160019047Y-117977200D01*
X160019047Y-117977200D02*
X159923809Y-118024819D01*
X159923809Y-118024819D02*
X159828571Y-118024819D01*
X159828571Y-118024819D02*
X159733333Y-117977200D01*
X159733333Y-117977200D02*
X159685714Y-117929580D01*
X159685714Y-117929580D02*
X159638095Y-117834342D01*
X159638095Y-117834342D02*
X159590476Y-117643866D01*
X159590476Y-117643866D02*
X159590476Y-117405771D01*
X159590476Y-117405771D02*
X159638095Y-117215295D01*
X159638095Y-117215295D02*
X159685714Y-117120057D01*
X159685714Y-117120057D02*
X159733333Y-117072438D01*
X159733333Y-117072438D02*
X159828571Y-117024819D01*
X138727142Y-137979580D02*
X138679523Y-138027200D01*
X138679523Y-138027200D02*
X138536666Y-138074819D01*
X138536666Y-138074819D02*
X138441428Y-138074819D01*
X138441428Y-138074819D02*
X138298571Y-138027200D01*
X138298571Y-138027200D02*
X138203333Y-137931961D01*
X138203333Y-137931961D02*
X138155714Y-137836723D01*
X138155714Y-137836723D02*
X138108095Y-137646247D01*
X138108095Y-137646247D02*
X138108095Y-137503390D01*
X138108095Y-137503390D02*
X138155714Y-137312914D01*
X138155714Y-137312914D02*
X138203333Y-137217676D01*
X138203333Y-137217676D02*
X138298571Y-137122438D01*
X138298571Y-137122438D02*
X138441428Y-137074819D01*
X138441428Y-137074819D02*
X138536666Y-137074819D01*
X138536666Y-137074819D02*
X138679523Y-137122438D01*
X138679523Y-137122438D02*
X138727142Y-137170057D01*
X139679523Y-138074819D02*
X139108095Y-138074819D01*
X139393809Y-138074819D02*
X139393809Y-137074819D01*
X139393809Y-137074819D02*
X139298571Y-137217676D01*
X139298571Y-137217676D02*
X139203333Y-137312914D01*
X139203333Y-137312914D02*
X139108095Y-137360533D01*
X140584285Y-137074819D02*
X140108095Y-137074819D01*
X140108095Y-137074819D02*
X140060476Y-137551009D01*
X140060476Y-137551009D02*
X140108095Y-137503390D01*
X140108095Y-137503390D02*
X140203333Y-137455771D01*
X140203333Y-137455771D02*
X140441428Y-137455771D01*
X140441428Y-137455771D02*
X140536666Y-137503390D01*
X140536666Y-137503390D02*
X140584285Y-137551009D01*
X140584285Y-137551009D02*
X140631904Y-137646247D01*
X140631904Y-137646247D02*
X140631904Y-137884342D01*
X140631904Y-137884342D02*
X140584285Y-137979580D01*
X140584285Y-137979580D02*
X140536666Y-138027200D01*
X140536666Y-138027200D02*
X140441428Y-138074819D01*
X140441428Y-138074819D02*
X140203333Y-138074819D01*
X140203333Y-138074819D02*
X140108095Y-138027200D01*
X140108095Y-138027200D02*
X140060476Y-137979580D01*
X154489580Y-119342857D02*
X154537200Y-119390476D01*
X154537200Y-119390476D02*
X154584819Y-119533333D01*
X154584819Y-119533333D02*
X154584819Y-119628571D01*
X154584819Y-119628571D02*
X154537200Y-119771428D01*
X154537200Y-119771428D02*
X154441961Y-119866666D01*
X154441961Y-119866666D02*
X154346723Y-119914285D01*
X154346723Y-119914285D02*
X154156247Y-119961904D01*
X154156247Y-119961904D02*
X154013390Y-119961904D01*
X154013390Y-119961904D02*
X153822914Y-119914285D01*
X153822914Y-119914285D02*
X153727676Y-119866666D01*
X153727676Y-119866666D02*
X153632438Y-119771428D01*
X153632438Y-119771428D02*
X153584819Y-119628571D01*
X153584819Y-119628571D02*
X153584819Y-119533333D01*
X153584819Y-119533333D02*
X153632438Y-119390476D01*
X153632438Y-119390476D02*
X153680057Y-119342857D01*
X154584819Y-118390476D02*
X154584819Y-118961904D01*
X154584819Y-118676190D02*
X153584819Y-118676190D01*
X153584819Y-118676190D02*
X153727676Y-118771428D01*
X153727676Y-118771428D02*
X153822914Y-118866666D01*
X153822914Y-118866666D02*
X153870533Y-118961904D01*
X153584819Y-118057142D02*
X153584819Y-117390476D01*
X153584819Y-117390476D02*
X154584819Y-117819047D01*
X157189580Y-119442857D02*
X157237200Y-119490476D01*
X157237200Y-119490476D02*
X157284819Y-119633333D01*
X157284819Y-119633333D02*
X157284819Y-119728571D01*
X157284819Y-119728571D02*
X157237200Y-119871428D01*
X157237200Y-119871428D02*
X157141961Y-119966666D01*
X157141961Y-119966666D02*
X157046723Y-120014285D01*
X157046723Y-120014285D02*
X156856247Y-120061904D01*
X156856247Y-120061904D02*
X156713390Y-120061904D01*
X156713390Y-120061904D02*
X156522914Y-120014285D01*
X156522914Y-120014285D02*
X156427676Y-119966666D01*
X156427676Y-119966666D02*
X156332438Y-119871428D01*
X156332438Y-119871428D02*
X156284819Y-119728571D01*
X156284819Y-119728571D02*
X156284819Y-119633333D01*
X156284819Y-119633333D02*
X156332438Y-119490476D01*
X156332438Y-119490476D02*
X156380057Y-119442857D01*
X157284819Y-118490476D02*
X157284819Y-119061904D01*
X157284819Y-118776190D02*
X156284819Y-118776190D01*
X156284819Y-118776190D02*
X156427676Y-118871428D01*
X156427676Y-118871428D02*
X156522914Y-118966666D01*
X156522914Y-118966666D02*
X156570533Y-119061904D01*
X156284819Y-117633333D02*
X156284819Y-117823809D01*
X156284819Y-117823809D02*
X156332438Y-117919047D01*
X156332438Y-117919047D02*
X156380057Y-117966666D01*
X156380057Y-117966666D02*
X156522914Y-118061904D01*
X156522914Y-118061904D02*
X156713390Y-118109523D01*
X156713390Y-118109523D02*
X157094342Y-118109523D01*
X157094342Y-118109523D02*
X157189580Y-118061904D01*
X157189580Y-118061904D02*
X157237200Y-118014285D01*
X157237200Y-118014285D02*
X157284819Y-117919047D01*
X157284819Y-117919047D02*
X157284819Y-117728571D01*
X157284819Y-117728571D02*
X157237200Y-117633333D01*
X157237200Y-117633333D02*
X157189580Y-117585714D01*
X157189580Y-117585714D02*
X157094342Y-117538095D01*
X157094342Y-117538095D02*
X156856247Y-117538095D01*
X156856247Y-117538095D02*
X156761009Y-117585714D01*
X156761009Y-117585714D02*
X156713390Y-117633333D01*
X156713390Y-117633333D02*
X156665771Y-117728571D01*
X156665771Y-117728571D02*
X156665771Y-117919047D01*
X156665771Y-117919047D02*
X156713390Y-118014285D01*
X156713390Y-118014285D02*
X156761009Y-118061904D01*
X156761009Y-118061904D02*
X156856247Y-118109523D01*
X156757142Y-118384819D02*
X156423809Y-117908628D01*
X156185714Y-118384819D02*
X156185714Y-117384819D01*
X156185714Y-117384819D02*
X156566666Y-117384819D01*
X156566666Y-117384819D02*
X156661904Y-117432438D01*
X156661904Y-117432438D02*
X156709523Y-117480057D01*
X156709523Y-117480057D02*
X156757142Y-117575295D01*
X156757142Y-117575295D02*
X156757142Y-117718152D01*
X156757142Y-117718152D02*
X156709523Y-117813390D01*
X156709523Y-117813390D02*
X156661904Y-117861009D01*
X156661904Y-117861009D02*
X156566666Y-117908628D01*
X156566666Y-117908628D02*
X156185714Y-117908628D01*
X157709523Y-118384819D02*
X157138095Y-118384819D01*
X157423809Y-118384819D02*
X157423809Y-117384819D01*
X157423809Y-117384819D02*
X157328571Y-117527676D01*
X157328571Y-117527676D02*
X157233333Y-117622914D01*
X157233333Y-117622914D02*
X157138095Y-117670533D01*
X158042857Y-117384819D02*
X158661904Y-117384819D01*
X158661904Y-117384819D02*
X158328571Y-117765771D01*
X158328571Y-117765771D02*
X158471428Y-117765771D01*
X158471428Y-117765771D02*
X158566666Y-117813390D01*
X158566666Y-117813390D02*
X158614285Y-117861009D01*
X158614285Y-117861009D02*
X158661904Y-117956247D01*
X158661904Y-117956247D02*
X158661904Y-118194342D01*
X158661904Y-118194342D02*
X158614285Y-118289580D01*
X158614285Y-118289580D02*
X158566666Y-118337200D01*
X158566666Y-118337200D02*
X158471428Y-118384819D01*
X158471428Y-118384819D02*
X158185714Y-118384819D01*
X158185714Y-118384819D02*
X158090476Y-118337200D01*
X158090476Y-118337200D02*
X158042857Y-118289580D01*
X179769819Y-132948333D02*
X180484104Y-132948333D01*
X180484104Y-132948333D02*
X180626961Y-132995952D01*
X180626961Y-132995952D02*
X180722200Y-133091190D01*
X180722200Y-133091190D02*
X180769819Y-133234047D01*
X180769819Y-133234047D02*
X180769819Y-133329285D01*
X179769819Y-132043571D02*
X179769819Y-132234047D01*
X179769819Y-132234047D02*
X179817438Y-132329285D01*
X179817438Y-132329285D02*
X179865057Y-132376904D01*
X179865057Y-132376904D02*
X180007914Y-132472142D01*
X180007914Y-132472142D02*
X180198390Y-132519761D01*
X180198390Y-132519761D02*
X180579342Y-132519761D01*
X180579342Y-132519761D02*
X180674580Y-132472142D01*
X180674580Y-132472142D02*
X180722200Y-132424523D01*
X180722200Y-132424523D02*
X180769819Y-132329285D01*
X180769819Y-132329285D02*
X180769819Y-132138809D01*
X180769819Y-132138809D02*
X180722200Y-132043571D01*
X180722200Y-132043571D02*
X180674580Y-131995952D01*
X180674580Y-131995952D02*
X180579342Y-131948333D01*
X180579342Y-131948333D02*
X180341247Y-131948333D01*
X180341247Y-131948333D02*
X180246009Y-131995952D01*
X180246009Y-131995952D02*
X180198390Y-132043571D01*
X180198390Y-132043571D02*
X180150771Y-132138809D01*
X180150771Y-132138809D02*
X180150771Y-132329285D01*
X180150771Y-132329285D02*
X180198390Y-132424523D01*
X180198390Y-132424523D02*
X180246009Y-132472142D01*
X180246009Y-132472142D02*
X180341247Y-132519761D01*
X147707200Y-121933332D02*
X147754819Y-121790475D01*
X147754819Y-121790475D02*
X147754819Y-121552380D01*
X147754819Y-121552380D02*
X147707200Y-121457142D01*
X147707200Y-121457142D02*
X147659580Y-121409523D01*
X147659580Y-121409523D02*
X147564342Y-121361904D01*
X147564342Y-121361904D02*
X147469104Y-121361904D01*
X147469104Y-121361904D02*
X147373866Y-121409523D01*
X147373866Y-121409523D02*
X147326247Y-121457142D01*
X147326247Y-121457142D02*
X147278628Y-121552380D01*
X147278628Y-121552380D02*
X147231009Y-121742856D01*
X147231009Y-121742856D02*
X147183390Y-121838094D01*
X147183390Y-121838094D02*
X147135771Y-121885713D01*
X147135771Y-121885713D02*
X147040533Y-121933332D01*
X147040533Y-121933332D02*
X146945295Y-121933332D01*
X146945295Y-121933332D02*
X146850057Y-121885713D01*
X146850057Y-121885713D02*
X146802438Y-121838094D01*
X146802438Y-121838094D02*
X146754819Y-121742856D01*
X146754819Y-121742856D02*
X146754819Y-121504761D01*
X146754819Y-121504761D02*
X146802438Y-121361904D01*
X146754819Y-121028570D02*
X147754819Y-120790475D01*
X147754819Y-120790475D02*
X147040533Y-120599999D01*
X147040533Y-120599999D02*
X147754819Y-120409523D01*
X147754819Y-120409523D02*
X146754819Y-120171428D01*
X147754819Y-119266666D02*
X147754819Y-119838094D01*
X147754819Y-119552380D02*
X146754819Y-119552380D01*
X146754819Y-119552380D02*
X146897676Y-119647618D01*
X146897676Y-119647618D02*
X146992914Y-119742856D01*
X146992914Y-119742856D02*
X147040533Y-119838094D01*
X156731666Y-134539819D02*
X156731666Y-135254104D01*
X156731666Y-135254104D02*
X156684047Y-135396961D01*
X156684047Y-135396961D02*
X156588809Y-135492200D01*
X156588809Y-135492200D02*
X156445952Y-135539819D01*
X156445952Y-135539819D02*
X156350714Y-135539819D01*
X157731666Y-135539819D02*
X157160238Y-135539819D01*
X157445952Y-135539819D02*
X157445952Y-134539819D01*
X157445952Y-134539819D02*
X157350714Y-134682676D01*
X157350714Y-134682676D02*
X157255476Y-134777914D01*
X157255476Y-134777914D02*
X157160238Y-134825533D01*
X161664580Y-125117857D02*
X161712200Y-125165476D01*
X161712200Y-125165476D02*
X161759819Y-125308333D01*
X161759819Y-125308333D02*
X161759819Y-125403571D01*
X161759819Y-125403571D02*
X161712200Y-125546428D01*
X161712200Y-125546428D02*
X161616961Y-125641666D01*
X161616961Y-125641666D02*
X161521723Y-125689285D01*
X161521723Y-125689285D02*
X161331247Y-125736904D01*
X161331247Y-125736904D02*
X161188390Y-125736904D01*
X161188390Y-125736904D02*
X160997914Y-125689285D01*
X160997914Y-125689285D02*
X160902676Y-125641666D01*
X160902676Y-125641666D02*
X160807438Y-125546428D01*
X160807438Y-125546428D02*
X160759819Y-125403571D01*
X160759819Y-125403571D02*
X160759819Y-125308333D01*
X160759819Y-125308333D02*
X160807438Y-125165476D01*
X160807438Y-125165476D02*
X160855057Y-125117857D01*
X161759819Y-124165476D02*
X161759819Y-124736904D01*
X161759819Y-124451190D02*
X160759819Y-124451190D01*
X160759819Y-124451190D02*
X160902676Y-124546428D01*
X160902676Y-124546428D02*
X160997914Y-124641666D01*
X160997914Y-124641666D02*
X161045533Y-124736904D01*
X161759819Y-123689285D02*
X161759819Y-123498809D01*
X161759819Y-123498809D02*
X161712200Y-123403571D01*
X161712200Y-123403571D02*
X161664580Y-123355952D01*
X161664580Y-123355952D02*
X161521723Y-123260714D01*
X161521723Y-123260714D02*
X161331247Y-123213095D01*
X161331247Y-123213095D02*
X160950295Y-123213095D01*
X160950295Y-123213095D02*
X160855057Y-123260714D01*
X160855057Y-123260714D02*
X160807438Y-123308333D01*
X160807438Y-123308333D02*
X160759819Y-123403571D01*
X160759819Y-123403571D02*
X160759819Y-123594047D01*
X160759819Y-123594047D02*
X160807438Y-123689285D01*
X160807438Y-123689285D02*
X160855057Y-123736904D01*
X160855057Y-123736904D02*
X160950295Y-123784523D01*
X160950295Y-123784523D02*
X161188390Y-123784523D01*
X161188390Y-123784523D02*
X161283628Y-123736904D01*
X161283628Y-123736904D02*
X161331247Y-123689285D01*
X161331247Y-123689285D02*
X161378866Y-123594047D01*
X161378866Y-123594047D02*
X161378866Y-123403571D01*
X161378866Y-123403571D02*
X161331247Y-123308333D01*
X161331247Y-123308333D02*
X161283628Y-123260714D01*
X161283628Y-123260714D02*
X161188390Y-123213095D01*
X158629580Y-116866666D02*
X158677200Y-116914285D01*
X158677200Y-116914285D02*
X158724819Y-117057142D01*
X158724819Y-117057142D02*
X158724819Y-117152380D01*
X158724819Y-117152380D02*
X158677200Y-117295237D01*
X158677200Y-117295237D02*
X158581961Y-117390475D01*
X158581961Y-117390475D02*
X158486723Y-117438094D01*
X158486723Y-117438094D02*
X158296247Y-117485713D01*
X158296247Y-117485713D02*
X158153390Y-117485713D01*
X158153390Y-117485713D02*
X157962914Y-117438094D01*
X157962914Y-117438094D02*
X157867676Y-117390475D01*
X157867676Y-117390475D02*
X157772438Y-117295237D01*
X157772438Y-117295237D02*
X157724819Y-117152380D01*
X157724819Y-117152380D02*
X157724819Y-117057142D01*
X157724819Y-117057142D02*
X157772438Y-116914285D01*
X157772438Y-116914285D02*
X157820057Y-116866666D01*
X157820057Y-116485713D02*
X157772438Y-116438094D01*
X157772438Y-116438094D02*
X157724819Y-116342856D01*
X157724819Y-116342856D02*
X157724819Y-116104761D01*
X157724819Y-116104761D02*
X157772438Y-116009523D01*
X157772438Y-116009523D02*
X157820057Y-115961904D01*
X157820057Y-115961904D02*
X157915295Y-115914285D01*
X157915295Y-115914285D02*
X158010533Y-115914285D01*
X158010533Y-115914285D02*
X158153390Y-115961904D01*
X158153390Y-115961904D02*
X158724819Y-116533332D01*
X158724819Y-116533332D02*
X158724819Y-115914285D01*
X161407142Y-134139580D02*
X161359523Y-134187200D01*
X161359523Y-134187200D02*
X161216666Y-134234819D01*
X161216666Y-134234819D02*
X161121428Y-134234819D01*
X161121428Y-134234819D02*
X160978571Y-134187200D01*
X160978571Y-134187200D02*
X160883333Y-134091961D01*
X160883333Y-134091961D02*
X160835714Y-133996723D01*
X160835714Y-133996723D02*
X160788095Y-133806247D01*
X160788095Y-133806247D02*
X160788095Y-133663390D01*
X160788095Y-133663390D02*
X160835714Y-133472914D01*
X160835714Y-133472914D02*
X160883333Y-133377676D01*
X160883333Y-133377676D02*
X160978571Y-133282438D01*
X160978571Y-133282438D02*
X161121428Y-133234819D01*
X161121428Y-133234819D02*
X161216666Y-133234819D01*
X161216666Y-133234819D02*
X161359523Y-133282438D01*
X161359523Y-133282438D02*
X161407142Y-133330057D01*
X161788095Y-133330057D02*
X161835714Y-133282438D01*
X161835714Y-133282438D02*
X161930952Y-133234819D01*
X161930952Y-133234819D02*
X162169047Y-133234819D01*
X162169047Y-133234819D02*
X162264285Y-133282438D01*
X162264285Y-133282438D02*
X162311904Y-133330057D01*
X162311904Y-133330057D02*
X162359523Y-133425295D01*
X162359523Y-133425295D02*
X162359523Y-133520533D01*
X162359523Y-133520533D02*
X162311904Y-133663390D01*
X162311904Y-133663390D02*
X161740476Y-134234819D01*
X161740476Y-134234819D02*
X162359523Y-134234819D01*
X162740476Y-133330057D02*
X162788095Y-133282438D01*
X162788095Y-133282438D02*
X162883333Y-133234819D01*
X162883333Y-133234819D02*
X163121428Y-133234819D01*
X163121428Y-133234819D02*
X163216666Y-133282438D01*
X163216666Y-133282438D02*
X163264285Y-133330057D01*
X163264285Y-133330057D02*
X163311904Y-133425295D01*
X163311904Y-133425295D02*
X163311904Y-133520533D01*
X163311904Y-133520533D02*
X163264285Y-133663390D01*
X163264285Y-133663390D02*
X162692857Y-134234819D01*
X162692857Y-134234819D02*
X163311904Y-134234819D01*
X160129580Y-118542857D02*
X160177200Y-118590476D01*
X160177200Y-118590476D02*
X160224819Y-118733333D01*
X160224819Y-118733333D02*
X160224819Y-118828571D01*
X160224819Y-118828571D02*
X160177200Y-118971428D01*
X160177200Y-118971428D02*
X160081961Y-119066666D01*
X160081961Y-119066666D02*
X159986723Y-119114285D01*
X159986723Y-119114285D02*
X159796247Y-119161904D01*
X159796247Y-119161904D02*
X159653390Y-119161904D01*
X159653390Y-119161904D02*
X159462914Y-119114285D01*
X159462914Y-119114285D02*
X159367676Y-119066666D01*
X159367676Y-119066666D02*
X159272438Y-118971428D01*
X159272438Y-118971428D02*
X159224819Y-118828571D01*
X159224819Y-118828571D02*
X159224819Y-118733333D01*
X159224819Y-118733333D02*
X159272438Y-118590476D01*
X159272438Y-118590476D02*
X159320057Y-118542857D01*
X160224819Y-117590476D02*
X160224819Y-118161904D01*
X160224819Y-117876190D02*
X159224819Y-117876190D01*
X159224819Y-117876190D02*
X159367676Y-117971428D01*
X159367676Y-117971428D02*
X159462914Y-118066666D01*
X159462914Y-118066666D02*
X159510533Y-118161904D01*
X159653390Y-117019047D02*
X159605771Y-117114285D01*
X159605771Y-117114285D02*
X159558152Y-117161904D01*
X159558152Y-117161904D02*
X159462914Y-117209523D01*
X159462914Y-117209523D02*
X159415295Y-117209523D01*
X159415295Y-117209523D02*
X159320057Y-117161904D01*
X159320057Y-117161904D02*
X159272438Y-117114285D01*
X159272438Y-117114285D02*
X159224819Y-117019047D01*
X159224819Y-117019047D02*
X159224819Y-116828571D01*
X159224819Y-116828571D02*
X159272438Y-116733333D01*
X159272438Y-116733333D02*
X159320057Y-116685714D01*
X159320057Y-116685714D02*
X159415295Y-116638095D01*
X159415295Y-116638095D02*
X159462914Y-116638095D01*
X159462914Y-116638095D02*
X159558152Y-116685714D01*
X159558152Y-116685714D02*
X159605771Y-116733333D01*
X159605771Y-116733333D02*
X159653390Y-116828571D01*
X159653390Y-116828571D02*
X159653390Y-117019047D01*
X159653390Y-117019047D02*
X159701009Y-117114285D01*
X159701009Y-117114285D02*
X159748628Y-117161904D01*
X159748628Y-117161904D02*
X159843866Y-117209523D01*
X159843866Y-117209523D02*
X160034342Y-117209523D01*
X160034342Y-117209523D02*
X160129580Y-117161904D01*
X160129580Y-117161904D02*
X160177200Y-117114285D01*
X160177200Y-117114285D02*
X160224819Y-117019047D01*
X160224819Y-117019047D02*
X160224819Y-116828571D01*
X160224819Y-116828571D02*
X160177200Y-116733333D01*
X160177200Y-116733333D02*
X160129580Y-116685714D01*
X160129580Y-116685714D02*
X160034342Y-116638095D01*
X160034342Y-116638095D02*
X159843866Y-116638095D01*
X159843866Y-116638095D02*
X159748628Y-116685714D01*
X159748628Y-116685714D02*
X159701009Y-116733333D01*
X159701009Y-116733333D02*
X159653390Y-116828571D01*
X165733333Y-128789580D02*
X165685714Y-128837200D01*
X165685714Y-128837200D02*
X165542857Y-128884819D01*
X165542857Y-128884819D02*
X165447619Y-128884819D01*
X165447619Y-128884819D02*
X165304762Y-128837200D01*
X165304762Y-128837200D02*
X165209524Y-128741961D01*
X165209524Y-128741961D02*
X165161905Y-128646723D01*
X165161905Y-128646723D02*
X165114286Y-128456247D01*
X165114286Y-128456247D02*
X165114286Y-128313390D01*
X165114286Y-128313390D02*
X165161905Y-128122914D01*
X165161905Y-128122914D02*
X165209524Y-128027676D01*
X165209524Y-128027676D02*
X165304762Y-127932438D01*
X165304762Y-127932438D02*
X165447619Y-127884819D01*
X165447619Y-127884819D02*
X165542857Y-127884819D01*
X165542857Y-127884819D02*
X165685714Y-127932438D01*
X165685714Y-127932438D02*
X165733333Y-127980057D01*
X166066667Y-127884819D02*
X166685714Y-127884819D01*
X166685714Y-127884819D02*
X166352381Y-128265771D01*
X166352381Y-128265771D02*
X166495238Y-128265771D01*
X166495238Y-128265771D02*
X166590476Y-128313390D01*
X166590476Y-128313390D02*
X166638095Y-128361009D01*
X166638095Y-128361009D02*
X166685714Y-128456247D01*
X166685714Y-128456247D02*
X166685714Y-128694342D01*
X166685714Y-128694342D02*
X166638095Y-128789580D01*
X166638095Y-128789580D02*
X166590476Y-128837200D01*
X166590476Y-128837200D02*
X166495238Y-128884819D01*
X166495238Y-128884819D02*
X166209524Y-128884819D01*
X166209524Y-128884819D02*
X166114286Y-128837200D01*
X166114286Y-128837200D02*
X166066667Y-128789580D01*
X159884819Y-111508333D02*
X160599104Y-111508333D01*
X160599104Y-111508333D02*
X160741961Y-111555952D01*
X160741961Y-111555952D02*
X160837200Y-111651190D01*
X160837200Y-111651190D02*
X160884819Y-111794047D01*
X160884819Y-111794047D02*
X160884819Y-111889285D01*
X159884819Y-110555952D02*
X159884819Y-111032142D01*
X159884819Y-111032142D02*
X160361009Y-111079761D01*
X160361009Y-111079761D02*
X160313390Y-111032142D01*
X160313390Y-111032142D02*
X160265771Y-110936904D01*
X160265771Y-110936904D02*
X160265771Y-110698809D01*
X160265771Y-110698809D02*
X160313390Y-110603571D01*
X160313390Y-110603571D02*
X160361009Y-110555952D01*
X160361009Y-110555952D02*
X160456247Y-110508333D01*
X160456247Y-110508333D02*
X160694342Y-110508333D01*
X160694342Y-110508333D02*
X160789580Y-110555952D01*
X160789580Y-110555952D02*
X160837200Y-110603571D01*
X160837200Y-110603571D02*
X160884819Y-110698809D01*
X160884819Y-110698809D02*
X160884819Y-110936904D01*
X160884819Y-110936904D02*
X160837200Y-111032142D01*
X160837200Y-111032142D02*
X160789580Y-111079761D01*
X169866905Y-114114819D02*
X169866905Y-114924342D01*
X169866905Y-114924342D02*
X169914524Y-115019580D01*
X169914524Y-115019580D02*
X169962143Y-115067200D01*
X169962143Y-115067200D02*
X170057381Y-115114819D01*
X170057381Y-115114819D02*
X170247857Y-115114819D01*
X170247857Y-115114819D02*
X170343095Y-115067200D01*
X170343095Y-115067200D02*
X170390714Y-115019580D01*
X170390714Y-115019580D02*
X170438333Y-114924342D01*
X170438333Y-114924342D02*
X170438333Y-114114819D01*
X171438333Y-115114819D02*
X170866905Y-115114819D01*
X171152619Y-115114819D02*
X171152619Y-114114819D01*
X171152619Y-114114819D02*
X171057381Y-114257676D01*
X171057381Y-114257676D02*
X170962143Y-114352914D01*
X170962143Y-114352914D02*
X170866905Y-114400533D01*
X172390714Y-115114819D02*
X171819286Y-115114819D01*
X172105000Y-115114819D02*
X172105000Y-114114819D01*
X172105000Y-114114819D02*
X172009762Y-114257676D01*
X172009762Y-114257676D02*
X171914524Y-114352914D01*
X171914524Y-114352914D02*
X171819286Y-114400533D01*
D11*
X196116904Y-143692580D02*
X196116904Y-142883057D01*
X196116904Y-142883057D02*
X196069285Y-142787819D01*
X196069285Y-142787819D02*
X196021666Y-142740200D01*
X196021666Y-142740200D02*
X195926428Y-142692580D01*
X195926428Y-142692580D02*
X195735952Y-142692580D01*
X195735952Y-142692580D02*
X195640714Y-142740200D01*
X195640714Y-142740200D02*
X195593095Y-142787819D01*
X195593095Y-142787819D02*
X195545476Y-142883057D01*
X195545476Y-142883057D02*
X195545476Y-143692580D01*
X195164523Y-143692580D02*
X194545476Y-143692580D01*
X194545476Y-143692580D02*
X194878809Y-143311628D01*
X194878809Y-143311628D02*
X194735952Y-143311628D01*
X194735952Y-143311628D02*
X194640714Y-143264009D01*
X194640714Y-143264009D02*
X194593095Y-143216390D01*
X194593095Y-143216390D02*
X194545476Y-143121152D01*
X194545476Y-143121152D02*
X194545476Y-142883057D01*
X194545476Y-142883057D02*
X194593095Y-142787819D01*
X194593095Y-142787819D02*
X194640714Y-142740200D01*
X194640714Y-142740200D02*
X194735952Y-142692580D01*
X194735952Y-142692580D02*
X195021666Y-142692580D01*
X195021666Y-142692580D02*
X195116904Y-142740200D01*
X195116904Y-142740200D02*
X195164523Y-142787819D01*
D10*
X169233333Y-126054819D02*
X168757143Y-126054819D01*
X168757143Y-126054819D02*
X168757143Y-125054819D01*
X170090476Y-126054819D02*
X169519048Y-126054819D01*
X169804762Y-126054819D02*
X169804762Y-125054819D01*
X169804762Y-125054819D02*
X169709524Y-125197676D01*
X169709524Y-125197676D02*
X169614286Y-125292914D01*
X169614286Y-125292914D02*
X169519048Y-125340533D01*
X133646666Y-137794819D02*
X133313333Y-137318628D01*
X133075238Y-137794819D02*
X133075238Y-136794819D01*
X133075238Y-136794819D02*
X133456190Y-136794819D01*
X133456190Y-136794819D02*
X133551428Y-136842438D01*
X133551428Y-136842438D02*
X133599047Y-136890057D01*
X133599047Y-136890057D02*
X133646666Y-136985295D01*
X133646666Y-136985295D02*
X133646666Y-137128152D01*
X133646666Y-137128152D02*
X133599047Y-137223390D01*
X133599047Y-137223390D02*
X133551428Y-137271009D01*
X133551428Y-137271009D02*
X133456190Y-137318628D01*
X133456190Y-137318628D02*
X133075238Y-137318628D01*
X134075238Y-137271009D02*
X134408571Y-137271009D01*
X134551428Y-137794819D02*
X134075238Y-137794819D01*
X134075238Y-137794819D02*
X134075238Y-136794819D01*
X134075238Y-136794819D02*
X134551428Y-136794819D01*
X135313333Y-137271009D02*
X134980000Y-137271009D01*
X134980000Y-137794819D02*
X134980000Y-136794819D01*
X134980000Y-136794819D02*
X135456190Y-136794819D01*
X135980000Y-136794819D02*
X135980000Y-137032914D01*
X135741905Y-136937676D02*
X135980000Y-137032914D01*
X135980000Y-137032914D02*
X136218095Y-136937676D01*
X135837143Y-137223390D02*
X135980000Y-137032914D01*
X135980000Y-137032914D02*
X136122857Y-137223390D01*
X136741905Y-136794819D02*
X136741905Y-137032914D01*
X136503810Y-136937676D02*
X136741905Y-137032914D01*
X136741905Y-137032914D02*
X136980000Y-136937676D01*
X136599048Y-137223390D02*
X136741905Y-137032914D01*
X136741905Y-137032914D02*
X136884762Y-137223390D01*
X160164580Y-125117857D02*
X160212200Y-125165476D01*
X160212200Y-125165476D02*
X160259819Y-125308333D01*
X160259819Y-125308333D02*
X160259819Y-125403571D01*
X160259819Y-125403571D02*
X160212200Y-125546428D01*
X160212200Y-125546428D02*
X160116961Y-125641666D01*
X160116961Y-125641666D02*
X160021723Y-125689285D01*
X160021723Y-125689285D02*
X159831247Y-125736904D01*
X159831247Y-125736904D02*
X159688390Y-125736904D01*
X159688390Y-125736904D02*
X159497914Y-125689285D01*
X159497914Y-125689285D02*
X159402676Y-125641666D01*
X159402676Y-125641666D02*
X159307438Y-125546428D01*
X159307438Y-125546428D02*
X159259819Y-125403571D01*
X159259819Y-125403571D02*
X159259819Y-125308333D01*
X159259819Y-125308333D02*
X159307438Y-125165476D01*
X159307438Y-125165476D02*
X159355057Y-125117857D01*
X159355057Y-124736904D02*
X159307438Y-124689285D01*
X159307438Y-124689285D02*
X159259819Y-124594047D01*
X159259819Y-124594047D02*
X159259819Y-124355952D01*
X159259819Y-124355952D02*
X159307438Y-124260714D01*
X159307438Y-124260714D02*
X159355057Y-124213095D01*
X159355057Y-124213095D02*
X159450295Y-124165476D01*
X159450295Y-124165476D02*
X159545533Y-124165476D01*
X159545533Y-124165476D02*
X159688390Y-124213095D01*
X159688390Y-124213095D02*
X160259819Y-124784523D01*
X160259819Y-124784523D02*
X160259819Y-124165476D01*
X159259819Y-123546428D02*
X159259819Y-123451190D01*
X159259819Y-123451190D02*
X159307438Y-123355952D01*
X159307438Y-123355952D02*
X159355057Y-123308333D01*
X159355057Y-123308333D02*
X159450295Y-123260714D01*
X159450295Y-123260714D02*
X159640771Y-123213095D01*
X159640771Y-123213095D02*
X159878866Y-123213095D01*
X159878866Y-123213095D02*
X160069342Y-123260714D01*
X160069342Y-123260714D02*
X160164580Y-123308333D01*
X160164580Y-123308333D02*
X160212200Y-123355952D01*
X160212200Y-123355952D02*
X160259819Y-123451190D01*
X160259819Y-123451190D02*
X160259819Y-123546428D01*
X160259819Y-123546428D02*
X160212200Y-123641666D01*
X160212200Y-123641666D02*
X160164580Y-123689285D01*
X160164580Y-123689285D02*
X160069342Y-123736904D01*
X160069342Y-123736904D02*
X159878866Y-123784523D01*
X159878866Y-123784523D02*
X159640771Y-123784523D01*
X159640771Y-123784523D02*
X159450295Y-123736904D01*
X159450295Y-123736904D02*
X159355057Y-123689285D01*
X159355057Y-123689285D02*
X159307438Y-123641666D01*
X159307438Y-123641666D02*
X159259819Y-123546428D01*
X161532142Y-127039580D02*
X161484523Y-127087200D01*
X161484523Y-127087200D02*
X161341666Y-127134819D01*
X161341666Y-127134819D02*
X161246428Y-127134819D01*
X161246428Y-127134819D02*
X161103571Y-127087200D01*
X161103571Y-127087200D02*
X161008333Y-126991961D01*
X161008333Y-126991961D02*
X160960714Y-126896723D01*
X160960714Y-126896723D02*
X160913095Y-126706247D01*
X160913095Y-126706247D02*
X160913095Y-126563390D01*
X160913095Y-126563390D02*
X160960714Y-126372914D01*
X160960714Y-126372914D02*
X161008333Y-126277676D01*
X161008333Y-126277676D02*
X161103571Y-126182438D01*
X161103571Y-126182438D02*
X161246428Y-126134819D01*
X161246428Y-126134819D02*
X161341666Y-126134819D01*
X161341666Y-126134819D02*
X161484523Y-126182438D01*
X161484523Y-126182438D02*
X161532142Y-126230057D01*
X161913095Y-126230057D02*
X161960714Y-126182438D01*
X161960714Y-126182438D02*
X162055952Y-126134819D01*
X162055952Y-126134819D02*
X162294047Y-126134819D01*
X162294047Y-126134819D02*
X162389285Y-126182438D01*
X162389285Y-126182438D02*
X162436904Y-126230057D01*
X162436904Y-126230057D02*
X162484523Y-126325295D01*
X162484523Y-126325295D02*
X162484523Y-126420533D01*
X162484523Y-126420533D02*
X162436904Y-126563390D01*
X162436904Y-126563390D02*
X161865476Y-127134819D01*
X161865476Y-127134819D02*
X162484523Y-127134819D01*
X162817857Y-126134819D02*
X163436904Y-126134819D01*
X163436904Y-126134819D02*
X163103571Y-126515771D01*
X163103571Y-126515771D02*
X163246428Y-126515771D01*
X163246428Y-126515771D02*
X163341666Y-126563390D01*
X163341666Y-126563390D02*
X163389285Y-126611009D01*
X163389285Y-126611009D02*
X163436904Y-126706247D01*
X163436904Y-126706247D02*
X163436904Y-126944342D01*
X163436904Y-126944342D02*
X163389285Y-127039580D01*
X163389285Y-127039580D02*
X163341666Y-127087200D01*
X163341666Y-127087200D02*
X163246428Y-127134819D01*
X163246428Y-127134819D02*
X162960714Y-127134819D01*
X162960714Y-127134819D02*
X162865476Y-127087200D01*
X162865476Y-127087200D02*
X162817857Y-127039580D01*
D11*
X180938095Y-117157419D02*
X180938095Y-117966942D01*
X180938095Y-117966942D02*
X180985714Y-118062180D01*
X180985714Y-118062180D02*
X181033333Y-118109800D01*
X181033333Y-118109800D02*
X181128571Y-118157419D01*
X181128571Y-118157419D02*
X181319047Y-118157419D01*
X181319047Y-118157419D02*
X181414285Y-118109800D01*
X181414285Y-118109800D02*
X181461904Y-118062180D01*
X181461904Y-118062180D02*
X181509523Y-117966942D01*
X181509523Y-117966942D02*
X181509523Y-117157419D01*
X182033333Y-118157419D02*
X182223809Y-118157419D01*
X182223809Y-118157419D02*
X182319047Y-118109800D01*
X182319047Y-118109800D02*
X182366666Y-118062180D01*
X182366666Y-118062180D02*
X182461904Y-117919323D01*
X182461904Y-117919323D02*
X182509523Y-117728847D01*
X182509523Y-117728847D02*
X182509523Y-117347895D01*
X182509523Y-117347895D02*
X182461904Y-117252657D01*
X182461904Y-117252657D02*
X182414285Y-117205038D01*
X182414285Y-117205038D02*
X182319047Y-117157419D01*
X182319047Y-117157419D02*
X182128571Y-117157419D01*
X182128571Y-117157419D02*
X182033333Y-117205038D01*
X182033333Y-117205038D02*
X181985714Y-117252657D01*
X181985714Y-117252657D02*
X181938095Y-117347895D01*
X181938095Y-117347895D02*
X181938095Y-117585990D01*
X181938095Y-117585990D02*
X181985714Y-117681228D01*
X181985714Y-117681228D02*
X182033333Y-117728847D01*
X182033333Y-117728847D02*
X182128571Y-117776466D01*
X182128571Y-117776466D02*
X182319047Y-117776466D01*
X182319047Y-117776466D02*
X182414285Y-117728847D01*
X182414285Y-117728847D02*
X182461904Y-117681228D01*
X182461904Y-117681228D02*
X182509523Y-117585990D01*
D10*
X168804819Y-131188094D02*
X167804819Y-131188094D01*
X167804819Y-131188094D02*
X167804819Y-130949999D01*
X167804819Y-130949999D02*
X167852438Y-130807142D01*
X167852438Y-130807142D02*
X167947676Y-130711904D01*
X167947676Y-130711904D02*
X168042914Y-130664285D01*
X168042914Y-130664285D02*
X168233390Y-130616666D01*
X168233390Y-130616666D02*
X168376247Y-130616666D01*
X168376247Y-130616666D02*
X168566723Y-130664285D01*
X168566723Y-130664285D02*
X168661961Y-130711904D01*
X168661961Y-130711904D02*
X168757200Y-130807142D01*
X168757200Y-130807142D02*
X168804819Y-130949999D01*
X168804819Y-130949999D02*
X168804819Y-131188094D01*
X168804819Y-129664285D02*
X168804819Y-130235713D01*
X168804819Y-129949999D02*
X167804819Y-129949999D01*
X167804819Y-129949999D02*
X167947676Y-130045237D01*
X167947676Y-130045237D02*
X168042914Y-130140475D01*
X168042914Y-130140475D02*
X168090533Y-130235713D01*
X150988095Y-108629819D02*
X150988095Y-109439342D01*
X150988095Y-109439342D02*
X151035714Y-109534580D01*
X151035714Y-109534580D02*
X151083333Y-109582200D01*
X151083333Y-109582200D02*
X151178571Y-109629819D01*
X151178571Y-109629819D02*
X151369047Y-109629819D01*
X151369047Y-109629819D02*
X151464285Y-109582200D01*
X151464285Y-109582200D02*
X151511904Y-109534580D01*
X151511904Y-109534580D02*
X151559523Y-109439342D01*
X151559523Y-109439342D02*
X151559523Y-108629819D01*
X152464285Y-108963152D02*
X152464285Y-109629819D01*
X152226190Y-108582200D02*
X151988095Y-109296485D01*
X151988095Y-109296485D02*
X152607142Y-109296485D01*
X176291666Y-126184819D02*
X176291666Y-126899104D01*
X176291666Y-126899104D02*
X176244047Y-127041961D01*
X176244047Y-127041961D02*
X176148809Y-127137200D01*
X176148809Y-127137200D02*
X176005952Y-127184819D01*
X176005952Y-127184819D02*
X175910714Y-127184819D01*
X176672619Y-126184819D02*
X177291666Y-126184819D01*
X177291666Y-126184819D02*
X176958333Y-126565771D01*
X176958333Y-126565771D02*
X177101190Y-126565771D01*
X177101190Y-126565771D02*
X177196428Y-126613390D01*
X177196428Y-126613390D02*
X177244047Y-126661009D01*
X177244047Y-126661009D02*
X177291666Y-126756247D01*
X177291666Y-126756247D02*
X177291666Y-126994342D01*
X177291666Y-126994342D02*
X177244047Y-127089580D01*
X177244047Y-127089580D02*
X177196428Y-127137200D01*
X177196428Y-127137200D02*
X177101190Y-127184819D01*
X177101190Y-127184819D02*
X176815476Y-127184819D01*
X176815476Y-127184819D02*
X176720238Y-127137200D01*
X176720238Y-127137200D02*
X176672619Y-127089580D01*
X168757142Y-130529580D02*
X168709523Y-130577200D01*
X168709523Y-130577200D02*
X168566666Y-130624819D01*
X168566666Y-130624819D02*
X168471428Y-130624819D01*
X168471428Y-130624819D02*
X168328571Y-130577200D01*
X168328571Y-130577200D02*
X168233333Y-130481961D01*
X168233333Y-130481961D02*
X168185714Y-130386723D01*
X168185714Y-130386723D02*
X168138095Y-130196247D01*
X168138095Y-130196247D02*
X168138095Y-130053390D01*
X168138095Y-130053390D02*
X168185714Y-129862914D01*
X168185714Y-129862914D02*
X168233333Y-129767676D01*
X168233333Y-129767676D02*
X168328571Y-129672438D01*
X168328571Y-129672438D02*
X168471428Y-129624819D01*
X168471428Y-129624819D02*
X168566666Y-129624819D01*
X168566666Y-129624819D02*
X168709523Y-129672438D01*
X168709523Y-129672438D02*
X168757142Y-129720057D01*
X169709523Y-130624819D02*
X169138095Y-130624819D01*
X169423809Y-130624819D02*
X169423809Y-129624819D01*
X169423809Y-129624819D02*
X169328571Y-129767676D01*
X169328571Y-129767676D02*
X169233333Y-129862914D01*
X169233333Y-129862914D02*
X169138095Y-129910533D01*
X170328571Y-129624819D02*
X170423809Y-129624819D01*
X170423809Y-129624819D02*
X170519047Y-129672438D01*
X170519047Y-129672438D02*
X170566666Y-129720057D01*
X170566666Y-129720057D02*
X170614285Y-129815295D01*
X170614285Y-129815295D02*
X170661904Y-130005771D01*
X170661904Y-130005771D02*
X170661904Y-130243866D01*
X170661904Y-130243866D02*
X170614285Y-130434342D01*
X170614285Y-130434342D02*
X170566666Y-130529580D01*
X170566666Y-130529580D02*
X170519047Y-130577200D01*
X170519047Y-130577200D02*
X170423809Y-130624819D01*
X170423809Y-130624819D02*
X170328571Y-130624819D01*
X170328571Y-130624819D02*
X170233333Y-130577200D01*
X170233333Y-130577200D02*
X170185714Y-130529580D01*
X170185714Y-130529580D02*
X170138095Y-130434342D01*
X170138095Y-130434342D02*
X170090476Y-130243866D01*
X170090476Y-130243866D02*
X170090476Y-130005771D01*
X170090476Y-130005771D02*
X170138095Y-129815295D01*
X170138095Y-129815295D02*
X170185714Y-129720057D01*
X170185714Y-129720057D02*
X170233333Y-129672438D01*
X170233333Y-129672438D02*
X170328571Y-129624819D01*
X154584819Y-121891666D02*
X154108628Y-122224999D01*
X154584819Y-122463094D02*
X153584819Y-122463094D01*
X153584819Y-122463094D02*
X153584819Y-122082142D01*
X153584819Y-122082142D02*
X153632438Y-121986904D01*
X153632438Y-121986904D02*
X153680057Y-121939285D01*
X153680057Y-121939285D02*
X153775295Y-121891666D01*
X153775295Y-121891666D02*
X153918152Y-121891666D01*
X153918152Y-121891666D02*
X154013390Y-121939285D01*
X154013390Y-121939285D02*
X154061009Y-121986904D01*
X154061009Y-121986904D02*
X154108628Y-122082142D01*
X154108628Y-122082142D02*
X154108628Y-122463094D01*
X154584819Y-120939285D02*
X154584819Y-121510713D01*
X154584819Y-121224999D02*
X153584819Y-121224999D01*
X153584819Y-121224999D02*
X153727676Y-121320237D01*
X153727676Y-121320237D02*
X153822914Y-121415475D01*
X153822914Y-121415475D02*
X153870533Y-121510713D01*
X161407142Y-132639580D02*
X161359523Y-132687200D01*
X161359523Y-132687200D02*
X161216666Y-132734819D01*
X161216666Y-132734819D02*
X161121428Y-132734819D01*
X161121428Y-132734819D02*
X160978571Y-132687200D01*
X160978571Y-132687200D02*
X160883333Y-132591961D01*
X160883333Y-132591961D02*
X160835714Y-132496723D01*
X160835714Y-132496723D02*
X160788095Y-132306247D01*
X160788095Y-132306247D02*
X160788095Y-132163390D01*
X160788095Y-132163390D02*
X160835714Y-131972914D01*
X160835714Y-131972914D02*
X160883333Y-131877676D01*
X160883333Y-131877676D02*
X160978571Y-131782438D01*
X160978571Y-131782438D02*
X161121428Y-131734819D01*
X161121428Y-131734819D02*
X161216666Y-131734819D01*
X161216666Y-131734819D02*
X161359523Y-131782438D01*
X161359523Y-131782438D02*
X161407142Y-131830057D01*
X161788095Y-131830057D02*
X161835714Y-131782438D01*
X161835714Y-131782438D02*
X161930952Y-131734819D01*
X161930952Y-131734819D02*
X162169047Y-131734819D01*
X162169047Y-131734819D02*
X162264285Y-131782438D01*
X162264285Y-131782438D02*
X162311904Y-131830057D01*
X162311904Y-131830057D02*
X162359523Y-131925295D01*
X162359523Y-131925295D02*
X162359523Y-132020533D01*
X162359523Y-132020533D02*
X162311904Y-132163390D01*
X162311904Y-132163390D02*
X161740476Y-132734819D01*
X161740476Y-132734819D02*
X162359523Y-132734819D01*
X163311904Y-132734819D02*
X162740476Y-132734819D01*
X163026190Y-132734819D02*
X163026190Y-131734819D01*
X163026190Y-131734819D02*
X162930952Y-131877676D01*
X162930952Y-131877676D02*
X162835714Y-131972914D01*
X162835714Y-131972914D02*
X162740476Y-132020533D01*
X149636666Y-122459819D02*
X149636666Y-123174104D01*
X149636666Y-123174104D02*
X149589047Y-123316961D01*
X149589047Y-123316961D02*
X149493809Y-123412200D01*
X149493809Y-123412200D02*
X149350952Y-123459819D01*
X149350952Y-123459819D02*
X149255714Y-123459819D01*
X150065238Y-122555057D02*
X150112857Y-122507438D01*
X150112857Y-122507438D02*
X150208095Y-122459819D01*
X150208095Y-122459819D02*
X150446190Y-122459819D01*
X150446190Y-122459819D02*
X150541428Y-122507438D01*
X150541428Y-122507438D02*
X150589047Y-122555057D01*
X150589047Y-122555057D02*
X150636666Y-122650295D01*
X150636666Y-122650295D02*
X150636666Y-122745533D01*
X150636666Y-122745533D02*
X150589047Y-122888390D01*
X150589047Y-122888390D02*
X150017619Y-123459819D01*
X150017619Y-123459819D02*
X150636666Y-123459819D01*
X156657142Y-128524819D02*
X156323809Y-128048628D01*
X156085714Y-128524819D02*
X156085714Y-127524819D01*
X156085714Y-127524819D02*
X156466666Y-127524819D01*
X156466666Y-127524819D02*
X156561904Y-127572438D01*
X156561904Y-127572438D02*
X156609523Y-127620057D01*
X156609523Y-127620057D02*
X156657142Y-127715295D01*
X156657142Y-127715295D02*
X156657142Y-127858152D01*
X156657142Y-127858152D02*
X156609523Y-127953390D01*
X156609523Y-127953390D02*
X156561904Y-128001009D01*
X156561904Y-128001009D02*
X156466666Y-128048628D01*
X156466666Y-128048628D02*
X156085714Y-128048628D01*
X157609523Y-128524819D02*
X157038095Y-128524819D01*
X157323809Y-128524819D02*
X157323809Y-127524819D01*
X157323809Y-127524819D02*
X157228571Y-127667676D01*
X157228571Y-127667676D02*
X157133333Y-127762914D01*
X157133333Y-127762914D02*
X157038095Y-127810533D01*
X158180952Y-127953390D02*
X158085714Y-127905771D01*
X158085714Y-127905771D02*
X158038095Y-127858152D01*
X158038095Y-127858152D02*
X157990476Y-127762914D01*
X157990476Y-127762914D02*
X157990476Y-127715295D01*
X157990476Y-127715295D02*
X158038095Y-127620057D01*
X158038095Y-127620057D02*
X158085714Y-127572438D01*
X158085714Y-127572438D02*
X158180952Y-127524819D01*
X158180952Y-127524819D02*
X158371428Y-127524819D01*
X158371428Y-127524819D02*
X158466666Y-127572438D01*
X158466666Y-127572438D02*
X158514285Y-127620057D01*
X158514285Y-127620057D02*
X158561904Y-127715295D01*
X158561904Y-127715295D02*
X158561904Y-127762914D01*
X158561904Y-127762914D02*
X158514285Y-127858152D01*
X158514285Y-127858152D02*
X158466666Y-127905771D01*
X158466666Y-127905771D02*
X158371428Y-127953390D01*
X158371428Y-127953390D02*
X158180952Y-127953390D01*
X158180952Y-127953390D02*
X158085714Y-128001009D01*
X158085714Y-128001009D02*
X158038095Y-128048628D01*
X158038095Y-128048628D02*
X157990476Y-128143866D01*
X157990476Y-128143866D02*
X157990476Y-128334342D01*
X157990476Y-128334342D02*
X158038095Y-128429580D01*
X158038095Y-128429580D02*
X158085714Y-128477200D01*
X158085714Y-128477200D02*
X158180952Y-128524819D01*
X158180952Y-128524819D02*
X158371428Y-128524819D01*
X158371428Y-128524819D02*
X158466666Y-128477200D01*
X158466666Y-128477200D02*
X158514285Y-128429580D01*
X158514285Y-128429580D02*
X158561904Y-128334342D01*
X158561904Y-128334342D02*
X158561904Y-128143866D01*
X158561904Y-128143866D02*
X158514285Y-128048628D01*
X158514285Y-128048628D02*
X158466666Y-128001009D01*
X158466666Y-128001009D02*
X158371428Y-127953390D01*
X148989580Y-113366666D02*
X149037200Y-113414285D01*
X149037200Y-113414285D02*
X149084819Y-113557142D01*
X149084819Y-113557142D02*
X149084819Y-113652380D01*
X149084819Y-113652380D02*
X149037200Y-113795237D01*
X149037200Y-113795237D02*
X148941961Y-113890475D01*
X148941961Y-113890475D02*
X148846723Y-113938094D01*
X148846723Y-113938094D02*
X148656247Y-113985713D01*
X148656247Y-113985713D02*
X148513390Y-113985713D01*
X148513390Y-113985713D02*
X148322914Y-113938094D01*
X148322914Y-113938094D02*
X148227676Y-113890475D01*
X148227676Y-113890475D02*
X148132438Y-113795237D01*
X148132438Y-113795237D02*
X148084819Y-113652380D01*
X148084819Y-113652380D02*
X148084819Y-113557142D01*
X148084819Y-113557142D02*
X148132438Y-113414285D01*
X148132438Y-113414285D02*
X148180057Y-113366666D01*
X148084819Y-112461904D02*
X148084819Y-112938094D01*
X148084819Y-112938094D02*
X148561009Y-112985713D01*
X148561009Y-112985713D02*
X148513390Y-112938094D01*
X148513390Y-112938094D02*
X148465771Y-112842856D01*
X148465771Y-112842856D02*
X148465771Y-112604761D01*
X148465771Y-112604761D02*
X148513390Y-112509523D01*
X148513390Y-112509523D02*
X148561009Y-112461904D01*
X148561009Y-112461904D02*
X148656247Y-112414285D01*
X148656247Y-112414285D02*
X148894342Y-112414285D01*
X148894342Y-112414285D02*
X148989580Y-112461904D01*
X148989580Y-112461904D02*
X149037200Y-112509523D01*
X149037200Y-112509523D02*
X149084819Y-112604761D01*
X149084819Y-112604761D02*
X149084819Y-112842856D01*
X149084819Y-112842856D02*
X149037200Y-112938094D01*
X149037200Y-112938094D02*
X148989580Y-112985713D01*
D12*
X169259420Y-132590000D02*
X169540580Y-132590000D01*
X169259420Y-133610000D02*
X169540580Y-133610000D01*
D13*
G36*
X149681955Y-140963635D02*
G01*
X149690622Y-140978756D01*
X149696948Y-140991141D01*
X149699668Y-140998294D01*
X149699693Y-140998589D01*
X149701788Y-141002581D01*
X149703034Y-141002252D01*
X149707050Y-141004447D01*
X149711469Y-141011704D01*
X149716683Y-141023147D01*
X149410946Y-141023199D01*
X149105209Y-141023250D01*
X149083698Y-141011237D01*
X149070920Y-141001790D01*
X149057141Y-140988035D01*
X149044221Y-140972323D01*
X149034022Y-140957004D01*
X149028403Y-140944428D01*
X149027856Y-140940713D01*
X149029126Y-140939437D01*
X149033339Y-140938336D01*
X149041098Y-140937399D01*
X149053008Y-140936613D01*
X149069672Y-140935968D01*
X149091693Y-140935449D01*
X149119676Y-140935046D01*
X149154224Y-140934746D01*
X149195941Y-140934537D01*
X149245431Y-140934408D01*
X149303297Y-140934345D01*
X149346097Y-140934334D01*
X149664338Y-140934334D01*
X149681955Y-140963635D01*
G37*
G36*
X149569664Y-140768904D02*
G01*
X149576920Y-140782328D01*
X149581618Y-140793025D01*
X149582611Y-140797032D01*
X149583951Y-140801164D01*
X149584925Y-140800754D01*
X149588997Y-140801567D01*
X149593706Y-140807816D01*
X149597074Y-140815930D01*
X149597124Y-140822341D01*
X149597004Y-140822553D01*
X149596459Y-140825792D01*
X149598585Y-140824916D01*
X149604156Y-140825758D01*
X149606195Y-140828879D01*
X149605899Y-140830300D01*
X149603408Y-140831517D01*
X149598078Y-140832547D01*
X149589262Y-140833404D01*
X149576314Y-140834102D01*
X149558589Y-140834659D01*
X149535441Y-140835087D01*
X149506224Y-140835402D01*
X149470293Y-140835621D01*
X149427002Y-140835756D01*
X149375705Y-140835824D01*
X149315756Y-140835840D01*
X149307821Y-140835839D01*
X149006759Y-140835793D01*
X148983319Y-140824375D01*
X148966605Y-140814788D01*
X149590425Y-140814788D01*
X149592769Y-140817132D01*
X149595113Y-140814788D01*
X149592769Y-140812444D01*
X149590425Y-140814788D01*
X148966605Y-140814788D01*
X148959041Y-140810449D01*
X148941431Y-140794589D01*
X148927819Y-140774019D01*
X148921074Y-140759703D01*
X148915543Y-140746811D01*
X149236130Y-140746811D01*
X149556717Y-140746811D01*
X149569664Y-140768904D01*
G37*
G36*
X149130475Y-140494448D02*
G01*
X149201930Y-140494598D01*
X149223583Y-140494663D01*
X149649026Y-140495999D01*
X149688874Y-140512013D01*
X149711527Y-140521946D01*
X149728851Y-140532034D01*
X149744605Y-140544743D01*
X149756739Y-140556549D01*
X149768321Y-140568080D01*
X149775977Y-140575174D01*
X149778674Y-140576907D01*
X149777836Y-140575467D01*
X149775006Y-140570953D01*
X149778158Y-140573521D01*
X149781531Y-140576978D01*
X149787937Y-140585960D01*
X149789196Y-140592806D01*
X149789011Y-140593168D01*
X149788793Y-140596086D01*
X149790618Y-140595310D01*
X149794321Y-140598337D01*
X149798832Y-140603061D01*
X149797456Y-140602825D01*
X149798596Y-140605445D01*
X149803317Y-140610477D01*
X149805158Y-140609776D01*
X149817852Y-140623784D01*
X149826162Y-140633173D01*
X149821313Y-140629011D01*
X149815760Y-140624957D01*
X149816924Y-140627384D01*
X149819542Y-140630781D01*
X149826385Y-140638070D01*
X149829440Y-140638038D01*
X149829517Y-140637215D01*
X149826758Y-140633845D01*
X149836728Y-140645109D01*
X149859708Y-140671434D01*
X149886317Y-140702214D01*
X149916078Y-140736897D01*
X149948515Y-140774937D01*
X149983151Y-140815783D01*
X150019511Y-140858889D01*
X150021965Y-140861806D01*
X150248570Y-141131233D01*
X151014898Y-141131233D01*
X151781227Y-141131233D01*
X151800142Y-141124201D01*
X152314197Y-141124201D01*
X152316541Y-141126545D01*
X152318885Y-141124201D01*
X152316541Y-141121857D01*
X152314197Y-141124201D01*
X151800142Y-141124201D01*
X151825361Y-141114825D01*
X152309509Y-141114825D01*
X152311853Y-141117169D01*
X152314197Y-141114825D01*
X152311853Y-141112481D01*
X152309509Y-141114825D01*
X151825361Y-141114825D01*
X151850580Y-141105449D01*
X152304821Y-141105449D01*
X152307165Y-141107793D01*
X152309509Y-141105449D01*
X152307165Y-141103105D01*
X152304821Y-141105449D01*
X151850580Y-141105449D01*
X151919962Y-141079654D01*
X151938978Y-141072632D01*
X152286069Y-141072632D01*
X152288413Y-141074977D01*
X152290757Y-141072632D01*
X152288413Y-141070288D01*
X152286069Y-141072632D01*
X151938978Y-141072632D01*
X151961298Y-141064390D01*
X151995353Y-141052099D01*
X152023574Y-141042334D01*
X152047407Y-141034647D01*
X152068302Y-141028587D01*
X152087705Y-141023707D01*
X152107064Y-141019558D01*
X152124330Y-141016313D01*
X152189963Y-141004552D01*
X152230884Y-141019207D01*
X152250523Y-141026506D01*
X152263490Y-141032426D01*
X152272029Y-141038488D01*
X152278384Y-141046213D01*
X152283583Y-141054935D01*
X152289749Y-141067816D01*
X152292627Y-141077693D01*
X152292335Y-141080904D01*
X152292096Y-141083770D01*
X152293725Y-141083072D01*
X152298097Y-141085212D01*
X152304604Y-141093293D01*
X152311694Y-141104633D01*
X152317814Y-141116551D01*
X152321413Y-141126367D01*
X152321426Y-141130915D01*
X152322169Y-141136838D01*
X152324221Y-141138666D01*
X152327509Y-141139297D01*
X152326365Y-141136646D01*
X152324580Y-141131751D01*
X152325178Y-141131233D01*
X152329371Y-141135046D01*
X152335121Y-141144195D01*
X152340669Y-141155245D01*
X152344254Y-141164764D01*
X152344520Y-141168980D01*
X152348635Y-141169735D01*
X152361564Y-141170442D01*
X152382747Y-141171093D01*
X152411622Y-141171681D01*
X152447630Y-141172198D01*
X152490208Y-141172638D01*
X152538795Y-141172991D01*
X152592831Y-141173253D01*
X152651754Y-141173414D01*
X152685524Y-141173457D01*
X153029129Y-141173724D01*
X153105024Y-141160971D01*
X153133430Y-141156089D01*
X153153895Y-141152219D01*
X153167750Y-141148977D01*
X153176326Y-141145983D01*
X153180952Y-141142854D01*
X153182962Y-141139209D01*
X153183129Y-141138554D01*
X153184412Y-141132070D01*
X153187210Y-141117332D01*
X153191344Y-141095303D01*
X153196634Y-141066952D01*
X153202899Y-141033244D01*
X153209960Y-140995146D01*
X153217636Y-140953623D01*
X153224436Y-140916766D01*
X153232456Y-140873523D01*
X153240021Y-140833240D01*
X153246955Y-140796828D01*
X153253080Y-140765198D01*
X153258217Y-140739260D01*
X153262188Y-140719924D01*
X153264817Y-140708102D01*
X153265877Y-140704637D01*
X153267130Y-140709104D01*
X153269792Y-140721901D01*
X153273698Y-140742114D01*
X153278676Y-140768830D01*
X153284561Y-140801136D01*
X153291182Y-140838118D01*
X153298372Y-140878864D01*
X153304976Y-140916760D01*
X153312557Y-140960448D01*
X153319704Y-141001513D01*
X153326247Y-141038985D01*
X153332015Y-141071897D01*
X153336840Y-141099282D01*
X153340551Y-141120170D01*
X153342977Y-141133594D01*
X153343896Y-141138382D01*
X153345003Y-141140658D01*
X153347754Y-141142879D01*
X153352906Y-141145209D01*
X153361216Y-141147810D01*
X153373442Y-141150843D01*
X153390342Y-141154472D01*
X153412673Y-141158859D01*
X153441191Y-141164166D01*
X153476655Y-141170555D01*
X153519822Y-141178188D01*
X153571449Y-141187229D01*
X153573336Y-141187558D01*
X153618026Y-141195392D01*
X153659660Y-141202750D01*
X153697374Y-141209474D01*
X153730305Y-141215408D01*
X153757590Y-141220396D01*
X153778367Y-141224281D01*
X153791774Y-141226906D01*
X153796945Y-141228114D01*
X153796948Y-141228167D01*
X153791730Y-141229128D01*
X153778183Y-141231529D01*
X153757218Y-141235210D01*
X153729745Y-141240011D01*
X153696675Y-141245775D01*
X153658917Y-141252342D01*
X153617384Y-141259553D01*
X153572984Y-141267250D01*
X153570602Y-141267663D01*
X153526177Y-141275371D01*
X153484655Y-141282600D01*
X153446932Y-141289192D01*
X153413906Y-141294989D01*
X153386474Y-141299834D01*
X153365534Y-141303568D01*
X153351984Y-141306033D01*
X153346720Y-141307072D01*
X153346687Y-141307086D01*
X153345477Y-141311750D01*
X153343007Y-141323960D01*
X153339603Y-141342023D01*
X153335590Y-141364243D01*
X153334269Y-141371733D01*
X153329808Y-141397957D01*
X153327049Y-141416889D01*
X153325882Y-141430440D01*
X153326197Y-141440516D01*
X153327883Y-141449026D01*
X153329503Y-141454164D01*
X153333061Y-141468150D01*
X153336412Y-141487508D01*
X153338875Y-141508249D01*
X153339021Y-141509938D01*
X153342118Y-141547077D01*
X153322828Y-141550162D01*
X153314532Y-141551507D01*
X153308670Y-141553445D01*
X153304505Y-141557508D01*
X153301297Y-141565232D01*
X153298308Y-141578149D01*
X153294798Y-141597794D01*
X153292022Y-141614105D01*
X153288870Y-141633542D01*
X153287536Y-141645799D01*
X153288061Y-141652900D01*
X153290487Y-141656873D01*
X153292947Y-141658642D01*
X153314420Y-141677120D01*
X153331399Y-141703692D01*
X153336285Y-141714957D01*
X153340600Y-141727120D01*
X153343741Y-141739418D01*
X153345955Y-141753821D01*
X153347488Y-141772299D01*
X153348587Y-141796822D01*
X153349223Y-141818337D01*
X153349156Y-141872926D01*
X153345862Y-141918881D01*
X153339318Y-141956379D01*
X153329503Y-141985596D01*
X153328168Y-141988423D01*
X153318752Y-142001728D01*
X153304646Y-142015205D01*
X153297844Y-142020227D01*
X153289164Y-142025529D01*
X153279689Y-142030070D01*
X153268688Y-142033896D01*
X153255430Y-142037053D01*
X153239181Y-142039586D01*
X153219211Y-142041541D01*
X153194788Y-142042966D01*
X153165180Y-142043905D01*
X153129655Y-142044405D01*
X153087482Y-142044512D01*
X153037929Y-142044271D01*
X152980264Y-142043729D01*
X152933023Y-142043175D01*
X152874178Y-142042530D01*
X152808394Y-142041953D01*
X152738108Y-142041459D01*
X152665756Y-142041058D01*
X152593777Y-142040765D01*
X152524605Y-142040590D01*
X152460680Y-142040547D01*
X152426711Y-142040587D01*
X152315918Y-142040798D01*
X152213898Y-142040959D01*
X152120050Y-142041068D01*
X152033772Y-142041126D01*
X151954462Y-142041129D01*
X151881517Y-142041078D01*
X151814336Y-142040970D01*
X151752316Y-142040804D01*
X151694856Y-142040578D01*
X151641352Y-142040292D01*
X151591204Y-142039945D01*
X151543809Y-142039534D01*
X151498565Y-142039058D01*
X151454870Y-142038516D01*
X151443387Y-142038360D01*
X151387652Y-142037672D01*
X151340963Y-142037281D01*
X151302993Y-142037189D01*
X151273417Y-142037401D01*
X151251908Y-142037918D01*
X151238141Y-142038745D01*
X151231789Y-142039884D01*
X151231252Y-142040417D01*
X151226943Y-142042518D01*
X151215500Y-142044062D01*
X151199151Y-142045044D01*
X151180120Y-142045456D01*
X151160635Y-142045293D01*
X151142922Y-142044549D01*
X151129208Y-142043217D01*
X151121718Y-142041291D01*
X151121082Y-142040720D01*
X151115708Y-142039627D01*
X151101149Y-142038672D01*
X151077595Y-142037860D01*
X151045237Y-142037192D01*
X151004263Y-142036672D01*
X150954865Y-142036304D01*
X150897232Y-142036090D01*
X150841865Y-142036032D01*
X150776523Y-142036111D01*
X150719751Y-142036348D01*
X150671669Y-142036739D01*
X150632392Y-142037283D01*
X150602041Y-142037979D01*
X150580733Y-142038823D01*
X150568587Y-142039815D01*
X150565545Y-142040720D01*
X150560989Y-142042609D01*
X150547832Y-142044052D01*
X150526843Y-142044998D01*
X150498789Y-142045398D01*
X150492880Y-142045408D01*
X150460732Y-142045086D01*
X150437899Y-142044121D01*
X150424393Y-142042513D01*
X150420214Y-142040402D01*
X150416720Y-142039106D01*
X150406007Y-142038143D01*
X150387728Y-142037508D01*
X150361537Y-142037199D01*
X150327088Y-142037212D01*
X150284035Y-142037542D01*
X150232030Y-142038188D01*
X150219799Y-142038365D01*
X150142134Y-142039341D01*
X150055943Y-142040102D01*
X149962074Y-142040647D01*
X149861373Y-142040977D01*
X149754688Y-142041092D01*
X149642867Y-142040991D01*
X149526757Y-142040676D01*
X149407206Y-142040145D01*
X149285061Y-142039399D01*
X149161169Y-142038438D01*
X149150918Y-142038349D01*
X149081193Y-142037800D01*
X149020635Y-142037452D01*
X148969032Y-142037305D01*
X148926177Y-142037362D01*
X148891860Y-142037623D01*
X148865873Y-142038091D01*
X148848006Y-142038766D01*
X148838052Y-142039650D01*
X148835644Y-142040504D01*
X148830996Y-142042547D01*
X148817177Y-142044052D01*
X148794381Y-142045006D01*
X148762799Y-142045398D01*
X148755947Y-142045408D01*
X148723346Y-142045127D01*
X148699013Y-142044298D01*
X148683288Y-142042941D01*
X148676508Y-142041076D01*
X148676250Y-142040566D01*
X148672203Y-142039610D01*
X148659972Y-142038823D01*
X148639416Y-142038203D01*
X148610397Y-142037749D01*
X148572776Y-142037461D01*
X148526414Y-142037337D01*
X148471172Y-142037377D01*
X148406911Y-142037580D01*
X148333491Y-142037946D01*
X148288311Y-142038221D01*
X148169976Y-142038978D01*
X148060665Y-142039667D01*
X147960027Y-142040289D01*
X147867709Y-142040844D01*
X147783361Y-142041334D01*
X147706630Y-142041759D01*
X147637165Y-142042120D01*
X147574614Y-142042418D01*
X147518625Y-142042654D01*
X147468848Y-142042828D01*
X147424929Y-142042943D01*
X147386518Y-142042998D01*
X147353263Y-142042994D01*
X147324811Y-142042932D01*
X147300812Y-142042814D01*
X147280914Y-142042640D01*
X147264765Y-142042410D01*
X147252013Y-142042127D01*
X147242307Y-142041789D01*
X147235295Y-142041400D01*
X147230625Y-142040959D01*
X147229868Y-142040854D01*
X147186394Y-142032250D01*
X147151101Y-142020321D01*
X147123157Y-142004322D01*
X147101729Y-141983509D01*
X147085986Y-141957137D01*
X147075094Y-141924462D01*
X147069981Y-141897909D01*
X147068345Y-141881780D01*
X147067775Y-141871950D01*
X147279203Y-141871950D01*
X147569864Y-141871950D01*
X147860524Y-141871950D01*
X147860524Y-141773500D01*
X147860684Y-141744251D01*
X147861129Y-141718446D01*
X147861811Y-141697456D01*
X147862682Y-141682653D01*
X147863692Y-141675410D01*
X147864040Y-141674913D01*
X147869470Y-141675713D01*
X147882758Y-141678032D01*
X147902556Y-141681622D01*
X147927516Y-141686239D01*
X147956287Y-141691635D01*
X147972533Y-141694710D01*
X148077509Y-141714645D01*
X148074357Y-141799158D01*
X148073179Y-141827705D01*
X148071876Y-141854197D01*
X148070560Y-141876718D01*
X148069340Y-141893352D01*
X148068489Y-141901250D01*
X148065774Y-141918830D01*
X148371012Y-141918830D01*
X148676250Y-141918830D01*
X148676250Y-141833880D01*
X148676250Y-141748930D01*
X148499863Y-141569004D01*
X148323476Y-141389078D01*
X148431046Y-141389078D01*
X148538616Y-141389078D01*
X148652901Y-141508624D01*
X148679495Y-141536361D01*
X148704055Y-141561821D01*
X148725829Y-141584238D01*
X148744066Y-141602844D01*
X148758016Y-141616872D01*
X148766926Y-141625557D01*
X148770011Y-141628170D01*
X148773793Y-141624900D01*
X148783283Y-141615602D01*
X148797732Y-141601042D01*
X148816387Y-141581988D01*
X148838499Y-141559206D01*
X148863314Y-141533463D01*
X148887122Y-141508624D01*
X149001406Y-141389078D01*
X149095477Y-141389078D01*
X149189548Y-141389078D01*
X149012596Y-141566075D01*
X148835644Y-141743073D01*
X148835644Y-141830952D01*
X148835644Y-141918830D01*
X149086283Y-141918830D01*
X149336921Y-141918830D01*
X149338267Y-141697319D01*
X149339613Y-141475807D01*
X149350688Y-141453314D01*
X149359666Y-141437613D01*
X149369767Y-141423518D01*
X149374128Y-141418659D01*
X149379436Y-141413614D01*
X149384833Y-141409249D01*
X149391007Y-141405510D01*
X149398646Y-141402345D01*
X149408437Y-141399699D01*
X149421069Y-141397521D01*
X149437229Y-141395756D01*
X149457605Y-141394352D01*
X149482885Y-141393255D01*
X149513756Y-141392412D01*
X149550908Y-141391771D01*
X149595026Y-141391277D01*
X149646800Y-141390878D01*
X149706918Y-141390520D01*
X149740443Y-141390340D01*
X150047512Y-141388710D01*
X150079061Y-141400991D01*
X150101206Y-141411206D01*
X150116987Y-141422681D01*
X150125059Y-141431515D01*
X150135053Y-141445846D01*
X150142019Y-141460811D01*
X150146748Y-141478954D01*
X150150034Y-141502820D01*
X150151208Y-141515575D01*
X150154150Y-141550860D01*
X150079735Y-141563790D01*
X150054139Y-141568173D01*
X150031597Y-141571912D01*
X150013813Y-141574734D01*
X150002493Y-141576366D01*
X149999459Y-141576660D01*
X149996051Y-141573098D01*
X149994150Y-141561920D01*
X149993599Y-141543784D01*
X149993599Y-141510968D01*
X149745131Y-141510968D01*
X149496663Y-141510968D01*
X149496663Y-141714899D01*
X149496663Y-141918830D01*
X149745131Y-141918830D01*
X149993599Y-141918830D01*
X149993599Y-141848509D01*
X149993599Y-141778188D01*
X149864677Y-141778188D01*
X149735755Y-141778188D01*
X149735755Y-141721931D01*
X149735755Y-141665674D01*
X149944590Y-141665674D01*
X150153424Y-141665674D01*
X150152037Y-141792256D01*
X150150650Y-141918838D01*
X150285432Y-141918834D01*
X150420214Y-141918830D01*
X150565545Y-141918830D01*
X150765726Y-141918830D01*
X150807826Y-141918741D01*
X150846713Y-141918487D01*
X150881456Y-141918086D01*
X150911120Y-141917558D01*
X150934775Y-141916921D01*
X150951488Y-141916193D01*
X150960327Y-141915394D01*
X150961453Y-141914879D01*
X150956324Y-141910688D01*
X150944757Y-141901447D01*
X150927597Y-141887821D01*
X150905686Y-141870473D01*
X150879867Y-141850068D01*
X150850984Y-141827269D01*
X150819881Y-141802740D01*
X150787399Y-141777146D01*
X150754384Y-141751149D01*
X150721677Y-141725415D01*
X150690122Y-141700606D01*
X150660563Y-141677387D01*
X150633843Y-141656422D01*
X150610805Y-141638374D01*
X150592292Y-141623908D01*
X150579148Y-141613688D01*
X150572216Y-141608377D01*
X150571405Y-141607795D01*
X150569765Y-141608563D01*
X150568443Y-141613606D01*
X150567409Y-141623686D01*
X150566634Y-141639562D01*
X150566090Y-141661996D01*
X150565747Y-141691748D01*
X150565577Y-141729578D01*
X150565545Y-141761503D01*
X150565545Y-141918830D01*
X150420214Y-141918830D01*
X150420214Y-141761503D01*
X150420214Y-141653954D01*
X150420214Y-141389078D01*
X150477951Y-141389078D01*
X150535689Y-141389078D01*
X150809633Y-141604973D01*
X151083577Y-141820869D01*
X151084796Y-141604973D01*
X151086015Y-141389078D01*
X151158633Y-141389078D01*
X151231252Y-141389078D01*
X151231252Y-141653954D01*
X151231252Y-141918830D01*
X151378926Y-141918830D01*
X151526600Y-141918830D01*
X151526600Y-141653954D01*
X151526600Y-141389078D01*
X151606298Y-141389078D01*
X151685995Y-141389078D01*
X151685995Y-141653954D01*
X151685995Y-141918830D01*
X151915711Y-141918830D01*
X152145427Y-141918830D01*
X152145427Y-141653954D01*
X152145427Y-141389078D01*
X152225124Y-141389078D01*
X152304821Y-141389078D01*
X152304821Y-141653954D01*
X152304821Y-141918830D01*
X152443160Y-141918830D01*
X152581500Y-141918830D01*
X152578581Y-141893999D01*
X152575663Y-141869168D01*
X152643434Y-141856495D01*
X152667785Y-141852007D01*
X152689020Y-141848218D01*
X152705355Y-141845436D01*
X152715006Y-141843970D01*
X152716633Y-141843821D01*
X152719748Y-141848208D01*
X152721545Y-141861503D01*
X152722060Y-141881254D01*
X152722060Y-141918687D01*
X152856842Y-141920005D01*
X152898932Y-141920419D01*
X152944694Y-141920873D01*
X152991325Y-141921339D01*
X153036023Y-141921788D01*
X153075986Y-141922193D01*
X153098278Y-141922421D01*
X153204932Y-141923518D01*
X153204932Y-141848509D01*
X153204932Y-141773500D01*
X152978732Y-141773473D01*
X152932507Y-141773374D01*
X152888304Y-141773102D01*
X152847180Y-141772676D01*
X152810190Y-141772114D01*
X152778393Y-141771435D01*
X152752844Y-141770659D01*
X152734599Y-141769804D01*
X152724934Y-141768926D01*
X152705241Y-141764268D01*
X152683041Y-141756928D01*
X152668108Y-141750730D01*
X152651768Y-141742463D01*
X152641154Y-141734638D01*
X152633237Y-141724340D01*
X152625527Y-141709757D01*
X152616623Y-141684817D01*
X152610268Y-141653102D01*
X152609620Y-141646922D01*
X152750188Y-141646922D01*
X152996313Y-141646922D01*
X153043364Y-141646851D01*
X153087467Y-141646648D01*
X153127753Y-141646326D01*
X153163357Y-141645899D01*
X153193412Y-141645380D01*
X153217053Y-141644783D01*
X153233412Y-141644120D01*
X153241625Y-141643406D01*
X153242437Y-141643095D01*
X153241610Y-141636107D01*
X153239513Y-141623119D01*
X153236720Y-141607322D01*
X153233806Y-141591907D01*
X153231347Y-141580068D01*
X153230399Y-141576249D01*
X153225384Y-141571033D01*
X153214252Y-141570921D01*
X153200244Y-141572977D01*
X153200244Y-141539628D01*
X153200244Y-141506280D01*
X152975216Y-141506280D01*
X152750188Y-141506280D01*
X152750188Y-141576601D01*
X152750188Y-141646922D01*
X152609620Y-141646922D01*
X152606469Y-141616857D01*
X152605231Y-141578331D01*
X152605291Y-141576601D01*
X152606558Y-141539771D01*
X152610457Y-141503426D01*
X152616932Y-141471542D01*
X152624906Y-141448652D01*
X152635918Y-141429241D01*
X152649740Y-141415138D01*
X152668701Y-141404483D01*
X152689656Y-141397036D01*
X152696439Y-141395230D01*
X152704445Y-141393716D01*
X152714506Y-141392468D01*
X152727457Y-141391461D01*
X152744132Y-141390671D01*
X152765364Y-141390072D01*
X152791988Y-141389640D01*
X152824837Y-141389350D01*
X152864746Y-141389176D01*
X152912549Y-141389094D01*
X152955704Y-141389078D01*
X153002135Y-141389011D01*
X153045606Y-141388820D01*
X153085237Y-141388517D01*
X153120153Y-141388115D01*
X153149475Y-141387628D01*
X153172327Y-141387067D01*
X153187830Y-141386446D01*
X153195107Y-141385777D01*
X153195555Y-141385562D01*
X153194730Y-141379273D01*
X153192598Y-141366984D01*
X153189668Y-141351310D01*
X153186449Y-141334866D01*
X153183452Y-141320267D01*
X153181187Y-141310129D01*
X153180232Y-141306977D01*
X153178483Y-141306133D01*
X153175903Y-141305330D01*
X153172259Y-141304568D01*
X153167320Y-141303846D01*
X153160855Y-141303161D01*
X153152632Y-141302515D01*
X153142419Y-141301904D01*
X153129985Y-141301329D01*
X153115098Y-141300788D01*
X153097527Y-141300280D01*
X153077040Y-141299805D01*
X153053406Y-141299361D01*
X153026393Y-141298946D01*
X152995769Y-141298561D01*
X152961303Y-141298204D01*
X152922764Y-141297874D01*
X152879919Y-141297570D01*
X152832538Y-141297290D01*
X152780388Y-141297035D01*
X152723238Y-141296802D01*
X152660857Y-141296591D01*
X152593012Y-141296400D01*
X152519473Y-141296230D01*
X152440008Y-141296077D01*
X152354386Y-141295943D01*
X152262373Y-141295825D01*
X152163740Y-141295722D01*
X152058255Y-141295634D01*
X151945685Y-141295559D01*
X151825800Y-141295497D01*
X151698368Y-141295446D01*
X151563157Y-141295405D01*
X151419936Y-141295373D01*
X151268473Y-141295350D01*
X151108537Y-141295333D01*
X150939896Y-141295323D01*
X150762318Y-141295317D01*
X150594944Y-141295316D01*
X148072767Y-141295316D01*
X148075079Y-141359777D01*
X148077392Y-141424238D01*
X147974818Y-141439625D01*
X147944668Y-141444103D01*
X147917490Y-141448054D01*
X147894704Y-141451280D01*
X147877732Y-141453579D01*
X147867995Y-141454753D01*
X147866384Y-141454861D01*
X147864122Y-141452472D01*
X147862477Y-141444782D01*
X147861378Y-141430810D01*
X147860752Y-141409574D01*
X147860528Y-141380093D01*
X147860524Y-141375013D01*
X147860524Y-141295316D01*
X147780827Y-141295316D01*
X147749743Y-141295047D01*
X147725746Y-141294267D01*
X147709517Y-141293016D01*
X147701734Y-141291333D01*
X147701130Y-141290628D01*
X147696472Y-141289382D01*
X147682614Y-141288322D01*
X147659730Y-141287452D01*
X147627996Y-141286775D01*
X147587586Y-141286295D01*
X147538674Y-141286016D01*
X147490166Y-141285940D01*
X147279203Y-141285940D01*
X147279203Y-141578945D01*
X147279203Y-141871950D01*
X147067775Y-141871950D01*
X147066932Y-141857406D01*
X147065739Y-141825918D01*
X147064766Y-141788444D01*
X147064012Y-141746114D01*
X147063476Y-141700057D01*
X147063157Y-141651402D01*
X147063053Y-141601278D01*
X147063102Y-141578945D01*
X147063163Y-141550816D01*
X147063487Y-141501144D01*
X147064024Y-141453392D01*
X147064772Y-141408688D01*
X147065730Y-141368163D01*
X147066898Y-141332945D01*
X147068274Y-141304164D01*
X147069857Y-141282949D01*
X147070561Y-141276737D01*
X147076444Y-141240604D01*
X147083862Y-141212236D01*
X147093505Y-141190059D01*
X147106064Y-141172500D01*
X147118084Y-141161706D01*
X152337638Y-141161706D01*
X152339982Y-141164050D01*
X152342326Y-141161706D01*
X152339982Y-141159362D01*
X152337638Y-141161706D01*
X147118084Y-141161706D01*
X147122229Y-141157984D01*
X147122905Y-141157485D01*
X147130893Y-141151579D01*
X147136412Y-141147642D01*
X152328262Y-141147642D01*
X152330606Y-141149986D01*
X152332950Y-141147642D01*
X152330606Y-141145298D01*
X152328262Y-141147642D01*
X147136412Y-141147642D01*
X147138133Y-141146414D01*
X147145279Y-141141943D01*
X147152983Y-141138117D01*
X147161899Y-141134889D01*
X147172680Y-141132212D01*
X147185978Y-141130037D01*
X147202447Y-141128317D01*
X147222741Y-141127004D01*
X147247511Y-141126051D01*
X147277412Y-141125408D01*
X147313096Y-141125029D01*
X147355217Y-141124867D01*
X147404427Y-141124872D01*
X147461380Y-141124997D01*
X147526729Y-141125196D01*
X147562832Y-141125307D01*
X147604937Y-141125432D01*
X147655738Y-141125578D01*
X147714557Y-141125743D01*
X147780713Y-141125926D01*
X147853528Y-141126126D01*
X147932321Y-141126339D01*
X148016414Y-141126564D01*
X148105126Y-141126800D01*
X148197778Y-141127044D01*
X148293691Y-141127296D01*
X148392185Y-141127552D01*
X148492580Y-141127812D01*
X148594198Y-141128073D01*
X148696358Y-141128334D01*
X148798382Y-141128593D01*
X148899589Y-141128848D01*
X148907281Y-141128867D01*
X149886060Y-141131321D01*
X149879071Y-141117807D01*
X149874547Y-141108053D01*
X149873022Y-141102658D01*
X149873068Y-141102527D01*
X149872158Y-141101875D01*
X149869539Y-141098146D01*
X149862726Y-141087022D01*
X149852160Y-141069258D01*
X149838281Y-141045609D01*
X149821531Y-141016831D01*
X149802349Y-140983679D01*
X149791483Y-140964807D01*
X150101425Y-140964807D01*
X150103769Y-140967151D01*
X150106113Y-140964807D01*
X150103769Y-140962463D01*
X150101425Y-140964807D01*
X149791483Y-140964807D01*
X149781177Y-140946908D01*
X149758456Y-140907273D01*
X149750492Y-140893344D01*
X149740385Y-140875733D01*
X150026416Y-140875733D01*
X150028760Y-140878077D01*
X150031104Y-140875733D01*
X150028760Y-140873389D01*
X150026416Y-140875733D01*
X149740385Y-140875733D01*
X149726957Y-140852336D01*
X149724216Y-140847605D01*
X150002975Y-140847605D01*
X150005320Y-140849949D01*
X150007664Y-140847605D01*
X150005320Y-140845261D01*
X150002975Y-140847605D01*
X149724216Y-140847605D01*
X149705206Y-140814788D01*
X149974847Y-140814788D01*
X149977191Y-140817132D01*
X149979535Y-140814788D01*
X149977191Y-140812444D01*
X149974847Y-140814788D01*
X149705206Y-140814788D01*
X149704458Y-140813497D01*
X149688758Y-140786660D01*
X149951407Y-140786660D01*
X149953751Y-140789004D01*
X149956095Y-140786660D01*
X149953751Y-140784316D01*
X149951407Y-140786660D01*
X149688758Y-140786660D01*
X149683488Y-140777651D01*
X149672176Y-140758531D01*
X149927966Y-140758531D01*
X149930310Y-140760875D01*
X149932654Y-140758531D01*
X149930310Y-140756187D01*
X149927966Y-140758531D01*
X149672176Y-140758531D01*
X149664539Y-140745622D01*
X149652591Y-140725715D01*
X149899838Y-140725715D01*
X149902182Y-140728059D01*
X149904526Y-140725715D01*
X149902182Y-140723371D01*
X149899838Y-140725715D01*
X149652591Y-140725715D01*
X149648102Y-140718235D01*
X149635450Y-140697586D01*
X149876397Y-140697586D01*
X149878741Y-140699930D01*
X149881085Y-140697586D01*
X149878741Y-140695242D01*
X149876397Y-140697586D01*
X149635450Y-140697586D01*
X149634670Y-140696313D01*
X149624733Y-140680681D01*
X149618785Y-140672163D01*
X149617921Y-140671184D01*
X149610461Y-140662491D01*
X149608408Y-140657773D01*
X149843888Y-140657773D01*
X149845052Y-140660201D01*
X149847671Y-140663598D01*
X149854514Y-140670886D01*
X149857568Y-140670855D01*
X149857645Y-140670032D01*
X149854441Y-140666119D01*
X149849441Y-140661828D01*
X149843888Y-140657773D01*
X149608408Y-140657773D01*
X149607828Y-140656439D01*
X149608177Y-140655612D01*
X149607184Y-140654510D01*
X149602405Y-140655943D01*
X149596399Y-140657008D01*
X149596240Y-140655018D01*
X149594293Y-140651530D01*
X149586461Y-140649523D01*
X149576409Y-140648897D01*
X149557996Y-140648091D01*
X149535117Y-140647241D01*
X149578394Y-140647241D01*
X149583002Y-140647991D01*
X149589082Y-140647130D01*
X149589155Y-140645529D01*
X149582881Y-140644410D01*
X149580170Y-140645159D01*
X149578394Y-140647241D01*
X149535117Y-140647241D01*
X149532237Y-140647134D01*
X149500145Y-140646054D01*
X149462732Y-140644880D01*
X149421013Y-140643640D01*
X149376002Y-140642364D01*
X149328711Y-140641080D01*
X149280154Y-140639817D01*
X149231345Y-140638603D01*
X149183296Y-140637467D01*
X149137023Y-140636438D01*
X149093538Y-140635544D01*
X149091145Y-140635498D01*
X149044888Y-140634585D01*
X149007029Y-140633773D01*
X148976593Y-140632993D01*
X148952601Y-140632175D01*
X148934079Y-140631250D01*
X148920049Y-140630147D01*
X148909536Y-140628798D01*
X148901562Y-140627132D01*
X148895151Y-140625080D01*
X148889328Y-140622574D01*
X148885809Y-140620871D01*
X148870002Y-140611335D01*
X148852407Y-140598133D01*
X148840504Y-140587584D01*
X148825859Y-140571558D01*
X148816015Y-140555442D01*
X148808228Y-140534701D01*
X148807920Y-140533708D01*
X148803059Y-140517390D01*
X148799558Y-140504529D01*
X148798143Y-140497802D01*
X148798140Y-140497685D01*
X148802763Y-140496951D01*
X148816371Y-140496304D01*
X148838576Y-140495747D01*
X148868986Y-140495282D01*
X148907212Y-140494913D01*
X148952864Y-140494643D01*
X149005552Y-140494473D01*
X149064885Y-140494408D01*
X149130475Y-140494448D01*
G37*
D12*
X169840000Y-136250000D02*
X169840000Y-138250000D01*
X169840000Y-136250000D02*
X173850000Y-136250000D01*
X169840000Y-138250000D02*
X173850000Y-138250000D01*
X158937258Y-131877500D02*
X158462742Y-131877500D01*
X158937258Y-132922500D02*
X158462742Y-132922500D01*
X157637258Y-114477500D02*
X157162742Y-114477500D01*
X157637258Y-115522500D02*
X157162742Y-115522500D01*
X161987221Y-123240000D02*
X162312779Y-123240000D01*
X161987221Y-124260000D02*
X162312779Y-124260000D01*
X157415000Y-119765000D02*
X157415000Y-121235000D01*
X157415000Y-121235000D02*
X159700000Y-121235000D01*
X159700000Y-119765000D02*
X157415000Y-119765000D01*
X134810000Y-134665580D02*
X134810000Y-134384420D01*
X135830000Y-134665580D02*
X135830000Y-134384420D01*
X172759420Y-128190000D02*
X173040580Y-128190000D01*
X172759420Y-129210000D02*
X173040580Y-129210000D01*
X172490000Y-133759420D02*
X172490000Y-134040580D01*
X173510000Y-133759420D02*
X173510000Y-134040580D01*
X133715000Y-124875000D02*
X133715000Y-127635000D01*
X133715000Y-127635000D02*
X144095000Y-127635000D01*
X133825000Y-130295000D02*
X133825000Y-129025000D01*
X134665000Y-127865000D02*
X134665000Y-127635000D01*
X135095000Y-130295000D02*
X133825000Y-130295000D01*
X135525000Y-127865000D02*
X135525000Y-127635000D01*
X136365000Y-127635000D02*
X136365000Y-124875000D01*
X137205000Y-118875000D02*
X138065000Y-118875000D01*
X137205000Y-124875000D02*
X137205000Y-118875000D01*
X137205000Y-127947642D02*
X137205000Y-127635000D01*
X138065000Y-118875000D02*
X138065000Y-124875000D01*
X138065000Y-127947642D02*
X138065000Y-127635000D01*
X138905000Y-127635000D02*
X138905000Y-124875000D01*
X139745000Y-118875000D02*
X140605000Y-118875000D01*
X139745000Y-124875000D02*
X139745000Y-118875000D01*
X139745000Y-127947642D02*
X139745000Y-127635000D01*
X140605000Y-118875000D02*
X140605000Y-124875000D01*
X140605000Y-127947642D02*
X140605000Y-127635000D01*
X141445000Y-127635000D02*
X141445000Y-124875000D01*
X142285000Y-118875000D02*
X143145000Y-118875000D01*
X142285000Y-124875000D02*
X142285000Y-118875000D01*
X142285000Y-127947642D02*
X142285000Y-127635000D01*
X143145000Y-118875000D02*
X143145000Y-124875000D01*
X143145000Y-127947642D02*
X143145000Y-127635000D01*
X144095000Y-124875000D02*
X133715000Y-124875000D01*
X144095000Y-127635000D02*
X144095000Y-124875000D01*
X134665000Y-124875000D02*
X135525000Y-124875000D01*
X135525000Y-118875000D01*
X134665000Y-118875000D01*
X134665000Y-124875000D01*
G36*
X134665000Y-124875000D02*
G01*
X135525000Y-124875000D01*
X135525000Y-118875000D01*
X134665000Y-118875000D01*
X134665000Y-124875000D01*
G37*
X136210000Y-132490000D02*
X136305000Y-132490000D01*
X136210000Y-136610000D02*
X136210000Y-132490000D01*
X136305000Y-136610000D02*
X136210000Y-136610000D01*
X141235000Y-132490000D02*
X141330000Y-132490000D01*
X141330000Y-132490000D02*
X141330000Y-136610000D01*
X141330000Y-136610000D02*
X141235000Y-136610000D01*
X136300000Y-137150000D02*
X135970000Y-137390000D01*
X135970000Y-136910000D01*
X136300000Y-137150000D01*
G36*
X136300000Y-137150000D02*
G01*
X135970000Y-137390000D01*
X135970000Y-136910000D01*
X136300000Y-137150000D01*
G37*
X169259420Y-129590000D02*
X169540580Y-129590000D01*
X169259420Y-130610000D02*
X169540580Y-130610000D01*
X158662742Y-118477500D02*
X159137258Y-118477500D01*
X158662742Y-119522500D02*
X159137258Y-119522500D01*
X139229420Y-138540000D02*
X139510580Y-138540000D01*
X139229420Y-139560000D02*
X139510580Y-139560000D01*
X152190000Y-118559420D02*
X152190000Y-118840580D01*
X153210000Y-118559420D02*
X153210000Y-118840580D01*
X154890000Y-118659420D02*
X154890000Y-118940580D01*
X155910000Y-118659420D02*
X155910000Y-118940580D01*
X157637258Y-115977500D02*
X157162742Y-115977500D01*
X157637258Y-117022500D02*
X157162742Y-117022500D01*
X181205000Y-132850000D02*
X181205000Y-135610000D01*
X181205000Y-135610000D02*
X191585000Y-135610000D01*
X181315000Y-138270000D02*
X181315000Y-137000000D01*
X182155000Y-135840000D02*
X182155000Y-135610000D01*
X182585000Y-138270000D02*
X181315000Y-138270000D01*
X183015000Y-135840000D02*
X183015000Y-135610000D01*
X183855000Y-135610000D02*
X183855000Y-132850000D01*
X184695000Y-126850000D02*
X185555000Y-126850000D01*
X184695000Y-132850000D02*
X184695000Y-126850000D01*
X184695000Y-135922642D02*
X184695000Y-135610000D01*
X185555000Y-126850000D02*
X185555000Y-132850000D01*
X185555000Y-135922642D02*
X185555000Y-135610000D01*
X186395000Y-135610000D02*
X186395000Y-132850000D01*
X187235000Y-126850000D02*
X188095000Y-126850000D01*
X187235000Y-132850000D02*
X187235000Y-126850000D01*
X187235000Y-135922642D02*
X187235000Y-135610000D01*
X188095000Y-126850000D02*
X188095000Y-132850000D01*
X188095000Y-135922642D02*
X188095000Y-135610000D01*
X188935000Y-135610000D02*
X188935000Y-132850000D01*
X189775000Y-126850000D02*
X190635000Y-126850000D01*
X189775000Y-132850000D02*
X189775000Y-126850000D01*
X189775000Y-135922642D02*
X189775000Y-135610000D01*
X190635000Y-126850000D02*
X190635000Y-132850000D01*
X190635000Y-135922642D02*
X190635000Y-135610000D01*
X191585000Y-132850000D02*
X181205000Y-132850000D01*
X191585000Y-135610000D02*
X191585000Y-132850000D01*
X182155000Y-132850000D02*
X183015000Y-132850000D01*
X183015000Y-126850000D01*
X182155000Y-126850000D01*
X182155000Y-132850000D01*
G36*
X182155000Y-132850000D02*
G01*
X183015000Y-132850000D01*
X183015000Y-126850000D01*
X182155000Y-126850000D01*
X182155000Y-132850000D01*
G37*
X148200000Y-118400000D02*
X148200000Y-122800000D01*
X148200000Y-122800000D02*
X148320000Y-122800000D01*
X148320000Y-118400000D02*
X148200000Y-118400000D01*
X149330000Y-122800000D02*
X150470000Y-122800000D01*
X150470000Y-118400000D02*
X149330000Y-118400000D01*
X151480000Y-122800000D02*
X151600000Y-122800000D01*
X151600000Y-118400000D02*
X151480000Y-118400000D01*
X151600000Y-122800000D02*
X151600000Y-118400000D01*
X155290000Y-135990000D02*
X155290000Y-141730000D01*
X155290000Y-135990000D02*
X167710000Y-135990000D01*
X155290000Y-144480000D02*
X155290000Y-149210000D01*
X155290000Y-149210000D02*
X167710000Y-149210000D01*
X167710000Y-135990000D02*
X167710000Y-141730000D01*
X167710000Y-144480000D02*
X167710000Y-149210000D01*
X167870000Y-138260000D02*
X168370000Y-138760000D01*
X168370000Y-137760000D02*
X167870000Y-138260000D01*
X168370000Y-137760000D02*
X168370000Y-138760000D01*
X159365000Y-124334420D02*
X159365000Y-124615580D01*
X160385000Y-124334420D02*
X160385000Y-124615580D01*
X159190000Y-116840580D02*
X159190000Y-116559420D01*
X160210000Y-116840580D02*
X160210000Y-116559420D01*
X162190580Y-131840000D02*
X161909420Y-131840000D01*
X162190580Y-132860000D02*
X161909420Y-132860000D01*
X160690000Y-118040580D02*
X160690000Y-117759420D01*
X161710000Y-118040580D02*
X161710000Y-117759420D01*
X166040580Y-126490000D02*
X165759420Y-126490000D01*
X166040580Y-127510000D02*
X165759420Y-127510000D01*
X161870000Y-109845000D02*
X163200000Y-109845000D01*
X161870000Y-111175000D02*
X161870000Y-109845000D01*
X164470000Y-109845000D02*
X172150000Y-109845000D01*
X164470000Y-112505000D02*
X164470000Y-109845000D01*
X164470000Y-112505000D02*
X172150000Y-112505000D01*
X172150000Y-112505000D02*
X172150000Y-109845000D01*
X168455000Y-115660000D02*
X168455000Y-125940000D01*
X168455000Y-125940000D02*
X173755000Y-125940000D01*
X170105000Y-115660000D02*
X168455000Y-115660000D01*
X173755000Y-115660000D02*
X172105000Y-115660000D01*
X173755000Y-125940000D02*
X173755000Y-115660000D01*
X172105000Y-115660000D02*
G75*
G02*
X170105000Y-115660000I-1000000J0D01*
G01*
D11*
X189445000Y-144640000D02*
X183445000Y-144640000D01*
X183445000Y-140140000D01*
X189445000Y-140140000D01*
X189445000Y-144640000D01*
D12*
X167690000Y-126290000D02*
X171110000Y-126290000D01*
X171110000Y-129310000D02*
X167690000Y-129310000D01*
X157865000Y-124334420D02*
X157865000Y-124615580D01*
X158885000Y-124334420D02*
X158885000Y-124615580D01*
X162315580Y-124740000D02*
X162034420Y-124740000D01*
X162315580Y-125760000D02*
X162034420Y-125760000D01*
D11*
X176700000Y-110200000D02*
X186700000Y-110200000D01*
X186700000Y-126200000D01*
X176700000Y-126200000D01*
X176700000Y-110200000D01*
D12*
X165350000Y-128090000D02*
X165350000Y-132100000D01*
X167350000Y-128090000D02*
X165350000Y-128090000D01*
X167350000Y-128090000D02*
X167350000Y-132100000D01*
X149690000Y-110015000D02*
X153810000Y-110015000D01*
X149690000Y-110110000D02*
X149690000Y-110015000D01*
X149690000Y-115135000D02*
X149690000Y-115040000D01*
X153810000Y-110015000D02*
X153810000Y-110110000D01*
X153810000Y-115040000D02*
X153810000Y-115135000D01*
X153810000Y-115135000D02*
X149690000Y-115135000D01*
X149150000Y-110105000D02*
X148910000Y-109775000D01*
X149390000Y-109775000D01*
X149150000Y-110105000D01*
G36*
X149150000Y-110105000D02*
G01*
X148910000Y-109775000D01*
X149390000Y-109775000D01*
X149150000Y-110105000D01*
G37*
X175295000Y-130770000D02*
X175295000Y-138450000D01*
X175295000Y-130770000D02*
X177955000Y-130770000D01*
X175295000Y-138450000D02*
X177955000Y-138450000D01*
X176625000Y-128170000D02*
X177955000Y-128170000D01*
X177955000Y-128170000D02*
X177955000Y-129500000D01*
X177955000Y-130770000D02*
X177955000Y-138450000D01*
D13*
G36*
X151922309Y-136024916D02*
G01*
X151935723Y-136037127D01*
X151953121Y-136061683D01*
X151966607Y-136083692D01*
X151988954Y-136125794D01*
X151998566Y-136155859D01*
X151995483Y-136174595D01*
X151979745Y-136182709D01*
X151972302Y-136183179D01*
X151959236Y-136179562D01*
X151945190Y-136166888D01*
X151927651Y-136142417D01*
X151912981Y-136118542D01*
X151891921Y-136079619D01*
X151882658Y-136052365D01*
X151885145Y-136034838D01*
X151899333Y-136025093D01*
X151910598Y-136022561D01*
X151922309Y-136024916D01*
G37*
G36*
X148907899Y-136262535D02*
G01*
X148918867Y-136284596D01*
X148924380Y-136322364D01*
X148924674Y-136376403D01*
X148922956Y-136412780D01*
X148920279Y-136434864D01*
X148915581Y-136446406D01*
X148907798Y-136451160D01*
X148903242Y-136452051D01*
X148883407Y-136449047D01*
X148874423Y-136442713D01*
X148869840Y-136428610D01*
X148866155Y-136401810D01*
X148863584Y-136367649D01*
X148862340Y-136331464D01*
X148862641Y-136298592D01*
X148864700Y-136274367D01*
X148867269Y-136265471D01*
X148880604Y-136256997D01*
X148891252Y-136255363D01*
X148907899Y-136262535D01*
G37*
G36*
X149191096Y-136242435D02*
G01*
X149202649Y-136252623D01*
X149219532Y-136273963D01*
X149238636Y-136301653D01*
X149256852Y-136330892D01*
X149271072Y-136356881D01*
X149278185Y-136374819D01*
X149278489Y-136377379D01*
X149271012Y-136393158D01*
X149253916Y-136401703D01*
X149235201Y-136399669D01*
X149231221Y-136397127D01*
X149216893Y-136381789D01*
X149198795Y-136357344D01*
X149180145Y-136328869D01*
X149164162Y-136301442D01*
X149154063Y-136280142D01*
X149152166Y-136272379D01*
X149159231Y-136253155D01*
X149175748Y-136241962D01*
X149191096Y-136242435D01*
G37*
G36*
X151613939Y-136021884D02*
G01*
X151629286Y-136046022D01*
X151642722Y-136082606D01*
X151652672Y-136115073D01*
X151660944Y-136142051D01*
X151665659Y-136157414D01*
X151663105Y-136174442D01*
X151650908Y-136191765D01*
X151635272Y-136201043D01*
X151633080Y-136201225D01*
X151622615Y-136194434D01*
X151611817Y-136180923D01*
X151602829Y-136161873D01*
X151592139Y-136131933D01*
X151582643Y-136099678D01*
X151574513Y-136066942D01*
X151571452Y-136046777D01*
X151573318Y-136034475D01*
X151579968Y-136025332D01*
X151580390Y-136024906D01*
X151597794Y-136014987D01*
X151613939Y-136021884D01*
G37*
G36*
X149093389Y-136228088D02*
G01*
X149098323Y-136242942D01*
X149104054Y-136270197D01*
X149109856Y-136304733D01*
X149115003Y-136341431D01*
X149118768Y-136375170D01*
X149120426Y-136400833D01*
X149119563Y-136412678D01*
X149107840Y-136422827D01*
X149088781Y-136426843D01*
X149071810Y-136423496D01*
X149067498Y-136419480D01*
X149064179Y-136407875D01*
X149059003Y-136382762D01*
X149052825Y-136348477D01*
X149049332Y-136327420D01*
X149042932Y-136282143D01*
X149040934Y-136252046D01*
X149043246Y-136234831D01*
X149045407Y-136230977D01*
X149061802Y-136221130D01*
X149081146Y-136220403D01*
X149093389Y-136228088D01*
G37*
G36*
X151724014Y-136052508D02*
G01*
X151735818Y-136063503D01*
X151753970Y-136084387D01*
X151775381Y-136111101D01*
X151796964Y-136139589D01*
X151815629Y-136165794D01*
X151828289Y-136185656D01*
X151832024Y-136194427D01*
X151824627Y-136213102D01*
X151807878Y-136226324D01*
X151798747Y-136228294D01*
X151788447Y-136221620D01*
X151770274Y-136203684D01*
X151747245Y-136177613D01*
X151732879Y-136160030D01*
X151709480Y-136129342D01*
X151691151Y-136102938D01*
X151680403Y-136084564D01*
X151678632Y-136079139D01*
X151685990Y-136065302D01*
X151702423Y-136054241D01*
X151719468Y-136050921D01*
X151724014Y-136052508D01*
G37*
G36*
X150047075Y-135613141D02*
G01*
X150101458Y-135633829D01*
X150150865Y-135668917D01*
X150192929Y-135717947D01*
X150216142Y-135759038D01*
X150228077Y-135787540D01*
X150235168Y-135814526D01*
X150238572Y-135846501D01*
X150239449Y-135889928D01*
X150238938Y-135930184D01*
X150236417Y-135958816D01*
X150230403Y-135982238D01*
X150219414Y-136006866D01*
X150207125Y-136029786D01*
X150167391Y-136086147D01*
X150119205Y-136128230D01*
X150064575Y-136155186D01*
X150005507Y-136166165D01*
X149944007Y-136160315D01*
X149917554Y-136152499D01*
X149865323Y-136124576D01*
X149819131Y-136081163D01*
X149783187Y-136027941D01*
X149768252Y-135998733D01*
X149759138Y-135974817D01*
X149754411Y-135949763D01*
X149752635Y-135917140D01*
X149752386Y-135889928D01*
X149753299Y-135875085D01*
X149885649Y-135875085D01*
X149887684Y-135913292D01*
X149900323Y-135952916D01*
X149922192Y-135988941D01*
X149949116Y-136014879D01*
X149955492Y-136018688D01*
X149986699Y-136026387D01*
X150022026Y-136022699D01*
X150052623Y-136008790D01*
X150056869Y-136005358D01*
X150078248Y-135978170D01*
X150096069Y-135941166D01*
X150106805Y-135902576D01*
X150108416Y-135885073D01*
X150101940Y-135846768D01*
X150084561Y-135807386D01*
X150060012Y-135773777D01*
X150038009Y-135755818D01*
X150003302Y-135744726D01*
X149969274Y-135749214D01*
X149938209Y-135766888D01*
X149912393Y-135795354D01*
X149894111Y-135832217D01*
X149885649Y-135875085D01*
X149753299Y-135875085D01*
X149756433Y-135824120D01*
X149770017Y-135769942D01*
X149794808Y-135722786D01*
X149827088Y-135683574D01*
X149877721Y-135642071D01*
X149932841Y-135616803D01*
X149990080Y-135607313D01*
X150047075Y-135613141D01*
G37*
G36*
X151180749Y-135548658D02*
G01*
X151227828Y-135564959D01*
X151271141Y-135588382D01*
X151288398Y-135601365D01*
X151321430Y-135638205D01*
X151350828Y-135686642D01*
X151373308Y-135740231D01*
X151385536Y-135792104D01*
X151385095Y-135857687D01*
X151368954Y-135923103D01*
X151339008Y-135984176D01*
X151297152Y-136036726D01*
X151260980Y-136066752D01*
X151234985Y-136083108D01*
X151212105Y-136092748D01*
X151185300Y-136097742D01*
X151147530Y-136100160D01*
X151147306Y-136100169D01*
X151107044Y-136100611D01*
X151077905Y-136097411D01*
X151053152Y-136089517D01*
X151040227Y-136083437D01*
X150998797Y-136055141D01*
X150959075Y-136015410D01*
X150926276Y-135970274D01*
X150906665Y-135929051D01*
X150895531Y-135877789D01*
X150891879Y-135819222D01*
X150892998Y-135803699D01*
X151031057Y-135803699D01*
X151032256Y-135854289D01*
X151044757Y-135897641D01*
X151066479Y-135931815D01*
X151095337Y-135954871D01*
X151129251Y-135964866D01*
X151166137Y-135959860D01*
X151187595Y-135949610D01*
X151218102Y-135920711D01*
X151237711Y-135878934D01*
X151245440Y-135826478D01*
X151245523Y-135819970D01*
X151238134Y-135768653D01*
X151216071Y-135727719D01*
X151179493Y-135697436D01*
X151170964Y-135692933D01*
X151148479Y-135682934D01*
X151132623Y-135681298D01*
X151114034Y-135688027D01*
X151103992Y-135692933D01*
X151065858Y-135719770D01*
X151041999Y-135756245D01*
X151031057Y-135803699D01*
X150892998Y-135803699D01*
X150895963Y-135762582D01*
X150901379Y-135736397D01*
X150925037Y-135679355D01*
X150961555Y-135628989D01*
X151007770Y-135587891D01*
X151060517Y-135558656D01*
X151116631Y-135543876D01*
X151137864Y-135542589D01*
X151180749Y-135548658D01*
G37*
G36*
X150662369Y-136096272D02*
G01*
X150757983Y-136119281D01*
X150820037Y-136135788D01*
X150883647Y-136149077D01*
X150951938Y-136159529D01*
X151028035Y-136167523D01*
X151115064Y-136173438D01*
X151216149Y-136177655D01*
X151245523Y-136178532D01*
X151307298Y-136180614D01*
X151365714Y-136183264D01*
X151417416Y-136186276D01*
X151459046Y-136189444D01*
X151487245Y-136192565D01*
X151493658Y-136193678D01*
X151548662Y-136213080D01*
X151592204Y-136244221D01*
X151623000Y-136284635D01*
X151639767Y-136331853D01*
X151641219Y-136383408D01*
X151626074Y-136436834D01*
X151623296Y-136442810D01*
X151602068Y-136475586D01*
X151571093Y-136505035D01*
X151529210Y-136531590D01*
X151475260Y-136555683D01*
X151408082Y-136577745D01*
X151326514Y-136598210D01*
X151229398Y-136617509D01*
X151115572Y-136636074D01*
X151096941Y-136638829D01*
X151057103Y-136644782D01*
X151024633Y-136649886D01*
X151003199Y-136653547D01*
X150996392Y-136655089D01*
X150997726Y-136664005D01*
X151002719Y-136685846D01*
X151010336Y-136716116D01*
X151011364Y-136720052D01*
X151024785Y-136795068D01*
X151027508Y-136872404D01*
X151019418Y-136944753D01*
X151015211Y-136963078D01*
X151007974Y-136993449D01*
X151006089Y-137011902D01*
X151009521Y-137023745D01*
X151014789Y-137030636D01*
X151025494Y-137046349D01*
X151040038Y-137072530D01*
X151053244Y-137099267D01*
X151074009Y-137161981D01*
X151079733Y-137226024D01*
X151070372Y-137287237D01*
X151055514Y-137324840D01*
X151021333Y-137372539D01*
X150972237Y-137413719D01*
X150910775Y-137446417D01*
X150885564Y-137455920D01*
X150841057Y-137467245D01*
X150787113Y-137475254D01*
X150728816Y-137479760D01*
X150671254Y-137480579D01*
X150619512Y-137477526D01*
X150578678Y-137470414D01*
X150569275Y-137467447D01*
X150522420Y-137441793D01*
X150480006Y-137402908D01*
X150446497Y-137355607D01*
X150429693Y-137316869D01*
X150420141Y-137277078D01*
X150417845Y-137237480D01*
X150418231Y-137233906D01*
X150514653Y-137233906D01*
X150521701Y-137288437D01*
X150542527Y-137331659D01*
X150576650Y-137363326D01*
X150623592Y-137383193D01*
X150682873Y-137391014D01*
X150754013Y-137386545D01*
X150797838Y-137378799D01*
X150866830Y-137359574D01*
X150919269Y-137334355D01*
X150955814Y-137302573D01*
X150977121Y-137263661D01*
X150983854Y-137218291D01*
X150979802Y-137182630D01*
X150969352Y-137146529D01*
X150955063Y-137118239D01*
X150951364Y-137113547D01*
X150943603Y-137117110D01*
X150926806Y-137129981D01*
X150910734Y-137143908D01*
X150850100Y-137186913D01*
X150781299Y-137215047D01*
X150706885Y-137227959D01*
X150629409Y-137225297D01*
X150551425Y-137206709D01*
X150525932Y-137196986D01*
X150518584Y-137199722D01*
X150515120Y-137217197D01*
X150514653Y-137233906D01*
X150418231Y-137233906D01*
X150422793Y-137191676D01*
X150429425Y-137157672D01*
X150429181Y-137140706D01*
X150419777Y-137120632D01*
X150399149Y-137093215D01*
X150396468Y-137089999D01*
X150364946Y-137045919D01*
X150334948Y-136992295D01*
X150308519Y-136934040D01*
X150287700Y-136876067D01*
X150274537Y-136823290D01*
X150270891Y-136788086D01*
X150270002Y-136770019D01*
X150265792Y-136757806D01*
X150255563Y-136750820D01*
X150236615Y-136748436D01*
X150206252Y-136750030D01*
X150161775Y-136754975D01*
X150139793Y-136757706D01*
X150080045Y-136763670D01*
X150007496Y-136768427D01*
X149927368Y-136771708D01*
X149844883Y-136773243D01*
X149837921Y-136773285D01*
X149775054Y-136773486D01*
X149727322Y-136773221D01*
X149691815Y-136772239D01*
X149665623Y-136770290D01*
X149645838Y-136767123D01*
X149629548Y-136762486D01*
X149613845Y-136756128D01*
X149607945Y-136753448D01*
X149597254Y-136747332D01*
X150363635Y-136747332D01*
X150364678Y-136772586D01*
X150370216Y-136806805D01*
X150379399Y-136845999D01*
X150391377Y-136886176D01*
X150405298Y-136923345D01*
X150410556Y-136935080D01*
X150437972Y-136981846D01*
X150474460Y-137028547D01*
X150515386Y-137070086D01*
X150556117Y-137101368D01*
X150567931Y-137108161D01*
X150613965Y-137124115D01*
X150668533Y-137130821D01*
X150724605Y-137128161D01*
X150775146Y-137116017D01*
X150785346Y-137111827D01*
X150839722Y-137077889D01*
X150882062Y-137031662D01*
X150911864Y-136974733D01*
X150928624Y-136908692D01*
X150931843Y-136835125D01*
X150921018Y-136755623D01*
X150910564Y-136715412D01*
X150901140Y-136691225D01*
X150890963Y-136675507D01*
X150887635Y-136673122D01*
X150875682Y-136672933D01*
X150848676Y-136674815D01*
X150809447Y-136678431D01*
X150760828Y-136683442D01*
X150705651Y-136689512D01*
X150646745Y-136696304D01*
X150586944Y-136703479D01*
X150529078Y-136710702D01*
X150475980Y-136717633D01*
X150430479Y-136723937D01*
X150395409Y-136729276D01*
X150373599Y-136733311D01*
X150367939Y-136735036D01*
X150363635Y-136747332D01*
X149597254Y-136747332D01*
X149557022Y-136724317D01*
X149522348Y-136690305D01*
X149502308Y-136649098D01*
X149495287Y-136598377D01*
X149495242Y-136591763D01*
X149495704Y-136588702D01*
X149591837Y-136588702D01*
X149594755Y-136615765D01*
X149601972Y-136636721D01*
X149603975Y-136639633D01*
X149624866Y-136656560D01*
X149656616Y-136669339D01*
X149700185Y-136678006D01*
X149756532Y-136682600D01*
X149826615Y-136683156D01*
X149911393Y-136679713D01*
X150011824Y-136672308D01*
X150128868Y-136660977D01*
X150135683Y-136660254D01*
X150213473Y-136651746D01*
X150300098Y-136641887D01*
X150393397Y-136630951D01*
X150491211Y-136619215D01*
X150591379Y-136606953D01*
X150691743Y-136594441D01*
X150790142Y-136581953D01*
X150884417Y-136569764D01*
X150972407Y-136558149D01*
X151051954Y-136547385D01*
X151120897Y-136537745D01*
X151177076Y-136529504D01*
X151218332Y-136522939D01*
X151229949Y-136520884D01*
X151311310Y-136503916D01*
X151382804Y-136485155D01*
X151442721Y-136465229D01*
X151489351Y-136444766D01*
X151520984Y-136424392D01*
X151533938Y-136409361D01*
X151541920Y-136382202D01*
X151542166Y-136351042D01*
X151535154Y-136324046D01*
X151528350Y-136313902D01*
X151517227Y-136304413D01*
X151503450Y-136296755D01*
X151484904Y-136290642D01*
X151459475Y-136285787D01*
X151425048Y-136281902D01*
X151379510Y-136278700D01*
X151320746Y-136275894D01*
X151246641Y-136273198D01*
X151222966Y-136272426D01*
X151132133Y-136269105D01*
X151055546Y-136265159D01*
X150989403Y-136260084D01*
X150929904Y-136253373D01*
X150873248Y-136244524D01*
X150815634Y-136233030D01*
X150753263Y-136218388D01*
X150686392Y-136201168D01*
X150639432Y-136188951D01*
X150605011Y-136181001D01*
X150578261Y-136176819D01*
X150554317Y-136175903D01*
X150528312Y-136177752D01*
X150496907Y-136181661D01*
X150458395Y-136187959D01*
X150423579Y-136196841D01*
X150386940Y-136210168D01*
X150342962Y-136229802D01*
X150316759Y-136242437D01*
X150268300Y-136265815D01*
X150224212Y-136286136D01*
X150181248Y-136304664D01*
X150136165Y-136322660D01*
X150085717Y-136341389D01*
X150026660Y-136362113D01*
X149955747Y-136386097D01*
X149901083Y-136404256D01*
X149818657Y-136432002D01*
X149751994Y-136455804D01*
X149699488Y-136476618D01*
X149659535Y-136495403D01*
X149630528Y-136513116D01*
X149610864Y-136530713D01*
X149598937Y-136549152D01*
X149593141Y-136569391D01*
X149591837Y-136588702D01*
X149495704Y-136588702D01*
X149503950Y-136534123D01*
X149529391Y-136483002D01*
X149571377Y-136438643D01*
X149629720Y-136401291D01*
X149648436Y-136392357D01*
X149675043Y-136381474D01*
X149715194Y-136366395D01*
X149765243Y-136348426D01*
X149821546Y-136328870D01*
X149880458Y-136309031D01*
X149892060Y-136305201D01*
X149982300Y-136275026D01*
X150058413Y-136248381D01*
X150123664Y-136223979D01*
X150181315Y-136200531D01*
X150234631Y-136176750D01*
X150286877Y-136151350D01*
X150303212Y-136143024D01*
X150386501Y-136108388D01*
X150472949Y-136089112D01*
X150564318Y-136085104D01*
X150662369Y-136096272D01*
G37*
G36*
X151466925Y-134104266D02*
G01*
X151526201Y-134110585D01*
X151573286Y-134119920D01*
X151579378Y-134121689D01*
X151638184Y-134143741D01*
X151695969Y-134172529D01*
X151749261Y-134205710D01*
X151794587Y-134240942D01*
X151828476Y-134275881D01*
X151844266Y-134300415D01*
X151858500Y-134345730D01*
X151856172Y-134387063D01*
X151837127Y-134424505D01*
X151801211Y-134458152D01*
X151748270Y-134488096D01*
X151678150Y-134514432D01*
X151590695Y-134537254D01*
X151485753Y-134556653D01*
X151403299Y-134568065D01*
X151340396Y-134574839D01*
X151264310Y-134581534D01*
X151179905Y-134587841D01*
X151092043Y-134593453D01*
X151005586Y-134598064D01*
X150925398Y-134601365D01*
X150856339Y-134603049D01*
X150848507Y-134603133D01*
X150792037Y-134604000D01*
X150732860Y-134605537D01*
X150677708Y-134607533D01*
X150633311Y-134609776D01*
X150630320Y-134609966D01*
X150542969Y-134615655D01*
X150561014Y-134661779D01*
X150576178Y-134696903D01*
X150593592Y-134732228D01*
X150600657Y-134745027D01*
X150622256Y-134782151D01*
X150782753Y-134787146D01*
X150850587Y-134789785D01*
X150906224Y-134793424D01*
X150955513Y-134798727D01*
X151004300Y-134806361D01*
X151058432Y-134816992D01*
X151074085Y-134820325D01*
X151162579Y-134839039D01*
X151234982Y-134853550D01*
X151292690Y-134864107D01*
X151337101Y-134870956D01*
X151369612Y-134874342D01*
X151382917Y-134874818D01*
X151409906Y-134878475D01*
X151427268Y-134891657D01*
X151430930Y-134896783D01*
X151438738Y-134913380D01*
X151437951Y-134929370D01*
X151426969Y-134947033D01*
X151404189Y-134968649D01*
X151368010Y-134996499D01*
X151353566Y-135006939D01*
X151323760Y-135029284D01*
X151301397Y-135048006D01*
X151289282Y-135060634D01*
X151288252Y-135064419D01*
X151299335Y-135068995D01*
X151323983Y-135076900D01*
X151358293Y-135086934D01*
X151389893Y-135095640D01*
X151553523Y-135146603D01*
X151719919Y-135211726D01*
X151885623Y-135289138D01*
X152047179Y-135376966D01*
X152201129Y-135473338D01*
X152344016Y-135576383D01*
X152465896Y-135678326D01*
X152502325Y-135714598D01*
X152522745Y-135743846D01*
X152526791Y-135767056D01*
X152514098Y-135785215D01*
X152484303Y-135799309D01*
X152437040Y-135810325D01*
X152415867Y-135813700D01*
X152380204Y-135819407D01*
X152352057Y-135824860D01*
X152335671Y-135829193D01*
X152333272Y-135830535D01*
X152337468Y-135838826D01*
X152350718Y-135858001D01*
X152370637Y-135884986D01*
X152394843Y-135916706D01*
X152420952Y-135950084D01*
X152446580Y-135982047D01*
X152469345Y-136009520D01*
X152486862Y-136029426D01*
X152489914Y-136032628D01*
X152498762Y-136036904D01*
X152520010Y-136044078D01*
X152554118Y-136054269D01*
X152601546Y-136067600D01*
X152662754Y-136084189D01*
X152738202Y-136104158D01*
X152828351Y-136127628D01*
X152933661Y-136154719D01*
X153054592Y-136185551D01*
X153191605Y-136220245D01*
X153345159Y-136258921D01*
X153515715Y-136301701D01*
X153546257Y-136309346D01*
X153687501Y-136344775D01*
X153822127Y-136378708D01*
X153949176Y-136410895D01*
X154067688Y-136441087D01*
X154176700Y-136469035D01*
X154275254Y-136494489D01*
X154362389Y-136517198D01*
X154437143Y-136536915D01*
X154498557Y-136553389D01*
X154545671Y-136566371D01*
X154577522Y-136575611D01*
X154593152Y-136580859D01*
X154594613Y-136581709D01*
X154599758Y-136599533D01*
X154599718Y-136616531D01*
X154593747Y-136628692D01*
X154577950Y-136653545D01*
X154553480Y-136689459D01*
X154521491Y-136734803D01*
X154483135Y-136787949D01*
X154439567Y-136847265D01*
X154391940Y-136911122D01*
X154381067Y-136925572D01*
X154165328Y-137211811D01*
X154113549Y-137211811D01*
X154094005Y-137211227D01*
X154058514Y-137209556D01*
X154009135Y-137206917D01*
X153947928Y-137203430D01*
X153876951Y-137199214D01*
X153798264Y-137194388D01*
X153713925Y-137189074D01*
X153639420Y-137184267D01*
X153501802Y-137175307D01*
X153381112Y-137167487D01*
X153276271Y-137160748D01*
X153186201Y-137155028D01*
X153109824Y-137150267D01*
X153046061Y-137146405D01*
X152993833Y-137143382D01*
X152952063Y-137141136D01*
X152919672Y-137139608D01*
X152895582Y-137138737D01*
X152878713Y-137138462D01*
X152867989Y-137138724D01*
X152862329Y-137139461D01*
X152860657Y-137140614D01*
X152860656Y-137140632D01*
X152862660Y-137151076D01*
X152868176Y-137175813D01*
X152876457Y-137211599D01*
X152886761Y-137255191D01*
X152891789Y-137276204D01*
X152908110Y-137348925D01*
X152925239Y-137433647D01*
X152942086Y-137524426D01*
X152957557Y-137615318D01*
X152970561Y-137700378D01*
X152973159Y-137719016D01*
X152975175Y-137756624D01*
X152968418Y-137781743D01*
X152951687Y-137794788D01*
X152923780Y-137796169D01*
X152883496Y-137786299D01*
X152833098Y-137767059D01*
X152758995Y-137735806D01*
X152765005Y-137787361D01*
X152780519Y-137883831D01*
X152805178Y-137990321D01*
X152837605Y-138102193D01*
X152876420Y-138214806D01*
X152920245Y-138323523D01*
X152932466Y-138350965D01*
X152951903Y-138394702D01*
X152968280Y-138433502D01*
X152980241Y-138463997D01*
X152986426Y-138482815D01*
X152986980Y-138486232D01*
X152980002Y-138502222D01*
X152965664Y-138515664D01*
X152953812Y-138522096D01*
X152941382Y-138523824D01*
X152923867Y-138520175D01*
X152896761Y-138510474D01*
X152875984Y-138502256D01*
X152805785Y-138478622D01*
X152745905Y-138468406D01*
X152694748Y-138471471D01*
X152658326Y-138483733D01*
X152639369Y-138494174D01*
X152622816Y-138507038D01*
X152607215Y-138524613D01*
X152591117Y-138549189D01*
X152573070Y-138583054D01*
X152551624Y-138628497D01*
X152525329Y-138687807D01*
X152517360Y-138706146D01*
X152493701Y-138758935D01*
X152467682Y-138814026D01*
X152442216Y-138865421D01*
X152420216Y-138907117D01*
X152417112Y-138912663D01*
X152389123Y-138960246D01*
X152358653Y-139008876D01*
X152327646Y-139055772D01*
X152298044Y-139098148D01*
X152271791Y-139133223D01*
X152250827Y-139158213D01*
X152237372Y-139170191D01*
X152210928Y-139175732D01*
X152186037Y-139163388D01*
X152166391Y-139139070D01*
X152142814Y-139108063D01*
X152110560Y-139074740D01*
X152074984Y-139043926D01*
X152041440Y-139020446D01*
X152025851Y-139012428D01*
X151970217Y-138998442D01*
X151912539Y-139000652D01*
X151854701Y-139017638D01*
X151798586Y-139047983D01*
X151746075Y-139090269D01*
X151699052Y-139143075D01*
X151659399Y-139204985D01*
X151628998Y-139274579D01*
X151615467Y-139321636D01*
X151605386Y-139354397D01*
X151592702Y-139373184D01*
X151583402Y-139379216D01*
X151563244Y-139384916D01*
X151545559Y-139380221D01*
X151527151Y-139363137D01*
X151504821Y-139331669D01*
X151503261Y-139329240D01*
X151457532Y-139270701D01*
X151402902Y-139222157D01*
X151342942Y-139186219D01*
X151281224Y-139165502D01*
X151278715Y-139165017D01*
X151256852Y-139162144D01*
X151247551Y-139165718D01*
X151245943Y-139175585D01*
X151247333Y-139191644D01*
X151250841Y-139221746D01*
X151256084Y-139263155D01*
X151262677Y-139313134D01*
X151270237Y-139368946D01*
X151278379Y-139427854D01*
X151286719Y-139487122D01*
X151294873Y-139544012D01*
X151302458Y-139595788D01*
X151309090Y-139639714D01*
X151314383Y-139673051D01*
X151317955Y-139693064D01*
X151319193Y-139697653D01*
X151329103Y-139697239D01*
X151353607Y-139693116D01*
X151389771Y-139685866D01*
X151434660Y-139676071D01*
X151476218Y-139666480D01*
X151531913Y-139653488D01*
X151572864Y-139644499D01*
X151601841Y-139639153D01*
X151621610Y-139637089D01*
X151634940Y-139637947D01*
X151644599Y-139641368D01*
X151649035Y-139644004D01*
X151665888Y-139664233D01*
X151668133Y-139689073D01*
X151655315Y-139711937D01*
X151653818Y-139713315D01*
X151639550Y-139720376D01*
X151611346Y-139730101D01*
X151572913Y-139741350D01*
X151527955Y-139752983D01*
X151513960Y-139756328D01*
X151469531Y-139766912D01*
X151432143Y-139776138D01*
X151404933Y-139783207D01*
X151391034Y-139787322D01*
X151389893Y-139787930D01*
X151397323Y-139792960D01*
X151417637Y-139804917D01*
X151447871Y-139822098D01*
X151485061Y-139842798D01*
X151491402Y-139846292D01*
X151542065Y-139874607D01*
X151578570Y-139896472D01*
X151602847Y-139913619D01*
X151616822Y-139927782D01*
X151622423Y-139940694D01*
X151621575Y-139954088D01*
X151619373Y-139961403D01*
X151609390Y-139979683D01*
X151594052Y-139988888D01*
X151571458Y-139988703D01*
X151539707Y-139978815D01*
X151496899Y-139958910D01*
X151449456Y-139933354D01*
X151344777Y-139874779D01*
X151345436Y-139908037D01*
X151347220Y-139936815D01*
X151351017Y-139972657D01*
X151353500Y-139990923D01*
X151356806Y-140025354D01*
X151353888Y-140048534D01*
X151348122Y-140060852D01*
X151330152Y-140076221D01*
X151306610Y-140081425D01*
X151284659Y-140076073D01*
X151273563Y-140064920D01*
X151270974Y-140053594D01*
X151266341Y-140026527D01*
X151259961Y-139985872D01*
X151252136Y-139933781D01*
X151243166Y-139872406D01*
X151233350Y-139803900D01*
X151222989Y-139730415D01*
X151212383Y-139654103D01*
X151201831Y-139577116D01*
X151191634Y-139501608D01*
X151182092Y-139429730D01*
X151173505Y-139363634D01*
X151166173Y-139305474D01*
X151160395Y-139257401D01*
X151157902Y-139235239D01*
X151154410Y-139208810D01*
X151150932Y-139191614D01*
X151149101Y-139187868D01*
X151141355Y-139193404D01*
X151122194Y-139208742D01*
X151093935Y-139231982D01*
X151058898Y-139261218D01*
X151028166Y-139287122D01*
X150986701Y-139321315D01*
X150949772Y-139350054D01*
X150919836Y-139371543D01*
X150899351Y-139383988D01*
X150892325Y-139386376D01*
X150878519Y-139379848D01*
X150853678Y-139360884D01*
X150818893Y-139330412D01*
X150775257Y-139289361D01*
X150754564Y-139269199D01*
X150635375Y-139152021D01*
X150599828Y-139188469D01*
X150549058Y-139229687D01*
X150486440Y-139263732D01*
X150417436Y-139288532D01*
X150347506Y-139302014D01*
X150296991Y-139303408D01*
X150249380Y-139300656D01*
X150202765Y-139234740D01*
X150178165Y-139201046D01*
X150153938Y-139169688D01*
X150134357Y-139146148D01*
X150130126Y-139141534D01*
X150112783Y-139125796D01*
X150087749Y-139106007D01*
X150058746Y-139084742D01*
X150029498Y-139064577D01*
X150003725Y-139048086D01*
X149985149Y-139037845D01*
X149977692Y-139036066D01*
X149977034Y-139037676D01*
X149977585Y-139041278D01*
X149979970Y-139048194D01*
X149984816Y-139059744D01*
X149992749Y-139077248D01*
X150004396Y-139102027D01*
X150020381Y-139135401D01*
X150041331Y-139178691D01*
X150067873Y-139233218D01*
X150100631Y-139300302D01*
X150140233Y-139381264D01*
X150175325Y-139452957D01*
X150207913Y-139519669D01*
X150237836Y-139581204D01*
X150264198Y-139635699D01*
X150286103Y-139681288D01*
X150302654Y-139716109D01*
X150312956Y-139738296D01*
X150316145Y-139745937D01*
X150312143Y-139756472D01*
X150301207Y-139779807D01*
X150284939Y-139812843D01*
X150264942Y-139852480D01*
X150242819Y-139895618D01*
X150220172Y-139939159D01*
X150198603Y-139980003D01*
X150179717Y-140015051D01*
X150165114Y-140041204D01*
X150156399Y-140055362D01*
X150155630Y-140056340D01*
X150133354Y-140070472D01*
X150108698Y-140068943D01*
X150087181Y-140052319D01*
X150084915Y-140049097D01*
X150078415Y-140037880D01*
X150076112Y-140026994D01*
X150078928Y-140012625D01*
X150087784Y-139990960D01*
X150103602Y-139958184D01*
X150109984Y-139945332D01*
X150126343Y-139911545D01*
X150138458Y-139884756D01*
X150144853Y-139868345D01*
X150145170Y-139864838D01*
X150136625Y-139869980D01*
X150115967Y-139884106D01*
X150085621Y-139905509D01*
X150048013Y-139932480D01*
X150010675Y-139959580D01*
X149968088Y-139990157D01*
X149929944Y-140016611D01*
X149898837Y-140037217D01*
X149877362Y-140050249D01*
X149868561Y-140054084D01*
X149850324Y-140046679D01*
X149832478Y-140029043D01*
X149821184Y-140008047D01*
X149819875Y-139999777D01*
X149825389Y-139988040D01*
X149842631Y-139969875D01*
X149872653Y-139944343D01*
X149916503Y-139910508D01*
X149937175Y-139895158D01*
X149976682Y-139865816D01*
X150010513Y-139840227D01*
X150036236Y-139820269D01*
X150051415Y-139807822D01*
X150054475Y-139804633D01*
X150046124Y-139803045D01*
X150023733Y-139802216D01*
X149991295Y-139802246D01*
X149972097Y-139802625D01*
X149932077Y-139803188D01*
X149906124Y-139801987D01*
X149890297Y-139798407D01*
X149880655Y-139791831D01*
X149877355Y-139787828D01*
X149865780Y-139759711D01*
X149872184Y-139731966D01*
X149873802Y-139729253D01*
X149881142Y-139723788D01*
X149897060Y-139719211D01*
X149923782Y-139715211D01*
X149963533Y-139711475D01*
X150018538Y-139707694D01*
X150035092Y-139706695D01*
X150187845Y-139697672D01*
X150025675Y-139363818D01*
X149990557Y-139291671D01*
X149957765Y-139224591D01*
X149928159Y-139164316D01*
X149902598Y-139112582D01*
X149881943Y-139071128D01*
X149867053Y-139041690D01*
X149858788Y-139026006D01*
X149857480Y-139023919D01*
X149847522Y-139025312D01*
X149824911Y-139033603D01*
X149793039Y-139047419D01*
X149756447Y-139064817D01*
X149694668Y-139092915D01*
X149632242Y-139116956D01*
X149573247Y-139135643D01*
X149521762Y-139147680D01*
X149482997Y-139151775D01*
X149457291Y-139147665D01*
X149441397Y-139133570D01*
X149433551Y-139106842D01*
X149431882Y-139075079D01*
X149428320Y-139035548D01*
X149415496Y-139003439D01*
X149390202Y-138970903D01*
X149388595Y-138969170D01*
X149355827Y-138944762D01*
X149319866Y-138937909D01*
X149281297Y-138948521D01*
X149240707Y-138976507D01*
X149221680Y-138995019D01*
X149203143Y-139012797D01*
X149186698Y-139022540D01*
X149170488Y-139023090D01*
X149152656Y-139013290D01*
X149131348Y-138991984D01*
X149104705Y-138958015D01*
X149070874Y-138910226D01*
X149059817Y-138894149D01*
X149027982Y-138847016D01*
X148989822Y-138789453D01*
X148948539Y-138726353D01*
X148907336Y-138662613D01*
X148869520Y-138603291D01*
X148822433Y-138529761D01*
X148782520Y-138470415D01*
X148748023Y-138423755D01*
X148717184Y-138388285D01*
X148688244Y-138362507D01*
X148659446Y-138344924D01*
X148629031Y-138334040D01*
X148595241Y-138328356D01*
X148556318Y-138326377D01*
X148544218Y-138326282D01*
X148505360Y-138325828D01*
X148480407Y-138324002D01*
X148465225Y-138319895D01*
X148455679Y-138312602D01*
X148450537Y-138305719D01*
X148444093Y-138293762D01*
X148443584Y-138281850D01*
X148450241Y-138265289D01*
X148465295Y-138239384D01*
X148469925Y-138231855D01*
X148499997Y-138177874D01*
X148518614Y-138129953D01*
X148527685Y-138082026D01*
X148529375Y-138043057D01*
X148523251Y-137983283D01*
X148505980Y-137933187D01*
X148478582Y-137895635D01*
X148476198Y-137893449D01*
X148450743Y-137880355D01*
X148413888Y-137873004D01*
X148371444Y-137871717D01*
X148329224Y-137876814D01*
X148303996Y-137883946D01*
X148260708Y-137898294D01*
X148230131Y-137903386D01*
X148209239Y-137898799D01*
X148195006Y-137884108D01*
X148187404Y-137867637D01*
X148183737Y-137864715D01*
X148175964Y-137867565D01*
X148162893Y-137877311D01*
X148143335Y-137895078D01*
X148116098Y-137921988D01*
X148079993Y-137959167D01*
X148033829Y-138007740D01*
X147992161Y-138052032D01*
X147944045Y-138103301D01*
X147899051Y-138151198D01*
X147858904Y-138193893D01*
X147825327Y-138229555D01*
X147800042Y-138256352D01*
X147784774Y-138272453D01*
X147782120Y-138275217D01*
X147768017Y-138287572D01*
X147752868Y-138293176D01*
X147730286Y-138293474D01*
X147709607Y-138291613D01*
X147656636Y-138283460D01*
X147590601Y-138269145D01*
X147514997Y-138249683D01*
X147433316Y-138226091D01*
X147349051Y-138199386D01*
X147265697Y-138170583D01*
X147186745Y-138140700D01*
X147175684Y-138136262D01*
X147113279Y-138109880D01*
X147048008Y-138080255D01*
X146982152Y-138048618D01*
X146917995Y-138016196D01*
X146857820Y-137984221D01*
X146818097Y-137961894D01*
X147031740Y-137961894D01*
X147039766Y-137969091D01*
X147062080Y-137981390D01*
X147096035Y-137997656D01*
X147138985Y-138016753D01*
X147188284Y-138037546D01*
X147241285Y-138058900D01*
X147295342Y-138079679D01*
X147347809Y-138098749D01*
X147363193Y-138104086D01*
X147402968Y-138116995D01*
X147450577Y-138131334D01*
X147502497Y-138146167D01*
X147555206Y-138160556D01*
X147605179Y-138173564D01*
X147648893Y-138184254D01*
X147682825Y-138191689D01*
X147703452Y-138194930D01*
X147704912Y-138194994D01*
X147718330Y-138188983D01*
X147741663Y-138170387D01*
X147775340Y-138138813D01*
X147819792Y-138093869D01*
X147847238Y-138065157D01*
X147884391Y-138025275D01*
X147916223Y-137989816D01*
X147941004Y-137960816D01*
X147957001Y-137940314D01*
X147962485Y-137930347D01*
X147962206Y-137929819D01*
X147952081Y-137925588D01*
X147926988Y-137915845D01*
X147888889Y-137901332D01*
X147839745Y-137882786D01*
X147781515Y-137860950D01*
X147716163Y-137836563D01*
X147649896Y-137811940D01*
X147345947Y-137699229D01*
X147188843Y-137827055D01*
X147143534Y-137864220D01*
X147103343Y-137897760D01*
X147070262Y-137925964D01*
X147046283Y-137947123D01*
X147033399Y-137959527D01*
X147031740Y-137961894D01*
X146818097Y-137961894D01*
X146803908Y-137953919D01*
X146758542Y-137926521D01*
X146724006Y-137903256D01*
X146702581Y-137885353D01*
X146697477Y-137878756D01*
X146692593Y-137859776D01*
X146695794Y-137852262D01*
X146837743Y-137852262D01*
X146845090Y-137862755D01*
X146863476Y-137876626D01*
X146887421Y-137890831D01*
X146911446Y-137902324D01*
X146930071Y-137908062D01*
X146936710Y-137907245D01*
X146944834Y-137900681D01*
X146966049Y-137883483D01*
X146999440Y-137856395D01*
X147044090Y-137820161D01*
X147099082Y-137775525D01*
X147163502Y-137723230D01*
X147236432Y-137664021D01*
X147282184Y-137626873D01*
X147438368Y-137626873D01*
X147446363Y-137630843D01*
X147468979Y-137640154D01*
X147503895Y-137653936D01*
X147548787Y-137671316D01*
X147601335Y-137691424D01*
X147659216Y-137713388D01*
X147720109Y-137736337D01*
X147781690Y-137759399D01*
X147841639Y-137781705D01*
X147897634Y-137802381D01*
X147947352Y-137820558D01*
X147988471Y-137835363D01*
X148018670Y-137845926D01*
X148035626Y-137851375D01*
X148038158Y-137851927D01*
X148047128Y-137845833D01*
X148066144Y-137828615D01*
X148093010Y-137802404D01*
X148125528Y-137769334D01*
X148154418Y-137739073D01*
X148189453Y-137701036D01*
X148218534Y-137667752D01*
X148239897Y-137641373D01*
X148251782Y-137624052D01*
X148253329Y-137618204D01*
X148243865Y-137611679D01*
X148221061Y-137596937D01*
X148186927Y-137575247D01*
X148143474Y-137547880D01*
X148092713Y-137516105D01*
X148036653Y-137481194D01*
X148024786Y-137473825D01*
X147955522Y-137431167D01*
X147900072Y-137397800D01*
X147857204Y-137373049D01*
X147825688Y-137356238D01*
X147804292Y-137346691D01*
X147791787Y-137343733D01*
X147788868Y-137344303D01*
X147777887Y-137351761D01*
X147755826Y-137368410D01*
X147725015Y-137392369D01*
X147687786Y-137421760D01*
X147646468Y-137454705D01*
X147603392Y-137489325D01*
X147560889Y-137523740D01*
X147521290Y-137556072D01*
X147486924Y-137584442D01*
X147460123Y-137606971D01*
X147443217Y-137621780D01*
X147438368Y-137626873D01*
X147282184Y-137626873D01*
X147316956Y-137598640D01*
X147404158Y-137527832D01*
X147497122Y-137452341D01*
X147594932Y-137372910D01*
X147696672Y-137290284D01*
X147703960Y-137284365D01*
X147728608Y-137264350D01*
X147885410Y-137264350D01*
X147891779Y-137270328D01*
X147911180Y-137284261D01*
X147941270Y-137304659D01*
X147979703Y-137330034D01*
X148024136Y-137358895D01*
X148072223Y-137389753D01*
X148121621Y-137421117D01*
X148169985Y-137451498D01*
X148214971Y-137479406D01*
X148254234Y-137503351D01*
X148285430Y-137521844D01*
X148306214Y-137533394D01*
X148313903Y-137536642D01*
X148318188Y-137528569D01*
X148322590Y-137508028D01*
X148324522Y-137493821D01*
X148325471Y-137445217D01*
X148319349Y-137392022D01*
X148307452Y-137342299D01*
X148295254Y-137311615D01*
X148271888Y-137277872D01*
X148237636Y-137242976D01*
X148198356Y-137212509D01*
X148179163Y-137200952D01*
X148161258Y-137188713D01*
X148151936Y-137174256D01*
X148151800Y-137155462D01*
X148159601Y-137135054D01*
X148268352Y-137135054D01*
X148308284Y-137173318D01*
X148359512Y-137233884D01*
X148395264Y-137302771D01*
X148415636Y-137380365D01*
X148420724Y-137467051D01*
X148410624Y-137563214D01*
X148408272Y-137576057D01*
X148397493Y-137621185D01*
X148382534Y-137670215D01*
X148369013Y-137706570D01*
X148342778Y-137769010D01*
X148403493Y-137773354D01*
X148467769Y-137785893D01*
X148522384Y-137812650D01*
X148566522Y-137852116D01*
X148599367Y-137902777D01*
X148620102Y-137963124D01*
X148627911Y-138031643D01*
X148621976Y-138106824D01*
X148610781Y-138157047D01*
X148602106Y-138188783D01*
X148595712Y-138212993D01*
X148592798Y-138225122D01*
X148592735Y-138225641D01*
X148600702Y-138229041D01*
X148620728Y-138233470D01*
X148630570Y-138235164D01*
X148686370Y-138251887D01*
X148741227Y-138284365D01*
X148795752Y-138333147D01*
X148850560Y-138398788D01*
X148906264Y-138481838D01*
X148908220Y-138485038D01*
X148935766Y-138529533D01*
X148967097Y-138578971D01*
X149000749Y-138631163D01*
X149035260Y-138683920D01*
X149069164Y-138735054D01*
X149100999Y-138782376D01*
X149129301Y-138823697D01*
X149152606Y-138856828D01*
X149169451Y-138879582D01*
X149178371Y-138889768D01*
X149179105Y-138890106D01*
X149190595Y-138885952D01*
X149211759Y-138875363D01*
X149225686Y-138867657D01*
X149273109Y-138849772D01*
X149326142Y-138844611D01*
X149377832Y-138852365D01*
X149404203Y-138862725D01*
X149442330Y-138889419D01*
X149477457Y-138926688D01*
X149504443Y-138968338D01*
X149515861Y-138997243D01*
X149524520Y-139021961D01*
X149533980Y-139038183D01*
X149537482Y-139040939D01*
X149555013Y-139040626D01*
X149584818Y-139032784D01*
X149623527Y-139018885D01*
X149667772Y-139000397D01*
X149714184Y-138978793D01*
X149759394Y-138955543D01*
X149800034Y-138932117D01*
X149825876Y-138915040D01*
X149863459Y-138888147D01*
X149911596Y-138903802D01*
X149999995Y-138938182D01*
X150079374Y-138981709D01*
X150152621Y-139036552D01*
X150222624Y-139104878D01*
X150292270Y-139188856D01*
X150293587Y-139190589D01*
X150305526Y-139204422D01*
X150317705Y-139210124D01*
X150336587Y-139209233D01*
X150356749Y-139205606D01*
X150430277Y-139182555D01*
X150499029Y-139144008D01*
X150558544Y-139092508D01*
X150562446Y-139088266D01*
X150593719Y-139056491D01*
X150617424Y-139039013D01*
X150632948Y-139034475D01*
X150645567Y-139038580D01*
X150664848Y-139051660D01*
X150692153Y-139074867D01*
X150728846Y-139109353D01*
X150771811Y-139151775D01*
X150809239Y-139188989D01*
X150842340Y-139221338D01*
X150869009Y-139246808D01*
X150887139Y-139263389D01*
X150894569Y-139269075D01*
X150902991Y-139263547D01*
X150922864Y-139248198D01*
X150951880Y-139224882D01*
X150987727Y-139195452D01*
X151023876Y-139165310D01*
X151147465Y-139061544D01*
X151207773Y-139061652D01*
X151294558Y-139070538D01*
X151376705Y-139096280D01*
X151451908Y-139137969D01*
X151499507Y-139176457D01*
X151522023Y-139196677D01*
X151538815Y-139210179D01*
X151546273Y-139214060D01*
X151546284Y-139214046D01*
X151551356Y-139204691D01*
X151561997Y-139183710D01*
X151575470Y-139156526D01*
X151603873Y-139109956D01*
X151643292Y-139060342D01*
X151688769Y-139013040D01*
X151735348Y-138973405D01*
X151761215Y-138955859D01*
X151833347Y-138922048D01*
X151907231Y-138905248D01*
X151980785Y-138905228D01*
X152051926Y-138921760D01*
X152118572Y-138954614D01*
X152176732Y-139001638D01*
X152219115Y-139044021D01*
X152263065Y-138978342D01*
X152292410Y-138933486D01*
X152318141Y-138891514D01*
X152342191Y-138848775D01*
X152366493Y-138801613D01*
X152392983Y-138746375D01*
X152423593Y-138679409D01*
X152436300Y-138651039D01*
X152460198Y-138598965D01*
X152483829Y-138550133D01*
X152505451Y-138507953D01*
X152523321Y-138475835D01*
X152534909Y-138458154D01*
X152577209Y-138418751D01*
X152631073Y-138390724D01*
X152693356Y-138374990D01*
X152760916Y-138372468D01*
X152807448Y-138378602D01*
X152839958Y-138385133D01*
X152797722Y-138278951D01*
X152735881Y-138099737D01*
X152689511Y-137912389D01*
X152661990Y-137743123D01*
X152656897Y-137689226D01*
X152658216Y-137651296D01*
X152667603Y-137628086D01*
X152686718Y-137618349D01*
X152717217Y-137620838D01*
X152760759Y-137634306D01*
X152791076Y-137646026D01*
X152823580Y-137658447D01*
X152849207Y-137667013D01*
X152863816Y-137670386D01*
X152865571Y-137670081D01*
X152866049Y-137659488D01*
X152863314Y-137634194D01*
X152857881Y-137597151D01*
X152850266Y-137551317D01*
X152840985Y-137499644D01*
X152830554Y-137445087D01*
X152819490Y-137390602D01*
X152808309Y-137339143D01*
X152806020Y-137329111D01*
X152775158Y-137205317D01*
X152740816Y-137083942D01*
X153641106Y-137083942D01*
X153651441Y-137086202D01*
X153677247Y-137089319D01*
X153715982Y-137093060D01*
X153765104Y-137097193D01*
X153822071Y-137101486D01*
X153865221Y-137104458D01*
X153926737Y-137108552D01*
X153982725Y-137112307D01*
X154030518Y-137115542D01*
X154067446Y-137118075D01*
X154090840Y-137119725D01*
X154097640Y-137120248D01*
X154108098Y-137113584D01*
X154127734Y-137093464D01*
X154155389Y-137061228D01*
X154189906Y-137018212D01*
X154221147Y-136977641D01*
X154259218Y-136926955D01*
X154286967Y-136888745D01*
X154305392Y-136861430D01*
X154315493Y-136843433D01*
X154318268Y-136833173D01*
X154315069Y-136829168D01*
X154289066Y-136822012D01*
X154251849Y-136812545D01*
X154206454Y-136801463D01*
X154155916Y-136789459D01*
X154103270Y-136777227D01*
X154051551Y-136765463D01*
X154003794Y-136754861D01*
X153963035Y-136746114D01*
X153932308Y-136739917D01*
X153914650Y-136736965D01*
X153911724Y-136736897D01*
X153902676Y-136745092D01*
X153885043Y-136764924D01*
X153860666Y-136794033D01*
X153831384Y-136830059D01*
X153799040Y-136870641D01*
X153765472Y-136913419D01*
X153732523Y-136956033D01*
X153702031Y-136996122D01*
X153675837Y-137031327D01*
X153655783Y-137059287D01*
X153643708Y-137077642D01*
X153641106Y-137083942D01*
X152740816Y-137083942D01*
X152739023Y-137077604D01*
X152731295Y-137053114D01*
X153154345Y-137053114D01*
X153156870Y-137056472D01*
X153177316Y-137058892D01*
X153211451Y-137061831D01*
X153254936Y-137065014D01*
X153303429Y-137068166D01*
X153352593Y-137071009D01*
X153398086Y-137073269D01*
X153435569Y-137074670D01*
X153447157Y-137074925D01*
X153514831Y-137075963D01*
X153657895Y-136894898D01*
X153696304Y-136845653D01*
X153730218Y-136800947D01*
X153758236Y-136762731D01*
X153778953Y-136732955D01*
X153790967Y-136713570D01*
X153793241Y-136706668D01*
X153783081Y-136702961D01*
X153758543Y-136695918D01*
X153722817Y-136686336D01*
X153679091Y-136675010D01*
X153630555Y-136662738D01*
X153580398Y-136650317D01*
X153531808Y-136638544D01*
X153487974Y-136628216D01*
X153452086Y-136620129D01*
X153427332Y-136615081D01*
X153425364Y-136614735D01*
X153418549Y-136616533D01*
X153409005Y-136624881D01*
X153395726Y-136641237D01*
X153377706Y-136667060D01*
X153353940Y-136703808D01*
X153323421Y-136752939D01*
X153285144Y-136815911D01*
X153274935Y-136832841D01*
X153234768Y-136899950D01*
X153203561Y-136953137D01*
X153180613Y-136993723D01*
X153165226Y-137023034D01*
X153156703Y-137042390D01*
X153154345Y-137053114D01*
X152731295Y-137053114D01*
X152699827Y-136953389D01*
X152661566Y-136844832D01*
X152645365Y-136800317D01*
X152631798Y-136760608D01*
X152629902Y-136754529D01*
X152734481Y-136754529D01*
X152737380Y-136766326D01*
X152745290Y-136791970D01*
X152757183Y-136828301D01*
X152772036Y-136872157D01*
X152781852Y-136900514D01*
X152829076Y-137035861D01*
X152896749Y-137041205D01*
X152935562Y-137043781D01*
X152972308Y-137045402D01*
X152999043Y-137045717D01*
X152999077Y-137045716D01*
X153033733Y-137044884D01*
X153168019Y-136823818D01*
X153202527Y-136766702D01*
X153233768Y-136714400D01*
X153260557Y-136668945D01*
X153281708Y-136632371D01*
X153296034Y-136606710D01*
X153302350Y-136593997D01*
X153302547Y-136593191D01*
X153294260Y-136589137D01*
X153271066Y-136581631D01*
X153235629Y-136571346D01*
X153190610Y-136558957D01*
X153138671Y-136545138D01*
X153082473Y-136530563D01*
X153024680Y-136515907D01*
X152967952Y-136501843D01*
X152914952Y-136489047D01*
X152868341Y-136478193D01*
X152830782Y-136469954D01*
X152804937Y-136465006D01*
X152793467Y-136464023D01*
X152793214Y-136464167D01*
X152796125Y-136472843D01*
X152806725Y-136493751D01*
X152823317Y-136523710D01*
X152843177Y-136557814D01*
X152871115Y-136607010D01*
X152888517Y-136643993D01*
X152895729Y-136670945D01*
X152893098Y-136690047D01*
X152880970Y-136703483D01*
X152867424Y-136710517D01*
X152841675Y-136719240D01*
X152807578Y-136728437D01*
X152786216Y-136733254D01*
X152758517Y-136740594D01*
X152739751Y-136748750D01*
X152734481Y-136754529D01*
X152629902Y-136754529D01*
X152622050Y-136729354D01*
X152617305Y-136710210D01*
X152617033Y-136707438D01*
X152624380Y-136687813D01*
X152647103Y-136671421D01*
X152686223Y-136657669D01*
X152714031Y-136651234D01*
X152743071Y-136644126D01*
X152763429Y-136636866D01*
X152770426Y-136631452D01*
X152765452Y-136618264D01*
X152751455Y-136592442D01*
X152729816Y-136556096D01*
X152701919Y-136511337D01*
X152669146Y-136460273D01*
X152632880Y-136405015D01*
X152594504Y-136347673D01*
X152555402Y-136290355D01*
X152516955Y-136235172D01*
X152480548Y-136184234D01*
X152474942Y-136176638D01*
X152602519Y-136176638D01*
X152605647Y-136185221D01*
X152617196Y-136205382D01*
X152635236Y-136233914D01*
X152653207Y-136260851D01*
X152707876Y-136341083D01*
X152768476Y-136355415D01*
X152799870Y-136362900D01*
X152845187Y-136373792D01*
X152902944Y-136387728D01*
X152971657Y-136404348D01*
X153049842Y-136423290D01*
X153136017Y-136444193D01*
X153228698Y-136466696D01*
X153326400Y-136490437D01*
X153427641Y-136515055D01*
X153530938Y-136540189D01*
X153634806Y-136565478D01*
X153737762Y-136590559D01*
X153838323Y-136615072D01*
X153935005Y-136638656D01*
X154026326Y-136660949D01*
X154110800Y-136681590D01*
X154186945Y-136700217D01*
X154253277Y-136716470D01*
X154308314Y-136729986D01*
X154350570Y-136740406D01*
X154378564Y-136747366D01*
X154390810Y-136750507D01*
X154391242Y-136750646D01*
X154396797Y-136744553D01*
X154410276Y-136727609D01*
X154428810Y-136703426D01*
X154429590Y-136702393D01*
X154448287Y-136676601D01*
X154461637Y-136656218D01*
X154466766Y-136645638D01*
X154466767Y-136645615D01*
X154458238Y-136642535D01*
X154433577Y-136635473D01*
X154394171Y-136624779D01*
X154341405Y-136610802D01*
X154276667Y-136593890D01*
X154201343Y-136574392D01*
X154116820Y-136552657D01*
X154024485Y-136529035D01*
X153925724Y-136503872D01*
X153821923Y-136477520D01*
X153714470Y-136450325D01*
X153604751Y-136422638D01*
X153494152Y-136394807D01*
X153384061Y-136367181D01*
X153275864Y-136340108D01*
X153170948Y-136313938D01*
X153070699Y-136289019D01*
X152976504Y-136265700D01*
X152889750Y-136244331D01*
X152811822Y-136225259D01*
X152744109Y-136208833D01*
X152687996Y-136195404D01*
X152644871Y-136185318D01*
X152616119Y-136178926D01*
X152603128Y-136176576D01*
X152602519Y-136176638D01*
X152474942Y-136176638D01*
X152451299Y-136144602D01*
X152416725Y-136099494D01*
X152375121Y-136046507D01*
X152331146Y-135991506D01*
X152289462Y-135940360D01*
X152279507Y-135928337D01*
X152237193Y-135876380D01*
X152207169Y-135835932D01*
X152189458Y-135805263D01*
X152184084Y-135782645D01*
X152191069Y-135766350D01*
X152210438Y-135754650D01*
X152242214Y-135745817D01*
X152282060Y-135738794D01*
X152316192Y-135732527D01*
X152342452Y-135725868D01*
X152356541Y-135719977D01*
X152357787Y-135718391D01*
X152351523Y-135710238D01*
X152333079Y-135693441D01*
X152304844Y-135670005D01*
X152269207Y-135641938D01*
X152242949Y-135621968D01*
X152062054Y-135497348D01*
X151872892Y-135388685D01*
X151676043Y-135296246D01*
X151472084Y-135220299D01*
X151261594Y-135161112D01*
X151231989Y-135154257D01*
X151183369Y-135142951D01*
X151149712Y-135133816D01*
X151128290Y-135125446D01*
X151116378Y-135116435D01*
X151111249Y-135105379D01*
X151110177Y-135091452D01*
X151111673Y-135077810D01*
X151117696Y-135064900D01*
X151130544Y-135050408D01*
X151152518Y-135032021D01*
X151185917Y-135007427D01*
X151212122Y-134988921D01*
X151255417Y-134958586D01*
X151171518Y-134938978D01*
X151083753Y-134919183D01*
X151009009Y-134904140D01*
X150943067Y-134893279D01*
X150881705Y-134886025D01*
X150820702Y-134881809D01*
X150755837Y-134880057D01*
X150735719Y-134879928D01*
X150645846Y-134881602D01*
X150567808Y-134887748D01*
X150495747Y-134899287D01*
X150423803Y-134917135D01*
X150352237Y-134940075D01*
X150279943Y-134968752D01*
X150200824Y-135006118D01*
X150121433Y-135048749D01*
X150048322Y-135093220D01*
X150013050Y-135117304D01*
X149940045Y-135169705D01*
X149838813Y-135175853D01*
X149681698Y-135193529D01*
X149528423Y-135226838D01*
X149381243Y-135275045D01*
X149242414Y-135337413D01*
X149116424Y-135411704D01*
X149083100Y-135436074D01*
X149042302Y-135468963D01*
X148999226Y-135506039D01*
X148959516Y-135542539D01*
X148927022Y-135574481D01*
X148890564Y-135611725D01*
X148852067Y-135652145D01*
X148813457Y-135693614D01*
X148776659Y-135734003D01*
X148743598Y-135771186D01*
X148716199Y-135803036D01*
X148696388Y-135827425D01*
X148686090Y-135842225D01*
X148685242Y-135845585D01*
X148695364Y-135849189D01*
X148718690Y-135855198D01*
X148750727Y-135862481D01*
X148760554Y-135864574D01*
X148795458Y-135872636D01*
X148824071Y-135880589D01*
X148841280Y-135886974D01*
X148843125Y-135888097D01*
X148852586Y-135905028D01*
X148853331Y-135928897D01*
X148845823Y-135951106D01*
X148839304Y-135958752D01*
X148820752Y-135977325D01*
X148795594Y-136006982D01*
X148766941Y-136043601D01*
X148737904Y-136083059D01*
X148711594Y-136121234D01*
X148691122Y-136154004D01*
X148688588Y-136158485D01*
X148661891Y-136212797D01*
X148642266Y-136268412D01*
X148628698Y-136329668D01*
X148620173Y-136400902D01*
X148616324Y-136467406D01*
X148611356Y-136549643D01*
X148602370Y-136618274D01*
X148587838Y-136677569D01*
X148566233Y-136731795D01*
X148536028Y-136785220D01*
X148495696Y-136842113D01*
X148471053Y-136873445D01*
X148437190Y-136915934D01*
X148398184Y-136965599D01*
X148359718Y-137015177D01*
X148336981Y-137044853D01*
X148268352Y-137135054D01*
X148159601Y-137135054D01*
X148161453Y-137130210D01*
X148181501Y-137096378D01*
X148212546Y-137051846D01*
X148227362Y-137031665D01*
X148254719Y-136994522D01*
X148277762Y-136962828D01*
X148294573Y-136939253D01*
X148303238Y-136926464D01*
X148303996Y-136924989D01*
X148303986Y-136923981D01*
X148303013Y-136923960D01*
X148299658Y-136926053D01*
X148292503Y-136931386D01*
X148280130Y-136941087D01*
X148261121Y-136956282D01*
X148234057Y-136978099D01*
X148197520Y-137007665D01*
X148150093Y-137046107D01*
X148090358Y-137094552D01*
X148076355Y-137105908D01*
X148026539Y-137146439D01*
X147981407Y-137183407D01*
X147942842Y-137215250D01*
X147912728Y-137240405D01*
X147892947Y-137257310D01*
X147885410Y-137264350D01*
X147728608Y-137264350D01*
X147806194Y-137201347D01*
X147904740Y-137121351D01*
X147998665Y-137045132D01*
X148087035Y-136973446D01*
X148168917Y-136907051D01*
X148243377Y-136846702D01*
X148309481Y-136793156D01*
X148366296Y-136747169D01*
X148412889Y-136709497D01*
X148448326Y-136680898D01*
X148471673Y-136662127D01*
X148481997Y-136653941D01*
X148482160Y-136653819D01*
X148496075Y-136634992D01*
X148507856Y-136603679D01*
X148516144Y-136565428D01*
X148519578Y-136525782D01*
X148518817Y-136504414D01*
X148516038Y-136474464D01*
X147676891Y-137158398D01*
X147569725Y-137245822D01*
X147466529Y-137330168D01*
X147368158Y-137410726D01*
X147275469Y-137486788D01*
X147189320Y-137557646D01*
X147110565Y-137622591D01*
X147040062Y-137680916D01*
X146978668Y-137731912D01*
X146927239Y-137774871D01*
X146886631Y-137809085D01*
X146857701Y-137833845D01*
X146841306Y-137848443D01*
X146837743Y-137852262D01*
X146695794Y-137852262D01*
X146701318Y-137839296D01*
X146701461Y-137839078D01*
X146710062Y-137830853D01*
X146731828Y-137811946D01*
X146765917Y-137783050D01*
X146811488Y-137744861D01*
X146867699Y-137698075D01*
X146933707Y-137643385D01*
X147008671Y-137581487D01*
X147091748Y-137513077D01*
X147182097Y-137438849D01*
X147278876Y-137359497D01*
X147381243Y-137275718D01*
X147488356Y-137188206D01*
X147599372Y-137097656D01*
X147620064Y-137080795D01*
X148524786Y-136343698D01*
X148535211Y-136292592D01*
X148544683Y-136255926D01*
X148558482Y-136213581D01*
X148570129Y-136183293D01*
X148585557Y-136150569D01*
X148606277Y-136111916D01*
X148629791Y-136071429D01*
X148653606Y-136033203D01*
X148675224Y-136001334D01*
X148692151Y-135979917D01*
X148696843Y-135975363D01*
X148707953Y-135963164D01*
X148710035Y-135957976D01*
X148702002Y-135952020D01*
X148681279Y-135944196D01*
X148652930Y-135935871D01*
X148622019Y-135928411D01*
X148593611Y-135923182D01*
X148574825Y-135921509D01*
X148547011Y-135914646D01*
X148524229Y-135897300D01*
X148512193Y-135874331D01*
X148511527Y-135867655D01*
X148519198Y-135851368D01*
X148540703Y-135829431D01*
X148559872Y-135814179D01*
X148581868Y-135795533D01*
X148612555Y-135766224D01*
X148648905Y-135729309D01*
X148687890Y-135687847D01*
X148718698Y-135653734D01*
X148772460Y-135593667D01*
X148817952Y-135544497D01*
X148858310Y-135503135D01*
X148896669Y-135466493D01*
X148936166Y-135431483D01*
X148979936Y-135395018D01*
X148988342Y-135388198D01*
X149100165Y-135308376D01*
X149224490Y-135238795D01*
X149358224Y-135180608D01*
X149498276Y-135134972D01*
X149641554Y-135103039D01*
X149784968Y-135085966D01*
X149799752Y-135085091D01*
X149844048Y-135082532D01*
X149874884Y-135079634D01*
X149896824Y-135075149D01*
X149914433Y-135067829D01*
X149932273Y-135056426D01*
X149948633Y-135044382D01*
X149979606Y-135022555D01*
X150018759Y-134996798D01*
X150058553Y-134972044D01*
X150065754Y-134967749D01*
X150135683Y-134926396D01*
X150135683Y-134880817D01*
X150234937Y-134880817D01*
X150333118Y-134846957D01*
X150377138Y-134832496D01*
X150419435Y-134819859D01*
X150454496Y-134810625D01*
X150472976Y-134806846D01*
X150497515Y-134801565D01*
X150512492Y-134795254D01*
X150514653Y-134792298D01*
X150510838Y-134780283D01*
X150500970Y-134757801D01*
X150490795Y-134736928D01*
X150460051Y-134666851D01*
X150433034Y-134584651D01*
X150410308Y-134493244D01*
X150504777Y-134493244D01*
X150508052Y-134503707D01*
X150512397Y-134509060D01*
X150522613Y-134510508D01*
X150548260Y-134511414D01*
X150586732Y-134511820D01*
X150635425Y-134511770D01*
X150691731Y-134511305D01*
X150753046Y-134510468D01*
X150816764Y-134509302D01*
X150880279Y-134507847D01*
X150940985Y-134506148D01*
X150996278Y-134504246D01*
X151043550Y-134502183D01*
X151080198Y-134500002D01*
X151083108Y-134499785D01*
X151116072Y-134497212D01*
X151160809Y-134493655D01*
X151211107Y-134489610D01*
X151254546Y-134486081D01*
X151357644Y-134476142D01*
X151451781Y-134464041D01*
X151535718Y-134450095D01*
X151608211Y-134434618D01*
X151668020Y-134417924D01*
X151713904Y-134400331D01*
X151744621Y-134382151D01*
X151758929Y-134363702D01*
X151759839Y-134357814D01*
X151751529Y-134335129D01*
X151728487Y-134309910D01*
X151693544Y-134283772D01*
X151649532Y-134258324D01*
X151599281Y-134235179D01*
X151545625Y-134215948D01*
X151491393Y-134202245D01*
X151484222Y-134200913D01*
X151390553Y-134192126D01*
X151285825Y-134196765D01*
X151170823Y-134214640D01*
X151046332Y-134245563D01*
X150913137Y-134289343D01*
X150772022Y-134345790D01*
X150647743Y-134402952D01*
X150592511Y-134430302D01*
X150552217Y-134451737D01*
X150525241Y-134468527D01*
X150509967Y-134481940D01*
X150504777Y-134493244D01*
X150410308Y-134493244D01*
X150408965Y-134487842D01*
X150401292Y-134451044D01*
X150389335Y-134394358D01*
X150378697Y-134353244D01*
X150368127Y-134325414D01*
X150356375Y-134308577D01*
X150342190Y-134300443D01*
X150324322Y-134298724D01*
X150318298Y-134299096D01*
X150295572Y-134304098D01*
X150278260Y-134316281D01*
X150265342Y-134337932D01*
X150255797Y-134371333D01*
X150248604Y-134418770D01*
X150244127Y-134465072D01*
X150240963Y-134513203D01*
X150238274Y-134572994D01*
X150236281Y-134638057D01*
X150235205Y-134702007D01*
X150235080Y-134726687D01*
X150234937Y-134880817D01*
X150135683Y-134880817D01*
X150135683Y-134773324D01*
X150135393Y-134715211D01*
X150134425Y-134673206D01*
X150132632Y-134645378D01*
X150129867Y-134629797D01*
X150125985Y-134624532D01*
X150124404Y-134624742D01*
X150111745Y-134629794D01*
X150086340Y-134639944D01*
X150052201Y-134653587D01*
X150022894Y-134665302D01*
X149910991Y-134707382D01*
X149792750Y-134746984D01*
X149670672Y-134783562D01*
X149547257Y-134816568D01*
X149425006Y-134845455D01*
X149306420Y-134869676D01*
X149193998Y-134888684D01*
X149090242Y-134901932D01*
X148997652Y-134908872D01*
X148918728Y-134908958D01*
X148911258Y-134908542D01*
X148842962Y-134899140D01*
X148789412Y-134880643D01*
X148750994Y-134853558D01*
X148728100Y-134818393D01*
X148721117Y-134775657D01*
X148721510Y-134773554D01*
X148818451Y-134773554D01*
X148824132Y-134789334D01*
X148841312Y-134799929D01*
X148871491Y-134806114D01*
X148916166Y-134808665D01*
X148976837Y-134808359D01*
X148998774Y-134807815D01*
X149173060Y-134794147D01*
X149260443Y-134780696D01*
X149411755Y-134750229D01*
X149565328Y-134713062D01*
X149716389Y-134670561D01*
X149860168Y-134624092D01*
X149991893Y-134575024D01*
X150022544Y-134562442D01*
X150059082Y-134546841D01*
X150080873Y-134536437D01*
X150089943Y-134529765D01*
X150088317Y-134525363D01*
X150078612Y-134521923D01*
X150054858Y-134517840D01*
X150016055Y-134513823D01*
X149965201Y-134509993D01*
X149905294Y-134506472D01*
X149839330Y-134503385D01*
X149770308Y-134500852D01*
X149701225Y-134498999D01*
X149635079Y-134497946D01*
X149574866Y-134497817D01*
X149523585Y-134498735D01*
X149517601Y-134498943D01*
X149420376Y-134503481D01*
X149337500Y-134509556D01*
X149265309Y-134517601D01*
X149200140Y-134528055D01*
X149138328Y-134541351D01*
X149117919Y-134546469D01*
X149027464Y-134575299D01*
X148952127Y-134610852D01*
X148892517Y-134652745D01*
X148849246Y-134700595D01*
X148835593Y-134723334D01*
X148822771Y-134751813D01*
X148818451Y-134773554D01*
X148721510Y-134773554D01*
X148730435Y-134725856D01*
X148744781Y-134691225D01*
X148779674Y-134633872D01*
X148824860Y-134583946D01*
X148881646Y-134540710D01*
X148951338Y-134503429D01*
X149035244Y-134471368D01*
X149134671Y-134443793D01*
X149215328Y-134426548D01*
X149261301Y-134420010D01*
X149322711Y-134414810D01*
X149397001Y-134410948D01*
X149481611Y-134408424D01*
X149573984Y-134407237D01*
X149671560Y-134407386D01*
X149771780Y-134408871D01*
X149872087Y-134411692D01*
X149969922Y-134415848D01*
X150062725Y-134421338D01*
X150131812Y-134426708D01*
X150141930Y-134424606D01*
X150148574Y-134413569D01*
X150153544Y-134389774D01*
X150155357Y-134376671D01*
X150169258Y-134314639D01*
X150193603Y-134266583D01*
X150229269Y-134231172D01*
X150264303Y-134211977D01*
X150314674Y-134199490D01*
X150362349Y-134203608D01*
X150404884Y-134222892D01*
X150439838Y-134255903D01*
X150464768Y-134301203D01*
X150474283Y-134335701D01*
X150480228Y-134357393D01*
X150487128Y-134368952D01*
X150488752Y-134369537D01*
X150499649Y-134365694D01*
X150523050Y-134355259D01*
X150555398Y-134339873D01*
X150589257Y-134323132D01*
X150718404Y-134262793D01*
X150850196Y-134209850D01*
X150980621Y-134165680D01*
X151105663Y-134131663D01*
X151204919Y-134111727D01*
X151264457Y-134104693D01*
X151331204Y-134101191D01*
X151400310Y-134101092D01*
X151466925Y-134104266D01*
G37*
D12*
X169259420Y-131090000D02*
X169540580Y-131090000D01*
X169259420Y-132110000D02*
X169540580Y-132110000D01*
X152177500Y-121487742D02*
X152177500Y-121962258D01*
X153222500Y-121487742D02*
X153222500Y-121962258D01*
X162190580Y-130340000D02*
X161909420Y-130340000D01*
X162190580Y-131360000D02*
X161909420Y-131360000D01*
X147320000Y-124005000D02*
X148700000Y-124005000D01*
X147320000Y-125385000D02*
X147320000Y-124005000D01*
X147320000Y-126655000D02*
X147320000Y-131845000D01*
X147320000Y-126655000D02*
X149970000Y-126655000D01*
X147320000Y-131845000D02*
X152620000Y-131845000D01*
X149970000Y-124005000D02*
X152620000Y-124005000D01*
X149970000Y-126655000D02*
X149970000Y-124005000D01*
X152620000Y-124005000D02*
X152620000Y-131845000D01*
X157062742Y-128977500D02*
X157537258Y-128977500D01*
X157062742Y-130022500D02*
X157537258Y-130022500D01*
X146690000Y-113059420D02*
X146690000Y-113340580D01*
X147710000Y-113059420D02*
X147710000Y-113340580D01*
%LPC*%
D14*
X168625000Y-133100000D03*
X170175000Y-133100000D03*
D15*
X180500000Y-141700000D03*
D16*
X170550000Y-137250000D03*
X173850000Y-137250000D03*
D17*
X159525000Y-132400000D03*
X157875000Y-132400000D03*
D15*
X145890000Y-141320000D03*
D17*
X158225000Y-115000000D03*
X156575000Y-115000000D03*
D15*
X145890000Y-141320000D03*
D18*
X161362500Y-123750000D03*
X162937500Y-123750000D03*
X158112500Y-120500000D03*
X159687500Y-120500000D03*
D19*
X177300000Y-146400000D03*
D20*
X135320000Y-135300000D03*
X135320000Y-133750000D03*
D14*
X172125000Y-128700000D03*
X173675000Y-128700000D03*
D15*
X145900000Y-139720000D03*
D21*
X173000000Y-133125000D03*
X173000000Y-134675000D03*
D19*
X143280000Y-140490000D03*
D22*
X135095000Y-129025000D03*
D23*
X137635000Y-129025000D03*
X140175000Y-129025000D03*
X142715000Y-129025000D03*
D19*
X149200000Y-146400000D03*
D24*
X136865000Y-137025000D03*
X138135000Y-137025000D03*
X139405000Y-137025000D03*
X140675000Y-137025000D03*
X140675000Y-132075000D03*
X139405000Y-132075000D03*
X138135000Y-132075000D03*
X136865000Y-132075000D03*
D14*
X168625000Y-130100000D03*
X170175000Y-130100000D03*
D15*
X180490000Y-142500000D03*
X180500000Y-141700000D03*
D25*
X158075000Y-119000000D03*
X159725000Y-119000000D03*
D15*
X145900000Y-140520000D03*
D14*
X138595000Y-139050000D03*
X140145000Y-139050000D03*
D21*
X152700000Y-117925000D03*
X152700000Y-119475000D03*
X155400000Y-118025000D03*
X155400000Y-119575000D03*
D17*
X158225000Y-116500000D03*
X156575000Y-116500000D03*
D22*
X182585000Y-137000000D03*
D23*
X185125000Y-137000000D03*
X187665000Y-137000000D03*
X190205000Y-137000000D03*
D26*
X148825000Y-122675000D03*
X148825000Y-118525000D03*
X150975000Y-122675000D03*
X150975000Y-118525000D03*
D27*
X155500000Y-143100000D03*
X167500000Y-143100000D03*
D28*
X164050000Y-138260000D03*
D29*
X163030000Y-140800000D03*
X162010000Y-138260000D03*
X160990000Y-140800000D03*
X159970000Y-138260000D03*
X158950000Y-140800000D03*
D15*
X145900000Y-139720000D03*
D21*
X159875000Y-123700000D03*
X159875000Y-125250000D03*
D20*
X159700000Y-117475000D03*
X159700000Y-115925000D03*
D30*
X162825000Y-132350000D03*
X161275000Y-132350000D03*
D20*
X161200000Y-118675000D03*
X161200000Y-117125000D03*
D15*
X180500000Y-140900000D03*
D30*
X166675000Y-127000000D03*
X165125000Y-127000000D03*
D22*
X163200000Y-111175000D03*
D23*
X165740000Y-111175000D03*
X168280000Y-111175000D03*
X170820000Y-111175000D03*
D31*
X167295000Y-116990000D03*
D32*
X167295000Y-119530000D03*
X167295000Y-122070000D03*
X167295000Y-124610000D03*
X174915000Y-124610000D03*
X174915000Y-122070000D03*
X174915000Y-119530000D03*
X174915000Y-116990000D03*
D15*
X145900000Y-140520000D03*
D33*
X190095000Y-140240000D03*
X182795000Y-144540000D03*
X182795000Y-140240000D03*
D34*
X189645000Y-143390000D03*
X189645000Y-142390000D03*
X189645000Y-141390000D03*
D35*
X188445000Y-139940000D03*
X187445000Y-139940000D03*
X186445000Y-139940000D03*
X185445000Y-139940000D03*
X184445000Y-139940000D03*
D36*
X183245000Y-141390000D03*
X183245000Y-142390000D03*
X183245000Y-143390000D03*
D37*
X184445000Y-144840000D03*
X185445000Y-144840000D03*
X186445000Y-144840000D03*
X187445000Y-144840000D03*
X188445000Y-144840000D03*
D38*
X186445000Y-143240000D03*
X186445000Y-141540000D03*
D39*
X168350000Y-127800000D03*
X170450000Y-127800000D03*
D19*
X134980000Y-140490000D03*
D21*
X158375000Y-123700000D03*
X158375000Y-125250000D03*
D30*
X162950000Y-125250000D03*
X161400000Y-125250000D03*
D40*
X178037000Y-111910000D03*
X178037000Y-114450000D03*
X178037000Y-116990000D03*
X178037000Y-119530000D03*
X178037000Y-122070000D03*
X178037000Y-124610000D03*
D41*
X166350000Y-128800000D03*
X166350000Y-132100000D03*
D42*
X149275000Y-110670000D03*
X149275000Y-111940000D03*
X149275000Y-113210000D03*
X149275000Y-114480000D03*
X154225000Y-114480000D03*
X154225000Y-113210000D03*
X154225000Y-111940000D03*
X154225000Y-110670000D03*
D22*
X176625000Y-129500000D03*
D23*
X176625000Y-132040000D03*
X176625000Y-134580000D03*
X176625000Y-137120000D03*
D15*
X180490000Y-142500000D03*
D14*
X168625000Y-131600000D03*
X170175000Y-131600000D03*
D43*
X152700000Y-120900000D03*
X152700000Y-122550000D03*
D30*
X162825000Y-130850000D03*
X161275000Y-130850000D03*
D15*
X180500000Y-140900000D03*
D22*
X148700000Y-125385000D03*
D23*
X151240000Y-125385000D03*
X148700000Y-127925000D03*
X151240000Y-127925000D03*
X148700000Y-130465000D03*
X151240000Y-130465000D03*
D25*
X156475000Y-129500000D03*
X158125000Y-129500000D03*
D21*
X147200000Y-112425000D03*
X147200000Y-113975000D03*
D44*
X171850000Y-130160000D03*
D45*
X171850000Y-132700000D03*
X171850000Y-135240000D03*
%LPD*%
M02*
