G04 #@! TF.GenerationSoftware,KiCad,Pcbnew,9.0.6*
G04 #@! TF.CreationDate,2026-03-10T19:02:13+09:00*
G04 #@! TF.ProjectId,PitotBoard2026,5069746f-7442-46f6-9172-64323032362e,rev?*
G04 #@! TF.SameCoordinates,Original*
G04 #@! TF.FileFunction,Legend,Bot*
G04 #@! TF.FilePolarity,Positive*
%FSLAX46Y46*%
G04 Gerber Fmt 4.6, Leading zero omitted, Abs format (unit mm)*
G04 Created by KiCad (PCBNEW 9.0.6) date 2026-03-10 19:02:13*
%MOMM*%
%LPD*%
G01*
G04 APERTURE LIST*
G04 Aperture macros list*
%AMRoundRect*
0 Rectangle with rounded corners*
0 $1 Rounding radius*
0 $2 $3 $4 $5 $6 $7 $8 $9 X,Y pos of 4 corners*
0 Add a 4 corners polygon primitive as box body*
4,1,4,$2,$3,$4,$5,$6,$7,$8,$9,$2,$3,0*
0 Add four circle primitives for the rounded corners*
1,1,$1+$1,$2,$3*
1,1,$1+$1,$4,$5*
1,1,$1+$1,$6,$7*
1,1,$1+$1,$8,$9*
0 Add four rect primitives between the rounded corners*
20,1,$1+$1,$2,$3,$4,$5,0*
20,1,$1+$1,$4,$5,$6,$7,0*
20,1,$1+$1,$6,$7,$8,$9,0*
20,1,$1+$1,$8,$9,$2,$3,0*%
G04 Aperture macros list end*
%ADD10C,0.150000*%
%ADD11C,0.120000*%
%ADD12C,0.500000*%
%ADD13C,2.200000*%
%ADD14R,1.700000X1.700000*%
%ADD15C,1.700000*%
%ADD16C,2.300000*%
%ADD17R,1.520000X1.520000*%
%ADD18C,1.520000*%
%ADD19RoundRect,0.250000X-0.550000X-0.550000X0.550000X-0.550000X0.550000X0.550000X-0.550000X0.550000X0*%
%ADD20C,1.600000*%
%ADD21C,0.000010*%
%ADD22C,1.900000*%
%ADD23RoundRect,0.137500X0.600000X0.137500X-0.600000X0.137500X-0.600000X-0.137500X0.600000X-0.137500X0*%
%ADD24RoundRect,0.137500X0.137500X0.600000X-0.137500X0.600000X-0.137500X-0.600000X0.137500X-0.600000X0*%
%ADD25RoundRect,0.225000X-0.225000X-0.250000X0.225000X-0.250000X0.225000X0.250000X-0.225000X0.250000X0*%
%ADD26RoundRect,0.100000X0.100000X-0.850000X0.100000X0.850000X-0.100000X0.850000X-0.100000X-0.850000X0*%
%ADD27RoundRect,0.200000X0.200000X0.275000X-0.200000X0.275000X-0.200000X-0.275000X0.200000X-0.275000X0*%
%ADD28RoundRect,0.200000X-0.200000X-0.275000X0.200000X-0.275000X0.200000X0.275000X-0.200000X0.275000X0*%
%ADD29RoundRect,0.150000X0.150000X-0.512500X0.150000X0.512500X-0.150000X0.512500X-0.150000X-0.512500X0*%
%ADD30RoundRect,0.225000X0.225000X0.250000X-0.225000X0.250000X-0.225000X-0.250000X0.225000X-0.250000X0*%
%ADD31R,1.300000X1.300000*%
%ADD32C,1.300000*%
%ADD33RoundRect,0.225000X-0.250000X0.225000X-0.250000X-0.225000X0.250000X-0.225000X0.250000X0.225000X0*%
%ADD34R,0.400000X1.900000*%
%ADD35RoundRect,0.225000X0.250000X-0.225000X0.250000X0.225000X-0.250000X0.225000X-0.250000X-0.225000X0*%
%ADD36R,1.900000X0.400000*%
%ADD37RoundRect,0.225000X-0.225000X-0.375000X0.225000X-0.375000X0.225000X0.375000X-0.225000X0.375000X0*%
G04 APERTURE END LIST*
D10*
X159061904Y-111504819D02*
X159061904Y-112314342D01*
X159061904Y-112314342D02*
X159014285Y-112409580D01*
X159014285Y-112409580D02*
X158966666Y-112457200D01*
X158966666Y-112457200D02*
X158871428Y-112504819D01*
X158871428Y-112504819D02*
X158680952Y-112504819D01*
X158680952Y-112504819D02*
X158585714Y-112457200D01*
X158585714Y-112457200D02*
X158538095Y-112409580D01*
X158538095Y-112409580D02*
X158490476Y-112314342D01*
X158490476Y-112314342D02*
X158490476Y-111504819D01*
X157490476Y-112504819D02*
X158061904Y-112504819D01*
X157776190Y-112504819D02*
X157776190Y-111504819D01*
X157776190Y-111504819D02*
X157871428Y-111647676D01*
X157871428Y-111647676D02*
X157966666Y-111742914D01*
X157966666Y-111742914D02*
X158061904Y-111790533D01*
X174366666Y-115489580D02*
X174414285Y-115537200D01*
X174414285Y-115537200D02*
X174557142Y-115584819D01*
X174557142Y-115584819D02*
X174652380Y-115584819D01*
X174652380Y-115584819D02*
X174795237Y-115537200D01*
X174795237Y-115537200D02*
X174890475Y-115441961D01*
X174890475Y-115441961D02*
X174938094Y-115346723D01*
X174938094Y-115346723D02*
X174985713Y-115156247D01*
X174985713Y-115156247D02*
X174985713Y-115013390D01*
X174985713Y-115013390D02*
X174938094Y-114822914D01*
X174938094Y-114822914D02*
X174890475Y-114727676D01*
X174890475Y-114727676D02*
X174795237Y-114632438D01*
X174795237Y-114632438D02*
X174652380Y-114584819D01*
X174652380Y-114584819D02*
X174557142Y-114584819D01*
X174557142Y-114584819D02*
X174414285Y-114632438D01*
X174414285Y-114632438D02*
X174366666Y-114680057D01*
X174033332Y-114584819D02*
X173366666Y-114584819D01*
X173366666Y-114584819D02*
X173795237Y-115584819D01*
X164404819Y-129461905D02*
X165214342Y-129461905D01*
X165214342Y-129461905D02*
X165309580Y-129509524D01*
X165309580Y-129509524D02*
X165357200Y-129557143D01*
X165357200Y-129557143D02*
X165404819Y-129652381D01*
X165404819Y-129652381D02*
X165404819Y-129842857D01*
X165404819Y-129842857D02*
X165357200Y-129938095D01*
X165357200Y-129938095D02*
X165309580Y-129985714D01*
X165309580Y-129985714D02*
X165214342Y-130033333D01*
X165214342Y-130033333D02*
X164404819Y-130033333D01*
X165404819Y-131033333D02*
X165404819Y-130461905D01*
X165404819Y-130747619D02*
X164404819Y-130747619D01*
X164404819Y-130747619D02*
X164547676Y-130652381D01*
X164547676Y-130652381D02*
X164642914Y-130557143D01*
X164642914Y-130557143D02*
X164690533Y-130461905D01*
X164404819Y-131652381D02*
X164404819Y-131747619D01*
X164404819Y-131747619D02*
X164452438Y-131842857D01*
X164452438Y-131842857D02*
X164500057Y-131890476D01*
X164500057Y-131890476D02*
X164595295Y-131938095D01*
X164595295Y-131938095D02*
X164785771Y-131985714D01*
X164785771Y-131985714D02*
X165023866Y-131985714D01*
X165023866Y-131985714D02*
X165214342Y-131938095D01*
X165214342Y-131938095D02*
X165309580Y-131890476D01*
X165309580Y-131890476D02*
X165357200Y-131842857D01*
X165357200Y-131842857D02*
X165404819Y-131747619D01*
X165404819Y-131747619D02*
X165404819Y-131652381D01*
X165404819Y-131652381D02*
X165357200Y-131557143D01*
X165357200Y-131557143D02*
X165309580Y-131509524D01*
X165309580Y-131509524D02*
X165214342Y-131461905D01*
X165214342Y-131461905D02*
X165023866Y-131414286D01*
X165023866Y-131414286D02*
X164785771Y-131414286D01*
X164785771Y-131414286D02*
X164595295Y-131461905D01*
X164595295Y-131461905D02*
X164500057Y-131509524D01*
X164500057Y-131509524D02*
X164452438Y-131557143D01*
X164452438Y-131557143D02*
X164404819Y-131652381D01*
X169967857Y-119024819D02*
X170301190Y-118548628D01*
X170539285Y-119024819D02*
X170539285Y-118024819D01*
X170539285Y-118024819D02*
X170158333Y-118024819D01*
X170158333Y-118024819D02*
X170063095Y-118072438D01*
X170063095Y-118072438D02*
X170015476Y-118120057D01*
X170015476Y-118120057D02*
X169967857Y-118215295D01*
X169967857Y-118215295D02*
X169967857Y-118358152D01*
X169967857Y-118358152D02*
X170015476Y-118453390D01*
X170015476Y-118453390D02*
X170063095Y-118501009D01*
X170063095Y-118501009D02*
X170158333Y-118548628D01*
X170158333Y-118548628D02*
X170539285Y-118548628D01*
X169586904Y-118120057D02*
X169539285Y-118072438D01*
X169539285Y-118072438D02*
X169444047Y-118024819D01*
X169444047Y-118024819D02*
X169205952Y-118024819D01*
X169205952Y-118024819D02*
X169110714Y-118072438D01*
X169110714Y-118072438D02*
X169063095Y-118120057D01*
X169063095Y-118120057D02*
X169015476Y-118215295D01*
X169015476Y-118215295D02*
X169015476Y-118310533D01*
X169015476Y-118310533D02*
X169063095Y-118453390D01*
X169063095Y-118453390D02*
X169634523Y-119024819D01*
X169634523Y-119024819D02*
X169015476Y-119024819D01*
X168396428Y-118024819D02*
X168301190Y-118024819D01*
X168301190Y-118024819D02*
X168205952Y-118072438D01*
X168205952Y-118072438D02*
X168158333Y-118120057D01*
X168158333Y-118120057D02*
X168110714Y-118215295D01*
X168110714Y-118215295D02*
X168063095Y-118405771D01*
X168063095Y-118405771D02*
X168063095Y-118643866D01*
X168063095Y-118643866D02*
X168110714Y-118834342D01*
X168110714Y-118834342D02*
X168158333Y-118929580D01*
X168158333Y-118929580D02*
X168205952Y-118977200D01*
X168205952Y-118977200D02*
X168301190Y-119024819D01*
X168301190Y-119024819D02*
X168396428Y-119024819D01*
X168396428Y-119024819D02*
X168491666Y-118977200D01*
X168491666Y-118977200D02*
X168539285Y-118929580D01*
X168539285Y-118929580D02*
X168586904Y-118834342D01*
X168586904Y-118834342D02*
X168634523Y-118643866D01*
X168634523Y-118643866D02*
X168634523Y-118405771D01*
X168634523Y-118405771D02*
X168586904Y-118215295D01*
X168586904Y-118215295D02*
X168539285Y-118120057D01*
X168539285Y-118120057D02*
X168491666Y-118072438D01*
X168491666Y-118072438D02*
X168396428Y-118024819D01*
X154067857Y-113684819D02*
X154401190Y-113208628D01*
X154639285Y-113684819D02*
X154639285Y-112684819D01*
X154639285Y-112684819D02*
X154258333Y-112684819D01*
X154258333Y-112684819D02*
X154163095Y-112732438D01*
X154163095Y-112732438D02*
X154115476Y-112780057D01*
X154115476Y-112780057D02*
X154067857Y-112875295D01*
X154067857Y-112875295D02*
X154067857Y-113018152D01*
X154067857Y-113018152D02*
X154115476Y-113113390D01*
X154115476Y-113113390D02*
X154163095Y-113161009D01*
X154163095Y-113161009D02*
X154258333Y-113208628D01*
X154258333Y-113208628D02*
X154639285Y-113208628D01*
X153115476Y-113684819D02*
X153686904Y-113684819D01*
X153401190Y-113684819D02*
X153401190Y-112684819D01*
X153401190Y-112684819D02*
X153496428Y-112827676D01*
X153496428Y-112827676D02*
X153591666Y-112922914D01*
X153591666Y-112922914D02*
X153686904Y-112970533D01*
X152734523Y-112780057D02*
X152686904Y-112732438D01*
X152686904Y-112732438D02*
X152591666Y-112684819D01*
X152591666Y-112684819D02*
X152353571Y-112684819D01*
X152353571Y-112684819D02*
X152258333Y-112732438D01*
X152258333Y-112732438D02*
X152210714Y-112780057D01*
X152210714Y-112780057D02*
X152163095Y-112875295D01*
X152163095Y-112875295D02*
X152163095Y-112970533D01*
X152163095Y-112970533D02*
X152210714Y-113113390D01*
X152210714Y-113113390D02*
X152782142Y-113684819D01*
X152782142Y-113684819D02*
X152163095Y-113684819D01*
X169967857Y-121099819D02*
X170301190Y-120623628D01*
X170539285Y-121099819D02*
X170539285Y-120099819D01*
X170539285Y-120099819D02*
X170158333Y-120099819D01*
X170158333Y-120099819D02*
X170063095Y-120147438D01*
X170063095Y-120147438D02*
X170015476Y-120195057D01*
X170015476Y-120195057D02*
X169967857Y-120290295D01*
X169967857Y-120290295D02*
X169967857Y-120433152D01*
X169967857Y-120433152D02*
X170015476Y-120528390D01*
X170015476Y-120528390D02*
X170063095Y-120576009D01*
X170063095Y-120576009D02*
X170158333Y-120623628D01*
X170158333Y-120623628D02*
X170539285Y-120623628D01*
X169586904Y-120195057D02*
X169539285Y-120147438D01*
X169539285Y-120147438D02*
X169444047Y-120099819D01*
X169444047Y-120099819D02*
X169205952Y-120099819D01*
X169205952Y-120099819D02*
X169110714Y-120147438D01*
X169110714Y-120147438D02*
X169063095Y-120195057D01*
X169063095Y-120195057D02*
X169015476Y-120290295D01*
X169015476Y-120290295D02*
X169015476Y-120385533D01*
X169015476Y-120385533D02*
X169063095Y-120528390D01*
X169063095Y-120528390D02*
X169634523Y-121099819D01*
X169634523Y-121099819D02*
X169015476Y-121099819D01*
X168063095Y-121099819D02*
X168634523Y-121099819D01*
X168348809Y-121099819D02*
X168348809Y-120099819D01*
X168348809Y-120099819D02*
X168444047Y-120242676D01*
X168444047Y-120242676D02*
X168539285Y-120337914D01*
X168539285Y-120337914D02*
X168634523Y-120385533D01*
X172854819Y-114038095D02*
X173664342Y-114038095D01*
X173664342Y-114038095D02*
X173759580Y-114085714D01*
X173759580Y-114085714D02*
X173807200Y-114133333D01*
X173807200Y-114133333D02*
X173854819Y-114228571D01*
X173854819Y-114228571D02*
X173854819Y-114419047D01*
X173854819Y-114419047D02*
X173807200Y-114514285D01*
X173807200Y-114514285D02*
X173759580Y-114561904D01*
X173759580Y-114561904D02*
X173664342Y-114609523D01*
X173664342Y-114609523D02*
X172854819Y-114609523D01*
X172854819Y-115561904D02*
X172854819Y-115085714D01*
X172854819Y-115085714D02*
X173331009Y-115038095D01*
X173331009Y-115038095D02*
X173283390Y-115085714D01*
X173283390Y-115085714D02*
X173235771Y-115180952D01*
X173235771Y-115180952D02*
X173235771Y-115419047D01*
X173235771Y-115419047D02*
X173283390Y-115514285D01*
X173283390Y-115514285D02*
X173331009Y-115561904D01*
X173331009Y-115561904D02*
X173426247Y-115609523D01*
X173426247Y-115609523D02*
X173664342Y-115609523D01*
X173664342Y-115609523D02*
X173759580Y-115561904D01*
X173759580Y-115561904D02*
X173807200Y-115514285D01*
X173807200Y-115514285D02*
X173854819Y-115419047D01*
X173854819Y-115419047D02*
X173854819Y-115180952D01*
X173854819Y-115180952D02*
X173807200Y-115085714D01*
X173807200Y-115085714D02*
X173759580Y-115038095D01*
X154067857Y-115209819D02*
X154401190Y-114733628D01*
X154639285Y-115209819D02*
X154639285Y-114209819D01*
X154639285Y-114209819D02*
X154258333Y-114209819D01*
X154258333Y-114209819D02*
X154163095Y-114257438D01*
X154163095Y-114257438D02*
X154115476Y-114305057D01*
X154115476Y-114305057D02*
X154067857Y-114400295D01*
X154067857Y-114400295D02*
X154067857Y-114543152D01*
X154067857Y-114543152D02*
X154115476Y-114638390D01*
X154115476Y-114638390D02*
X154163095Y-114686009D01*
X154163095Y-114686009D02*
X154258333Y-114733628D01*
X154258333Y-114733628D02*
X154639285Y-114733628D01*
X153115476Y-115209819D02*
X153686904Y-115209819D01*
X153401190Y-115209819D02*
X153401190Y-114209819D01*
X153401190Y-114209819D02*
X153496428Y-114352676D01*
X153496428Y-114352676D02*
X153591666Y-114447914D01*
X153591666Y-114447914D02*
X153686904Y-114495533D01*
X152163095Y-115209819D02*
X152734523Y-115209819D01*
X152448809Y-115209819D02*
X152448809Y-114209819D01*
X152448809Y-114209819D02*
X152544047Y-114352676D01*
X152544047Y-114352676D02*
X152639285Y-114447914D01*
X152639285Y-114447914D02*
X152734523Y-114495533D01*
X162817857Y-124179580D02*
X162865476Y-124227200D01*
X162865476Y-124227200D02*
X163008333Y-124274819D01*
X163008333Y-124274819D02*
X163103571Y-124274819D01*
X163103571Y-124274819D02*
X163246428Y-124227200D01*
X163246428Y-124227200D02*
X163341666Y-124131961D01*
X163341666Y-124131961D02*
X163389285Y-124036723D01*
X163389285Y-124036723D02*
X163436904Y-123846247D01*
X163436904Y-123846247D02*
X163436904Y-123703390D01*
X163436904Y-123703390D02*
X163389285Y-123512914D01*
X163389285Y-123512914D02*
X163341666Y-123417676D01*
X163341666Y-123417676D02*
X163246428Y-123322438D01*
X163246428Y-123322438D02*
X163103571Y-123274819D01*
X163103571Y-123274819D02*
X163008333Y-123274819D01*
X163008333Y-123274819D02*
X162865476Y-123322438D01*
X162865476Y-123322438D02*
X162817857Y-123370057D01*
X162436904Y-123370057D02*
X162389285Y-123322438D01*
X162389285Y-123322438D02*
X162294047Y-123274819D01*
X162294047Y-123274819D02*
X162055952Y-123274819D01*
X162055952Y-123274819D02*
X161960714Y-123322438D01*
X161960714Y-123322438D02*
X161913095Y-123370057D01*
X161913095Y-123370057D02*
X161865476Y-123465295D01*
X161865476Y-123465295D02*
X161865476Y-123560533D01*
X161865476Y-123560533D02*
X161913095Y-123703390D01*
X161913095Y-123703390D02*
X162484523Y-124274819D01*
X162484523Y-124274819D02*
X161865476Y-124274819D01*
X161008333Y-123608152D02*
X161008333Y-124274819D01*
X161246428Y-123227200D02*
X161484523Y-123941485D01*
X161484523Y-123941485D02*
X160865476Y-123941485D01*
X173217857Y-121909819D02*
X173551190Y-121433628D01*
X173789285Y-121909819D02*
X173789285Y-120909819D01*
X173789285Y-120909819D02*
X173408333Y-120909819D01*
X173408333Y-120909819D02*
X173313095Y-120957438D01*
X173313095Y-120957438D02*
X173265476Y-121005057D01*
X173265476Y-121005057D02*
X173217857Y-121100295D01*
X173217857Y-121100295D02*
X173217857Y-121243152D01*
X173217857Y-121243152D02*
X173265476Y-121338390D01*
X173265476Y-121338390D02*
X173313095Y-121386009D01*
X173313095Y-121386009D02*
X173408333Y-121433628D01*
X173408333Y-121433628D02*
X173789285Y-121433628D01*
X172836904Y-121005057D02*
X172789285Y-120957438D01*
X172789285Y-120957438D02*
X172694047Y-120909819D01*
X172694047Y-120909819D02*
X172455952Y-120909819D01*
X172455952Y-120909819D02*
X172360714Y-120957438D01*
X172360714Y-120957438D02*
X172313095Y-121005057D01*
X172313095Y-121005057D02*
X172265476Y-121100295D01*
X172265476Y-121100295D02*
X172265476Y-121195533D01*
X172265476Y-121195533D02*
X172313095Y-121338390D01*
X172313095Y-121338390D02*
X172884523Y-121909819D01*
X172884523Y-121909819D02*
X172265476Y-121909819D01*
X171932142Y-120909819D02*
X171313095Y-120909819D01*
X171313095Y-120909819D02*
X171646428Y-121290771D01*
X171646428Y-121290771D02*
X171503571Y-121290771D01*
X171503571Y-121290771D02*
X171408333Y-121338390D01*
X171408333Y-121338390D02*
X171360714Y-121386009D01*
X171360714Y-121386009D02*
X171313095Y-121481247D01*
X171313095Y-121481247D02*
X171313095Y-121719342D01*
X171313095Y-121719342D02*
X171360714Y-121814580D01*
X171360714Y-121814580D02*
X171408333Y-121862200D01*
X171408333Y-121862200D02*
X171503571Y-121909819D01*
X171503571Y-121909819D02*
X171789285Y-121909819D01*
X171789285Y-121909819D02*
X171884523Y-121862200D01*
X171884523Y-121862200D02*
X171932142Y-121814580D01*
X174604819Y-131938095D02*
X175414342Y-131938095D01*
X175414342Y-131938095D02*
X175509580Y-131985714D01*
X175509580Y-131985714D02*
X175557200Y-132033333D01*
X175557200Y-132033333D02*
X175604819Y-132128571D01*
X175604819Y-132128571D02*
X175604819Y-132319047D01*
X175604819Y-132319047D02*
X175557200Y-132414285D01*
X175557200Y-132414285D02*
X175509580Y-132461904D01*
X175509580Y-132461904D02*
X175414342Y-132509523D01*
X175414342Y-132509523D02*
X174604819Y-132509523D01*
X174700057Y-132938095D02*
X174652438Y-132985714D01*
X174652438Y-132985714D02*
X174604819Y-133080952D01*
X174604819Y-133080952D02*
X174604819Y-133319047D01*
X174604819Y-133319047D02*
X174652438Y-133414285D01*
X174652438Y-133414285D02*
X174700057Y-133461904D01*
X174700057Y-133461904D02*
X174795295Y-133509523D01*
X174795295Y-133509523D02*
X174890533Y-133509523D01*
X174890533Y-133509523D02*
X175033390Y-133461904D01*
X175033390Y-133461904D02*
X175604819Y-132890476D01*
X175604819Y-132890476D02*
X175604819Y-133509523D01*
X148129580Y-113483333D02*
X148177200Y-113435714D01*
X148177200Y-113435714D02*
X148224819Y-113292857D01*
X148224819Y-113292857D02*
X148224819Y-113197619D01*
X148224819Y-113197619D02*
X148177200Y-113054762D01*
X148177200Y-113054762D02*
X148081961Y-112959524D01*
X148081961Y-112959524D02*
X147986723Y-112911905D01*
X147986723Y-112911905D02*
X147796247Y-112864286D01*
X147796247Y-112864286D02*
X147653390Y-112864286D01*
X147653390Y-112864286D02*
X147462914Y-112911905D01*
X147462914Y-112911905D02*
X147367676Y-112959524D01*
X147367676Y-112959524D02*
X147272438Y-113054762D01*
X147272438Y-113054762D02*
X147224819Y-113197619D01*
X147224819Y-113197619D02*
X147224819Y-113292857D01*
X147224819Y-113292857D02*
X147272438Y-113435714D01*
X147272438Y-113435714D02*
X147320057Y-113483333D01*
X147558152Y-114340476D02*
X148224819Y-114340476D01*
X147177200Y-114102381D02*
X147891485Y-113864286D01*
X147891485Y-113864286D02*
X147891485Y-114483333D01*
X158276190Y-138678628D02*
X158276190Y-139154819D01*
X158609523Y-138154819D02*
X158276190Y-138678628D01*
X158276190Y-138678628D02*
X157942857Y-138154819D01*
X157704761Y-138154819D02*
X157085714Y-138154819D01*
X157085714Y-138154819D02*
X157419047Y-138535771D01*
X157419047Y-138535771D02*
X157276190Y-138535771D01*
X157276190Y-138535771D02*
X157180952Y-138583390D01*
X157180952Y-138583390D02*
X157133333Y-138631009D01*
X157133333Y-138631009D02*
X157085714Y-138726247D01*
X157085714Y-138726247D02*
X157085714Y-138964342D01*
X157085714Y-138964342D02*
X157133333Y-139059580D01*
X157133333Y-139059580D02*
X157180952Y-139107200D01*
X157180952Y-139107200D02*
X157276190Y-139154819D01*
X157276190Y-139154819D02*
X157561904Y-139154819D01*
X157561904Y-139154819D02*
X157657142Y-139107200D01*
X157657142Y-139107200D02*
X157704761Y-139059580D01*
X154189580Y-117933333D02*
X154237200Y-117885714D01*
X154237200Y-117885714D02*
X154284819Y-117742857D01*
X154284819Y-117742857D02*
X154284819Y-117647619D01*
X154284819Y-117647619D02*
X154237200Y-117504762D01*
X154237200Y-117504762D02*
X154141961Y-117409524D01*
X154141961Y-117409524D02*
X154046723Y-117361905D01*
X154046723Y-117361905D02*
X153856247Y-117314286D01*
X153856247Y-117314286D02*
X153713390Y-117314286D01*
X153713390Y-117314286D02*
X153522914Y-117361905D01*
X153522914Y-117361905D02*
X153427676Y-117409524D01*
X153427676Y-117409524D02*
X153332438Y-117504762D01*
X153332438Y-117504762D02*
X153284819Y-117647619D01*
X153284819Y-117647619D02*
X153284819Y-117742857D01*
X153284819Y-117742857D02*
X153332438Y-117885714D01*
X153332438Y-117885714D02*
X153380057Y-117933333D01*
X154284819Y-118885714D02*
X154284819Y-118314286D01*
X154284819Y-118600000D02*
X153284819Y-118600000D01*
X153284819Y-118600000D02*
X153427676Y-118504762D01*
X153427676Y-118504762D02*
X153522914Y-118409524D01*
X153522914Y-118409524D02*
X153570533Y-118314286D01*
X173217857Y-123959819D02*
X173551190Y-123483628D01*
X173789285Y-123959819D02*
X173789285Y-122959819D01*
X173789285Y-122959819D02*
X173408333Y-122959819D01*
X173408333Y-122959819D02*
X173313095Y-123007438D01*
X173313095Y-123007438D02*
X173265476Y-123055057D01*
X173265476Y-123055057D02*
X173217857Y-123150295D01*
X173217857Y-123150295D02*
X173217857Y-123293152D01*
X173217857Y-123293152D02*
X173265476Y-123388390D01*
X173265476Y-123388390D02*
X173313095Y-123436009D01*
X173313095Y-123436009D02*
X173408333Y-123483628D01*
X173408333Y-123483628D02*
X173789285Y-123483628D01*
X172836904Y-123055057D02*
X172789285Y-123007438D01*
X172789285Y-123007438D02*
X172694047Y-122959819D01*
X172694047Y-122959819D02*
X172455952Y-122959819D01*
X172455952Y-122959819D02*
X172360714Y-123007438D01*
X172360714Y-123007438D02*
X172313095Y-123055057D01*
X172313095Y-123055057D02*
X172265476Y-123150295D01*
X172265476Y-123150295D02*
X172265476Y-123245533D01*
X172265476Y-123245533D02*
X172313095Y-123388390D01*
X172313095Y-123388390D02*
X172884523Y-123959819D01*
X172884523Y-123959819D02*
X172265476Y-123959819D01*
X171884523Y-123055057D02*
X171836904Y-123007438D01*
X171836904Y-123007438D02*
X171741666Y-122959819D01*
X171741666Y-122959819D02*
X171503571Y-122959819D01*
X171503571Y-122959819D02*
X171408333Y-123007438D01*
X171408333Y-123007438D02*
X171360714Y-123055057D01*
X171360714Y-123055057D02*
X171313095Y-123150295D01*
X171313095Y-123150295D02*
X171313095Y-123245533D01*
X171313095Y-123245533D02*
X171360714Y-123388390D01*
X171360714Y-123388390D02*
X171932142Y-123959819D01*
X171932142Y-123959819D02*
X171313095Y-123959819D01*
X186862857Y-141704580D02*
X186910476Y-141752200D01*
X186910476Y-141752200D02*
X187053333Y-141799819D01*
X187053333Y-141799819D02*
X187148571Y-141799819D01*
X187148571Y-141799819D02*
X187291428Y-141752200D01*
X187291428Y-141752200D02*
X187386666Y-141656961D01*
X187386666Y-141656961D02*
X187434285Y-141561723D01*
X187434285Y-141561723D02*
X187481904Y-141371247D01*
X187481904Y-141371247D02*
X187481904Y-141228390D01*
X187481904Y-141228390D02*
X187434285Y-141037914D01*
X187434285Y-141037914D02*
X187386666Y-140942676D01*
X187386666Y-140942676D02*
X187291428Y-140847438D01*
X187291428Y-140847438D02*
X187148571Y-140799819D01*
X187148571Y-140799819D02*
X187053333Y-140799819D01*
X187053333Y-140799819D02*
X186910476Y-140847438D01*
X186910476Y-140847438D02*
X186862857Y-140895057D01*
X186481904Y-140895057D02*
X186434285Y-140847438D01*
X186434285Y-140847438D02*
X186339047Y-140799819D01*
X186339047Y-140799819D02*
X186100952Y-140799819D01*
X186100952Y-140799819D02*
X186005714Y-140847438D01*
X186005714Y-140847438D02*
X185958095Y-140895057D01*
X185958095Y-140895057D02*
X185910476Y-140990295D01*
X185910476Y-140990295D02*
X185910476Y-141085533D01*
X185910476Y-141085533D02*
X185958095Y-141228390D01*
X185958095Y-141228390D02*
X186529523Y-141799819D01*
X186529523Y-141799819D02*
X185910476Y-141799819D01*
X185577142Y-140799819D02*
X184910476Y-140799819D01*
X184910476Y-140799819D02*
X185339047Y-141799819D01*
X166703628Y-120473809D02*
X167179819Y-120473809D01*
X166179819Y-120140476D02*
X166703628Y-120473809D01*
X166703628Y-120473809D02*
X166179819Y-120807142D01*
X167179819Y-121664285D02*
X167179819Y-121092857D01*
X167179819Y-121378571D02*
X166179819Y-121378571D01*
X166179819Y-121378571D02*
X166322676Y-121283333D01*
X166322676Y-121283333D02*
X166417914Y-121188095D01*
X166417914Y-121188095D02*
X166465533Y-121092857D01*
X161666666Y-138084819D02*
X161999999Y-137608628D01*
X162238094Y-138084819D02*
X162238094Y-137084819D01*
X162238094Y-137084819D02*
X161857142Y-137084819D01*
X161857142Y-137084819D02*
X161761904Y-137132438D01*
X161761904Y-137132438D02*
X161714285Y-137180057D01*
X161714285Y-137180057D02*
X161666666Y-137275295D01*
X161666666Y-137275295D02*
X161666666Y-137418152D01*
X161666666Y-137418152D02*
X161714285Y-137513390D01*
X161714285Y-137513390D02*
X161761904Y-137561009D01*
X161761904Y-137561009D02*
X161857142Y-137608628D01*
X161857142Y-137608628D02*
X162238094Y-137608628D01*
X161190475Y-138084819D02*
X160999999Y-138084819D01*
X160999999Y-138084819D02*
X160904761Y-138037200D01*
X160904761Y-138037200D02*
X160857142Y-137989580D01*
X160857142Y-137989580D02*
X160761904Y-137846723D01*
X160761904Y-137846723D02*
X160714285Y-137656247D01*
X160714285Y-137656247D02*
X160714285Y-137275295D01*
X160714285Y-137275295D02*
X160761904Y-137180057D01*
X160761904Y-137180057D02*
X160809523Y-137132438D01*
X160809523Y-137132438D02*
X160904761Y-137084819D01*
X160904761Y-137084819D02*
X161095237Y-137084819D01*
X161095237Y-137084819D02*
X161190475Y-137132438D01*
X161190475Y-137132438D02*
X161238094Y-137180057D01*
X161238094Y-137180057D02*
X161285713Y-137275295D01*
X161285713Y-137275295D02*
X161285713Y-137513390D01*
X161285713Y-137513390D02*
X161238094Y-137608628D01*
X161238094Y-137608628D02*
X161190475Y-137656247D01*
X161190475Y-137656247D02*
X161095237Y-137703866D01*
X161095237Y-137703866D02*
X160904761Y-137703866D01*
X160904761Y-137703866D02*
X160809523Y-137656247D01*
X160809523Y-137656247D02*
X160761904Y-137608628D01*
X160761904Y-137608628D02*
X160714285Y-137513390D01*
X167966666Y-113829580D02*
X168014285Y-113877200D01*
X168014285Y-113877200D02*
X168157142Y-113924819D01*
X168157142Y-113924819D02*
X168252380Y-113924819D01*
X168252380Y-113924819D02*
X168395237Y-113877200D01*
X168395237Y-113877200D02*
X168490475Y-113781961D01*
X168490475Y-113781961D02*
X168538094Y-113686723D01*
X168538094Y-113686723D02*
X168585713Y-113496247D01*
X168585713Y-113496247D02*
X168585713Y-113353390D01*
X168585713Y-113353390D02*
X168538094Y-113162914D01*
X168538094Y-113162914D02*
X168490475Y-113067676D01*
X168490475Y-113067676D02*
X168395237Y-112972438D01*
X168395237Y-112972438D02*
X168252380Y-112924819D01*
X168252380Y-112924819D02*
X168157142Y-112924819D01*
X168157142Y-112924819D02*
X168014285Y-112972438D01*
X168014285Y-112972438D02*
X167966666Y-113020057D01*
X167109523Y-112924819D02*
X167299999Y-112924819D01*
X167299999Y-112924819D02*
X167395237Y-112972438D01*
X167395237Y-112972438D02*
X167442856Y-113020057D01*
X167442856Y-113020057D02*
X167538094Y-113162914D01*
X167538094Y-113162914D02*
X167585713Y-113353390D01*
X167585713Y-113353390D02*
X167585713Y-113734342D01*
X167585713Y-113734342D02*
X167538094Y-113829580D01*
X167538094Y-113829580D02*
X167490475Y-113877200D01*
X167490475Y-113877200D02*
X167395237Y-113924819D01*
X167395237Y-113924819D02*
X167204761Y-113924819D01*
X167204761Y-113924819D02*
X167109523Y-113877200D01*
X167109523Y-113877200D02*
X167061904Y-113829580D01*
X167061904Y-113829580D02*
X167014285Y-113734342D01*
X167014285Y-113734342D02*
X167014285Y-113496247D01*
X167014285Y-113496247D02*
X167061904Y-113401009D01*
X167061904Y-113401009D02*
X167109523Y-113353390D01*
X167109523Y-113353390D02*
X167204761Y-113305771D01*
X167204761Y-113305771D02*
X167395237Y-113305771D01*
X167395237Y-113305771D02*
X167490475Y-113353390D01*
X167490475Y-113353390D02*
X167538094Y-113401009D01*
X167538094Y-113401009D02*
X167585713Y-113496247D01*
X172038094Y-120554819D02*
X172038094Y-119554819D01*
X172038094Y-119554819D02*
X171799999Y-119554819D01*
X171799999Y-119554819D02*
X171657142Y-119602438D01*
X171657142Y-119602438D02*
X171561904Y-119697676D01*
X171561904Y-119697676D02*
X171514285Y-119792914D01*
X171514285Y-119792914D02*
X171466666Y-119983390D01*
X171466666Y-119983390D02*
X171466666Y-120126247D01*
X171466666Y-120126247D02*
X171514285Y-120316723D01*
X171514285Y-120316723D02*
X171561904Y-120411961D01*
X171561904Y-120411961D02*
X171657142Y-120507200D01*
X171657142Y-120507200D02*
X171799999Y-120554819D01*
X171799999Y-120554819D02*
X172038094Y-120554819D01*
X170609523Y-119554819D02*
X170799999Y-119554819D01*
X170799999Y-119554819D02*
X170895237Y-119602438D01*
X170895237Y-119602438D02*
X170942856Y-119650057D01*
X170942856Y-119650057D02*
X171038094Y-119792914D01*
X171038094Y-119792914D02*
X171085713Y-119983390D01*
X171085713Y-119983390D02*
X171085713Y-120364342D01*
X171085713Y-120364342D02*
X171038094Y-120459580D01*
X171038094Y-120459580D02*
X170990475Y-120507200D01*
X170990475Y-120507200D02*
X170895237Y-120554819D01*
X170895237Y-120554819D02*
X170704761Y-120554819D01*
X170704761Y-120554819D02*
X170609523Y-120507200D01*
X170609523Y-120507200D02*
X170561904Y-120459580D01*
X170561904Y-120459580D02*
X170514285Y-120364342D01*
X170514285Y-120364342D02*
X170514285Y-120126247D01*
X170514285Y-120126247D02*
X170561904Y-120031009D01*
X170561904Y-120031009D02*
X170609523Y-119983390D01*
X170609523Y-119983390D02*
X170704761Y-119935771D01*
X170704761Y-119935771D02*
X170895237Y-119935771D01*
X170895237Y-119935771D02*
X170990475Y-119983390D01*
X170990475Y-119983390D02*
X171038094Y-120031009D01*
X171038094Y-120031009D02*
X171085713Y-120126247D01*
D11*
X154690000Y-114290000D02*
X154690000Y-114565000D01*
X154690000Y-121235000D02*
X154690000Y-121510000D01*
X154690000Y-121510000D02*
X154965000Y-121510000D01*
X154965000Y-114290000D02*
X154690000Y-114290000D01*
X161635000Y-121510000D02*
X161910000Y-121510000D01*
X161910000Y-114290000D02*
X161635000Y-114290000D01*
X161910000Y-114565000D02*
X161910000Y-114290000D01*
X161910000Y-121510000D02*
X161910000Y-121235000D01*
X162550000Y-114560000D02*
X162210000Y-114090000D01*
X162890000Y-114090000D01*
X162550000Y-114560000D01*
G36*
X162550000Y-114560000D02*
G01*
X162210000Y-114090000D01*
X162890000Y-114090000D01*
X162550000Y-114560000D01*
G37*
X174059420Y-113190000D02*
X174340580Y-113190000D01*
X174059420Y-114210000D02*
X174340580Y-114210000D01*
X153690000Y-127940000D02*
X153690000Y-133460000D01*
X153690000Y-133460000D02*
X154215000Y-133460000D01*
X154215000Y-127940000D02*
X153690000Y-127940000D01*
X163585000Y-133460000D02*
X164110000Y-133460000D01*
X164110000Y-127940000D02*
X163585000Y-127940000D01*
X164110000Y-133460000D02*
X164110000Y-127940000D01*
X164060000Y-134540000D02*
X163590000Y-134200000D01*
X164060000Y-133860000D01*
X164060000Y-134540000D01*
G36*
X164060000Y-134540000D02*
G01*
X163590000Y-134200000D01*
X164060000Y-133860000D01*
X164060000Y-134540000D01*
G37*
X169562258Y-119477500D02*
X169087742Y-119477500D01*
X169562258Y-120522500D02*
X169087742Y-120522500D01*
X153187742Y-111277500D02*
X153662258Y-111277500D01*
X153187742Y-112322500D02*
X153662258Y-112322500D01*
X169562258Y-121552500D02*
X169087742Y-121552500D01*
X169562258Y-122597500D02*
X169087742Y-122597500D01*
X169440000Y-113890000D02*
X169440000Y-115710000D01*
X169440000Y-115710000D02*
X169490000Y-115710000D01*
X169490000Y-113890000D02*
X169440000Y-113890000D01*
X171390000Y-113890000D02*
X170610000Y-113890000D01*
X172510000Y-115710000D02*
X172560000Y-115710000D01*
X172560000Y-113890000D02*
X172510000Y-113890000D01*
X172560000Y-115710000D02*
X172560000Y-113890000D01*
X172840000Y-116490000D02*
X172510000Y-116250000D01*
X172840000Y-116010000D01*
X172840000Y-116490000D01*
G36*
X172840000Y-116490000D02*
G01*
X172510000Y-116250000D01*
X172840000Y-116010000D01*
X172840000Y-116490000D01*
G37*
X153187742Y-112802500D02*
X153662258Y-112802500D01*
X153187742Y-113847500D02*
X153662258Y-113847500D01*
X162315580Y-124740000D02*
X162034420Y-124740000D01*
X162315580Y-125760000D02*
X162034420Y-125760000D01*
X172337742Y-119502500D02*
X172812258Y-119502500D01*
X172337742Y-120547500D02*
X172812258Y-120547500D01*
D10*
X165250000Y-126800000D02*
X165250000Y-138600000D01*
X165250000Y-138600000D02*
X173950000Y-138600000D01*
X171950000Y-126800000D02*
X165250000Y-126800000D01*
X173950000Y-128700000D02*
X173950000Y-138600000D01*
D11*
X148690000Y-113509420D02*
X148690000Y-113790580D01*
X149710000Y-113509420D02*
X149710000Y-113790580D01*
X155800000Y-135900000D02*
X155800000Y-135500000D01*
X155800000Y-137900000D02*
X155800000Y-135900000D01*
X156000000Y-135900000D02*
X156000000Y-135500000D01*
X156000000Y-135900000D02*
X156000000Y-137900000D01*
X156000000Y-137900000D02*
X157000000Y-137900000D01*
X157000000Y-135500000D02*
X156000000Y-135500000D01*
X157000000Y-135500000D02*
X157000000Y-135100000D01*
X158800000Y-137900000D02*
X159600000Y-137900000D01*
X159600000Y-135500000D02*
X158800000Y-135500000D01*
X159600000Y-135900000D02*
X159600000Y-135500000D01*
X159600000Y-137900000D02*
X159600000Y-135900000D01*
X151890000Y-118240580D02*
X151890000Y-117959420D01*
X152910000Y-118240580D02*
X152910000Y-117959420D01*
X172337742Y-121552500D02*
X172812258Y-121552500D01*
X172337742Y-122597500D02*
X172812258Y-122597500D01*
X186079420Y-139405000D02*
X186360580Y-139405000D01*
X186079420Y-140425000D02*
X186360580Y-140425000D01*
X163525000Y-119150000D02*
X163525000Y-119950000D01*
X163525000Y-121750000D02*
X163125000Y-121750000D01*
X163525000Y-121750000D02*
X163525000Y-122750000D01*
X163925000Y-119150000D02*
X163525000Y-119150000D01*
X163925000Y-122750000D02*
X163525000Y-122750000D01*
X163925000Y-122750000D02*
X165925000Y-122750000D01*
X163925000Y-122950000D02*
X163525000Y-122950000D01*
X165925000Y-119150000D02*
X163925000Y-119150000D01*
X165925000Y-119950000D02*
X165925000Y-119150000D01*
X165925000Y-122750000D02*
X165925000Y-121750000D01*
X165925000Y-122950000D02*
X163925000Y-122950000D01*
X161262742Y-135677500D02*
X161737258Y-135677500D01*
X161262742Y-136722500D02*
X161737258Y-136722500D01*
X167940580Y-114390000D02*
X167659420Y-114390000D01*
X167940580Y-115410000D02*
X167659420Y-115410000D01*
X168940000Y-117100000D02*
X172950000Y-117100000D01*
X168940000Y-119100000D02*
X168940000Y-117100000D01*
X168940000Y-119100000D02*
X172950000Y-119100000D01*
%LPC*%
D12*
X180500000Y-141700000D03*
X145890000Y-141320000D03*
X145890000Y-141320000D03*
D13*
X177300000Y-146400000D03*
D12*
X145900000Y-139720000D03*
D13*
X143280000Y-140490000D03*
D14*
X135095000Y-129025000D03*
D15*
X137635000Y-129025000D03*
X140175000Y-129025000D03*
X142715000Y-129025000D03*
D13*
X149200000Y-146400000D03*
D12*
X180490000Y-142500000D03*
X180500000Y-141700000D03*
X145900000Y-140520000D03*
D14*
X182585000Y-137000000D03*
D15*
X185125000Y-137000000D03*
X187665000Y-137000000D03*
X190205000Y-137000000D03*
D16*
X155500000Y-143100000D03*
X167500000Y-143100000D03*
D17*
X164050000Y-138260000D03*
D18*
X163030000Y-140800000D03*
X162010000Y-138260000D03*
X160990000Y-140800000D03*
X159970000Y-138260000D03*
X158950000Y-140800000D03*
D12*
X145900000Y-139720000D03*
X180500000Y-140900000D03*
D14*
X163200000Y-111175000D03*
D15*
X165740000Y-111175000D03*
X168280000Y-111175000D03*
X170820000Y-111175000D03*
D19*
X167295000Y-116990000D03*
D20*
X167295000Y-119530000D03*
X167295000Y-122070000D03*
X167295000Y-124610000D03*
X174915000Y-124610000D03*
X174915000Y-122070000D03*
X174915000Y-119530000D03*
X174915000Y-116990000D03*
D12*
X145900000Y-140520000D03*
D21*
X190095000Y-140240000D03*
X182795000Y-144540000D03*
X182795000Y-140240000D03*
D13*
X134980000Y-140490000D03*
D22*
X178037000Y-111910000D03*
X178037000Y-114450000D03*
X178037000Y-116990000D03*
X178037000Y-119530000D03*
X178037000Y-122070000D03*
X178037000Y-124610000D03*
D14*
X176625000Y-129500000D03*
D15*
X176625000Y-132040000D03*
X176625000Y-134580000D03*
X176625000Y-137120000D03*
D12*
X180490000Y-142500000D03*
X180500000Y-140900000D03*
D14*
X148700000Y-125385000D03*
D15*
X151240000Y-125385000D03*
X148700000Y-127925000D03*
X151240000Y-127925000D03*
X148700000Y-130465000D03*
X151240000Y-130465000D03*
D23*
X162462500Y-115100000D03*
X162462500Y-115900000D03*
X162462500Y-116700000D03*
X162462500Y-117500000D03*
X162462500Y-118300000D03*
X162462500Y-119100000D03*
X162462500Y-119900000D03*
X162462500Y-120700000D03*
D24*
X161100000Y-122062500D03*
X160300000Y-122062500D03*
X159500000Y-122062500D03*
X158700000Y-122062500D03*
X157900000Y-122062500D03*
X157100000Y-122062500D03*
X156300000Y-122062500D03*
X155500000Y-122062500D03*
D23*
X154137500Y-120700000D03*
X154137500Y-119900000D03*
X154137500Y-119100000D03*
X154137500Y-118300000D03*
X154137500Y-117500000D03*
X154137500Y-116700000D03*
X154137500Y-115900000D03*
X154137500Y-115100000D03*
D24*
X155500000Y-113737500D03*
X156300000Y-113737500D03*
X157100000Y-113737500D03*
X157900000Y-113737500D03*
X158700000Y-113737500D03*
X159500000Y-113737500D03*
X160300000Y-113737500D03*
X161100000Y-113737500D03*
D25*
X173425000Y-113700000D03*
X174975000Y-113700000D03*
D26*
X163125000Y-134200000D03*
X162475000Y-134200000D03*
X161825000Y-134200000D03*
X161175000Y-134200000D03*
X160525000Y-134200000D03*
X159875000Y-134200000D03*
X159225000Y-134200000D03*
X158575000Y-134200000D03*
X157925000Y-134200000D03*
X157275000Y-134200000D03*
X156625000Y-134200000D03*
X155975000Y-134200000D03*
X155325000Y-134200000D03*
X154675000Y-134200000D03*
X154675000Y-127200000D03*
X155325000Y-127200000D03*
X155975000Y-127200000D03*
X156625000Y-127200000D03*
X157275000Y-127200000D03*
X157925000Y-127200000D03*
X158575000Y-127200000D03*
X159225000Y-127200000D03*
X159875000Y-127200000D03*
X160525000Y-127200000D03*
X161175000Y-127200000D03*
X161825000Y-127200000D03*
X162475000Y-127200000D03*
X163125000Y-127200000D03*
D27*
X170150000Y-120000000D03*
X168500000Y-120000000D03*
D28*
X152600000Y-111800000D03*
X154250000Y-111800000D03*
D27*
X170150000Y-122075000D03*
X168500000Y-122075000D03*
D29*
X171950000Y-115937500D03*
X171000000Y-115937500D03*
X170050000Y-115937500D03*
X170050000Y-113662500D03*
X171950000Y-113662500D03*
D28*
X152600000Y-113325000D03*
X154250000Y-113325000D03*
D30*
X162950000Y-125250000D03*
X161400000Y-125250000D03*
D28*
X171750000Y-120025000D03*
X173400000Y-120025000D03*
D31*
X171850000Y-130160000D03*
D32*
X171850000Y-132700000D03*
X171850000Y-135240000D03*
D33*
X149200000Y-112875000D03*
X149200000Y-114425000D03*
D34*
X156600000Y-136700000D03*
X157800000Y-136700000D03*
X159000000Y-136700000D03*
D35*
X152400000Y-118875000D03*
X152400000Y-117325000D03*
D28*
X171750000Y-122075000D03*
X173400000Y-122075000D03*
D25*
X185445000Y-139915000D03*
X186995000Y-139915000D03*
D36*
X164725000Y-122150000D03*
X164725000Y-120950000D03*
X164725000Y-119750000D03*
D28*
X160675000Y-136200000D03*
X162325000Y-136200000D03*
D30*
X168575000Y-114900000D03*
X167025000Y-114900000D03*
D37*
X169650000Y-118100000D03*
X172950000Y-118100000D03*
%LPD*%
M02*
