M48
; DRILL file {KiCad 9.0.6} date 2026-03-10T19:02:17+0900
; FORMAT={-:-/ absolute / metric / decimal}
; #@! TF.CreationDate,2026-03-10T19:02:17+09:00
; #@! TF.GenerationSoftware,Kicad,Pcbnew,9.0.6
; #@! TF.FileFunction,NonPlated,1,2,NPTH
FMAT,2
METRIC
; #@! TA.AperFunction,NonPlated,NPTH,ComponentDrill
T1C0.500
; #@! TA.AperFunction,NonPlated,NPTH,ComponentDrill
T2C0.730
; #@! TA.AperFunction,NonPlated,NPTH,ComponentDrill
T3C2.200
; #@! TA.AperFunction,NonPlated,NPTH,ComponentDrill
T4C2.300
%
G90
G05
T1
X145.89Y-141.32
X145.89Y-141.32
X145.9Y-139.72
X145.9Y-139.72
X145.9Y-140.52
X145.9Y-140.52
X180.49Y-142.5
X180.49Y-142.5
X180.5Y-140.9
X180.5Y-140.9
X180.5Y-141.7
X180.5Y-141.7
T2
X182.795Y-140.24
X182.795Y-144.54
X190.095Y-140.24
T3
X134.98Y-140.49
X143.28Y-140.49
X149.2Y-146.4
X177.3Y-146.4
T4
X155.5Y-143.1
X167.5Y-143.1
M30
