M48
; DRILL file {KiCad 9.0.6} date 2026-03-10T19:02:17+0900
; FORMAT={-:-/ absolute / metric / decimal}
; #@! TF.CreationDate,2026-03-10T19:02:17+09:00
; #@! TF.GenerationSoftware,Kicad,Pcbnew,9.0.6
; #@! TF.FileFunction,Plated,1,2,PTH
FMAT,2
METRIC
; #@! TA.AperFunction,Plated,PTH,ViaDrill
T1C0.300
; #@! TA.AperFunction,Plated,PTH,ViaDrill
T2C0.400
; #@! TA.AperFunction,Plated,PTH,ViaDrill
T3C0.500
; #@! TA.AperFunction,Plated,PTH,ComponentDrill
T4C0.700
; #@! TA.AperFunction,Plated,PTH,ComponentDrill
T5C0.800
; #@! TA.AperFunction,Plated,PTH,ComponentDrill
T6C0.900
; #@! TA.AperFunction,Plated,PTH,ComponentDrill
T7C1.000
; #@! TA.AperFunction,Plated,PTH,ComponentDrill
T8C1.100
%
G90
G05
T1
X135.37Y-126.65
X142.68Y-126.43
X147.57Y-110.48
X151.9Y-115.47
X152.59Y-123.73
X154.78Y-123.12
X155.325Y-127.2
X156.75Y-120.32
X157.925Y-134.2
X159.525Y-132.4
X162.463Y-116.7
X181.77Y-143.6
X181.83Y-138.99
X182.01Y-141.16
X182.54Y-134.55
X183.245Y-142.39
X190.3Y-134.47
T2
X155.4Y-118.025
X170.85Y-113.9
T3
X136.865Y-137.025
X138.58Y-134.59
X138.68Y-141.09
X141.68Y-130.69
X142.055Y-137.065
X147.62Y-143.16
X147.84Y-134.16
X149.275Y-110.67
X149.8Y-120.6
X150.1Y-116.8
X151.275Y-111.45
X152.13Y-132.62
X152.6Y-117.762
X152.75Y-145.96
X152.87Y-139.7
X152.875Y-119.875
X153.862Y-127.5
X154.25Y-111.8
X154.25Y-113.325
X154.7Y-125.55
X155.0Y-131.0
X155.4Y-119.575
X156.3Y-123.8
X156.3Y-146.6
X156.475Y-129.5
X156.6Y-136.7
X157.875Y-132.4
X158.225Y-115.0
X158.375Y-123.7
X159.0Y-143.6
X159.5Y-130.85
X159.688Y-120.5
X160.2Y-111.0
X160.675Y-136.2
X160.8Y-115.3
X161.2Y-117.125
X161.2Y-118.675
X161.4Y-125.25
X162.7Y-146.3
X162.825Y-132.35
X162.95Y-125.25
X164.037Y-115.962
X164.375Y-114.124
X164.8Y-124.6
X165.3Y-117.75
X166.6Y-130.5
X166.8Y-134.0
X168.1Y-138.8
X168.7Y-113.5
X170.8Y-141.5
X170.8Y-147.3
X170.9Y-125.9
X172.8Y-112.3
X172.8Y-112.3
X173.675Y-128.7
X173.8Y-143.8
X175.7Y-111.7
X176.2Y-140.8
X179.3Y-137.6
X185.445Y-139.94
X186.445Y-139.94
X190.12Y-144.79
T4
X171.85Y-130.16
X171.85Y-132.7
X171.85Y-135.24
T5
X167.295Y-116.99
X167.295Y-119.53
X167.295Y-122.07
X167.295Y-124.61
X174.915Y-116.99
X174.915Y-119.53
X174.915Y-122.07
X174.915Y-124.61
T6
X158.95Y-140.8
X159.97Y-138.26
X160.99Y-140.8
X162.01Y-138.26
X163.03Y-140.8
X164.05Y-138.26
T7
X135.095Y-129.025
X137.635Y-129.025
X140.175Y-129.025
X142.715Y-129.025
X148.7Y-125.385
X148.7Y-127.925
X148.7Y-130.465
X151.24Y-125.385
X151.24Y-127.925
X151.24Y-130.465
X163.2Y-111.175
X165.74Y-111.175
X168.28Y-111.175
X170.82Y-111.175
X176.625Y-129.5
X176.625Y-132.04
X176.625Y-134.58
X176.625Y-137.12
X182.585Y-137.0
X185.125Y-137.0
X187.665Y-137.0
X190.205Y-137.0
T8
X178.037Y-111.91
X178.037Y-114.45
X178.037Y-116.99
X178.037Y-119.53
X178.037Y-122.07
X178.037Y-124.61
M30
