G04 #@! TF.GenerationSoftware,KiCad,Pcbnew,9.0.6*
G04 #@! TF.CreationDate,2026-03-10T19:02:12+09:00*
G04 #@! TF.ProjectId,PitotBoard2026,5069746f-7442-46f6-9172-64323032362e,rev?*
G04 #@! TF.SameCoordinates,Original*
G04 #@! TF.FileFunction,Copper,L1,Top*
G04 #@! TF.FilePolarity,Positive*
%FSLAX46Y46*%
G04 Gerber Fmt 4.6, Leading zero omitted, Abs format (unit mm)*
G04 Created by KiCad (PCBNEW 9.0.6) date 2026-03-10 19:02:12*
%MOMM*%
%LPD*%
G01*
G04 APERTURE LIST*
G04 Aperture macros list*
%AMRoundRect*
0 Rectangle with rounded corners*
0 $1 Rounding radius*
0 $2 $3 $4 $5 $6 $7 $8 $9 X,Y pos of 4 corners*
0 Add a 4 corners polygon primitive as box body*
4,1,4,$2,$3,$4,$5,$6,$7,$8,$9,$2,$3,0*
0 Add four circle primitives for the rounded corners*
1,1,$1+$1,$2,$3*
1,1,$1+$1,$4,$5*
1,1,$1+$1,$6,$7*
1,1,$1+$1,$8,$9*
0 Add four rect primitives between the rounded corners*
20,1,$1+$1,$2,$3,$4,$5,0*
20,1,$1+$1,$4,$5,$6,$7,0*
20,1,$1+$1,$6,$7,$8,$9,0*
20,1,$1+$1,$8,$9,$2,$3,0*%
G04 Aperture macros list end*
G04 #@! TA.AperFunction,SMDPad,CuDef*
%ADD10RoundRect,0.225000X-0.225000X-0.250000X0.225000X-0.250000X0.225000X0.250000X-0.225000X0.250000X0*%
G04 #@! TD*
G04 #@! TA.AperFunction,SMDPad,CuDef*
%ADD11RoundRect,0.225000X-0.225000X-0.375000X0.225000X-0.375000X0.225000X0.375000X-0.225000X0.375000X0*%
G04 #@! TD*
G04 #@! TA.AperFunction,SMDPad,CuDef*
%ADD12RoundRect,0.200000X0.200000X0.275000X-0.200000X0.275000X-0.200000X-0.275000X0.200000X-0.275000X0*%
G04 #@! TD*
G04 #@! TA.AperFunction,SMDPad,CuDef*
%ADD13RoundRect,0.218750X-0.218750X-0.256250X0.218750X-0.256250X0.218750X0.256250X-0.218750X0.256250X0*%
G04 #@! TD*
G04 #@! TA.AperFunction,SMDPad,CuDef*
%ADD14RoundRect,0.225000X0.250000X-0.225000X0.250000X0.225000X-0.250000X0.225000X-0.250000X-0.225000X0*%
G04 #@! TD*
G04 #@! TA.AperFunction,SMDPad,CuDef*
%ADD15RoundRect,0.225000X-0.250000X0.225000X-0.250000X-0.225000X0.250000X-0.225000X0.250000X0.225000X0*%
G04 #@! TD*
G04 #@! TA.AperFunction,ComponentPad*
%ADD16R,1.700000X1.700000*%
G04 #@! TD*
G04 #@! TA.AperFunction,ComponentPad*
%ADD17C,1.700000*%
G04 #@! TD*
G04 #@! TA.AperFunction,SMDPad,CuDef*
%ADD18RoundRect,0.150000X0.150000X-0.825000X0.150000X0.825000X-0.150000X0.825000X-0.150000X-0.825000X0*%
G04 #@! TD*
G04 #@! TA.AperFunction,SMDPad,CuDef*
%ADD19RoundRect,0.200000X-0.200000X-0.275000X0.200000X-0.275000X0.200000X0.275000X-0.200000X0.275000X0*%
G04 #@! TD*
G04 #@! TA.AperFunction,SMDPad,CuDef*
%ADD20R,0.650000X1.050000*%
G04 #@! TD*
G04 #@! TA.AperFunction,ComponentPad*
%ADD21R,1.520000X1.520000*%
G04 #@! TD*
G04 #@! TA.AperFunction,ComponentPad*
%ADD22C,1.520000*%
G04 #@! TD*
G04 #@! TA.AperFunction,SMDPad,CuDef*
%ADD23RoundRect,0.225000X0.225000X0.250000X-0.225000X0.250000X-0.225000X-0.250000X0.225000X-0.250000X0*%
G04 #@! TD*
G04 #@! TA.AperFunction,ComponentPad*
%ADD24RoundRect,0.250000X-0.550000X-0.550000X0.550000X-0.550000X0.550000X0.550000X-0.550000X0.550000X0*%
G04 #@! TD*
G04 #@! TA.AperFunction,ComponentPad*
%ADD25C,1.600000*%
G04 #@! TD*
G04 #@! TA.AperFunction,SMDPad,CuDef*
%ADD26RoundRect,0.125000X0.625000X0.125000X-0.625000X0.125000X-0.625000X-0.125000X0.625000X-0.125000X0*%
G04 #@! TD*
G04 #@! TA.AperFunction,SMDPad,CuDef*
%ADD27RoundRect,0.125000X0.125000X-0.625000X0.125000X0.625000X-0.125000X0.625000X-0.125000X-0.625000X0*%
G04 #@! TD*
G04 #@! TA.AperFunction,SMDPad,CuDef*
%ADD28RoundRect,0.125000X-0.625000X-0.125000X0.625000X-0.125000X0.625000X0.125000X-0.625000X0.125000X0*%
G04 #@! TD*
G04 #@! TA.AperFunction,SMDPad,CuDef*
%ADD29RoundRect,0.125000X-0.125000X0.625000X-0.125000X-0.625000X0.125000X-0.625000X0.125000X0.625000X0*%
G04 #@! TD*
G04 #@! TA.AperFunction,SMDPad,CuDef*
%ADD30RoundRect,0.225000X0.675000X0.225000X-0.675000X0.225000X-0.675000X-0.225000X0.675000X-0.225000X0*%
G04 #@! TD*
G04 #@! TA.AperFunction,SMDPad,CuDef*
%ADD31RoundRect,0.250000X-0.300000X-1.000000X0.300000X-1.000000X0.300000X1.000000X-0.300000X1.000000X0*%
G04 #@! TD*
G04 #@! TA.AperFunction,ComponentPad*
%ADD32C,1.900000*%
G04 #@! TD*
G04 #@! TA.AperFunction,SMDPad,CuDef*
%ADD33RoundRect,0.225000X-0.375000X0.225000X-0.375000X-0.225000X0.375000X-0.225000X0.375000X0.225000X0*%
G04 #@! TD*
G04 #@! TA.AperFunction,SMDPad,CuDef*
%ADD34RoundRect,0.150000X-0.825000X-0.150000X0.825000X-0.150000X0.825000X0.150000X-0.825000X0.150000X0*%
G04 #@! TD*
G04 #@! TA.AperFunction,SMDPad,CuDef*
%ADD35RoundRect,0.200000X-0.275000X0.200000X-0.275000X-0.200000X0.275000X-0.200000X0.275000X0.200000X0*%
G04 #@! TD*
G04 #@! TA.AperFunction,ComponentPad*
%ADD36R,1.300000X1.300000*%
G04 #@! TD*
G04 #@! TA.AperFunction,ComponentPad*
%ADD37C,1.300000*%
G04 #@! TD*
G04 #@! TA.AperFunction,ViaPad*
%ADD38C,0.700000*%
G04 #@! TD*
G04 #@! TA.AperFunction,ViaPad*
%ADD39C,0.600000*%
G04 #@! TD*
G04 #@! TA.AperFunction,ViaPad*
%ADD40C,0.500000*%
G04 #@! TD*
G04 #@! TA.AperFunction,Conductor*
%ADD41C,0.400000*%
G04 #@! TD*
G04 #@! TA.AperFunction,Conductor*
%ADD42C,0.200000*%
G04 #@! TD*
G04 #@! TA.AperFunction,Conductor*
%ADD43C,0.800000*%
G04 #@! TD*
G04 APERTURE END LIST*
D10*
X168625000Y-133100000D03*
X170175000Y-133100000D03*
D11*
X170550000Y-137250000D03*
X173850000Y-137250000D03*
D12*
X159525000Y-132400000D03*
X157875000Y-132400000D03*
X158225000Y-115000000D03*
X156575000Y-115000000D03*
D13*
X161362500Y-123750000D03*
X162937500Y-123750000D03*
X158112500Y-120500000D03*
X159687500Y-120500000D03*
D14*
X135320000Y-135300000D03*
X135320000Y-133750000D03*
D10*
X172125000Y-128700000D03*
X173675000Y-128700000D03*
D15*
X173000000Y-133125000D03*
X173000000Y-134675000D03*
D16*
X135095000Y-129025000D03*
D17*
X137635000Y-129025000D03*
X140175000Y-129025000D03*
X142715000Y-129025000D03*
D18*
X136865000Y-137025000D03*
X138135000Y-137025000D03*
X139405000Y-137025000D03*
X140675000Y-137025000D03*
X140675000Y-132075000D03*
X139405000Y-132075000D03*
X138135000Y-132075000D03*
X136865000Y-132075000D03*
D10*
X168625000Y-130100000D03*
X170175000Y-130100000D03*
D19*
X158075000Y-119000000D03*
X159725000Y-119000000D03*
D10*
X138595000Y-139050000D03*
X140145000Y-139050000D03*
D15*
X152700000Y-117925000D03*
X152700000Y-119475000D03*
X155400000Y-118025000D03*
X155400000Y-119575000D03*
D12*
X158225000Y-116500000D03*
X156575000Y-116500000D03*
D16*
X182585000Y-137000000D03*
D17*
X185125000Y-137000000D03*
X187665000Y-137000000D03*
X190205000Y-137000000D03*
D20*
X148825000Y-122675000D03*
X148825000Y-118525000D03*
X150975000Y-122675000D03*
X150975000Y-118525000D03*
D21*
X164050000Y-138260000D03*
D22*
X163030000Y-140800000D03*
X162010000Y-138260000D03*
X160990000Y-140800000D03*
X159970000Y-138260000D03*
X158950000Y-140800000D03*
D15*
X159875000Y-123700000D03*
X159875000Y-125250000D03*
D14*
X159700000Y-117475000D03*
X159700000Y-115925000D03*
D23*
X162825000Y-132350000D03*
X161275000Y-132350000D03*
D14*
X161200000Y-118675000D03*
X161200000Y-117125000D03*
D23*
X166675000Y-127000000D03*
X165125000Y-127000000D03*
D16*
X163200000Y-111175000D03*
D17*
X165740000Y-111175000D03*
X168280000Y-111175000D03*
X170820000Y-111175000D03*
D24*
X167295000Y-116990000D03*
D25*
X167295000Y-119530000D03*
X167295000Y-122070000D03*
X167295000Y-124610000D03*
X174915000Y-124610000D03*
X174915000Y-122070000D03*
X174915000Y-119530000D03*
X174915000Y-116990000D03*
D26*
X189645000Y-143390000D03*
X189645000Y-142390000D03*
X189645000Y-141390000D03*
D27*
X188445000Y-139940000D03*
X187445000Y-139940000D03*
X186445000Y-139940000D03*
X185445000Y-139940000D03*
X184445000Y-139940000D03*
D28*
X183245000Y-141390000D03*
X183245000Y-142390000D03*
X183245000Y-143390000D03*
D29*
X184445000Y-144840000D03*
X185445000Y-144840000D03*
X186445000Y-144840000D03*
X187445000Y-144840000D03*
X188445000Y-144840000D03*
D30*
X186445000Y-143240000D03*
X186445000Y-141540000D03*
D31*
X168350000Y-127800000D03*
X170450000Y-127800000D03*
D15*
X158375000Y-123700000D03*
X158375000Y-125250000D03*
D23*
X162950000Y-125250000D03*
X161400000Y-125250000D03*
D32*
X178037000Y-111910000D03*
X178037000Y-114450000D03*
X178037000Y-116990000D03*
X178037000Y-119530000D03*
X178037000Y-122070000D03*
X178037000Y-124610000D03*
D33*
X166350000Y-128800000D03*
X166350000Y-132100000D03*
D34*
X149275000Y-110670000D03*
X149275000Y-111940000D03*
X149275000Y-113210000D03*
X149275000Y-114480000D03*
X154225000Y-114480000D03*
X154225000Y-113210000D03*
X154225000Y-111940000D03*
X154225000Y-110670000D03*
D16*
X176625000Y-129500000D03*
D17*
X176625000Y-132040000D03*
X176625000Y-134580000D03*
X176625000Y-137120000D03*
D10*
X168625000Y-131600000D03*
X170175000Y-131600000D03*
D35*
X152700000Y-120900000D03*
X152700000Y-122550000D03*
D23*
X162825000Y-130850000D03*
X161275000Y-130850000D03*
D16*
X148700000Y-125385000D03*
D17*
X151240000Y-125385000D03*
X148700000Y-127925000D03*
X151240000Y-127925000D03*
X148700000Y-130465000D03*
X151240000Y-130465000D03*
D19*
X156475000Y-129500000D03*
X158125000Y-129500000D03*
D15*
X147200000Y-112425000D03*
X147200000Y-113975000D03*
D36*
X171850000Y-130160000D03*
D37*
X171850000Y-132700000D03*
X171850000Y-135240000D03*
D38*
X152870000Y-139700000D03*
X160200000Y-111000000D03*
X162700000Y-146300000D03*
X170800000Y-147300000D03*
X155000000Y-131000000D03*
X176200000Y-140800000D03*
D39*
X155400000Y-118025000D03*
D38*
X152130000Y-132620000D03*
X159500000Y-130850000D03*
X157875000Y-132400000D03*
X170900000Y-125900000D03*
X160800000Y-115300000D03*
X150100000Y-116800000D03*
X161400000Y-125250000D03*
D39*
X147570000Y-110480000D03*
D38*
X170800000Y-141500000D03*
X172800000Y-112300000D03*
X175700000Y-111700000D03*
X166600000Y-130500000D03*
X172800000Y-112300000D03*
X166800000Y-134000000D03*
X168100000Y-138800000D03*
X152750000Y-145960000D03*
X168700000Y-113500000D03*
X173800000Y-143800000D03*
D39*
X156750000Y-120320000D03*
D38*
X164800000Y-124600000D03*
X147840000Y-134160000D03*
X152600000Y-117762500D03*
X159000000Y-143600000D03*
X149800000Y-120600000D03*
X147620000Y-143160000D03*
X151275000Y-111450000D03*
X179300000Y-137600000D03*
D39*
X154780000Y-123120000D03*
D38*
X173675000Y-128700000D03*
X161200000Y-118675000D03*
D39*
X151900000Y-115470000D03*
D38*
X156300000Y-146600000D03*
D39*
X152590000Y-123730000D03*
D38*
X161200000Y-117125000D03*
X149275000Y-110670000D03*
X155400000Y-119575000D03*
X158375000Y-123700000D03*
X152875000Y-119875000D03*
X164375000Y-114124000D03*
X162825000Y-132350000D03*
D39*
X135370000Y-126650000D03*
D38*
X138680000Y-141090000D03*
X138580000Y-134590000D03*
D39*
X142680000Y-126430000D03*
D38*
X141680000Y-130690000D03*
X142055000Y-137065000D03*
X136865000Y-137025000D03*
X162950000Y-125250000D03*
D39*
X181770000Y-143600000D03*
X182010000Y-141160000D03*
X182540000Y-134550000D03*
D38*
X190120000Y-144790000D03*
X186445000Y-139940000D03*
D39*
X190300000Y-134470000D03*
X183245000Y-142390000D03*
X181830000Y-138990000D03*
D38*
X185445000Y-139940000D03*
X159687500Y-120500000D03*
X160675000Y-136200000D03*
X156300000Y-123800000D03*
X154700000Y-125550000D03*
X153862500Y-127500000D03*
D40*
X155325000Y-127200000D03*
X162462500Y-116700000D03*
D39*
X170850000Y-113900000D03*
D38*
X154250000Y-113325000D03*
X154250000Y-111800000D03*
X158225000Y-115000000D03*
D40*
X159525000Y-132400000D03*
D38*
X156475000Y-129500000D03*
X165300000Y-117750000D03*
X164037500Y-115962500D03*
X156600000Y-136700000D03*
D40*
X157925000Y-134200000D03*
D41*
X154225000Y-110670000D02*
X155199999Y-110670000D01*
X161275000Y-130850000D02*
X161275000Y-132350000D01*
X167295000Y-124610000D02*
X167295000Y-124830000D01*
D42*
X147570000Y-110581968D02*
X147570000Y-110480000D01*
D41*
X155674000Y-127951000D02*
X155674000Y-130199000D01*
X148700000Y-125385000D02*
X148700000Y-122800000D01*
X173675000Y-128700000D02*
X173675000Y-130437000D01*
D43*
X173000000Y-134675000D02*
X172415000Y-134675000D01*
D41*
X159700000Y-118975000D02*
X159725000Y-119000000D01*
X155674000Y-130199000D02*
X157875000Y-132400000D01*
X159700000Y-117475000D02*
X159700000Y-118975000D01*
X159425000Y-130850000D02*
X157875000Y-132400000D01*
D42*
X151275000Y-111450000D02*
X151164000Y-111339000D01*
D41*
X149275000Y-114775000D02*
X148825000Y-115225000D01*
D42*
X151164000Y-111339000D02*
X148327032Y-111339000D01*
D43*
X170175000Y-133100000D02*
X170175000Y-133565000D01*
X170175000Y-133565000D02*
X171850000Y-135240000D01*
D41*
X148825000Y-115225000D02*
X148825000Y-118525000D01*
X147200000Y-113975000D02*
X148770000Y-113975000D01*
X160875000Y-119000000D02*
X161200000Y-118675000D01*
X165125000Y-127000000D02*
X163150000Y-127000000D01*
X173675000Y-130437000D02*
X172512000Y-131600000D01*
X161360000Y-118675000D02*
X161200000Y-118675000D01*
D43*
X172415000Y-134675000D02*
X171850000Y-135240000D01*
D41*
X159700000Y-117475000D02*
X155950000Y-117475000D01*
X158375000Y-125250000D02*
X155674000Y-127951000D01*
X155950000Y-117475000D02*
X155400000Y-118025000D01*
X154325000Y-114580000D02*
X154225000Y-114480000D01*
X167295000Y-124610000D02*
X167585580Y-124610000D01*
X148770000Y-113975000D02*
X149275000Y-114480000D01*
X167295000Y-124830000D02*
X165125000Y-127000000D01*
X149275000Y-114480000D02*
X154225000Y-114480000D01*
X169499000Y-129424000D02*
X170175000Y-130100000D01*
X163150000Y-127000000D02*
X161400000Y-125250000D01*
X159500000Y-130850000D02*
X159425000Y-130850000D01*
X172512000Y-131600000D02*
X170175000Y-131600000D01*
D43*
X170175000Y-131600000D02*
X170175000Y-133100000D01*
D41*
X155770000Y-114580000D02*
X154325000Y-114580000D01*
X159725000Y-119000000D02*
X160875000Y-119000000D01*
X148825000Y-122675000D02*
X148825000Y-118525000D01*
X148700000Y-122800000D02*
X148825000Y-122675000D01*
X161400000Y-125250000D02*
X159875000Y-125250000D01*
X155199999Y-110670000D02*
X155774000Y-111244001D01*
X167585580Y-124610000D02*
X169499000Y-126523420D01*
X169499000Y-126523420D02*
X169499000Y-129424000D01*
X167295000Y-124610000D02*
X161360000Y-118675000D01*
D43*
X170175000Y-130100000D02*
X170175000Y-131600000D01*
D41*
X155774000Y-111244001D02*
X155774000Y-114576000D01*
X161275000Y-130850000D02*
X159500000Y-130850000D01*
X155774000Y-114576000D02*
X155770000Y-114580000D01*
X149275000Y-114480000D02*
X149275000Y-114775000D01*
X159875000Y-125250000D02*
X158375000Y-125250000D01*
D42*
X148327032Y-111339000D02*
X147570000Y-110581968D01*
D41*
X160900000Y-117125000D02*
X159700000Y-115925000D01*
X161200000Y-117125000D02*
X160900000Y-117125000D01*
X158800000Y-115925000D02*
X158225000Y-116500000D01*
X159700000Y-115925000D02*
X158800000Y-115925000D01*
D43*
X166350000Y-128800000D02*
X167350000Y-128800000D01*
X168350000Y-129825000D02*
X168625000Y-130100000D01*
X167475000Y-127800000D02*
X166675000Y-127000000D01*
X168625000Y-130100000D02*
X168625000Y-131600000D01*
X168350000Y-127800000D02*
X167475000Y-127800000D01*
X168625000Y-135325000D02*
X168625000Y-133100000D01*
X168625000Y-131600000D02*
X168625000Y-133100000D01*
X168350000Y-127800000D02*
X168350000Y-129825000D01*
X170550000Y-137250000D02*
X168625000Y-135325000D01*
X167350000Y-128800000D02*
X168350000Y-127800000D01*
D41*
X178875000Y-134870000D02*
X176625000Y-137120000D01*
X157770516Y-114124000D02*
X157376000Y-114518516D01*
X156575000Y-116500000D02*
X155558468Y-116500000D01*
X157376000Y-114518516D02*
X157376000Y-115699000D01*
X174915000Y-124610000D02*
X167295000Y-116990000D01*
X155558468Y-116500000D02*
X154524000Y-117534468D01*
X161312500Y-123700000D02*
X161362500Y-123750000D01*
X158375000Y-123700000D02*
X159875000Y-123700000D01*
D43*
X173099374Y-133125000D02*
X174076000Y-134101626D01*
D41*
X155400000Y-120575000D02*
X155400000Y-119575000D01*
X154524000Y-118699000D02*
X155400000Y-119575000D01*
X158375000Y-123700000D02*
X158375000Y-123550000D01*
D43*
X172275000Y-133125000D02*
X171850000Y-132700000D01*
X173850000Y-137250000D02*
X176495000Y-137250000D01*
X173000000Y-133125000D02*
X172275000Y-133125000D01*
D41*
X175810000Y-124610000D02*
X178875000Y-127675000D01*
X164429000Y-114124000D02*
X164375000Y-114124000D01*
X178875000Y-127675000D02*
X178875000Y-134870000D01*
D43*
X174076000Y-134101626D02*
X174076000Y-137024000D01*
D41*
X159875000Y-123700000D02*
X161312500Y-123700000D01*
X167295000Y-116990000D02*
X164429000Y-114124000D01*
X174915000Y-124610000D02*
X175810000Y-124610000D01*
X157376000Y-115699000D02*
X156575000Y-116500000D01*
X158375000Y-123550000D02*
X155400000Y-120575000D01*
X164375000Y-114124000D02*
X157770516Y-114124000D01*
X152700000Y-120900000D02*
X152700000Y-119475000D01*
D43*
X173000000Y-133125000D02*
X173099374Y-133125000D01*
X174076000Y-137024000D02*
X173850000Y-137250000D01*
D41*
X154524000Y-117534468D02*
X154524000Y-118699000D01*
D43*
X176495000Y-137250000D02*
X176625000Y-137120000D01*
D41*
X149275000Y-111940000D02*
X147685000Y-111940000D01*
X147685000Y-111940000D02*
X147200000Y-112425000D01*
X178037000Y-111910000D02*
X176051000Y-109924000D01*
X166991000Y-109924000D02*
X165740000Y-111175000D01*
X174915000Y-116990000D02*
X178037000Y-116990000D01*
X176051000Y-109924000D02*
X166991000Y-109924000D01*
X162825000Y-130850000D02*
X161475000Y-129500000D01*
X179388000Y-115639000D02*
X179388000Y-113261000D01*
X161475000Y-129500000D02*
X158125000Y-129500000D01*
X178037000Y-116990000D02*
X179388000Y-115639000D01*
X179388000Y-113261000D02*
X178037000Y-111910000D01*
X162825000Y-130850000D02*
X162825000Y-132350000D01*
D43*
X172125000Y-129885000D02*
X171850000Y-130160000D01*
X172125000Y-128700000D02*
X172125000Y-129885000D01*
X170450000Y-127800000D02*
X171225000Y-127800000D01*
X171225000Y-127800000D02*
X172125000Y-128700000D01*
D41*
X136865000Y-132205000D02*
X135320000Y-133750000D01*
X136865000Y-132075000D02*
X136865000Y-132205000D01*
X140675000Y-133049999D02*
X140675000Y-132075000D01*
X136865000Y-132075000D02*
X136865000Y-130795000D01*
X136865000Y-130795000D02*
X135095000Y-129025000D01*
X140675000Y-138520000D02*
X140145000Y-139050000D01*
X139974999Y-133750000D02*
X140675000Y-133049999D01*
X140675000Y-137025000D02*
X140675000Y-138520000D01*
X140675000Y-132075000D02*
X140675000Y-137025000D01*
X135320000Y-133750000D02*
X139974999Y-133750000D01*
X142715000Y-129025000D02*
X142715000Y-136405000D01*
X135320000Y-135480000D02*
X136865000Y-137025000D01*
X135320000Y-135300000D02*
X135320000Y-135480000D01*
X142715000Y-136405000D02*
X142055000Y-137065000D01*
X138135000Y-138590000D02*
X138595000Y-139050000D01*
X138135000Y-137025000D02*
X138135000Y-138590000D01*
X162937500Y-123750000D02*
X162937500Y-125237500D01*
X162937500Y-125237500D02*
X162950000Y-125250000D01*
X186445000Y-141540000D02*
X183395000Y-141540000D01*
D42*
X181321000Y-138481000D02*
X181830000Y-138990000D01*
X181830000Y-138990000D02*
X181830000Y-140980000D01*
D41*
X186445000Y-141540000D02*
X186445000Y-142515000D01*
X186445000Y-138220000D02*
X186445000Y-139940000D01*
X186445000Y-139940000D02*
X186445000Y-141540000D01*
X186320000Y-142390000D02*
X183245000Y-142390000D01*
X189495000Y-141540000D02*
X189645000Y-141390000D01*
X186445000Y-143240000D02*
X189495000Y-143240000D01*
X189495000Y-143240000D02*
X189645000Y-143390000D01*
X186445000Y-142515000D02*
X186445000Y-143240000D01*
D42*
X182240000Y-141390000D02*
X183245000Y-141390000D01*
X181321000Y-135769000D02*
X181321000Y-138481000D01*
D41*
X186445000Y-142515000D02*
X186320000Y-142390000D01*
X189645000Y-142390000D02*
X186570000Y-142390000D01*
X186445000Y-141540000D02*
X189495000Y-141540000D01*
X183395000Y-141540000D02*
X183245000Y-141390000D01*
X186570000Y-142390000D02*
X186445000Y-142515000D01*
X187665000Y-137000000D02*
X186445000Y-138220000D01*
X183395000Y-143240000D02*
X183245000Y-143390000D01*
D42*
X182540000Y-134550000D02*
X181321000Y-135769000D01*
X182010000Y-141160000D02*
X182240000Y-141390000D01*
D41*
X186445000Y-143240000D02*
X183395000Y-143240000D01*
D42*
X181830000Y-140980000D02*
X182010000Y-141160000D01*
D41*
X185445000Y-139940000D02*
X185445000Y-137320000D01*
X185445000Y-137320000D02*
X185125000Y-137000000D01*
D43*
X166130000Y-132100000D02*
X159970000Y-138260000D01*
D42*
X160070000Y-138160000D02*
X159970000Y-138260000D01*
X160085255Y-138160000D02*
X160070000Y-138160000D01*
D43*
X166350000Y-132100000D02*
X166130000Y-132100000D01*
D41*
X158112500Y-120500000D02*
X158112500Y-119037500D01*
X158112500Y-119037500D02*
X158075000Y-119000000D01*
X158809000Y-137666000D02*
X158809000Y-139017098D01*
X160591902Y-140800000D02*
X160990000Y-140800000D01*
X158809000Y-139017098D02*
X160591902Y-140800000D01*
X160990000Y-140700000D02*
X160868098Y-140700000D01*
X160675000Y-136200000D02*
X160275000Y-136200000D01*
X160275000Y-136200000D02*
X158809000Y-137666000D01*
X153764000Y-126636000D02*
X154800000Y-125600000D01*
X154800000Y-125500000D02*
X154800000Y-125600000D01*
X148700000Y-127925000D02*
X149989000Y-126636000D01*
X149989000Y-126636000D02*
X153764000Y-126636000D01*
X156300000Y-124000000D02*
X154800000Y-125500000D01*
X156300000Y-123800000D02*
X156300000Y-124000000D01*
X154077468Y-115181000D02*
X150975000Y-118283468D01*
X150975000Y-125120000D02*
X151240000Y-125385000D01*
X150975000Y-118283468D02*
X150975000Y-118525000D01*
X156575000Y-115000000D02*
X156394000Y-115181000D01*
X156394000Y-115181000D02*
X154077468Y-115181000D01*
X152700000Y-122550000D02*
X151100000Y-122550000D01*
X151100000Y-122550000D02*
X150975000Y-122675000D01*
X150975000Y-122675000D02*
X150975000Y-125120000D01*
X150975000Y-118525000D02*
X150975000Y-122675000D01*
X153437500Y-127925000D02*
X153862500Y-127500000D01*
X151240000Y-127925000D02*
X153437500Y-127925000D01*
X155325000Y-127450058D02*
X155325000Y-127200000D01*
X151240000Y-130465000D02*
X152310058Y-130465000D01*
X152310058Y-130465000D02*
X155325000Y-127450058D01*
X176625000Y-134580000D02*
X174526000Y-132481000D01*
X174526000Y-132481000D02*
X174526000Y-128184468D01*
X167295000Y-121395000D02*
X162600000Y-116700000D01*
X167295000Y-122070000D02*
X167295000Y-121395000D01*
X174526000Y-128184468D02*
X168411532Y-122070000D01*
X168411532Y-122070000D02*
X167295000Y-122070000D01*
X162600000Y-116700000D02*
X162462500Y-116700000D01*
X175575000Y-126025000D02*
X173790000Y-126025000D01*
X177876000Y-128326000D02*
X175575000Y-126025000D01*
X173790000Y-126025000D02*
X167295000Y-119530000D01*
X177876000Y-130789000D02*
X177876000Y-128326000D01*
X176625000Y-132040000D02*
X177876000Y-130789000D01*
X138135000Y-132075000D02*
X138135000Y-129525000D01*
X138135000Y-129525000D02*
X137635000Y-129025000D01*
X139405000Y-129795000D02*
X139405000Y-132075000D01*
X140175000Y-129025000D02*
X139405000Y-129795000D01*
X175497000Y-122070000D02*
X174915000Y-122070000D01*
X178037000Y-124610000D02*
X175497000Y-122070000D01*
X174915000Y-122070000D02*
X170850000Y-118005000D01*
X170850000Y-118005000D02*
X170850000Y-113900000D01*
X170367364Y-112426000D02*
X173714000Y-115772636D01*
X173714000Y-115772636D02*
X173714000Y-118329000D01*
X174915000Y-119530000D02*
X178037000Y-119530000D01*
X164451000Y-112426000D02*
X170367364Y-112426000D01*
X173714000Y-118329000D02*
X174915000Y-119530000D01*
X163200000Y-111175000D02*
X164451000Y-112426000D01*
X187445000Y-139940000D02*
X187445000Y-139190001D01*
X189635001Y-137000000D02*
X190205000Y-137000000D01*
X187445000Y-139190001D02*
X189635001Y-137000000D01*
X184445000Y-139940000D02*
X184445000Y-138860000D01*
X184445000Y-138860000D02*
X182585000Y-137000000D01*
X154225000Y-113300000D02*
X154250000Y-113325000D01*
X154225000Y-113210000D02*
X154225000Y-113300000D01*
X154225000Y-111940000D02*
X154225000Y-111825000D01*
X154225000Y-111825000D02*
X154250000Y-111800000D01*
X164037500Y-116487500D02*
X165300000Y-117750000D01*
X164037500Y-115962500D02*
X164037500Y-116487500D01*
D42*
X156600000Y-136700000D02*
X157925000Y-135375000D01*
X157925000Y-135375000D02*
X157925000Y-134200000D01*
G04 #@! TA.AperFunction,Conductor*
G36*
X144205329Y-129266925D02*
G01*
X144256805Y-129314169D01*
X144274618Y-129378337D01*
X144264832Y-138377558D01*
X144264825Y-138383629D01*
X144259615Y-138436207D01*
X144264735Y-138467341D01*
X144264724Y-138477536D01*
X144264715Y-138485347D01*
X144270926Y-138508627D01*
X144273472Y-138520464D01*
X144281001Y-138566243D01*
X144281003Y-138566247D01*
X144293909Y-138594778D01*
X144298685Y-138612679D01*
X144314167Y-138639562D01*
X144316669Y-138645092D01*
X144335317Y-138686317D01*
X144348275Y-138702126D01*
X144348276Y-138702126D01*
X144354741Y-138710014D01*
X144364453Y-138726878D01*
X144387471Y-138749946D01*
X144418856Y-138788237D01*
X144434664Y-138799580D01*
X144436128Y-138800648D01*
X144443552Y-138806149D01*
X144457538Y-138820166D01*
X144480044Y-138833192D01*
X144485686Y-138837373D01*
X144486167Y-138838009D01*
X144489248Y-138840114D01*
X144594262Y-138924000D01*
X144632436Y-138954493D01*
X144642007Y-138962983D01*
X144783460Y-139102145D01*
X144792097Y-139111566D01*
X144872821Y-139209308D01*
X144899790Y-139269542D01*
X145096892Y-140559662D01*
X145096372Y-140600250D01*
X144893645Y-141732140D01*
X144888290Y-141744371D01*
X144887530Y-141754247D01*
X144870447Y-141785131D01*
X144840485Y-141824703D01*
X144830238Y-141836590D01*
X144659402Y-142011116D01*
X144647737Y-142021614D01*
X144456228Y-142173163D01*
X144443329Y-142182104D01*
X144234206Y-142308252D01*
X144220282Y-142315491D01*
X143996908Y-142414212D01*
X143982181Y-142419635D01*
X143748119Y-142489354D01*
X143732825Y-142492873D01*
X143491842Y-142532467D01*
X143476226Y-142534027D01*
X143232157Y-142542867D01*
X143216469Y-142542441D01*
X142973246Y-142520382D01*
X142957740Y-142517979D01*
X142719238Y-142465373D01*
X142704173Y-142461034D01*
X142588516Y-142419635D01*
X142474235Y-142378728D01*
X142459826Y-142372516D01*
X142341419Y-142312312D01*
X142238601Y-142260034D01*
X142231722Y-142256257D01*
X142178391Y-142224744D01*
X142178393Y-142224744D01*
X142093763Y-142201148D01*
X142051449Y-142189350D01*
X142051447Y-142189349D01*
X142051446Y-142189349D01*
X141926194Y-142188083D01*
X141919671Y-142188018D01*
X141919670Y-142188018D01*
X141919666Y-142188018D01*
X141914906Y-142188596D01*
X141899963Y-142189500D01*
X136343322Y-142189500D01*
X136340829Y-142188859D01*
X136277414Y-142189500D01*
X136213907Y-142189500D01*
X136212174Y-142189746D01*
X136209060Y-142190188D01*
X136148561Y-142207055D01*
X136147356Y-142207384D01*
X136086813Y-142223607D01*
X136083904Y-142224811D01*
X136083866Y-142224828D01*
X136082276Y-142225486D01*
X136028886Y-142257033D01*
X136021747Y-142260941D01*
X135791934Y-142377109D01*
X135776957Y-142383483D01*
X135537760Y-142467201D01*
X135522077Y-142471558D01*
X135273975Y-142523224D01*
X135257857Y-142525489D01*
X135005132Y-142544213D01*
X134988855Y-142544348D01*
X134735844Y-142529806D01*
X134719691Y-142527807D01*
X134470775Y-142480254D01*
X134455022Y-142476157D01*
X134214477Y-142396409D01*
X134199396Y-142390284D01*
X133971368Y-142279715D01*
X133957220Y-142271668D01*
X133745631Y-142132180D01*
X133732659Y-142122348D01*
X133541177Y-141956359D01*
X133529605Y-141944914D01*
X133361501Y-141755261D01*
X133351531Y-141742404D01*
X133209719Y-141532367D01*
X133201518Y-141518312D01*
X133088440Y-141291514D01*
X133082149Y-141276502D01*
X132999751Y-141036845D01*
X132995481Y-141021138D01*
X132945185Y-140772759D01*
X132943010Y-140756643D01*
X132925678Y-140503791D01*
X132925634Y-140487539D01*
X132932175Y-140383713D01*
X133629500Y-140383713D01*
X133629500Y-140596286D01*
X133662753Y-140806239D01*
X133728444Y-141008414D01*
X133824951Y-141197820D01*
X133949890Y-141369786D01*
X134100213Y-141520109D01*
X134272179Y-141645048D01*
X134272181Y-141645049D01*
X134272184Y-141645051D01*
X134461588Y-141741557D01*
X134663757Y-141807246D01*
X134873713Y-141840500D01*
X134873714Y-141840500D01*
X135086286Y-141840500D01*
X135086287Y-141840500D01*
X135296243Y-141807246D01*
X135498412Y-141741557D01*
X135687816Y-141645051D01*
X135792787Y-141568786D01*
X135859786Y-141520109D01*
X135859788Y-141520106D01*
X135859792Y-141520104D01*
X136010104Y-141369792D01*
X136010106Y-141369788D01*
X136010109Y-141369786D01*
X136135048Y-141197820D01*
X136135047Y-141197820D01*
X136135051Y-141197816D01*
X136231557Y-141008412D01*
X136297246Y-140806243D01*
X136330500Y-140596287D01*
X136330500Y-140383713D01*
X141929500Y-140383713D01*
X141929500Y-140596286D01*
X141962753Y-140806239D01*
X142028444Y-141008414D01*
X142124951Y-141197820D01*
X142249890Y-141369786D01*
X142400213Y-141520109D01*
X142572179Y-141645048D01*
X142572181Y-141645049D01*
X142572184Y-141645051D01*
X142761588Y-141741557D01*
X142963757Y-141807246D01*
X143173713Y-141840500D01*
X143173714Y-141840500D01*
X143386286Y-141840500D01*
X143386287Y-141840500D01*
X143596243Y-141807246D01*
X143798412Y-141741557D01*
X143987816Y-141645051D01*
X144092787Y-141568786D01*
X144159786Y-141520109D01*
X144159788Y-141520106D01*
X144159792Y-141520104D01*
X144310104Y-141369792D01*
X144310106Y-141369788D01*
X144310109Y-141369786D01*
X144435048Y-141197820D01*
X144435047Y-141197820D01*
X144435051Y-141197816D01*
X144531557Y-141008412D01*
X144597246Y-140806243D01*
X144630500Y-140596287D01*
X144630500Y-140383713D01*
X144597246Y-140173757D01*
X144531557Y-139971588D01*
X144435051Y-139782184D01*
X144435049Y-139782181D01*
X144435048Y-139782179D01*
X144310109Y-139610213D01*
X144159786Y-139459890D01*
X143987820Y-139334951D01*
X143798414Y-139238444D01*
X143798413Y-139238443D01*
X143798412Y-139238443D01*
X143596243Y-139172754D01*
X143596241Y-139172753D01*
X143596240Y-139172753D01*
X143434957Y-139147208D01*
X143386287Y-139139500D01*
X143173713Y-139139500D01*
X143125042Y-139147208D01*
X142963760Y-139172753D01*
X142761585Y-139238444D01*
X142572179Y-139334951D01*
X142400213Y-139459890D01*
X142249890Y-139610213D01*
X142124951Y-139782179D01*
X142028444Y-139971585D01*
X142028443Y-139971587D01*
X142028443Y-139971588D01*
X142010926Y-140025499D01*
X141962753Y-140173760D01*
X141929500Y-140383713D01*
X136330500Y-140383713D01*
X136297246Y-140173757D01*
X136231557Y-139971588D01*
X136135051Y-139782184D01*
X136135049Y-139782181D01*
X136135048Y-139782179D01*
X136010109Y-139610213D01*
X135859786Y-139459890D01*
X135687820Y-139334951D01*
X135498414Y-139238444D01*
X135498413Y-139238443D01*
X135498412Y-139238443D01*
X135296243Y-139172754D01*
X135296241Y-139172753D01*
X135296240Y-139172753D01*
X135134957Y-139147208D01*
X135086287Y-139139500D01*
X134873713Y-139139500D01*
X134825042Y-139147208D01*
X134663760Y-139172753D01*
X134461585Y-139238444D01*
X134272179Y-139334951D01*
X134100213Y-139459890D01*
X133949890Y-139610213D01*
X133824951Y-139782179D01*
X133728444Y-139971585D01*
X133728443Y-139971587D01*
X133728443Y-139971588D01*
X133710926Y-140025499D01*
X133662753Y-140173760D01*
X133629500Y-140383713D01*
X132932175Y-140383713D01*
X132941570Y-140234593D01*
X132943658Y-140218459D01*
X132981625Y-140025500D01*
X132992584Y-139969800D01*
X132996764Y-139954088D01*
X133077845Y-139713962D01*
X133084044Y-139698939D01*
X133195873Y-139471514D01*
X133203997Y-139457413D01*
X133344651Y-139246594D01*
X133354544Y-139233688D01*
X133524100Y-139040255D01*
X133529650Y-139034327D01*
X133580500Y-138983479D01*
X133646392Y-138869351D01*
X133680500Y-138742057D01*
X133680500Y-133476677D01*
X134345000Y-133476677D01*
X134345000Y-133500000D01*
X135070000Y-133500000D01*
X135070000Y-132800000D01*
X135570000Y-132800000D01*
X135570000Y-133500000D01*
X136302838Y-133500000D01*
X136346888Y-133475946D01*
X136416579Y-133480929D01*
X136436371Y-133490381D01*
X136454802Y-133501281D01*
X136612514Y-133547100D01*
X136612511Y-133547100D01*
X136614998Y-133547295D01*
X136615000Y-133547295D01*
X136615000Y-132325000D01*
X136065000Y-132325000D01*
X136065000Y-132756322D01*
X136045315Y-132823361D01*
X135992511Y-132869116D01*
X135923353Y-132879060D01*
X135885564Y-132865365D01*
X135885032Y-132866507D01*
X135878481Y-132863452D01*
X135717606Y-132810144D01*
X135618322Y-132800000D01*
X135570000Y-132800000D01*
X135070000Y-132800000D01*
X135069999Y-132799999D01*
X135021693Y-132800000D01*
X135021675Y-132800001D01*
X134922392Y-132810144D01*
X134761518Y-132863452D01*
X134761507Y-132863457D01*
X134617271Y-132952424D01*
X134617267Y-132952427D01*
X134497427Y-133072267D01*
X134497424Y-133072271D01*
X134408457Y-133216507D01*
X134408452Y-133216518D01*
X134355144Y-133377393D01*
X134345000Y-133476677D01*
X133680500Y-133476677D01*
X133680500Y-131184350D01*
X136065000Y-131184350D01*
X136065000Y-131825000D01*
X136615000Y-131825000D01*
X136615000Y-130602703D01*
X136612503Y-130602900D01*
X136454806Y-130648716D01*
X136454803Y-130648717D01*
X136313447Y-130732314D01*
X136313438Y-130732321D01*
X136197321Y-130848438D01*
X136197314Y-130848447D01*
X136113717Y-130989803D01*
X136113716Y-130989806D01*
X136067900Y-131147504D01*
X136067899Y-131147510D01*
X136065000Y-131184350D01*
X133680500Y-131184350D01*
X133680500Y-130324240D01*
X133700185Y-130257201D01*
X133752989Y-130211446D01*
X133822147Y-130201502D01*
X133879946Y-130227897D01*
X133880712Y-130226875D01*
X133885414Y-130230395D01*
X133885703Y-130230527D01*
X133886164Y-130230956D01*
X134002906Y-130318350D01*
X134002913Y-130318354D01*
X134137620Y-130368596D01*
X134137627Y-130368598D01*
X134197155Y-130374999D01*
X134197172Y-130375000D01*
X134845000Y-130375000D01*
X134845000Y-129458012D01*
X134902007Y-129490925D01*
X135029174Y-129525000D01*
X135160826Y-129525000D01*
X135287993Y-129490925D01*
X135345000Y-129458012D01*
X135345000Y-130375000D01*
X135992828Y-130375000D01*
X135992844Y-130374999D01*
X136052372Y-130368598D01*
X136052379Y-130368596D01*
X136187086Y-130318354D01*
X136187093Y-130318350D01*
X136302187Y-130232190D01*
X136302190Y-130232187D01*
X136388350Y-130117093D01*
X136388354Y-130117086D01*
X136437422Y-129985529D01*
X136479293Y-129929595D01*
X136544757Y-129905178D01*
X136613030Y-129920030D01*
X136641285Y-129941181D01*
X136755213Y-130055109D01*
X136927179Y-130180048D01*
X136927181Y-130180049D01*
X136927184Y-130180051D01*
X137116588Y-130276557D01*
X137318757Y-130342246D01*
X137329895Y-130344010D01*
X137360679Y-130358602D01*
X137391703Y-130372770D01*
X137392199Y-130373542D01*
X137393029Y-130373936D01*
X137411043Y-130402865D01*
X137429477Y-130431548D01*
X137429648Y-130432741D01*
X137429962Y-130433245D01*
X137434500Y-130466483D01*
X137434500Y-130529846D01*
X137414815Y-130596885D01*
X137362011Y-130642640D01*
X137292853Y-130652584D01*
X137275906Y-130648923D01*
X137117492Y-130602900D01*
X137115000Y-130602703D01*
X137115000Y-133547295D01*
X137115001Y-133547295D01*
X137117486Y-133547100D01*
X137275198Y-133501281D01*
X137416550Y-133417686D01*
X137422717Y-133412903D01*
X137424630Y-133415369D01*
X137473222Y-133388802D01*
X137542917Y-133393749D01*
X137575762Y-133414853D01*
X137576969Y-133413298D01*
X137583132Y-133418078D01*
X137583135Y-133418081D01*
X137724602Y-133501744D01*
X137766224Y-133513836D01*
X137882426Y-133547597D01*
X137882429Y-133547597D01*
X137882431Y-133547598D01*
X137919306Y-133550500D01*
X137919314Y-133550500D01*
X138350686Y-133550500D01*
X138350694Y-133550500D01*
X138387569Y-133547598D01*
X138387571Y-133547597D01*
X138387573Y-133547597D01*
X138429191Y-133535505D01*
X138545398Y-133501744D01*
X138686865Y-133418081D01*
X138686870Y-133418075D01*
X138693031Y-133413298D01*
X138694933Y-133415750D01*
X138743579Y-133389155D01*
X138813274Y-133394104D01*
X138845695Y-133414940D01*
X138846969Y-133413298D01*
X138853132Y-133418078D01*
X138853135Y-133418081D01*
X138994602Y-133501744D01*
X139036224Y-133513836D01*
X139152426Y-133547597D01*
X139152429Y-133547597D01*
X139152431Y-133547598D01*
X139189306Y-133550500D01*
X139189314Y-133550500D01*
X139620686Y-133550500D01*
X139620694Y-133550500D01*
X139657569Y-133547598D01*
X139657571Y-133547597D01*
X139657573Y-133547597D01*
X139699191Y-133535505D01*
X139815398Y-133501744D01*
X139956865Y-133418081D01*
X139956868Y-133418077D01*
X139963026Y-133413301D01*
X139964839Y-133415638D01*
X140013949Y-133388798D01*
X140083643Y-133393756D01*
X140115996Y-133414551D01*
X140117278Y-133412900D01*
X140123447Y-133417685D01*
X140264801Y-133501281D01*
X140422514Y-133547100D01*
X140422511Y-133547100D01*
X140424998Y-133547295D01*
X140425000Y-133547295D01*
X140925000Y-133547295D01*
X140925001Y-133547295D01*
X140927486Y-133547100D01*
X141085198Y-133501281D01*
X141226552Y-133417685D01*
X141226561Y-133417678D01*
X141342678Y-133301561D01*
X141342685Y-133301552D01*
X141426282Y-133160196D01*
X141426283Y-133160193D01*
X141472099Y-133002495D01*
X141472100Y-133002489D01*
X141474999Y-132965649D01*
X141475000Y-132965634D01*
X141475000Y-132325000D01*
X140925000Y-132325000D01*
X140925000Y-133547295D01*
X140425000Y-133547295D01*
X140425000Y-131825000D01*
X140925000Y-131825000D01*
X141475000Y-131825000D01*
X141475000Y-131184365D01*
X141474999Y-131184350D01*
X141472100Y-131147510D01*
X141472099Y-131147504D01*
X141426283Y-130989806D01*
X141426282Y-130989803D01*
X141342685Y-130848447D01*
X141342678Y-130848438D01*
X141226561Y-130732321D01*
X141226552Y-130732314D01*
X141085196Y-130648717D01*
X141085193Y-130648716D01*
X140927494Y-130602900D01*
X140927497Y-130602900D01*
X140925000Y-130602703D01*
X140925000Y-131825000D01*
X140425000Y-131825000D01*
X140425000Y-130620912D01*
X140363714Y-130586381D01*
X140340203Y-130562236D01*
X140316202Y-130538593D01*
X140315906Y-130537284D01*
X140314971Y-130536323D01*
X140308248Y-130503311D01*
X140300837Y-130470433D01*
X140301296Y-130469171D01*
X140301029Y-130467858D01*
X140313224Y-130436442D01*
X140324761Y-130404787D01*
X140325828Y-130403975D01*
X140326314Y-130402724D01*
X140353559Y-130382888D01*
X140380378Y-130362496D01*
X140382260Y-130361993D01*
X140382800Y-130361601D01*
X140383991Y-130361531D01*
X140405184Y-130355876D01*
X140491243Y-130342246D01*
X140693412Y-130276557D01*
X140882816Y-130180051D01*
X140969471Y-130117093D01*
X141054786Y-130055109D01*
X141054788Y-130055106D01*
X141054792Y-130055104D01*
X141205104Y-129904792D01*
X141205106Y-129904788D01*
X141205109Y-129904786D01*
X141330048Y-129732820D01*
X141330047Y-129732820D01*
X141330051Y-129732816D01*
X141334514Y-129724054D01*
X141382488Y-129673259D01*
X141450308Y-129656463D01*
X141516444Y-129678999D01*
X141555486Y-129724056D01*
X141559951Y-129732820D01*
X141684890Y-129904786D01*
X141835211Y-130055107D01*
X141906200Y-130106682D01*
X141963385Y-130148229D01*
X142006051Y-130203558D01*
X142014500Y-130248547D01*
X142014500Y-136063479D01*
X142005855Y-136092916D01*
X141999332Y-136122907D01*
X141995577Y-136127922D01*
X141994815Y-136130518D01*
X141978180Y-136151161D01*
X141927436Y-136201904D01*
X141866113Y-136235388D01*
X141863949Y-136235839D01*
X141806922Y-136247183D01*
X141806917Y-136247184D01*
X141646509Y-136313628D01*
X141645524Y-136311250D01*
X141587439Y-136322556D01*
X141522527Y-136296707D01*
X141481894Y-136239867D01*
X141475000Y-136199096D01*
X141475000Y-136134365D01*
X141474999Y-136134350D01*
X141472100Y-136097510D01*
X141472099Y-136097504D01*
X141426283Y-135939806D01*
X141426282Y-135939803D01*
X141342685Y-135798447D01*
X141342678Y-135798438D01*
X141226561Y-135682321D01*
X141226552Y-135682314D01*
X141085196Y-135598717D01*
X141085193Y-135598716D01*
X140927494Y-135552900D01*
X140927497Y-135552900D01*
X140925000Y-135552703D01*
X140925000Y-136901000D01*
X140905315Y-136968039D01*
X140852511Y-137013794D01*
X140801000Y-137025000D01*
X140549000Y-137025000D01*
X140481961Y-137005315D01*
X140436206Y-136952511D01*
X140425000Y-136901000D01*
X140425000Y-135552703D01*
X140422503Y-135552900D01*
X140264806Y-135598716D01*
X140264803Y-135598717D01*
X140123449Y-135682313D01*
X140117283Y-135687097D01*
X140115389Y-135684655D01*
X140066580Y-135711239D01*
X139996894Y-135706179D01*
X139964227Y-135685159D01*
X139963031Y-135686702D01*
X139956862Y-135681917D01*
X139831539Y-135607802D01*
X139815398Y-135598256D01*
X139815397Y-135598255D01*
X139815396Y-135598255D01*
X139815393Y-135598254D01*
X139657573Y-135552402D01*
X139657567Y-135552401D01*
X139620701Y-135549500D01*
X139620694Y-135549500D01*
X139189306Y-135549500D01*
X139189298Y-135549500D01*
X139152432Y-135552401D01*
X139152426Y-135552402D01*
X138994606Y-135598254D01*
X138994603Y-135598255D01*
X138853137Y-135681917D01*
X138846969Y-135686702D01*
X138845072Y-135684256D01*
X138796358Y-135710857D01*
X138726666Y-135705873D01*
X138694296Y-135685069D01*
X138693031Y-135686702D01*
X138686862Y-135681917D01*
X138561539Y-135607802D01*
X138545398Y-135598256D01*
X138545397Y-135598255D01*
X138545396Y-135598255D01*
X138545393Y-135598254D01*
X138387573Y-135552402D01*
X138387567Y-135552401D01*
X138350701Y-135549500D01*
X138350694Y-135549500D01*
X137919306Y-135549500D01*
X137919298Y-135549500D01*
X137882432Y-135552401D01*
X137882426Y-135552402D01*
X137724606Y-135598254D01*
X137724603Y-135598255D01*
X137583137Y-135681917D01*
X137576969Y-135686702D01*
X137575072Y-135684256D01*
X137526358Y-135710857D01*
X137456666Y-135705873D01*
X137424296Y-135685069D01*
X137423031Y-135686702D01*
X137416862Y-135681917D01*
X137291539Y-135607802D01*
X137275398Y-135598256D01*
X137275397Y-135598255D01*
X137275396Y-135598255D01*
X137275393Y-135598254D01*
X137117573Y-135552402D01*
X137117567Y-135552401D01*
X137080701Y-135549500D01*
X137080694Y-135549500D01*
X136649306Y-135549500D01*
X136649298Y-135549500D01*
X136612432Y-135552401D01*
X136612426Y-135552402D01*
X136505117Y-135583579D01*
X136491823Y-135583541D01*
X136479368Y-135588187D01*
X136457562Y-135583443D01*
X136435247Y-135583380D01*
X136422563Y-135575829D01*
X136411095Y-135573335D01*
X136382841Y-135552184D01*
X136331818Y-135501161D01*
X136298333Y-135439838D01*
X136295499Y-135413480D01*
X136295499Y-135026662D01*
X136295498Y-135026644D01*
X136285349Y-134927292D01*
X136285348Y-134927289D01*
X136232003Y-134766303D01*
X136231999Y-134766297D01*
X136231998Y-134766294D01*
X136142970Y-134621959D01*
X136142967Y-134621955D01*
X136133339Y-134612327D01*
X136099854Y-134551004D01*
X136104838Y-134481312D01*
X136133345Y-134436959D01*
X136142573Y-134427731D01*
X136231542Y-134283492D01*
X136231547Y-134283481D01*
X136284855Y-134122606D01*
X136294999Y-134023322D01*
X136295000Y-134023309D01*
X136295000Y-134000000D01*
X134345001Y-134000000D01*
X134345001Y-134023322D01*
X134355144Y-134122607D01*
X134408452Y-134283481D01*
X134408457Y-134283492D01*
X134497424Y-134427728D01*
X134497427Y-134427732D01*
X134506660Y-134436965D01*
X134540145Y-134498288D01*
X134535161Y-134567980D01*
X134506663Y-134612324D01*
X134497033Y-134621953D01*
X134497029Y-134621959D01*
X134408001Y-134766294D01*
X134407996Y-134766305D01*
X134354651Y-134927290D01*
X134344500Y-135026647D01*
X134344500Y-135026660D01*
X134344501Y-135573335D01*
X134344501Y-135573355D01*
X134354650Y-135672707D01*
X134354651Y-135672710D01*
X134407996Y-135833694D01*
X134408001Y-135833705D01*
X134497029Y-135978040D01*
X134497032Y-135978044D01*
X134616955Y-136097967D01*
X134616959Y-136097970D01*
X134761294Y-136186998D01*
X134761297Y-136186999D01*
X134761303Y-136187003D01*
X134922292Y-136240349D01*
X135021655Y-136250500D01*
X135048478Y-136250499D01*
X135115516Y-136270181D01*
X135136161Y-136286818D01*
X136001903Y-137152560D01*
X136009966Y-137166577D01*
X136020304Y-137176034D01*
X136030468Y-137202215D01*
X136034096Y-137208522D01*
X136035086Y-137212266D01*
X136047184Y-137273082D01*
X136058244Y-137299783D01*
X136060374Y-137307832D01*
X136060113Y-137317499D01*
X136064500Y-137339551D01*
X136064500Y-137915701D01*
X136067401Y-137952567D01*
X136067402Y-137952573D01*
X136113254Y-138110393D01*
X136113255Y-138110396D01*
X136196917Y-138251862D01*
X136196923Y-138251870D01*
X136313129Y-138368076D01*
X136313133Y-138368079D01*
X136313135Y-138368081D01*
X136454602Y-138451744D01*
X136496224Y-138463836D01*
X136612426Y-138497597D01*
X136612429Y-138497597D01*
X136612431Y-138497598D01*
X136649306Y-138500500D01*
X136649314Y-138500500D01*
X137080686Y-138500500D01*
X137080694Y-138500500D01*
X137117569Y-138497598D01*
X137117571Y-138497597D01*
X137117573Y-138497597D01*
X137275905Y-138451597D01*
X137345774Y-138451796D01*
X137404444Y-138489738D01*
X137433288Y-138553376D01*
X137434500Y-138570673D01*
X137434500Y-138658994D01*
X137434500Y-138658996D01*
X137434499Y-138658996D01*
X137461418Y-138794322D01*
X137461421Y-138794332D01*
X137514222Y-138921807D01*
X137590887Y-139036545D01*
X137608179Y-139053836D01*
X137641666Y-139115158D01*
X137644500Y-139141518D01*
X137644500Y-139348336D01*
X137644501Y-139348355D01*
X137654650Y-139447707D01*
X137654651Y-139447710D01*
X137707996Y-139608694D01*
X137708001Y-139608705D01*
X137797029Y-139753040D01*
X137797032Y-139753044D01*
X137916955Y-139872967D01*
X137916959Y-139872970D01*
X138061294Y-139961998D01*
X138061297Y-139961999D01*
X138061303Y-139962003D01*
X138222292Y-140015349D01*
X138321655Y-140025500D01*
X138868344Y-140025499D01*
X138868352Y-140025498D01*
X138868355Y-140025498D01*
X138922760Y-140019940D01*
X138967708Y-140015349D01*
X139128697Y-139962003D01*
X139273044Y-139872968D01*
X139282668Y-139863343D01*
X139343987Y-139829856D01*
X139413679Y-139834835D01*
X139458034Y-139863339D01*
X139467267Y-139872572D01*
X139467271Y-139872575D01*
X139611507Y-139961542D01*
X139611518Y-139961547D01*
X139772393Y-140014855D01*
X139871683Y-140024999D01*
X140395000Y-140024999D01*
X140418308Y-140024999D01*
X140418322Y-140024998D01*
X140517607Y-140014855D01*
X140678481Y-139961547D01*
X140678492Y-139961542D01*
X140822728Y-139872575D01*
X140822732Y-139872572D01*
X140942572Y-139752732D01*
X140942575Y-139752728D01*
X141031542Y-139608492D01*
X141031547Y-139608481D01*
X141084855Y-139447606D01*
X141094999Y-139348322D01*
X141095000Y-139348309D01*
X141095000Y-139300000D01*
X140395000Y-139300000D01*
X140395000Y-140024999D01*
X139871683Y-140024999D01*
X139895000Y-140024998D01*
X139895000Y-139174000D01*
X139914685Y-139106961D01*
X139967489Y-139061206D01*
X140019000Y-139050000D01*
X140145000Y-139050000D01*
X140145000Y-138924000D01*
X140164685Y-138856961D01*
X140217489Y-138811206D01*
X140269000Y-138800000D01*
X141094999Y-138800000D01*
X141094999Y-138751692D01*
X141094998Y-138751677D01*
X141084855Y-138652392D01*
X141060625Y-138579268D01*
X141058223Y-138509439D01*
X141093955Y-138449397D01*
X141115211Y-138433532D01*
X141226549Y-138367687D01*
X141226561Y-138367678D01*
X141342678Y-138251561D01*
X141342685Y-138251552D01*
X141426282Y-138110196D01*
X141426283Y-138110193D01*
X141472099Y-137952495D01*
X141472100Y-137952488D01*
X141474597Y-137920757D01*
X141499479Y-137855468D01*
X141555710Y-137813996D01*
X141625435Y-137809507D01*
X141646157Y-137817220D01*
X141646509Y-137816372D01*
X141652137Y-137818703D01*
X141806918Y-137882816D01*
X141971228Y-137915499D01*
X141971232Y-137915500D01*
X141971233Y-137915500D01*
X142138768Y-137915500D01*
X142138769Y-137915499D01*
X142303082Y-137882816D01*
X142457863Y-137818703D01*
X142597162Y-137725626D01*
X142715626Y-137607162D01*
X142808703Y-137467863D01*
X142872816Y-137313082D01*
X142884160Y-137256046D01*
X142916544Y-137194139D01*
X142917985Y-137192670D01*
X143259114Y-136851543D01*
X143335775Y-136736811D01*
X143388580Y-136609328D01*
X143415500Y-136473994D01*
X143415500Y-136336006D01*
X143415500Y-130248547D01*
X143435185Y-130181508D01*
X143466614Y-130148230D01*
X143594792Y-130055104D01*
X143745104Y-129904792D01*
X143745106Y-129904788D01*
X143745109Y-129904786D01*
X143870048Y-129732820D01*
X143870047Y-129732820D01*
X143870051Y-129732816D01*
X143966557Y-129543412D01*
X144032246Y-129341243D01*
X144032246Y-129341239D01*
X144032687Y-129339884D01*
X144072124Y-129282208D01*
X144136483Y-129255010D01*
X144205329Y-129266925D01*
G37*
G04 #@! TD.AperFunction*
G04 #@! TA.AperFunction,Conductor*
G36*
X144088164Y-125410185D02*
G01*
X144108850Y-125426863D01*
X144242404Y-125560562D01*
X144275854Y-125621902D01*
X144278674Y-125648329D01*
X144275383Y-128674289D01*
X144255625Y-128741307D01*
X144202772Y-128787004D01*
X144133602Y-128796873D01*
X144070078Y-128767779D01*
X144033452Y-128712472D01*
X144032247Y-128708763D01*
X144032246Y-128708757D01*
X143966557Y-128506588D01*
X143870051Y-128317184D01*
X143870049Y-128317181D01*
X143870048Y-128317179D01*
X143745109Y-128145213D01*
X143594786Y-127994890D01*
X143422820Y-127869951D01*
X143233414Y-127773444D01*
X143233413Y-127773443D01*
X143233412Y-127773443D01*
X143031243Y-127707754D01*
X143031241Y-127707753D01*
X143031240Y-127707753D01*
X142869957Y-127682208D01*
X142821287Y-127674500D01*
X142608713Y-127674500D01*
X142560042Y-127682208D01*
X142398760Y-127707753D01*
X142196585Y-127773444D01*
X142007179Y-127869951D01*
X141835213Y-127994890D01*
X141684890Y-128145213D01*
X141559949Y-128317182D01*
X141555484Y-128325946D01*
X141507509Y-128376742D01*
X141439688Y-128393536D01*
X141373553Y-128370998D01*
X141334516Y-128325946D01*
X141330050Y-128317182D01*
X141205109Y-128145213D01*
X141054786Y-127994890D01*
X140882820Y-127869951D01*
X140693414Y-127773444D01*
X140693413Y-127773443D01*
X140693412Y-127773443D01*
X140491243Y-127707754D01*
X140491241Y-127707753D01*
X140491240Y-127707753D01*
X140329957Y-127682208D01*
X140281287Y-127674500D01*
X140068713Y-127674500D01*
X140020042Y-127682208D01*
X139858760Y-127707753D01*
X139656585Y-127773444D01*
X139467179Y-127869951D01*
X139295213Y-127994890D01*
X139144890Y-128145213D01*
X139019949Y-128317182D01*
X139015484Y-128325946D01*
X138967509Y-128376742D01*
X138899688Y-128393536D01*
X138833553Y-128370998D01*
X138794516Y-128325946D01*
X138790050Y-128317182D01*
X138665109Y-128145213D01*
X138514786Y-127994890D01*
X138342820Y-127869951D01*
X138153414Y-127773444D01*
X138153413Y-127773443D01*
X138153412Y-127773443D01*
X137951243Y-127707754D01*
X137951241Y-127707753D01*
X137951240Y-127707753D01*
X137789957Y-127682208D01*
X137741287Y-127674500D01*
X137528713Y-127674500D01*
X137480042Y-127682208D01*
X137318760Y-127707753D01*
X137116585Y-127773444D01*
X136927179Y-127869951D01*
X136755215Y-127994889D01*
X136641285Y-128108819D01*
X136579962Y-128142303D01*
X136510270Y-128137319D01*
X136454337Y-128095447D01*
X136437422Y-128064470D01*
X136388354Y-127932913D01*
X136388350Y-127932906D01*
X136302190Y-127817812D01*
X136302187Y-127817809D01*
X136187093Y-127731649D01*
X136187086Y-127731645D01*
X136052379Y-127681403D01*
X136052372Y-127681401D01*
X135992844Y-127675000D01*
X135345000Y-127675000D01*
X135345000Y-128591988D01*
X135287993Y-128559075D01*
X135160826Y-128525000D01*
X135029174Y-128525000D01*
X134902007Y-128559075D01*
X134845000Y-128591988D01*
X134845000Y-127675000D01*
X134197155Y-127675000D01*
X134137627Y-127681401D01*
X134137620Y-127681403D01*
X134002913Y-127731645D01*
X134002906Y-127731649D01*
X133880712Y-127823125D01*
X133878893Y-127820696D01*
X133830858Y-127846926D01*
X133761166Y-127841942D01*
X133705233Y-127800070D01*
X133680816Y-127734606D01*
X133680500Y-127725760D01*
X133680500Y-125648676D01*
X133689144Y-125619235D01*
X133695668Y-125589249D01*
X133699422Y-125584233D01*
X133700185Y-125581637D01*
X133716819Y-125560995D01*
X133850995Y-125426819D01*
X133912318Y-125393334D01*
X133938676Y-125390500D01*
X144021125Y-125390500D01*
X144088164Y-125410185D01*
G37*
G04 #@! TD.AperFunction*
G04 #@! TA.AperFunction,Conductor*
G36*
X153122560Y-109720185D02*
G01*
X153168315Y-109772989D01*
X153178259Y-109842147D01*
X153149234Y-109905703D01*
X153118642Y-109931232D01*
X152998447Y-110002314D01*
X152998438Y-110002321D01*
X152882321Y-110118438D01*
X152882314Y-110118447D01*
X152798718Y-110259801D01*
X152752899Y-110417513D01*
X152752704Y-110419998D01*
X152752705Y-110420000D01*
X155697295Y-110420000D01*
X155697295Y-110419998D01*
X155697100Y-110417513D01*
X155651281Y-110259801D01*
X155567685Y-110118447D01*
X155567678Y-110118438D01*
X155451561Y-110002321D01*
X155451552Y-110002314D01*
X155331358Y-109931232D01*
X155283674Y-109880163D01*
X155271171Y-109811421D01*
X155297816Y-109746832D01*
X155355152Y-109706902D01*
X155394479Y-109700500D01*
X161976502Y-109700500D01*
X162043541Y-109720185D01*
X162089296Y-109772989D01*
X162099240Y-109842147D01*
X162070215Y-109905703D01*
X162050816Y-109923764D01*
X161992454Y-109967454D01*
X161992453Y-109967455D01*
X161992452Y-109967456D01*
X161906206Y-110082664D01*
X161906202Y-110082671D01*
X161855908Y-110217517D01*
X161849501Y-110277116D01*
X161849500Y-110277135D01*
X161849500Y-112072870D01*
X161849501Y-112072876D01*
X161855908Y-112132483D01*
X161906202Y-112267328D01*
X161906206Y-112267335D01*
X161992452Y-112382544D01*
X161992455Y-112382547D01*
X162107664Y-112468793D01*
X162107671Y-112468797D01*
X162242517Y-112519091D01*
X162242516Y-112519091D01*
X162249444Y-112519835D01*
X162302127Y-112525500D01*
X163508479Y-112525499D01*
X163575518Y-112545184D01*
X163596160Y-112561818D01*
X164004454Y-112970112D01*
X164004457Y-112970114D01*
X164119189Y-113046775D01*
X164152905Y-113060741D01*
X164167130Y-113066633D01*
X164221534Y-113110473D01*
X164243599Y-113176767D01*
X164226320Y-113244467D01*
X164175183Y-113292078D01*
X164143873Y-113302811D01*
X164126919Y-113306183D01*
X164126917Y-113306184D01*
X163972140Y-113370295D01*
X163972131Y-113370300D01*
X163923789Y-113402602D01*
X163857112Y-113423480D01*
X163854898Y-113423500D01*
X157701520Y-113423500D01*
X157566193Y-113450418D01*
X157566183Y-113450421D01*
X157438708Y-113503222D01*
X157323970Y-113579887D01*
X157323969Y-113579888D01*
X156915677Y-113988181D01*
X156854354Y-114021666D01*
X156827996Y-114024500D01*
X156318384Y-114024500D01*
X156299145Y-114026248D01*
X156247807Y-114030913D01*
X156085393Y-114081522D01*
X155939811Y-114169530D01*
X155886947Y-114222394D01*
X155825624Y-114255878D01*
X155755932Y-114250893D01*
X155699999Y-114209022D01*
X155680190Y-114169306D01*
X155651281Y-114069802D01*
X155567685Y-113928447D01*
X155562900Y-113922278D01*
X155565366Y-113920364D01*
X155538802Y-113871776D01*
X155543749Y-113802082D01*
X155564856Y-113769232D01*
X155563301Y-113768026D01*
X155568077Y-113761868D01*
X155568081Y-113761865D01*
X155651744Y-113620398D01*
X155697364Y-113463374D01*
X155697597Y-113462573D01*
X155697598Y-113462567D01*
X155700499Y-113425701D01*
X155700500Y-113425694D01*
X155700500Y-112994306D01*
X155697598Y-112957431D01*
X155667820Y-112854937D01*
X155651745Y-112799606D01*
X155651744Y-112799603D01*
X155651744Y-112799602D01*
X155568081Y-112658135D01*
X155568078Y-112658132D01*
X155563298Y-112651969D01*
X155565750Y-112650066D01*
X155539155Y-112601421D01*
X155544104Y-112531726D01*
X155564940Y-112499304D01*
X155563298Y-112498031D01*
X155568075Y-112491870D01*
X155568081Y-112491865D01*
X155651744Y-112350398D01*
X155697598Y-112192569D01*
X155700500Y-112155694D01*
X155700500Y-111724306D01*
X155697598Y-111687431D01*
X155693986Y-111675000D01*
X155651745Y-111529606D01*
X155651744Y-111529603D01*
X155651744Y-111529602D01*
X155568081Y-111388135D01*
X155568078Y-111388132D01*
X155563298Y-111381969D01*
X155565635Y-111380155D01*
X155538798Y-111331050D01*
X155543756Y-111261356D01*
X155564554Y-111228998D01*
X155562903Y-111227717D01*
X155567686Y-111221550D01*
X155651281Y-111080198D01*
X155697100Y-110922486D01*
X155697295Y-110920001D01*
X155697295Y-110920000D01*
X152752705Y-110920000D01*
X152752704Y-110920001D01*
X152752899Y-110922486D01*
X152798718Y-111080198D01*
X152882314Y-111221552D01*
X152887100Y-111227722D01*
X152884640Y-111229629D01*
X152911210Y-111278288D01*
X152906226Y-111347980D01*
X152885162Y-111380781D01*
X152886699Y-111381974D01*
X152881915Y-111388140D01*
X152798255Y-111529603D01*
X152798254Y-111529606D01*
X152752402Y-111687426D01*
X152752401Y-111687432D01*
X152749500Y-111724298D01*
X152749500Y-112155701D01*
X152752401Y-112192567D01*
X152752402Y-112192573D01*
X152798254Y-112350393D01*
X152798255Y-112350396D01*
X152881917Y-112491862D01*
X152886702Y-112498031D01*
X152884256Y-112499927D01*
X152910857Y-112548642D01*
X152905873Y-112618334D01*
X152885069Y-112650703D01*
X152886702Y-112651969D01*
X152881917Y-112658137D01*
X152798255Y-112799603D01*
X152798254Y-112799606D01*
X152752402Y-112957426D01*
X152752401Y-112957432D01*
X152749500Y-112994298D01*
X152749500Y-113425701D01*
X152752401Y-113462567D01*
X152752402Y-113462573D01*
X152798254Y-113620393D01*
X152798255Y-113620396D01*
X152881917Y-113761862D01*
X152886702Y-113768031D01*
X152884369Y-113769840D01*
X152911210Y-113818995D01*
X152906226Y-113888687D01*
X152885470Y-113921021D01*
X152887097Y-113922283D01*
X152882313Y-113928449D01*
X152798718Y-114069801D01*
X152752899Y-114227513D01*
X152752704Y-114229998D01*
X152752705Y-114230000D01*
X154101000Y-114230000D01*
X154109685Y-114232550D01*
X154118647Y-114231262D01*
X154142687Y-114242240D01*
X154168039Y-114249685D01*
X154173966Y-114256525D01*
X154182203Y-114260287D01*
X154196492Y-114282521D01*
X154213794Y-114302489D01*
X154216081Y-114313003D01*
X154219977Y-114319065D01*
X154225000Y-114354000D01*
X154225000Y-114356500D01*
X154205315Y-114423539D01*
X154152511Y-114469294D01*
X154101000Y-114480500D01*
X154008471Y-114480500D01*
X153906553Y-114500772D01*
X153906541Y-114500775D01*
X153900059Y-114502065D01*
X153873139Y-114507420D01*
X153840898Y-114520775D01*
X153835767Y-114522900D01*
X153835752Y-114522905D01*
X153745659Y-114560223D01*
X153678155Y-114605328D01*
X153678150Y-114605331D01*
X153672071Y-114609394D01*
X153630925Y-114636887D01*
X153570683Y-114697128D01*
X153566987Y-114700286D01*
X153539370Y-114712662D01*
X153512809Y-114727166D01*
X153505175Y-114727986D01*
X153503227Y-114728860D01*
X153500659Y-114728472D01*
X153486450Y-114730000D01*
X152752705Y-114730000D01*
X152752704Y-114730001D01*
X152752899Y-114732486D01*
X152798718Y-114890198D01*
X152882314Y-115031552D01*
X152882321Y-115031561D01*
X152971604Y-115120844D01*
X153005089Y-115182167D01*
X153000105Y-115251859D01*
X152971604Y-115296206D01*
X150804628Y-117463181D01*
X150743305Y-117496666D01*
X150716948Y-117499500D01*
X150602130Y-117499500D01*
X150602123Y-117499501D01*
X150542516Y-117505908D01*
X150407671Y-117556202D01*
X150407664Y-117556206D01*
X150292455Y-117642452D01*
X150292452Y-117642455D01*
X150206206Y-117757664D01*
X150206202Y-117757671D01*
X150155908Y-117892517D01*
X150149501Y-117952116D01*
X150149500Y-117952135D01*
X150149500Y-119097870D01*
X150149501Y-119097876D01*
X150155908Y-119157483D01*
X150206202Y-119292328D01*
X150206204Y-119292331D01*
X150249766Y-119350522D01*
X150274184Y-119415985D01*
X150274500Y-119424833D01*
X150274500Y-121775165D01*
X150254815Y-121842204D01*
X150249767Y-121849476D01*
X150206204Y-121907668D01*
X150206202Y-121907671D01*
X150155908Y-122042517D01*
X150149501Y-122102116D01*
X150149500Y-122102135D01*
X150149500Y-123247870D01*
X150149501Y-123247876D01*
X150155908Y-123307483D01*
X150206202Y-123442328D01*
X150206204Y-123442331D01*
X150249766Y-123500522D01*
X150274184Y-123565985D01*
X150274500Y-123574833D01*
X150274500Y-124359409D01*
X150254815Y-124426448D01*
X150202011Y-124472203D01*
X150132853Y-124482147D01*
X150069297Y-124453122D01*
X150034318Y-124402742D01*
X149993354Y-124292913D01*
X149993350Y-124292906D01*
X149907190Y-124177812D01*
X149907187Y-124177809D01*
X149792093Y-124091649D01*
X149792086Y-124091645D01*
X149657379Y-124041403D01*
X149657372Y-124041401D01*
X149597844Y-124035000D01*
X148950000Y-124035000D01*
X148950000Y-124951988D01*
X148892993Y-124919075D01*
X148765826Y-124885000D01*
X148634174Y-124885000D01*
X148507007Y-124919075D01*
X148450000Y-124951988D01*
X148450000Y-124035000D01*
X147802155Y-124035000D01*
X147742627Y-124041401D01*
X147742620Y-124041403D01*
X147607913Y-124091645D01*
X147607906Y-124091649D01*
X147492812Y-124177809D01*
X147492809Y-124177812D01*
X147406649Y-124292906D01*
X147406645Y-124292913D01*
X147356403Y-124427620D01*
X147356401Y-124427627D01*
X147350000Y-124487155D01*
X147350000Y-125135000D01*
X148266988Y-125135000D01*
X148234075Y-125192007D01*
X148200000Y-125319174D01*
X148200000Y-125450826D01*
X148234075Y-125577993D01*
X148266988Y-125635000D01*
X147350000Y-125635000D01*
X147350000Y-126282844D01*
X147356401Y-126342372D01*
X147356403Y-126342379D01*
X147406645Y-126477086D01*
X147406649Y-126477093D01*
X147492809Y-126592187D01*
X147492812Y-126592190D01*
X147607906Y-126678350D01*
X147607913Y-126678354D01*
X147739470Y-126727422D01*
X147795404Y-126769293D01*
X147819821Y-126834758D01*
X147804969Y-126903031D01*
X147783819Y-126931285D01*
X147669889Y-127045215D01*
X147544951Y-127217179D01*
X147448444Y-127406585D01*
X147382753Y-127608760D01*
X147354365Y-127787995D01*
X147349500Y-127818713D01*
X147349500Y-128031287D01*
X147355526Y-128069334D01*
X147381914Y-128235943D01*
X147382754Y-128241243D01*
X147443205Y-128427292D01*
X147448444Y-128443414D01*
X147544951Y-128632820D01*
X147669890Y-128804786D01*
X147820213Y-128955109D01*
X147992182Y-129080050D01*
X148000946Y-129084516D01*
X148051742Y-129132491D01*
X148068536Y-129200312D01*
X148045998Y-129266447D01*
X148000946Y-129305484D01*
X147992182Y-129309949D01*
X147820213Y-129434890D01*
X147669890Y-129585213D01*
X147544951Y-129757179D01*
X147448444Y-129946585D01*
X147382754Y-130148757D01*
X147349500Y-130358713D01*
X147349500Y-130571286D01*
X147373687Y-130724000D01*
X147382754Y-130781243D01*
X147427022Y-130917486D01*
X147448444Y-130983414D01*
X147544951Y-131172820D01*
X147669890Y-131344786D01*
X147820213Y-131495109D01*
X147992179Y-131620048D01*
X147992181Y-131620049D01*
X147992184Y-131620051D01*
X148181588Y-131716557D01*
X148383757Y-131782246D01*
X148593713Y-131815500D01*
X148593714Y-131815500D01*
X148806286Y-131815500D01*
X148806287Y-131815500D01*
X149016243Y-131782246D01*
X149218412Y-131716557D01*
X149407816Y-131620051D01*
X149465930Y-131577829D01*
X149579786Y-131495109D01*
X149579788Y-131495106D01*
X149579792Y-131495104D01*
X149730104Y-131344792D01*
X149730106Y-131344788D01*
X149730109Y-131344786D01*
X149855048Y-131172820D01*
X149855047Y-131172820D01*
X149855051Y-131172816D01*
X149859514Y-131164054D01*
X149907488Y-131113259D01*
X149975308Y-131096463D01*
X150041444Y-131118999D01*
X150080484Y-131164054D01*
X150084591Y-131172115D01*
X150084951Y-131172820D01*
X150209890Y-131344786D01*
X150360213Y-131495109D01*
X150532179Y-131620048D01*
X150532181Y-131620049D01*
X150532184Y-131620051D01*
X150721588Y-131716557D01*
X150923757Y-131782246D01*
X151133713Y-131815500D01*
X151133714Y-131815500D01*
X151346286Y-131815500D01*
X151346287Y-131815500D01*
X151556243Y-131782246D01*
X151758412Y-131716557D01*
X151947816Y-131620051D01*
X152005930Y-131577829D01*
X152119786Y-131495109D01*
X152119788Y-131495106D01*
X152119792Y-131495104D01*
X152270104Y-131344792D01*
X152375442Y-131199805D01*
X152430770Y-131157141D01*
X152451559Y-131151076D01*
X152514386Y-131138580D01*
X152616066Y-131096463D01*
X152641865Y-131085777D01*
X152641866Y-131085776D01*
X152641869Y-131085775D01*
X152756601Y-131009114D01*
X155869114Y-127896601D01*
X155945775Y-127781869D01*
X155956645Y-127755628D01*
X155978425Y-127703044D01*
X155998580Y-127654386D01*
X156025500Y-127519052D01*
X156025500Y-127494658D01*
X156034939Y-127447206D01*
X156046656Y-127418917D01*
X156046658Y-127418913D01*
X156061721Y-127343189D01*
X156070646Y-127298322D01*
X164175001Y-127298322D01*
X164185144Y-127397607D01*
X164238452Y-127558481D01*
X164238457Y-127558492D01*
X164327424Y-127702728D01*
X164327427Y-127702732D01*
X164447267Y-127822572D01*
X164447271Y-127822575D01*
X164591507Y-127911542D01*
X164591518Y-127911547D01*
X164752393Y-127964855D01*
X164851683Y-127974999D01*
X164875000Y-127974998D01*
X164875000Y-127250000D01*
X164175001Y-127250000D01*
X164175001Y-127298322D01*
X156070646Y-127298322D01*
X156075500Y-127273920D01*
X156075500Y-127126079D01*
X156046659Y-126981092D01*
X156046658Y-126981091D01*
X156046658Y-126981087D01*
X156028472Y-126937181D01*
X155990087Y-126844511D01*
X155990080Y-126844498D01*
X155938577Y-126767419D01*
X155938576Y-126767418D01*
X155927093Y-126750233D01*
X155907951Y-126721584D01*
X155907949Y-126721581D01*
X155888045Y-126701677D01*
X164175000Y-126701677D01*
X164175000Y-126750000D01*
X164875000Y-126750000D01*
X164875000Y-126024999D01*
X164851693Y-126025000D01*
X164851674Y-126025001D01*
X164752392Y-126035144D01*
X164591518Y-126088452D01*
X164591507Y-126088457D01*
X164447271Y-126177424D01*
X164447267Y-126177427D01*
X164327427Y-126297267D01*
X164327424Y-126297271D01*
X164238457Y-126441507D01*
X164238452Y-126441518D01*
X164185144Y-126602393D01*
X164175000Y-126701677D01*
X155888045Y-126701677D01*
X155803419Y-126617051D01*
X155803415Y-126617048D01*
X155680501Y-126534919D01*
X155680488Y-126534912D01*
X155543917Y-126478343D01*
X155543907Y-126478340D01*
X155398920Y-126449500D01*
X155398918Y-126449500D01*
X155293435Y-126449500D01*
X155226396Y-126429815D01*
X155180641Y-126377011D01*
X155170697Y-126307853D01*
X155199722Y-126244297D01*
X155224543Y-126222398D01*
X155242162Y-126210626D01*
X155360626Y-126092162D01*
X155453703Y-125952863D01*
X155517816Y-125798082D01*
X155517818Y-125798068D01*
X155519584Y-125792252D01*
X155522222Y-125793052D01*
X155549024Y-125741662D01*
X155550628Y-125740027D01*
X155767333Y-125523322D01*
X157400001Y-125523322D01*
X157410144Y-125622607D01*
X157463452Y-125783481D01*
X157463457Y-125783492D01*
X157552424Y-125927728D01*
X157552427Y-125927732D01*
X157672267Y-126047572D01*
X157672271Y-126047575D01*
X157816507Y-126136542D01*
X157816518Y-126136547D01*
X157977393Y-126189855D01*
X158076683Y-126199999D01*
X158625000Y-126199999D01*
X158673308Y-126199999D01*
X158673322Y-126199998D01*
X158772607Y-126189855D01*
X158933481Y-126136547D01*
X158933488Y-126136544D01*
X159059902Y-126058570D01*
X159127295Y-126040129D01*
X159190098Y-126058570D01*
X159316511Y-126136544D01*
X159316518Y-126136547D01*
X159477393Y-126189855D01*
X159576683Y-126199999D01*
X160125000Y-126199999D01*
X160173308Y-126199999D01*
X160173322Y-126199998D01*
X160272607Y-126189855D01*
X160433481Y-126136547D01*
X160433488Y-126136544D01*
X160568215Y-126053442D01*
X160635607Y-126035001D01*
X160702271Y-126055923D01*
X160720994Y-126071299D01*
X160722267Y-126072572D01*
X160722271Y-126072575D01*
X160866507Y-126161542D01*
X160866518Y-126161547D01*
X161027393Y-126214855D01*
X161126683Y-126224999D01*
X161150000Y-126224998D01*
X161150000Y-125500000D01*
X160125000Y-125500000D01*
X160125000Y-126199999D01*
X159576683Y-126199999D01*
X159624999Y-126199998D01*
X159625000Y-126199998D01*
X159625000Y-125500000D01*
X158625000Y-125500000D01*
X158625000Y-126199999D01*
X158076683Y-126199999D01*
X158124999Y-126199998D01*
X158125000Y-126199998D01*
X158125000Y-125500000D01*
X157400001Y-125500000D01*
X157400001Y-125523322D01*
X155767333Y-125523322D01*
X156796965Y-124493689D01*
X156815748Y-124478274D01*
X156842162Y-124460626D01*
X156960626Y-124342162D01*
X157053703Y-124202863D01*
X157117816Y-124048082D01*
X157150500Y-123883767D01*
X157150500Y-123716233D01*
X157140322Y-123665063D01*
X157130908Y-123617734D01*
X157137135Y-123548142D01*
X157179998Y-123492965D01*
X157245888Y-123469721D01*
X157313885Y-123485789D01*
X157340206Y-123505862D01*
X157363181Y-123528837D01*
X157396666Y-123590160D01*
X157399500Y-123616518D01*
X157399500Y-123973337D01*
X157399501Y-123973355D01*
X157409650Y-124072707D01*
X157409651Y-124072710D01*
X157462996Y-124233694D01*
X157463001Y-124233705D01*
X157552029Y-124378040D01*
X157552032Y-124378044D01*
X157561660Y-124387672D01*
X157595145Y-124448995D01*
X157590161Y-124518687D01*
X157561663Y-124563031D01*
X157552428Y-124572265D01*
X157552424Y-124572271D01*
X157463457Y-124716507D01*
X157463452Y-124716518D01*
X157410144Y-124877393D01*
X157400000Y-124976677D01*
X157400000Y-125000000D01*
X161276000Y-125000000D01*
X161343039Y-125019685D01*
X161388794Y-125072489D01*
X161400000Y-125124000D01*
X161400000Y-125250000D01*
X161526000Y-125250000D01*
X161593039Y-125269685D01*
X161638794Y-125322489D01*
X161650000Y-125374000D01*
X161650000Y-126224999D01*
X161673308Y-126224999D01*
X161673322Y-126224998D01*
X161772607Y-126214855D01*
X161933481Y-126161547D01*
X161933492Y-126161542D01*
X162077731Y-126072573D01*
X162086959Y-126063345D01*
X162148279Y-126029856D01*
X162217971Y-126034835D01*
X162262327Y-126063339D01*
X162271955Y-126072967D01*
X162271959Y-126072970D01*
X162416294Y-126161998D01*
X162416297Y-126161999D01*
X162416303Y-126162003D01*
X162577292Y-126215349D01*
X162676655Y-126225500D01*
X163223344Y-126225499D01*
X163223352Y-126225498D01*
X163223355Y-126225498D01*
X163285390Y-126219161D01*
X163322708Y-126215349D01*
X163483697Y-126162003D01*
X163628044Y-126072968D01*
X163747968Y-125953044D01*
X163837003Y-125808697D01*
X163890349Y-125647708D01*
X163900500Y-125548345D01*
X163900499Y-124951656D01*
X163890349Y-124852292D01*
X163837003Y-124691303D01*
X163836999Y-124691297D01*
X163836998Y-124691294D01*
X163760896Y-124567915D01*
X163760895Y-124567914D01*
X163757883Y-124563031D01*
X163748037Y-124547069D01*
X163729597Y-124479678D01*
X163748037Y-124416876D01*
X163812549Y-124312287D01*
X163865436Y-124152685D01*
X163875500Y-124054174D01*
X163875500Y-123445826D01*
X163865436Y-123347315D01*
X163812549Y-123187713D01*
X163812545Y-123187707D01*
X163812544Y-123187704D01*
X163724283Y-123044612D01*
X163724280Y-123044608D01*
X163605391Y-122925719D01*
X163605387Y-122925716D01*
X163462295Y-122837455D01*
X163462289Y-122837452D01*
X163462287Y-122837451D01*
X163302685Y-122784564D01*
X163302683Y-122784563D01*
X163204181Y-122774500D01*
X163204174Y-122774500D01*
X162670826Y-122774500D01*
X162670818Y-122774500D01*
X162572316Y-122784563D01*
X162572315Y-122784564D01*
X162505776Y-122806613D01*
X162412715Y-122837450D01*
X162412704Y-122837455D01*
X162269612Y-122925716D01*
X162269608Y-122925719D01*
X162237681Y-122957647D01*
X162176358Y-122991132D01*
X162106666Y-122986148D01*
X162062319Y-122957647D01*
X162030391Y-122925719D01*
X162030387Y-122925716D01*
X161887295Y-122837455D01*
X161887289Y-122837452D01*
X161887287Y-122837451D01*
X161727685Y-122784564D01*
X161727683Y-122784563D01*
X161629181Y-122774500D01*
X161629174Y-122774500D01*
X161095826Y-122774500D01*
X161095818Y-122774500D01*
X160997316Y-122784563D01*
X160997315Y-122784564D01*
X160930776Y-122806613D01*
X160837715Y-122837450D01*
X160837710Y-122837452D01*
X160719853Y-122910148D01*
X160652460Y-122928588D01*
X160585797Y-122907665D01*
X160578146Y-122902094D01*
X160433705Y-122813001D01*
X160433699Y-122812998D01*
X160433697Y-122812997D01*
X160414431Y-122806613D01*
X160272709Y-122759651D01*
X160173346Y-122749500D01*
X159576662Y-122749500D01*
X159576644Y-122749501D01*
X159477292Y-122759650D01*
X159477289Y-122759651D01*
X159316305Y-122812996D01*
X159316300Y-122812998D01*
X159190097Y-122890842D01*
X159122704Y-122909282D01*
X159059903Y-122890842D01*
X158933699Y-122812998D01*
X158933694Y-122812996D01*
X158772709Y-122759651D01*
X158673352Y-122749500D01*
X158673345Y-122749500D01*
X158616518Y-122749500D01*
X158549479Y-122729815D01*
X158528837Y-122713181D01*
X157399678Y-121584021D01*
X157366193Y-121522698D01*
X157371177Y-121453006D01*
X157413049Y-121397073D01*
X157478513Y-121372656D01*
X157546786Y-121387508D01*
X157552436Y-121390790D01*
X157587713Y-121412549D01*
X157747315Y-121465436D01*
X157845826Y-121475500D01*
X157845831Y-121475500D01*
X158379169Y-121475500D01*
X158379174Y-121475500D01*
X158477685Y-121465436D01*
X158637287Y-121412549D01*
X158780391Y-121324281D01*
X158812319Y-121292353D01*
X158873642Y-121258868D01*
X158943334Y-121263852D01*
X158987681Y-121292353D01*
X159019608Y-121324280D01*
X159019612Y-121324283D01*
X159162704Y-121412544D01*
X159162707Y-121412545D01*
X159162713Y-121412549D01*
X159322315Y-121465436D01*
X159420826Y-121475500D01*
X159420831Y-121475500D01*
X159954169Y-121475500D01*
X159954174Y-121475500D01*
X160052685Y-121465436D01*
X160212287Y-121412549D01*
X160355391Y-121324281D01*
X160474281Y-121205391D01*
X160562549Y-121062287D01*
X160615436Y-120902685D01*
X160625500Y-120804174D01*
X160625500Y-120195826D01*
X160615436Y-120097315D01*
X160562549Y-119937713D01*
X160562545Y-119937707D01*
X160562544Y-119937704D01*
X160491089Y-119821858D01*
X160487123Y-119807364D01*
X160478654Y-119794950D01*
X160478087Y-119774345D01*
X160472648Y-119754466D01*
X160477116Y-119738991D01*
X160476735Y-119725106D01*
X160490510Y-119692611D01*
X160530528Y-119626413D01*
X160582056Y-119579226D01*
X160650915Y-119567387D01*
X160675649Y-119572857D01*
X160802393Y-119614855D01*
X160901683Y-119624999D01*
X161450000Y-119624999D01*
X161498308Y-119624999D01*
X161498322Y-119624998D01*
X161597607Y-119614855D01*
X161758481Y-119561547D01*
X161758492Y-119561542D01*
X161902728Y-119472575D01*
X161902732Y-119472572D01*
X162022572Y-119352732D01*
X162022575Y-119352728D01*
X162111542Y-119208492D01*
X162111547Y-119208481D01*
X162164855Y-119047606D01*
X162174999Y-118948322D01*
X162175000Y-118948309D01*
X162175000Y-118925000D01*
X161450000Y-118925000D01*
X161450000Y-119624999D01*
X160901683Y-119624999D01*
X160949999Y-119624998D01*
X160950000Y-119624998D01*
X160950000Y-118799000D01*
X160969685Y-118731961D01*
X161022489Y-118686206D01*
X161074000Y-118675000D01*
X161200000Y-118675000D01*
X161200000Y-118549000D01*
X161219685Y-118481961D01*
X161272489Y-118436206D01*
X161324000Y-118425000D01*
X162174999Y-118425000D01*
X162174999Y-118401692D01*
X162174998Y-118401677D01*
X162164855Y-118302392D01*
X162111547Y-118141518D01*
X162111542Y-118141507D01*
X162022575Y-117997271D01*
X162022572Y-117997267D01*
X162013339Y-117988034D01*
X161979854Y-117926711D01*
X161984838Y-117857019D01*
X162013343Y-117812668D01*
X162022968Y-117803044D01*
X162112003Y-117658697D01*
X162159372Y-117515742D01*
X162160074Y-117514728D01*
X162160141Y-117513495D01*
X162179897Y-117486097D01*
X162199144Y-117458299D01*
X162200286Y-117457824D01*
X162201008Y-117456823D01*
X162232426Y-117444461D01*
X162263660Y-117431476D01*
X162265253Y-117431546D01*
X162266026Y-117431242D01*
X162301264Y-117433130D01*
X162315814Y-117436024D01*
X162377724Y-117468409D01*
X162379303Y-117469960D01*
X166157832Y-121248489D01*
X166191317Y-121309812D01*
X166186333Y-121379504D01*
X166180636Y-121392465D01*
X166089782Y-121570776D01*
X166026522Y-121765465D01*
X165994500Y-121967648D01*
X165994500Y-122172351D01*
X166026522Y-122374534D01*
X166089781Y-122569223D01*
X166115654Y-122620000D01*
X166181638Y-122749501D01*
X166182715Y-122751613D01*
X166303028Y-122917213D01*
X166447786Y-123061971D01*
X166613385Y-123182284D01*
X166613387Y-123182285D01*
X166613390Y-123182287D01*
X166706630Y-123229795D01*
X166757426Y-123277770D01*
X166774221Y-123345591D01*
X166751684Y-123411725D01*
X166706630Y-123450765D01*
X166613644Y-123498143D01*
X166569077Y-123530523D01*
X166569077Y-123530524D01*
X167248554Y-124210000D01*
X167242339Y-124210000D01*
X167140606Y-124237259D01*
X167049394Y-124289920D01*
X166974920Y-124364394D01*
X166922259Y-124455606D01*
X166895000Y-124557339D01*
X166895000Y-124563553D01*
X166215524Y-123884077D01*
X166215523Y-123884077D01*
X166183143Y-123928644D01*
X166090244Y-124110968D01*
X166027009Y-124305582D01*
X165995000Y-124507682D01*
X165995000Y-124712317D01*
X166027009Y-124914417D01*
X166090244Y-125109031D01*
X166183141Y-125291350D01*
X166183147Y-125291359D01*
X166215523Y-125335921D01*
X166215524Y-125335922D01*
X166895000Y-124656446D01*
X166895000Y-124662661D01*
X166922259Y-124764394D01*
X166974920Y-124855606D01*
X167049394Y-124930080D01*
X167140606Y-124982741D01*
X167242339Y-125010000D01*
X167248553Y-125010000D01*
X166569076Y-125689474D01*
X166613650Y-125721859D01*
X166747414Y-125790015D01*
X166798210Y-125837989D01*
X166815005Y-125905810D01*
X166792468Y-125971945D01*
X166737753Y-126015397D01*
X166691119Y-126024500D01*
X166401663Y-126024500D01*
X166401644Y-126024501D01*
X166302292Y-126034650D01*
X166302289Y-126034651D01*
X166141305Y-126087996D01*
X166141294Y-126088001D01*
X165996959Y-126177029D01*
X165996953Y-126177033D01*
X165987324Y-126186663D01*
X165926000Y-126220146D01*
X165856308Y-126215159D01*
X165811965Y-126186660D01*
X165802732Y-126177427D01*
X165802728Y-126177424D01*
X165658492Y-126088457D01*
X165658481Y-126088452D01*
X165497606Y-126035144D01*
X165398322Y-126025000D01*
X165375000Y-126025000D01*
X165375000Y-127974999D01*
X165378453Y-127978452D01*
X165411938Y-128039775D01*
X165406954Y-128109467D01*
X165396311Y-128131230D01*
X165312998Y-128266300D01*
X165312996Y-128266305D01*
X165259651Y-128427290D01*
X165249500Y-128526647D01*
X165249500Y-129073337D01*
X165249501Y-129073355D01*
X165259650Y-129172707D01*
X165259651Y-129172710D01*
X165312996Y-129333694D01*
X165313001Y-129333705D01*
X165402029Y-129478040D01*
X165402032Y-129478044D01*
X165521955Y-129597967D01*
X165521959Y-129597970D01*
X165666294Y-129686998D01*
X165666297Y-129686999D01*
X165666303Y-129687003D01*
X165827292Y-129740349D01*
X165926655Y-129750500D01*
X166773344Y-129750499D01*
X166773352Y-129750498D01*
X166773355Y-129750498D01*
X166828919Y-129744822D01*
X166872708Y-129740349D01*
X166973971Y-129706794D01*
X167012975Y-129700500D01*
X167325500Y-129700500D01*
X167392539Y-129720185D01*
X167438294Y-129772989D01*
X167449500Y-129824500D01*
X167449500Y-129913696D01*
X167484103Y-130087658D01*
X167484105Y-130087666D01*
X167509410Y-130148757D01*
X167551987Y-130251547D01*
X167592078Y-130311547D01*
X167612524Y-130342147D01*
X167650537Y-130399038D01*
X167654282Y-130403601D01*
X167681594Y-130467911D01*
X167681786Y-130469663D01*
X167684651Y-130497709D01*
X167718206Y-130598971D01*
X167724500Y-130637975D01*
X167724500Y-131062024D01*
X167718206Y-131101028D01*
X167684651Y-131202290D01*
X167674500Y-131301647D01*
X167674500Y-131665489D01*
X167654815Y-131732528D01*
X167602011Y-131778283D01*
X167532853Y-131788227D01*
X167469297Y-131759202D01*
X167432794Y-131704493D01*
X167422032Y-131672015D01*
X167387003Y-131566303D01*
X167386999Y-131566297D01*
X167386998Y-131566294D01*
X167297970Y-131421959D01*
X167297967Y-131421955D01*
X167178044Y-131302032D01*
X167178040Y-131302029D01*
X167033705Y-131213001D01*
X167033699Y-131212998D01*
X167033697Y-131212997D01*
X166993892Y-131199807D01*
X166872709Y-131159651D01*
X166773346Y-131149500D01*
X165926662Y-131149500D01*
X165926644Y-131149501D01*
X165827292Y-131159650D01*
X165827289Y-131159651D01*
X165666305Y-131212996D01*
X165666294Y-131213001D01*
X165521959Y-131302029D01*
X165521955Y-131302032D01*
X165402031Y-131421956D01*
X165312999Y-131566297D01*
X165312993Y-131566310D01*
X165283979Y-131653868D01*
X165253955Y-131702544D01*
X163915541Y-133040958D01*
X163854218Y-133074443D01*
X163784526Y-133069459D01*
X163728593Y-133027587D01*
X163704176Y-132962123D01*
X163710154Y-132914272D01*
X163711999Y-132908702D01*
X163712003Y-132908697D01*
X163765349Y-132747708D01*
X163775500Y-132648345D01*
X163775499Y-132051656D01*
X163765349Y-131952292D01*
X163712003Y-131791303D01*
X163711999Y-131791297D01*
X163711998Y-131791294D01*
X163634158Y-131665097D01*
X163615717Y-131597705D01*
X163634158Y-131534903D01*
X163711998Y-131408705D01*
X163711997Y-131408705D01*
X163712003Y-131408697D01*
X163765349Y-131247708D01*
X163775500Y-131148345D01*
X163775499Y-130551656D01*
X163766944Y-130467911D01*
X163765349Y-130452292D01*
X163765348Y-130452289D01*
X163754144Y-130418477D01*
X163712003Y-130291303D01*
X163711999Y-130291297D01*
X163711998Y-130291294D01*
X163622970Y-130146959D01*
X163622967Y-130146955D01*
X163503044Y-130027032D01*
X163503040Y-130027029D01*
X163358705Y-129938001D01*
X163358699Y-129937998D01*
X163358697Y-129937997D01*
X163250644Y-129902192D01*
X163197709Y-129884651D01*
X163098352Y-129874500D01*
X163098345Y-129874500D01*
X162891518Y-129874500D01*
X162824479Y-129854815D01*
X162803837Y-129838181D01*
X161921546Y-128955888D01*
X161921545Y-128955887D01*
X161806807Y-128879222D01*
X161679332Y-128826421D01*
X161679322Y-128826418D01*
X161543996Y-128799500D01*
X161543994Y-128799500D01*
X161543993Y-128799500D01*
X158941520Y-128799500D01*
X158874481Y-128779815D01*
X158853839Y-128763181D01*
X158760188Y-128669530D01*
X158614606Y-128581522D01*
X158606509Y-128578999D01*
X158452196Y-128530914D01*
X158452194Y-128530913D01*
X158452192Y-128530913D01*
X158402778Y-128526423D01*
X158381616Y-128524500D01*
X157868384Y-128524500D01*
X157849145Y-128526248D01*
X157797807Y-128530913D01*
X157635393Y-128581522D01*
X157489811Y-128669530D01*
X157489810Y-128669531D01*
X157387681Y-128771661D01*
X157326358Y-128805146D01*
X157256666Y-128800162D01*
X157212319Y-128771661D01*
X157110188Y-128669530D01*
X156964606Y-128581522D01*
X156956509Y-128578999D01*
X156802196Y-128530914D01*
X156802194Y-128530913D01*
X156802192Y-128530913D01*
X156752778Y-128526423D01*
X156731616Y-128524500D01*
X156218384Y-128524500D01*
X156199145Y-128526248D01*
X156147807Y-128530913D01*
X155985393Y-128581522D01*
X155839811Y-128669530D01*
X155719530Y-128789811D01*
X155631522Y-128935393D01*
X155580913Y-129097807D01*
X155577762Y-129132491D01*
X155574500Y-129168384D01*
X155574500Y-129831616D01*
X155575097Y-129838181D01*
X155580913Y-129902192D01*
X155580913Y-129902194D01*
X155580914Y-129902196D01*
X155631522Y-130064606D01*
X155715386Y-130203334D01*
X155719530Y-130210188D01*
X155839811Y-130330469D01*
X155839813Y-130330470D01*
X155839815Y-130330472D01*
X155985394Y-130418478D01*
X156147804Y-130469086D01*
X156218384Y-130475500D01*
X156218387Y-130475500D01*
X156731613Y-130475500D01*
X156731616Y-130475500D01*
X156802196Y-130469086D01*
X156964606Y-130418478D01*
X157110185Y-130330472D01*
X157149363Y-130291294D01*
X157212319Y-130228339D01*
X157273642Y-130194854D01*
X157343334Y-130199838D01*
X157387681Y-130228339D01*
X157489811Y-130330469D01*
X157489813Y-130330470D01*
X157489815Y-130330472D01*
X157635394Y-130418478D01*
X157797804Y-130469086D01*
X157868384Y-130475500D01*
X157868387Y-130475500D01*
X158381613Y-130475500D01*
X158381616Y-130475500D01*
X158452196Y-130469086D01*
X158614606Y-130418478D01*
X158760185Y-130330472D01*
X158799363Y-130291294D01*
X158853839Y-130236819D01*
X158915162Y-130203334D01*
X158941520Y-130200500D01*
X160246893Y-130200500D01*
X160313932Y-130220185D01*
X160359687Y-130272989D01*
X160369631Y-130342147D01*
X160364599Y-130363504D01*
X160335144Y-130452393D01*
X160325000Y-130551677D01*
X160325000Y-130600000D01*
X161151000Y-130600000D01*
X161218039Y-130619685D01*
X161263794Y-130672489D01*
X161275000Y-130724000D01*
X161275000Y-130850000D01*
X161401000Y-130850000D01*
X161468039Y-130869685D01*
X161513794Y-130922489D01*
X161525000Y-130974000D01*
X161525000Y-133324999D01*
X161548308Y-133324999D01*
X161548322Y-133324998D01*
X161647607Y-133314855D01*
X161808481Y-133261547D01*
X161808492Y-133261542D01*
X161952731Y-133172573D01*
X161961959Y-133163345D01*
X162023279Y-133129856D01*
X162092971Y-133134835D01*
X162137327Y-133163339D01*
X162146955Y-133172967D01*
X162146959Y-133172970D01*
X162291294Y-133261998D01*
X162291297Y-133261999D01*
X162291303Y-133262003D01*
X162452292Y-133315349D01*
X162551655Y-133325500D01*
X163098344Y-133325499D01*
X163098352Y-133325498D01*
X163098355Y-133325498D01*
X163167086Y-133318477D01*
X163197708Y-133315349D01*
X163358697Y-133262003D01*
X163358702Y-133261999D01*
X163364272Y-133260154D01*
X163434101Y-133257752D01*
X163494143Y-133293483D01*
X163525336Y-133356004D01*
X163517776Y-133425463D01*
X163490958Y-133465541D01*
X161404825Y-135551674D01*
X161343502Y-135585159D01*
X161273810Y-135580175D01*
X161229463Y-135551674D01*
X161217162Y-135539373D01*
X161077860Y-135446295D01*
X160923082Y-135382184D01*
X160923074Y-135382182D01*
X160758771Y-135349500D01*
X160758767Y-135349500D01*
X160591233Y-135349500D01*
X160591228Y-135349500D01*
X160426925Y-135382182D01*
X160426917Y-135382184D01*
X160272138Y-135446296D01*
X160207302Y-135489618D01*
X160162604Y-135508132D01*
X160070677Y-135526418D01*
X160070669Y-135526420D01*
X159943192Y-135579222D01*
X159828453Y-135655888D01*
X158264887Y-137219454D01*
X158204722Y-137309499D01*
X158188225Y-137334188D01*
X158188222Y-137334193D01*
X158135421Y-137461667D01*
X158135418Y-137461677D01*
X158108500Y-137597004D01*
X158108500Y-137597007D01*
X158108500Y-138948104D01*
X158108500Y-139086092D01*
X158108500Y-139086094D01*
X158108499Y-139086094D01*
X158135418Y-139221420D01*
X158135421Y-139221430D01*
X158188222Y-139348905D01*
X158253797Y-139447046D01*
X158264886Y-139463641D01*
X158323564Y-139522319D01*
X158357048Y-139583640D01*
X158352064Y-139653332D01*
X158310193Y-139709266D01*
X158292186Y-139720479D01*
X158289357Y-139721920D01*
X158201308Y-139785892D01*
X158128839Y-139838544D01*
X158128837Y-139838546D01*
X158128836Y-139838546D01*
X157988546Y-139978836D01*
X157988546Y-139978837D01*
X157988544Y-139978839D01*
X157953325Y-140027314D01*
X157871926Y-140139349D01*
X157871924Y-140139352D01*
X157781850Y-140316131D01*
X157760881Y-140380667D01*
X157720537Y-140504832D01*
X157720536Y-140504835D01*
X157720536Y-140504837D01*
X157689500Y-140700790D01*
X157689500Y-140899209D01*
X157720223Y-141093186D01*
X157720537Y-141095168D01*
X157730820Y-141126814D01*
X157781850Y-141283868D01*
X157810541Y-141340176D01*
X157871923Y-141460646D01*
X157988544Y-141621161D01*
X158128839Y-141761456D01*
X158289354Y-141878077D01*
X158402800Y-141935880D01*
X158466131Y-141968149D01*
X158466133Y-141968149D01*
X158466136Y-141968151D01*
X158654832Y-142029463D01*
X158752814Y-142044981D01*
X158850791Y-142060500D01*
X158850796Y-142060500D01*
X159049209Y-142060500D01*
X159138278Y-142046392D01*
X159245168Y-142029463D01*
X159433864Y-141968151D01*
X159610646Y-141878077D01*
X159771161Y-141761456D01*
X159882319Y-141650298D01*
X159943642Y-141616813D01*
X160013334Y-141621797D01*
X160057681Y-141650298D01*
X160168839Y-141761456D01*
X160329354Y-141878077D01*
X160442800Y-141935880D01*
X160506131Y-141968149D01*
X160506133Y-141968149D01*
X160506136Y-141968151D01*
X160694832Y-142029463D01*
X160792814Y-142044981D01*
X160890791Y-142060500D01*
X160890796Y-142060500D01*
X161089209Y-142060500D01*
X161178278Y-142046392D01*
X161285168Y-142029463D01*
X161473864Y-141968151D01*
X161650646Y-141878077D01*
X161811161Y-141761456D01*
X161951456Y-141621161D01*
X162068077Y-141460646D01*
X162113470Y-141371554D01*
X162136269Y-141340176D01*
X162587861Y-140888584D01*
X162610667Y-140973694D01*
X162669910Y-141076306D01*
X162753694Y-141160090D01*
X162856306Y-141219333D01*
X162941414Y-141242137D01*
X162332714Y-141850837D01*
X162332715Y-141850838D01*
X162369612Y-141877645D01*
X162546327Y-141967688D01*
X162546330Y-141967689D01*
X162734947Y-142028973D01*
X162930837Y-142060000D01*
X163129163Y-142060000D01*
X163325052Y-142028973D01*
X163513669Y-141967689D01*
X163513672Y-141967688D01*
X163690382Y-141877648D01*
X163727283Y-141850837D01*
X163727284Y-141850836D01*
X163118585Y-141242137D01*
X163203694Y-141219333D01*
X163306306Y-141160090D01*
X163390090Y-141076306D01*
X163449333Y-140973694D01*
X163472138Y-140888585D01*
X164080836Y-141497284D01*
X164080837Y-141497283D01*
X164107648Y-141460382D01*
X164197688Y-141283672D01*
X164197689Y-141283669D01*
X164258973Y-141095052D01*
X164290000Y-140899163D01*
X164290000Y-140700836D01*
X164258973Y-140504947D01*
X164197689Y-140316330D01*
X164197688Y-140316327D01*
X164107645Y-140139612D01*
X164080838Y-140102715D01*
X164080837Y-140102714D01*
X163472137Y-140711414D01*
X163449333Y-140626306D01*
X163390090Y-140523694D01*
X163306306Y-140439910D01*
X163203694Y-140380667D01*
X163118584Y-140357861D01*
X163727283Y-139749161D01*
X163727283Y-139749160D01*
X163721305Y-139744817D01*
X163678639Y-139689488D01*
X163672660Y-139619874D01*
X163705265Y-139558079D01*
X163766104Y-139523722D01*
X163794184Y-139520499D01*
X164857872Y-139520499D01*
X164917483Y-139514091D01*
X165052331Y-139463796D01*
X165167546Y-139377546D01*
X165253796Y-139262331D01*
X165304091Y-139127483D01*
X165310500Y-139067873D01*
X165310499Y-137452128D01*
X165304091Y-137392517D01*
X165292196Y-137360626D01*
X165253797Y-137257671D01*
X165253793Y-137257664D01*
X165167547Y-137142455D01*
X165167544Y-137142452D01*
X165052335Y-137056206D01*
X165052328Y-137056202D01*
X164917482Y-137005908D01*
X164917483Y-137005908D01*
X164857883Y-136999501D01*
X164857881Y-136999500D01*
X164857873Y-136999500D01*
X164857864Y-136999500D01*
X163242129Y-136999500D01*
X163242123Y-136999501D01*
X163182516Y-137005908D01*
X163047671Y-137056202D01*
X163047664Y-137056206D01*
X162932455Y-137142452D01*
X162932454Y-137142453D01*
X162894340Y-137193366D01*
X162892362Y-137194846D01*
X162891411Y-137197126D01*
X162864549Y-137215666D01*
X162838406Y-137235236D01*
X162835940Y-137235412D01*
X162833908Y-137236815D01*
X162801290Y-137237889D01*
X162768714Y-137240219D01*
X162765780Y-137239059D01*
X162764076Y-137239116D01*
X162754519Y-137234611D01*
X162731506Y-137225519D01*
X162726705Y-137222652D01*
X162670646Y-137181923D01*
X162587756Y-137139689D01*
X162584194Y-137137562D01*
X162563167Y-137114851D01*
X162540673Y-137093607D01*
X162539641Y-137089441D01*
X162536726Y-137086293D01*
X162531315Y-137055823D01*
X162523877Y-137025786D01*
X162525261Y-137021724D01*
X162524511Y-137017499D01*
X162536432Y-136988940D01*
X162546414Y-136959651D01*
X162550869Y-136954358D01*
X162551427Y-136953023D01*
X162552779Y-136952089D01*
X162560076Y-136943421D01*
X166416680Y-133086818D01*
X166478003Y-133053333D01*
X166504361Y-133050499D01*
X166773338Y-133050499D01*
X166773344Y-133050499D01*
X166773352Y-133050498D01*
X166773355Y-133050498D01*
X166827760Y-133044940D01*
X166872708Y-133040349D01*
X167033697Y-132987003D01*
X167178044Y-132897968D01*
X167297968Y-132778044D01*
X167387003Y-132633697D01*
X167440349Y-132472708D01*
X167450500Y-132373345D01*
X167450499Y-132059508D01*
X167454931Y-132044412D01*
X167454391Y-132028686D01*
X167464573Y-132011576D01*
X167470183Y-131992471D01*
X167482076Y-131982165D01*
X167490123Y-131968644D01*
X167507939Y-131959754D01*
X167522987Y-131946716D01*
X167538561Y-131944476D01*
X167552643Y-131937451D01*
X167572438Y-131939605D01*
X167592146Y-131936772D01*
X167606458Y-131943308D01*
X167622102Y-131945011D01*
X167637590Y-131957526D01*
X167655701Y-131965797D01*
X167664913Y-131979603D01*
X167676448Y-131988924D01*
X167692205Y-132020506D01*
X167718206Y-132098971D01*
X167724500Y-132137975D01*
X167724500Y-132562024D01*
X167718206Y-132601028D01*
X167684651Y-132702290D01*
X167674500Y-132801647D01*
X167674500Y-133398337D01*
X167674501Y-133398355D01*
X167684650Y-133497707D01*
X167684651Y-133497710D01*
X167718206Y-133598971D01*
X167724500Y-133637975D01*
X167724500Y-135413696D01*
X167759103Y-135587658D01*
X167759105Y-135587666D01*
X167787363Y-135655886D01*
X167787363Y-135655887D01*
X167826984Y-135751542D01*
X167826986Y-135751545D01*
X167826987Y-135751547D01*
X167838545Y-135768844D01*
X167861203Y-135802755D01*
X167925537Y-135899038D01*
X167925540Y-135899041D01*
X169563181Y-137536681D01*
X169596666Y-137598004D01*
X169599500Y-137624360D01*
X169599500Y-137673335D01*
X169599501Y-137673355D01*
X169609650Y-137772707D01*
X169609651Y-137772710D01*
X169662996Y-137933694D01*
X169663001Y-137933705D01*
X169752029Y-138078040D01*
X169752032Y-138078044D01*
X169871955Y-138197967D01*
X169871959Y-138197970D01*
X170016294Y-138286998D01*
X170016297Y-138286999D01*
X170016303Y-138287003D01*
X170177292Y-138340349D01*
X170276655Y-138350500D01*
X170823344Y-138350499D01*
X170823352Y-138350498D01*
X170823355Y-138350498D01*
X170877760Y-138344940D01*
X170922708Y-138340349D01*
X171083697Y-138287003D01*
X171228044Y-138197968D01*
X171347968Y-138078044D01*
X171437003Y-137933697D01*
X171490349Y-137772708D01*
X171500500Y-137673345D01*
X171500499Y-136826656D01*
X171496543Y-136787933D01*
X171490349Y-136727292D01*
X171490348Y-136727289D01*
X171453546Y-136616228D01*
X171437003Y-136566303D01*
X171436997Y-136566294D01*
X171420385Y-136539362D01*
X171401944Y-136471970D01*
X171422866Y-136405306D01*
X171476507Y-136360536D01*
X171545838Y-136351874D01*
X171564240Y-136356333D01*
X171580705Y-136361682D01*
X171580704Y-136361682D01*
X171759494Y-136390000D01*
X171940506Y-136390000D01*
X172119293Y-136361682D01*
X172291444Y-136305748D01*
X172291452Y-136305745D01*
X172452730Y-136223568D01*
X172468532Y-136212085D01*
X171846446Y-135590000D01*
X171896078Y-135590000D01*
X171985095Y-135566148D01*
X172064905Y-135520070D01*
X172130070Y-135454905D01*
X172176148Y-135375095D01*
X172200000Y-135286078D01*
X172200000Y-135236446D01*
X172822085Y-135858532D01*
X172833567Y-135842731D01*
X172833572Y-135842723D01*
X172878270Y-135755000D01*
X172874000Y-135755000D01*
X172806961Y-135735315D01*
X172761206Y-135682511D01*
X172750000Y-135631000D01*
X172750000Y-134799000D01*
X172769685Y-134731961D01*
X172822489Y-134686206D01*
X172874000Y-134675000D01*
X173051500Y-134675000D01*
X173118539Y-134694685D01*
X173164294Y-134747489D01*
X173175500Y-134799000D01*
X173175500Y-136247125D01*
X173155815Y-136314164D01*
X173139182Y-136334806D01*
X173052029Y-136421959D01*
X172963001Y-136566294D01*
X172962996Y-136566305D01*
X172909651Y-136727290D01*
X172899500Y-136826647D01*
X172899500Y-137673337D01*
X172899501Y-137673355D01*
X172909650Y-137772707D01*
X172909651Y-137772710D01*
X172962996Y-137933694D01*
X172963001Y-137933705D01*
X173052029Y-138078040D01*
X173052032Y-138078044D01*
X173171955Y-138197967D01*
X173171959Y-138197970D01*
X173316294Y-138286998D01*
X173316297Y-138286999D01*
X173316303Y-138287003D01*
X173477292Y-138340349D01*
X173576655Y-138350500D01*
X174123344Y-138350499D01*
X174123352Y-138350498D01*
X174123355Y-138350498D01*
X174177760Y-138344940D01*
X174222708Y-138340349D01*
X174383697Y-138287003D01*
X174528044Y-138197968D01*
X174539193Y-138186819D01*
X174600516Y-138153334D01*
X174626874Y-138150500D01*
X175705464Y-138150500D01*
X175772503Y-138170185D01*
X175778344Y-138174178D01*
X175917184Y-138275051D01*
X176106588Y-138371557D01*
X176308757Y-138437246D01*
X176518713Y-138470500D01*
X176518714Y-138470500D01*
X176731286Y-138470500D01*
X176731287Y-138470500D01*
X176941243Y-138437246D01*
X177143412Y-138371557D01*
X177332816Y-138275051D01*
X177438910Y-138197970D01*
X177504786Y-138150109D01*
X177504788Y-138150106D01*
X177504792Y-138150104D01*
X177655104Y-137999792D01*
X177655106Y-137999788D01*
X177655109Y-137999786D01*
X177780048Y-137827820D01*
X177780047Y-137827820D01*
X177780051Y-137827816D01*
X177876557Y-137638412D01*
X177942246Y-137436243D01*
X177975500Y-137226287D01*
X177975500Y-137013713D01*
X177950715Y-136857227D01*
X177959670Y-136787933D01*
X177985504Y-136750151D01*
X179419114Y-135316543D01*
X179495775Y-135201811D01*
X179548580Y-135074328D01*
X179553883Y-135047670D01*
X179586267Y-134985759D01*
X179646983Y-134951185D01*
X179716753Y-134954924D01*
X179773425Y-134995790D01*
X179799006Y-135060808D01*
X179799500Y-135071861D01*
X179799500Y-140226000D01*
X179779815Y-140293039D01*
X179727011Y-140338794D01*
X179675500Y-140350000D01*
X179650000Y-140350000D01*
X179650000Y-143090000D01*
X179673244Y-143089577D01*
X179740630Y-143108038D01*
X179787338Y-143160000D01*
X179799500Y-143213556D01*
X179799500Y-148631377D01*
X179790857Y-148660808D01*
X179784341Y-148690787D01*
X179780578Y-148695814D01*
X179779815Y-148698416D01*
X179763195Y-148719044D01*
X179628885Y-148853395D01*
X179567569Y-148886888D01*
X179541228Y-148889726D01*
X146958813Y-148899272D01*
X146891768Y-148879607D01*
X146871110Y-148862968D01*
X146737045Y-148728947D01*
X146703550Y-148667629D01*
X146700712Y-148641255D01*
X146700669Y-147279792D01*
X146700638Y-146293713D01*
X147849500Y-146293713D01*
X147849500Y-146506286D01*
X147882753Y-146716239D01*
X147948444Y-146918414D01*
X148044951Y-147107820D01*
X148169890Y-147279786D01*
X148320213Y-147430109D01*
X148492179Y-147555048D01*
X148492181Y-147555049D01*
X148492184Y-147555051D01*
X148681588Y-147651557D01*
X148883757Y-147717246D01*
X149093713Y-147750500D01*
X149093714Y-147750500D01*
X149306286Y-147750500D01*
X149306287Y-147750500D01*
X149516243Y-147717246D01*
X149718412Y-147651557D01*
X149907816Y-147555051D01*
X149929789Y-147539086D01*
X150079786Y-147430109D01*
X150079788Y-147430106D01*
X150079792Y-147430104D01*
X150230104Y-147279792D01*
X150230106Y-147279788D01*
X150230109Y-147279786D01*
X150355048Y-147107820D01*
X150355047Y-147107820D01*
X150355051Y-147107816D01*
X150451557Y-146918412D01*
X150517246Y-146716243D01*
X150550500Y-146506287D01*
X150550500Y-146293713D01*
X175949500Y-146293713D01*
X175949500Y-146506286D01*
X175982753Y-146716239D01*
X176048444Y-146918414D01*
X176144951Y-147107820D01*
X176269890Y-147279786D01*
X176420213Y-147430109D01*
X176592179Y-147555048D01*
X176592181Y-147555049D01*
X176592184Y-147555051D01*
X176781588Y-147651557D01*
X176983757Y-147717246D01*
X177193713Y-147750500D01*
X177193714Y-147750500D01*
X177406286Y-147750500D01*
X177406287Y-147750500D01*
X177616243Y-147717246D01*
X177818412Y-147651557D01*
X178007816Y-147555051D01*
X178029789Y-147539086D01*
X178179786Y-147430109D01*
X178179788Y-147430106D01*
X178179792Y-147430104D01*
X178330104Y-147279792D01*
X178330106Y-147279788D01*
X178330109Y-147279786D01*
X178455048Y-147107820D01*
X178455047Y-147107820D01*
X178455051Y-147107816D01*
X178551557Y-146918412D01*
X178617246Y-146716243D01*
X178650500Y-146506287D01*
X178650500Y-146293713D01*
X178617246Y-146083757D01*
X178551557Y-145881588D01*
X178455051Y-145692184D01*
X178455049Y-145692181D01*
X178455048Y-145692179D01*
X178330109Y-145520213D01*
X178179786Y-145369890D01*
X178007820Y-145244951D01*
X177818414Y-145148444D01*
X177818413Y-145148443D01*
X177818412Y-145148443D01*
X177616243Y-145082754D01*
X177616241Y-145082753D01*
X177616240Y-145082753D01*
X177454957Y-145057208D01*
X177406287Y-145049500D01*
X177193713Y-145049500D01*
X177145042Y-145057208D01*
X176983760Y-145082753D01*
X176781585Y-145148444D01*
X176592179Y-145244951D01*
X176420213Y-145369890D01*
X176269890Y-145520213D01*
X176144951Y-145692179D01*
X176048444Y-145881585D01*
X175982753Y-146083760D01*
X175949500Y-146293713D01*
X150550500Y-146293713D01*
X150517246Y-146083757D01*
X150451557Y-145881588D01*
X150355051Y-145692184D01*
X150355049Y-145692181D01*
X150355048Y-145692179D01*
X150230109Y-145520213D01*
X150079786Y-145369890D01*
X149907820Y-145244951D01*
X149718414Y-145148444D01*
X149718413Y-145148443D01*
X149718412Y-145148443D01*
X149516243Y-145082754D01*
X149516241Y-145082753D01*
X149516240Y-145082753D01*
X149354957Y-145057208D01*
X149306287Y-145049500D01*
X149093713Y-145049500D01*
X149045042Y-145057208D01*
X148883760Y-145082753D01*
X148681585Y-145148444D01*
X148492179Y-145244951D01*
X148320213Y-145369890D01*
X148169890Y-145520213D01*
X148044951Y-145692179D01*
X147948444Y-145881585D01*
X147882753Y-146083760D01*
X147849500Y-146293713D01*
X146700638Y-146293713D01*
X146700534Y-142989778D01*
X154099500Y-142989778D01*
X154099500Y-143210221D01*
X154133985Y-143427952D01*
X154202103Y-143637603D01*
X154202104Y-143637606D01*
X154302187Y-143834025D01*
X154431752Y-144012358D01*
X154431756Y-144012363D01*
X154587636Y-144168243D01*
X154587641Y-144168247D01*
X154743192Y-144281260D01*
X154765978Y-144297815D01*
X154894375Y-144363237D01*
X154962393Y-144397895D01*
X154962396Y-144397896D01*
X155067221Y-144431955D01*
X155172049Y-144466015D01*
X155389778Y-144500500D01*
X155389779Y-144500500D01*
X155610221Y-144500500D01*
X155610222Y-144500500D01*
X155827951Y-144466015D01*
X156037606Y-144397895D01*
X156234022Y-144297815D01*
X156412365Y-144168242D01*
X156568242Y-144012365D01*
X156697815Y-143834022D01*
X156797895Y-143637606D01*
X156866015Y-143427951D01*
X156900500Y-143210222D01*
X156900500Y-142989778D01*
X166099500Y-142989778D01*
X166099500Y-143210221D01*
X166133985Y-143427952D01*
X166202103Y-143637603D01*
X166202104Y-143637606D01*
X166302187Y-143834025D01*
X166431752Y-144012358D01*
X166431756Y-144012363D01*
X166587636Y-144168243D01*
X166587641Y-144168247D01*
X166743192Y-144281260D01*
X166765978Y-144297815D01*
X166894375Y-144363237D01*
X166962393Y-144397895D01*
X166962396Y-144397896D01*
X167067221Y-144431955D01*
X167172049Y-144466015D01*
X167389778Y-144500500D01*
X167389779Y-144500500D01*
X167610221Y-144500500D01*
X167610222Y-144500500D01*
X167827951Y-144466015D01*
X168037606Y-144397895D01*
X168234022Y-144297815D01*
X168412365Y-144168242D01*
X168568242Y-144012365D01*
X168697815Y-143834022D01*
X168797895Y-143637606D01*
X168866015Y-143427951D01*
X168900500Y-143210222D01*
X168900500Y-142989778D01*
X168866015Y-142772049D01*
X168828703Y-142657212D01*
X168797896Y-142562396D01*
X168797895Y-142562393D01*
X168732529Y-142434108D01*
X168697815Y-142365978D01*
X168571912Y-142192686D01*
X168568247Y-142187641D01*
X168568243Y-142187636D01*
X168412363Y-142031756D01*
X168412358Y-142031752D01*
X168234025Y-141902187D01*
X168234024Y-141902186D01*
X168234022Y-141902185D01*
X168133247Y-141850837D01*
X168037606Y-141802104D01*
X168037603Y-141802103D01*
X167827952Y-141733985D01*
X167713748Y-141715897D01*
X167610222Y-141699500D01*
X167389778Y-141699500D01*
X167317201Y-141710995D01*
X167172047Y-141733985D01*
X166962396Y-141802103D01*
X166962393Y-141802104D01*
X166765974Y-141902187D01*
X166587641Y-142031752D01*
X166587636Y-142031756D01*
X166431756Y-142187636D01*
X166431752Y-142187641D01*
X166302187Y-142365974D01*
X166202104Y-142562393D01*
X166202103Y-142562396D01*
X166133985Y-142772047D01*
X166099500Y-142989778D01*
X156900500Y-142989778D01*
X156866015Y-142772049D01*
X156828703Y-142657212D01*
X156797896Y-142562396D01*
X156797895Y-142562393D01*
X156732529Y-142434108D01*
X156697815Y-142365978D01*
X156571912Y-142192686D01*
X156568247Y-142187641D01*
X156568243Y-142187636D01*
X156412363Y-142031756D01*
X156412358Y-142031752D01*
X156234025Y-141902187D01*
X156234024Y-141902186D01*
X156234022Y-141902185D01*
X156133247Y-141850837D01*
X156037606Y-141802104D01*
X156037603Y-141802103D01*
X155827952Y-141733985D01*
X155713748Y-141715897D01*
X155610222Y-141699500D01*
X155389778Y-141699500D01*
X155317201Y-141710995D01*
X155172047Y-141733985D01*
X154962396Y-141802103D01*
X154962393Y-141802104D01*
X154765974Y-141902187D01*
X154587641Y-142031752D01*
X154587636Y-142031756D01*
X154431756Y-142187636D01*
X154431752Y-142187641D01*
X154302187Y-142365974D01*
X154202104Y-142562393D01*
X154202103Y-142562396D01*
X154133985Y-142772047D01*
X154099500Y-142989778D01*
X146700534Y-142989778D01*
X146700505Y-142063175D01*
X146720186Y-141996140D01*
X146772989Y-141950383D01*
X146781872Y-141948334D01*
X146790000Y-141940001D01*
X146790000Y-139310000D01*
X146775658Y-139295658D01*
X146757461Y-139290315D01*
X146711706Y-139237511D01*
X146700500Y-139186000D01*
X146700500Y-136616228D01*
X155749500Y-136616228D01*
X155749500Y-136783771D01*
X155782182Y-136948074D01*
X155782184Y-136948082D01*
X155846295Y-137102860D01*
X155939373Y-137242162D01*
X156057837Y-137360626D01*
X156105566Y-137392517D01*
X156197137Y-137453703D01*
X156197138Y-137453703D01*
X156197139Y-137453704D01*
X156216388Y-137461677D01*
X156351918Y-137517816D01*
X156446760Y-137536681D01*
X156516228Y-137550499D01*
X156516232Y-137550500D01*
X156516233Y-137550500D01*
X156683768Y-137550500D01*
X156683769Y-137550499D01*
X156848082Y-137517816D01*
X157002863Y-137453703D01*
X157142162Y-137360626D01*
X157260626Y-137242162D01*
X157353703Y-137102863D01*
X157417816Y-136948082D01*
X157450500Y-136783767D01*
X157450500Y-136750096D01*
X157470185Y-136683057D01*
X157486815Y-136662419D01*
X158283506Y-135865727D01*
X158283511Y-135865724D01*
X158293714Y-135855520D01*
X158293716Y-135855520D01*
X158405520Y-135743716D01*
X158478651Y-135617049D01*
X158484577Y-135606785D01*
X158525501Y-135454057D01*
X158525501Y-135295943D01*
X158525501Y-135288348D01*
X158525500Y-135288330D01*
X158525500Y-134689767D01*
X158545185Y-134622728D01*
X158546398Y-134620876D01*
X158590080Y-134555501D01*
X158590080Y-134555500D01*
X158590084Y-134555495D01*
X158646658Y-134418913D01*
X158668631Y-134308451D01*
X158675500Y-134273920D01*
X158675500Y-134126079D01*
X158646659Y-133981092D01*
X158646658Y-133981091D01*
X158646658Y-133981087D01*
X158640365Y-133965894D01*
X158590087Y-133844511D01*
X158590080Y-133844498D01*
X158507951Y-133721584D01*
X158507948Y-133721580D01*
X158403419Y-133617051D01*
X158403415Y-133617048D01*
X158301687Y-133549075D01*
X158256882Y-133495463D01*
X158248175Y-133426138D01*
X158278330Y-133363110D01*
X158333689Y-133327587D01*
X158364398Y-133318017D01*
X158509877Y-133230072D01*
X158509878Y-133230071D01*
X158611963Y-133127985D01*
X158673286Y-133094499D01*
X158742977Y-133099483D01*
X158787326Y-133127984D01*
X158889811Y-133230469D01*
X158889813Y-133230470D01*
X158889815Y-133230472D01*
X159035394Y-133318478D01*
X159197804Y-133369086D01*
X159268384Y-133375500D01*
X159268387Y-133375500D01*
X159781613Y-133375500D01*
X159781616Y-133375500D01*
X159852196Y-133369086D01*
X160014606Y-133318478D01*
X160160185Y-133230472D01*
X160280472Y-133110185D01*
X160294443Y-133087074D01*
X160345966Y-133039889D01*
X160414825Y-133028049D01*
X160479155Y-133055316D01*
X160488239Y-133063544D01*
X160597267Y-133172572D01*
X160597271Y-133172575D01*
X160741507Y-133261542D01*
X160741518Y-133261547D01*
X160902393Y-133314855D01*
X161001683Y-133324999D01*
X161025000Y-133324998D01*
X161025000Y-131100000D01*
X160325001Y-131100000D01*
X160325001Y-131148322D01*
X160335144Y-131247607D01*
X160388452Y-131408481D01*
X160388457Y-131408492D01*
X160458173Y-131521518D01*
X160476614Y-131588910D01*
X160455692Y-131655574D01*
X160402050Y-131700344D01*
X160332719Y-131709005D01*
X160269712Y-131678809D01*
X160264954Y-131674296D01*
X160160188Y-131569530D01*
X160154853Y-131566305D01*
X160014606Y-131481522D01*
X159852196Y-131430914D01*
X159852194Y-131430913D01*
X159852192Y-131430913D01*
X159802778Y-131426423D01*
X159781616Y-131424500D01*
X159268384Y-131424500D01*
X159249145Y-131426248D01*
X159197807Y-131430913D01*
X159035393Y-131481522D01*
X158889811Y-131569530D01*
X158889810Y-131569531D01*
X158787327Y-131672015D01*
X158726004Y-131705500D01*
X158656312Y-131700516D01*
X158611965Y-131672015D01*
X158509877Y-131569927D01*
X158364395Y-131481980D01*
X158364396Y-131481980D01*
X158202105Y-131431409D01*
X158202106Y-131431409D01*
X158131572Y-131425000D01*
X158125000Y-131425000D01*
X158125000Y-132276000D01*
X158105315Y-132343039D01*
X158052511Y-132388794D01*
X158001000Y-132400000D01*
X157875000Y-132400000D01*
X157875000Y-132526000D01*
X157855315Y-132593039D01*
X157802511Y-132638794D01*
X157751000Y-132650000D01*
X156975001Y-132650000D01*
X156975001Y-132731582D01*
X156981408Y-132802102D01*
X156981409Y-132802107D01*
X157031981Y-132964396D01*
X157119927Y-133109877D01*
X157240122Y-133230072D01*
X157385604Y-133318019D01*
X157385603Y-133318019D01*
X157484508Y-133348839D01*
X157542656Y-133387576D01*
X157570630Y-133451601D01*
X157559548Y-133520587D01*
X157516509Y-133570326D01*
X157446584Y-133617048D01*
X157446580Y-133617051D01*
X157342051Y-133721580D01*
X157342048Y-133721584D01*
X157259919Y-133844498D01*
X157259912Y-133844511D01*
X157203343Y-133981082D01*
X157203340Y-133981092D01*
X157174500Y-134126079D01*
X157174500Y-134126082D01*
X157174500Y-134273918D01*
X157174500Y-134273920D01*
X157174499Y-134273920D01*
X157203340Y-134418907D01*
X157203343Y-134418917D01*
X157259912Y-134555488D01*
X157259919Y-134555501D01*
X157303602Y-134620876D01*
X157324480Y-134687553D01*
X157324500Y-134689767D01*
X157324500Y-135074903D01*
X157304815Y-135141942D01*
X157288181Y-135162584D01*
X156637584Y-135813181D01*
X156576261Y-135846666D01*
X156549903Y-135849500D01*
X156516228Y-135849500D01*
X156351925Y-135882182D01*
X156351917Y-135882184D01*
X156197139Y-135946295D01*
X156057837Y-136039373D01*
X155939373Y-136157837D01*
X155846295Y-136297139D01*
X155782184Y-136451917D01*
X155782182Y-136451925D01*
X155749500Y-136616228D01*
X146700500Y-136616228D01*
X146700500Y-132068427D01*
X156975000Y-132068427D01*
X156975000Y-132150000D01*
X157625000Y-132150000D01*
X157625000Y-131425000D01*
X157624999Y-131424999D01*
X157618436Y-131425000D01*
X157618417Y-131425001D01*
X157547897Y-131431408D01*
X157547892Y-131431409D01*
X157385603Y-131481981D01*
X157240122Y-131569927D01*
X157119927Y-131690122D01*
X157031980Y-131835604D01*
X156981409Y-131997893D01*
X156975000Y-132068427D01*
X146700500Y-132068427D01*
X146700500Y-123247844D01*
X148000000Y-123247844D01*
X148006401Y-123307372D01*
X148006403Y-123307379D01*
X148056645Y-123442086D01*
X148056649Y-123442093D01*
X148142809Y-123557187D01*
X148142812Y-123557190D01*
X148257906Y-123643350D01*
X148257913Y-123643354D01*
X148392620Y-123693596D01*
X148392627Y-123693598D01*
X148452155Y-123699999D01*
X148452172Y-123700000D01*
X148575000Y-123700000D01*
X149075000Y-123700000D01*
X149197828Y-123700000D01*
X149197844Y-123699999D01*
X149257372Y-123693598D01*
X149257379Y-123693596D01*
X149392086Y-123643354D01*
X149392093Y-123643350D01*
X149507187Y-123557190D01*
X149507190Y-123557187D01*
X149593350Y-123442093D01*
X149593354Y-123442086D01*
X149643596Y-123307379D01*
X149643598Y-123307372D01*
X149649999Y-123247844D01*
X149650000Y-123247827D01*
X149650000Y-122925000D01*
X149075000Y-122925000D01*
X149075000Y-123700000D01*
X148575000Y-123700000D01*
X148575000Y-122925000D01*
X148000000Y-122925000D01*
X148000000Y-123247844D01*
X146700500Y-123247844D01*
X146700500Y-122102155D01*
X148000000Y-122102155D01*
X148000000Y-122425000D01*
X148575000Y-122425000D01*
X149075000Y-122425000D01*
X149650000Y-122425000D01*
X149650000Y-122102172D01*
X149649999Y-122102155D01*
X149643598Y-122042627D01*
X149643596Y-122042620D01*
X149593354Y-121907913D01*
X149593350Y-121907906D01*
X149507190Y-121792812D01*
X149507187Y-121792809D01*
X149392093Y-121706649D01*
X149392086Y-121706645D01*
X149257379Y-121656403D01*
X149257372Y-121656401D01*
X149197844Y-121650000D01*
X149075000Y-121650000D01*
X149075000Y-122425000D01*
X148575000Y-122425000D01*
X148575000Y-121650000D01*
X148452155Y-121650000D01*
X148392627Y-121656401D01*
X148392620Y-121656403D01*
X148257913Y-121706645D01*
X148257906Y-121706649D01*
X148142812Y-121792809D01*
X148142809Y-121792812D01*
X148056649Y-121907906D01*
X148056645Y-121907913D01*
X148006403Y-122042620D01*
X148006401Y-122042627D01*
X148000000Y-122102155D01*
X146700500Y-122102155D01*
X146700500Y-119097844D01*
X148000000Y-119097844D01*
X148006401Y-119157372D01*
X148006403Y-119157379D01*
X148056645Y-119292086D01*
X148056649Y-119292093D01*
X148142809Y-119407187D01*
X148142812Y-119407190D01*
X148257906Y-119493350D01*
X148257913Y-119493354D01*
X148392620Y-119543596D01*
X148392627Y-119543598D01*
X148452155Y-119549999D01*
X148452172Y-119550000D01*
X148575000Y-119550000D01*
X149075000Y-119550000D01*
X149197828Y-119550000D01*
X149197844Y-119549999D01*
X149257372Y-119543598D01*
X149257379Y-119543596D01*
X149392086Y-119493354D01*
X149392093Y-119493350D01*
X149507187Y-119407190D01*
X149507190Y-119407187D01*
X149593350Y-119292093D01*
X149593354Y-119292086D01*
X149643596Y-119157379D01*
X149643598Y-119157372D01*
X149649999Y-119097844D01*
X149650000Y-119097827D01*
X149650000Y-118775000D01*
X149075000Y-118775000D01*
X149075000Y-119550000D01*
X148575000Y-119550000D01*
X148575000Y-118775000D01*
X148000000Y-118775000D01*
X148000000Y-119097844D01*
X146700500Y-119097844D01*
X146700500Y-117952155D01*
X148000000Y-117952155D01*
X148000000Y-118275000D01*
X148575000Y-118275000D01*
X149075000Y-118275000D01*
X149650000Y-118275000D01*
X149650000Y-117952172D01*
X149649999Y-117952155D01*
X149643598Y-117892627D01*
X149643596Y-117892620D01*
X149593354Y-117757913D01*
X149593350Y-117757906D01*
X149507190Y-117642812D01*
X149507187Y-117642809D01*
X149392093Y-117556649D01*
X149392086Y-117556645D01*
X149257379Y-117506403D01*
X149257372Y-117506401D01*
X149197844Y-117500000D01*
X149075000Y-117500000D01*
X149075000Y-118275000D01*
X148575000Y-118275000D01*
X148575000Y-117500000D01*
X148452155Y-117500000D01*
X148392627Y-117506401D01*
X148392620Y-117506403D01*
X148257913Y-117556645D01*
X148257906Y-117556649D01*
X148142812Y-117642809D01*
X148142809Y-117642812D01*
X148056649Y-117757906D01*
X148056645Y-117757913D01*
X148006403Y-117892620D01*
X148006401Y-117892627D01*
X148000000Y-117952155D01*
X146700500Y-117952155D01*
X146700500Y-115041760D01*
X146720185Y-114974721D01*
X146772989Y-114928966D01*
X146837103Y-114918402D01*
X146901683Y-114924999D01*
X146949999Y-114924998D01*
X146950000Y-114924998D01*
X146950000Y-114099000D01*
X146969685Y-114031961D01*
X147022489Y-113986206D01*
X147074000Y-113975000D01*
X147326000Y-113975000D01*
X147393039Y-113994685D01*
X147438794Y-114047489D01*
X147450000Y-114099000D01*
X147450000Y-114924999D01*
X147498308Y-114924999D01*
X147498322Y-114924998D01*
X147597605Y-114914856D01*
X147724899Y-114872674D01*
X147794727Y-114870272D01*
X147854770Y-114906003D01*
X147870636Y-114927259D01*
X147932314Y-115031552D01*
X147932321Y-115031561D01*
X148048438Y-115147678D01*
X148048447Y-115147685D01*
X148189803Y-115231282D01*
X148189806Y-115231283D01*
X148347504Y-115277099D01*
X148347510Y-115277100D01*
X148384350Y-115279999D01*
X148384366Y-115280000D01*
X149025000Y-115280000D01*
X149525000Y-115280000D01*
X150165634Y-115280000D01*
X150165649Y-115279999D01*
X150202489Y-115277100D01*
X150202495Y-115277099D01*
X150360193Y-115231283D01*
X150360196Y-115231282D01*
X150501552Y-115147685D01*
X150501561Y-115147678D01*
X150617678Y-115031561D01*
X150617685Y-115031552D01*
X150701281Y-114890198D01*
X150747100Y-114732486D01*
X150747295Y-114730001D01*
X150747295Y-114730000D01*
X149525000Y-114730000D01*
X149525000Y-115280000D01*
X149025000Y-115280000D01*
X149025000Y-114604000D01*
X149044685Y-114536961D01*
X149097489Y-114491206D01*
X149149000Y-114480000D01*
X149275000Y-114480000D01*
X149275000Y-114354000D01*
X149294685Y-114286961D01*
X149347489Y-114241206D01*
X149399000Y-114230000D01*
X150747295Y-114230000D01*
X150747295Y-114229998D01*
X150747100Y-114227513D01*
X150701281Y-114069801D01*
X150617685Y-113928447D01*
X150612900Y-113922278D01*
X150615366Y-113920364D01*
X150588802Y-113871776D01*
X150593749Y-113802082D01*
X150614856Y-113769232D01*
X150613301Y-113768026D01*
X150618077Y-113761868D01*
X150618081Y-113761865D01*
X150701744Y-113620398D01*
X150747364Y-113463374D01*
X150747597Y-113462573D01*
X150747598Y-113462567D01*
X150750499Y-113425701D01*
X150750500Y-113425694D01*
X150750500Y-112994306D01*
X150747598Y-112957431D01*
X150717820Y-112854937D01*
X150701745Y-112799606D01*
X150701744Y-112799603D01*
X150701744Y-112799602D01*
X150618081Y-112658135D01*
X150618078Y-112658132D01*
X150613298Y-112651969D01*
X150615750Y-112650066D01*
X150589155Y-112601421D01*
X150594104Y-112531726D01*
X150614940Y-112499304D01*
X150613298Y-112498031D01*
X150618075Y-112491870D01*
X150618081Y-112491865D01*
X150701744Y-112350398D01*
X150747598Y-112192569D01*
X150750500Y-112155694D01*
X150750500Y-111724306D01*
X150747598Y-111687431D01*
X150743986Y-111675000D01*
X150701745Y-111529606D01*
X150701744Y-111529603D01*
X150701744Y-111529602D01*
X150618081Y-111388135D01*
X150618078Y-111388132D01*
X150613298Y-111381969D01*
X150615750Y-111380066D01*
X150589155Y-111331421D01*
X150594104Y-111261726D01*
X150614940Y-111229304D01*
X150613298Y-111228031D01*
X150618075Y-111221870D01*
X150618081Y-111221865D01*
X150701744Y-111080398D01*
X150747598Y-110922569D01*
X150750500Y-110885694D01*
X150750500Y-110454306D01*
X150747598Y-110417431D01*
X150701744Y-110259602D01*
X150618081Y-110118135D01*
X150618079Y-110118133D01*
X150618076Y-110118129D01*
X150501870Y-110001923D01*
X150501862Y-110001917D01*
X150388685Y-109934985D01*
X150382338Y-109931231D01*
X150334656Y-109880163D01*
X150322152Y-109811422D01*
X150348797Y-109746832D01*
X150406132Y-109706902D01*
X150445460Y-109700500D01*
X153055521Y-109700500D01*
X153122560Y-109720185D01*
G37*
G04 #@! TD.AperFunction*
G04 #@! TA.AperFunction,Conductor*
G36*
X162358159Y-139501000D02*
G01*
X162411611Y-139545996D01*
X162432251Y-139612747D01*
X162413526Y-139680061D01*
X162373052Y-139720246D01*
X162369619Y-139722349D01*
X162332715Y-139749160D01*
X162332715Y-139749161D01*
X162941415Y-140357861D01*
X162856306Y-140380667D01*
X162753694Y-140439910D01*
X162669910Y-140523694D01*
X162610667Y-140626306D01*
X162587861Y-140711414D01*
X162136269Y-140259822D01*
X162113466Y-140228437D01*
X162068077Y-140139354D01*
X161951456Y-139978839D01*
X161811161Y-139838544D01*
X161650646Y-139721923D01*
X161650645Y-139721922D01*
X161650639Y-139721918D01*
X161648245Y-139720451D01*
X161647525Y-139719656D01*
X161646704Y-139719059D01*
X161646829Y-139718886D01*
X161601369Y-139668640D01*
X161589945Y-139599711D01*
X161617601Y-139535547D01*
X161675556Y-139496522D01*
X161732429Y-139492250D01*
X161787048Y-139500900D01*
X161910791Y-139520500D01*
X161910796Y-139520500D01*
X162109209Y-139520500D01*
X162288866Y-139492045D01*
X162358159Y-139501000D01*
G37*
G04 #@! TD.AperFunction*
G04 #@! TA.AperFunction,Conductor*
G36*
X170368039Y-130119685D02*
G01*
X170413794Y-130172489D01*
X170425000Y-130224000D01*
X170425000Y-131350000D01*
X171124998Y-131350000D01*
X171128179Y-131346819D01*
X171189501Y-131313333D01*
X171215852Y-131310499D01*
X171692873Y-131310499D01*
X171759910Y-131330184D01*
X171805665Y-131382988D01*
X171815609Y-131452146D01*
X171786584Y-131515702D01*
X171727806Y-131553476D01*
X171712270Y-131556972D01*
X171580589Y-131577829D01*
X171408363Y-131633787D01*
X171408360Y-131633788D01*
X171247002Y-131716006D01*
X171096557Y-131825310D01*
X171095392Y-131823706D01*
X171039273Y-131848859D01*
X171022492Y-131850000D01*
X170425000Y-131850000D01*
X170425000Y-134074999D01*
X170448308Y-134074999D01*
X170448322Y-134074998D01*
X170547607Y-134064855D01*
X170708481Y-134011547D01*
X170708492Y-134011542D01*
X170852728Y-133922575D01*
X170852732Y-133922572D01*
X170972572Y-133802732D01*
X170972575Y-133802728D01*
X171037856Y-133696893D01*
X171089804Y-133650168D01*
X171158766Y-133638947D01*
X171216278Y-133661671D01*
X171247006Y-133683996D01*
X171320768Y-133721580D01*
X171408360Y-133766211D01*
X171408363Y-133766212D01*
X171580590Y-133822171D01*
X171607456Y-133826426D01*
X171706992Y-133842190D01*
X171717225Y-133846196D01*
X171724649Y-133846329D01*
X171756487Y-133861563D01*
X171770011Y-133870600D01*
X171814814Y-133924213D01*
X171823520Y-133993538D01*
X171793363Y-134056565D01*
X171733919Y-134093283D01*
X171720515Y-134096173D01*
X171580706Y-134118316D01*
X171408555Y-134174251D01*
X171408547Y-134174254D01*
X171247269Y-134256432D01*
X171231466Y-134267912D01*
X171231466Y-134267913D01*
X171853554Y-134890000D01*
X171803922Y-134890000D01*
X171714905Y-134913852D01*
X171635095Y-134959930D01*
X171569930Y-135025095D01*
X171523852Y-135104905D01*
X171500000Y-135193922D01*
X171500000Y-135243553D01*
X170877913Y-134621466D01*
X170877912Y-134621466D01*
X170866432Y-134637269D01*
X170784254Y-134798547D01*
X170784251Y-134798555D01*
X170728317Y-134970706D01*
X170700000Y-135149493D01*
X170700000Y-135330506D01*
X170728317Y-135509293D01*
X170784251Y-135681444D01*
X170784252Y-135681447D01*
X170866434Y-135842734D01*
X170947571Y-135954411D01*
X170952310Y-135967695D01*
X170961282Y-135978579D01*
X170963818Y-135999948D01*
X170971051Y-136020217D01*
X170967856Y-136033955D01*
X170969519Y-136047961D01*
X170960099Y-136067310D01*
X170955225Y-136088271D01*
X170945110Y-136098100D01*
X170938937Y-136110782D01*
X170920551Y-136121967D01*
X170905119Y-136136966D01*
X170890114Y-136140486D01*
X170879247Y-136147098D01*
X170853009Y-136149191D01*
X170844199Y-136151258D01*
X170839394Y-136151139D01*
X170823345Y-136149500D01*
X170772850Y-136149500D01*
X170771308Y-136149462D01*
X170739440Y-136139245D01*
X170707323Y-136129815D01*
X170705539Y-136128377D01*
X170704773Y-136128132D01*
X170703860Y-136127024D01*
X170686681Y-136113181D01*
X169561819Y-134988319D01*
X169528334Y-134926996D01*
X169525500Y-134900638D01*
X169525500Y-134144822D01*
X169545185Y-134077783D01*
X169597989Y-134032028D01*
X169667147Y-134022084D01*
X169688505Y-134027116D01*
X169802394Y-134064856D01*
X169901683Y-134074999D01*
X169925000Y-134074998D01*
X169925000Y-130224000D01*
X169944685Y-130156961D01*
X169997489Y-130111206D01*
X170049000Y-130100000D01*
X170301000Y-130100000D01*
X170368039Y-130119685D01*
G37*
G04 #@! TD.AperFunction*
G04 #@! TA.AperFunction,Conductor*
G36*
X173768539Y-128719685D02*
G01*
X173814294Y-128772489D01*
X173825500Y-128824000D01*
X173825500Y-132180388D01*
X173805815Y-132247427D01*
X173753011Y-132293182D01*
X173683853Y-132303126D01*
X173636403Y-132285927D01*
X173558699Y-132237998D01*
X173558694Y-132237996D01*
X173397709Y-132184651D01*
X173298352Y-132174500D01*
X173298345Y-132174500D01*
X172949469Y-132174500D01*
X172882430Y-132154815D01*
X172838985Y-132106797D01*
X172833994Y-132097002D01*
X172727558Y-131950505D01*
X172727554Y-131950500D01*
X172599499Y-131822445D01*
X172599494Y-131822441D01*
X172452997Y-131716006D01*
X172452996Y-131716005D01*
X172452994Y-131716004D01*
X172385793Y-131681763D01*
X172291639Y-131633788D01*
X172291636Y-131633787D01*
X172119410Y-131577829D01*
X171987728Y-131556972D01*
X171924594Y-131527042D01*
X171887663Y-131467731D01*
X171888661Y-131397868D01*
X171927271Y-131339636D01*
X171991235Y-131311522D01*
X172007120Y-131310499D01*
X172547872Y-131310499D01*
X172607483Y-131304091D01*
X172742331Y-131253796D01*
X172857546Y-131167546D01*
X172943796Y-131052331D01*
X172994091Y-130917483D01*
X173000500Y-130857873D01*
X173000499Y-130111590D01*
X173002882Y-130087399D01*
X173025500Y-129973694D01*
X173025500Y-129744822D01*
X173045185Y-129677783D01*
X173097989Y-129632028D01*
X173167147Y-129622084D01*
X173188505Y-129627116D01*
X173302394Y-129664856D01*
X173401683Y-129674999D01*
X173425000Y-129674998D01*
X173425000Y-128824000D01*
X173427550Y-128815314D01*
X173426262Y-128806353D01*
X173437240Y-128782312D01*
X173444685Y-128756961D01*
X173451525Y-128751033D01*
X173455287Y-128742797D01*
X173477521Y-128728507D01*
X173497489Y-128711206D01*
X173508003Y-128708918D01*
X173514065Y-128705023D01*
X173549000Y-128700000D01*
X173701500Y-128700000D01*
X173768539Y-128719685D01*
G37*
G04 #@! TD.AperFunction*
G04 #@! TA.AperFunction,Conductor*
G36*
X179718834Y-116401336D02*
G01*
X179774767Y-116443208D01*
X179799184Y-116508673D01*
X179799500Y-116517518D01*
X179799500Y-127473139D01*
X179779815Y-127540178D01*
X179727011Y-127585933D01*
X179657853Y-127595877D01*
X179594297Y-127566852D01*
X179556523Y-127508074D01*
X179553883Y-127497330D01*
X179551123Y-127483457D01*
X179548580Y-127470672D01*
X179538860Y-127447206D01*
X179495777Y-127343192D01*
X179419112Y-127228454D01*
X179419111Y-127228453D01*
X178398060Y-126207403D01*
X178364575Y-126146080D01*
X178369559Y-126076388D01*
X178411431Y-126020455D01*
X178447419Y-126001792D01*
X178593799Y-125954231D01*
X178797228Y-125850579D01*
X178981937Y-125716379D01*
X179143379Y-125554937D01*
X179277579Y-125370228D01*
X179381231Y-125166799D01*
X179451784Y-124949660D01*
X179457366Y-124914417D01*
X179487500Y-124724162D01*
X179487500Y-124495837D01*
X179451784Y-124270339D01*
X179394776Y-124094889D01*
X179381231Y-124053201D01*
X179381229Y-124053198D01*
X179381229Y-124053196D01*
X179295058Y-123884077D01*
X179277579Y-123849772D01*
X179143379Y-123665063D01*
X178981937Y-123503621D01*
X178974397Y-123498143D01*
X178894382Y-123440007D01*
X178851716Y-123384677D01*
X178845738Y-123315064D01*
X178869234Y-123270534D01*
X178870310Y-123256862D01*
X178207234Y-122593787D01*
X178249292Y-122582518D01*
X178374708Y-122510110D01*
X178477110Y-122407708D01*
X178549518Y-122282292D01*
X178560787Y-122240234D01*
X179223862Y-122903310D01*
X179223862Y-122903309D01*
X179277150Y-122829966D01*
X179380769Y-122626604D01*
X179451295Y-122409544D01*
X179487000Y-122184116D01*
X179487000Y-121955883D01*
X179451295Y-121730455D01*
X179380769Y-121513395D01*
X179277148Y-121310030D01*
X179223863Y-121236689D01*
X179223862Y-121236688D01*
X178560787Y-121899764D01*
X178549518Y-121857708D01*
X178477110Y-121732292D01*
X178374708Y-121629890D01*
X178249292Y-121557482D01*
X178207233Y-121546212D01*
X178870309Y-120883137D01*
X178869105Y-120867845D01*
X178851717Y-120845295D01*
X178845739Y-120775681D01*
X178878346Y-120713887D01*
X178894380Y-120699992D01*
X178981937Y-120636379D01*
X179143379Y-120474937D01*
X179277579Y-120290228D01*
X179381231Y-120086799D01*
X179451784Y-119869660D01*
X179461802Y-119806411D01*
X179487500Y-119644162D01*
X179487500Y-119415837D01*
X179451784Y-119190339D01*
X179401403Y-119035284D01*
X179381231Y-118973201D01*
X179381229Y-118973198D01*
X179381229Y-118973196D01*
X179308012Y-118829500D01*
X179277579Y-118769772D01*
X179143379Y-118585063D01*
X178981937Y-118423621D01*
X178894807Y-118360317D01*
X178852143Y-118304988D01*
X178846164Y-118235374D01*
X178878770Y-118173579D01*
X178894807Y-118159683D01*
X178981937Y-118096379D01*
X179143379Y-117934937D01*
X179277579Y-117750228D01*
X179381231Y-117546799D01*
X179451784Y-117329660D01*
X179467912Y-117227834D01*
X179487500Y-117104162D01*
X179487500Y-116875837D01*
X179459108Y-116696584D01*
X179451784Y-116650340D01*
X179451779Y-116650326D01*
X179451646Y-116649768D01*
X179451657Y-116649539D01*
X179451022Y-116645528D01*
X179451864Y-116645394D01*
X179455126Y-116579985D01*
X179484530Y-116533125D01*
X179587822Y-116429834D01*
X179649142Y-116396352D01*
X179718834Y-116401336D01*
G37*
G04 #@! TD.AperFunction*
G04 #@! TA.AperFunction,Conductor*
G36*
X168320864Y-122985835D02*
G01*
X168365211Y-123014336D01*
X171354496Y-126003621D01*
X171387981Y-126064944D01*
X171382997Y-126134636D01*
X171341125Y-126190569D01*
X171275661Y-126214986D01*
X171207388Y-126200134D01*
X171201719Y-126196841D01*
X171069340Y-126115189D01*
X171069335Y-126115187D01*
X171069334Y-126115186D01*
X170902797Y-126060001D01*
X170902795Y-126060000D01*
X170800010Y-126049500D01*
X170099998Y-126049500D01*
X170099980Y-126049501D01*
X169997203Y-126060000D01*
X169997200Y-126060001D01*
X169830668Y-126115185D01*
X169830663Y-126115187D01*
X169681342Y-126207289D01*
X169557289Y-126331342D01*
X169505539Y-126415243D01*
X169453591Y-126461967D01*
X169384628Y-126473190D01*
X169320546Y-126445346D01*
X169294461Y-126415243D01*
X169270879Y-126377011D01*
X169242712Y-126331344D01*
X169118656Y-126207288D01*
X168969334Y-126115186D01*
X168802797Y-126060001D01*
X168802795Y-126060000D01*
X168700010Y-126049500D01*
X167999998Y-126049500D01*
X167999980Y-126049501D01*
X167897203Y-126060000D01*
X167897200Y-126060001D01*
X167730668Y-126115185D01*
X167730663Y-126115187D01*
X167655502Y-126161547D01*
X167581344Y-126207288D01*
X167581342Y-126207289D01*
X167581340Y-126207291D01*
X167570000Y-126218631D01*
X167569028Y-126219161D01*
X167568481Y-126220124D01*
X167538423Y-126235871D01*
X167508675Y-126252114D01*
X167507571Y-126252035D01*
X167506591Y-126252549D01*
X167472792Y-126249546D01*
X167438984Y-126247127D01*
X167437736Y-126246431D01*
X167436995Y-126246366D01*
X167433436Y-126244035D01*
X167406314Y-126228921D01*
X167400154Y-126224142D01*
X167353044Y-126177032D01*
X167286600Y-126136048D01*
X167281348Y-126131974D01*
X167264629Y-126108820D01*
X167245533Y-126087590D01*
X167244437Y-126080858D01*
X167240445Y-126075329D01*
X167238897Y-126046812D01*
X167234312Y-126018628D01*
X167237029Y-126012373D01*
X167236660Y-126005561D01*
X167250777Y-125980732D01*
X167262155Y-125954546D01*
X167267823Y-125950753D01*
X167271195Y-125944823D01*
X167296494Y-125931568D01*
X167320224Y-125915690D01*
X167329520Y-125914265D01*
X167333085Y-125912398D01*
X167338542Y-125912882D01*
X167357355Y-125910000D01*
X167397317Y-125910000D01*
X167599417Y-125877990D01*
X167794031Y-125814755D01*
X167976349Y-125721859D01*
X168020921Y-125689474D01*
X167341447Y-125010000D01*
X167347661Y-125010000D01*
X167449394Y-124982741D01*
X167540606Y-124930080D01*
X167615080Y-124855606D01*
X167667741Y-124764394D01*
X167695000Y-124662661D01*
X167695000Y-124656448D01*
X168374474Y-125335922D01*
X168374474Y-125335921D01*
X168406859Y-125291349D01*
X168499755Y-125109031D01*
X168562990Y-124914417D01*
X168595000Y-124712317D01*
X168595000Y-124507682D01*
X168562990Y-124305582D01*
X168499755Y-124110968D01*
X168406859Y-123928650D01*
X168374474Y-123884077D01*
X168374474Y-123884076D01*
X167695000Y-124563551D01*
X167695000Y-124557339D01*
X167667741Y-124455606D01*
X167615080Y-124364394D01*
X167540606Y-124289920D01*
X167449394Y-124237259D01*
X167347661Y-124210000D01*
X167341446Y-124210000D01*
X168020922Y-123530524D01*
X168020921Y-123530523D01*
X167976359Y-123498147D01*
X167976350Y-123498141D01*
X167883369Y-123450765D01*
X167832573Y-123402790D01*
X167815778Y-123334969D01*
X167838315Y-123268835D01*
X167883370Y-123229795D01*
X167976610Y-123182287D01*
X168035677Y-123139373D01*
X168142213Y-123061971D01*
X168142215Y-123061968D01*
X168142219Y-123061966D01*
X168189849Y-123014336D01*
X168251172Y-122980851D01*
X168320864Y-122985835D01*
G37*
G04 #@! TD.AperFunction*
G04 #@! TA.AperFunction,Conductor*
G36*
X153716983Y-118429965D02*
G01*
X153719270Y-118429677D01*
X153748883Y-118443825D01*
X153778954Y-118456891D01*
X153780234Y-118458804D01*
X153782314Y-118459798D01*
X153799572Y-118487704D01*
X153817810Y-118514960D01*
X153818265Y-118517930D01*
X153819064Y-118519222D01*
X153819002Y-118522744D01*
X153823500Y-118552091D01*
X153823500Y-118767998D01*
X153839009Y-118845966D01*
X153839010Y-118845971D01*
X153850420Y-118903328D01*
X153903225Y-119030811D01*
X153904405Y-119032577D01*
X153979887Y-119145545D01*
X153979888Y-119145546D01*
X154388181Y-119553838D01*
X154421666Y-119615161D01*
X154424500Y-119641518D01*
X154424500Y-119848336D01*
X154424501Y-119848355D01*
X154434650Y-119947707D01*
X154434651Y-119947710D01*
X154487996Y-120108694D01*
X154488001Y-120108705D01*
X154577029Y-120253040D01*
X154577032Y-120253044D01*
X154663181Y-120339193D01*
X154696666Y-120400516D01*
X154699500Y-120426874D01*
X154699500Y-120506006D01*
X154699500Y-120643994D01*
X154699500Y-120643996D01*
X154699499Y-120643996D01*
X154726418Y-120779322D01*
X154726421Y-120779332D01*
X154779222Y-120906807D01*
X154855887Y-121021545D01*
X154855888Y-121021546D01*
X156594137Y-122759793D01*
X156627622Y-122821116D01*
X156622638Y-122890807D01*
X156580766Y-122946741D01*
X156515302Y-122971158D01*
X156482266Y-122969092D01*
X156411877Y-122955091D01*
X156383767Y-122949500D01*
X156216233Y-122949500D01*
X156216228Y-122949500D01*
X156051925Y-122982182D01*
X156051917Y-122982184D01*
X155897139Y-123046295D01*
X155757837Y-123139373D01*
X155639373Y-123257837D01*
X155546295Y-123397139D01*
X155482184Y-123551917D01*
X155482182Y-123551925D01*
X155449500Y-123716228D01*
X155449500Y-123808480D01*
X155429815Y-123875519D01*
X155413181Y-123896161D01*
X154634853Y-124674488D01*
X154573530Y-124707973D01*
X154571364Y-124708424D01*
X154451923Y-124732182D01*
X154451917Y-124732184D01*
X154297139Y-124796295D01*
X154157837Y-124889373D01*
X154039373Y-125007837D01*
X153946295Y-125147139D01*
X153882184Y-125301917D01*
X153882182Y-125301925D01*
X153849500Y-125466228D01*
X153849500Y-125508481D01*
X153829815Y-125575520D01*
X153813181Y-125596162D01*
X153510162Y-125899181D01*
X153448839Y-125932666D01*
X153422481Y-125935500D01*
X152651802Y-125935500D01*
X152584763Y-125915815D01*
X152539008Y-125863011D01*
X152529064Y-125793853D01*
X152533871Y-125773182D01*
X152557246Y-125701243D01*
X152590500Y-125491287D01*
X152590500Y-125278713D01*
X152557246Y-125068757D01*
X152491557Y-124866588D01*
X152395051Y-124677184D01*
X152395049Y-124677181D01*
X152395048Y-124677179D01*
X152270109Y-124505213D01*
X152119786Y-124354890D01*
X151947820Y-124229951D01*
X151758410Y-124133441D01*
X151753919Y-124131582D01*
X151754628Y-124129868D01*
X151703493Y-124094889D01*
X151676306Y-124030526D01*
X151675500Y-124016412D01*
X151675500Y-123574833D01*
X151689410Y-123517769D01*
X151694108Y-123508704D01*
X151743796Y-123442331D01*
X151783009Y-123337193D01*
X151786471Y-123330516D01*
X151805641Y-123310500D01*
X151822250Y-123288313D01*
X151829470Y-123285620D01*
X151834799Y-123280056D01*
X151861744Y-123273582D01*
X151887714Y-123263896D01*
X151895243Y-123265533D01*
X151902735Y-123263734D01*
X151928903Y-123272855D01*
X151955987Y-123278747D01*
X151964858Y-123285388D01*
X151968712Y-123286732D01*
X151971627Y-123290455D01*
X151984246Y-123299903D01*
X151989815Y-123305472D01*
X152135394Y-123393478D01*
X152297804Y-123444086D01*
X152368384Y-123450500D01*
X152368387Y-123450500D01*
X153031613Y-123450500D01*
X153031616Y-123450500D01*
X153102196Y-123444086D01*
X153264606Y-123393478D01*
X153410185Y-123305472D01*
X153530472Y-123185185D01*
X153618478Y-123039606D01*
X153669086Y-122877196D01*
X153675500Y-122806616D01*
X153675500Y-122293384D01*
X153669086Y-122222804D01*
X153618478Y-122060394D01*
X153530472Y-121914815D01*
X153530470Y-121914813D01*
X153530469Y-121914811D01*
X153428339Y-121812681D01*
X153394854Y-121751358D01*
X153399838Y-121681666D01*
X153428339Y-121637319D01*
X153530468Y-121535189D01*
X153530469Y-121535188D01*
X153530472Y-121535185D01*
X153618478Y-121389606D01*
X153669086Y-121227196D01*
X153675500Y-121156616D01*
X153675500Y-120643384D01*
X153669086Y-120572804D01*
X153618478Y-120410394D01*
X153618475Y-120410389D01*
X153615400Y-120403555D01*
X153618330Y-120402235D01*
X153604230Y-120348696D01*
X153625080Y-120283284D01*
X153628703Y-120277863D01*
X153692816Y-120123082D01*
X153725500Y-119958767D01*
X153725500Y-119791233D01*
X153692816Y-119626918D01*
X153684937Y-119607899D01*
X153675499Y-119560446D01*
X153675499Y-119201662D01*
X153675498Y-119201644D01*
X153665409Y-119102884D01*
X153665349Y-119102292D01*
X153612003Y-118941303D01*
X153606377Y-118932183D01*
X153606377Y-118932181D01*
X153522970Y-118796959D01*
X153522967Y-118796955D01*
X153513339Y-118787327D01*
X153479854Y-118726004D01*
X153484838Y-118656312D01*
X153497881Y-118630810D01*
X153596361Y-118483255D01*
X153621527Y-118462200D01*
X153645910Y-118440269D01*
X153648183Y-118439899D01*
X153649950Y-118438421D01*
X153682505Y-118434314D01*
X153714872Y-118429048D01*
X153716983Y-118429965D01*
G37*
G04 #@! TD.AperFunction*
G04 #@! TA.AperFunction,Conductor*
G36*
X170092884Y-113146185D02*
G01*
X170113526Y-113162819D01*
X170201196Y-113250489D01*
X170234681Y-113311812D01*
X170229697Y-113381504D01*
X170216617Y-113407061D01*
X170140609Y-113520814D01*
X170140602Y-113520827D01*
X170080264Y-113666498D01*
X170080261Y-113666510D01*
X170049500Y-113821153D01*
X170049500Y-113978846D01*
X170080261Y-114133489D01*
X170080264Y-114133501D01*
X170140061Y-114277864D01*
X170149500Y-114325316D01*
X170149500Y-117936006D01*
X170149500Y-118073994D01*
X170149500Y-118073996D01*
X170149499Y-118073996D01*
X170176418Y-118209322D01*
X170176421Y-118209332D01*
X170229222Y-118336807D01*
X170305887Y-118451545D01*
X170305888Y-118451546D01*
X173598194Y-121743851D01*
X173599262Y-121745807D01*
X173601182Y-121746944D01*
X173615928Y-121776328D01*
X173631679Y-121805174D01*
X173631833Y-121808022D01*
X173632520Y-121809391D01*
X173632680Y-121823674D01*
X173633816Y-121844661D01*
X173633481Y-121847806D01*
X173614500Y-121967648D01*
X173614500Y-122026064D01*
X173613803Y-122032610D01*
X173602876Y-122059064D01*
X173594815Y-122086520D01*
X173589710Y-122090942D01*
X173587131Y-122097189D01*
X173563634Y-122113537D01*
X173542011Y-122132275D01*
X173535324Y-122133236D01*
X173529779Y-122137095D01*
X173501183Y-122138145D01*
X173472853Y-122142219D01*
X173466706Y-122139412D01*
X173459956Y-122139660D01*
X173435331Y-122125083D01*
X173409297Y-122113194D01*
X173402819Y-122107162D01*
X168631818Y-117336161D01*
X168598333Y-117274838D01*
X168595499Y-117248480D01*
X168595499Y-116389998D01*
X168595498Y-116389981D01*
X168584999Y-116287203D01*
X168584998Y-116287200D01*
X168567109Y-116233214D01*
X168529814Y-116120666D01*
X168437712Y-115971344D01*
X168313656Y-115847288D01*
X168213371Y-115785432D01*
X168164336Y-115755187D01*
X168164331Y-115755185D01*
X168146936Y-115749421D01*
X167997797Y-115700001D01*
X167997795Y-115700000D01*
X167895016Y-115689500D01*
X167895009Y-115689500D01*
X167036519Y-115689500D01*
X166969480Y-115669815D01*
X166948838Y-115653181D01*
X165224028Y-113928371D01*
X165195800Y-113881275D01*
X165195147Y-113881546D01*
X165193320Y-113877137D01*
X165193048Y-113876682D01*
X165192817Y-113875922D01*
X165192816Y-113875921D01*
X165192816Y-113875918D01*
X165128703Y-113721137D01*
X165058913Y-113616689D01*
X165035626Y-113581837D01*
X164917162Y-113463373D01*
X164777862Y-113370296D01*
X164767423Y-113365972D01*
X164765221Y-113365060D01*
X164710819Y-113321219D01*
X164688755Y-113254925D01*
X164706035Y-113187226D01*
X164757172Y-113139616D01*
X164812676Y-113126500D01*
X170025845Y-113126500D01*
X170092884Y-113146185D01*
G37*
G04 #@! TD.AperFunction*
G04 #@! TA.AperFunction,Conductor*
G36*
X176757415Y-120250185D02*
G01*
X176793086Y-120286628D01*
X176793557Y-120286286D01*
X176795876Y-120289478D01*
X176796103Y-120289710D01*
X176796417Y-120290222D01*
X176796420Y-120290226D01*
X176796421Y-120290228D01*
X176930621Y-120474937D01*
X177092063Y-120636379D01*
X177179616Y-120699990D01*
X177222280Y-120755319D01*
X177228259Y-120824933D01*
X177204766Y-120869456D01*
X177203689Y-120883136D01*
X177866766Y-121546212D01*
X177824708Y-121557482D01*
X177699292Y-121629890D01*
X177596890Y-121732292D01*
X177524482Y-121857708D01*
X177513212Y-121899766D01*
X176850136Y-121236689D01*
X176850135Y-121236689D01*
X176796849Y-121310033D01*
X176796848Y-121310035D01*
X176693230Y-121513395D01*
X176622704Y-121730455D01*
X176595884Y-121899790D01*
X176565955Y-121962925D01*
X176506643Y-121999856D01*
X176436781Y-121998858D01*
X176385730Y-121968073D01*
X176204698Y-121787041D01*
X176174448Y-121737678D01*
X176164365Y-121706645D01*
X176120220Y-121570781D01*
X176027287Y-121388390D01*
X175980711Y-121324283D01*
X175906971Y-121222786D01*
X175762213Y-121078028D01*
X175596614Y-120957715D01*
X175571235Y-120944784D01*
X175503917Y-120910483D01*
X175453123Y-120862511D01*
X175436328Y-120794690D01*
X175458865Y-120728555D01*
X175503917Y-120689516D01*
X175596610Y-120642287D01*
X175692246Y-120572804D01*
X175762213Y-120521971D01*
X175762215Y-120521968D01*
X175762219Y-120521966D01*
X175906966Y-120377219D01*
X175976425Y-120281615D01*
X176031755Y-120238949D01*
X176076744Y-120230500D01*
X176690376Y-120230500D01*
X176757415Y-120250185D01*
G37*
G04 #@! TD.AperFunction*
G04 #@! TA.AperFunction,Conductor*
G36*
X157443334Y-117199838D02*
G01*
X157487681Y-117228339D01*
X157589811Y-117330469D01*
X157589813Y-117330470D01*
X157589815Y-117330472D01*
X157735394Y-117418478D01*
X157897804Y-117469086D01*
X157968384Y-117475500D01*
X157968387Y-117475500D01*
X158481613Y-117475500D01*
X158481616Y-117475500D01*
X158552196Y-117469086D01*
X158714606Y-117418478D01*
X158860185Y-117330472D01*
X158929339Y-117261317D01*
X158990660Y-117227834D01*
X159017019Y-117225000D01*
X159576000Y-117225000D01*
X159643039Y-117244685D01*
X159688794Y-117297489D01*
X159700000Y-117349000D01*
X159700000Y-117475000D01*
X159826000Y-117475000D01*
X159893039Y-117494685D01*
X159938794Y-117547489D01*
X159950000Y-117599000D01*
X159950000Y-117904410D01*
X159972166Y-117945004D01*
X159975000Y-117971362D01*
X159975000Y-118876000D01*
X159955315Y-118943039D01*
X159902511Y-118988794D01*
X159851000Y-119000000D01*
X159599000Y-119000000D01*
X159531961Y-118980315D01*
X159486206Y-118927511D01*
X159475000Y-118876000D01*
X159475000Y-118545589D01*
X159452834Y-118504996D01*
X159450000Y-118478638D01*
X159450000Y-117725000D01*
X158725001Y-117725000D01*
X158725001Y-117748322D01*
X158735144Y-117847607D01*
X158769103Y-117950088D01*
X158771505Y-118019916D01*
X158735773Y-118079958D01*
X158673253Y-118111151D01*
X158603793Y-118103590D01*
X158587248Y-118095209D01*
X158564608Y-118081523D01*
X158564607Y-118081522D01*
X158564606Y-118081522D01*
X158402196Y-118030914D01*
X158402194Y-118030913D01*
X158402192Y-118030913D01*
X158352778Y-118026423D01*
X158331616Y-118024500D01*
X157818384Y-118024500D01*
X157799145Y-118026248D01*
X157747807Y-118030913D01*
X157585393Y-118081522D01*
X157439811Y-118169530D01*
X157319530Y-118289811D01*
X157231522Y-118435393D01*
X157180913Y-118597807D01*
X157174500Y-118668386D01*
X157174500Y-119331613D01*
X157180913Y-119402192D01*
X157180913Y-119402194D01*
X157180914Y-119402196D01*
X157231522Y-119564606D01*
X157298692Y-119675719D01*
X157309194Y-119693090D01*
X157327030Y-119760645D01*
X157308616Y-119822337D01*
X157237452Y-119937710D01*
X157237450Y-119937715D01*
X157234138Y-119947710D01*
X157184564Y-120097315D01*
X157184564Y-120097316D01*
X157184563Y-120097316D01*
X157174500Y-120195818D01*
X157174500Y-120804181D01*
X157184563Y-120902683D01*
X157237450Y-121062284D01*
X157237453Y-121062291D01*
X157259197Y-121097542D01*
X157277638Y-121164935D01*
X157256716Y-121231598D01*
X157203074Y-121276368D01*
X157133744Y-121285030D01*
X157070736Y-121254834D01*
X157065978Y-121250321D01*
X156232879Y-120417222D01*
X156199394Y-120355899D01*
X156204378Y-120286207D01*
X156219491Y-120259384D01*
X156219177Y-120259191D01*
X156311998Y-120108705D01*
X156311997Y-120108705D01*
X156312003Y-120108697D01*
X156365349Y-119947708D01*
X156375500Y-119848345D01*
X156375499Y-119301656D01*
X156374546Y-119292331D01*
X156365349Y-119202292D01*
X156365348Y-119202289D01*
X156365134Y-119201644D01*
X156312003Y-119041303D01*
X156311999Y-119041297D01*
X156311998Y-119041294D01*
X156222970Y-118896959D01*
X156222967Y-118896955D01*
X156213339Y-118887327D01*
X156179854Y-118826004D01*
X156184838Y-118756312D01*
X156213345Y-118711959D01*
X156222573Y-118702731D01*
X156311542Y-118558492D01*
X156311547Y-118558481D01*
X156364855Y-118397606D01*
X156374999Y-118298322D01*
X156375000Y-118298309D01*
X156375000Y-118275000D01*
X155524000Y-118275000D01*
X155456961Y-118255315D01*
X155411206Y-118202511D01*
X155400000Y-118151000D01*
X155400000Y-117899000D01*
X155419685Y-117831961D01*
X155472489Y-117786206D01*
X155524000Y-117775000D01*
X156374999Y-117775000D01*
X156374999Y-117751692D01*
X156374998Y-117751677D01*
X156364855Y-117652393D01*
X156360253Y-117638502D01*
X156357853Y-117568673D01*
X156393586Y-117508632D01*
X156456107Y-117477441D01*
X156477960Y-117475500D01*
X156831613Y-117475500D01*
X156831616Y-117475500D01*
X156902196Y-117469086D01*
X157064606Y-117418478D01*
X157210185Y-117330472D01*
X157243168Y-117297489D01*
X157312319Y-117228339D01*
X157373642Y-117194854D01*
X157443334Y-117199838D01*
G37*
G04 #@! TD.AperFunction*
G04 #@! TA.AperFunction,Conductor*
G36*
X175776520Y-110644185D02*
G01*
X175797162Y-110660819D01*
X176589464Y-111453121D01*
X176622949Y-111514444D01*
X176622408Y-111565437D01*
X176622978Y-111565528D01*
X176622366Y-111569388D01*
X176622363Y-111569725D01*
X176622216Y-111570335D01*
X176586500Y-111795837D01*
X176586500Y-112024162D01*
X176622215Y-112249660D01*
X176692770Y-112466803D01*
X176787118Y-112651969D01*
X176796421Y-112670228D01*
X176930621Y-112854937D01*
X177092063Y-113016379D01*
X177179616Y-113079990D01*
X177222280Y-113135319D01*
X177228259Y-113204933D01*
X177204766Y-113249456D01*
X177203689Y-113263136D01*
X177866765Y-113926212D01*
X177824708Y-113937482D01*
X177699292Y-114009890D01*
X177596890Y-114112292D01*
X177524482Y-114237708D01*
X177513212Y-114279765D01*
X176850136Y-113616689D01*
X176850135Y-113616689D01*
X176796849Y-113690033D01*
X176796848Y-113690035D01*
X176693230Y-113893395D01*
X176622704Y-114110455D01*
X176587000Y-114335883D01*
X176587000Y-114564116D01*
X176622704Y-114789544D01*
X176693230Y-115006604D01*
X176796851Y-115209969D01*
X176850135Y-115283309D01*
X176850137Y-115283309D01*
X177513212Y-114620234D01*
X177524482Y-114662292D01*
X177596890Y-114787708D01*
X177699292Y-114890110D01*
X177824708Y-114962518D01*
X177866764Y-114973787D01*
X177203688Y-115636862D01*
X177204892Y-115652152D01*
X177222281Y-115674702D01*
X177228260Y-115744315D01*
X177195655Y-115806110D01*
X177179617Y-115820008D01*
X177092063Y-115883620D01*
X176930622Y-116045061D01*
X176796417Y-116229777D01*
X176796103Y-116230290D01*
X176795932Y-116230443D01*
X176793557Y-116233714D01*
X176792870Y-116233214D01*
X176744292Y-116277165D01*
X176690376Y-116289500D01*
X176076744Y-116289500D01*
X176009705Y-116269815D01*
X175976425Y-116238384D01*
X175970544Y-116230290D01*
X175955737Y-116209909D01*
X175906969Y-116142784D01*
X175762213Y-115998028D01*
X175596613Y-115877715D01*
X175596612Y-115877714D01*
X175596610Y-115877713D01*
X175536898Y-115847288D01*
X175414223Y-115784781D01*
X175219534Y-115721522D01*
X175044995Y-115693878D01*
X175017352Y-115689500D01*
X174812648Y-115689500D01*
X174746355Y-115700000D01*
X174610464Y-115721523D01*
X174610457Y-115721524D01*
X174562447Y-115737124D01*
X174492606Y-115739119D01*
X174432774Y-115703038D01*
X174402513Y-115643384D01*
X174399988Y-115630689D01*
X174387580Y-115568308D01*
X174334775Y-115440825D01*
X174258114Y-115326093D01*
X174258112Y-115326090D01*
X173350714Y-114418692D01*
X171472454Y-112540433D01*
X171438969Y-112479110D01*
X171443953Y-112409418D01*
X171485825Y-112353485D01*
X171503841Y-112342267D01*
X171510352Y-112338948D01*
X171527816Y-112330051D01*
X171614138Y-112267335D01*
X171699786Y-112205109D01*
X171699788Y-112205106D01*
X171699792Y-112205104D01*
X171850104Y-112054792D01*
X171850106Y-112054788D01*
X171850109Y-112054786D01*
X171975048Y-111882820D01*
X171975047Y-111882820D01*
X171975051Y-111882816D01*
X172071557Y-111693412D01*
X172137246Y-111491243D01*
X172170500Y-111281287D01*
X172170500Y-111068713D01*
X172137246Y-110858757D01*
X172113870Y-110786816D01*
X172111876Y-110716977D01*
X172147956Y-110657144D01*
X172210657Y-110626316D01*
X172231802Y-110624500D01*
X175709481Y-110624500D01*
X175776520Y-110644185D01*
G37*
G04 #@! TD.AperFunction*
G04 #@! TA.AperFunction,Conductor*
G36*
X163871552Y-114829390D02*
G01*
X163888910Y-114829256D01*
X163921128Y-114843669D01*
X163922476Y-114844520D01*
X163972137Y-114877703D01*
X163980447Y-114881145D01*
X163989420Y-114886814D01*
X164035582Y-114939262D01*
X164046061Y-115008341D01*
X164017529Y-115072120D01*
X163959045Y-115110348D01*
X163947382Y-115113262D01*
X163789423Y-115144682D01*
X163789417Y-115144684D01*
X163634639Y-115208795D01*
X163495337Y-115301873D01*
X163376873Y-115420337D01*
X163283795Y-115559639D01*
X163219684Y-115714417D01*
X163219682Y-115714425D01*
X163187000Y-115878728D01*
X163187000Y-116017748D01*
X163167315Y-116084787D01*
X163114511Y-116130542D01*
X163045353Y-116140486D01*
X162994111Y-116120851D01*
X162931811Y-116079225D01*
X162804326Y-116026419D01*
X162803125Y-116026180D01*
X162779881Y-116019128D01*
X162681413Y-115978342D01*
X162681406Y-115978340D01*
X162536420Y-115949500D01*
X162536418Y-115949500D01*
X162388582Y-115949500D01*
X162388580Y-115949500D01*
X162243592Y-115978340D01*
X162243582Y-115978343D01*
X162107011Y-116034912D01*
X162106998Y-116034919D01*
X161984084Y-116117048D01*
X161891223Y-116209909D01*
X161829899Y-116243393D01*
X161764538Y-116239933D01*
X161758698Y-116237998D01*
X161758697Y-116237997D01*
X161664092Y-116206648D01*
X161597709Y-116184651D01*
X161498352Y-116174500D01*
X161498345Y-116174500D01*
X160991519Y-116174500D01*
X160924480Y-116154815D01*
X160903838Y-116138181D01*
X160711818Y-115946161D01*
X160678333Y-115884838D01*
X160675499Y-115858480D01*
X160675499Y-115651662D01*
X160675498Y-115651644D01*
X160665349Y-115552292D01*
X160665348Y-115552289D01*
X160661110Y-115539500D01*
X160612003Y-115391303D01*
X160611999Y-115391297D01*
X160611998Y-115391294D01*
X160522970Y-115246959D01*
X160522967Y-115246955D01*
X160403044Y-115127032D01*
X160403040Y-115127029D01*
X160284704Y-115054038D01*
X160237979Y-115002090D01*
X160226758Y-114933128D01*
X160254601Y-114869046D01*
X160312670Y-114830190D01*
X160349801Y-114824500D01*
X163854898Y-114824500D01*
X163871552Y-114829390D01*
G37*
G04 #@! TD.AperFunction*
G04 #@! TA.AperFunction,Conductor*
G36*
X148171579Y-109720185D02*
G01*
X148217334Y-109772989D01*
X148227278Y-109842147D01*
X148198253Y-109905703D01*
X148167661Y-109931231D01*
X148161315Y-109934985D01*
X148048137Y-110001917D01*
X148048129Y-110001923D01*
X147931923Y-110118129D01*
X147931917Y-110118137D01*
X147848255Y-110259603D01*
X147848254Y-110259606D01*
X147802402Y-110417426D01*
X147802401Y-110417432D01*
X147799500Y-110454298D01*
X147799500Y-110885701D01*
X147802401Y-110922567D01*
X147802402Y-110922573D01*
X147848403Y-111080905D01*
X147848204Y-111150774D01*
X147810262Y-111209444D01*
X147746624Y-111238288D01*
X147729327Y-111239500D01*
X147616004Y-111239500D01*
X147480677Y-111266418D01*
X147480667Y-111266421D01*
X147353191Y-111319223D01*
X147238457Y-111395885D01*
X147238453Y-111395889D01*
X147196158Y-111438183D01*
X147134834Y-111471667D01*
X147108480Y-111474500D01*
X146901663Y-111474500D01*
X146901644Y-111474501D01*
X146837101Y-111481095D01*
X146768408Y-111468325D01*
X146717524Y-111420444D01*
X146700500Y-111357737D01*
X146700500Y-109958676D01*
X146709144Y-109929235D01*
X146715668Y-109899249D01*
X146719422Y-109894233D01*
X146720185Y-109891637D01*
X146736819Y-109870995D01*
X146870995Y-109736819D01*
X146932318Y-109703334D01*
X146958676Y-109700500D01*
X148104540Y-109700500D01*
X148171579Y-109720185D01*
G37*
G04 #@! TD.AperFunction*
G04 #@! TA.AperFunction,Conductor*
G36*
X181418810Y-138238505D02*
G01*
X181461861Y-138270733D01*
X181492668Y-138293795D01*
X181492671Y-138293797D01*
X181627517Y-138344091D01*
X181627516Y-138344091D01*
X181634444Y-138344835D01*
X181687127Y-138350500D01*
X182893480Y-138350499D01*
X182960519Y-138370184D01*
X182981161Y-138386818D01*
X183670970Y-139076627D01*
X183704455Y-139137950D01*
X183702367Y-139198897D01*
X183697292Y-139216366D01*
X183697290Y-139216379D01*
X183694500Y-139251829D01*
X183694500Y-139646565D01*
X183674815Y-139713604D01*
X183622011Y-139759359D01*
X183552853Y-139769303D01*
X183489297Y-139740278D01*
X183467397Y-139715455D01*
X183466160Y-139713604D01*
X183455626Y-139697838D01*
X183455625Y-139697837D01*
X183455624Y-139697835D01*
X183337162Y-139579373D01*
X183197860Y-139486295D01*
X183043082Y-139422184D01*
X183043074Y-139422182D01*
X182878771Y-139389500D01*
X182878767Y-139389500D01*
X182711233Y-139389500D01*
X182711228Y-139389500D01*
X182546925Y-139422182D01*
X182546917Y-139422184D01*
X182392139Y-139486295D01*
X182252837Y-139579373D01*
X182134373Y-139697837D01*
X182041295Y-139837139D01*
X181977184Y-139991917D01*
X181977182Y-139991925D01*
X181944500Y-140156228D01*
X181944500Y-140323771D01*
X181977182Y-140488074D01*
X181977184Y-140488082D01*
X182041295Y-140642860D01*
X182114935Y-140753070D01*
X182135813Y-140819748D01*
X182118565Y-140885081D01*
X182041846Y-141014807D01*
X182041843Y-141014814D01*
X181997789Y-141166446D01*
X181997788Y-141166452D01*
X181995000Y-141201881D01*
X181995000Y-141578118D01*
X181997788Y-141613547D01*
X181997789Y-141613553D01*
X182041843Y-141765185D01*
X182041843Y-141765186D01*
X182078328Y-141826880D01*
X182095509Y-141894604D01*
X182078328Y-141953120D01*
X182041843Y-142014813D01*
X182041843Y-142014814D01*
X181997789Y-142166446D01*
X181997788Y-142166452D01*
X181995000Y-142201881D01*
X181995000Y-142578118D01*
X181997788Y-142613547D01*
X181997789Y-142613553D01*
X182041843Y-142765185D01*
X182041843Y-142765186D01*
X182078328Y-142826880D01*
X182095509Y-142894604D01*
X182078328Y-142953120D01*
X182041843Y-143014813D01*
X182041843Y-143014814D01*
X181997789Y-143166446D01*
X181997788Y-143166452D01*
X181995000Y-143201881D01*
X181995000Y-143578118D01*
X181997788Y-143613547D01*
X181997789Y-143613553D01*
X182041843Y-143765185D01*
X182041844Y-143765188D01*
X182118565Y-143894917D01*
X182135748Y-143962641D01*
X182114936Y-144026928D01*
X182041295Y-144137140D01*
X181977184Y-144291917D01*
X181977182Y-144291925D01*
X181944500Y-144456228D01*
X181944500Y-144623771D01*
X181977182Y-144788074D01*
X181977184Y-144788082D01*
X182041295Y-144942860D01*
X182134373Y-145082162D01*
X182252837Y-145200626D01*
X182345494Y-145262537D01*
X182392137Y-145293703D01*
X182392138Y-145293703D01*
X182392139Y-145293704D01*
X182530316Y-145350939D01*
X182584719Y-145394780D01*
X182606784Y-145461074D01*
X182589505Y-145528774D01*
X182538367Y-145576384D01*
X182482863Y-145589500D01*
X181478676Y-145589500D01*
X181449235Y-145580855D01*
X181419249Y-145574332D01*
X181414233Y-145570577D01*
X181411637Y-145569815D01*
X181390995Y-145553181D01*
X181256819Y-145419005D01*
X181223334Y-145357682D01*
X181220500Y-145331324D01*
X181220500Y-143004110D01*
X181220500Y-143004108D01*
X181194971Y-142908831D01*
X181190748Y-142876296D01*
X181199410Y-140520466D01*
X181203631Y-140488846D01*
X181220500Y-140425892D01*
X181220500Y-138337772D01*
X181240185Y-138270733D01*
X181292989Y-138224978D01*
X181362147Y-138215034D01*
X181418810Y-138238505D01*
G37*
G04 #@! TD.AperFunction*
G04 #@! TA.AperFunction,Conductor*
G36*
X191566945Y-137613767D02*
G01*
X191610397Y-137668482D01*
X191619500Y-137715116D01*
X191619500Y-145331324D01*
X191610855Y-145360764D01*
X191604332Y-145390751D01*
X191600577Y-145395766D01*
X191599815Y-145398363D01*
X191583181Y-145419005D01*
X191449005Y-145553181D01*
X191387682Y-145586666D01*
X191361324Y-145589500D01*
X189319500Y-145589500D01*
X189252461Y-145569815D01*
X189206706Y-145517011D01*
X189195500Y-145465500D01*
X189195499Y-144264000D01*
X189215184Y-144196961D01*
X189267987Y-144151206D01*
X189319499Y-144140000D01*
X190041448Y-144140000D01*
X190041448Y-144139999D01*
X189555905Y-143654456D01*
X189522420Y-143593133D01*
X189527404Y-143523441D01*
X189555905Y-143479094D01*
X189734095Y-143300905D01*
X189795418Y-143267420D01*
X189865110Y-143272404D01*
X189909457Y-143300905D01*
X190634250Y-144025698D01*
X190634251Y-144025698D01*
X190656107Y-144012774D01*
X190767770Y-143901112D01*
X190767773Y-143901108D01*
X190848155Y-143765188D01*
X190848156Y-143765185D01*
X190892210Y-143613553D01*
X190892211Y-143613547D01*
X190894999Y-143578118D01*
X190895000Y-143578105D01*
X190895000Y-143201894D01*
X190894999Y-143201881D01*
X190892211Y-143166452D01*
X190892210Y-143166446D01*
X190848156Y-143014814D01*
X190848154Y-143014809D01*
X190811672Y-142953122D01*
X190794488Y-142885399D01*
X190811672Y-142826878D01*
X190848154Y-142765190D01*
X190848156Y-142765185D01*
X190892210Y-142613553D01*
X190892211Y-142613547D01*
X190894999Y-142578118D01*
X190895000Y-142578105D01*
X190895000Y-142201894D01*
X190894999Y-142201881D01*
X190892211Y-142166452D01*
X190892210Y-142166446D01*
X190848156Y-142014814D01*
X190848154Y-142014809D01*
X190811672Y-141953122D01*
X190794488Y-141885399D01*
X190811672Y-141826878D01*
X190848154Y-141765190D01*
X190848156Y-141765185D01*
X190892210Y-141613553D01*
X190892211Y-141613547D01*
X190894999Y-141578118D01*
X190895000Y-141578105D01*
X190895000Y-141201894D01*
X190894999Y-141201881D01*
X190892211Y-141166452D01*
X190892210Y-141166446D01*
X190848156Y-141014814D01*
X190848155Y-141014811D01*
X190771434Y-140885082D01*
X190754251Y-140817358D01*
X190775063Y-140753072D01*
X190848703Y-140642863D01*
X190912816Y-140488082D01*
X190945500Y-140323767D01*
X190945500Y-140156233D01*
X190912816Y-139991918D01*
X190848703Y-139837137D01*
X190783004Y-139738812D01*
X190755626Y-139697837D01*
X190637162Y-139579373D01*
X190497860Y-139486295D01*
X190343082Y-139422184D01*
X190343074Y-139422182D01*
X190178771Y-139389500D01*
X190178767Y-139389500D01*
X190011233Y-139389500D01*
X190011228Y-139389500D01*
X189846925Y-139422182D01*
X189846917Y-139422184D01*
X189692139Y-139486295D01*
X189552837Y-139579373D01*
X189434374Y-139697836D01*
X189422600Y-139715458D01*
X189368987Y-139760262D01*
X189299661Y-139768968D01*
X189236635Y-139738812D01*
X189199917Y-139679368D01*
X189195499Y-139646565D01*
X189195499Y-139251849D01*
X189195498Y-139251824D01*
X189192709Y-139216379D01*
X189192709Y-139216373D01*
X189148618Y-139064610D01*
X189068170Y-138928580D01*
X189068168Y-138928578D01*
X189068165Y-138928574D01*
X188970305Y-138830714D01*
X188936820Y-138769391D01*
X188941804Y-138699699D01*
X188970305Y-138655352D01*
X189171150Y-138454507D01*
X189415875Y-138209781D01*
X189477196Y-138176298D01*
X189546887Y-138181282D01*
X189559837Y-138186974D01*
X189634424Y-138224978D01*
X189686583Y-138251555D01*
X189686585Y-138251555D01*
X189686588Y-138251557D01*
X189888757Y-138317246D01*
X190098713Y-138350500D01*
X190098714Y-138350500D01*
X190311286Y-138350500D01*
X190311287Y-138350500D01*
X190521243Y-138317246D01*
X190723412Y-138251557D01*
X190912816Y-138155051D01*
X190967572Y-138115269D01*
X191084786Y-138030109D01*
X191084788Y-138030106D01*
X191084792Y-138030104D01*
X191235104Y-137879792D01*
X191235106Y-137879788D01*
X191235109Y-137879786D01*
X191360048Y-137707820D01*
X191360047Y-137707820D01*
X191360051Y-137707816D01*
X191385015Y-137658820D01*
X191432989Y-137608025D01*
X191500810Y-137591230D01*
X191566945Y-137613767D01*
G37*
G04 #@! TD.AperFunction*
G04 #@! TA.AperFunction,Conductor*
G36*
X188028620Y-141119376D02*
G01*
X188069610Y-141143618D01*
X188221373Y-141187709D01*
X188256837Y-141190500D01*
X188270996Y-141190499D01*
X188338033Y-141210180D01*
X188383791Y-141262981D01*
X188395000Y-141314499D01*
X188395000Y-141578118D01*
X188397788Y-141613547D01*
X188397789Y-141613553D01*
X188441843Y-141765185D01*
X188441843Y-141765186D01*
X188478328Y-141826880D01*
X188495509Y-141894604D01*
X188478328Y-141953120D01*
X188441843Y-142014813D01*
X188441843Y-142014814D01*
X188397789Y-142166446D01*
X188397788Y-142166452D01*
X188395000Y-142201881D01*
X188395000Y-142578118D01*
X188397788Y-142613547D01*
X188397789Y-142613553D01*
X188441843Y-142765185D01*
X188441843Y-142765186D01*
X188478328Y-142826880D01*
X188495509Y-142894604D01*
X188478328Y-142953120D01*
X188441843Y-143014813D01*
X188441843Y-143014814D01*
X188397789Y-143166446D01*
X188397788Y-143166452D01*
X188395000Y-143201881D01*
X188395000Y-143465500D01*
X188375315Y-143532539D01*
X188322511Y-143578294D01*
X188271007Y-143589500D01*
X188256852Y-143589500D01*
X188256823Y-143589501D01*
X188221372Y-143592291D01*
X188069614Y-143636380D01*
X188069607Y-143636383D01*
X188028619Y-143660623D01*
X187960895Y-143677804D01*
X187894633Y-143655644D01*
X187850871Y-143601177D01*
X187842142Y-143541286D01*
X187844999Y-143513319D01*
X187844999Y-142966692D01*
X187844998Y-142966676D01*
X187834855Y-142867392D01*
X187781547Y-142706518D01*
X187781542Y-142706507D01*
X187692575Y-142562271D01*
X187692572Y-142562267D01*
X187607986Y-142477681D01*
X187574501Y-142416358D01*
X187579485Y-142346666D01*
X187607986Y-142302319D01*
X187692572Y-142217732D01*
X187692575Y-142217728D01*
X187781542Y-142073492D01*
X187781547Y-142073481D01*
X187834855Y-141912606D01*
X187844999Y-141813322D01*
X187844999Y-141266692D01*
X187844998Y-141266679D01*
X187842141Y-141238711D01*
X187854910Y-141170018D01*
X187902791Y-141119133D01*
X187970580Y-141102212D01*
X188028620Y-141119376D01*
G37*
G04 #@! TD.AperFunction*
G04 #@! TA.AperFunction,Conductor*
G36*
X184995363Y-141124353D02*
G01*
X185039127Y-141178818D01*
X185047857Y-141238709D01*
X185045001Y-141266670D01*
X185045000Y-141266690D01*
X185045000Y-141813307D01*
X185045001Y-141813323D01*
X185055144Y-141912607D01*
X185108452Y-142073481D01*
X185108457Y-142073492D01*
X185197424Y-142217728D01*
X185282014Y-142302319D01*
X185315498Y-142363643D01*
X185310514Y-142433334D01*
X185282014Y-142477681D01*
X185197424Y-142562271D01*
X185108457Y-142706507D01*
X185108452Y-142706518D01*
X185055144Y-142867393D01*
X185045000Y-142966677D01*
X185045000Y-143513307D01*
X185045002Y-143513330D01*
X185047858Y-143541292D01*
X185035087Y-143609985D01*
X184987205Y-143660868D01*
X184919415Y-143677787D01*
X184861379Y-143660623D01*
X184850951Y-143654456D01*
X184820390Y-143636382D01*
X184820385Y-143636380D01*
X184668633Y-143592292D01*
X184668620Y-143592290D01*
X184633170Y-143589500D01*
X184619000Y-143589500D01*
X184551961Y-143569815D01*
X184506206Y-143517011D01*
X184495000Y-143465500D01*
X184495000Y-143201894D01*
X184494999Y-143201881D01*
X184492211Y-143166452D01*
X184492210Y-143166446D01*
X184448156Y-143014814D01*
X184448154Y-143014809D01*
X184411672Y-142953122D01*
X184394488Y-142885399D01*
X184411672Y-142826878D01*
X184448154Y-142765190D01*
X184448156Y-142765185D01*
X184492210Y-142613553D01*
X184492211Y-142613547D01*
X184494999Y-142578118D01*
X184495000Y-142578105D01*
X184495000Y-142201894D01*
X184494999Y-142201881D01*
X184492211Y-142166452D01*
X184492210Y-142166446D01*
X184448156Y-142014814D01*
X184448154Y-142014809D01*
X184411672Y-141953122D01*
X184394488Y-141885399D01*
X184411672Y-141826878D01*
X184448154Y-141765190D01*
X184448156Y-141765185D01*
X184492210Y-141613553D01*
X184492211Y-141613547D01*
X184494999Y-141578118D01*
X184495000Y-141578105D01*
X184495000Y-141314499D01*
X184514685Y-141247460D01*
X184567489Y-141201705D01*
X184618999Y-141190499D01*
X184633162Y-141190499D01*
X184668627Y-141187709D01*
X184820390Y-141143618D01*
X184861377Y-141119377D01*
X184929100Y-141102194D01*
X184995363Y-141124353D01*
G37*
G04 #@! TD.AperFunction*
G04 #@! TA.AperFunction,Conductor*
G36*
X187199075Y-137192993D02*
G01*
X187264901Y-137307007D01*
X187357993Y-137400099D01*
X187472007Y-137465925D01*
X187535590Y-137482962D01*
X186903282Y-138115269D01*
X186903282Y-138115270D01*
X186957449Y-138154624D01*
X187146780Y-138251094D01*
X187149602Y-138252263D01*
X187150510Y-138252994D01*
X187151121Y-138253306D01*
X187151055Y-138253434D01*
X187204007Y-138296102D01*
X187226075Y-138362395D01*
X187208798Y-138430095D01*
X187189835Y-138454507D01*
X186939697Y-138704645D01*
X186878374Y-138738130D01*
X186817421Y-138736040D01*
X186668553Y-138692789D01*
X186668547Y-138692788D01*
X186633118Y-138690000D01*
X186269500Y-138690000D01*
X186202461Y-138670315D01*
X186156706Y-138617511D01*
X186145500Y-138566000D01*
X186145500Y-137933301D01*
X186151250Y-137913718D01*
X186152120Y-137893327D01*
X186163922Y-137870560D01*
X186165185Y-137866262D01*
X186168137Y-137861876D01*
X186168663Y-137861129D01*
X186280051Y-137707816D01*
X186288818Y-137690608D01*
X186293917Y-137683373D01*
X186314613Y-137666930D01*
X186332763Y-137647711D01*
X186341542Y-137645536D01*
X186348623Y-137639911D01*
X186374920Y-137637267D01*
X186400583Y-137630911D01*
X186409144Y-137633828D01*
X186418142Y-137632924D01*
X186441696Y-137644919D01*
X186466719Y-137653445D01*
X186473260Y-137660993D01*
X186480403Y-137664631D01*
X186488649Y-137678751D01*
X186505763Y-137698500D01*
X186510373Y-137707547D01*
X186549728Y-137761716D01*
X187182037Y-137129408D01*
X187199075Y-137192993D01*
G37*
G04 #@! TD.AperFunction*
G04 #@! TA.AperFunction,Conductor*
G36*
X191428363Y-133410185D02*
G01*
X191449005Y-133426819D01*
X191583181Y-133560995D01*
X191616666Y-133622318D01*
X191619500Y-133648676D01*
X191619500Y-136284883D01*
X191599815Y-136351922D01*
X191547011Y-136397677D01*
X191477853Y-136407621D01*
X191414297Y-136378596D01*
X191385016Y-136341179D01*
X191360050Y-136292182D01*
X191235109Y-136120213D01*
X191084786Y-135969890D01*
X190912820Y-135844951D01*
X190723414Y-135748444D01*
X190723413Y-135748443D01*
X190723412Y-135748443D01*
X190521243Y-135682754D01*
X190521241Y-135682753D01*
X190521240Y-135682753D01*
X190359957Y-135657208D01*
X190311287Y-135649500D01*
X190098713Y-135649500D01*
X190050042Y-135657208D01*
X189888760Y-135682753D01*
X189686585Y-135748444D01*
X189497179Y-135844951D01*
X189325213Y-135969890D01*
X189174890Y-136120213D01*
X189049949Y-136292182D01*
X189045202Y-136301499D01*
X188997227Y-136352293D01*
X188929405Y-136369087D01*
X188863271Y-136346548D01*
X188824234Y-136301495D01*
X188819626Y-136292452D01*
X188780270Y-136238282D01*
X188780269Y-136238282D01*
X188147962Y-136870590D01*
X188130925Y-136807007D01*
X188065099Y-136692993D01*
X187972007Y-136599901D01*
X187857993Y-136534075D01*
X187794409Y-136517037D01*
X188426716Y-135884728D01*
X188372550Y-135845375D01*
X188183217Y-135748904D01*
X187981129Y-135683242D01*
X187771246Y-135650000D01*
X187558754Y-135650000D01*
X187348872Y-135683242D01*
X187348869Y-135683242D01*
X187146782Y-135748904D01*
X186957439Y-135845380D01*
X186903282Y-135884727D01*
X186903282Y-135884728D01*
X187535591Y-136517037D01*
X187472007Y-136534075D01*
X187357993Y-136599901D01*
X187264901Y-136692993D01*
X187199075Y-136807007D01*
X187182037Y-136870590D01*
X186549728Y-136238282D01*
X186549727Y-136238282D01*
X186510380Y-136292440D01*
X186510376Y-136292446D01*
X186505760Y-136301505D01*
X186457781Y-136352297D01*
X186389959Y-136369087D01*
X186323826Y-136346543D01*
X186284794Y-136301493D01*
X186280051Y-136292184D01*
X186280049Y-136292181D01*
X186280048Y-136292179D01*
X186155109Y-136120213D01*
X186004786Y-135969890D01*
X185832820Y-135844951D01*
X185643414Y-135748444D01*
X185643413Y-135748443D01*
X185643412Y-135748443D01*
X185441243Y-135682754D01*
X185441241Y-135682753D01*
X185441240Y-135682753D01*
X185279957Y-135657208D01*
X185231287Y-135649500D01*
X185018713Y-135649500D01*
X184970042Y-135657208D01*
X184808760Y-135682753D01*
X184606585Y-135748444D01*
X184417179Y-135844951D01*
X184245215Y-135969889D01*
X184131673Y-136083431D01*
X184070350Y-136116915D01*
X184000658Y-136111931D01*
X183944725Y-136070059D01*
X183927810Y-136039082D01*
X183878797Y-135907671D01*
X183878793Y-135907664D01*
X183792547Y-135792455D01*
X183792544Y-135792452D01*
X183677335Y-135706206D01*
X183677328Y-135706202D01*
X183542482Y-135655908D01*
X183542483Y-135655908D01*
X183482883Y-135649501D01*
X183482881Y-135649500D01*
X183482873Y-135649500D01*
X183482864Y-135649500D01*
X181687129Y-135649500D01*
X181687123Y-135649501D01*
X181627516Y-135655908D01*
X181492671Y-135706202D01*
X181492669Y-135706204D01*
X181418811Y-135761494D01*
X181353347Y-135785911D01*
X181285074Y-135771059D01*
X181235668Y-135721654D01*
X181220500Y-135662227D01*
X181220500Y-133648676D01*
X181229144Y-133619235D01*
X181235668Y-133589249D01*
X181239422Y-133584233D01*
X181240185Y-133581637D01*
X181256819Y-133560995D01*
X181390995Y-133426819D01*
X181452318Y-133393334D01*
X181478676Y-133390500D01*
X191361324Y-133390500D01*
X191428363Y-133410185D01*
G37*
G04 #@! TD.AperFunction*
M02*
