G04 #@! TF.GenerationSoftware,KiCad,Pcbnew,9.0.6*
G04 #@! TF.CreationDate,2026-03-09T11:50:08+09:00*
G04 #@! TF.ProjectId,PitotBoard2026,5069746f-7442-46f6-9172-64323032362e,rev?*
G04 #@! TF.SameCoordinates,Original*
G04 #@! TF.FileFunction,Copper,L1,Top*
G04 #@! TF.FilePolarity,Positive*
%FSLAX46Y46*%
G04 Gerber Fmt 4.6, Leading zero omitted, Abs format (unit mm)*
G04 Created by KiCad (PCBNEW 9.0.6) date 2026-03-09 11:50:09*
%MOMM*%
%LPD*%
G01*
G04 APERTURE LIST*
G04 Aperture macros list*
%AMRoundRect*
0 Rectangle with rounded corners*
0 $1 Rounding radius*
0 $2 $3 $4 $5 $6 $7 $8 $9 X,Y pos of 4 corners*
0 Add a 4 corners polygon primitive as box body*
4,1,4,$2,$3,$4,$5,$6,$7,$8,$9,$2,$3,0*
0 Add four circle primitives for the rounded corners*
1,1,$1+$1,$2,$3*
1,1,$1+$1,$4,$5*
1,1,$1+$1,$6,$7*
1,1,$1+$1,$8,$9*
0 Add four rect primitives between the rounded corners*
20,1,$1+$1,$2,$3,$4,$5,0*
20,1,$1+$1,$4,$5,$6,$7,0*
20,1,$1+$1,$6,$7,$8,$9,0*
20,1,$1+$1,$8,$9,$2,$3,0*%
G04 Aperture macros list end*
G04 #@! TA.AperFunction,SMDPad,CuDef*
%ADD10RoundRect,0.225000X-0.225000X-0.250000X0.225000X-0.250000X0.225000X0.250000X-0.225000X0.250000X0*%
G04 #@! TD*
G04 #@! TA.AperFunction,SMDPad,CuDef*
%ADD11RoundRect,0.225000X-0.225000X-0.375000X0.225000X-0.375000X0.225000X0.375000X-0.225000X0.375000X0*%
G04 #@! TD*
G04 #@! TA.AperFunction,SMDPad,CuDef*
%ADD12RoundRect,0.200000X0.200000X0.275000X-0.200000X0.275000X-0.200000X-0.275000X0.200000X-0.275000X0*%
G04 #@! TD*
G04 #@! TA.AperFunction,SMDPad,CuDef*
%ADD13RoundRect,0.218750X-0.218750X-0.256250X0.218750X-0.256250X0.218750X0.256250X-0.218750X0.256250X0*%
G04 #@! TD*
G04 #@! TA.AperFunction,SMDPad,CuDef*
%ADD14RoundRect,0.225000X0.250000X-0.225000X0.250000X0.225000X-0.250000X0.225000X-0.250000X-0.225000X0*%
G04 #@! TD*
G04 #@! TA.AperFunction,SMDPad,CuDef*
%ADD15RoundRect,0.225000X-0.250000X0.225000X-0.250000X-0.225000X0.250000X-0.225000X0.250000X0.225000X0*%
G04 #@! TD*
G04 #@! TA.AperFunction,ComponentPad*
%ADD16R,1.700000X1.700000*%
G04 #@! TD*
G04 #@! TA.AperFunction,ComponentPad*
%ADD17C,1.700000*%
G04 #@! TD*
G04 #@! TA.AperFunction,SMDPad,CuDef*
%ADD18RoundRect,0.150000X0.150000X-0.825000X0.150000X0.825000X-0.150000X0.825000X-0.150000X-0.825000X0*%
G04 #@! TD*
G04 #@! TA.AperFunction,SMDPad,CuDef*
%ADD19RoundRect,0.200000X-0.200000X-0.275000X0.200000X-0.275000X0.200000X0.275000X-0.200000X0.275000X0*%
G04 #@! TD*
G04 #@! TA.AperFunction,SMDPad,CuDef*
%ADD20R,0.650000X1.050000*%
G04 #@! TD*
G04 #@! TA.AperFunction,ComponentPad*
%ADD21R,1.520000X1.520000*%
G04 #@! TD*
G04 #@! TA.AperFunction,ComponentPad*
%ADD22C,1.520000*%
G04 #@! TD*
G04 #@! TA.AperFunction,SMDPad,CuDef*
%ADD23RoundRect,0.225000X0.225000X0.250000X-0.225000X0.250000X-0.225000X-0.250000X0.225000X-0.250000X0*%
G04 #@! TD*
G04 #@! TA.AperFunction,ComponentPad*
%ADD24RoundRect,0.250000X-0.550000X-0.550000X0.550000X-0.550000X0.550000X0.550000X-0.550000X0.550000X0*%
G04 #@! TD*
G04 #@! TA.AperFunction,ComponentPad*
%ADD25C,1.600000*%
G04 #@! TD*
G04 #@! TA.AperFunction,SMDPad,CuDef*
%ADD26RoundRect,0.125000X-0.625000X-0.125000X0.625000X-0.125000X0.625000X0.125000X-0.625000X0.125000X0*%
G04 #@! TD*
G04 #@! TA.AperFunction,SMDPad,CuDef*
%ADD27RoundRect,0.125000X-0.125000X0.625000X-0.125000X-0.625000X0.125000X-0.625000X0.125000X0.625000X0*%
G04 #@! TD*
G04 #@! TA.AperFunction,SMDPad,CuDef*
%ADD28RoundRect,0.125000X0.625000X0.125000X-0.625000X0.125000X-0.625000X-0.125000X0.625000X-0.125000X0*%
G04 #@! TD*
G04 #@! TA.AperFunction,SMDPad,CuDef*
%ADD29RoundRect,0.125000X0.125000X-0.625000X0.125000X0.625000X-0.125000X0.625000X-0.125000X-0.625000X0*%
G04 #@! TD*
G04 #@! TA.AperFunction,SMDPad,CuDef*
%ADD30RoundRect,0.225000X-0.675000X-0.225000X0.675000X-0.225000X0.675000X0.225000X-0.675000X0.225000X0*%
G04 #@! TD*
G04 #@! TA.AperFunction,SMDPad,CuDef*
%ADD31RoundRect,0.250000X-0.300000X-1.000000X0.300000X-1.000000X0.300000X1.000000X-0.300000X1.000000X0*%
G04 #@! TD*
G04 #@! TA.AperFunction,ComponentPad*
%ADD32C,1.900000*%
G04 #@! TD*
G04 #@! TA.AperFunction,SMDPad,CuDef*
%ADD33RoundRect,0.225000X-0.375000X0.225000X-0.375000X-0.225000X0.375000X-0.225000X0.375000X0.225000X0*%
G04 #@! TD*
G04 #@! TA.AperFunction,SMDPad,CuDef*
%ADD34RoundRect,0.150000X-0.825000X-0.150000X0.825000X-0.150000X0.825000X0.150000X-0.825000X0.150000X0*%
G04 #@! TD*
G04 #@! TA.AperFunction,SMDPad,CuDef*
%ADD35RoundRect,0.200000X-0.275000X0.200000X-0.275000X-0.200000X0.275000X-0.200000X0.275000X0.200000X0*%
G04 #@! TD*
G04 #@! TA.AperFunction,ComponentPad*
%ADD36R,1.300000X1.300000*%
G04 #@! TD*
G04 #@! TA.AperFunction,ComponentPad*
%ADD37C,1.300000*%
G04 #@! TD*
G04 #@! TA.AperFunction,ViaPad*
%ADD38C,0.600000*%
G04 #@! TD*
G04 #@! TA.AperFunction,ViaPad*
%ADD39C,0.500000*%
G04 #@! TD*
G04 #@! TA.AperFunction,Conductor*
%ADD40C,0.400000*%
G04 #@! TD*
G04 #@! TA.AperFunction,Conductor*
%ADD41C,0.800000*%
G04 #@! TD*
G04 #@! TA.AperFunction,Conductor*
%ADD42C,0.200000*%
G04 #@! TD*
G04 APERTURE END LIST*
D10*
X168625000Y-133100000D03*
X170175000Y-133100000D03*
D11*
X170550000Y-137250000D03*
X173850000Y-137250000D03*
D12*
X159525000Y-132400000D03*
X157875000Y-132400000D03*
X158225000Y-115000000D03*
X156575000Y-115000000D03*
D13*
X161362500Y-123750000D03*
X162937500Y-123750000D03*
X158112500Y-120500000D03*
X159687500Y-120500000D03*
D14*
X135075000Y-141165000D03*
X135075000Y-139615000D03*
D10*
X172125000Y-128700000D03*
X173675000Y-128700000D03*
D15*
X173000000Y-133125000D03*
X173000000Y-134675000D03*
D16*
X134850000Y-134890000D03*
D17*
X137390000Y-134890000D03*
X139930000Y-134890000D03*
X142470000Y-134890000D03*
D18*
X136620000Y-142890000D03*
X137890000Y-142890000D03*
X139160000Y-142890000D03*
X140430000Y-142890000D03*
X140430000Y-137940000D03*
X139160000Y-137940000D03*
X137890000Y-137940000D03*
X136620000Y-137940000D03*
D10*
X168625000Y-130100000D03*
X170175000Y-130100000D03*
D19*
X158075000Y-119000000D03*
X159725000Y-119000000D03*
D10*
X138350000Y-144915000D03*
X139900000Y-144915000D03*
D15*
X152700000Y-117925000D03*
X152700000Y-119475000D03*
X155400000Y-118025000D03*
X155400000Y-119575000D03*
D12*
X158225000Y-116500000D03*
X156575000Y-116500000D03*
D16*
X190320000Y-146840000D03*
D17*
X187780000Y-146840000D03*
X185240000Y-146840000D03*
X182700000Y-146840000D03*
D20*
X148825000Y-122675000D03*
X148825000Y-118525000D03*
X150975000Y-122675000D03*
X150975000Y-118525000D03*
D21*
X164050000Y-138260000D03*
D22*
X163030000Y-140800000D03*
X162010000Y-138260000D03*
X160990000Y-140800000D03*
X159970000Y-138260000D03*
X158950000Y-140800000D03*
D15*
X159875000Y-123700000D03*
X159875000Y-125250000D03*
D14*
X159700000Y-117475000D03*
X159700000Y-115925000D03*
D23*
X162825000Y-132350000D03*
X161275000Y-132350000D03*
D14*
X161200000Y-118675000D03*
X161200000Y-117125000D03*
D23*
X166675000Y-127000000D03*
X165125000Y-127000000D03*
D16*
X163200000Y-111175000D03*
D17*
X165740000Y-111175000D03*
X168280000Y-111175000D03*
X170820000Y-111175000D03*
D24*
X167295000Y-116990000D03*
D25*
X167295000Y-119530000D03*
X167295000Y-122070000D03*
X167295000Y-124610000D03*
X174915000Y-124610000D03*
X174915000Y-122070000D03*
X174915000Y-119530000D03*
X174915000Y-116990000D03*
D26*
X183260000Y-140450000D03*
X183260000Y-141450000D03*
X183260000Y-142450000D03*
D27*
X184460000Y-143900000D03*
X185460000Y-143900000D03*
X186460000Y-143900000D03*
X187460000Y-143900000D03*
X188460000Y-143900000D03*
D28*
X189660000Y-142450000D03*
X189660000Y-141450000D03*
X189660000Y-140450000D03*
D29*
X188460000Y-139000000D03*
X187460000Y-139000000D03*
X186460000Y-139000000D03*
X185460000Y-139000000D03*
X184460000Y-139000000D03*
D30*
X186460000Y-140600000D03*
X186460000Y-142300000D03*
D31*
X168350000Y-127800000D03*
X170450000Y-127800000D03*
D15*
X158375000Y-123700000D03*
X158375000Y-125250000D03*
D23*
X162950000Y-125250000D03*
X161400000Y-125250000D03*
D32*
X178037000Y-111910000D03*
X178037000Y-114450000D03*
X178037000Y-116990000D03*
X178037000Y-119530000D03*
X178037000Y-122070000D03*
X178037000Y-124610000D03*
D33*
X166350000Y-128800000D03*
X166350000Y-132100000D03*
D34*
X149275000Y-110670000D03*
X149275000Y-111940000D03*
X149275000Y-113210000D03*
X149275000Y-114480000D03*
X154225000Y-114480000D03*
X154225000Y-113210000D03*
X154225000Y-111940000D03*
X154225000Y-110670000D03*
D16*
X176625000Y-129500000D03*
D17*
X176625000Y-132040000D03*
X176625000Y-134580000D03*
X176625000Y-137120000D03*
D10*
X168625000Y-131600000D03*
X170175000Y-131600000D03*
D35*
X152700000Y-120900000D03*
X152700000Y-122550000D03*
D23*
X162825000Y-130850000D03*
X161275000Y-130850000D03*
D16*
X148700000Y-125385000D03*
D17*
X151240000Y-125385000D03*
X148700000Y-127925000D03*
X151240000Y-127925000D03*
X148700000Y-130465000D03*
X151240000Y-130465000D03*
D19*
X156475000Y-129500000D03*
X158125000Y-129500000D03*
D15*
X147200000Y-112425000D03*
X147200000Y-113975000D03*
D36*
X171850000Y-130160000D03*
D37*
X171850000Y-132700000D03*
X171850000Y-135240000D03*
D38*
X152100000Y-138700000D03*
X160200000Y-111000000D03*
X162700000Y-146300000D03*
X170800000Y-147300000D03*
X155000000Y-131000000D03*
X176200000Y-140800000D03*
D39*
X155400000Y-118025000D03*
D38*
X151700000Y-133300000D03*
X159500000Y-130850000D03*
D39*
X157875000Y-132400000D03*
D38*
X170900000Y-125900000D03*
X160800000Y-115300000D03*
X150100000Y-116800000D03*
D39*
X161400000Y-125250000D03*
D38*
X170800000Y-141500000D03*
X172800000Y-112300000D03*
X175700000Y-111700000D03*
X166600000Y-130500000D03*
X172800000Y-112300000D03*
X166800000Y-134000000D03*
X168100000Y-138800000D03*
X151200000Y-144300000D03*
X168700000Y-113500000D03*
X173800000Y-143800000D03*
X164800000Y-124600000D03*
X148400000Y-134400000D03*
X152537500Y-117762500D03*
X159000000Y-143600000D03*
X149800000Y-120600000D03*
X148700000Y-139700000D03*
X151700000Y-111400000D03*
X179300000Y-137600000D03*
D39*
X173675000Y-128700000D03*
X161200000Y-118675000D03*
D38*
X156300000Y-146600000D03*
D39*
X161200000Y-117125000D03*
X149275000Y-110670000D03*
X155400000Y-119575000D03*
X158375000Y-123700000D03*
D38*
X153047927Y-119706064D03*
D39*
X164375000Y-114124000D03*
X162825000Y-132350000D03*
D38*
X138435000Y-146955000D03*
X138335000Y-140455000D03*
X138065000Y-132225000D03*
X141435000Y-136555000D03*
X142595000Y-132285000D03*
D39*
X141810000Y-142930000D03*
X136620000Y-142890000D03*
X162950000Y-125250000D03*
D38*
X187625000Y-149510000D03*
X182655000Y-149450000D03*
X182785000Y-139050000D03*
X191195000Y-145010000D03*
X183260000Y-142450000D03*
X189660000Y-140450000D03*
D39*
X186460000Y-143900000D03*
D38*
X182095000Y-144950000D03*
X183260000Y-141450000D03*
X191155000Y-140920000D03*
X189627500Y-142417500D03*
D39*
X187460000Y-143900000D03*
X159687500Y-120500000D03*
D38*
X160675000Y-136200000D03*
D39*
X156150000Y-124150000D03*
X154800000Y-125600000D03*
X153862500Y-127900000D03*
X155325000Y-127200000D03*
X162462500Y-116700000D03*
D38*
X170850000Y-113900000D03*
D39*
X154250000Y-113325000D03*
X154250000Y-111800000D03*
X158225000Y-115000000D03*
X159525000Y-132400000D03*
X156475000Y-129500000D03*
X165300000Y-117750000D03*
X164250000Y-116175000D03*
X156600000Y-136700000D03*
X157925000Y-134200000D03*
D40*
X154225000Y-110670000D02*
X155199999Y-110670000D01*
X161275000Y-130850000D02*
X161275000Y-132350000D01*
X167295000Y-124610000D02*
X167295000Y-124830000D01*
X155674000Y-127951000D02*
X155674000Y-130199000D01*
X148700000Y-125385000D02*
X148700000Y-122800000D01*
X173675000Y-128700000D02*
X173675000Y-130437000D01*
D41*
X173000000Y-134675000D02*
X172415000Y-134675000D01*
D40*
X159700000Y-118975000D02*
X159725000Y-119000000D01*
X155674000Y-130199000D02*
X157875000Y-132400000D01*
X159700000Y-117475000D02*
X159700000Y-118975000D01*
X159425000Y-130850000D02*
X157875000Y-132400000D01*
X149275000Y-114775000D02*
X148825000Y-115225000D01*
D41*
X170175000Y-133100000D02*
X170175000Y-133565000D01*
X170175000Y-133565000D02*
X171850000Y-135240000D01*
D40*
X148825000Y-115225000D02*
X148825000Y-118525000D01*
X147200000Y-113975000D02*
X148770000Y-113975000D01*
X160875000Y-119000000D02*
X161200000Y-118675000D01*
X165125000Y-127000000D02*
X163150000Y-127000000D01*
X173675000Y-130437000D02*
X172512000Y-131600000D01*
X161360000Y-118675000D02*
X161200000Y-118675000D01*
D41*
X172415000Y-134675000D02*
X171850000Y-135240000D01*
D40*
X159700000Y-117475000D02*
X155950000Y-117475000D01*
X158375000Y-125250000D02*
X155674000Y-127951000D01*
X155950000Y-117475000D02*
X155400000Y-118025000D01*
X154325000Y-114580000D02*
X154225000Y-114480000D01*
X167295000Y-124610000D02*
X167585580Y-124610000D01*
X148770000Y-113975000D02*
X149275000Y-114480000D01*
X167295000Y-124830000D02*
X165125000Y-127000000D01*
X149275000Y-114480000D02*
X154225000Y-114480000D01*
X169499000Y-129424000D02*
X170175000Y-130100000D01*
X163150000Y-127000000D02*
X161400000Y-125250000D01*
X159500000Y-130850000D02*
X159425000Y-130850000D01*
X172512000Y-131600000D02*
X170175000Y-131600000D01*
D41*
X170175000Y-131600000D02*
X170175000Y-133100000D01*
D40*
X155770000Y-114580000D02*
X154325000Y-114580000D01*
X159725000Y-119000000D02*
X160875000Y-119000000D01*
X148825000Y-122675000D02*
X148825000Y-118525000D01*
X148700000Y-122800000D02*
X148825000Y-122675000D01*
X161400000Y-125250000D02*
X159875000Y-125250000D01*
X155199999Y-110670000D02*
X155774000Y-111244001D01*
X167585580Y-124610000D02*
X169499000Y-126523420D01*
X169499000Y-126523420D02*
X169499000Y-129424000D01*
X167295000Y-124610000D02*
X161360000Y-118675000D01*
D41*
X170175000Y-130100000D02*
X170175000Y-131600000D01*
D40*
X155774000Y-111244001D02*
X155774000Y-114576000D01*
X161275000Y-130850000D02*
X159500000Y-130850000D01*
X155774000Y-114576000D02*
X155770000Y-114580000D01*
X149275000Y-114480000D02*
X149275000Y-114775000D01*
X159875000Y-125250000D02*
X158375000Y-125250000D01*
X160900000Y-117125000D02*
X159700000Y-115925000D01*
X161200000Y-117125000D02*
X160900000Y-117125000D01*
X158800000Y-115925000D02*
X158225000Y-116500000D01*
X159700000Y-115925000D02*
X158800000Y-115925000D01*
D41*
X166350000Y-128800000D02*
X167350000Y-128800000D01*
X168350000Y-129825000D02*
X168625000Y-130100000D01*
X167475000Y-127800000D02*
X166675000Y-127000000D01*
X168625000Y-130100000D02*
X168625000Y-131600000D01*
X168350000Y-127800000D02*
X167475000Y-127800000D01*
X168625000Y-135325000D02*
X168625000Y-133100000D01*
X168625000Y-131600000D02*
X168625000Y-133100000D01*
X168350000Y-127800000D02*
X168350000Y-129825000D01*
X170550000Y-137250000D02*
X168625000Y-135325000D01*
X167350000Y-128800000D02*
X168350000Y-127800000D01*
D40*
X178875000Y-134870000D02*
X176625000Y-137120000D01*
X157770516Y-114124000D02*
X157376000Y-114518516D01*
X156575000Y-116500000D02*
X155558468Y-116500000D01*
X157376000Y-114518516D02*
X157376000Y-115699000D01*
X174915000Y-124610000D02*
X167295000Y-116990000D01*
X155558468Y-116500000D02*
X154524000Y-117534468D01*
X161312500Y-123700000D02*
X161362500Y-123750000D01*
X158375000Y-123700000D02*
X159875000Y-123700000D01*
D41*
X173099374Y-133125000D02*
X174076000Y-134101626D01*
D40*
X155400000Y-120575000D02*
X155400000Y-119575000D01*
X154524000Y-118699000D02*
X155400000Y-119575000D01*
X158375000Y-123700000D02*
X158375000Y-123550000D01*
D41*
X172275000Y-133125000D02*
X171850000Y-132700000D01*
X173850000Y-137250000D02*
X176495000Y-137250000D01*
X173000000Y-133125000D02*
X172275000Y-133125000D01*
D40*
X175810000Y-124610000D02*
X178875000Y-127675000D01*
X164429000Y-114124000D02*
X164375000Y-114124000D01*
X178875000Y-127675000D02*
X178875000Y-134870000D01*
D41*
X174076000Y-134101626D02*
X174076000Y-137024000D01*
D40*
X159875000Y-123700000D02*
X161312500Y-123700000D01*
X167295000Y-116990000D02*
X164429000Y-114124000D01*
X174915000Y-124610000D02*
X175810000Y-124610000D01*
X157376000Y-115699000D02*
X156575000Y-116500000D01*
X158375000Y-123550000D02*
X155400000Y-120575000D01*
X164375000Y-114124000D02*
X157770516Y-114124000D01*
X152700000Y-120900000D02*
X152700000Y-119475000D01*
D41*
X173000000Y-133125000D02*
X173099374Y-133125000D01*
X174076000Y-137024000D02*
X173850000Y-137250000D01*
D40*
X154524000Y-117534468D02*
X154524000Y-118699000D01*
D41*
X176495000Y-137250000D02*
X176625000Y-137120000D01*
D40*
X149275000Y-111940000D02*
X147685000Y-111940000D01*
X147685000Y-111940000D02*
X147200000Y-112425000D01*
X178037000Y-111910000D02*
X176051000Y-109924000D01*
X166991000Y-109924000D02*
X165740000Y-111175000D01*
X174915000Y-116990000D02*
X178037000Y-116990000D01*
X176051000Y-109924000D02*
X166991000Y-109924000D01*
X162825000Y-130850000D02*
X161475000Y-129500000D01*
X179388000Y-115639000D02*
X179388000Y-113261000D01*
X161475000Y-129500000D02*
X158125000Y-129500000D01*
X178037000Y-116990000D02*
X179388000Y-115639000D01*
X179388000Y-113261000D02*
X178037000Y-111910000D01*
X162825000Y-130850000D02*
X162825000Y-132350000D01*
D41*
X172125000Y-129885000D02*
X171850000Y-130160000D01*
X172125000Y-128700000D02*
X172125000Y-129885000D01*
X170450000Y-127800000D02*
X171225000Y-127800000D01*
X171225000Y-127800000D02*
X172125000Y-128700000D01*
D40*
X136620000Y-138070000D02*
X135075000Y-139615000D01*
X136620000Y-137940000D02*
X136620000Y-138070000D01*
X140430000Y-138914999D02*
X140430000Y-137940000D01*
X136620000Y-137940000D02*
X136620000Y-136660000D01*
X136620000Y-136660000D02*
X134850000Y-134890000D01*
D42*
X141435000Y-136555000D02*
X141319000Y-136439000D01*
D40*
X140430000Y-144385000D02*
X139900000Y-144915000D01*
X139729999Y-139615000D02*
X140430000Y-138914999D01*
X140430000Y-142890000D02*
X140430000Y-144385000D01*
X140430000Y-137940000D02*
X140430000Y-142890000D01*
X135075000Y-139615000D02*
X139729999Y-139615000D01*
D42*
X141319000Y-133561000D02*
X142595000Y-132285000D01*
X141319000Y-136439000D02*
X141319000Y-133561000D01*
D40*
X142470000Y-134890000D02*
X142470000Y-142270000D01*
X135075000Y-141345000D02*
X136620000Y-142890000D01*
X135075000Y-141165000D02*
X135075000Y-141345000D01*
X142470000Y-142270000D02*
X141810000Y-142930000D01*
X137890000Y-144455000D02*
X138350000Y-144915000D01*
X137890000Y-142890000D02*
X137890000Y-144455000D01*
X162937500Y-123750000D02*
X162937500Y-125237500D01*
X162937500Y-125237500D02*
X162950000Y-125250000D01*
X186460000Y-142300000D02*
X189510000Y-142300000D01*
X190685000Y-140450000D02*
X191155000Y-140920000D01*
X186460000Y-142300000D02*
X186460000Y-141325000D01*
D42*
X189952000Y-149510000D02*
X191471000Y-147991000D01*
X191195000Y-145010000D02*
X191195000Y-140960000D01*
X191471000Y-145286000D02*
X191195000Y-145010000D01*
X181549000Y-148344000D02*
X182655000Y-149450000D01*
D40*
X186460000Y-145620000D02*
X186460000Y-143900000D01*
X186460000Y-143900000D02*
X186460000Y-142300000D01*
X189660000Y-140450000D02*
X190685000Y-140450000D01*
X186585000Y-141450000D02*
X189660000Y-141450000D01*
X189627500Y-142417500D02*
X189660000Y-142450000D01*
X183410000Y-142300000D02*
X183260000Y-142450000D01*
D42*
X181549000Y-145496000D02*
X181549000Y-148344000D01*
D40*
X186460000Y-140600000D02*
X183410000Y-140600000D01*
X183410000Y-140600000D02*
X183260000Y-140450000D01*
X186460000Y-141325000D02*
X186460000Y-140600000D01*
X186460000Y-141325000D02*
X186585000Y-141450000D01*
D42*
X187625000Y-149510000D02*
X189952000Y-149510000D01*
D40*
X183260000Y-141450000D02*
X186335000Y-141450000D01*
X186460000Y-142300000D02*
X183410000Y-142300000D01*
X189510000Y-142300000D02*
X189627500Y-142417500D01*
X186335000Y-141450000D02*
X186460000Y-141325000D01*
D42*
X191195000Y-140960000D02*
X191155000Y-140920000D01*
X191471000Y-147991000D02*
X191471000Y-145286000D01*
D40*
X185240000Y-146840000D02*
X186460000Y-145620000D01*
X189510000Y-140600000D02*
X189660000Y-140450000D01*
D42*
X182095000Y-144950000D02*
X181549000Y-145496000D01*
D40*
X186460000Y-140600000D02*
X189510000Y-140600000D01*
X187460000Y-143900000D02*
X187460000Y-146520000D01*
X187460000Y-146520000D02*
X187780000Y-146840000D01*
D41*
X166130000Y-132100000D02*
X159970000Y-138260000D01*
D42*
X160070000Y-138160000D02*
X159970000Y-138260000D01*
X160085255Y-138160000D02*
X160070000Y-138160000D01*
D41*
X166350000Y-132100000D02*
X166130000Y-132100000D01*
D40*
X158112500Y-120500000D02*
X158112500Y-119037500D01*
X158112500Y-119037500D02*
X158075000Y-119000000D01*
X158809000Y-137666000D02*
X158809000Y-139017098D01*
X160591902Y-140800000D02*
X160990000Y-140800000D01*
X158809000Y-139017098D02*
X160591902Y-140800000D01*
X160990000Y-140700000D02*
X160868098Y-140700000D01*
X160675000Y-136200000D02*
X160275000Y-136200000D01*
X160275000Y-136200000D02*
X158809000Y-137666000D01*
X153764000Y-126636000D02*
X154800000Y-125600000D01*
X148700000Y-127925000D02*
X149989000Y-126636000D01*
X149989000Y-126636000D02*
X153764000Y-126636000D01*
X154800000Y-125500000D02*
X156150000Y-124150000D01*
X154800000Y-125600000D02*
X154800000Y-125500000D01*
X154077468Y-115181000D02*
X150975000Y-118283468D01*
X150975000Y-125120000D02*
X151240000Y-125385000D01*
X150975000Y-118283468D02*
X150975000Y-118525000D01*
X156575000Y-115000000D02*
X156394000Y-115181000D01*
X156394000Y-115181000D02*
X154077468Y-115181000D01*
X152700000Y-122550000D02*
X151100000Y-122550000D01*
X151100000Y-122550000D02*
X150975000Y-122675000D01*
X150975000Y-122675000D02*
X150975000Y-125120000D01*
X150975000Y-118525000D02*
X150975000Y-122675000D01*
X151240000Y-127925000D02*
X153837500Y-127925000D01*
X153837500Y-127925000D02*
X153862500Y-127900000D01*
X155325000Y-127450058D02*
X155325000Y-127200000D01*
X151240000Y-130465000D02*
X152310058Y-130465000D01*
X152310058Y-130465000D02*
X155325000Y-127450058D01*
X176625000Y-134580000D02*
X174526000Y-132481000D01*
X174526000Y-132481000D02*
X174526000Y-128184468D01*
X167295000Y-121395000D02*
X162600000Y-116700000D01*
X167295000Y-122070000D02*
X167295000Y-121395000D01*
X174526000Y-128184468D02*
X168411532Y-122070000D01*
X168411532Y-122070000D02*
X167295000Y-122070000D01*
X162600000Y-116700000D02*
X162462500Y-116700000D01*
X175575000Y-126025000D02*
X173790000Y-126025000D01*
X177876000Y-128326000D02*
X175575000Y-126025000D01*
X173790000Y-126025000D02*
X167295000Y-119530000D01*
X177876000Y-130789000D02*
X177876000Y-128326000D01*
X176625000Y-132040000D02*
X177876000Y-130789000D01*
X137890000Y-137940000D02*
X137890000Y-135390000D01*
X137890000Y-135390000D02*
X137390000Y-134890000D01*
X139160000Y-135660000D02*
X139160000Y-137940000D01*
X139930000Y-134890000D02*
X139160000Y-135660000D01*
X175497000Y-122070000D02*
X174915000Y-122070000D01*
X178037000Y-124610000D02*
X175497000Y-122070000D01*
X174915000Y-122070000D02*
X170850000Y-118005000D01*
X170850000Y-118005000D02*
X170850000Y-113900000D01*
X170367364Y-112426000D02*
X173714000Y-115772636D01*
X173714000Y-115772636D02*
X173714000Y-118329000D01*
X174915000Y-119530000D02*
X178037000Y-119530000D01*
X164451000Y-112426000D02*
X170367364Y-112426000D01*
X173714000Y-118329000D02*
X174915000Y-119530000D01*
X163200000Y-111175000D02*
X164451000Y-112426000D01*
X185460000Y-143900000D02*
X185460000Y-144649999D01*
X183269999Y-146840000D02*
X182700000Y-146840000D01*
X185460000Y-144649999D02*
X183269999Y-146840000D01*
X188460000Y-143900000D02*
X188460000Y-144980000D01*
X188460000Y-144980000D02*
X190320000Y-146840000D01*
X154225000Y-113300000D02*
X154250000Y-113325000D01*
X154225000Y-113210000D02*
X154225000Y-113300000D01*
X154225000Y-111940000D02*
X154225000Y-111825000D01*
X154225000Y-111825000D02*
X154250000Y-111800000D01*
X164250000Y-116700000D02*
X165300000Y-117750000D01*
X164250000Y-116175000D02*
X164250000Y-116700000D01*
D42*
X156600000Y-136700000D02*
X157925000Y-135375000D01*
X157925000Y-135375000D02*
X157925000Y-134200000D01*
G04 #@! TA.AperFunction,Conductor*
G36*
X143960239Y-135132201D02*
G01*
X144011715Y-135179445D01*
X144029528Y-135243612D01*
X144019715Y-144340947D01*
X144019716Y-144340952D01*
X144053685Y-144468276D01*
X144053688Y-144468283D01*
X144119454Y-144582478D01*
X144119456Y-144582480D01*
X144212541Y-144675766D01*
X144255188Y-144700449D01*
X144285329Y-144717895D01*
X144298979Y-144727054D01*
X144414508Y-144816225D01*
X144424552Y-144824873D01*
X144578732Y-144972675D01*
X144587797Y-144982346D01*
X144725325Y-145145769D01*
X144733304Y-145156351D01*
X144852609Y-145333524D01*
X144859415Y-145344899D01*
X144953384Y-145522917D01*
X144958426Y-145533691D01*
X144977499Y-145580130D01*
X144977500Y-145580132D01*
X144977501Y-145580133D01*
X144986085Y-145591390D01*
X144989820Y-145599486D01*
X145019003Y-145634557D01*
X145020604Y-145636656D01*
X145020604Y-145636657D01*
X145056552Y-145683798D01*
X145081550Y-145749042D01*
X145081949Y-145759384D01*
X145077781Y-147064158D01*
X145057883Y-147131134D01*
X145034924Y-147156224D01*
X145035014Y-147156313D01*
X145032556Y-147158812D01*
X145030109Y-147161487D01*
X145029321Y-147162101D01*
X144977788Y-147214509D01*
X144977789Y-147214510D01*
X144976736Y-147215580D01*
X144945288Y-147246108D01*
X144943067Y-147249822D01*
X144936924Y-147256071D01*
X144936923Y-147256073D01*
X144906298Y-147310165D01*
X144902414Y-147316565D01*
X144767402Y-147524649D01*
X144758513Y-147536690D01*
X144601815Y-147724120D01*
X144591540Y-147735003D01*
X144413392Y-147902198D01*
X144401880Y-147911763D01*
X144204896Y-148056269D01*
X144192315Y-148064378D01*
X143979349Y-148184100D01*
X143965884Y-148190633D01*
X143740053Y-148283823D01*
X143725898Y-148288687D01*
X143490480Y-148353991D01*
X143475843Y-148357114D01*
X143234273Y-148393578D01*
X143219365Y-148394915D01*
X142975159Y-148402008D01*
X142960199Y-148401539D01*
X142716919Y-148379158D01*
X142702126Y-148376890D01*
X142463313Y-148325362D01*
X142448899Y-148321328D01*
X142218028Y-148241400D01*
X142204206Y-148235658D01*
X142061200Y-148165860D01*
X142049370Y-148158537D01*
X142049355Y-148158564D01*
X142042318Y-148154501D01*
X142042317Y-148154500D01*
X141974916Y-148115586D01*
X141928190Y-148088608D01*
X141864542Y-148071554D01*
X141800895Y-148054500D01*
X141800894Y-148054500D01*
X136098322Y-148054500D01*
X136095829Y-148053859D01*
X136032414Y-148054500D01*
X135969107Y-148054500D01*
X135968907Y-148054500D01*
X135967174Y-148054746D01*
X135964060Y-148055188D01*
X135903561Y-148072055D01*
X135902356Y-148072384D01*
X135841813Y-148088607D01*
X135838904Y-148089811D01*
X135838866Y-148089828D01*
X135837276Y-148090486D01*
X135783886Y-148122033D01*
X135776747Y-148125941D01*
X135546934Y-148242109D01*
X135531957Y-148248483D01*
X135292760Y-148332201D01*
X135277077Y-148336558D01*
X135028975Y-148388224D01*
X135012857Y-148390489D01*
X134760132Y-148409213D01*
X134743855Y-148409348D01*
X134490844Y-148394806D01*
X134474691Y-148392807D01*
X134225775Y-148345254D01*
X134210022Y-148341157D01*
X133969477Y-148261409D01*
X133954396Y-148255284D01*
X133726368Y-148144715D01*
X133712220Y-148136668D01*
X133500631Y-147997180D01*
X133487659Y-147987348D01*
X133296177Y-147821359D01*
X133284605Y-147809914D01*
X133116501Y-147620261D01*
X133106531Y-147607404D01*
X132964719Y-147397367D01*
X132956518Y-147383312D01*
X132937711Y-147345592D01*
X132846228Y-147162106D01*
X132843440Y-147156514D01*
X132837149Y-147141502D01*
X132754751Y-146901845D01*
X132750481Y-146886138D01*
X132700185Y-146637759D01*
X132698010Y-146621643D01*
X132680678Y-146368791D01*
X132680634Y-146352539D01*
X132687175Y-146248713D01*
X133384500Y-146248713D01*
X133384500Y-146461286D01*
X133417753Y-146671239D01*
X133483444Y-146873414D01*
X133579951Y-147062820D01*
X133704890Y-147234786D01*
X133855213Y-147385109D01*
X134027179Y-147510048D01*
X134027181Y-147510049D01*
X134027184Y-147510051D01*
X134216588Y-147606557D01*
X134418757Y-147672246D01*
X134628713Y-147705500D01*
X134628714Y-147705500D01*
X134841286Y-147705500D01*
X134841287Y-147705500D01*
X135051243Y-147672246D01*
X135253412Y-147606557D01*
X135442816Y-147510051D01*
X135464789Y-147494086D01*
X135614786Y-147385109D01*
X135614788Y-147385106D01*
X135614792Y-147385104D01*
X135765104Y-147234792D01*
X135765106Y-147234788D01*
X135765109Y-147234786D01*
X135890048Y-147062820D01*
X135890047Y-147062820D01*
X135890051Y-147062816D01*
X135986557Y-146873412D01*
X136052246Y-146671243D01*
X136085500Y-146461287D01*
X136085500Y-146248713D01*
X141684500Y-146248713D01*
X141684500Y-146461286D01*
X141717753Y-146671239D01*
X141783444Y-146873414D01*
X141879951Y-147062820D01*
X142004890Y-147234786D01*
X142155213Y-147385109D01*
X142327179Y-147510048D01*
X142327181Y-147510049D01*
X142327184Y-147510051D01*
X142516588Y-147606557D01*
X142718757Y-147672246D01*
X142928713Y-147705500D01*
X142928714Y-147705500D01*
X143141286Y-147705500D01*
X143141287Y-147705500D01*
X143351243Y-147672246D01*
X143553412Y-147606557D01*
X143742816Y-147510051D01*
X143764789Y-147494086D01*
X143914786Y-147385109D01*
X143914788Y-147385106D01*
X143914792Y-147385104D01*
X144065104Y-147234792D01*
X144065106Y-147234788D01*
X144065109Y-147234786D01*
X144190048Y-147062820D01*
X144190047Y-147062820D01*
X144190051Y-147062816D01*
X144286557Y-146873412D01*
X144352246Y-146671243D01*
X144385500Y-146461287D01*
X144385500Y-146248713D01*
X144352246Y-146038757D01*
X144286557Y-145836588D01*
X144190051Y-145647184D01*
X144190049Y-145647181D01*
X144190048Y-145647179D01*
X144065109Y-145475213D01*
X143914786Y-145324890D01*
X143742820Y-145199951D01*
X143553414Y-145103444D01*
X143553413Y-145103443D01*
X143553412Y-145103443D01*
X143351243Y-145037754D01*
X143351241Y-145037753D01*
X143351240Y-145037753D01*
X143189957Y-145012208D01*
X143141287Y-145004500D01*
X142928713Y-145004500D01*
X142880042Y-145012208D01*
X142718760Y-145037753D01*
X142516585Y-145103444D01*
X142327179Y-145199951D01*
X142155213Y-145324890D01*
X142004890Y-145475213D01*
X141879951Y-145647179D01*
X141783444Y-145836585D01*
X141783443Y-145836587D01*
X141783443Y-145836588D01*
X141765926Y-145890499D01*
X141717753Y-146038760D01*
X141684500Y-146248713D01*
X136085500Y-146248713D01*
X136052246Y-146038757D01*
X135986557Y-145836588D01*
X135890051Y-145647184D01*
X135890049Y-145647181D01*
X135890048Y-145647179D01*
X135765109Y-145475213D01*
X135614786Y-145324890D01*
X135442820Y-145199951D01*
X135253414Y-145103444D01*
X135253413Y-145103443D01*
X135253412Y-145103443D01*
X135051243Y-145037754D01*
X135051241Y-145037753D01*
X135051240Y-145037753D01*
X134889957Y-145012208D01*
X134841287Y-145004500D01*
X134628713Y-145004500D01*
X134580042Y-145012208D01*
X134418760Y-145037753D01*
X134216585Y-145103444D01*
X134027179Y-145199951D01*
X133855213Y-145324890D01*
X133704890Y-145475213D01*
X133579951Y-145647179D01*
X133483444Y-145836585D01*
X133483443Y-145836587D01*
X133483443Y-145836588D01*
X133465926Y-145890499D01*
X133417753Y-146038760D01*
X133384500Y-146248713D01*
X132687175Y-146248713D01*
X132696570Y-146099593D01*
X132698658Y-146083459D01*
X132736625Y-145890500D01*
X132747584Y-145834800D01*
X132751764Y-145819088D01*
X132832845Y-145578962D01*
X132839044Y-145563939D01*
X132950873Y-145336514D01*
X132958997Y-145322413D01*
X133099651Y-145111594D01*
X133109544Y-145098688D01*
X133279100Y-144905255D01*
X133284650Y-144899327D01*
X133335500Y-144848479D01*
X133401392Y-144734351D01*
X133435500Y-144607057D01*
X133435500Y-139341677D01*
X134100000Y-139341677D01*
X134100000Y-139365000D01*
X134825000Y-139365000D01*
X134825000Y-138665000D01*
X135325000Y-138665000D01*
X135325000Y-139365000D01*
X136057838Y-139365000D01*
X136101888Y-139340946D01*
X136171579Y-139345929D01*
X136191371Y-139355381D01*
X136209802Y-139366281D01*
X136367514Y-139412100D01*
X136367511Y-139412100D01*
X136369998Y-139412295D01*
X136370000Y-139412295D01*
X136370000Y-138190000D01*
X135820000Y-138190000D01*
X135820000Y-138621322D01*
X135800315Y-138688361D01*
X135747511Y-138734116D01*
X135678353Y-138744060D01*
X135640564Y-138730365D01*
X135640032Y-138731507D01*
X135633481Y-138728452D01*
X135472606Y-138675144D01*
X135373322Y-138665000D01*
X135325000Y-138665000D01*
X134825000Y-138665000D01*
X134824999Y-138664999D01*
X134776693Y-138665000D01*
X134776675Y-138665001D01*
X134677392Y-138675144D01*
X134516518Y-138728452D01*
X134516507Y-138728457D01*
X134372271Y-138817424D01*
X134372267Y-138817427D01*
X134252427Y-138937267D01*
X134252424Y-138937271D01*
X134163457Y-139081507D01*
X134163452Y-139081518D01*
X134110144Y-139242393D01*
X134100000Y-139341677D01*
X133435500Y-139341677D01*
X133435500Y-137049350D01*
X135820000Y-137049350D01*
X135820000Y-137690000D01*
X136370000Y-137690000D01*
X136370000Y-136467703D01*
X136367503Y-136467900D01*
X136209806Y-136513716D01*
X136209803Y-136513717D01*
X136068447Y-136597314D01*
X136068438Y-136597321D01*
X135952321Y-136713438D01*
X135952314Y-136713447D01*
X135868717Y-136854803D01*
X135868716Y-136854806D01*
X135822900Y-137012504D01*
X135822899Y-137012510D01*
X135820000Y-137049350D01*
X133435500Y-137049350D01*
X133435500Y-136189240D01*
X133455185Y-136122201D01*
X133507989Y-136076446D01*
X133577147Y-136066502D01*
X133634946Y-136092897D01*
X133635712Y-136091875D01*
X133640414Y-136095395D01*
X133640703Y-136095527D01*
X133641164Y-136095956D01*
X133757906Y-136183350D01*
X133757913Y-136183354D01*
X133892620Y-136233596D01*
X133892627Y-136233598D01*
X133952155Y-136239999D01*
X133952172Y-136240000D01*
X134600000Y-136240000D01*
X134600000Y-135323012D01*
X134657007Y-135355925D01*
X134784174Y-135390000D01*
X134915826Y-135390000D01*
X135042993Y-135355925D01*
X135100000Y-135323012D01*
X135100000Y-136240000D01*
X135747828Y-136240000D01*
X135747844Y-136239999D01*
X135807372Y-136233598D01*
X135807379Y-136233596D01*
X135942086Y-136183354D01*
X135942093Y-136183350D01*
X136057187Y-136097190D01*
X136057190Y-136097187D01*
X136143350Y-135982093D01*
X136143354Y-135982086D01*
X136192422Y-135850529D01*
X136234293Y-135794595D01*
X136299757Y-135770178D01*
X136368030Y-135785030D01*
X136396285Y-135806181D01*
X136510213Y-135920109D01*
X136682179Y-136045048D01*
X136682181Y-136045049D01*
X136682184Y-136045051D01*
X136871588Y-136141557D01*
X137073757Y-136207246D01*
X137084895Y-136209010D01*
X137115679Y-136223602D01*
X137146703Y-136237770D01*
X137147199Y-136238542D01*
X137148029Y-136238936D01*
X137166043Y-136267865D01*
X137184477Y-136296548D01*
X137184648Y-136297741D01*
X137184962Y-136298245D01*
X137189500Y-136331483D01*
X137189500Y-136394846D01*
X137169815Y-136461885D01*
X137117011Y-136507640D01*
X137047853Y-136517584D01*
X137030906Y-136513923D01*
X136872492Y-136467900D01*
X136870000Y-136467703D01*
X136870000Y-139412295D01*
X136870001Y-139412295D01*
X136872486Y-139412100D01*
X137030198Y-139366281D01*
X137171550Y-139282686D01*
X137177717Y-139277903D01*
X137179630Y-139280369D01*
X137228222Y-139253802D01*
X137297917Y-139258749D01*
X137330762Y-139279853D01*
X137331969Y-139278298D01*
X137338132Y-139283078D01*
X137338135Y-139283081D01*
X137479602Y-139366744D01*
X137521224Y-139378836D01*
X137637426Y-139412597D01*
X137637429Y-139412597D01*
X137637431Y-139412598D01*
X137674306Y-139415500D01*
X137674314Y-139415500D01*
X138105686Y-139415500D01*
X138105694Y-139415500D01*
X138142569Y-139412598D01*
X138142571Y-139412597D01*
X138142573Y-139412597D01*
X138184191Y-139400505D01*
X138300398Y-139366744D01*
X138441865Y-139283081D01*
X138441870Y-139283075D01*
X138448031Y-139278298D01*
X138449933Y-139280750D01*
X138498579Y-139254155D01*
X138568274Y-139259104D01*
X138600695Y-139279940D01*
X138601969Y-139278298D01*
X138608132Y-139283078D01*
X138608135Y-139283081D01*
X138749602Y-139366744D01*
X138791224Y-139378836D01*
X138907426Y-139412597D01*
X138907429Y-139412597D01*
X138907431Y-139412598D01*
X138944306Y-139415500D01*
X138944314Y-139415500D01*
X139375686Y-139415500D01*
X139375694Y-139415500D01*
X139412569Y-139412598D01*
X139412571Y-139412597D01*
X139412573Y-139412597D01*
X139454191Y-139400505D01*
X139570398Y-139366744D01*
X139711865Y-139283081D01*
X139711868Y-139283077D01*
X139718026Y-139278301D01*
X139719839Y-139280638D01*
X139768949Y-139253798D01*
X139838643Y-139258756D01*
X139870996Y-139279551D01*
X139872278Y-139277900D01*
X139878447Y-139282685D01*
X140019801Y-139366281D01*
X140177514Y-139412100D01*
X140177511Y-139412100D01*
X140179998Y-139412295D01*
X140180000Y-139412295D01*
X140680000Y-139412295D01*
X140680001Y-139412295D01*
X140682486Y-139412100D01*
X140840198Y-139366281D01*
X140981552Y-139282685D01*
X140981561Y-139282678D01*
X141097678Y-139166561D01*
X141097685Y-139166552D01*
X141181282Y-139025196D01*
X141181283Y-139025193D01*
X141227099Y-138867495D01*
X141227100Y-138867489D01*
X141229999Y-138830649D01*
X141230000Y-138830634D01*
X141230000Y-138190000D01*
X140680000Y-138190000D01*
X140680000Y-139412295D01*
X140180000Y-139412295D01*
X140180000Y-137690000D01*
X140680000Y-137690000D01*
X141230000Y-137690000D01*
X141230000Y-137049365D01*
X141229999Y-137049350D01*
X141227100Y-137012510D01*
X141227099Y-137012504D01*
X141181283Y-136854806D01*
X141181282Y-136854803D01*
X141097685Y-136713447D01*
X141097678Y-136713438D01*
X140981561Y-136597321D01*
X140981552Y-136597314D01*
X140840196Y-136513717D01*
X140840193Y-136513716D01*
X140682494Y-136467900D01*
X140682497Y-136467900D01*
X140680000Y-136467703D01*
X140680000Y-137690000D01*
X140180000Y-137690000D01*
X140180000Y-136485912D01*
X140118714Y-136451381D01*
X140095203Y-136427236D01*
X140071202Y-136403593D01*
X140070906Y-136402284D01*
X140069971Y-136401323D01*
X140063248Y-136368311D01*
X140055837Y-136335433D01*
X140056296Y-136334171D01*
X140056029Y-136332858D01*
X140068224Y-136301442D01*
X140079761Y-136269787D01*
X140080828Y-136268975D01*
X140081314Y-136267724D01*
X140108559Y-136247888D01*
X140135378Y-136227496D01*
X140137260Y-136226993D01*
X140137800Y-136226601D01*
X140138991Y-136226531D01*
X140160184Y-136220876D01*
X140246243Y-136207246D01*
X140448412Y-136141557D01*
X140637816Y-136045051D01*
X140724471Y-135982093D01*
X140809786Y-135920109D01*
X140809788Y-135920106D01*
X140809792Y-135920104D01*
X140960104Y-135769792D01*
X140960106Y-135769788D01*
X140960109Y-135769786D01*
X141085048Y-135597820D01*
X141085047Y-135597820D01*
X141085051Y-135597816D01*
X141089514Y-135589054D01*
X141137488Y-135538259D01*
X141205308Y-135521463D01*
X141271444Y-135543999D01*
X141310486Y-135589056D01*
X141314951Y-135597820D01*
X141439890Y-135769786D01*
X141590211Y-135920107D01*
X141661200Y-135971682D01*
X141718385Y-136013229D01*
X141761051Y-136068558D01*
X141769500Y-136113547D01*
X141769500Y-141928480D01*
X141749815Y-141995519D01*
X141733181Y-142016161D01*
X141523025Y-142226316D01*
X141522951Y-142226371D01*
X141522929Y-142226412D01*
X141522627Y-142226613D01*
X141494652Y-142247532D01*
X141488867Y-142250682D01*
X141454505Y-142264916D01*
X141418236Y-142289149D01*
X141413308Y-142291834D01*
X141384417Y-142298085D01*
X141356213Y-142306917D01*
X141350653Y-142305391D01*
X141345019Y-142306611D01*
X141317335Y-142296251D01*
X141288833Y-142288432D01*
X141284981Y-142284143D01*
X141279581Y-142282123D01*
X141261891Y-142258438D01*
X141242143Y-142236453D01*
X141240690Y-142230053D01*
X141237771Y-142226144D01*
X141236856Y-142213153D01*
X141230000Y-142182937D01*
X141230000Y-141999365D01*
X141229999Y-141999350D01*
X141227100Y-141962510D01*
X141227099Y-141962504D01*
X141181283Y-141804806D01*
X141181282Y-141804803D01*
X141097685Y-141663447D01*
X141097678Y-141663438D01*
X140981561Y-141547321D01*
X140981552Y-141547314D01*
X140840196Y-141463717D01*
X140840193Y-141463716D01*
X140682494Y-141417900D01*
X140682497Y-141417900D01*
X140680000Y-141417703D01*
X140680000Y-142766000D01*
X140660315Y-142833039D01*
X140607511Y-142878794D01*
X140556000Y-142890000D01*
X140304000Y-142890000D01*
X140236961Y-142870315D01*
X140191206Y-142817511D01*
X140180000Y-142766000D01*
X140180000Y-141417703D01*
X140177503Y-141417900D01*
X140019806Y-141463716D01*
X140019803Y-141463717D01*
X139878449Y-141547313D01*
X139872283Y-141552097D01*
X139870389Y-141549655D01*
X139821580Y-141576239D01*
X139751894Y-141571179D01*
X139719227Y-141550159D01*
X139718031Y-141551702D01*
X139711862Y-141546917D01*
X139586539Y-141472802D01*
X139570398Y-141463256D01*
X139570397Y-141463255D01*
X139570396Y-141463255D01*
X139570393Y-141463254D01*
X139412573Y-141417402D01*
X139412567Y-141417401D01*
X139375701Y-141414500D01*
X139375694Y-141414500D01*
X138944306Y-141414500D01*
X138944298Y-141414500D01*
X138907432Y-141417401D01*
X138907426Y-141417402D01*
X138749606Y-141463254D01*
X138749603Y-141463255D01*
X138608137Y-141546917D01*
X138601969Y-141551702D01*
X138600072Y-141549256D01*
X138551358Y-141575857D01*
X138481666Y-141570873D01*
X138449296Y-141550069D01*
X138448031Y-141551702D01*
X138441862Y-141546917D01*
X138316539Y-141472802D01*
X138300398Y-141463256D01*
X138300397Y-141463255D01*
X138300396Y-141463255D01*
X138300393Y-141463254D01*
X138142573Y-141417402D01*
X138142567Y-141417401D01*
X138105701Y-141414500D01*
X138105694Y-141414500D01*
X137674306Y-141414500D01*
X137674298Y-141414500D01*
X137637432Y-141417401D01*
X137637426Y-141417402D01*
X137479606Y-141463254D01*
X137479603Y-141463255D01*
X137338137Y-141546917D01*
X137331969Y-141551702D01*
X137330072Y-141549256D01*
X137281358Y-141575857D01*
X137211666Y-141570873D01*
X137179296Y-141550069D01*
X137178031Y-141551702D01*
X137171862Y-141546917D01*
X137046539Y-141472802D01*
X137030398Y-141463256D01*
X137030397Y-141463255D01*
X137030396Y-141463255D01*
X137030393Y-141463254D01*
X136872573Y-141417402D01*
X136872567Y-141417401D01*
X136835701Y-141414500D01*
X136835694Y-141414500D01*
X136404306Y-141414500D01*
X136404298Y-141414500D01*
X136367432Y-141417401D01*
X136367426Y-141417402D01*
X136260117Y-141448579D01*
X136246823Y-141448541D01*
X136234368Y-141453187D01*
X136212562Y-141448443D01*
X136190247Y-141448380D01*
X136177563Y-141440829D01*
X136166095Y-141438335D01*
X136137841Y-141417184D01*
X136086818Y-141366161D01*
X136053333Y-141304838D01*
X136050499Y-141278480D01*
X136050499Y-140891662D01*
X136050498Y-140891644D01*
X136040349Y-140792292D01*
X136040348Y-140792289D01*
X135987003Y-140631303D01*
X135986999Y-140631297D01*
X135986998Y-140631294D01*
X135897970Y-140486959D01*
X135897967Y-140486955D01*
X135888339Y-140477327D01*
X135854854Y-140416004D01*
X135859838Y-140346312D01*
X135888345Y-140301959D01*
X135897573Y-140292731D01*
X135986542Y-140148492D01*
X135986547Y-140148481D01*
X136039855Y-139987606D01*
X136049999Y-139888322D01*
X136050000Y-139888309D01*
X136050000Y-139865000D01*
X134100001Y-139865000D01*
X134100001Y-139888322D01*
X134110144Y-139987607D01*
X134163452Y-140148481D01*
X134163457Y-140148492D01*
X134252424Y-140292728D01*
X134252427Y-140292732D01*
X134261660Y-140301965D01*
X134295145Y-140363288D01*
X134290161Y-140432980D01*
X134261663Y-140477324D01*
X134252033Y-140486953D01*
X134252029Y-140486959D01*
X134163001Y-140631294D01*
X134162996Y-140631305D01*
X134109651Y-140792290D01*
X134099500Y-140891647D01*
X134099500Y-140891660D01*
X134099501Y-141438335D01*
X134099501Y-141438355D01*
X134109650Y-141537707D01*
X134109651Y-141537710D01*
X134162996Y-141698694D01*
X134163001Y-141698705D01*
X134252029Y-141843040D01*
X134252032Y-141843044D01*
X134371955Y-141962967D01*
X134371959Y-141962970D01*
X134516294Y-142051998D01*
X134516297Y-142051999D01*
X134516303Y-142052003D01*
X134677292Y-142105349D01*
X134776655Y-142115500D01*
X134803478Y-142115499D01*
X134870516Y-142135181D01*
X134891161Y-142151818D01*
X135783181Y-143043838D01*
X135816666Y-143105161D01*
X135819500Y-143131519D01*
X135819500Y-143780701D01*
X135822401Y-143817567D01*
X135822402Y-143817573D01*
X135868254Y-143975393D01*
X135868255Y-143975396D01*
X135951917Y-144116862D01*
X135951923Y-144116870D01*
X136068129Y-144233076D01*
X136068133Y-144233079D01*
X136068135Y-144233081D01*
X136209602Y-144316744D01*
X136251224Y-144328836D01*
X136367426Y-144362597D01*
X136367429Y-144362597D01*
X136367431Y-144362598D01*
X136404306Y-144365500D01*
X136404314Y-144365500D01*
X136835686Y-144365500D01*
X136835694Y-144365500D01*
X136872569Y-144362598D01*
X136872571Y-144362597D01*
X136872573Y-144362597D01*
X137030905Y-144316597D01*
X137100774Y-144316796D01*
X137159444Y-144354738D01*
X137188288Y-144418376D01*
X137189500Y-144435673D01*
X137189500Y-144523994D01*
X137189500Y-144523996D01*
X137189499Y-144523996D01*
X137216418Y-144659322D01*
X137216421Y-144659332D01*
X137269222Y-144786807D01*
X137345887Y-144901545D01*
X137363179Y-144918836D01*
X137396666Y-144980158D01*
X137399500Y-145006518D01*
X137399500Y-145213336D01*
X137399501Y-145213355D01*
X137409650Y-145312707D01*
X137409651Y-145312710D01*
X137462996Y-145473694D01*
X137463001Y-145473705D01*
X137552029Y-145618040D01*
X137552032Y-145618044D01*
X137671955Y-145737967D01*
X137671959Y-145737970D01*
X137816294Y-145826998D01*
X137816297Y-145826999D01*
X137816303Y-145827003D01*
X137977292Y-145880349D01*
X138076655Y-145890500D01*
X138623344Y-145890499D01*
X138623352Y-145890498D01*
X138623355Y-145890498D01*
X138677760Y-145884940D01*
X138722708Y-145880349D01*
X138883697Y-145827003D01*
X139028044Y-145737968D01*
X139037668Y-145728343D01*
X139098987Y-145694856D01*
X139168679Y-145699835D01*
X139213034Y-145728339D01*
X139222267Y-145737572D01*
X139222271Y-145737575D01*
X139366507Y-145826542D01*
X139366518Y-145826547D01*
X139527393Y-145879855D01*
X139626683Y-145889999D01*
X140150000Y-145889999D01*
X140173308Y-145889999D01*
X140173322Y-145889998D01*
X140272607Y-145879855D01*
X140433481Y-145826547D01*
X140433492Y-145826542D01*
X140577728Y-145737575D01*
X140577732Y-145737572D01*
X140697572Y-145617732D01*
X140697575Y-145617728D01*
X140786542Y-145473492D01*
X140786547Y-145473481D01*
X140839855Y-145312606D01*
X140849999Y-145213322D01*
X140850000Y-145213309D01*
X140850000Y-145165000D01*
X140150000Y-145165000D01*
X140150000Y-145889999D01*
X139626683Y-145889999D01*
X139650000Y-145889998D01*
X139650000Y-145039000D01*
X139669685Y-144971961D01*
X139722489Y-144926206D01*
X139774000Y-144915000D01*
X139900000Y-144915000D01*
X139900000Y-144789000D01*
X139919685Y-144721961D01*
X139972489Y-144676206D01*
X140024000Y-144665000D01*
X140849999Y-144665000D01*
X140849999Y-144616692D01*
X140849998Y-144616677D01*
X140839855Y-144517392D01*
X140815625Y-144444268D01*
X140813223Y-144374439D01*
X140848955Y-144314397D01*
X140870211Y-144298532D01*
X140981549Y-144232687D01*
X140981561Y-144232678D01*
X141097678Y-144116561D01*
X141097685Y-144116552D01*
X141181282Y-143975196D01*
X141181283Y-143975193D01*
X141227099Y-143817495D01*
X141227100Y-143817489D01*
X141229999Y-143780649D01*
X141230000Y-143780634D01*
X141230000Y-143677062D01*
X141249685Y-143610023D01*
X141302489Y-143564268D01*
X141371647Y-143554324D01*
X141422892Y-143573961D01*
X141454497Y-143595079D01*
X141454499Y-143595080D01*
X141454505Y-143595084D01*
X141454507Y-143595085D01*
X141454511Y-143595087D01*
X141591082Y-143651656D01*
X141591087Y-143651658D01*
X141591091Y-143651658D01*
X141591092Y-143651659D01*
X141736079Y-143680500D01*
X141736082Y-143680500D01*
X141883920Y-143680500D01*
X141981462Y-143661096D01*
X142028913Y-143651658D01*
X142165495Y-143595084D01*
X142288416Y-143512951D01*
X142392951Y-143408416D01*
X142475084Y-143285495D01*
X142486802Y-143257202D01*
X142513678Y-143216977D01*
X143014114Y-142716543D01*
X143090775Y-142601811D01*
X143102086Y-142574505D01*
X143143578Y-142474332D01*
X143143580Y-142474328D01*
X143170500Y-142338994D01*
X143170500Y-142201006D01*
X143170500Y-136113547D01*
X143190185Y-136046508D01*
X143221614Y-136013230D01*
X143349792Y-135920104D01*
X143500104Y-135769792D01*
X143500106Y-135769788D01*
X143500109Y-135769786D01*
X143625048Y-135597820D01*
X143625047Y-135597820D01*
X143625051Y-135597816D01*
X143721557Y-135408412D01*
X143787246Y-135206243D01*
X143787246Y-135206237D01*
X143787597Y-135205160D01*
X143827034Y-135147485D01*
X143891393Y-135120286D01*
X143960239Y-135132201D01*
G37*
G04 #@! TD.AperFunction*
G04 #@! TA.AperFunction,Conductor*
G36*
X143843166Y-131155185D02*
G01*
X143863855Y-131171866D01*
X143997409Y-131305564D01*
X144030861Y-131366905D01*
X144033681Y-131393332D01*
X144030288Y-134538995D01*
X144010531Y-134606013D01*
X143957678Y-134651711D01*
X143888509Y-134661580D01*
X143824984Y-134632486D01*
X143788357Y-134577179D01*
X143787246Y-134573762D01*
X143787246Y-134573757D01*
X143721557Y-134371588D01*
X143625051Y-134182184D01*
X143625049Y-134182181D01*
X143625048Y-134182179D01*
X143500109Y-134010213D01*
X143349786Y-133859890D01*
X143177820Y-133734951D01*
X142988414Y-133638444D01*
X142988413Y-133638443D01*
X142988412Y-133638443D01*
X142786243Y-133572754D01*
X142786241Y-133572753D01*
X142786240Y-133572753D01*
X142624957Y-133547208D01*
X142576287Y-133539500D01*
X142363713Y-133539500D01*
X142315042Y-133547208D01*
X142153760Y-133572753D01*
X141951585Y-133638444D01*
X141762179Y-133734951D01*
X141590213Y-133859890D01*
X141439890Y-134010213D01*
X141314949Y-134182182D01*
X141310484Y-134190946D01*
X141262509Y-134241742D01*
X141194688Y-134258536D01*
X141128553Y-134235998D01*
X141089516Y-134190946D01*
X141085050Y-134182182D01*
X140960109Y-134010213D01*
X140809786Y-133859890D01*
X140637820Y-133734951D01*
X140448414Y-133638444D01*
X140448413Y-133638443D01*
X140448412Y-133638443D01*
X140246243Y-133572754D01*
X140246241Y-133572753D01*
X140246240Y-133572753D01*
X140084957Y-133547208D01*
X140036287Y-133539500D01*
X139823713Y-133539500D01*
X139775042Y-133547208D01*
X139613760Y-133572753D01*
X139411585Y-133638444D01*
X139222179Y-133734951D01*
X139050213Y-133859890D01*
X138899890Y-134010213D01*
X138774949Y-134182182D01*
X138770484Y-134190946D01*
X138722509Y-134241742D01*
X138654688Y-134258536D01*
X138588553Y-134235998D01*
X138549516Y-134190946D01*
X138545050Y-134182182D01*
X138420109Y-134010213D01*
X138269786Y-133859890D01*
X138097820Y-133734951D01*
X137908414Y-133638444D01*
X137908413Y-133638443D01*
X137908412Y-133638443D01*
X137706243Y-133572754D01*
X137706241Y-133572753D01*
X137706240Y-133572753D01*
X137544957Y-133547208D01*
X137496287Y-133539500D01*
X137283713Y-133539500D01*
X137235042Y-133547208D01*
X137073760Y-133572753D01*
X136871585Y-133638444D01*
X136682179Y-133734951D01*
X136510215Y-133859889D01*
X136396285Y-133973819D01*
X136334962Y-134007303D01*
X136265270Y-134002319D01*
X136209337Y-133960447D01*
X136192422Y-133929470D01*
X136143354Y-133797913D01*
X136143350Y-133797906D01*
X136057190Y-133682812D01*
X136057187Y-133682809D01*
X135942093Y-133596649D01*
X135942086Y-133596645D01*
X135807379Y-133546403D01*
X135807372Y-133546401D01*
X135747844Y-133540000D01*
X135100000Y-133540000D01*
X135100000Y-134456988D01*
X135042993Y-134424075D01*
X134915826Y-134390000D01*
X134784174Y-134390000D01*
X134657007Y-134424075D01*
X134600000Y-134456988D01*
X134600000Y-133540000D01*
X133952155Y-133540000D01*
X133892627Y-133546401D01*
X133892620Y-133546403D01*
X133757913Y-133596645D01*
X133757906Y-133596649D01*
X133635712Y-133688125D01*
X133633893Y-133685696D01*
X133585858Y-133711926D01*
X133516166Y-133706942D01*
X133460233Y-133665070D01*
X133435816Y-133599606D01*
X133435500Y-133590760D01*
X133435500Y-131393676D01*
X133444144Y-131364235D01*
X133450668Y-131334249D01*
X133454422Y-131329233D01*
X133455185Y-131326637D01*
X133471819Y-131305995D01*
X133605995Y-131171819D01*
X133667318Y-131138334D01*
X133693676Y-131135500D01*
X143776127Y-131135500D01*
X143843166Y-131155185D01*
G37*
G04 #@! TD.AperFunction*
G04 #@! TA.AperFunction,Conductor*
G36*
X153122560Y-109720185D02*
G01*
X153168315Y-109772989D01*
X153178259Y-109842147D01*
X153149234Y-109905703D01*
X153118642Y-109931232D01*
X152998447Y-110002314D01*
X152998438Y-110002321D01*
X152882321Y-110118438D01*
X152882314Y-110118447D01*
X152798718Y-110259801D01*
X152752899Y-110417513D01*
X152752704Y-110419998D01*
X152752705Y-110420000D01*
X155697295Y-110420000D01*
X155697295Y-110419998D01*
X155697100Y-110417513D01*
X155651281Y-110259801D01*
X155567685Y-110118447D01*
X155567678Y-110118438D01*
X155451561Y-110002321D01*
X155451552Y-110002314D01*
X155331358Y-109931232D01*
X155283674Y-109880163D01*
X155271171Y-109811421D01*
X155297816Y-109746832D01*
X155355152Y-109706902D01*
X155394479Y-109700500D01*
X161976502Y-109700500D01*
X162043541Y-109720185D01*
X162089296Y-109772989D01*
X162099240Y-109842147D01*
X162070215Y-109905703D01*
X162050816Y-109923764D01*
X161992454Y-109967454D01*
X161992453Y-109967455D01*
X161992452Y-109967456D01*
X161906206Y-110082664D01*
X161906202Y-110082671D01*
X161855908Y-110217517D01*
X161849501Y-110277116D01*
X161849500Y-110277135D01*
X161849500Y-112072870D01*
X161849501Y-112072876D01*
X161855908Y-112132483D01*
X161906202Y-112267328D01*
X161906206Y-112267335D01*
X161992452Y-112382544D01*
X161992455Y-112382547D01*
X162107664Y-112468793D01*
X162107671Y-112468797D01*
X162242517Y-112519091D01*
X162242516Y-112519091D01*
X162249444Y-112519835D01*
X162302127Y-112525500D01*
X163508479Y-112525499D01*
X163575518Y-112545184D01*
X163596160Y-112561818D01*
X164004454Y-112970112D01*
X164119190Y-113046776D01*
X164199374Y-113079989D01*
X164246671Y-113099580D01*
X164246672Y-113099580D01*
X164246677Y-113099582D01*
X164273368Y-113104890D01*
X164273381Y-113104892D01*
X164273591Y-113104934D01*
X164382007Y-113126500D01*
X164382940Y-113126500D01*
X164389754Y-113127844D01*
X164415638Y-113141330D01*
X164416581Y-113141710D01*
X164442058Y-113128672D01*
X164465165Y-113126500D01*
X170025845Y-113126500D01*
X170092884Y-113146185D01*
X170113526Y-113162819D01*
X170201196Y-113250489D01*
X170234681Y-113311812D01*
X170229697Y-113381504D01*
X170216617Y-113407061D01*
X170140609Y-113520814D01*
X170140602Y-113520827D01*
X170080264Y-113666498D01*
X170080261Y-113666510D01*
X170049500Y-113821153D01*
X170049500Y-113978846D01*
X170080261Y-114133489D01*
X170080264Y-114133501D01*
X170140061Y-114277864D01*
X170149500Y-114325316D01*
X170149500Y-117936006D01*
X170149500Y-118073994D01*
X170149500Y-118073996D01*
X170149499Y-118073996D01*
X170176418Y-118209322D01*
X170176421Y-118209332D01*
X170229222Y-118336807D01*
X170305887Y-118451545D01*
X170305888Y-118451546D01*
X173598194Y-121743851D01*
X173599262Y-121745807D01*
X173601182Y-121746944D01*
X173615928Y-121776328D01*
X173631679Y-121805174D01*
X173631833Y-121808022D01*
X173632520Y-121809391D01*
X173632680Y-121823674D01*
X173633816Y-121844661D01*
X173633481Y-121847806D01*
X173614500Y-121967648D01*
X173614500Y-122026064D01*
X173613803Y-122032610D01*
X173602876Y-122059064D01*
X173594815Y-122086520D01*
X173589710Y-122090942D01*
X173587131Y-122097189D01*
X173563634Y-122113537D01*
X173542011Y-122132275D01*
X173535324Y-122133236D01*
X173529779Y-122137095D01*
X173501183Y-122138145D01*
X173472853Y-122142219D01*
X173466706Y-122139412D01*
X173459956Y-122139660D01*
X173435331Y-122125083D01*
X173409297Y-122113194D01*
X173402819Y-122107162D01*
X168631818Y-117336161D01*
X168598333Y-117274838D01*
X168595499Y-117248480D01*
X168595499Y-116389998D01*
X168595498Y-116389981D01*
X168584999Y-116287203D01*
X168584998Y-116287200D01*
X168572313Y-116248919D01*
X168529814Y-116120666D01*
X168437712Y-115971344D01*
X168313656Y-115847288D01*
X168164334Y-115755186D01*
X167997797Y-115700001D01*
X167997795Y-115700000D01*
X167895016Y-115689500D01*
X167895009Y-115689500D01*
X167036519Y-115689500D01*
X166969480Y-115669815D01*
X166948838Y-115653181D01*
X165000236Y-113704579D01*
X164984814Y-113685788D01*
X164971928Y-113666503D01*
X164957951Y-113645584D01*
X164957949Y-113645581D01*
X164853419Y-113541051D01*
X164853415Y-113541048D01*
X164730501Y-113458919D01*
X164730488Y-113458912D01*
X164593917Y-113402343D01*
X164593907Y-113402340D01*
X164442943Y-113372311D01*
X164443398Y-113370020D01*
X164414343Y-113358289D01*
X164388867Y-113371328D01*
X164378822Y-113372272D01*
X164377012Y-113372988D01*
X164373273Y-113372793D01*
X164365760Y-113373500D01*
X164301080Y-113373500D01*
X164156092Y-113402340D01*
X164156082Y-113402343D01*
X164127794Y-113414061D01*
X164080342Y-113423500D01*
X157701520Y-113423500D01*
X157566193Y-113450418D01*
X157566183Y-113450421D01*
X157438708Y-113503222D01*
X157323970Y-113579887D01*
X157323969Y-113579888D01*
X156915677Y-113988181D01*
X156854354Y-114021666D01*
X156827996Y-114024500D01*
X156318384Y-114024500D01*
X156299145Y-114026248D01*
X156247807Y-114030913D01*
X156085393Y-114081522D01*
X155939811Y-114169530D01*
X155886947Y-114222394D01*
X155825624Y-114255878D01*
X155755932Y-114250893D01*
X155699999Y-114209022D01*
X155680190Y-114169306D01*
X155651281Y-114069802D01*
X155567685Y-113928447D01*
X155562900Y-113922278D01*
X155565366Y-113920364D01*
X155538802Y-113871776D01*
X155543749Y-113802082D01*
X155564856Y-113769232D01*
X155563301Y-113768026D01*
X155568077Y-113761868D01*
X155568081Y-113761865D01*
X155651744Y-113620398D01*
X155697598Y-113462569D01*
X155700500Y-113425694D01*
X155700500Y-112994306D01*
X155697598Y-112957431D01*
X155667820Y-112854937D01*
X155651745Y-112799606D01*
X155651744Y-112799603D01*
X155651744Y-112799602D01*
X155568081Y-112658135D01*
X155568078Y-112658132D01*
X155563298Y-112651969D01*
X155565750Y-112650066D01*
X155539155Y-112601421D01*
X155544104Y-112531726D01*
X155564940Y-112499304D01*
X155563298Y-112498031D01*
X155568075Y-112491870D01*
X155568081Y-112491865D01*
X155651744Y-112350398D01*
X155697598Y-112192569D01*
X155700500Y-112155694D01*
X155700500Y-111724306D01*
X155697598Y-111687431D01*
X155693986Y-111675000D01*
X155651745Y-111529606D01*
X155651744Y-111529603D01*
X155651744Y-111529602D01*
X155568081Y-111388135D01*
X155568078Y-111388132D01*
X155563298Y-111381969D01*
X155565635Y-111380155D01*
X155538798Y-111331050D01*
X155543756Y-111261356D01*
X155564554Y-111228998D01*
X155562903Y-111227717D01*
X155567686Y-111221550D01*
X155651281Y-111080198D01*
X155697100Y-110922486D01*
X155697295Y-110920001D01*
X155697295Y-110920000D01*
X152752705Y-110920000D01*
X152752704Y-110920001D01*
X152752899Y-110922486D01*
X152798718Y-111080198D01*
X152882314Y-111221552D01*
X152887100Y-111227722D01*
X152884640Y-111229629D01*
X152911210Y-111278288D01*
X152906226Y-111347980D01*
X152885162Y-111380781D01*
X152886699Y-111381974D01*
X152881915Y-111388140D01*
X152798255Y-111529603D01*
X152798254Y-111529606D01*
X152752402Y-111687426D01*
X152752401Y-111687432D01*
X152749500Y-111724298D01*
X152749500Y-112155701D01*
X152752401Y-112192567D01*
X152752402Y-112192573D01*
X152798254Y-112350393D01*
X152798255Y-112350396D01*
X152881917Y-112491862D01*
X152886702Y-112498031D01*
X152884256Y-112499927D01*
X152910857Y-112548642D01*
X152905873Y-112618334D01*
X152885069Y-112650703D01*
X152886702Y-112651969D01*
X152881917Y-112658137D01*
X152798255Y-112799603D01*
X152798254Y-112799606D01*
X152752402Y-112957426D01*
X152752401Y-112957432D01*
X152749500Y-112994298D01*
X152749500Y-113425701D01*
X152752401Y-113462567D01*
X152752402Y-113462573D01*
X152798254Y-113620393D01*
X152798255Y-113620396D01*
X152881917Y-113761862D01*
X152886702Y-113768031D01*
X152884369Y-113769840D01*
X152911210Y-113818995D01*
X152906226Y-113888687D01*
X152885470Y-113921021D01*
X152887097Y-113922283D01*
X152882313Y-113928449D01*
X152798718Y-114069801D01*
X152752899Y-114227513D01*
X152752704Y-114229998D01*
X152752705Y-114230000D01*
X154101000Y-114230000D01*
X154109685Y-114232550D01*
X154118647Y-114231262D01*
X154142687Y-114242240D01*
X154168039Y-114249685D01*
X154173966Y-114256525D01*
X154182203Y-114260287D01*
X154196492Y-114282521D01*
X154213794Y-114302489D01*
X154216081Y-114313003D01*
X154219977Y-114319065D01*
X154225000Y-114354000D01*
X154225000Y-114356500D01*
X154205315Y-114423539D01*
X154152511Y-114469294D01*
X154101000Y-114480500D01*
X154008471Y-114480500D01*
X153906553Y-114500772D01*
X153906541Y-114500775D01*
X153900059Y-114502065D01*
X153873139Y-114507420D01*
X153840898Y-114520775D01*
X153835767Y-114522900D01*
X153835752Y-114522905D01*
X153745660Y-114560223D01*
X153745650Y-114560228D01*
X153630927Y-114636884D01*
X153630925Y-114636887D01*
X153574131Y-114693681D01*
X153512808Y-114727166D01*
X153486450Y-114730000D01*
X152752705Y-114730000D01*
X152752704Y-114730001D01*
X152752899Y-114732486D01*
X152798718Y-114890198D01*
X152882314Y-115031552D01*
X152882321Y-115031561D01*
X152971604Y-115120844D01*
X153005089Y-115182167D01*
X153000105Y-115251859D01*
X152971604Y-115296206D01*
X150804628Y-117463181D01*
X150743305Y-117496666D01*
X150716948Y-117499500D01*
X150602130Y-117499500D01*
X150602123Y-117499501D01*
X150542516Y-117505908D01*
X150407671Y-117556202D01*
X150407664Y-117556206D01*
X150292455Y-117642452D01*
X150292452Y-117642455D01*
X150206206Y-117757664D01*
X150206202Y-117757671D01*
X150155908Y-117892517D01*
X150149501Y-117952116D01*
X150149500Y-117952135D01*
X150149500Y-119097870D01*
X150149501Y-119097876D01*
X150155908Y-119157483D01*
X150206202Y-119292328D01*
X150206204Y-119292331D01*
X150249766Y-119350522D01*
X150274184Y-119415985D01*
X150274500Y-119424833D01*
X150274500Y-121775165D01*
X150254815Y-121842204D01*
X150249767Y-121849476D01*
X150206204Y-121907668D01*
X150206202Y-121907671D01*
X150155908Y-122042517D01*
X150149501Y-122102116D01*
X150149500Y-122102135D01*
X150149500Y-123247870D01*
X150149501Y-123247876D01*
X150155908Y-123307483D01*
X150206202Y-123442328D01*
X150206204Y-123442331D01*
X150249766Y-123500522D01*
X150274184Y-123565985D01*
X150274500Y-123574833D01*
X150274500Y-124359409D01*
X150254815Y-124426448D01*
X150202011Y-124472203D01*
X150132853Y-124482147D01*
X150069297Y-124453122D01*
X150034318Y-124402742D01*
X149993354Y-124292913D01*
X149993350Y-124292906D01*
X149907190Y-124177812D01*
X149907187Y-124177809D01*
X149792093Y-124091649D01*
X149792086Y-124091645D01*
X149657379Y-124041403D01*
X149657372Y-124041401D01*
X149597844Y-124035000D01*
X148950000Y-124035000D01*
X148950000Y-124951988D01*
X148892993Y-124919075D01*
X148765826Y-124885000D01*
X148634174Y-124885000D01*
X148507007Y-124919075D01*
X148450000Y-124951988D01*
X148450000Y-124035000D01*
X147802155Y-124035000D01*
X147742627Y-124041401D01*
X147742620Y-124041403D01*
X147607913Y-124091645D01*
X147607906Y-124091649D01*
X147492812Y-124177809D01*
X147492809Y-124177812D01*
X147406649Y-124292906D01*
X147406645Y-124292913D01*
X147356403Y-124427620D01*
X147356401Y-124427627D01*
X147350000Y-124487155D01*
X147350000Y-125135000D01*
X148266988Y-125135000D01*
X148234075Y-125192007D01*
X148200000Y-125319174D01*
X148200000Y-125450826D01*
X148234075Y-125577993D01*
X148266988Y-125635000D01*
X147350000Y-125635000D01*
X147350000Y-126282844D01*
X147356401Y-126342372D01*
X147356403Y-126342379D01*
X147406645Y-126477086D01*
X147406649Y-126477093D01*
X147492809Y-126592187D01*
X147492812Y-126592190D01*
X147607906Y-126678350D01*
X147607913Y-126678354D01*
X147739470Y-126727422D01*
X147795404Y-126769293D01*
X147819821Y-126834758D01*
X147804969Y-126903031D01*
X147783819Y-126931285D01*
X147669889Y-127045215D01*
X147544951Y-127217179D01*
X147448444Y-127406585D01*
X147382753Y-127608760D01*
X147354365Y-127787995D01*
X147349500Y-127818713D01*
X147349500Y-128031287D01*
X147355526Y-128069334D01*
X147381914Y-128235943D01*
X147382754Y-128241243D01*
X147443205Y-128427292D01*
X147448444Y-128443414D01*
X147544951Y-128632820D01*
X147669890Y-128804786D01*
X147820213Y-128955109D01*
X147992182Y-129080050D01*
X148000946Y-129084516D01*
X148051742Y-129132491D01*
X148068536Y-129200312D01*
X148045998Y-129266447D01*
X148000946Y-129305484D01*
X147992182Y-129309949D01*
X147820213Y-129434890D01*
X147669890Y-129585213D01*
X147544951Y-129757179D01*
X147448444Y-129946585D01*
X147382754Y-130148757D01*
X147349500Y-130358713D01*
X147349500Y-130571286D01*
X147373687Y-130724000D01*
X147382754Y-130781243D01*
X147427022Y-130917486D01*
X147448444Y-130983414D01*
X147544951Y-131172820D01*
X147669890Y-131344786D01*
X147820213Y-131495109D01*
X147992179Y-131620048D01*
X147992181Y-131620049D01*
X147992184Y-131620051D01*
X148181588Y-131716557D01*
X148383757Y-131782246D01*
X148593713Y-131815500D01*
X148593714Y-131815500D01*
X148806286Y-131815500D01*
X148806287Y-131815500D01*
X149016243Y-131782246D01*
X149218412Y-131716557D01*
X149407816Y-131620051D01*
X149465930Y-131577829D01*
X149579786Y-131495109D01*
X149579788Y-131495106D01*
X149579792Y-131495104D01*
X149730104Y-131344792D01*
X149730106Y-131344788D01*
X149730109Y-131344786D01*
X149855048Y-131172820D01*
X149855047Y-131172820D01*
X149855051Y-131172816D01*
X149859514Y-131164054D01*
X149907488Y-131113259D01*
X149975308Y-131096463D01*
X150041444Y-131118999D01*
X150080484Y-131164054D01*
X150084591Y-131172115D01*
X150084951Y-131172820D01*
X150209890Y-131344786D01*
X150360213Y-131495109D01*
X150532179Y-131620048D01*
X150532181Y-131620049D01*
X150532184Y-131620051D01*
X150721588Y-131716557D01*
X150923757Y-131782246D01*
X151133713Y-131815500D01*
X151133714Y-131815500D01*
X151346286Y-131815500D01*
X151346287Y-131815500D01*
X151556243Y-131782246D01*
X151758412Y-131716557D01*
X151947816Y-131620051D01*
X152005930Y-131577829D01*
X152119786Y-131495109D01*
X152119788Y-131495106D01*
X152119792Y-131495104D01*
X152270104Y-131344792D01*
X152375442Y-131199805D01*
X152430770Y-131157141D01*
X152451559Y-131151076D01*
X152514386Y-131138580D01*
X152616066Y-131096463D01*
X152641865Y-131085777D01*
X152641866Y-131085776D01*
X152641869Y-131085775D01*
X152756601Y-131009114D01*
X155869114Y-127896601D01*
X155945775Y-127781869D01*
X155956645Y-127755628D01*
X155978425Y-127703044D01*
X155998580Y-127654386D01*
X156025500Y-127519052D01*
X156025500Y-127494658D01*
X156034939Y-127447206D01*
X156046656Y-127418917D01*
X156046658Y-127418913D01*
X156066921Y-127317049D01*
X156070646Y-127298322D01*
X164175001Y-127298322D01*
X164185144Y-127397607D01*
X164238452Y-127558481D01*
X164238457Y-127558492D01*
X164327424Y-127702728D01*
X164327427Y-127702732D01*
X164447267Y-127822572D01*
X164447271Y-127822575D01*
X164591507Y-127911542D01*
X164591518Y-127911547D01*
X164752393Y-127964855D01*
X164851683Y-127974999D01*
X164875000Y-127974998D01*
X164875000Y-127250000D01*
X164175001Y-127250000D01*
X164175001Y-127298322D01*
X156070646Y-127298322D01*
X156075500Y-127273920D01*
X156075500Y-127126079D01*
X156046659Y-126981092D01*
X156046658Y-126981091D01*
X156046658Y-126981087D01*
X156028472Y-126937181D01*
X155990087Y-126844511D01*
X155990080Y-126844498D01*
X155938577Y-126767419D01*
X155938576Y-126767418D01*
X155927093Y-126750233D01*
X155907951Y-126721584D01*
X155907949Y-126721581D01*
X155888045Y-126701677D01*
X164175000Y-126701677D01*
X164175000Y-126750000D01*
X164875000Y-126750000D01*
X164875000Y-126024999D01*
X164851693Y-126025000D01*
X164851674Y-126025001D01*
X164752392Y-126035144D01*
X164591518Y-126088452D01*
X164591507Y-126088457D01*
X164447271Y-126177424D01*
X164447267Y-126177427D01*
X164327427Y-126297267D01*
X164327424Y-126297271D01*
X164238457Y-126441507D01*
X164238452Y-126441518D01*
X164185144Y-126602393D01*
X164175000Y-126701677D01*
X155888045Y-126701677D01*
X155803419Y-126617051D01*
X155803415Y-126617048D01*
X155680501Y-126534919D01*
X155680488Y-126534912D01*
X155543917Y-126478343D01*
X155543907Y-126478340D01*
X155398920Y-126449500D01*
X155398918Y-126449500D01*
X155288271Y-126449500D01*
X155221232Y-126429815D01*
X155175477Y-126377011D01*
X155165533Y-126307853D01*
X155194558Y-126244297D01*
X155219380Y-126222398D01*
X155257628Y-126196841D01*
X155278416Y-126182951D01*
X155382951Y-126078416D01*
X155465084Y-125955495D01*
X155469505Y-125944823D01*
X155494284Y-125885000D01*
X155521658Y-125818913D01*
X155526714Y-125793493D01*
X155559098Y-125731585D01*
X155560596Y-125730059D01*
X155767333Y-125523322D01*
X157400001Y-125523322D01*
X157410144Y-125622607D01*
X157463452Y-125783481D01*
X157463457Y-125783492D01*
X157552424Y-125927728D01*
X157552427Y-125927732D01*
X157672267Y-126047572D01*
X157672271Y-126047575D01*
X157816507Y-126136542D01*
X157816518Y-126136547D01*
X157977393Y-126189855D01*
X158076683Y-126199999D01*
X158625000Y-126199999D01*
X158673308Y-126199999D01*
X158673322Y-126199998D01*
X158772607Y-126189855D01*
X158933481Y-126136547D01*
X158933488Y-126136544D01*
X159059902Y-126058570D01*
X159127295Y-126040129D01*
X159190098Y-126058570D01*
X159316511Y-126136544D01*
X159316518Y-126136547D01*
X159477393Y-126189855D01*
X159576683Y-126199999D01*
X160125000Y-126199999D01*
X160173308Y-126199999D01*
X160173322Y-126199998D01*
X160272607Y-126189855D01*
X160433481Y-126136547D01*
X160433488Y-126136544D01*
X160568215Y-126053442D01*
X160635607Y-126035001D01*
X160702271Y-126055923D01*
X160720994Y-126071299D01*
X160722267Y-126072572D01*
X160722271Y-126072575D01*
X160866507Y-126161542D01*
X160866518Y-126161547D01*
X161027393Y-126214855D01*
X161126683Y-126224999D01*
X161150000Y-126224998D01*
X161150000Y-125500000D01*
X160125000Y-125500000D01*
X160125000Y-126199999D01*
X159576683Y-126199999D01*
X159624999Y-126199998D01*
X159625000Y-126199998D01*
X159625000Y-125500000D01*
X158625000Y-125500000D01*
X158625000Y-126199999D01*
X158076683Y-126199999D01*
X158124999Y-126199998D01*
X158125000Y-126199998D01*
X158125000Y-125500000D01*
X157400001Y-125500000D01*
X157400001Y-125523322D01*
X155767333Y-125523322D01*
X156436973Y-124853681D01*
X156477199Y-124826803D01*
X156505495Y-124815084D01*
X156628416Y-124732951D01*
X156732951Y-124628416D01*
X156815084Y-124505495D01*
X156819085Y-124495837D01*
X156836321Y-124454225D01*
X156871658Y-124368913D01*
X156882922Y-124312287D01*
X156900500Y-124223920D01*
X156900500Y-124076079D01*
X156871659Y-123931092D01*
X156871658Y-123931091D01*
X156871658Y-123931087D01*
X156852186Y-123884077D01*
X156815087Y-123794511D01*
X156815080Y-123794498D01*
X156732951Y-123671584D01*
X156732948Y-123671580D01*
X156628419Y-123567051D01*
X156628415Y-123567048D01*
X156505501Y-123484919D01*
X156505488Y-123484912D01*
X156368917Y-123428343D01*
X156368907Y-123428340D01*
X156223920Y-123399500D01*
X156223918Y-123399500D01*
X156076082Y-123399500D01*
X156076080Y-123399500D01*
X155931092Y-123428340D01*
X155931082Y-123428343D01*
X155794511Y-123484912D01*
X155794498Y-123484919D01*
X155671584Y-123567048D01*
X155671580Y-123567051D01*
X155567051Y-123671580D01*
X155567048Y-123671584D01*
X155484919Y-123794498D01*
X155484914Y-123794509D01*
X155473193Y-123822803D01*
X155446315Y-123863027D01*
X154255888Y-125053453D01*
X154255885Y-125053456D01*
X154179228Y-125168182D01*
X154179223Y-125168191D01*
X154172995Y-125183228D01*
X154166811Y-125196027D01*
X154164349Y-125200454D01*
X154134916Y-125244505D01*
X154120474Y-125279370D01*
X154117011Y-125285599D01*
X154110082Y-125292422D01*
X154096316Y-125313025D01*
X153510162Y-125899181D01*
X153448839Y-125932666D01*
X153422481Y-125935500D01*
X152651802Y-125935500D01*
X152584763Y-125915815D01*
X152539008Y-125863011D01*
X152529064Y-125793853D01*
X152533871Y-125773182D01*
X152557246Y-125701243D01*
X152590500Y-125491287D01*
X152590500Y-125278713D01*
X152557246Y-125068757D01*
X152491557Y-124866588D01*
X152395051Y-124677184D01*
X152395049Y-124677181D01*
X152395048Y-124677179D01*
X152270109Y-124505213D01*
X152119786Y-124354890D01*
X151947820Y-124229951D01*
X151758410Y-124133441D01*
X151753919Y-124131582D01*
X151754628Y-124129868D01*
X151703493Y-124094889D01*
X151676306Y-124030526D01*
X151675500Y-124016412D01*
X151675500Y-123574833D01*
X151689410Y-123517769D01*
X151694108Y-123508704D01*
X151743796Y-123442331D01*
X151783009Y-123337193D01*
X151786471Y-123330516D01*
X151805641Y-123310500D01*
X151822250Y-123288313D01*
X151829470Y-123285620D01*
X151834799Y-123280056D01*
X151861744Y-123273582D01*
X151887714Y-123263896D01*
X151895243Y-123265533D01*
X151902735Y-123263734D01*
X151928903Y-123272855D01*
X151955987Y-123278747D01*
X151964858Y-123285388D01*
X151968712Y-123286732D01*
X151971627Y-123290455D01*
X151984246Y-123299903D01*
X151989815Y-123305472D01*
X152135394Y-123393478D01*
X152297804Y-123444086D01*
X152368384Y-123450500D01*
X152368387Y-123450500D01*
X153031613Y-123450500D01*
X153031616Y-123450500D01*
X153102196Y-123444086D01*
X153264606Y-123393478D01*
X153410185Y-123305472D01*
X153530472Y-123185185D01*
X153618478Y-123039606D01*
X153669086Y-122877196D01*
X153675500Y-122806616D01*
X153675500Y-122293384D01*
X153669086Y-122222804D01*
X153618478Y-122060394D01*
X153530472Y-121914815D01*
X153530470Y-121914813D01*
X153530469Y-121914811D01*
X153428339Y-121812681D01*
X153394854Y-121751358D01*
X153399838Y-121681666D01*
X153428339Y-121637319D01*
X153530468Y-121535189D01*
X153530469Y-121535188D01*
X153530472Y-121535185D01*
X153618478Y-121389606D01*
X153669086Y-121227196D01*
X153675500Y-121156616D01*
X153675500Y-120643384D01*
X153669086Y-120572804D01*
X153618478Y-120410394D01*
X153614932Y-120404528D01*
X153597097Y-120336973D01*
X153618616Y-120270499D01*
X153633366Y-120252701D01*
X153669716Y-120216353D01*
X153757321Y-120085243D01*
X153817664Y-119939561D01*
X153848427Y-119784906D01*
X153848427Y-119627222D01*
X153848427Y-119627219D01*
X153848426Y-119627217D01*
X153845967Y-119614855D01*
X153817664Y-119472567D01*
X153768027Y-119352732D01*
X153757324Y-119326892D01*
X153757323Y-119326891D01*
X153757321Y-119326885D01*
X153692956Y-119230555D01*
X153688322Y-119217988D01*
X153681993Y-119210297D01*
X153673860Y-119178762D01*
X153672912Y-119176191D01*
X153672805Y-119175288D01*
X153665349Y-119102292D01*
X153663559Y-119096892D01*
X153662104Y-119084549D01*
X153667021Y-119055591D01*
X153669214Y-119026306D01*
X153672803Y-119021543D01*
X153673802Y-119015665D01*
X153692849Y-118994779D01*
X153657737Y-118986482D01*
X153613559Y-118943825D01*
X153522970Y-118796959D01*
X153522967Y-118796955D01*
X153513339Y-118787327D01*
X153479854Y-118726004D01*
X153484838Y-118656312D01*
X153497881Y-118630810D01*
X153596361Y-118483255D01*
X153621527Y-118462200D01*
X153645910Y-118440269D01*
X153648183Y-118439899D01*
X153649950Y-118438421D01*
X153682505Y-118434314D01*
X153714872Y-118429048D01*
X153716983Y-118429965D01*
X153719270Y-118429677D01*
X153748883Y-118443825D01*
X153778954Y-118456891D01*
X153780234Y-118458804D01*
X153782314Y-118459798D01*
X153799572Y-118487704D01*
X153817810Y-118514960D01*
X153818265Y-118517930D01*
X153819064Y-118519222D01*
X153819002Y-118522744D01*
X153823500Y-118552091D01*
X153823500Y-118767998D01*
X153840714Y-118854537D01*
X153834487Y-118924128D01*
X153811642Y-118953535D01*
X153816363Y-118955052D01*
X153845039Y-118961391D01*
X153849240Y-118965620D01*
X153854919Y-118967446D01*
X153873583Y-118990125D01*
X153894280Y-119010960D01*
X153899160Y-119021205D01*
X153899317Y-119021395D01*
X153899400Y-119021707D01*
X153899812Y-119022572D01*
X153903223Y-119030808D01*
X153979887Y-119145545D01*
X153979888Y-119145546D01*
X154388181Y-119553838D01*
X154421666Y-119615161D01*
X154424500Y-119641518D01*
X154424500Y-119848336D01*
X154424501Y-119848355D01*
X154434650Y-119947707D01*
X154434651Y-119947710D01*
X154487996Y-120108694D01*
X154488001Y-120108705D01*
X154577029Y-120253040D01*
X154577032Y-120253044D01*
X154663181Y-120339193D01*
X154696666Y-120400516D01*
X154699500Y-120426874D01*
X154699500Y-120506006D01*
X154699500Y-120643994D01*
X154699500Y-120643996D01*
X154699499Y-120643996D01*
X154726418Y-120779322D01*
X154726421Y-120779332D01*
X154779222Y-120906807D01*
X154855887Y-121021545D01*
X154855888Y-121021546D01*
X157363181Y-123528837D01*
X157396666Y-123590160D01*
X157399500Y-123616518D01*
X157399500Y-123973337D01*
X157399501Y-123973355D01*
X157409650Y-124072707D01*
X157409651Y-124072710D01*
X157462996Y-124233694D01*
X157463001Y-124233705D01*
X157552029Y-124378040D01*
X157552032Y-124378044D01*
X157561660Y-124387672D01*
X157595145Y-124448995D01*
X157590161Y-124518687D01*
X157561663Y-124563031D01*
X157552428Y-124572265D01*
X157552424Y-124572271D01*
X157463457Y-124716507D01*
X157463452Y-124716518D01*
X157410144Y-124877393D01*
X157400000Y-124976677D01*
X157400000Y-125000000D01*
X161276000Y-125000000D01*
X161343039Y-125019685D01*
X161388794Y-125072489D01*
X161400000Y-125124000D01*
X161400000Y-125250000D01*
X161526000Y-125250000D01*
X161593039Y-125269685D01*
X161638794Y-125322489D01*
X161650000Y-125374000D01*
X161650000Y-126224999D01*
X161673308Y-126224999D01*
X161673322Y-126224998D01*
X161772607Y-126214855D01*
X161933481Y-126161547D01*
X161933492Y-126161542D01*
X162077731Y-126072573D01*
X162086959Y-126063345D01*
X162148279Y-126029856D01*
X162217971Y-126034835D01*
X162262327Y-126063339D01*
X162271955Y-126072967D01*
X162271959Y-126072970D01*
X162416294Y-126161998D01*
X162416297Y-126161999D01*
X162416303Y-126162003D01*
X162577292Y-126215349D01*
X162676655Y-126225500D01*
X163223344Y-126225499D01*
X163223352Y-126225498D01*
X163223355Y-126225498D01*
X163285390Y-126219161D01*
X163322708Y-126215349D01*
X163483697Y-126162003D01*
X163628044Y-126072968D01*
X163747968Y-125953044D01*
X163837003Y-125808697D01*
X163890349Y-125647708D01*
X163900500Y-125548345D01*
X163900499Y-124951656D01*
X163890349Y-124852292D01*
X163837003Y-124691303D01*
X163836999Y-124691297D01*
X163836998Y-124691294D01*
X163760896Y-124567915D01*
X163760895Y-124567914D01*
X163748038Y-124547070D01*
X163729597Y-124479678D01*
X163748037Y-124416876D01*
X163812549Y-124312287D01*
X163865436Y-124152685D01*
X163875500Y-124054174D01*
X163875500Y-123445826D01*
X163865436Y-123347315D01*
X163812549Y-123187713D01*
X163812545Y-123187707D01*
X163812544Y-123187704D01*
X163724283Y-123044612D01*
X163724280Y-123044608D01*
X163605391Y-122925719D01*
X163605387Y-122925716D01*
X163462295Y-122837455D01*
X163462289Y-122837452D01*
X163462287Y-122837451D01*
X163302685Y-122784564D01*
X163302683Y-122784563D01*
X163204181Y-122774500D01*
X163204174Y-122774500D01*
X162670826Y-122774500D01*
X162670818Y-122774500D01*
X162572316Y-122784563D01*
X162572315Y-122784564D01*
X162505776Y-122806613D01*
X162412715Y-122837450D01*
X162412704Y-122837455D01*
X162269612Y-122925716D01*
X162269608Y-122925719D01*
X162237681Y-122957647D01*
X162176358Y-122991132D01*
X162106666Y-122986148D01*
X162062319Y-122957647D01*
X162030391Y-122925719D01*
X162030387Y-122925716D01*
X161887295Y-122837455D01*
X161887289Y-122837452D01*
X161887287Y-122837451D01*
X161727685Y-122784564D01*
X161727683Y-122784563D01*
X161629181Y-122774500D01*
X161629174Y-122774500D01*
X161095826Y-122774500D01*
X161095818Y-122774500D01*
X160997316Y-122784563D01*
X160997315Y-122784564D01*
X160930776Y-122806613D01*
X160837715Y-122837450D01*
X160837710Y-122837452D01*
X160719853Y-122910148D01*
X160652460Y-122928588D01*
X160585797Y-122907665D01*
X160578146Y-122902094D01*
X160433705Y-122813001D01*
X160433699Y-122812998D01*
X160433697Y-122812997D01*
X160414431Y-122806613D01*
X160272709Y-122759651D01*
X160173346Y-122749500D01*
X159576662Y-122749500D01*
X159576644Y-122749501D01*
X159477292Y-122759650D01*
X159477289Y-122759651D01*
X159316305Y-122812996D01*
X159316300Y-122812998D01*
X159190097Y-122890842D01*
X159122704Y-122909282D01*
X159059903Y-122890842D01*
X158933699Y-122812998D01*
X158933694Y-122812996D01*
X158772709Y-122759651D01*
X158673352Y-122749500D01*
X158673345Y-122749500D01*
X158616518Y-122749500D01*
X158549479Y-122729815D01*
X158528837Y-122713181D01*
X157399678Y-121584021D01*
X157366193Y-121522698D01*
X157371177Y-121453006D01*
X157413049Y-121397073D01*
X157478513Y-121372656D01*
X157546786Y-121387508D01*
X157552436Y-121390790D01*
X157587713Y-121412549D01*
X157747315Y-121465436D01*
X157845826Y-121475500D01*
X157845831Y-121475500D01*
X158379169Y-121475500D01*
X158379174Y-121475500D01*
X158477685Y-121465436D01*
X158637287Y-121412549D01*
X158780391Y-121324281D01*
X158812319Y-121292353D01*
X158873642Y-121258868D01*
X158943334Y-121263852D01*
X158987681Y-121292353D01*
X159019608Y-121324280D01*
X159019612Y-121324283D01*
X159162704Y-121412544D01*
X159162707Y-121412545D01*
X159162713Y-121412549D01*
X159322315Y-121465436D01*
X159420826Y-121475500D01*
X159420831Y-121475500D01*
X159954169Y-121475500D01*
X159954174Y-121475500D01*
X160052685Y-121465436D01*
X160212287Y-121412549D01*
X160355391Y-121324281D01*
X160474281Y-121205391D01*
X160562549Y-121062287D01*
X160615436Y-120902685D01*
X160625500Y-120804174D01*
X160625500Y-120195826D01*
X160615436Y-120097315D01*
X160562549Y-119937713D01*
X160562545Y-119937707D01*
X160562544Y-119937704D01*
X160491089Y-119821858D01*
X160487123Y-119807364D01*
X160478654Y-119794950D01*
X160478087Y-119774345D01*
X160472648Y-119754466D01*
X160477116Y-119738991D01*
X160476735Y-119725106D01*
X160490510Y-119692611D01*
X160530528Y-119626413D01*
X160582056Y-119579226D01*
X160650915Y-119567387D01*
X160675649Y-119572857D01*
X160802393Y-119614855D01*
X160901683Y-119624999D01*
X161450000Y-119624999D01*
X161498308Y-119624999D01*
X161498322Y-119624998D01*
X161597607Y-119614855D01*
X161758481Y-119561547D01*
X161758492Y-119561542D01*
X161902728Y-119472575D01*
X161902732Y-119472572D01*
X162022572Y-119352732D01*
X162022575Y-119352728D01*
X162111542Y-119208492D01*
X162111547Y-119208481D01*
X162164855Y-119047606D01*
X162174999Y-118948322D01*
X162175000Y-118948309D01*
X162175000Y-118925000D01*
X161450000Y-118925000D01*
X161450000Y-119624999D01*
X160901683Y-119624999D01*
X160949999Y-119624998D01*
X160950000Y-119624998D01*
X160950000Y-118799000D01*
X160969685Y-118731961D01*
X161022489Y-118686206D01*
X161074000Y-118675000D01*
X161200000Y-118675000D01*
X161200000Y-118549000D01*
X161219685Y-118481961D01*
X161272489Y-118436206D01*
X161324000Y-118425000D01*
X162174999Y-118425000D01*
X162174999Y-118401692D01*
X162174998Y-118401677D01*
X162164855Y-118302392D01*
X162111547Y-118141518D01*
X162111542Y-118141507D01*
X162022575Y-117997271D01*
X162022572Y-117997267D01*
X162013339Y-117988034D01*
X161979854Y-117926711D01*
X161984838Y-117857019D01*
X162013343Y-117812668D01*
X162022968Y-117803044D01*
X162112003Y-117658697D01*
X162159372Y-117515742D01*
X162160074Y-117514728D01*
X162160141Y-117513495D01*
X162179897Y-117486097D01*
X162199144Y-117458299D01*
X162200286Y-117457824D01*
X162201008Y-117456823D01*
X162232426Y-117444461D01*
X162263660Y-117431476D01*
X162265253Y-117431546D01*
X162266026Y-117431242D01*
X162301264Y-117433130D01*
X162315814Y-117436024D01*
X162377724Y-117468409D01*
X162379303Y-117469960D01*
X166157832Y-121248489D01*
X166191317Y-121309812D01*
X166186333Y-121379504D01*
X166180636Y-121392465D01*
X166089782Y-121570776D01*
X166026522Y-121765465D01*
X165994500Y-121967648D01*
X165994500Y-122172351D01*
X166026522Y-122374534D01*
X166089781Y-122569223D01*
X166115654Y-122620000D01*
X166181638Y-122749501D01*
X166182715Y-122751613D01*
X166303028Y-122917213D01*
X166447786Y-123061971D01*
X166613385Y-123182284D01*
X166613387Y-123182285D01*
X166613390Y-123182287D01*
X166706630Y-123229795D01*
X166757426Y-123277770D01*
X166774221Y-123345591D01*
X166751684Y-123411725D01*
X166706630Y-123450765D01*
X166613644Y-123498143D01*
X166569077Y-123530523D01*
X166569077Y-123530524D01*
X167248554Y-124210000D01*
X167242339Y-124210000D01*
X167140606Y-124237259D01*
X167049394Y-124289920D01*
X166974920Y-124364394D01*
X166922259Y-124455606D01*
X166895000Y-124557339D01*
X166895000Y-124563553D01*
X166215524Y-123884077D01*
X166215523Y-123884077D01*
X166183143Y-123928644D01*
X166090244Y-124110968D01*
X166027009Y-124305582D01*
X165995000Y-124507682D01*
X165995000Y-124712317D01*
X166027009Y-124914417D01*
X166090244Y-125109031D01*
X166183141Y-125291350D01*
X166183147Y-125291359D01*
X166215523Y-125335921D01*
X166215524Y-125335922D01*
X166895000Y-124656446D01*
X166895000Y-124662661D01*
X166922259Y-124764394D01*
X166974920Y-124855606D01*
X167049394Y-124930080D01*
X167140606Y-124982741D01*
X167242339Y-125010000D01*
X167248553Y-125010000D01*
X166569076Y-125689474D01*
X166613650Y-125721859D01*
X166747414Y-125790015D01*
X166798210Y-125837989D01*
X166815005Y-125905810D01*
X166792468Y-125971945D01*
X166737753Y-126015397D01*
X166691119Y-126024500D01*
X166401663Y-126024500D01*
X166401644Y-126024501D01*
X166302292Y-126034650D01*
X166302289Y-126034651D01*
X166141305Y-126087996D01*
X166141294Y-126088001D01*
X165996959Y-126177029D01*
X165996953Y-126177033D01*
X165987324Y-126186663D01*
X165926000Y-126220146D01*
X165856308Y-126215159D01*
X165811965Y-126186660D01*
X165802732Y-126177427D01*
X165802728Y-126177424D01*
X165658492Y-126088457D01*
X165658481Y-126088452D01*
X165497606Y-126035144D01*
X165398322Y-126025000D01*
X165375000Y-126025000D01*
X165375000Y-127974999D01*
X165378453Y-127978452D01*
X165411938Y-128039775D01*
X165406954Y-128109467D01*
X165396311Y-128131230D01*
X165312998Y-128266300D01*
X165312996Y-128266305D01*
X165259651Y-128427290D01*
X165249500Y-128526647D01*
X165249500Y-129073337D01*
X165249501Y-129073355D01*
X165259650Y-129172707D01*
X165259651Y-129172710D01*
X165312996Y-129333694D01*
X165313001Y-129333705D01*
X165402029Y-129478040D01*
X165402032Y-129478044D01*
X165521955Y-129597967D01*
X165521959Y-129597970D01*
X165666294Y-129686998D01*
X165666297Y-129686999D01*
X165666303Y-129687003D01*
X165827292Y-129740349D01*
X165926655Y-129750500D01*
X166773344Y-129750499D01*
X166773352Y-129750498D01*
X166773355Y-129750498D01*
X166828919Y-129744822D01*
X166872708Y-129740349D01*
X166973971Y-129706794D01*
X167012975Y-129700500D01*
X167325500Y-129700500D01*
X167392539Y-129720185D01*
X167438294Y-129772989D01*
X167449500Y-129824500D01*
X167449500Y-129913696D01*
X167484103Y-130087658D01*
X167484105Y-130087666D01*
X167509410Y-130148757D01*
X167551987Y-130251547D01*
X167592078Y-130311547D01*
X167612524Y-130342147D01*
X167650537Y-130399038D01*
X167654282Y-130403601D01*
X167681594Y-130467911D01*
X167681786Y-130469663D01*
X167684651Y-130497709D01*
X167718206Y-130598971D01*
X167724500Y-130637975D01*
X167724500Y-131062024D01*
X167718206Y-131101028D01*
X167684651Y-131202290D01*
X167674500Y-131301647D01*
X167674500Y-131665489D01*
X167654815Y-131732528D01*
X167602011Y-131778283D01*
X167532853Y-131788227D01*
X167469297Y-131759202D01*
X167432794Y-131704493D01*
X167422032Y-131672015D01*
X167387003Y-131566303D01*
X167386999Y-131566297D01*
X167386998Y-131566294D01*
X167297970Y-131421959D01*
X167297967Y-131421955D01*
X167178044Y-131302032D01*
X167178040Y-131302029D01*
X167033705Y-131213001D01*
X167033699Y-131212998D01*
X167033697Y-131212997D01*
X166993892Y-131199807D01*
X166872709Y-131159651D01*
X166773346Y-131149500D01*
X165926662Y-131149500D01*
X165926644Y-131149501D01*
X165827292Y-131159650D01*
X165827289Y-131159651D01*
X165666305Y-131212996D01*
X165666294Y-131213001D01*
X165521959Y-131302029D01*
X165521955Y-131302032D01*
X165402031Y-131421956D01*
X165312999Y-131566297D01*
X165312993Y-131566310D01*
X165283979Y-131653868D01*
X165253955Y-131702544D01*
X163915541Y-133040958D01*
X163854218Y-133074443D01*
X163784526Y-133069459D01*
X163728593Y-133027587D01*
X163704176Y-132962123D01*
X163710154Y-132914272D01*
X163711999Y-132908702D01*
X163712003Y-132908697D01*
X163765349Y-132747708D01*
X163775500Y-132648345D01*
X163775499Y-132051656D01*
X163765349Y-131952292D01*
X163712003Y-131791303D01*
X163711999Y-131791297D01*
X163711998Y-131791294D01*
X163634158Y-131665097D01*
X163615717Y-131597705D01*
X163634158Y-131534903D01*
X163711998Y-131408705D01*
X163711997Y-131408705D01*
X163712003Y-131408697D01*
X163765349Y-131247708D01*
X163775500Y-131148345D01*
X163775499Y-130551656D01*
X163766944Y-130467911D01*
X163765349Y-130452292D01*
X163765348Y-130452289D01*
X163754144Y-130418477D01*
X163712003Y-130291303D01*
X163711999Y-130291297D01*
X163711998Y-130291294D01*
X163622970Y-130146959D01*
X163622967Y-130146955D01*
X163503044Y-130027032D01*
X163503040Y-130027029D01*
X163358705Y-129938001D01*
X163358699Y-129937998D01*
X163358697Y-129937997D01*
X163250644Y-129902192D01*
X163197709Y-129884651D01*
X163098352Y-129874500D01*
X163098345Y-129874500D01*
X162891518Y-129874500D01*
X162824479Y-129854815D01*
X162803837Y-129838181D01*
X161921546Y-128955888D01*
X161921545Y-128955887D01*
X161806807Y-128879222D01*
X161679332Y-128826421D01*
X161679322Y-128826418D01*
X161543996Y-128799500D01*
X161543994Y-128799500D01*
X161543993Y-128799500D01*
X158941520Y-128799500D01*
X158874481Y-128779815D01*
X158853839Y-128763181D01*
X158760188Y-128669530D01*
X158614606Y-128581522D01*
X158606509Y-128578999D01*
X158452196Y-128530914D01*
X158452194Y-128530913D01*
X158452192Y-128530913D01*
X158402778Y-128526423D01*
X158381616Y-128524500D01*
X157868384Y-128524500D01*
X157849145Y-128526248D01*
X157797807Y-128530913D01*
X157635393Y-128581522D01*
X157489811Y-128669530D01*
X157489810Y-128669531D01*
X157387681Y-128771661D01*
X157326358Y-128805146D01*
X157256666Y-128800162D01*
X157212319Y-128771661D01*
X157110188Y-128669530D01*
X156964606Y-128581522D01*
X156956509Y-128578999D01*
X156802196Y-128530914D01*
X156802194Y-128530913D01*
X156802192Y-128530913D01*
X156752778Y-128526423D01*
X156731616Y-128524500D01*
X156218384Y-128524500D01*
X156199145Y-128526248D01*
X156147807Y-128530913D01*
X155985393Y-128581522D01*
X155839811Y-128669530D01*
X155719530Y-128789811D01*
X155631522Y-128935393D01*
X155580913Y-129097807D01*
X155577762Y-129132491D01*
X155574500Y-129168384D01*
X155574500Y-129831616D01*
X155575097Y-129838181D01*
X155580913Y-129902192D01*
X155580913Y-129902194D01*
X155580914Y-129902196D01*
X155631522Y-130064606D01*
X155715386Y-130203334D01*
X155719530Y-130210188D01*
X155839811Y-130330469D01*
X155839813Y-130330470D01*
X155839815Y-130330472D01*
X155985394Y-130418478D01*
X156147804Y-130469086D01*
X156218384Y-130475500D01*
X156218387Y-130475500D01*
X156731613Y-130475500D01*
X156731616Y-130475500D01*
X156802196Y-130469086D01*
X156964606Y-130418478D01*
X157110185Y-130330472D01*
X157149363Y-130291294D01*
X157212319Y-130228339D01*
X157273642Y-130194854D01*
X157343334Y-130199838D01*
X157387681Y-130228339D01*
X157489811Y-130330469D01*
X157489813Y-130330470D01*
X157489815Y-130330472D01*
X157635394Y-130418478D01*
X157797804Y-130469086D01*
X157868384Y-130475500D01*
X157868387Y-130475500D01*
X158381613Y-130475500D01*
X158381616Y-130475500D01*
X158452196Y-130469086D01*
X158614606Y-130418478D01*
X158760185Y-130330472D01*
X158799363Y-130291294D01*
X158853839Y-130236819D01*
X158915162Y-130203334D01*
X158941520Y-130200500D01*
X160246893Y-130200500D01*
X160313932Y-130220185D01*
X160359687Y-130272989D01*
X160369631Y-130342147D01*
X160364599Y-130363504D01*
X160335144Y-130452393D01*
X160325000Y-130551677D01*
X160325000Y-130600000D01*
X161151000Y-130600000D01*
X161218039Y-130619685D01*
X161263794Y-130672489D01*
X161275000Y-130724000D01*
X161275000Y-130850000D01*
X161401000Y-130850000D01*
X161468039Y-130869685D01*
X161513794Y-130922489D01*
X161525000Y-130974000D01*
X161525000Y-133324999D01*
X161548308Y-133324999D01*
X161548322Y-133324998D01*
X161647607Y-133314855D01*
X161808481Y-133261547D01*
X161808492Y-133261542D01*
X161952731Y-133172573D01*
X161961959Y-133163345D01*
X162023279Y-133129856D01*
X162092971Y-133134835D01*
X162137327Y-133163339D01*
X162146955Y-133172967D01*
X162146959Y-133172970D01*
X162291294Y-133261998D01*
X162291297Y-133261999D01*
X162291303Y-133262003D01*
X162452292Y-133315349D01*
X162551655Y-133325500D01*
X163098344Y-133325499D01*
X163098352Y-133325498D01*
X163098355Y-133325498D01*
X163167086Y-133318477D01*
X163197708Y-133315349D01*
X163358697Y-133262003D01*
X163358702Y-133261999D01*
X163364272Y-133260154D01*
X163434101Y-133257752D01*
X163494143Y-133293483D01*
X163525336Y-133356004D01*
X163517776Y-133425463D01*
X163490958Y-133465541D01*
X161369470Y-135587029D01*
X161308147Y-135620514D01*
X161238455Y-135615530D01*
X161194108Y-135587029D01*
X161185292Y-135578213D01*
X161185288Y-135578210D01*
X161054185Y-135490609D01*
X161054172Y-135490602D01*
X160908501Y-135430264D01*
X160908489Y-135430261D01*
X160753845Y-135399500D01*
X160753842Y-135399500D01*
X160596158Y-135399500D01*
X160596155Y-135399500D01*
X160441510Y-135430261D01*
X160441498Y-135430264D01*
X160297136Y-135490061D01*
X160249684Y-135499500D01*
X160206004Y-135499500D01*
X160070677Y-135526418D01*
X160070667Y-135526421D01*
X159943192Y-135579222D01*
X159828454Y-135655887D01*
X158264887Y-137219454D01*
X158204722Y-137309499D01*
X158188225Y-137334188D01*
X158188222Y-137334193D01*
X158135421Y-137461667D01*
X158135418Y-137461677D01*
X158108500Y-137597004D01*
X158108500Y-137597007D01*
X158108500Y-138948104D01*
X158108500Y-139086092D01*
X158108500Y-139086094D01*
X158108499Y-139086094D01*
X158135418Y-139221420D01*
X158135421Y-139221430D01*
X158188222Y-139348905D01*
X158253797Y-139447046D01*
X158264886Y-139463641D01*
X158323564Y-139522319D01*
X158357048Y-139583640D01*
X158352064Y-139653332D01*
X158310193Y-139709266D01*
X158292186Y-139720479D01*
X158289357Y-139721920D01*
X158193045Y-139791895D01*
X158128839Y-139838544D01*
X158128837Y-139838546D01*
X158128836Y-139838546D01*
X157988546Y-139978836D01*
X157988546Y-139978837D01*
X157988544Y-139978839D01*
X157947093Y-140035892D01*
X157871926Y-140139349D01*
X157871924Y-140139352D01*
X157781850Y-140316131D01*
X157764347Y-140370000D01*
X157720537Y-140504832D01*
X157720536Y-140504835D01*
X157720536Y-140504837D01*
X157689500Y-140700790D01*
X157689500Y-140899209D01*
X157717709Y-141077314D01*
X157720537Y-141095168D01*
X157746085Y-141173794D01*
X157781850Y-141283868D01*
X157810541Y-141340176D01*
X157871923Y-141460646D01*
X157988544Y-141621161D01*
X158128839Y-141761456D01*
X158289354Y-141878077D01*
X158385007Y-141926814D01*
X158466131Y-141968149D01*
X158466133Y-141968149D01*
X158466136Y-141968151D01*
X158654832Y-142029463D01*
X158752814Y-142044981D01*
X158850791Y-142060500D01*
X158850796Y-142060500D01*
X159049209Y-142060500D01*
X159138278Y-142046392D01*
X159245168Y-142029463D01*
X159433864Y-141968151D01*
X159610646Y-141878077D01*
X159771161Y-141761456D01*
X159882319Y-141650298D01*
X159943642Y-141616813D01*
X160013334Y-141621797D01*
X160057681Y-141650298D01*
X160168839Y-141761456D01*
X160329354Y-141878077D01*
X160425007Y-141926814D01*
X160506131Y-141968149D01*
X160506133Y-141968149D01*
X160506136Y-141968151D01*
X160694832Y-142029463D01*
X160792814Y-142044981D01*
X160890791Y-142060500D01*
X160890796Y-142060500D01*
X161089209Y-142060500D01*
X161178278Y-142046392D01*
X161285168Y-142029463D01*
X161473864Y-141968151D01*
X161650646Y-141878077D01*
X161811161Y-141761456D01*
X161951456Y-141621161D01*
X162068077Y-141460646D01*
X162113470Y-141371554D01*
X162136269Y-141340176D01*
X162587861Y-140888584D01*
X162610667Y-140973694D01*
X162669910Y-141076306D01*
X162753694Y-141160090D01*
X162856306Y-141219333D01*
X162941414Y-141242137D01*
X162332714Y-141850837D01*
X162332715Y-141850838D01*
X162369612Y-141877645D01*
X162546327Y-141967688D01*
X162546330Y-141967689D01*
X162734947Y-142028973D01*
X162930837Y-142060000D01*
X163129163Y-142060000D01*
X163325052Y-142028973D01*
X163513669Y-141967689D01*
X163513672Y-141967688D01*
X163690382Y-141877648D01*
X163727283Y-141850837D01*
X163727284Y-141850836D01*
X163118585Y-141242137D01*
X163203694Y-141219333D01*
X163306306Y-141160090D01*
X163390090Y-141076306D01*
X163449333Y-140973694D01*
X163472138Y-140888585D01*
X164080836Y-141497284D01*
X164080837Y-141497283D01*
X164107648Y-141460382D01*
X164197688Y-141283672D01*
X164197689Y-141283669D01*
X164258973Y-141095052D01*
X164290000Y-140899163D01*
X164290000Y-140700836D01*
X164258973Y-140504947D01*
X164197689Y-140316330D01*
X164197688Y-140316327D01*
X164107645Y-140139612D01*
X164080838Y-140102715D01*
X164080837Y-140102714D01*
X163472137Y-140711414D01*
X163449333Y-140626306D01*
X163390090Y-140523694D01*
X163306306Y-140439910D01*
X163203694Y-140380667D01*
X163118584Y-140357861D01*
X163727283Y-139749161D01*
X163727283Y-139749160D01*
X163721305Y-139744817D01*
X163678639Y-139689488D01*
X163672660Y-139619874D01*
X163705265Y-139558079D01*
X163766104Y-139523722D01*
X163794184Y-139520499D01*
X164857872Y-139520499D01*
X164917483Y-139514091D01*
X165052331Y-139463796D01*
X165167546Y-139377546D01*
X165253796Y-139262331D01*
X165304091Y-139127483D01*
X165310500Y-139067873D01*
X165310499Y-137452128D01*
X165304091Y-137392517D01*
X165293860Y-137365087D01*
X165253797Y-137257671D01*
X165253793Y-137257664D01*
X165167547Y-137142455D01*
X165167544Y-137142452D01*
X165052335Y-137056206D01*
X165052328Y-137056202D01*
X164917482Y-137005908D01*
X164917483Y-137005908D01*
X164857883Y-136999501D01*
X164857881Y-136999500D01*
X164857873Y-136999500D01*
X164857864Y-136999500D01*
X163242129Y-136999500D01*
X163242123Y-136999501D01*
X163182516Y-137005908D01*
X163047671Y-137056202D01*
X163047664Y-137056206D01*
X162932455Y-137142452D01*
X162932454Y-137142453D01*
X162894340Y-137193366D01*
X162892362Y-137194846D01*
X162891411Y-137197126D01*
X162864549Y-137215666D01*
X162838406Y-137235236D01*
X162835940Y-137235412D01*
X162833908Y-137236815D01*
X162801290Y-137237889D01*
X162768714Y-137240219D01*
X162765780Y-137239059D01*
X162764076Y-137239116D01*
X162754519Y-137234611D01*
X162731506Y-137225519D01*
X162726705Y-137222652D01*
X162670646Y-137181923D01*
X162587756Y-137139689D01*
X162584194Y-137137562D01*
X162563167Y-137114851D01*
X162540673Y-137093607D01*
X162539641Y-137089441D01*
X162536726Y-137086293D01*
X162531315Y-137055823D01*
X162523877Y-137025786D01*
X162525261Y-137021724D01*
X162524511Y-137017499D01*
X162536432Y-136988940D01*
X162546414Y-136959651D01*
X162550869Y-136954358D01*
X162551427Y-136953023D01*
X162552779Y-136952089D01*
X162560076Y-136943421D01*
X166416680Y-133086818D01*
X166478003Y-133053333D01*
X166504361Y-133050499D01*
X166773338Y-133050499D01*
X166773344Y-133050499D01*
X166773352Y-133050498D01*
X166773355Y-133050498D01*
X166827760Y-133044940D01*
X166872708Y-133040349D01*
X167033697Y-132987003D01*
X167178044Y-132897968D01*
X167297968Y-132778044D01*
X167387003Y-132633697D01*
X167440349Y-132472708D01*
X167450500Y-132373345D01*
X167450499Y-132059508D01*
X167454931Y-132044412D01*
X167454391Y-132028686D01*
X167464573Y-132011576D01*
X167470183Y-131992471D01*
X167482076Y-131982165D01*
X167490123Y-131968644D01*
X167507939Y-131959754D01*
X167522987Y-131946716D01*
X167538561Y-131944476D01*
X167552643Y-131937451D01*
X167572438Y-131939605D01*
X167592146Y-131936772D01*
X167606458Y-131943308D01*
X167622102Y-131945011D01*
X167637590Y-131957526D01*
X167655701Y-131965797D01*
X167664913Y-131979603D01*
X167676448Y-131988924D01*
X167692205Y-132020506D01*
X167718206Y-132098971D01*
X167724500Y-132137975D01*
X167724500Y-132562024D01*
X167718206Y-132601028D01*
X167684651Y-132702290D01*
X167674500Y-132801647D01*
X167674500Y-133398337D01*
X167674501Y-133398355D01*
X167684650Y-133497707D01*
X167684651Y-133497710D01*
X167718206Y-133598971D01*
X167724500Y-133637975D01*
X167724500Y-135413696D01*
X167759103Y-135587659D01*
X167759105Y-135587666D01*
X167773962Y-135623534D01*
X167773963Y-135623536D01*
X167826984Y-135751542D01*
X167826986Y-135751545D01*
X167826987Y-135751547D01*
X167838545Y-135768844D01*
X167861203Y-135802755D01*
X167925537Y-135899038D01*
X167925540Y-135899041D01*
X169563181Y-137536681D01*
X169596666Y-137598004D01*
X169599500Y-137624360D01*
X169599500Y-137673335D01*
X169599501Y-137673355D01*
X169609650Y-137772707D01*
X169609651Y-137772710D01*
X169662996Y-137933694D01*
X169663001Y-137933705D01*
X169752029Y-138078040D01*
X169752032Y-138078044D01*
X169871955Y-138197967D01*
X169871959Y-138197970D01*
X170016294Y-138286998D01*
X170016297Y-138286999D01*
X170016303Y-138287003D01*
X170177292Y-138340349D01*
X170276655Y-138350500D01*
X170823344Y-138350499D01*
X170823352Y-138350498D01*
X170823355Y-138350498D01*
X170877760Y-138344940D01*
X170922708Y-138340349D01*
X171083697Y-138287003D01*
X171228044Y-138197968D01*
X171347968Y-138078044D01*
X171437003Y-137933697D01*
X171490349Y-137772708D01*
X171500500Y-137673345D01*
X171500499Y-136826656D01*
X171498276Y-136804897D01*
X171490349Y-136727292D01*
X171490348Y-136727289D01*
X171437003Y-136566303D01*
X171436997Y-136566294D01*
X171420385Y-136539362D01*
X171401944Y-136471970D01*
X171422866Y-136405306D01*
X171476507Y-136360536D01*
X171545838Y-136351874D01*
X171564240Y-136356333D01*
X171580705Y-136361682D01*
X171580704Y-136361682D01*
X171759494Y-136390000D01*
X171940506Y-136390000D01*
X172119293Y-136361682D01*
X172291444Y-136305748D01*
X172291452Y-136305745D01*
X172452730Y-136223568D01*
X172468532Y-136212085D01*
X171846446Y-135590000D01*
X171896078Y-135590000D01*
X171985095Y-135566148D01*
X172064905Y-135520070D01*
X172130070Y-135454905D01*
X172176148Y-135375095D01*
X172200000Y-135286078D01*
X172200000Y-135236446D01*
X172822085Y-135858532D01*
X172833567Y-135842731D01*
X172833572Y-135842723D01*
X172878270Y-135755000D01*
X172874000Y-135755000D01*
X172806961Y-135735315D01*
X172761206Y-135682511D01*
X172750000Y-135631000D01*
X172750000Y-134799000D01*
X172769685Y-134731961D01*
X172822489Y-134686206D01*
X172874000Y-134675000D01*
X173051500Y-134675000D01*
X173118539Y-134694685D01*
X173164294Y-134747489D01*
X173175500Y-134799000D01*
X173175500Y-136247125D01*
X173155815Y-136314164D01*
X173139182Y-136334806D01*
X173052029Y-136421959D01*
X172963001Y-136566294D01*
X172962996Y-136566305D01*
X172909651Y-136727290D01*
X172899500Y-136826647D01*
X172899500Y-137673337D01*
X172899501Y-137673355D01*
X172909650Y-137772707D01*
X172909651Y-137772710D01*
X172962996Y-137933694D01*
X172963001Y-137933705D01*
X173052029Y-138078040D01*
X173052032Y-138078044D01*
X173171955Y-138197967D01*
X173171959Y-138197970D01*
X173316294Y-138286998D01*
X173316297Y-138286999D01*
X173316303Y-138287003D01*
X173477292Y-138340349D01*
X173576655Y-138350500D01*
X174123344Y-138350499D01*
X174123352Y-138350498D01*
X174123355Y-138350498D01*
X174177760Y-138344940D01*
X174222708Y-138340349D01*
X174383697Y-138287003D01*
X174528044Y-138197968D01*
X174539193Y-138186819D01*
X174600516Y-138153334D01*
X174626874Y-138150500D01*
X175705464Y-138150500D01*
X175772503Y-138170185D01*
X175778344Y-138174178D01*
X175917184Y-138275051D01*
X176106588Y-138371557D01*
X176308757Y-138437246D01*
X176518713Y-138470500D01*
X176518714Y-138470500D01*
X176731286Y-138470500D01*
X176731287Y-138470500D01*
X176941243Y-138437246D01*
X177143412Y-138371557D01*
X177332816Y-138275051D01*
X177438910Y-138197970D01*
X177504786Y-138150109D01*
X177504788Y-138150106D01*
X177504792Y-138150104D01*
X177655104Y-137999792D01*
X177655106Y-137999788D01*
X177655109Y-137999786D01*
X177780048Y-137827820D01*
X177780047Y-137827820D01*
X177780051Y-137827816D01*
X177876557Y-137638412D01*
X177942246Y-137436243D01*
X177975500Y-137226287D01*
X177975500Y-137013713D01*
X177950715Y-136857227D01*
X177959670Y-136787933D01*
X177985504Y-136750151D01*
X179419114Y-135316543D01*
X179495775Y-135201811D01*
X179543769Y-135085941D01*
X179587609Y-135031538D01*
X179653903Y-135009473D01*
X179721603Y-135026752D01*
X179769213Y-135077889D01*
X179782330Y-135133476D01*
X179779548Y-139335718D01*
X179779543Y-139343947D01*
X179779500Y-139344108D01*
X179779500Y-139409020D01*
X179779500Y-139409183D01*
X179779456Y-139475559D01*
X179779499Y-139475890D01*
X179796112Y-139537892D01*
X179800336Y-139569518D01*
X179809473Y-142000089D01*
X179805250Y-142032645D01*
X179799500Y-142054105D01*
X179799500Y-148641324D01*
X179790855Y-148670764D01*
X179784332Y-148700751D01*
X179780577Y-148705766D01*
X179779815Y-148708363D01*
X179763181Y-148729005D01*
X179629005Y-148863181D01*
X179567682Y-148896666D01*
X179541324Y-148899500D01*
X146968676Y-148899500D01*
X146901637Y-148879815D01*
X146880995Y-148863181D01*
X146746819Y-148729005D01*
X146713334Y-148667682D01*
X146710500Y-148641324D01*
X146710500Y-147788960D01*
X146714668Y-147762349D01*
X146710500Y-147723336D01*
X146710500Y-147684108D01*
X146706024Y-147667407D01*
X146702504Y-147648506D01*
X146700668Y-147631310D01*
X146686545Y-147594707D01*
X146676392Y-147556814D01*
X146662925Y-147533488D01*
X146653230Y-147508361D01*
X146653229Y-147508359D01*
X146634006Y-147481996D01*
X146630113Y-147476658D01*
X146610500Y-147442686D01*
X146591454Y-147423640D01*
X146575586Y-147401878D01*
X146545055Y-147377241D01*
X146517314Y-147349500D01*
X146493990Y-147336033D01*
X146486474Y-147329968D01*
X146466707Y-147314019D01*
X146468633Y-147311631D01*
X146431454Y-147270654D01*
X146419044Y-147216648D01*
X146418578Y-146293713D01*
X147849500Y-146293713D01*
X147849500Y-146506286D01*
X147874350Y-146663186D01*
X147882754Y-146716243D01*
X147932875Y-146870500D01*
X147948444Y-146918414D01*
X148044951Y-147107820D01*
X148169890Y-147279786D01*
X148320213Y-147430109D01*
X148492179Y-147555048D01*
X148492181Y-147555049D01*
X148492184Y-147555051D01*
X148681588Y-147651557D01*
X148883757Y-147717246D01*
X149093713Y-147750500D01*
X149093714Y-147750500D01*
X149306286Y-147750500D01*
X149306287Y-147750500D01*
X149516243Y-147717246D01*
X149718412Y-147651557D01*
X149907816Y-147555051D01*
X149972080Y-147508361D01*
X150079786Y-147430109D01*
X150079788Y-147430106D01*
X150079792Y-147430104D01*
X150230104Y-147279792D01*
X150230106Y-147279788D01*
X150230109Y-147279786D01*
X150355048Y-147107820D01*
X150355047Y-147107820D01*
X150355051Y-147107816D01*
X150451557Y-146918412D01*
X150517246Y-146716243D01*
X150550500Y-146506287D01*
X150550500Y-146293713D01*
X175949500Y-146293713D01*
X175949500Y-146506286D01*
X175974350Y-146663186D01*
X175982754Y-146716243D01*
X176032875Y-146870500D01*
X176048444Y-146918414D01*
X176144951Y-147107820D01*
X176269890Y-147279786D01*
X176420213Y-147430109D01*
X176592179Y-147555048D01*
X176592181Y-147555049D01*
X176592184Y-147555051D01*
X176781588Y-147651557D01*
X176983757Y-147717246D01*
X177193713Y-147750500D01*
X177193714Y-147750500D01*
X177406286Y-147750500D01*
X177406287Y-147750500D01*
X177616243Y-147717246D01*
X177818412Y-147651557D01*
X178007816Y-147555051D01*
X178072080Y-147508361D01*
X178179786Y-147430109D01*
X178179788Y-147430106D01*
X178179792Y-147430104D01*
X178330104Y-147279792D01*
X178330106Y-147279788D01*
X178330109Y-147279786D01*
X178455048Y-147107820D01*
X178455047Y-147107820D01*
X178455051Y-147107816D01*
X178551557Y-146918412D01*
X178617246Y-146716243D01*
X178650500Y-146506287D01*
X178650500Y-146293713D01*
X178617246Y-146083757D01*
X178551557Y-145881588D01*
X178455051Y-145692184D01*
X178455049Y-145692181D01*
X178455048Y-145692179D01*
X178330109Y-145520213D01*
X178179786Y-145369890D01*
X178007820Y-145244951D01*
X177818414Y-145148444D01*
X177818413Y-145148443D01*
X177818412Y-145148443D01*
X177616243Y-145082754D01*
X177616241Y-145082753D01*
X177616240Y-145082753D01*
X177454957Y-145057208D01*
X177406287Y-145049500D01*
X177193713Y-145049500D01*
X177145042Y-145057208D01*
X176983760Y-145082753D01*
X176781585Y-145148444D01*
X176592179Y-145244951D01*
X176420213Y-145369890D01*
X176269890Y-145520213D01*
X176144951Y-145692179D01*
X176048444Y-145881585D01*
X175982753Y-146083760D01*
X175949500Y-146293713D01*
X150550500Y-146293713D01*
X150517246Y-146083757D01*
X150451557Y-145881588D01*
X150355051Y-145692184D01*
X150355049Y-145692181D01*
X150355048Y-145692179D01*
X150230109Y-145520213D01*
X150079786Y-145369890D01*
X149907820Y-145244951D01*
X149718414Y-145148444D01*
X149718413Y-145148443D01*
X149718412Y-145148443D01*
X149516243Y-145082754D01*
X149516241Y-145082753D01*
X149516240Y-145082753D01*
X149354957Y-145057208D01*
X149306287Y-145049500D01*
X149093713Y-145049500D01*
X149045042Y-145057208D01*
X148883760Y-145082753D01*
X148681585Y-145148444D01*
X148492179Y-145244951D01*
X148320213Y-145369890D01*
X148169890Y-145520213D01*
X148044951Y-145692179D01*
X147948444Y-145881585D01*
X147882753Y-146083760D01*
X147849500Y-146293713D01*
X146418578Y-146293713D01*
X146418297Y-145737584D01*
X146418838Y-145735738D01*
X146418350Y-145733874D01*
X146428624Y-145702346D01*
X146437947Y-145670539D01*
X146439591Y-145668695D01*
X146440000Y-145667443D01*
X146445123Y-145662495D01*
X146463889Y-145641462D01*
X146470125Y-145636371D01*
X146470691Y-145636109D01*
X146480261Y-145628098D01*
X146480804Y-145627656D01*
X146481346Y-145627427D01*
X146497206Y-145616336D01*
X146507314Y-145610502D01*
X146538236Y-145579579D01*
X146571752Y-145551530D01*
X146584635Y-145533180D01*
X146600500Y-145517316D01*
X146622365Y-145479443D01*
X146647479Y-145443676D01*
X146655174Y-145422616D01*
X146666392Y-145403188D01*
X146677708Y-145360953D01*
X146692712Y-145319897D01*
X146694695Y-145297557D01*
X146700500Y-145275894D01*
X146700500Y-145232174D01*
X146704366Y-145188629D01*
X146700500Y-145166537D01*
X146700500Y-142989778D01*
X154099500Y-142989778D01*
X154099500Y-143210221D01*
X154133985Y-143427952D01*
X154202103Y-143637603D01*
X154202104Y-143637606D01*
X154302187Y-143834025D01*
X154431752Y-144012358D01*
X154431756Y-144012363D01*
X154587636Y-144168243D01*
X154587641Y-144168247D01*
X154743192Y-144281260D01*
X154765978Y-144297815D01*
X154894375Y-144363237D01*
X154962393Y-144397895D01*
X154962396Y-144397896D01*
X155067221Y-144431955D01*
X155172049Y-144466015D01*
X155389778Y-144500500D01*
X155389779Y-144500500D01*
X155610221Y-144500500D01*
X155610222Y-144500500D01*
X155827951Y-144466015D01*
X156037606Y-144397895D01*
X156234022Y-144297815D01*
X156412365Y-144168242D01*
X156568242Y-144012365D01*
X156697815Y-143834022D01*
X156797895Y-143637606D01*
X156866015Y-143427951D01*
X156900500Y-143210222D01*
X156900500Y-142989778D01*
X166099500Y-142989778D01*
X166099500Y-143210221D01*
X166133985Y-143427952D01*
X166202103Y-143637603D01*
X166202104Y-143637606D01*
X166302187Y-143834025D01*
X166431752Y-144012358D01*
X166431756Y-144012363D01*
X166587636Y-144168243D01*
X166587641Y-144168247D01*
X166743192Y-144281260D01*
X166765978Y-144297815D01*
X166894375Y-144363237D01*
X166962393Y-144397895D01*
X166962396Y-144397896D01*
X167067221Y-144431955D01*
X167172049Y-144466015D01*
X167389778Y-144500500D01*
X167389779Y-144500500D01*
X167610221Y-144500500D01*
X167610222Y-144500500D01*
X167827951Y-144466015D01*
X168037606Y-144397895D01*
X168234022Y-144297815D01*
X168412365Y-144168242D01*
X168568242Y-144012365D01*
X168697815Y-143834022D01*
X168797895Y-143637606D01*
X168866015Y-143427951D01*
X168900500Y-143210222D01*
X168900500Y-142989778D01*
X168866015Y-142772049D01*
X168831955Y-142667221D01*
X168797896Y-142562396D01*
X168797895Y-142562393D01*
X168763237Y-142494375D01*
X168697815Y-142365978D01*
X168659460Y-142313186D01*
X168568247Y-142187641D01*
X168568243Y-142187636D01*
X168412363Y-142031756D01*
X168412358Y-142031752D01*
X168234025Y-141902187D01*
X168234024Y-141902186D01*
X168234022Y-141902185D01*
X168133247Y-141850837D01*
X168037606Y-141802104D01*
X168037603Y-141802103D01*
X167827952Y-141733985D01*
X167644259Y-141704891D01*
X167610222Y-141699500D01*
X167389778Y-141699500D01*
X167355741Y-141704891D01*
X167172047Y-141733985D01*
X166962396Y-141802103D01*
X166962393Y-141802104D01*
X166765974Y-141902187D01*
X166587641Y-142031752D01*
X166587636Y-142031756D01*
X166431756Y-142187636D01*
X166431752Y-142187641D01*
X166302187Y-142365974D01*
X166202104Y-142562393D01*
X166202103Y-142562396D01*
X166133985Y-142772047D01*
X166099500Y-142989778D01*
X156900500Y-142989778D01*
X156866015Y-142772049D01*
X156831955Y-142667221D01*
X156797896Y-142562396D01*
X156797895Y-142562393D01*
X156763237Y-142494375D01*
X156697815Y-142365978D01*
X156659460Y-142313186D01*
X156568247Y-142187641D01*
X156568243Y-142187636D01*
X156412363Y-142031756D01*
X156412358Y-142031752D01*
X156234025Y-141902187D01*
X156234024Y-141902186D01*
X156234022Y-141902185D01*
X156133247Y-141850837D01*
X156037606Y-141802104D01*
X156037603Y-141802103D01*
X155827952Y-141733985D01*
X155644259Y-141704891D01*
X155610222Y-141699500D01*
X155389778Y-141699500D01*
X155355741Y-141704891D01*
X155172047Y-141733985D01*
X154962396Y-141802103D01*
X154962393Y-141802104D01*
X154765974Y-141902187D01*
X154587641Y-142031752D01*
X154587636Y-142031756D01*
X154431756Y-142187636D01*
X154431752Y-142187641D01*
X154302187Y-142365974D01*
X154202104Y-142562393D01*
X154202103Y-142562396D01*
X154133985Y-142772047D01*
X154099500Y-142989778D01*
X146700500Y-142989778D01*
X146700500Y-136773920D01*
X155849499Y-136773920D01*
X155878340Y-136918907D01*
X155878343Y-136918917D01*
X155934912Y-137055488D01*
X155934919Y-137055501D01*
X156017048Y-137178415D01*
X156017051Y-137178419D01*
X156121580Y-137282948D01*
X156121584Y-137282951D01*
X156244498Y-137365080D01*
X156244511Y-137365087D01*
X156310734Y-137392517D01*
X156381087Y-137421658D01*
X156381091Y-137421658D01*
X156381092Y-137421659D01*
X156526079Y-137450500D01*
X156526082Y-137450500D01*
X156673920Y-137450500D01*
X156771462Y-137431096D01*
X156818913Y-137421658D01*
X156955495Y-137365084D01*
X157078416Y-137282951D01*
X157182951Y-137178416D01*
X157265084Y-137055495D01*
X157321658Y-136918913D01*
X157336999Y-136841786D01*
X157369381Y-136779879D01*
X157370876Y-136778357D01*
X158283506Y-135865728D01*
X158283511Y-135865724D01*
X158293714Y-135855520D01*
X158293716Y-135855520D01*
X158405520Y-135743716D01*
X158474905Y-135623537D01*
X158474906Y-135623536D01*
X158479528Y-135615530D01*
X158484577Y-135606785D01*
X158525501Y-135454057D01*
X158525501Y-135295943D01*
X158525501Y-135288348D01*
X158525500Y-135288330D01*
X158525500Y-134689767D01*
X158545185Y-134622728D01*
X158546398Y-134620876D01*
X158590080Y-134555501D01*
X158590080Y-134555500D01*
X158590084Y-134555495D01*
X158646658Y-134418913D01*
X158668631Y-134308451D01*
X158675500Y-134273920D01*
X158675500Y-134126079D01*
X158646659Y-133981092D01*
X158646658Y-133981091D01*
X158646658Y-133981087D01*
X158640365Y-133965894D01*
X158590087Y-133844511D01*
X158590080Y-133844498D01*
X158507951Y-133721584D01*
X158507948Y-133721580D01*
X158403419Y-133617051D01*
X158403415Y-133617048D01*
X158301687Y-133549075D01*
X158256882Y-133495463D01*
X158248175Y-133426138D01*
X158278330Y-133363110D01*
X158333689Y-133327587D01*
X158364398Y-133318017D01*
X158509877Y-133230072D01*
X158509878Y-133230071D01*
X158611963Y-133127985D01*
X158673286Y-133094499D01*
X158742977Y-133099483D01*
X158787326Y-133127984D01*
X158889811Y-133230469D01*
X158889813Y-133230470D01*
X158889815Y-133230472D01*
X159035394Y-133318478D01*
X159197804Y-133369086D01*
X159268384Y-133375500D01*
X159268387Y-133375500D01*
X159781613Y-133375500D01*
X159781616Y-133375500D01*
X159852196Y-133369086D01*
X160014606Y-133318478D01*
X160160185Y-133230472D01*
X160280472Y-133110185D01*
X160294443Y-133087074D01*
X160345966Y-133039889D01*
X160414825Y-133028049D01*
X160479155Y-133055316D01*
X160488239Y-133063544D01*
X160597267Y-133172572D01*
X160597271Y-133172575D01*
X160741507Y-133261542D01*
X160741518Y-133261547D01*
X160902393Y-133314855D01*
X161001683Y-133324999D01*
X161025000Y-133324998D01*
X161025000Y-131100000D01*
X160325001Y-131100000D01*
X160325001Y-131148322D01*
X160335144Y-131247607D01*
X160388452Y-131408481D01*
X160388457Y-131408492D01*
X160458173Y-131521518D01*
X160476614Y-131588910D01*
X160455692Y-131655574D01*
X160402050Y-131700344D01*
X160332719Y-131709005D01*
X160269712Y-131678809D01*
X160264954Y-131674296D01*
X160160188Y-131569530D01*
X160154853Y-131566305D01*
X160014606Y-131481522D01*
X159852196Y-131430914D01*
X159852194Y-131430913D01*
X159852192Y-131430913D01*
X159802778Y-131426423D01*
X159781616Y-131424500D01*
X159268384Y-131424500D01*
X159249145Y-131426248D01*
X159197807Y-131430913D01*
X159035393Y-131481522D01*
X158889811Y-131569530D01*
X158889810Y-131569531D01*
X158787327Y-131672015D01*
X158726004Y-131705500D01*
X158656312Y-131700516D01*
X158611965Y-131672015D01*
X158509877Y-131569927D01*
X158364395Y-131481980D01*
X158364396Y-131481980D01*
X158202105Y-131431409D01*
X158202106Y-131431409D01*
X158131572Y-131425000D01*
X158125000Y-131425000D01*
X158125000Y-132276000D01*
X158105315Y-132343039D01*
X158052511Y-132388794D01*
X158001000Y-132400000D01*
X157875000Y-132400000D01*
X157875000Y-132526000D01*
X157855315Y-132593039D01*
X157802511Y-132638794D01*
X157751000Y-132650000D01*
X156975001Y-132650000D01*
X156975001Y-132731582D01*
X156981408Y-132802102D01*
X156981409Y-132802107D01*
X157031981Y-132964396D01*
X157119927Y-133109877D01*
X157240122Y-133230072D01*
X157385604Y-133318019D01*
X157385603Y-133318019D01*
X157484508Y-133348839D01*
X157542656Y-133387576D01*
X157570630Y-133451601D01*
X157559548Y-133520587D01*
X157516509Y-133570326D01*
X157446584Y-133617048D01*
X157446580Y-133617051D01*
X157342051Y-133721580D01*
X157342048Y-133721584D01*
X157259919Y-133844498D01*
X157259912Y-133844511D01*
X157203343Y-133981082D01*
X157203340Y-133981092D01*
X157174500Y-134126079D01*
X157174500Y-134126082D01*
X157174500Y-134273918D01*
X157174500Y-134273920D01*
X157174499Y-134273920D01*
X157203340Y-134418907D01*
X157203343Y-134418917D01*
X157259912Y-134555488D01*
X157259919Y-134555501D01*
X157303602Y-134620876D01*
X157324480Y-134687553D01*
X157324500Y-134689767D01*
X157324500Y-135074902D01*
X157304815Y-135141941D01*
X157288181Y-135162583D01*
X156521699Y-135929064D01*
X156460376Y-135962549D01*
X156458210Y-135963000D01*
X156381092Y-135978340D01*
X156381084Y-135978342D01*
X156244511Y-136034912D01*
X156244498Y-136034919D01*
X156121584Y-136117048D01*
X156121580Y-136117051D01*
X156017051Y-136221580D01*
X156017048Y-136221584D01*
X155934919Y-136344498D01*
X155934912Y-136344511D01*
X155878343Y-136481082D01*
X155878340Y-136481092D01*
X155849500Y-136626079D01*
X155849500Y-136626082D01*
X155849500Y-136773918D01*
X155849500Y-136773920D01*
X155849499Y-136773920D01*
X146700500Y-136773920D01*
X146700500Y-132068427D01*
X156975000Y-132068427D01*
X156975000Y-132150000D01*
X157625000Y-132150000D01*
X157625000Y-131425000D01*
X157624999Y-131424999D01*
X157618436Y-131425000D01*
X157618417Y-131425001D01*
X157547897Y-131431408D01*
X157547892Y-131431409D01*
X157385603Y-131481981D01*
X157240122Y-131569927D01*
X157119927Y-131690122D01*
X157031980Y-131835604D01*
X156981409Y-131997893D01*
X156975000Y-132068427D01*
X146700500Y-132068427D01*
X146700500Y-123247844D01*
X148000000Y-123247844D01*
X148006401Y-123307372D01*
X148006403Y-123307379D01*
X148056645Y-123442086D01*
X148056649Y-123442093D01*
X148142809Y-123557187D01*
X148142812Y-123557190D01*
X148257906Y-123643350D01*
X148257913Y-123643354D01*
X148392620Y-123693596D01*
X148392627Y-123693598D01*
X148452155Y-123699999D01*
X148452172Y-123700000D01*
X148575000Y-123700000D01*
X149075000Y-123700000D01*
X149197828Y-123700000D01*
X149197844Y-123699999D01*
X149257372Y-123693598D01*
X149257379Y-123693596D01*
X149392086Y-123643354D01*
X149392093Y-123643350D01*
X149507187Y-123557190D01*
X149507190Y-123557187D01*
X149593350Y-123442093D01*
X149593354Y-123442086D01*
X149643596Y-123307379D01*
X149643598Y-123307372D01*
X149649999Y-123247844D01*
X149650000Y-123247827D01*
X149650000Y-122925000D01*
X149075000Y-122925000D01*
X149075000Y-123700000D01*
X148575000Y-123700000D01*
X148575000Y-122925000D01*
X148000000Y-122925000D01*
X148000000Y-123247844D01*
X146700500Y-123247844D01*
X146700500Y-122102155D01*
X148000000Y-122102155D01*
X148000000Y-122425000D01*
X148575000Y-122425000D01*
X149075000Y-122425000D01*
X149650000Y-122425000D01*
X149650000Y-122102172D01*
X149649999Y-122102155D01*
X149643598Y-122042627D01*
X149643596Y-122042620D01*
X149593354Y-121907913D01*
X149593350Y-121907906D01*
X149507190Y-121792812D01*
X149507187Y-121792809D01*
X149392093Y-121706649D01*
X149392086Y-121706645D01*
X149257379Y-121656403D01*
X149257372Y-121656401D01*
X149197844Y-121650000D01*
X149075000Y-121650000D01*
X149075000Y-122425000D01*
X148575000Y-122425000D01*
X148575000Y-121650000D01*
X148452155Y-121650000D01*
X148392627Y-121656401D01*
X148392620Y-121656403D01*
X148257913Y-121706645D01*
X148257906Y-121706649D01*
X148142812Y-121792809D01*
X148142809Y-121792812D01*
X148056649Y-121907906D01*
X148056645Y-121907913D01*
X148006403Y-122042620D01*
X148006401Y-122042627D01*
X148000000Y-122102155D01*
X146700500Y-122102155D01*
X146700500Y-119097844D01*
X148000000Y-119097844D01*
X148006401Y-119157372D01*
X148006403Y-119157379D01*
X148056645Y-119292086D01*
X148056649Y-119292093D01*
X148142809Y-119407187D01*
X148142812Y-119407190D01*
X148257906Y-119493350D01*
X148257913Y-119493354D01*
X148392620Y-119543596D01*
X148392627Y-119543598D01*
X148452155Y-119549999D01*
X148452172Y-119550000D01*
X148575000Y-119550000D01*
X149075000Y-119550000D01*
X149197828Y-119550000D01*
X149197844Y-119549999D01*
X149257372Y-119543598D01*
X149257379Y-119543596D01*
X149392086Y-119493354D01*
X149392093Y-119493350D01*
X149507187Y-119407190D01*
X149507190Y-119407187D01*
X149593350Y-119292093D01*
X149593354Y-119292086D01*
X149643596Y-119157379D01*
X149643598Y-119157372D01*
X149649999Y-119097844D01*
X149650000Y-119097827D01*
X149650000Y-118775000D01*
X149075000Y-118775000D01*
X149075000Y-119550000D01*
X148575000Y-119550000D01*
X148575000Y-118775000D01*
X148000000Y-118775000D01*
X148000000Y-119097844D01*
X146700500Y-119097844D01*
X146700500Y-117952155D01*
X148000000Y-117952155D01*
X148000000Y-118275000D01*
X148575000Y-118275000D01*
X149075000Y-118275000D01*
X149650000Y-118275000D01*
X149650000Y-117952172D01*
X149649999Y-117952155D01*
X149643598Y-117892627D01*
X149643596Y-117892620D01*
X149593354Y-117757913D01*
X149593350Y-117757906D01*
X149507190Y-117642812D01*
X149507187Y-117642809D01*
X149392093Y-117556649D01*
X149392086Y-117556645D01*
X149257379Y-117506403D01*
X149257372Y-117506401D01*
X149197844Y-117500000D01*
X149075000Y-117500000D01*
X149075000Y-118275000D01*
X148575000Y-118275000D01*
X148575000Y-117500000D01*
X148452155Y-117500000D01*
X148392627Y-117506401D01*
X148392620Y-117506403D01*
X148257913Y-117556645D01*
X148257906Y-117556649D01*
X148142812Y-117642809D01*
X148142809Y-117642812D01*
X148056649Y-117757906D01*
X148056645Y-117757913D01*
X148006403Y-117892620D01*
X148006401Y-117892627D01*
X148000000Y-117952155D01*
X146700500Y-117952155D01*
X146700500Y-115041760D01*
X146720185Y-114974721D01*
X146772989Y-114928966D01*
X146837103Y-114918402D01*
X146901683Y-114924999D01*
X146949999Y-114924998D01*
X146950000Y-114924998D01*
X146950000Y-114099000D01*
X146969685Y-114031961D01*
X147022489Y-113986206D01*
X147074000Y-113975000D01*
X147326000Y-113975000D01*
X147393039Y-113994685D01*
X147438794Y-114047489D01*
X147450000Y-114099000D01*
X147450000Y-114924999D01*
X147498308Y-114924999D01*
X147498322Y-114924998D01*
X147597605Y-114914856D01*
X147724899Y-114872674D01*
X147794727Y-114870272D01*
X147854770Y-114906003D01*
X147870636Y-114927259D01*
X147932314Y-115031552D01*
X147932321Y-115031561D01*
X148048438Y-115147678D01*
X148048447Y-115147685D01*
X148189803Y-115231282D01*
X148189806Y-115231283D01*
X148347504Y-115277099D01*
X148347510Y-115277100D01*
X148384350Y-115279999D01*
X148384366Y-115280000D01*
X149025000Y-115280000D01*
X149525000Y-115280000D01*
X150165634Y-115280000D01*
X150165649Y-115279999D01*
X150202489Y-115277100D01*
X150202495Y-115277099D01*
X150360193Y-115231283D01*
X150360196Y-115231282D01*
X150501552Y-115147685D01*
X150501561Y-115147678D01*
X150617678Y-115031561D01*
X150617685Y-115031552D01*
X150701281Y-114890198D01*
X150747100Y-114732486D01*
X150747295Y-114730001D01*
X150747295Y-114730000D01*
X149525000Y-114730000D01*
X149525000Y-115280000D01*
X149025000Y-115280000D01*
X149025000Y-114604000D01*
X149044685Y-114536961D01*
X149097489Y-114491206D01*
X149149000Y-114480000D01*
X149275000Y-114480000D01*
X149275000Y-114354000D01*
X149294685Y-114286961D01*
X149347489Y-114241206D01*
X149399000Y-114230000D01*
X150747295Y-114230000D01*
X150747295Y-114229998D01*
X150747100Y-114227513D01*
X150701281Y-114069801D01*
X150617685Y-113928447D01*
X150612900Y-113922278D01*
X150615366Y-113920364D01*
X150588802Y-113871776D01*
X150593749Y-113802082D01*
X150614856Y-113769232D01*
X150613301Y-113768026D01*
X150618077Y-113761868D01*
X150618081Y-113761865D01*
X150701744Y-113620398D01*
X150747598Y-113462569D01*
X150750500Y-113425694D01*
X150750500Y-112994306D01*
X150747598Y-112957431D01*
X150717820Y-112854937D01*
X150701745Y-112799606D01*
X150701744Y-112799603D01*
X150701744Y-112799602D01*
X150618081Y-112658135D01*
X150618078Y-112658132D01*
X150613298Y-112651969D01*
X150615750Y-112650066D01*
X150589155Y-112601421D01*
X150594104Y-112531726D01*
X150614940Y-112499304D01*
X150613298Y-112498031D01*
X150618075Y-112491870D01*
X150618081Y-112491865D01*
X150701744Y-112350398D01*
X150747598Y-112192569D01*
X150750500Y-112155694D01*
X150750500Y-111724306D01*
X150747598Y-111687431D01*
X150743986Y-111675000D01*
X150701745Y-111529606D01*
X150701744Y-111529603D01*
X150701744Y-111529602D01*
X150618081Y-111388135D01*
X150618078Y-111388132D01*
X150613298Y-111381969D01*
X150615750Y-111380066D01*
X150589155Y-111331421D01*
X150594104Y-111261726D01*
X150614940Y-111229304D01*
X150613298Y-111228031D01*
X150618075Y-111221870D01*
X150618081Y-111221865D01*
X150701744Y-111080398D01*
X150747598Y-110922569D01*
X150750500Y-110885694D01*
X150750500Y-110454306D01*
X150747598Y-110417431D01*
X150701744Y-110259602D01*
X150618081Y-110118135D01*
X150618079Y-110118133D01*
X150618076Y-110118129D01*
X150501870Y-110001923D01*
X150501862Y-110001917D01*
X150382339Y-109931232D01*
X150334656Y-109880163D01*
X150322152Y-109811422D01*
X150348797Y-109746832D01*
X150406132Y-109706902D01*
X150445460Y-109700500D01*
X153055521Y-109700500D01*
X153122560Y-109720185D01*
G37*
G04 #@! TD.AperFunction*
G04 #@! TA.AperFunction,Conductor*
G36*
X162358159Y-139501000D02*
G01*
X162411611Y-139545996D01*
X162432251Y-139612747D01*
X162413526Y-139680061D01*
X162373052Y-139720246D01*
X162369619Y-139722349D01*
X162332715Y-139749160D01*
X162332715Y-139749161D01*
X162941415Y-140357861D01*
X162856306Y-140380667D01*
X162753694Y-140439910D01*
X162669910Y-140523694D01*
X162610667Y-140626306D01*
X162587861Y-140711414D01*
X162136269Y-140259822D01*
X162113466Y-140228437D01*
X162068077Y-140139354D01*
X161951456Y-139978839D01*
X161811161Y-139838544D01*
X161650646Y-139721923D01*
X161650645Y-139721922D01*
X161650639Y-139721918D01*
X161648245Y-139720451D01*
X161647525Y-139719656D01*
X161646704Y-139719059D01*
X161646829Y-139718886D01*
X161601369Y-139668640D01*
X161589945Y-139599711D01*
X161617601Y-139535547D01*
X161675556Y-139496522D01*
X161732429Y-139492250D01*
X161787048Y-139500900D01*
X161910791Y-139520500D01*
X161910796Y-139520500D01*
X162109209Y-139520500D01*
X162288866Y-139492045D01*
X162358159Y-139501000D01*
G37*
G04 #@! TD.AperFunction*
G04 #@! TA.AperFunction,Conductor*
G36*
X170368039Y-130119685D02*
G01*
X170413794Y-130172489D01*
X170425000Y-130224000D01*
X170425000Y-131350000D01*
X171124998Y-131350000D01*
X171128179Y-131346819D01*
X171189501Y-131313333D01*
X171215852Y-131310499D01*
X171692873Y-131310499D01*
X171759910Y-131330184D01*
X171805665Y-131382988D01*
X171815609Y-131452146D01*
X171786584Y-131515702D01*
X171727806Y-131553476D01*
X171712270Y-131556972D01*
X171580589Y-131577829D01*
X171408363Y-131633787D01*
X171408360Y-131633788D01*
X171247002Y-131716006D01*
X171096557Y-131825310D01*
X171095392Y-131823706D01*
X171039273Y-131848859D01*
X171022492Y-131850000D01*
X170425000Y-131850000D01*
X170425000Y-134074999D01*
X170448308Y-134074999D01*
X170448322Y-134074998D01*
X170547607Y-134064855D01*
X170708481Y-134011547D01*
X170708492Y-134011542D01*
X170852728Y-133922575D01*
X170852732Y-133922572D01*
X170972572Y-133802732D01*
X170972575Y-133802728D01*
X171037856Y-133696893D01*
X171089804Y-133650168D01*
X171158766Y-133638947D01*
X171216278Y-133661671D01*
X171247006Y-133683996D01*
X171320768Y-133721580D01*
X171408360Y-133766211D01*
X171408363Y-133766212D01*
X171580590Y-133822171D01*
X171607456Y-133826426D01*
X171706992Y-133842190D01*
X171717225Y-133846196D01*
X171724649Y-133846329D01*
X171756487Y-133861563D01*
X171770011Y-133870600D01*
X171814814Y-133924213D01*
X171823520Y-133993538D01*
X171793363Y-134056565D01*
X171733919Y-134093283D01*
X171720515Y-134096173D01*
X171580706Y-134118316D01*
X171408555Y-134174251D01*
X171408547Y-134174254D01*
X171247269Y-134256432D01*
X171231466Y-134267912D01*
X171231466Y-134267913D01*
X171853554Y-134890000D01*
X171803922Y-134890000D01*
X171714905Y-134913852D01*
X171635095Y-134959930D01*
X171569930Y-135025095D01*
X171523852Y-135104905D01*
X171500000Y-135193922D01*
X171500000Y-135243553D01*
X170877913Y-134621466D01*
X170877912Y-134621466D01*
X170866432Y-134637269D01*
X170784254Y-134798547D01*
X170784251Y-134798555D01*
X170728317Y-134970706D01*
X170700000Y-135149493D01*
X170700000Y-135330506D01*
X170728317Y-135509293D01*
X170784251Y-135681444D01*
X170784252Y-135681447D01*
X170866434Y-135842734D01*
X170947571Y-135954411D01*
X170952310Y-135967695D01*
X170961282Y-135978579D01*
X170963818Y-135999948D01*
X170971051Y-136020217D01*
X170967856Y-136033955D01*
X170969519Y-136047961D01*
X170960099Y-136067310D01*
X170955225Y-136088271D01*
X170945110Y-136098100D01*
X170938937Y-136110782D01*
X170920551Y-136121967D01*
X170905119Y-136136966D01*
X170890114Y-136140486D01*
X170879247Y-136147098D01*
X170853009Y-136149191D01*
X170844199Y-136151258D01*
X170839394Y-136151139D01*
X170823345Y-136149500D01*
X170772850Y-136149500D01*
X170771308Y-136149462D01*
X170739440Y-136139245D01*
X170707323Y-136129815D01*
X170705539Y-136128377D01*
X170704773Y-136128132D01*
X170703860Y-136127024D01*
X170686681Y-136113181D01*
X169561819Y-134988319D01*
X169528334Y-134926996D01*
X169525500Y-134900638D01*
X169525500Y-134144822D01*
X169545185Y-134077783D01*
X169597989Y-134032028D01*
X169667147Y-134022084D01*
X169688505Y-134027116D01*
X169802394Y-134064856D01*
X169901683Y-134074999D01*
X169925000Y-134074998D01*
X169925000Y-130224000D01*
X169944685Y-130156961D01*
X169997489Y-130111206D01*
X170049000Y-130100000D01*
X170301000Y-130100000D01*
X170368039Y-130119685D01*
G37*
G04 #@! TD.AperFunction*
G04 #@! TA.AperFunction,Conductor*
G36*
X173768539Y-128719685D02*
G01*
X173814294Y-128772489D01*
X173825500Y-128824000D01*
X173825500Y-132180388D01*
X173805815Y-132247427D01*
X173753011Y-132293182D01*
X173683853Y-132303126D01*
X173636403Y-132285927D01*
X173558699Y-132237998D01*
X173558694Y-132237996D01*
X173397709Y-132184651D01*
X173298352Y-132174500D01*
X173298345Y-132174500D01*
X172949469Y-132174500D01*
X172882430Y-132154815D01*
X172838985Y-132106797D01*
X172833994Y-132097002D01*
X172727558Y-131950505D01*
X172727554Y-131950500D01*
X172599499Y-131822445D01*
X172599494Y-131822441D01*
X172452997Y-131716006D01*
X172452996Y-131716005D01*
X172452994Y-131716004D01*
X172385793Y-131681763D01*
X172291639Y-131633788D01*
X172291636Y-131633787D01*
X172119410Y-131577829D01*
X171987728Y-131556972D01*
X171924594Y-131527042D01*
X171887663Y-131467731D01*
X171888661Y-131397868D01*
X171927271Y-131339636D01*
X171991235Y-131311522D01*
X172007120Y-131310499D01*
X172547872Y-131310499D01*
X172607483Y-131304091D01*
X172742331Y-131253796D01*
X172857546Y-131167546D01*
X172943796Y-131052331D01*
X172994091Y-130917483D01*
X173000500Y-130857873D01*
X173000499Y-130111590D01*
X173002882Y-130087399D01*
X173025500Y-129973694D01*
X173025500Y-129744822D01*
X173045185Y-129677783D01*
X173097989Y-129632028D01*
X173167147Y-129622084D01*
X173188505Y-129627116D01*
X173302394Y-129664856D01*
X173401683Y-129674999D01*
X173425000Y-129674998D01*
X173425000Y-128824000D01*
X173427550Y-128815314D01*
X173426262Y-128806353D01*
X173437240Y-128782312D01*
X173444685Y-128756961D01*
X173451525Y-128751033D01*
X173455287Y-128742797D01*
X173477521Y-128728507D01*
X173497489Y-128711206D01*
X173508003Y-128708918D01*
X173514065Y-128705023D01*
X173549000Y-128700000D01*
X173701500Y-128700000D01*
X173768539Y-128719685D01*
G37*
G04 #@! TD.AperFunction*
G04 #@! TA.AperFunction,Conductor*
G36*
X179713985Y-116406184D02*
G01*
X179769918Y-116448056D01*
X179794335Y-116513520D01*
X179794651Y-116522448D01*
X179787434Y-127424009D01*
X179767705Y-127491036D01*
X179714871Y-127536755D01*
X179645706Y-127546653D01*
X179582169Y-127517586D01*
X179548873Y-127471379D01*
X179495777Y-127343192D01*
X179419112Y-127228454D01*
X179419111Y-127228453D01*
X178398060Y-126207403D01*
X178364575Y-126146080D01*
X178369559Y-126076388D01*
X178411431Y-126020455D01*
X178447419Y-126001792D01*
X178593799Y-125954231D01*
X178797228Y-125850579D01*
X178981937Y-125716379D01*
X179143379Y-125554937D01*
X179277579Y-125370228D01*
X179381231Y-125166799D01*
X179451784Y-124949660D01*
X179463230Y-124877393D01*
X179487500Y-124724162D01*
X179487500Y-124495837D01*
X179451784Y-124270339D01*
X179394776Y-124094889D01*
X179381231Y-124053201D01*
X179381229Y-124053198D01*
X179381229Y-124053196D01*
X179326289Y-123945371D01*
X179277579Y-123849772D01*
X179143379Y-123665063D01*
X178981937Y-123503621D01*
X178974397Y-123498143D01*
X178894382Y-123440007D01*
X178851716Y-123384677D01*
X178845738Y-123315064D01*
X178869234Y-123270534D01*
X178870310Y-123256862D01*
X178207234Y-122593787D01*
X178249292Y-122582518D01*
X178374708Y-122510110D01*
X178477110Y-122407708D01*
X178549518Y-122282292D01*
X178560787Y-122240234D01*
X179223862Y-122903310D01*
X179223862Y-122903309D01*
X179277150Y-122829966D01*
X179380769Y-122626604D01*
X179451295Y-122409544D01*
X179487000Y-122184116D01*
X179487000Y-121955883D01*
X179451295Y-121730455D01*
X179380769Y-121513395D01*
X179277148Y-121310030D01*
X179223863Y-121236689D01*
X179223862Y-121236688D01*
X178560787Y-121899764D01*
X178549518Y-121857708D01*
X178477110Y-121732292D01*
X178374708Y-121629890D01*
X178249292Y-121557482D01*
X178207233Y-121546212D01*
X178870309Y-120883137D01*
X178869105Y-120867845D01*
X178851717Y-120845295D01*
X178845739Y-120775681D01*
X178878346Y-120713887D01*
X178894380Y-120699992D01*
X178981937Y-120636379D01*
X179143379Y-120474937D01*
X179277579Y-120290228D01*
X179381231Y-120086799D01*
X179451784Y-119869660D01*
X179461802Y-119806411D01*
X179487500Y-119644162D01*
X179487500Y-119415837D01*
X179451784Y-119190339D01*
X179398486Y-119026306D01*
X179381231Y-118973201D01*
X179381229Y-118973198D01*
X179381229Y-118973196D01*
X179308012Y-118829500D01*
X179277579Y-118769772D01*
X179143379Y-118585063D01*
X178981937Y-118423621D01*
X178894807Y-118360317D01*
X178852143Y-118304988D01*
X178846164Y-118235374D01*
X178878770Y-118173579D01*
X178894807Y-118159683D01*
X178981937Y-118096379D01*
X179143379Y-117934937D01*
X179277579Y-117750228D01*
X179381231Y-117546799D01*
X179451784Y-117329660D01*
X179467912Y-117227834D01*
X179487500Y-117104162D01*
X179487500Y-116875837D01*
X179460467Y-116705161D01*
X179451784Y-116650340D01*
X179451779Y-116650326D01*
X179451646Y-116649768D01*
X179451657Y-116649539D01*
X179451022Y-116645528D01*
X179451864Y-116645394D01*
X179455126Y-116579985D01*
X179484532Y-116533123D01*
X179582972Y-116434683D01*
X179644293Y-116401200D01*
X179713985Y-116406184D01*
G37*
G04 #@! TD.AperFunction*
G04 #@! TA.AperFunction,Conductor*
G36*
X168320864Y-122985835D02*
G01*
X168365211Y-123014336D01*
X171354496Y-126003621D01*
X171387981Y-126064944D01*
X171382997Y-126134636D01*
X171341125Y-126190569D01*
X171275661Y-126214986D01*
X171207388Y-126200134D01*
X171201719Y-126196841D01*
X171069340Y-126115189D01*
X171069335Y-126115187D01*
X171069334Y-126115186D01*
X170902797Y-126060001D01*
X170902795Y-126060000D01*
X170800010Y-126049500D01*
X170099998Y-126049500D01*
X170099980Y-126049501D01*
X169997203Y-126060000D01*
X169997200Y-126060001D01*
X169830668Y-126115185D01*
X169830663Y-126115187D01*
X169681342Y-126207289D01*
X169557289Y-126331342D01*
X169505539Y-126415243D01*
X169453591Y-126461967D01*
X169384628Y-126473190D01*
X169320546Y-126445346D01*
X169294461Y-126415243D01*
X169270879Y-126377011D01*
X169242712Y-126331344D01*
X169118656Y-126207288D01*
X168969334Y-126115186D01*
X168802797Y-126060001D01*
X168802795Y-126060000D01*
X168700010Y-126049500D01*
X167999998Y-126049500D01*
X167999980Y-126049501D01*
X167897203Y-126060000D01*
X167897200Y-126060001D01*
X167730668Y-126115185D01*
X167730663Y-126115187D01*
X167655502Y-126161547D01*
X167581344Y-126207288D01*
X167581342Y-126207289D01*
X167581340Y-126207291D01*
X167570000Y-126218631D01*
X167569028Y-126219161D01*
X167568481Y-126220124D01*
X167538423Y-126235871D01*
X167508675Y-126252114D01*
X167507571Y-126252035D01*
X167506591Y-126252549D01*
X167472792Y-126249546D01*
X167438984Y-126247127D01*
X167437736Y-126246431D01*
X167436995Y-126246366D01*
X167433436Y-126244035D01*
X167406314Y-126228921D01*
X167400154Y-126224142D01*
X167353044Y-126177032D01*
X167286600Y-126136048D01*
X167281348Y-126131974D01*
X167264629Y-126108820D01*
X167245533Y-126087590D01*
X167244437Y-126080858D01*
X167240445Y-126075329D01*
X167238897Y-126046812D01*
X167234312Y-126018628D01*
X167237029Y-126012373D01*
X167236660Y-126005561D01*
X167250777Y-125980732D01*
X167262155Y-125954546D01*
X167267823Y-125950753D01*
X167271195Y-125944823D01*
X167296494Y-125931568D01*
X167320224Y-125915690D01*
X167329520Y-125914265D01*
X167333085Y-125912398D01*
X167338542Y-125912882D01*
X167357355Y-125910000D01*
X167397317Y-125910000D01*
X167599417Y-125877990D01*
X167794031Y-125814755D01*
X167976349Y-125721859D01*
X168020921Y-125689474D01*
X167341447Y-125010000D01*
X167347661Y-125010000D01*
X167449394Y-124982741D01*
X167540606Y-124930080D01*
X167615080Y-124855606D01*
X167667741Y-124764394D01*
X167695000Y-124662661D01*
X167695000Y-124656448D01*
X168374474Y-125335922D01*
X168374474Y-125335921D01*
X168406859Y-125291349D01*
X168499755Y-125109031D01*
X168562990Y-124914417D01*
X168595000Y-124712317D01*
X168595000Y-124507682D01*
X168562990Y-124305582D01*
X168499755Y-124110968D01*
X168406859Y-123928650D01*
X168374474Y-123884077D01*
X168374474Y-123884076D01*
X167695000Y-124563551D01*
X167695000Y-124557339D01*
X167667741Y-124455606D01*
X167615080Y-124364394D01*
X167540606Y-124289920D01*
X167449394Y-124237259D01*
X167347661Y-124210000D01*
X167341446Y-124210000D01*
X168020922Y-123530524D01*
X168020921Y-123530523D01*
X167976359Y-123498147D01*
X167976350Y-123498141D01*
X167883369Y-123450765D01*
X167832573Y-123402790D01*
X167815778Y-123334969D01*
X167838315Y-123268835D01*
X167883370Y-123229795D01*
X167976610Y-123182287D01*
X168026144Y-123146298D01*
X168142213Y-123061971D01*
X168142215Y-123061968D01*
X168142219Y-123061966D01*
X168189849Y-123014336D01*
X168251172Y-122980851D01*
X168320864Y-122985835D01*
G37*
G04 #@! TD.AperFunction*
G04 #@! TA.AperFunction,Conductor*
G36*
X176757415Y-120250185D02*
G01*
X176793086Y-120286628D01*
X176793557Y-120286286D01*
X176795876Y-120289478D01*
X176796103Y-120289710D01*
X176796417Y-120290222D01*
X176796420Y-120290226D01*
X176796421Y-120290228D01*
X176930621Y-120474937D01*
X177092063Y-120636379D01*
X177179616Y-120699990D01*
X177222280Y-120755319D01*
X177228259Y-120824933D01*
X177204766Y-120869456D01*
X177203689Y-120883136D01*
X177866766Y-121546212D01*
X177824708Y-121557482D01*
X177699292Y-121629890D01*
X177596890Y-121732292D01*
X177524482Y-121857708D01*
X177513212Y-121899766D01*
X176850136Y-121236689D01*
X176850135Y-121236689D01*
X176796849Y-121310033D01*
X176796848Y-121310035D01*
X176693230Y-121513395D01*
X176622704Y-121730455D01*
X176595884Y-121899790D01*
X176565955Y-121962925D01*
X176506643Y-121999856D01*
X176436781Y-121998858D01*
X176385730Y-121968073D01*
X176204698Y-121787041D01*
X176174448Y-121737678D01*
X176164365Y-121706645D01*
X176120220Y-121570781D01*
X176027287Y-121388390D01*
X175980711Y-121324283D01*
X175906971Y-121222786D01*
X175762213Y-121078028D01*
X175596614Y-120957715D01*
X175571235Y-120944784D01*
X175503917Y-120910483D01*
X175453123Y-120862511D01*
X175436328Y-120794690D01*
X175458865Y-120728555D01*
X175503917Y-120689516D01*
X175596610Y-120642287D01*
X175692246Y-120572804D01*
X175762213Y-120521971D01*
X175762215Y-120521968D01*
X175762219Y-120521966D01*
X175906966Y-120377219D01*
X175976425Y-120281615D01*
X176031755Y-120238949D01*
X176076744Y-120230500D01*
X176690376Y-120230500D01*
X176757415Y-120250185D01*
G37*
G04 #@! TD.AperFunction*
G04 #@! TA.AperFunction,Conductor*
G36*
X157443334Y-117199838D02*
G01*
X157487681Y-117228339D01*
X157589811Y-117330469D01*
X157589813Y-117330470D01*
X157589815Y-117330472D01*
X157735394Y-117418478D01*
X157897804Y-117469086D01*
X157968384Y-117475500D01*
X157968387Y-117475500D01*
X158481613Y-117475500D01*
X158481616Y-117475500D01*
X158552196Y-117469086D01*
X158714606Y-117418478D01*
X158860185Y-117330472D01*
X158929339Y-117261317D01*
X158990660Y-117227834D01*
X159017019Y-117225000D01*
X159576000Y-117225000D01*
X159643039Y-117244685D01*
X159688794Y-117297489D01*
X159700000Y-117349000D01*
X159700000Y-117475000D01*
X159826000Y-117475000D01*
X159893039Y-117494685D01*
X159938794Y-117547489D01*
X159950000Y-117599000D01*
X159950000Y-117904410D01*
X159972166Y-117945004D01*
X159975000Y-117971362D01*
X159975000Y-118876000D01*
X159955315Y-118943039D01*
X159902511Y-118988794D01*
X159851000Y-119000000D01*
X159599000Y-119000000D01*
X159531961Y-118980315D01*
X159486206Y-118927511D01*
X159475000Y-118876000D01*
X159475000Y-118545589D01*
X159452834Y-118504996D01*
X159450000Y-118478638D01*
X159450000Y-117725000D01*
X158725001Y-117725000D01*
X158725001Y-117748322D01*
X158735144Y-117847607D01*
X158769103Y-117950088D01*
X158771505Y-118019916D01*
X158735773Y-118079958D01*
X158673253Y-118111151D01*
X158603793Y-118103590D01*
X158587248Y-118095209D01*
X158564608Y-118081523D01*
X158564607Y-118081522D01*
X158564606Y-118081522D01*
X158402196Y-118030914D01*
X158402194Y-118030913D01*
X158402192Y-118030913D01*
X158352778Y-118026423D01*
X158331616Y-118024500D01*
X157818384Y-118024500D01*
X157799145Y-118026248D01*
X157747807Y-118030913D01*
X157585393Y-118081522D01*
X157439811Y-118169530D01*
X157319530Y-118289811D01*
X157231522Y-118435393D01*
X157180913Y-118597807D01*
X157174500Y-118668386D01*
X157174500Y-119331613D01*
X157180913Y-119402192D01*
X157180913Y-119402194D01*
X157180914Y-119402196D01*
X157231522Y-119564606D01*
X157298692Y-119675719D01*
X157309194Y-119693090D01*
X157327030Y-119760645D01*
X157308616Y-119822337D01*
X157237452Y-119937710D01*
X157237450Y-119937715D01*
X157234138Y-119947710D01*
X157184564Y-120097315D01*
X157184564Y-120097316D01*
X157184563Y-120097316D01*
X157174500Y-120195818D01*
X157174500Y-120804181D01*
X157184563Y-120902683D01*
X157237450Y-121062284D01*
X157237453Y-121062291D01*
X157259197Y-121097542D01*
X157277638Y-121164935D01*
X157256716Y-121231598D01*
X157203074Y-121276368D01*
X157133744Y-121285030D01*
X157070736Y-121254834D01*
X157065978Y-121250321D01*
X156232879Y-120417222D01*
X156199394Y-120355899D01*
X156204378Y-120286207D01*
X156219491Y-120259384D01*
X156219177Y-120259191D01*
X156311998Y-120108705D01*
X156311997Y-120108705D01*
X156312003Y-120108697D01*
X156365349Y-119947708D01*
X156375500Y-119848345D01*
X156375499Y-119301656D01*
X156374546Y-119292331D01*
X156365349Y-119202292D01*
X156365348Y-119202289D01*
X156365138Y-119201656D01*
X156312003Y-119041303D01*
X156311999Y-119041297D01*
X156311998Y-119041294D01*
X156222970Y-118896959D01*
X156222967Y-118896955D01*
X156213339Y-118887327D01*
X156179854Y-118826004D01*
X156184838Y-118756312D01*
X156213345Y-118711959D01*
X156222573Y-118702731D01*
X156311542Y-118558492D01*
X156311547Y-118558481D01*
X156364855Y-118397606D01*
X156374999Y-118298322D01*
X156375000Y-118298309D01*
X156375000Y-118275000D01*
X155524000Y-118275000D01*
X155456961Y-118255315D01*
X155411206Y-118202511D01*
X155400000Y-118151000D01*
X155400000Y-117899000D01*
X155419685Y-117831961D01*
X155472489Y-117786206D01*
X155524000Y-117775000D01*
X156374999Y-117775000D01*
X156374999Y-117751692D01*
X156374998Y-117751677D01*
X156364855Y-117652393D01*
X156360253Y-117638502D01*
X156357853Y-117568673D01*
X156393586Y-117508632D01*
X156456107Y-117477441D01*
X156477960Y-117475500D01*
X156831613Y-117475500D01*
X156831616Y-117475500D01*
X156902196Y-117469086D01*
X157064606Y-117418478D01*
X157210185Y-117330472D01*
X157243168Y-117297489D01*
X157312319Y-117228339D01*
X157373642Y-117194854D01*
X157443334Y-117199838D01*
G37*
G04 #@! TD.AperFunction*
G04 #@! TA.AperFunction,Conductor*
G36*
X164127795Y-114833939D02*
G01*
X164139982Y-114838987D01*
X164180210Y-114865867D01*
X164552824Y-115238481D01*
X164586309Y-115299804D01*
X164581325Y-115369496D01*
X164539453Y-115425429D01*
X164473989Y-115449846D01*
X164440952Y-115447779D01*
X164323921Y-115424500D01*
X164323918Y-115424500D01*
X164176082Y-115424500D01*
X164176080Y-115424500D01*
X164031092Y-115453340D01*
X164031082Y-115453343D01*
X163894511Y-115509912D01*
X163894498Y-115509919D01*
X163771584Y-115592048D01*
X163771580Y-115592051D01*
X163667051Y-115696580D01*
X163667048Y-115696584D01*
X163584919Y-115819498D01*
X163584912Y-115819511D01*
X163528343Y-115956082D01*
X163528340Y-115956092D01*
X163499500Y-116101079D01*
X163499500Y-116248922D01*
X163509122Y-116297294D01*
X163502895Y-116366885D01*
X163460032Y-116422063D01*
X163394142Y-116445307D01*
X163326145Y-116429239D01*
X163299824Y-116409166D01*
X163046545Y-116155887D01*
X162984088Y-116114155D01*
X162931811Y-116079225D01*
X162849337Y-116045063D01*
X162804326Y-116026419D01*
X162803125Y-116026180D01*
X162779881Y-116019128D01*
X162681413Y-115978342D01*
X162681406Y-115978340D01*
X162536420Y-115949500D01*
X162536418Y-115949500D01*
X162388582Y-115949500D01*
X162388580Y-115949500D01*
X162243592Y-115978340D01*
X162243582Y-115978343D01*
X162107011Y-116034912D01*
X162106998Y-116034919D01*
X161984084Y-116117048D01*
X161891223Y-116209909D01*
X161829899Y-116243393D01*
X161764538Y-116239933D01*
X161758698Y-116237998D01*
X161758697Y-116237997D01*
X161664092Y-116206648D01*
X161597709Y-116184651D01*
X161498352Y-116174500D01*
X161498345Y-116174500D01*
X160991519Y-116174500D01*
X160924480Y-116154815D01*
X160903838Y-116138181D01*
X160711818Y-115946161D01*
X160678333Y-115884838D01*
X160675499Y-115858480D01*
X160675499Y-115651662D01*
X160675498Y-115651644D01*
X160665349Y-115552292D01*
X160665348Y-115552289D01*
X160651306Y-115509912D01*
X160612003Y-115391303D01*
X160611999Y-115391297D01*
X160611998Y-115391294D01*
X160522970Y-115246959D01*
X160522967Y-115246955D01*
X160403044Y-115127032D01*
X160403040Y-115127029D01*
X160284704Y-115054038D01*
X160237979Y-115002090D01*
X160226758Y-114933128D01*
X160254601Y-114869046D01*
X160312670Y-114830190D01*
X160349801Y-114824500D01*
X164080342Y-114824500D01*
X164127795Y-114833939D01*
G37*
G04 #@! TD.AperFunction*
G04 #@! TA.AperFunction,Conductor*
G36*
X175776520Y-110644185D02*
G01*
X175797162Y-110660819D01*
X176589464Y-111453121D01*
X176622949Y-111514444D01*
X176622408Y-111565437D01*
X176622978Y-111565528D01*
X176622366Y-111569388D01*
X176622363Y-111569725D01*
X176622216Y-111570335D01*
X176586500Y-111795837D01*
X176586500Y-112024162D01*
X176622215Y-112249660D01*
X176692770Y-112466803D01*
X176787118Y-112651969D01*
X176796421Y-112670228D01*
X176930621Y-112854937D01*
X177092063Y-113016379D01*
X177179616Y-113079990D01*
X177222280Y-113135319D01*
X177228259Y-113204933D01*
X177204766Y-113249456D01*
X177203689Y-113263136D01*
X177866765Y-113926212D01*
X177824708Y-113937482D01*
X177699292Y-114009890D01*
X177596890Y-114112292D01*
X177524482Y-114237708D01*
X177513212Y-114279765D01*
X176850136Y-113616689D01*
X176850135Y-113616689D01*
X176796849Y-113690033D01*
X176796848Y-113690035D01*
X176693230Y-113893395D01*
X176622704Y-114110455D01*
X176587000Y-114335883D01*
X176587000Y-114564116D01*
X176622704Y-114789544D01*
X176693230Y-115006604D01*
X176796851Y-115209969D01*
X176850135Y-115283309D01*
X176850137Y-115283309D01*
X177513212Y-114620234D01*
X177524482Y-114662292D01*
X177596890Y-114787708D01*
X177699292Y-114890110D01*
X177824708Y-114962518D01*
X177866764Y-114973787D01*
X177203688Y-115636862D01*
X177204892Y-115652152D01*
X177222281Y-115674702D01*
X177228260Y-115744315D01*
X177195655Y-115806110D01*
X177179617Y-115820008D01*
X177092063Y-115883620D01*
X176930622Y-116045061D01*
X176796417Y-116229777D01*
X176796103Y-116230290D01*
X176795932Y-116230443D01*
X176793557Y-116233714D01*
X176792870Y-116233214D01*
X176744292Y-116277165D01*
X176690376Y-116289500D01*
X176076744Y-116289500D01*
X176009705Y-116269815D01*
X175976425Y-116238384D01*
X175970544Y-116230290D01*
X175955737Y-116209909D01*
X175906969Y-116142784D01*
X175762213Y-115998028D01*
X175596613Y-115877715D01*
X175596612Y-115877714D01*
X175596610Y-115877713D01*
X175536898Y-115847288D01*
X175414223Y-115784781D01*
X175219534Y-115721522D01*
X175044995Y-115693878D01*
X175017352Y-115689500D01*
X174812648Y-115689500D01*
X174767922Y-115696584D01*
X174610464Y-115721523D01*
X174610457Y-115721524D01*
X174562447Y-115737124D01*
X174492606Y-115739119D01*
X174432774Y-115703038D01*
X174402513Y-115643384D01*
X174399362Y-115627543D01*
X174399362Y-115627539D01*
X174388954Y-115575216D01*
X174387580Y-115568308D01*
X174334775Y-115440825D01*
X174258114Y-115326093D01*
X174258112Y-115326090D01*
X173350714Y-114418692D01*
X171472454Y-112540433D01*
X171438969Y-112479110D01*
X171443953Y-112409418D01*
X171485825Y-112353485D01*
X171503841Y-112342267D01*
X171510352Y-112338948D01*
X171527816Y-112330051D01*
X171614138Y-112267335D01*
X171699786Y-112205109D01*
X171699788Y-112205106D01*
X171699792Y-112205104D01*
X171850104Y-112054792D01*
X171850106Y-112054788D01*
X171850109Y-112054786D01*
X171975048Y-111882820D01*
X171975047Y-111882820D01*
X171975051Y-111882816D01*
X172071557Y-111693412D01*
X172137246Y-111491243D01*
X172170500Y-111281287D01*
X172170500Y-111068713D01*
X172137246Y-110858757D01*
X172113870Y-110786816D01*
X172111876Y-110716977D01*
X172147956Y-110657144D01*
X172210657Y-110626316D01*
X172231802Y-110624500D01*
X175709481Y-110624500D01*
X175776520Y-110644185D01*
G37*
G04 #@! TD.AperFunction*
G04 #@! TA.AperFunction,Conductor*
G36*
X186355270Y-147601717D02*
G01*
X186355270Y-147601716D01*
X186394622Y-147547555D01*
X186399232Y-147538507D01*
X186447205Y-147487709D01*
X186515025Y-147470912D01*
X186581161Y-147493447D01*
X186620204Y-147538504D01*
X186624949Y-147547817D01*
X186749890Y-147719786D01*
X186900213Y-147870109D01*
X187072179Y-147995048D01*
X187072181Y-147995049D01*
X187072184Y-147995051D01*
X187261588Y-148091557D01*
X187463757Y-148157246D01*
X187673713Y-148190500D01*
X187673714Y-148190500D01*
X187886286Y-148190500D01*
X187886287Y-148190500D01*
X188096243Y-148157246D01*
X188298412Y-148091557D01*
X188487816Y-147995051D01*
X188659792Y-147870104D01*
X188773329Y-147756566D01*
X188834648Y-147723084D01*
X188904340Y-147728068D01*
X188960274Y-147769939D01*
X188977189Y-147800917D01*
X189026202Y-147932328D01*
X189026206Y-147932335D01*
X189112452Y-148047544D01*
X189112455Y-148047547D01*
X189227664Y-148133793D01*
X189227671Y-148133797D01*
X189362517Y-148184091D01*
X189362516Y-148184091D01*
X189369444Y-148184835D01*
X189422127Y-148190500D01*
X191217872Y-148190499D01*
X191277483Y-148184091D01*
X191412331Y-148133796D01*
X191486189Y-148078505D01*
X191551652Y-148054088D01*
X191619925Y-148068939D01*
X191669331Y-148118344D01*
X191684500Y-148177772D01*
X191684500Y-150371324D01*
X191675855Y-150400764D01*
X191669332Y-150430751D01*
X191665577Y-150435766D01*
X191664815Y-150438363D01*
X191648181Y-150459005D01*
X191514005Y-150593181D01*
X191452682Y-150626666D01*
X191426324Y-150629500D01*
X181543676Y-150629500D01*
X181476637Y-150609815D01*
X181455995Y-150593181D01*
X181321819Y-150459005D01*
X181288334Y-150397682D01*
X181285500Y-150371324D01*
X181285500Y-147555116D01*
X181305185Y-147488077D01*
X181357989Y-147442322D01*
X181427147Y-147432378D01*
X181490703Y-147461403D01*
X181519985Y-147498821D01*
X181544951Y-147547820D01*
X181669890Y-147719786D01*
X181820213Y-147870109D01*
X181992179Y-147995048D01*
X181992181Y-147995049D01*
X181992184Y-147995051D01*
X182181588Y-148091557D01*
X182383757Y-148157246D01*
X182593713Y-148190500D01*
X182593714Y-148190500D01*
X182806286Y-148190500D01*
X182806287Y-148190500D01*
X183016243Y-148157246D01*
X183218412Y-148091557D01*
X183407816Y-147995051D01*
X183494138Y-147932335D01*
X183579786Y-147870109D01*
X183579788Y-147870106D01*
X183579792Y-147870104D01*
X183730104Y-147719792D01*
X183730106Y-147719788D01*
X183730109Y-147719786D01*
X183815890Y-147601717D01*
X183855051Y-147547816D01*
X183859793Y-147538508D01*
X183907763Y-147487711D01*
X183975583Y-147470911D01*
X184041719Y-147493445D01*
X184080763Y-147538500D01*
X184085373Y-147547547D01*
X184124728Y-147601716D01*
X184757037Y-146969408D01*
X184774075Y-147032993D01*
X184839901Y-147147007D01*
X184932993Y-147240099D01*
X185047007Y-147305925D01*
X185110590Y-147322962D01*
X184478282Y-147955269D01*
X184478282Y-147955270D01*
X184532449Y-147994624D01*
X184721782Y-148091095D01*
X184923870Y-148156757D01*
X185133754Y-148190000D01*
X185346246Y-148190000D01*
X185556127Y-148156757D01*
X185556130Y-148156757D01*
X185758217Y-148091095D01*
X185947554Y-147994622D01*
X186001716Y-147955270D01*
X186001717Y-147955270D01*
X185369408Y-147322962D01*
X185432993Y-147305925D01*
X185547007Y-147240099D01*
X185640099Y-147147007D01*
X185705925Y-147032993D01*
X185722962Y-146969408D01*
X186355270Y-147601717D01*
G37*
G04 #@! TD.AperFunction*
G04 #@! TA.AperFunction,Conductor*
G36*
X186087577Y-145103959D02*
G01*
X186236446Y-145147210D01*
X186236452Y-145147211D01*
X186271881Y-145149999D01*
X186271894Y-145150000D01*
X186635500Y-145150000D01*
X186702539Y-145169685D01*
X186748294Y-145222489D01*
X186759500Y-145274000D01*
X186759500Y-145906698D01*
X186753749Y-145926280D01*
X186752880Y-145946672D01*
X186741076Y-145969441D01*
X186739815Y-145973737D01*
X186736863Y-145978123D01*
X186736313Y-145978903D01*
X186624949Y-146132184D01*
X186616185Y-146149383D01*
X186611082Y-146156626D01*
X186590381Y-146173072D01*
X186572227Y-146192293D01*
X186563452Y-146194465D01*
X186556376Y-146200088D01*
X186530070Y-146202731D01*
X186504405Y-146209087D01*
X186495849Y-146206171D01*
X186486856Y-146207075D01*
X186463296Y-146195076D01*
X186438271Y-146186548D01*
X186431733Y-146179002D01*
X186424596Y-146175368D01*
X186416351Y-146161250D01*
X186399234Y-146141495D01*
X186394626Y-146132452D01*
X186355270Y-146078282D01*
X186355269Y-146078282D01*
X185722962Y-146710590D01*
X185705925Y-146647007D01*
X185640099Y-146532993D01*
X185547007Y-146439901D01*
X185432993Y-146374075D01*
X185369408Y-146357037D01*
X186001716Y-145724728D01*
X185947550Y-145685375D01*
X185758218Y-145588904D01*
X185755398Y-145587737D01*
X185754489Y-145587005D01*
X185753879Y-145586694D01*
X185753944Y-145586565D01*
X185700992Y-145543900D01*
X185678922Y-145477608D01*
X185696197Y-145409907D01*
X185715155Y-145385500D01*
X185965303Y-145135352D01*
X186026624Y-145101869D01*
X186087577Y-145103959D01*
G37*
G04 #@! TD.AperFunction*
G04 #@! TA.AperFunction,Conductor*
G36*
X183652539Y-138270185D02*
G01*
X183698294Y-138322989D01*
X183709500Y-138374500D01*
X183709501Y-139576000D01*
X183689816Y-139643039D01*
X183637013Y-139688794D01*
X183585501Y-139700000D01*
X182863551Y-139700000D01*
X183349094Y-140185543D01*
X183382579Y-140246866D01*
X183377595Y-140316558D01*
X183349094Y-140360905D01*
X183170905Y-140539094D01*
X183109582Y-140572579D01*
X183039890Y-140567595D01*
X182995543Y-140539094D01*
X182270748Y-139814299D01*
X182248892Y-139827225D01*
X182137229Y-139938887D01*
X182137226Y-139938891D01*
X182056844Y-140074811D01*
X182056843Y-140074814D01*
X182012789Y-140226446D01*
X182012788Y-140226452D01*
X182010000Y-140261881D01*
X182010000Y-140638118D01*
X182012788Y-140673547D01*
X182012789Y-140673553D01*
X182056843Y-140825185D01*
X182056843Y-140825186D01*
X182093328Y-140886880D01*
X182110509Y-140954604D01*
X182093328Y-141013120D01*
X182056843Y-141074813D01*
X182056843Y-141074814D01*
X182012789Y-141226446D01*
X182012788Y-141226452D01*
X182010000Y-141261881D01*
X182010000Y-141638118D01*
X182012788Y-141673547D01*
X182012789Y-141673553D01*
X182056843Y-141825185D01*
X182056843Y-141825186D01*
X182093328Y-141886880D01*
X182110509Y-141954604D01*
X182093328Y-142013120D01*
X182056843Y-142074813D01*
X182056843Y-142074814D01*
X182012789Y-142226446D01*
X182012788Y-142226452D01*
X182010000Y-142261881D01*
X182010000Y-142638118D01*
X182012788Y-142673547D01*
X182012789Y-142673553D01*
X182056843Y-142825185D01*
X182056844Y-142825188D01*
X182133565Y-142954917D01*
X182150748Y-143022641D01*
X182129936Y-143086928D01*
X182056295Y-143197140D01*
X181992184Y-143351917D01*
X181992182Y-143351925D01*
X181959500Y-143516228D01*
X181959500Y-143683771D01*
X181992182Y-143848074D01*
X181992184Y-143848082D01*
X182056295Y-144002860D01*
X182149373Y-144142162D01*
X182267837Y-144260626D01*
X182360494Y-144322537D01*
X182407137Y-144353703D01*
X182561918Y-144417816D01*
X182726228Y-144450499D01*
X182726232Y-144450500D01*
X182726233Y-144450500D01*
X182893768Y-144450500D01*
X182893769Y-144450499D01*
X183058082Y-144417816D01*
X183212863Y-144353703D01*
X183352162Y-144260626D01*
X183470626Y-144142162D01*
X183482397Y-144124544D01*
X183536007Y-144079740D01*
X183605331Y-144071030D01*
X183668360Y-144101183D01*
X183705081Y-144160625D01*
X183709500Y-144193434D01*
X183709500Y-144588150D01*
X183709501Y-144588175D01*
X183712291Y-144623627D01*
X183756380Y-144775385D01*
X183756382Y-144775390D01*
X183836827Y-144911416D01*
X183836834Y-144911425D01*
X183934694Y-145009285D01*
X183968179Y-145070608D01*
X183963195Y-145140300D01*
X183934694Y-145184647D01*
X183489125Y-145630215D01*
X183427802Y-145663700D01*
X183358110Y-145658716D01*
X183345154Y-145653021D01*
X183218412Y-145588443D01*
X183016243Y-145522754D01*
X183016241Y-145522753D01*
X183016240Y-145522753D01*
X182854957Y-145497208D01*
X182806287Y-145489500D01*
X182593713Y-145489500D01*
X182545042Y-145497208D01*
X182383760Y-145522753D01*
X182181585Y-145588444D01*
X181992179Y-145684951D01*
X181820213Y-145809890D01*
X181669890Y-145960213D01*
X181544949Y-146132182D01*
X181519984Y-146181179D01*
X181472010Y-146231974D01*
X181404189Y-146248769D01*
X181338054Y-146226231D01*
X181294603Y-146171516D01*
X181285500Y-146124883D01*
X181285500Y-142226048D01*
X181305185Y-142159009D01*
X181310011Y-142153066D01*
X181310000Y-142150000D01*
X181300000Y-139410000D01*
X181299947Y-139395545D01*
X181283648Y-139366501D01*
X181280500Y-139338739D01*
X181280500Y-138508676D01*
X181289144Y-138479235D01*
X181295668Y-138449249D01*
X181299422Y-138444233D01*
X181300185Y-138441637D01*
X181316819Y-138420995D01*
X181450995Y-138286819D01*
X181512318Y-138253334D01*
X181538676Y-138250500D01*
X183585500Y-138250500D01*
X183652539Y-138270185D01*
G37*
G04 #@! TD.AperFunction*
G04 #@! TA.AperFunction,Conductor*
G36*
X191493363Y-138270185D02*
G01*
X191514005Y-138286819D01*
X191648181Y-138420995D01*
X191681666Y-138482318D01*
X191684500Y-138508676D01*
X191684500Y-145502227D01*
X191664815Y-145569266D01*
X191612011Y-145615021D01*
X191542853Y-145624965D01*
X191486189Y-145601494D01*
X191466834Y-145587005D01*
X191412331Y-145546204D01*
X191412329Y-145546203D01*
X191412328Y-145546202D01*
X191277482Y-145495908D01*
X191277483Y-145495908D01*
X191217883Y-145489501D01*
X191217881Y-145489500D01*
X191217873Y-145489500D01*
X191217865Y-145489500D01*
X190011519Y-145489500D01*
X189944480Y-145469815D01*
X189923838Y-145453181D01*
X189234029Y-144763372D01*
X189200544Y-144702049D01*
X189202634Y-144641095D01*
X189202913Y-144640134D01*
X189207709Y-144623627D01*
X189210500Y-144588163D01*
X189210499Y-144193431D01*
X189230183Y-144126395D01*
X189282987Y-144080640D01*
X189352146Y-144070696D01*
X189415701Y-144099721D01*
X189437601Y-144124543D01*
X189449373Y-144142161D01*
X189449376Y-144142165D01*
X189567837Y-144260626D01*
X189660494Y-144322537D01*
X189707137Y-144353703D01*
X189861918Y-144417816D01*
X190026228Y-144450499D01*
X190026232Y-144450500D01*
X190026233Y-144450500D01*
X190193768Y-144450500D01*
X190193769Y-144450499D01*
X190358082Y-144417816D01*
X190512863Y-144353703D01*
X190652162Y-144260626D01*
X190770626Y-144142162D01*
X190863703Y-144002863D01*
X190927816Y-143848082D01*
X190960500Y-143683767D01*
X190960500Y-143516233D01*
X190927816Y-143351918D01*
X190878227Y-143232201D01*
X190863704Y-143197139D01*
X190790064Y-143086929D01*
X190769186Y-143020251D01*
X190786434Y-142954917D01*
X190863155Y-142825188D01*
X190863156Y-142825185D01*
X190907210Y-142673553D01*
X190907211Y-142673547D01*
X190909999Y-142638118D01*
X190910000Y-142638105D01*
X190910000Y-142261894D01*
X190909999Y-142261881D01*
X190907211Y-142226452D01*
X190907210Y-142226446D01*
X190863156Y-142074814D01*
X190863154Y-142074809D01*
X190826672Y-142013122D01*
X190809488Y-141945399D01*
X190826672Y-141886878D01*
X190863154Y-141825190D01*
X190863156Y-141825185D01*
X190907210Y-141673553D01*
X190907211Y-141673547D01*
X190909999Y-141638118D01*
X190910000Y-141638105D01*
X190910000Y-141261894D01*
X190909999Y-141261881D01*
X190907211Y-141226452D01*
X190907210Y-141226446D01*
X190863156Y-141074814D01*
X190863154Y-141074809D01*
X190826672Y-141013122D01*
X190809488Y-140945399D01*
X190826672Y-140886878D01*
X190863154Y-140825190D01*
X190863156Y-140825185D01*
X190907210Y-140673553D01*
X190907211Y-140673547D01*
X190909999Y-140638118D01*
X190910000Y-140638105D01*
X190910000Y-140261894D01*
X190909999Y-140261881D01*
X190907211Y-140226452D01*
X190907210Y-140226446D01*
X190863156Y-140074814D01*
X190863155Y-140074811D01*
X190786434Y-139945082D01*
X190769251Y-139877358D01*
X190790063Y-139813072D01*
X190863703Y-139702863D01*
X190927816Y-139548082D01*
X190960500Y-139383767D01*
X190960500Y-139216233D01*
X190927816Y-139051918D01*
X190863703Y-138897137D01*
X190798004Y-138798812D01*
X190770626Y-138757837D01*
X190652162Y-138639373D01*
X190512860Y-138546295D01*
X190374684Y-138489061D01*
X190320281Y-138445220D01*
X190298216Y-138378926D01*
X190315495Y-138311226D01*
X190366633Y-138263616D01*
X190422137Y-138250500D01*
X191426324Y-138250500D01*
X191493363Y-138270185D01*
G37*
G04 #@! TD.AperFunction*
G04 #@! TA.AperFunction,Conductor*
G36*
X188043620Y-140179376D02*
G01*
X188084610Y-140203618D01*
X188236373Y-140247709D01*
X188271837Y-140250500D01*
X188285996Y-140250499D01*
X188353033Y-140270180D01*
X188398791Y-140322981D01*
X188410000Y-140374499D01*
X188410000Y-140638118D01*
X188412788Y-140673547D01*
X188412789Y-140673553D01*
X188456843Y-140825185D01*
X188456843Y-140825186D01*
X188493328Y-140886880D01*
X188510509Y-140954604D01*
X188493328Y-141013120D01*
X188456843Y-141074813D01*
X188456843Y-141074814D01*
X188412789Y-141226446D01*
X188412788Y-141226452D01*
X188410000Y-141261881D01*
X188410000Y-141638118D01*
X188412788Y-141673547D01*
X188412789Y-141673553D01*
X188456843Y-141825185D01*
X188456843Y-141825186D01*
X188493328Y-141886880D01*
X188510509Y-141954604D01*
X188493328Y-142013120D01*
X188456843Y-142074813D01*
X188456843Y-142074814D01*
X188412789Y-142226446D01*
X188412788Y-142226452D01*
X188410000Y-142261881D01*
X188410000Y-142525500D01*
X188390315Y-142592539D01*
X188337511Y-142638294D01*
X188286007Y-142649500D01*
X188271852Y-142649500D01*
X188271823Y-142649501D01*
X188236372Y-142652291D01*
X188084614Y-142696380D01*
X188084607Y-142696383D01*
X188043619Y-142720623D01*
X187975895Y-142737804D01*
X187909633Y-142715644D01*
X187865871Y-142661177D01*
X187857142Y-142601286D01*
X187859999Y-142573319D01*
X187859999Y-142026692D01*
X187859998Y-142026676D01*
X187849855Y-141927392D01*
X187796547Y-141766518D01*
X187796542Y-141766507D01*
X187707575Y-141622271D01*
X187707572Y-141622267D01*
X187622986Y-141537681D01*
X187589501Y-141476358D01*
X187594485Y-141406666D01*
X187622986Y-141362319D01*
X187707572Y-141277732D01*
X187707575Y-141277728D01*
X187796542Y-141133492D01*
X187796547Y-141133481D01*
X187849855Y-140972606D01*
X187859999Y-140873322D01*
X187859999Y-140326692D01*
X187859998Y-140326679D01*
X187857141Y-140298711D01*
X187869910Y-140230018D01*
X187917791Y-140179133D01*
X187985580Y-140162212D01*
X188043620Y-140179376D01*
G37*
G04 #@! TD.AperFunction*
G04 #@! TA.AperFunction,Conductor*
G36*
X185010363Y-140184353D02*
G01*
X185054127Y-140238818D01*
X185062857Y-140298709D01*
X185060001Y-140326670D01*
X185060000Y-140326690D01*
X185060000Y-140873307D01*
X185060001Y-140873323D01*
X185070144Y-140972607D01*
X185123452Y-141133481D01*
X185123457Y-141133492D01*
X185212424Y-141277728D01*
X185297014Y-141362319D01*
X185330498Y-141423643D01*
X185325514Y-141493334D01*
X185297014Y-141537681D01*
X185212424Y-141622271D01*
X185123457Y-141766507D01*
X185123452Y-141766518D01*
X185070144Y-141927393D01*
X185060000Y-142026677D01*
X185060000Y-142573307D01*
X185060002Y-142573330D01*
X185062858Y-142601292D01*
X185050087Y-142669985D01*
X185002205Y-142720868D01*
X184934415Y-142737787D01*
X184876379Y-142720623D01*
X184835390Y-142696382D01*
X184835385Y-142696380D01*
X184683633Y-142652292D01*
X184683620Y-142652290D01*
X184648170Y-142649500D01*
X184634000Y-142649500D01*
X184566961Y-142629815D01*
X184521206Y-142577011D01*
X184510000Y-142525500D01*
X184510000Y-142261894D01*
X184509999Y-142261881D01*
X184507211Y-142226452D01*
X184507210Y-142226446D01*
X184463156Y-142074814D01*
X184463154Y-142074809D01*
X184426672Y-142013122D01*
X184409488Y-141945399D01*
X184426672Y-141886878D01*
X184463154Y-141825190D01*
X184463156Y-141825185D01*
X184507210Y-141673553D01*
X184507211Y-141673547D01*
X184509999Y-141638118D01*
X184510000Y-141638105D01*
X184510000Y-141261894D01*
X184509999Y-141261881D01*
X184507211Y-141226452D01*
X184507210Y-141226446D01*
X184463156Y-141074814D01*
X184463154Y-141074809D01*
X184426672Y-141013122D01*
X184409488Y-140945399D01*
X184426672Y-140886878D01*
X184463154Y-140825190D01*
X184463156Y-140825185D01*
X184507210Y-140673553D01*
X184507211Y-140673547D01*
X184509999Y-140638118D01*
X184510000Y-140638105D01*
X184510000Y-140374499D01*
X184529685Y-140307460D01*
X184582489Y-140261705D01*
X184633999Y-140250499D01*
X184648162Y-140250499D01*
X184683627Y-140247709D01*
X184835390Y-140203618D01*
X184876377Y-140179377D01*
X184944100Y-140162194D01*
X185010363Y-140184353D01*
G37*
G04 #@! TD.AperFunction*
M02*
