G04 #@! TF.GenerationSoftware,KiCad,Pcbnew,9.0.6*
G04 #@! TF.CreationDate,2026-03-09T11:50:09+09:00*
G04 #@! TF.ProjectId,PitotBoard2026,5069746f-7442-46f6-9172-64323032362e,rev?*
G04 #@! TF.SameCoordinates,Original*
G04 #@! TF.FileFunction,Copper,L2,Bot*
G04 #@! TF.FilePolarity,Positive*
%FSLAX46Y46*%
G04 Gerber Fmt 4.6, Leading zero omitted, Abs format (unit mm)*
G04 Created by KiCad (PCBNEW 9.0.6) date 2026-03-09 11:50:09*
%MOMM*%
%LPD*%
G01*
G04 APERTURE LIST*
G04 Aperture macros list*
%AMRoundRect*
0 Rectangle with rounded corners*
0 $1 Rounding radius*
0 $2 $3 $4 $5 $6 $7 $8 $9 X,Y pos of 4 corners*
0 Add a 4 corners polygon primitive as box body*
4,1,4,$2,$3,$4,$5,$6,$7,$8,$9,$2,$3,0*
0 Add four circle primitives for the rounded corners*
1,1,$1+$1,$2,$3*
1,1,$1+$1,$4,$5*
1,1,$1+$1,$6,$7*
1,1,$1+$1,$8,$9*
0 Add four rect primitives between the rounded corners*
20,1,$1+$1,$2,$3,$4,$5,0*
20,1,$1+$1,$4,$5,$6,$7,0*
20,1,$1+$1,$6,$7,$8,$9,0*
20,1,$1+$1,$8,$9,$2,$3,0*%
G04 Aperture macros list end*
G04 #@! TA.AperFunction,ComponentPad*
%ADD10R,1.700000X1.700000*%
G04 #@! TD*
G04 #@! TA.AperFunction,ComponentPad*
%ADD11C,1.700000*%
G04 #@! TD*
G04 #@! TA.AperFunction,ComponentPad*
%ADD12R,1.520000X1.520000*%
G04 #@! TD*
G04 #@! TA.AperFunction,ComponentPad*
%ADD13C,1.520000*%
G04 #@! TD*
G04 #@! TA.AperFunction,ComponentPad*
%ADD14RoundRect,0.250000X-0.550000X-0.550000X0.550000X-0.550000X0.550000X0.550000X-0.550000X0.550000X0*%
G04 #@! TD*
G04 #@! TA.AperFunction,ComponentPad*
%ADD15C,1.600000*%
G04 #@! TD*
G04 #@! TA.AperFunction,ComponentPad*
%ADD16C,1.900000*%
G04 #@! TD*
G04 #@! TA.AperFunction,SMDPad,CuDef*
%ADD17RoundRect,0.137500X0.600000X0.137500X-0.600000X0.137500X-0.600000X-0.137500X0.600000X-0.137500X0*%
G04 #@! TD*
G04 #@! TA.AperFunction,SMDPad,CuDef*
%ADD18RoundRect,0.137500X0.137500X0.600000X-0.137500X0.600000X-0.137500X-0.600000X0.137500X-0.600000X0*%
G04 #@! TD*
G04 #@! TA.AperFunction,SMDPad,CuDef*
%ADD19RoundRect,0.225000X-0.225000X-0.250000X0.225000X-0.250000X0.225000X0.250000X-0.225000X0.250000X0*%
G04 #@! TD*
G04 #@! TA.AperFunction,SMDPad,CuDef*
%ADD20RoundRect,0.100000X0.100000X-0.850000X0.100000X0.850000X-0.100000X0.850000X-0.100000X-0.850000X0*%
G04 #@! TD*
G04 #@! TA.AperFunction,SMDPad,CuDef*
%ADD21RoundRect,0.200000X0.200000X0.275000X-0.200000X0.275000X-0.200000X-0.275000X0.200000X-0.275000X0*%
G04 #@! TD*
G04 #@! TA.AperFunction,SMDPad,CuDef*
%ADD22RoundRect,0.200000X-0.200000X-0.275000X0.200000X-0.275000X0.200000X0.275000X-0.200000X0.275000X0*%
G04 #@! TD*
G04 #@! TA.AperFunction,SMDPad,CuDef*
%ADD23RoundRect,0.150000X0.150000X-0.512500X0.150000X0.512500X-0.150000X0.512500X-0.150000X-0.512500X0*%
G04 #@! TD*
G04 #@! TA.AperFunction,SMDPad,CuDef*
%ADD24RoundRect,0.225000X0.225000X0.250000X-0.225000X0.250000X-0.225000X-0.250000X0.225000X-0.250000X0*%
G04 #@! TD*
G04 #@! TA.AperFunction,ComponentPad*
%ADD25R,1.300000X1.300000*%
G04 #@! TD*
G04 #@! TA.AperFunction,ComponentPad*
%ADD26C,1.300000*%
G04 #@! TD*
G04 #@! TA.AperFunction,SMDPad,CuDef*
%ADD27RoundRect,0.225000X-0.250000X0.225000X-0.250000X-0.225000X0.250000X-0.225000X0.250000X0.225000X0*%
G04 #@! TD*
G04 #@! TA.AperFunction,SMDPad,CuDef*
%ADD28R,0.400000X1.900000*%
G04 #@! TD*
G04 #@! TA.AperFunction,SMDPad,CuDef*
%ADD29RoundRect,0.225000X0.250000X-0.225000X0.250000X0.225000X-0.250000X0.225000X-0.250000X-0.225000X0*%
G04 #@! TD*
G04 #@! TA.AperFunction,SMDPad,CuDef*
%ADD30R,1.900000X0.400000*%
G04 #@! TD*
G04 #@! TA.AperFunction,SMDPad,CuDef*
%ADD31RoundRect,0.225000X-0.225000X-0.375000X0.225000X-0.375000X0.225000X0.375000X-0.225000X0.375000X0*%
G04 #@! TD*
G04 #@! TA.AperFunction,ViaPad*
%ADD32C,0.600000*%
G04 #@! TD*
G04 #@! TA.AperFunction,ViaPad*
%ADD33C,0.500000*%
G04 #@! TD*
G04 #@! TA.AperFunction,Conductor*
%ADD34C,0.400000*%
G04 #@! TD*
G04 #@! TA.AperFunction,Conductor*
%ADD35C,0.200000*%
G04 #@! TD*
G04 APERTURE END LIST*
D10*
X134850000Y-134890000D03*
D11*
X137390000Y-134890000D03*
X139930000Y-134890000D03*
X142470000Y-134890000D03*
D10*
X190320000Y-146840000D03*
D11*
X187780000Y-146840000D03*
X185240000Y-146840000D03*
X182700000Y-146840000D03*
D12*
X164050000Y-138260000D03*
D13*
X163030000Y-140800000D03*
X162010000Y-138260000D03*
X160990000Y-140800000D03*
X159970000Y-138260000D03*
X158950000Y-140800000D03*
D10*
X163200000Y-111175000D03*
D11*
X165740000Y-111175000D03*
X168280000Y-111175000D03*
X170820000Y-111175000D03*
D14*
X167295000Y-116990000D03*
D15*
X167295000Y-119530000D03*
X167295000Y-122070000D03*
X167295000Y-124610000D03*
X174915000Y-124610000D03*
X174915000Y-122070000D03*
X174915000Y-119530000D03*
X174915000Y-116990000D03*
D16*
X178037000Y-111910000D03*
X178037000Y-114450000D03*
X178037000Y-116990000D03*
X178037000Y-119530000D03*
X178037000Y-122070000D03*
X178037000Y-124610000D03*
D10*
X176625000Y-129500000D03*
D11*
X176625000Y-132040000D03*
X176625000Y-134580000D03*
X176625000Y-137120000D03*
D10*
X148700000Y-125385000D03*
D11*
X151240000Y-125385000D03*
X148700000Y-127925000D03*
X151240000Y-127925000D03*
X148700000Y-130465000D03*
X151240000Y-130465000D03*
D17*
X162462500Y-115100000D03*
X162462500Y-115900000D03*
X162462500Y-116700000D03*
X162462500Y-117500000D03*
X162462500Y-118300000D03*
X162462500Y-119100000D03*
X162462500Y-119900000D03*
X162462500Y-120700000D03*
D18*
X161100000Y-122062500D03*
X160300000Y-122062500D03*
X159500000Y-122062500D03*
X158700000Y-122062500D03*
X157900000Y-122062500D03*
X157100000Y-122062500D03*
X156300000Y-122062500D03*
X155500000Y-122062500D03*
D17*
X154137500Y-120700000D03*
X154137500Y-119900000D03*
X154137500Y-119100000D03*
X154137500Y-118300000D03*
X154137500Y-117500000D03*
X154137500Y-116700000D03*
X154137500Y-115900000D03*
X154137500Y-115100000D03*
D18*
X155500000Y-113737500D03*
X156300000Y-113737500D03*
X157100000Y-113737500D03*
X157900000Y-113737500D03*
X158700000Y-113737500D03*
X159500000Y-113737500D03*
X160300000Y-113737500D03*
X161100000Y-113737500D03*
D19*
X173425000Y-113700000D03*
X174975000Y-113700000D03*
D20*
X163125000Y-134200000D03*
X162475000Y-134200000D03*
X161825000Y-134200000D03*
X161175000Y-134200000D03*
X160525000Y-134200000D03*
X159875000Y-134200000D03*
X159225000Y-134200000D03*
X158575000Y-134200000D03*
X157925000Y-134200000D03*
X157275000Y-134200000D03*
X156625000Y-134200000D03*
X155975000Y-134200000D03*
X155325000Y-134200000D03*
X154675000Y-134200000D03*
X154675000Y-127200000D03*
X155325000Y-127200000D03*
X155975000Y-127200000D03*
X156625000Y-127200000D03*
X157275000Y-127200000D03*
X157925000Y-127200000D03*
X158575000Y-127200000D03*
X159225000Y-127200000D03*
X159875000Y-127200000D03*
X160525000Y-127200000D03*
X161175000Y-127200000D03*
X161825000Y-127200000D03*
X162475000Y-127200000D03*
X163125000Y-127200000D03*
D21*
X170150000Y-120000000D03*
X168500000Y-120000000D03*
D22*
X152600000Y-111800000D03*
X154250000Y-111800000D03*
D21*
X170150000Y-122075000D03*
X168500000Y-122075000D03*
D23*
X171950000Y-115937500D03*
X171000000Y-115937500D03*
X170050000Y-115937500D03*
X170050000Y-113662500D03*
X171950000Y-113662500D03*
D22*
X152600000Y-113325000D03*
X154250000Y-113325000D03*
D24*
X162950000Y-125250000D03*
X161400000Y-125250000D03*
D22*
X171750000Y-120025000D03*
X173400000Y-120025000D03*
D25*
X171850000Y-130160000D03*
D26*
X171850000Y-132700000D03*
X171850000Y-135240000D03*
D27*
X149200000Y-112875000D03*
X149200000Y-114425000D03*
D28*
X156600000Y-136700000D03*
X157800000Y-136700000D03*
X159000000Y-136700000D03*
D29*
X152400000Y-118875000D03*
X152400000Y-117325000D03*
D22*
X171750000Y-122075000D03*
X173400000Y-122075000D03*
D24*
X187460000Y-143925000D03*
X185910000Y-143925000D03*
D30*
X164725000Y-122150000D03*
X164725000Y-120950000D03*
X164725000Y-119750000D03*
D22*
X160675000Y-136200000D03*
X162325000Y-136200000D03*
D24*
X168575000Y-114900000D03*
X167025000Y-114900000D03*
D31*
X169650000Y-118100000D03*
X172950000Y-118100000D03*
D32*
X152100000Y-138700000D03*
X160200000Y-111000000D03*
X162700000Y-146300000D03*
X170800000Y-147300000D03*
X155000000Y-131000000D03*
X176200000Y-140800000D03*
D33*
X155400000Y-118025000D03*
D32*
X151700000Y-133300000D03*
X159500000Y-130850000D03*
D33*
X157875000Y-132400000D03*
D32*
X170900000Y-125900000D03*
X160800000Y-115300000D03*
X150100000Y-116800000D03*
D33*
X161400000Y-125250000D03*
D32*
X170800000Y-141500000D03*
X172800000Y-112300000D03*
X175700000Y-111700000D03*
X166600000Y-130500000D03*
X172800000Y-112300000D03*
X166800000Y-134000000D03*
X168100000Y-138800000D03*
X151200000Y-144300000D03*
X168700000Y-113500000D03*
X173800000Y-143800000D03*
X164800000Y-124600000D03*
X148400000Y-134400000D03*
X152537500Y-117762500D03*
X159000000Y-143600000D03*
X149800000Y-120600000D03*
X148700000Y-139700000D03*
X151700000Y-111400000D03*
X179300000Y-137600000D03*
D33*
X173675000Y-128700000D03*
X161200000Y-118675000D03*
D32*
X156300000Y-146600000D03*
D33*
X161200000Y-117125000D03*
X149275000Y-110670000D03*
X155400000Y-119575000D03*
X158375000Y-123700000D03*
D32*
X153047927Y-119706064D03*
D33*
X164375000Y-114124000D03*
X162825000Y-132350000D03*
D32*
X138435000Y-146955000D03*
X138335000Y-140455000D03*
X138065000Y-132225000D03*
X141435000Y-136555000D03*
X142595000Y-132285000D03*
D33*
X141810000Y-142930000D03*
X136620000Y-142890000D03*
X162950000Y-125250000D03*
D32*
X187625000Y-149510000D03*
X182655000Y-149450000D03*
X182785000Y-139050000D03*
X191195000Y-145010000D03*
X183260000Y-142450000D03*
X189660000Y-140450000D03*
D33*
X186460000Y-143900000D03*
D32*
X182095000Y-144950000D03*
X183260000Y-141450000D03*
X191155000Y-140920000D03*
X189627500Y-142417500D03*
D33*
X187460000Y-143900000D03*
X159687500Y-120500000D03*
D32*
X160675000Y-136200000D03*
D33*
X156150000Y-124150000D03*
X154800000Y-125600000D03*
X153862500Y-127900000D03*
X155325000Y-127200000D03*
X162462500Y-116700000D03*
D32*
X170850000Y-113900000D03*
D33*
X154250000Y-113325000D03*
X154250000Y-111800000D03*
X158225000Y-115000000D03*
X159525000Y-132400000D03*
X156475000Y-129500000D03*
X165300000Y-117750000D03*
X164250000Y-116175000D03*
X156600000Y-136700000D03*
X157925000Y-134200000D03*
D34*
X154137500Y-118300000D02*
X153174943Y-118300000D01*
X153174943Y-118300000D02*
X152599943Y-118875000D01*
D35*
X152599943Y-118875000D02*
X152400000Y-118875000D01*
D34*
X157800000Y-136700000D02*
X157800000Y-136600000D01*
X159171000Y-139421000D02*
X161651000Y-139421000D01*
D35*
X152400000Y-117625000D02*
X152400000Y-117325000D01*
D34*
X161651000Y-139421000D02*
X163030000Y-140800000D01*
X152950000Y-117325000D02*
X152400000Y-117325000D01*
X154137500Y-117500000D02*
X154875000Y-117500000D01*
X163175000Y-118300000D02*
X166575000Y-114900000D01*
X168280000Y-111175000D02*
X167025000Y-112430000D01*
D35*
X169024110Y-114124000D02*
X167801000Y-114124000D01*
D34*
X176625000Y-123482000D02*
X178037000Y-122070000D01*
X157800000Y-136700000D02*
X157800000Y-138050000D01*
X149200000Y-114425000D02*
X152100000Y-117325000D01*
X165475000Y-120950000D02*
X166094000Y-121569000D01*
D35*
X171000000Y-115937500D02*
X171000000Y-115275001D01*
X171000000Y-115275001D02*
X170376990Y-114651991D01*
D34*
X169531000Y-109924000D02*
X168280000Y-111175000D01*
X174975000Y-113700000D02*
X174975000Y-113225000D01*
D35*
X152537500Y-117762500D02*
X152400000Y-117625000D01*
D34*
X153125000Y-117500000D02*
X152950000Y-117325000D01*
X166575000Y-114900000D02*
X167025000Y-114900000D01*
X157275000Y-134200000D02*
X157275000Y-133000000D01*
X176625000Y-129500000D02*
X174475000Y-129500000D01*
X157800000Y-136600000D02*
X157274000Y-136074000D01*
X174975000Y-113700000D02*
X177287000Y-113700000D01*
X171674000Y-109924000D02*
X169531000Y-109924000D01*
X157275000Y-133000000D02*
X157875000Y-132400000D01*
D35*
X169552101Y-114651991D02*
X169024110Y-114124000D01*
X167801000Y-114124000D02*
X167025000Y-114900000D01*
D34*
X177287000Y-113700000D02*
X178037000Y-114450000D01*
D35*
X170376990Y-114651991D02*
X169552101Y-114651991D01*
D34*
X157274000Y-136074000D02*
X157274000Y-134200000D01*
X166094000Y-123409000D02*
X167295000Y-124610000D01*
X167025000Y-112430000D02*
X167025000Y-114900000D01*
X161825000Y-127200000D02*
X161825000Y-125675000D01*
X161575000Y-118300000D02*
X161200000Y-118675000D01*
X162462500Y-118300000D02*
X163175000Y-118300000D01*
X154875000Y-117500000D02*
X155400000Y-118025000D01*
X161825000Y-125675000D02*
X161400000Y-125250000D01*
X154137500Y-117500000D02*
X153125000Y-117500000D01*
X152100000Y-117325000D02*
X152400000Y-117325000D01*
X157800000Y-138050000D02*
X159171000Y-139421000D01*
X174975000Y-113225000D02*
X171674000Y-109924000D01*
X166094000Y-121569000D02*
X166094000Y-123409000D01*
X162462500Y-118300000D02*
X161575000Y-118300000D01*
X176625000Y-129500000D02*
X176625000Y-123482000D01*
X174475000Y-129500000D02*
X173675000Y-128700000D01*
X164725000Y-120950000D02*
X165475000Y-120950000D01*
X161575000Y-117500000D02*
X161200000Y-117125000D01*
X162462500Y-117500000D02*
X161575000Y-117500000D01*
X157275000Y-124924942D02*
X158375000Y-123824942D01*
X168575000Y-114900000D02*
X169012500Y-114900000D01*
X164375000Y-114124000D02*
X162850000Y-112599000D01*
X149200000Y-110745000D02*
X149275000Y-110670000D01*
X171950000Y-115937500D02*
X171950000Y-116433388D01*
X168575000Y-114900000D02*
X168575000Y-115710000D01*
X155075000Y-119900000D02*
X155400000Y-119575000D01*
X170150000Y-118600000D02*
X169650000Y-118100000D01*
X147449000Y-129214000D02*
X148700000Y-130465000D01*
X157275000Y-127200000D02*
X157275000Y-124924942D01*
X171950000Y-116433388D02*
X171382388Y-117001000D01*
X170150000Y-120000000D02*
X170150000Y-118600000D01*
X149650000Y-113325000D02*
X149200000Y-112875000D01*
X159649000Y-112599000D02*
X157974000Y-110924000D01*
X157974000Y-110924000D02*
X153476000Y-110924000D01*
X168575000Y-115710000D02*
X167295000Y-116990000D01*
X170150000Y-120000000D02*
X170150000Y-122075000D01*
X152600000Y-113325000D02*
X149650000Y-113325000D01*
X153476000Y-110924000D02*
X152600000Y-111800000D01*
X149200000Y-112875000D02*
X149200000Y-110745000D01*
X171382388Y-117001000D02*
X170401000Y-117001000D01*
X169012500Y-114900000D02*
X170050000Y-115937500D01*
X149275000Y-110670000D02*
X147449000Y-112496000D01*
X170050000Y-117700000D02*
X169650000Y-118100000D01*
X162850000Y-112599000D02*
X159649000Y-112599000D01*
X153241863Y-119900000D02*
X154137500Y-119900000D01*
X170050000Y-116650000D02*
X170050000Y-115937500D01*
X158375000Y-123824942D02*
X158375000Y-123700000D01*
X170050000Y-115937500D02*
X170050000Y-117700000D01*
X147449000Y-112496000D02*
X147449000Y-129214000D01*
X152600000Y-111800000D02*
X152600000Y-113325000D01*
X153047927Y-119706064D02*
X153241863Y-119900000D01*
X154137500Y-119900000D02*
X155075000Y-119900000D01*
X170401000Y-117001000D02*
X170050000Y-116650000D01*
X173425000Y-113700000D02*
X171987500Y-113700000D01*
X171750000Y-123425000D02*
X162825000Y-132350000D01*
X171987500Y-113700000D02*
X171950000Y-113662500D01*
X174925000Y-115550000D02*
X174915000Y-115560000D01*
X172950000Y-118825000D02*
X171750000Y-120025000D01*
X171750000Y-120025000D02*
X171750000Y-122075000D01*
X163125000Y-132650000D02*
X162825000Y-132350000D01*
X174060000Y-116990000D02*
X172950000Y-118100000D01*
X174915000Y-115560000D02*
X174915000Y-116990000D01*
X174925000Y-115200000D02*
X174925000Y-115550000D01*
X171750000Y-122075000D02*
X171750000Y-123425000D01*
X173425000Y-113700000D02*
X174925000Y-115200000D01*
X174915000Y-116990000D02*
X174060000Y-116990000D01*
X172950000Y-118100000D02*
X172950000Y-118825000D01*
X163125000Y-134200000D02*
X163125000Y-132650000D01*
X141810000Y-142930000D02*
X136660000Y-142930000D01*
X136660000Y-142930000D02*
X136620000Y-142890000D01*
X162475000Y-127200000D02*
X162475000Y-125725000D01*
X162475000Y-125725000D02*
X162950000Y-125250000D01*
X186460000Y-143900000D02*
X185935000Y-143900000D01*
X185935000Y-143900000D02*
X185910000Y-143925000D01*
X187460000Y-143925000D02*
X187460000Y-143900000D01*
X159500000Y-122062500D02*
X159500000Y-120687500D01*
X159500000Y-120687500D02*
X159687500Y-120500000D01*
X161825000Y-135700000D02*
X161825000Y-134200000D01*
X162325000Y-137945000D02*
X162010000Y-138260000D01*
X162325000Y-136200000D02*
X161825000Y-135700000D01*
X162325000Y-136200000D02*
X162325000Y-137945000D01*
X161175000Y-135700000D02*
X160675000Y-136200000D01*
X161175000Y-134200000D02*
X161175000Y-135700000D01*
X156150000Y-124150000D02*
X156300000Y-124000000D01*
X156300000Y-124000000D02*
X156300000Y-122062500D01*
X154675000Y-125725000D02*
X154800000Y-125600000D01*
X154675000Y-127200000D02*
X154675000Y-125725000D01*
X154137500Y-120700000D02*
X153862500Y-120975000D01*
X153862500Y-120975000D02*
X153862500Y-127900000D01*
X153862500Y-127900000D02*
X153862500Y-133387500D01*
X153862500Y-133387500D02*
X154675000Y-134200000D01*
X155500000Y-125820654D02*
X155500000Y-122062500D01*
X155325000Y-127200000D02*
X155325000Y-125995654D01*
X155325000Y-125995654D02*
X155500000Y-125820654D01*
X167300000Y-122075000D02*
X167295000Y-122070000D01*
X168500000Y-122075000D02*
X167300000Y-122075000D01*
X167765000Y-120000000D02*
X167295000Y-119530000D01*
X166865000Y-119100000D02*
X167295000Y-119530000D01*
X162462500Y-119100000D02*
X166865000Y-119100000D01*
X168500000Y-120000000D02*
X167765000Y-120000000D01*
X170850000Y-113900000D02*
X170850000Y-111205000D01*
X174910000Y-122075000D02*
X174915000Y-122070000D01*
X173400000Y-122075000D02*
X174910000Y-122075000D01*
X170850000Y-111205000D02*
X170820000Y-111175000D01*
X173895000Y-119530000D02*
X173400000Y-120025000D01*
X174915000Y-119530000D02*
X173895000Y-119530000D01*
X156912364Y-112599000D02*
X157100000Y-112786636D01*
X157100000Y-112786636D02*
X157100000Y-113737500D01*
X154250000Y-113325000D02*
X154976000Y-112599000D01*
X154976000Y-112599000D02*
X156912364Y-112599000D01*
X157900000Y-112736694D02*
X157900000Y-113737500D01*
X156963306Y-111800000D02*
X157900000Y-112736694D01*
X154250000Y-111800000D02*
X156963306Y-111800000D01*
X158700000Y-114525000D02*
X158225000Y-115000000D01*
X158700000Y-113737500D02*
X158700000Y-114525000D01*
X160525000Y-133188708D02*
X159736292Y-132400000D01*
X160525000Y-134200000D02*
X160525000Y-133188708D01*
X159736292Y-132400000D02*
X159525000Y-132400000D01*
X156625000Y-127200000D02*
X156625000Y-129350000D01*
X156625000Y-129350000D02*
X156475000Y-129500000D01*
X157100000Y-124250000D02*
X156101000Y-125249000D01*
X157100000Y-122062500D02*
X157100000Y-124250000D01*
X155975000Y-126195596D02*
X155975000Y-127200000D01*
X156101000Y-125249000D02*
X156101000Y-126069596D01*
X156101000Y-126069596D02*
X155975000Y-126195596D01*
X162462500Y-119900000D02*
X164575000Y-119900000D01*
X164575000Y-119900000D02*
X164725000Y-119750000D01*
X155325000Y-133188708D02*
X156814708Y-131699000D01*
X165879000Y-118329000D02*
X165300000Y-117750000D01*
X168159484Y-118329000D02*
X165879000Y-118329000D01*
X163175000Y-115100000D02*
X164250000Y-116175000D01*
X161904471Y-131699000D02*
X169301000Y-124302471D01*
X169301000Y-119470516D02*
X168159484Y-118329000D01*
X155325000Y-134200000D02*
X155325000Y-133188708D01*
X169301000Y-124302471D02*
X169301000Y-119470516D01*
X162462500Y-115100000D02*
X163175000Y-115100000D01*
X156814708Y-131699000D02*
X161904471Y-131699000D01*
X162462500Y-120700000D02*
X163912500Y-122150000D01*
X163912500Y-122150000D02*
X164725000Y-122150000D01*
D35*
X158575000Y-128149999D02*
X158876001Y-128451000D01*
X163125000Y-128069870D02*
X163125000Y-127200000D01*
X158575000Y-127200000D02*
X158575000Y-128149999D01*
X158876001Y-128451000D02*
X162743870Y-128451000D01*
X162743870Y-128451000D02*
X163125000Y-128069870D01*
X158575000Y-134200000D02*
X158575000Y-136275000D01*
X158575000Y-136275000D02*
X159000000Y-136700000D01*
X158226001Y-125949000D02*
X160349000Y-125949000D01*
X157925000Y-126250001D02*
X158226001Y-125949000D01*
X160349000Y-125949000D02*
X160525000Y-126125000D01*
X160525000Y-126125000D02*
X160525000Y-127200000D01*
X157925000Y-127200000D02*
X157925000Y-126250001D01*
G04 #@! TA.AperFunction,Conductor*
G36*
X143960239Y-135132201D02*
G01*
X144011715Y-135179445D01*
X144029528Y-135243612D01*
X144019715Y-144340947D01*
X144019716Y-144340952D01*
X144053685Y-144468276D01*
X144053688Y-144468283D01*
X144119454Y-144582478D01*
X144119456Y-144582480D01*
X144212541Y-144675766D01*
X144255188Y-144700449D01*
X144285329Y-144717895D01*
X144298979Y-144727054D01*
X144414508Y-144816225D01*
X144424552Y-144824873D01*
X144578732Y-144972675D01*
X144587797Y-144982346D01*
X144725325Y-145145769D01*
X144733304Y-145156351D01*
X144852609Y-145333524D01*
X144859415Y-145344899D01*
X144953384Y-145522917D01*
X144958426Y-145533691D01*
X144977499Y-145580130D01*
X144977500Y-145580132D01*
X144977501Y-145580133D01*
X144986085Y-145591390D01*
X144989820Y-145599486D01*
X145019003Y-145634557D01*
X145020604Y-145636656D01*
X145020604Y-145636657D01*
X145056552Y-145683798D01*
X145081550Y-145749042D01*
X145081949Y-145759384D01*
X145077781Y-147064158D01*
X145057883Y-147131134D01*
X145034924Y-147156224D01*
X145035014Y-147156313D01*
X145032556Y-147158812D01*
X145030109Y-147161487D01*
X145029321Y-147162101D01*
X144977788Y-147214509D01*
X144977789Y-147214510D01*
X144976736Y-147215580D01*
X144945288Y-147246108D01*
X144943067Y-147249822D01*
X144936924Y-147256071D01*
X144936923Y-147256073D01*
X144906298Y-147310165D01*
X144902414Y-147316565D01*
X144767402Y-147524649D01*
X144758513Y-147536690D01*
X144601815Y-147724120D01*
X144591540Y-147735003D01*
X144413392Y-147902198D01*
X144401880Y-147911763D01*
X144204896Y-148056269D01*
X144192315Y-148064378D01*
X143979349Y-148184100D01*
X143965884Y-148190633D01*
X143740053Y-148283823D01*
X143725898Y-148288687D01*
X143490480Y-148353991D01*
X143475843Y-148357114D01*
X143234273Y-148393578D01*
X143219365Y-148394915D01*
X142975159Y-148402008D01*
X142960199Y-148401539D01*
X142716919Y-148379158D01*
X142702126Y-148376890D01*
X142463313Y-148325362D01*
X142448899Y-148321328D01*
X142218028Y-148241400D01*
X142204206Y-148235658D01*
X142061200Y-148165860D01*
X142049370Y-148158537D01*
X142049355Y-148158564D01*
X142042318Y-148154501D01*
X142042317Y-148154500D01*
X141974916Y-148115586D01*
X141928190Y-148088608D01*
X141864542Y-148071554D01*
X141800895Y-148054500D01*
X141800894Y-148054500D01*
X136098322Y-148054500D01*
X136095829Y-148053859D01*
X136032414Y-148054500D01*
X135969107Y-148054500D01*
X135968907Y-148054500D01*
X135967174Y-148054746D01*
X135964060Y-148055188D01*
X135903561Y-148072055D01*
X135902356Y-148072384D01*
X135841813Y-148088607D01*
X135838904Y-148089811D01*
X135838866Y-148089828D01*
X135837276Y-148090486D01*
X135783886Y-148122033D01*
X135776747Y-148125941D01*
X135546934Y-148242109D01*
X135531957Y-148248483D01*
X135292760Y-148332201D01*
X135277077Y-148336558D01*
X135028975Y-148388224D01*
X135012857Y-148390489D01*
X134760132Y-148409213D01*
X134743855Y-148409348D01*
X134490844Y-148394806D01*
X134474691Y-148392807D01*
X134225775Y-148345254D01*
X134210022Y-148341157D01*
X133969477Y-148261409D01*
X133954396Y-148255284D01*
X133726368Y-148144715D01*
X133712220Y-148136668D01*
X133500631Y-147997180D01*
X133487659Y-147987348D01*
X133296177Y-147821359D01*
X133284605Y-147809914D01*
X133116501Y-147620261D01*
X133106531Y-147607404D01*
X132964719Y-147397367D01*
X132956518Y-147383312D01*
X132937711Y-147345592D01*
X132846228Y-147162106D01*
X132843440Y-147156514D01*
X132837149Y-147141502D01*
X132754751Y-146901845D01*
X132750481Y-146886138D01*
X132700185Y-146637759D01*
X132698010Y-146621643D01*
X132680678Y-146368791D01*
X132680634Y-146352539D01*
X132687175Y-146248713D01*
X133384500Y-146248713D01*
X133384500Y-146461286D01*
X133417753Y-146671239D01*
X133483444Y-146873414D01*
X133579951Y-147062820D01*
X133704890Y-147234786D01*
X133855213Y-147385109D01*
X134027179Y-147510048D01*
X134027181Y-147510049D01*
X134027184Y-147510051D01*
X134216588Y-147606557D01*
X134418757Y-147672246D01*
X134628713Y-147705500D01*
X134628714Y-147705500D01*
X134841286Y-147705500D01*
X134841287Y-147705500D01*
X135051243Y-147672246D01*
X135253412Y-147606557D01*
X135442816Y-147510051D01*
X135464789Y-147494086D01*
X135614786Y-147385109D01*
X135614788Y-147385106D01*
X135614792Y-147385104D01*
X135765104Y-147234792D01*
X135765106Y-147234788D01*
X135765109Y-147234786D01*
X135890048Y-147062820D01*
X135890047Y-147062820D01*
X135890051Y-147062816D01*
X135986557Y-146873412D01*
X136052246Y-146671243D01*
X136085500Y-146461287D01*
X136085500Y-146248713D01*
X141684500Y-146248713D01*
X141684500Y-146461286D01*
X141717753Y-146671239D01*
X141783444Y-146873414D01*
X141879951Y-147062820D01*
X142004890Y-147234786D01*
X142155213Y-147385109D01*
X142327179Y-147510048D01*
X142327181Y-147510049D01*
X142327184Y-147510051D01*
X142516588Y-147606557D01*
X142718757Y-147672246D01*
X142928713Y-147705500D01*
X142928714Y-147705500D01*
X143141286Y-147705500D01*
X143141287Y-147705500D01*
X143351243Y-147672246D01*
X143553412Y-147606557D01*
X143742816Y-147510051D01*
X143764789Y-147494086D01*
X143914786Y-147385109D01*
X143914788Y-147385106D01*
X143914792Y-147385104D01*
X144065104Y-147234792D01*
X144065106Y-147234788D01*
X144065109Y-147234786D01*
X144190048Y-147062820D01*
X144190047Y-147062820D01*
X144190051Y-147062816D01*
X144286557Y-146873412D01*
X144352246Y-146671243D01*
X144385500Y-146461287D01*
X144385500Y-146248713D01*
X144352246Y-146038757D01*
X144286557Y-145836588D01*
X144190051Y-145647184D01*
X144190049Y-145647181D01*
X144190048Y-145647179D01*
X144065109Y-145475213D01*
X143914786Y-145324890D01*
X143742820Y-145199951D01*
X143553414Y-145103444D01*
X143553413Y-145103443D01*
X143553412Y-145103443D01*
X143351243Y-145037754D01*
X143351241Y-145037753D01*
X143351240Y-145037753D01*
X143189957Y-145012208D01*
X143141287Y-145004500D01*
X142928713Y-145004500D01*
X142880042Y-145012208D01*
X142718760Y-145037753D01*
X142516585Y-145103444D01*
X142327179Y-145199951D01*
X142155213Y-145324890D01*
X142004890Y-145475213D01*
X141879951Y-145647179D01*
X141783444Y-145836585D01*
X141717753Y-146038760D01*
X141684500Y-146248713D01*
X136085500Y-146248713D01*
X136052246Y-146038757D01*
X135986557Y-145836588D01*
X135890051Y-145647184D01*
X135890049Y-145647181D01*
X135890048Y-145647179D01*
X135765109Y-145475213D01*
X135614786Y-145324890D01*
X135442820Y-145199951D01*
X135253414Y-145103444D01*
X135253413Y-145103443D01*
X135253412Y-145103443D01*
X135051243Y-145037754D01*
X135051241Y-145037753D01*
X135051240Y-145037753D01*
X134889957Y-145012208D01*
X134841287Y-145004500D01*
X134628713Y-145004500D01*
X134580042Y-145012208D01*
X134418760Y-145037753D01*
X134216585Y-145103444D01*
X134027179Y-145199951D01*
X133855213Y-145324890D01*
X133704890Y-145475213D01*
X133579951Y-145647179D01*
X133483444Y-145836585D01*
X133417753Y-146038760D01*
X133384500Y-146248713D01*
X132687175Y-146248713D01*
X132696570Y-146099593D01*
X132698658Y-146083459D01*
X132747233Y-145836588D01*
X132747584Y-145834800D01*
X132751764Y-145819088D01*
X132832845Y-145578962D01*
X132839044Y-145563939D01*
X132950873Y-145336514D01*
X132958997Y-145322413D01*
X133099651Y-145111594D01*
X133109544Y-145098688D01*
X133279100Y-144905255D01*
X133284650Y-144899327D01*
X133335500Y-144848479D01*
X133401392Y-144734351D01*
X133435500Y-144607057D01*
X133435500Y-142963920D01*
X135869499Y-142963920D01*
X135898340Y-143108907D01*
X135898343Y-143108917D01*
X135954912Y-143245488D01*
X135954919Y-143245501D01*
X136037048Y-143368415D01*
X136037051Y-143368419D01*
X136141580Y-143472948D01*
X136141584Y-143472951D01*
X136264498Y-143555080D01*
X136264511Y-143555087D01*
X136401082Y-143611656D01*
X136401087Y-143611658D01*
X136401091Y-143611658D01*
X136401092Y-143611659D01*
X136546079Y-143640500D01*
X136546082Y-143640500D01*
X136693919Y-143640500D01*
X136732210Y-143632883D01*
X136756403Y-143630500D01*
X141515342Y-143630500D01*
X141562794Y-143639939D01*
X141591082Y-143651656D01*
X141591087Y-143651658D01*
X141591091Y-143651658D01*
X141591092Y-143651659D01*
X141736079Y-143680500D01*
X141736082Y-143680500D01*
X141883920Y-143680500D01*
X141981462Y-143661096D01*
X142028913Y-143651658D01*
X142165495Y-143595084D01*
X142288416Y-143512951D01*
X142392951Y-143408416D01*
X142475084Y-143285495D01*
X142531658Y-143148913D01*
X142560500Y-143003918D01*
X142560500Y-142856082D01*
X142560500Y-142856079D01*
X142531659Y-142711092D01*
X142531658Y-142711091D01*
X142531658Y-142711087D01*
X142515092Y-142671092D01*
X142475087Y-142574511D01*
X142475080Y-142574498D01*
X142392951Y-142451584D01*
X142392948Y-142451580D01*
X142288419Y-142347051D01*
X142288415Y-142347048D01*
X142165501Y-142264919D01*
X142165488Y-142264912D01*
X142028917Y-142208343D01*
X142028907Y-142208340D01*
X141883920Y-142179500D01*
X141883918Y-142179500D01*
X141736082Y-142179500D01*
X141736080Y-142179500D01*
X141591092Y-142208340D01*
X141591082Y-142208343D01*
X141562794Y-142220061D01*
X141515342Y-142229500D01*
X137011228Y-142229500D01*
X136963776Y-142220061D01*
X136838917Y-142168343D01*
X136838907Y-142168340D01*
X136693920Y-142139500D01*
X136693918Y-142139500D01*
X136546082Y-142139500D01*
X136546080Y-142139500D01*
X136401092Y-142168340D01*
X136401082Y-142168343D01*
X136264511Y-142224912D01*
X136264498Y-142224919D01*
X136141584Y-142307048D01*
X136141580Y-142307051D01*
X136037051Y-142411580D01*
X136037048Y-142411584D01*
X135954919Y-142534498D01*
X135954912Y-142534511D01*
X135898343Y-142671082D01*
X135898340Y-142671092D01*
X135869500Y-142816079D01*
X135869500Y-142816082D01*
X135869500Y-142963918D01*
X135869500Y-142963920D01*
X135869499Y-142963920D01*
X133435500Y-142963920D01*
X133435500Y-136189240D01*
X133455185Y-136122201D01*
X133507989Y-136076446D01*
X133577147Y-136066502D01*
X133634946Y-136092897D01*
X133635712Y-136091875D01*
X133640414Y-136095395D01*
X133640703Y-136095527D01*
X133641164Y-136095956D01*
X133757906Y-136183350D01*
X133757913Y-136183354D01*
X133892620Y-136233596D01*
X133892627Y-136233598D01*
X133952155Y-136239999D01*
X133952172Y-136240000D01*
X134600000Y-136240000D01*
X134600000Y-135323012D01*
X134657007Y-135355925D01*
X134784174Y-135390000D01*
X134915826Y-135390000D01*
X135042993Y-135355925D01*
X135100000Y-135323012D01*
X135100000Y-136240000D01*
X135747828Y-136240000D01*
X135747844Y-136239999D01*
X135807372Y-136233598D01*
X135807379Y-136233596D01*
X135942086Y-136183354D01*
X135942093Y-136183350D01*
X136057187Y-136097190D01*
X136057190Y-136097187D01*
X136143350Y-135982093D01*
X136143354Y-135982086D01*
X136192422Y-135850529D01*
X136234293Y-135794595D01*
X136299757Y-135770178D01*
X136368030Y-135785030D01*
X136396285Y-135806181D01*
X136510213Y-135920109D01*
X136682179Y-136045048D01*
X136682181Y-136045049D01*
X136682184Y-136045051D01*
X136871588Y-136141557D01*
X137073757Y-136207246D01*
X137283713Y-136240500D01*
X137283714Y-136240500D01*
X137496286Y-136240500D01*
X137496287Y-136240500D01*
X137706243Y-136207246D01*
X137908412Y-136141557D01*
X138097816Y-136045051D01*
X138184471Y-135982093D01*
X138269786Y-135920109D01*
X138269788Y-135920106D01*
X138269792Y-135920104D01*
X138420104Y-135769792D01*
X138420106Y-135769788D01*
X138420109Y-135769786D01*
X138545048Y-135597820D01*
X138545047Y-135597820D01*
X138545051Y-135597816D01*
X138549514Y-135589054D01*
X138597488Y-135538259D01*
X138665308Y-135521463D01*
X138731444Y-135543999D01*
X138770486Y-135589056D01*
X138774951Y-135597820D01*
X138899890Y-135769786D01*
X139050213Y-135920109D01*
X139222179Y-136045048D01*
X139222181Y-136045049D01*
X139222184Y-136045051D01*
X139411588Y-136141557D01*
X139613757Y-136207246D01*
X139823713Y-136240500D01*
X139823714Y-136240500D01*
X140036286Y-136240500D01*
X140036287Y-136240500D01*
X140246243Y-136207246D01*
X140448412Y-136141557D01*
X140637816Y-136045051D01*
X140724471Y-135982093D01*
X140809786Y-135920109D01*
X140809788Y-135920106D01*
X140809792Y-135920104D01*
X140960104Y-135769792D01*
X140960106Y-135769788D01*
X140960109Y-135769786D01*
X141085048Y-135597820D01*
X141085047Y-135597820D01*
X141085051Y-135597816D01*
X141089514Y-135589054D01*
X141137488Y-135538259D01*
X141205308Y-135521463D01*
X141271444Y-135543999D01*
X141310486Y-135589056D01*
X141314951Y-135597820D01*
X141439890Y-135769786D01*
X141590213Y-135920109D01*
X141762179Y-136045048D01*
X141762181Y-136045049D01*
X141762184Y-136045051D01*
X141951588Y-136141557D01*
X142153757Y-136207246D01*
X142363713Y-136240500D01*
X142363714Y-136240500D01*
X142576286Y-136240500D01*
X142576287Y-136240500D01*
X142786243Y-136207246D01*
X142988412Y-136141557D01*
X143177816Y-136045051D01*
X143264471Y-135982093D01*
X143349786Y-135920109D01*
X143349788Y-135920106D01*
X143349792Y-135920104D01*
X143500104Y-135769792D01*
X143500106Y-135769788D01*
X143500109Y-135769786D01*
X143625048Y-135597820D01*
X143625047Y-135597820D01*
X143625051Y-135597816D01*
X143721557Y-135408412D01*
X143787246Y-135206243D01*
X143787246Y-135206237D01*
X143787597Y-135205160D01*
X143827034Y-135147485D01*
X143891393Y-135120286D01*
X143960239Y-135132201D01*
G37*
G04 #@! TD.AperFunction*
G04 #@! TA.AperFunction,Conductor*
G36*
X143843166Y-131155185D02*
G01*
X143863855Y-131171866D01*
X143997409Y-131305564D01*
X144030861Y-131366905D01*
X144033681Y-131393332D01*
X144030288Y-134538995D01*
X144010531Y-134606013D01*
X143957678Y-134651711D01*
X143888509Y-134661580D01*
X143824984Y-134632486D01*
X143788357Y-134577179D01*
X143787246Y-134573762D01*
X143787246Y-134573757D01*
X143721557Y-134371588D01*
X143625051Y-134182184D01*
X143625049Y-134182181D01*
X143625048Y-134182179D01*
X143500109Y-134010213D01*
X143349786Y-133859890D01*
X143177820Y-133734951D01*
X142988414Y-133638444D01*
X142988413Y-133638443D01*
X142988412Y-133638443D01*
X142786243Y-133572754D01*
X142786241Y-133572753D01*
X142786240Y-133572753D01*
X142624957Y-133547208D01*
X142576287Y-133539500D01*
X142363713Y-133539500D01*
X142315042Y-133547208D01*
X142153760Y-133572753D01*
X141951585Y-133638444D01*
X141762179Y-133734951D01*
X141590213Y-133859890D01*
X141439890Y-134010213D01*
X141314949Y-134182182D01*
X141310484Y-134190946D01*
X141262509Y-134241742D01*
X141194688Y-134258536D01*
X141128553Y-134235998D01*
X141089516Y-134190946D01*
X141085050Y-134182182D01*
X140960109Y-134010213D01*
X140809786Y-133859890D01*
X140637820Y-133734951D01*
X140448414Y-133638444D01*
X140448413Y-133638443D01*
X140448412Y-133638443D01*
X140246243Y-133572754D01*
X140246241Y-133572753D01*
X140246240Y-133572753D01*
X140084957Y-133547208D01*
X140036287Y-133539500D01*
X139823713Y-133539500D01*
X139775042Y-133547208D01*
X139613760Y-133572753D01*
X139411585Y-133638444D01*
X139222179Y-133734951D01*
X139050213Y-133859890D01*
X138899890Y-134010213D01*
X138774949Y-134182182D01*
X138770484Y-134190946D01*
X138722509Y-134241742D01*
X138654688Y-134258536D01*
X138588553Y-134235998D01*
X138549516Y-134190946D01*
X138545050Y-134182182D01*
X138420109Y-134010213D01*
X138269786Y-133859890D01*
X138097820Y-133734951D01*
X137908414Y-133638444D01*
X137908413Y-133638443D01*
X137908412Y-133638443D01*
X137706243Y-133572754D01*
X137706241Y-133572753D01*
X137706240Y-133572753D01*
X137544957Y-133547208D01*
X137496287Y-133539500D01*
X137283713Y-133539500D01*
X137235042Y-133547208D01*
X137073760Y-133572753D01*
X136871585Y-133638444D01*
X136682179Y-133734951D01*
X136510215Y-133859889D01*
X136396285Y-133973819D01*
X136334962Y-134007303D01*
X136265270Y-134002319D01*
X136209337Y-133960447D01*
X136192422Y-133929470D01*
X136143354Y-133797913D01*
X136143350Y-133797906D01*
X136057190Y-133682812D01*
X136057187Y-133682809D01*
X135942093Y-133596649D01*
X135942086Y-133596645D01*
X135807379Y-133546403D01*
X135807372Y-133546401D01*
X135747844Y-133540000D01*
X135100000Y-133540000D01*
X135100000Y-134456988D01*
X135042993Y-134424075D01*
X134915826Y-134390000D01*
X134784174Y-134390000D01*
X134657007Y-134424075D01*
X134600000Y-134456988D01*
X134600000Y-133540000D01*
X133952155Y-133540000D01*
X133892627Y-133546401D01*
X133892620Y-133546403D01*
X133757913Y-133596645D01*
X133757906Y-133596649D01*
X133635712Y-133688125D01*
X133633893Y-133685696D01*
X133585858Y-133711926D01*
X133516166Y-133706942D01*
X133460233Y-133665070D01*
X133435816Y-133599606D01*
X133435500Y-133590760D01*
X133435500Y-131393676D01*
X133444144Y-131364235D01*
X133450668Y-131334249D01*
X133454422Y-131329233D01*
X133455185Y-131326637D01*
X133471819Y-131305995D01*
X133605995Y-131171819D01*
X133667318Y-131138334D01*
X133693676Y-131135500D01*
X143776127Y-131135500D01*
X143843166Y-131155185D01*
G37*
G04 #@! TD.AperFunction*
G04 #@! TA.AperFunction,Conductor*
G36*
X179608242Y-109720185D02*
G01*
X179628913Y-109736848D01*
X179762707Y-109870731D01*
X179796172Y-109932065D01*
X179798997Y-109958465D01*
X179779548Y-139335718D01*
X179779543Y-139343947D01*
X179779500Y-139344108D01*
X179779500Y-139409020D01*
X179779500Y-139409183D01*
X179779456Y-139475563D01*
X179779499Y-139475887D01*
X179779500Y-139475890D01*
X179779500Y-139475892D01*
X179786282Y-139501204D01*
X179796112Y-139537892D01*
X179800336Y-139569518D01*
X179809473Y-142000089D01*
X179805250Y-142032645D01*
X179799500Y-142054105D01*
X179799500Y-148641324D01*
X179790855Y-148670764D01*
X179784332Y-148700751D01*
X179780577Y-148705766D01*
X179779815Y-148708363D01*
X179763181Y-148729005D01*
X179629005Y-148863181D01*
X179567682Y-148896666D01*
X179541324Y-148899500D01*
X146968676Y-148899500D01*
X146901637Y-148879815D01*
X146880995Y-148863181D01*
X146746819Y-148729005D01*
X146713334Y-148667682D01*
X146710500Y-148641324D01*
X146710500Y-147788960D01*
X146714668Y-147762349D01*
X146710500Y-147723336D01*
X146710500Y-147684108D01*
X146706024Y-147667407D01*
X146702504Y-147648506D01*
X146700668Y-147631310D01*
X146686545Y-147594707D01*
X146676392Y-147556814D01*
X146662925Y-147533488D01*
X146653230Y-147508361D01*
X146653229Y-147508359D01*
X146634006Y-147481996D01*
X146630113Y-147476658D01*
X146610500Y-147442686D01*
X146591454Y-147423640D01*
X146575586Y-147401878D01*
X146545055Y-147377241D01*
X146517314Y-147349500D01*
X146493990Y-147336033D01*
X146486474Y-147329968D01*
X146466707Y-147314019D01*
X146468633Y-147311631D01*
X146431454Y-147270654D01*
X146419044Y-147216648D01*
X146418578Y-146293713D01*
X147849500Y-146293713D01*
X147849500Y-146506286D01*
X147874350Y-146663186D01*
X147882754Y-146716243D01*
X147932875Y-146870500D01*
X147948444Y-146918414D01*
X148044951Y-147107820D01*
X148169890Y-147279786D01*
X148320213Y-147430109D01*
X148492179Y-147555048D01*
X148492181Y-147555049D01*
X148492184Y-147555051D01*
X148681588Y-147651557D01*
X148883757Y-147717246D01*
X149093713Y-147750500D01*
X149093714Y-147750500D01*
X149306286Y-147750500D01*
X149306287Y-147750500D01*
X149516243Y-147717246D01*
X149718412Y-147651557D01*
X149907816Y-147555051D01*
X149972080Y-147508361D01*
X150079786Y-147430109D01*
X150079788Y-147430106D01*
X150079792Y-147430104D01*
X150230104Y-147279792D01*
X150230106Y-147279788D01*
X150230109Y-147279786D01*
X150355048Y-147107820D01*
X150355047Y-147107820D01*
X150355051Y-147107816D01*
X150451557Y-146918412D01*
X150517246Y-146716243D01*
X150550500Y-146506287D01*
X150550500Y-146293713D01*
X175949500Y-146293713D01*
X175949500Y-146506286D01*
X175974350Y-146663186D01*
X175982754Y-146716243D01*
X176032875Y-146870500D01*
X176048444Y-146918414D01*
X176144951Y-147107820D01*
X176269890Y-147279786D01*
X176420213Y-147430109D01*
X176592179Y-147555048D01*
X176592181Y-147555049D01*
X176592184Y-147555051D01*
X176781588Y-147651557D01*
X176983757Y-147717246D01*
X177193713Y-147750500D01*
X177193714Y-147750500D01*
X177406286Y-147750500D01*
X177406287Y-147750500D01*
X177616243Y-147717246D01*
X177818412Y-147651557D01*
X178007816Y-147555051D01*
X178072080Y-147508361D01*
X178179786Y-147430109D01*
X178179788Y-147430106D01*
X178179792Y-147430104D01*
X178330104Y-147279792D01*
X178330106Y-147279788D01*
X178330109Y-147279786D01*
X178455048Y-147107820D01*
X178455047Y-147107820D01*
X178455051Y-147107816D01*
X178551557Y-146918412D01*
X178617246Y-146716243D01*
X178650500Y-146506287D01*
X178650500Y-146293713D01*
X178617246Y-146083757D01*
X178551557Y-145881588D01*
X178455051Y-145692184D01*
X178455049Y-145692181D01*
X178455048Y-145692179D01*
X178330109Y-145520213D01*
X178179786Y-145369890D01*
X178007820Y-145244951D01*
X177818414Y-145148444D01*
X177818413Y-145148443D01*
X177818412Y-145148443D01*
X177616243Y-145082754D01*
X177616241Y-145082753D01*
X177616240Y-145082753D01*
X177454957Y-145057208D01*
X177406287Y-145049500D01*
X177193713Y-145049500D01*
X177145042Y-145057208D01*
X176983760Y-145082753D01*
X176781585Y-145148444D01*
X176592179Y-145244951D01*
X176420213Y-145369890D01*
X176269890Y-145520213D01*
X176144951Y-145692179D01*
X176048444Y-145881585D01*
X175982753Y-146083760D01*
X175949500Y-146293713D01*
X150550500Y-146293713D01*
X150517246Y-146083757D01*
X150451557Y-145881588D01*
X150355051Y-145692184D01*
X150355049Y-145692181D01*
X150355048Y-145692179D01*
X150230109Y-145520213D01*
X150079786Y-145369890D01*
X149907820Y-145244951D01*
X149718414Y-145148444D01*
X149718413Y-145148443D01*
X149718412Y-145148443D01*
X149516243Y-145082754D01*
X149516241Y-145082753D01*
X149516240Y-145082753D01*
X149354957Y-145057208D01*
X149306287Y-145049500D01*
X149093713Y-145049500D01*
X149045042Y-145057208D01*
X148883760Y-145082753D01*
X148681585Y-145148444D01*
X148492179Y-145244951D01*
X148320213Y-145369890D01*
X148169890Y-145520213D01*
X148044951Y-145692179D01*
X147948444Y-145881585D01*
X147882753Y-146083760D01*
X147849500Y-146293713D01*
X146418578Y-146293713D01*
X146418297Y-145737584D01*
X146418838Y-145735738D01*
X146418350Y-145733874D01*
X146428624Y-145702346D01*
X146437947Y-145670539D01*
X146439591Y-145668695D01*
X146440000Y-145667443D01*
X146445123Y-145662495D01*
X146463889Y-145641462D01*
X146470125Y-145636371D01*
X146470691Y-145636109D01*
X146480261Y-145628098D01*
X146480804Y-145627656D01*
X146481346Y-145627427D01*
X146497206Y-145616336D01*
X146507314Y-145610502D01*
X146538236Y-145579579D01*
X146571752Y-145551530D01*
X146584635Y-145533180D01*
X146600500Y-145517316D01*
X146622365Y-145479443D01*
X146647479Y-145443676D01*
X146655174Y-145422616D01*
X146666392Y-145403188D01*
X146677708Y-145360953D01*
X146692712Y-145319897D01*
X146694695Y-145297557D01*
X146700500Y-145275894D01*
X146700500Y-145232174D01*
X146704366Y-145188629D01*
X146700500Y-145166537D01*
X146700500Y-142989778D01*
X154099500Y-142989778D01*
X154099500Y-143210221D01*
X154133985Y-143427952D01*
X154202103Y-143637603D01*
X154202104Y-143637606D01*
X154302187Y-143834025D01*
X154431752Y-144012358D01*
X154431756Y-144012363D01*
X154587636Y-144168243D01*
X154587641Y-144168247D01*
X154743192Y-144281260D01*
X154765978Y-144297815D01*
X154894375Y-144363237D01*
X154962393Y-144397895D01*
X154962396Y-144397896D01*
X155067221Y-144431955D01*
X155172049Y-144466015D01*
X155389778Y-144500500D01*
X155389779Y-144500500D01*
X155610221Y-144500500D01*
X155610222Y-144500500D01*
X155827951Y-144466015D01*
X156037606Y-144397895D01*
X156234022Y-144297815D01*
X156412365Y-144168242D01*
X156568242Y-144012365D01*
X156697815Y-143834022D01*
X156797895Y-143637606D01*
X156866015Y-143427951D01*
X156900500Y-143210222D01*
X156900500Y-142989778D01*
X166099500Y-142989778D01*
X166099500Y-143210221D01*
X166133985Y-143427952D01*
X166202103Y-143637603D01*
X166202104Y-143637606D01*
X166302187Y-143834025D01*
X166431752Y-144012358D01*
X166431756Y-144012363D01*
X166587636Y-144168243D01*
X166587641Y-144168247D01*
X166743192Y-144281260D01*
X166765978Y-144297815D01*
X166894375Y-144363237D01*
X166962393Y-144397895D01*
X166962396Y-144397896D01*
X167067221Y-144431955D01*
X167172049Y-144466015D01*
X167389778Y-144500500D01*
X167389779Y-144500500D01*
X167610221Y-144500500D01*
X167610222Y-144500500D01*
X167827951Y-144466015D01*
X168037606Y-144397895D01*
X168234022Y-144297815D01*
X168412365Y-144168242D01*
X168568242Y-144012365D01*
X168697815Y-143834022D01*
X168797895Y-143637606D01*
X168866015Y-143427951D01*
X168900500Y-143210222D01*
X168900500Y-142989778D01*
X168866015Y-142772049D01*
X168831955Y-142667221D01*
X168797896Y-142562396D01*
X168797895Y-142562393D01*
X168763237Y-142494375D01*
X168697815Y-142365978D01*
X168659460Y-142313186D01*
X168568247Y-142187641D01*
X168568243Y-142187636D01*
X168412363Y-142031756D01*
X168412358Y-142031752D01*
X168234025Y-141902187D01*
X168234024Y-141902186D01*
X168234022Y-141902185D01*
X168133247Y-141850837D01*
X168037606Y-141802104D01*
X168037603Y-141802103D01*
X167827952Y-141733985D01*
X167644259Y-141704891D01*
X167610222Y-141699500D01*
X167389778Y-141699500D01*
X167355741Y-141704891D01*
X167172047Y-141733985D01*
X166962396Y-141802103D01*
X166962393Y-141802104D01*
X166765974Y-141902187D01*
X166587641Y-142031752D01*
X166587636Y-142031756D01*
X166431756Y-142187636D01*
X166431752Y-142187641D01*
X166302187Y-142365974D01*
X166202104Y-142562393D01*
X166202103Y-142562396D01*
X166133985Y-142772047D01*
X166099500Y-142989778D01*
X156900500Y-142989778D01*
X156866015Y-142772049D01*
X156831955Y-142667221D01*
X156797896Y-142562396D01*
X156797895Y-142562393D01*
X156763237Y-142494375D01*
X156697815Y-142365978D01*
X156659460Y-142313186D01*
X156568247Y-142187641D01*
X156568243Y-142187636D01*
X156412363Y-142031756D01*
X156412358Y-142031752D01*
X156234025Y-141902187D01*
X156234024Y-141902186D01*
X156234022Y-141902185D01*
X156133247Y-141850837D01*
X156037606Y-141802104D01*
X156037603Y-141802103D01*
X155827952Y-141733985D01*
X155644259Y-141704891D01*
X155610222Y-141699500D01*
X155389778Y-141699500D01*
X155355741Y-141704891D01*
X155172047Y-141733985D01*
X154962396Y-141802103D01*
X154962393Y-141802104D01*
X154765974Y-141902187D01*
X154587641Y-142031752D01*
X154587636Y-142031756D01*
X154431756Y-142187636D01*
X154431752Y-142187641D01*
X154302187Y-142365974D01*
X154202104Y-142562393D01*
X154202103Y-142562396D01*
X154133985Y-142772047D01*
X154099500Y-142989778D01*
X146700500Y-142989778D01*
X146700500Y-129755519D01*
X146720185Y-129688480D01*
X146772989Y-129642725D01*
X146842147Y-129632781D01*
X146905703Y-129661806D01*
X146912181Y-129667838D01*
X147339492Y-130095149D01*
X147372977Y-130156472D01*
X147374284Y-130202227D01*
X147349500Y-130358712D01*
X147349500Y-130571286D01*
X147371024Y-130707187D01*
X147382754Y-130781243D01*
X147427021Y-130917483D01*
X147448444Y-130983414D01*
X147544951Y-131172820D01*
X147669890Y-131344786D01*
X147820213Y-131495109D01*
X147992179Y-131620048D01*
X147992181Y-131620049D01*
X147992184Y-131620051D01*
X148181588Y-131716557D01*
X148383757Y-131782246D01*
X148593713Y-131815500D01*
X148593714Y-131815500D01*
X148806286Y-131815500D01*
X148806287Y-131815500D01*
X149016243Y-131782246D01*
X149218412Y-131716557D01*
X149407816Y-131620051D01*
X149465930Y-131577829D01*
X149579786Y-131495109D01*
X149579788Y-131495106D01*
X149579792Y-131495104D01*
X149730104Y-131344792D01*
X149730106Y-131344788D01*
X149730109Y-131344786D01*
X149855048Y-131172820D01*
X149855047Y-131172820D01*
X149855051Y-131172816D01*
X149859514Y-131164054D01*
X149907488Y-131113259D01*
X149975308Y-131096463D01*
X150041444Y-131118999D01*
X150080484Y-131164054D01*
X150084591Y-131172115D01*
X150084951Y-131172820D01*
X150209890Y-131344786D01*
X150360213Y-131495109D01*
X150532179Y-131620048D01*
X150532181Y-131620049D01*
X150532184Y-131620051D01*
X150721588Y-131716557D01*
X150923757Y-131782246D01*
X151133713Y-131815500D01*
X151133714Y-131815500D01*
X151346286Y-131815500D01*
X151346287Y-131815500D01*
X151556243Y-131782246D01*
X151758412Y-131716557D01*
X151947816Y-131620051D01*
X152005930Y-131577829D01*
X152119786Y-131495109D01*
X152119788Y-131495106D01*
X152119792Y-131495104D01*
X152270104Y-131344792D01*
X152270106Y-131344788D01*
X152270109Y-131344786D01*
X152395048Y-131172820D01*
X152395047Y-131172820D01*
X152395051Y-131172816D01*
X152491557Y-130983412D01*
X152557246Y-130781243D01*
X152590500Y-130571287D01*
X152590500Y-130358713D01*
X152557246Y-130148757D01*
X152491557Y-129946588D01*
X152395051Y-129757184D01*
X152395049Y-129757181D01*
X152395048Y-129757179D01*
X152270109Y-129585213D01*
X152119786Y-129434890D01*
X151947820Y-129309951D01*
X151947115Y-129309591D01*
X151939054Y-129305485D01*
X151888259Y-129257512D01*
X151871463Y-129189692D01*
X151893999Y-129123556D01*
X151939054Y-129084515D01*
X151947816Y-129080051D01*
X152011097Y-129034075D01*
X152119786Y-128955109D01*
X152119788Y-128955106D01*
X152119792Y-128955104D01*
X152270104Y-128804792D01*
X152270106Y-128804788D01*
X152270109Y-128804786D01*
X152395048Y-128632820D01*
X152395047Y-128632820D01*
X152395051Y-128632816D01*
X152491557Y-128443412D01*
X152557246Y-128241243D01*
X152590500Y-128031287D01*
X152590500Y-127818713D01*
X152557246Y-127608757D01*
X152491557Y-127406588D01*
X152395051Y-127217184D01*
X152395049Y-127217181D01*
X152395048Y-127217179D01*
X152270109Y-127045213D01*
X152119786Y-126894890D01*
X151947820Y-126769951D01*
X151947115Y-126769591D01*
X151939054Y-126765485D01*
X151888259Y-126717512D01*
X151871463Y-126649692D01*
X151893999Y-126583556D01*
X151939054Y-126544515D01*
X151947816Y-126540051D01*
X152034471Y-126477093D01*
X152119786Y-126415109D01*
X152119788Y-126415106D01*
X152119792Y-126415104D01*
X152270104Y-126264792D01*
X152270106Y-126264788D01*
X152270109Y-126264786D01*
X152395048Y-126092820D01*
X152395047Y-126092820D01*
X152395051Y-126092816D01*
X152491557Y-125903412D01*
X152557246Y-125701243D01*
X152590500Y-125491287D01*
X152590500Y-125278713D01*
X152557246Y-125068757D01*
X152491557Y-124866588D01*
X152395051Y-124677184D01*
X152395049Y-124677181D01*
X152395048Y-124677179D01*
X152270109Y-124505213D01*
X152119786Y-124354890D01*
X151947820Y-124229951D01*
X151758414Y-124133444D01*
X151758413Y-124133443D01*
X151758412Y-124133443D01*
X151556243Y-124067754D01*
X151556241Y-124067753D01*
X151556240Y-124067753D01*
X151394957Y-124042208D01*
X151346287Y-124034500D01*
X151133713Y-124034500D01*
X151085042Y-124042208D01*
X150923760Y-124067753D01*
X150721585Y-124133444D01*
X150532179Y-124229951D01*
X150360215Y-124354889D01*
X150246285Y-124468819D01*
X150184962Y-124502303D01*
X150115270Y-124497319D01*
X150059337Y-124455447D01*
X150042422Y-124424470D01*
X149993354Y-124292913D01*
X149993350Y-124292906D01*
X149907190Y-124177812D01*
X149907187Y-124177809D01*
X149792093Y-124091649D01*
X149792086Y-124091645D01*
X149657379Y-124041403D01*
X149657372Y-124041401D01*
X149597844Y-124035000D01*
X148950000Y-124035000D01*
X148950000Y-124951988D01*
X148892993Y-124919075D01*
X148765826Y-124885000D01*
X148634174Y-124885000D01*
X148507007Y-124919075D01*
X148450000Y-124951988D01*
X148450000Y-124035000D01*
X148273500Y-124035000D01*
X148206461Y-124015315D01*
X148160706Y-123962511D01*
X148149500Y-123911000D01*
X148149500Y-117051677D01*
X151425000Y-117051677D01*
X151425000Y-117075000D01*
X152150000Y-117075000D01*
X152150000Y-116375000D01*
X152149999Y-116374999D01*
X152101693Y-116375000D01*
X152101675Y-116375001D01*
X152002392Y-116385144D01*
X151841518Y-116438452D01*
X151841507Y-116438457D01*
X151697271Y-116527424D01*
X151697267Y-116527427D01*
X151577427Y-116647267D01*
X151577424Y-116647271D01*
X151488457Y-116791507D01*
X151488452Y-116791518D01*
X151435144Y-116952393D01*
X151425000Y-117051677D01*
X148149500Y-117051677D01*
X148149500Y-115170441D01*
X148169185Y-115103402D01*
X148221989Y-115057647D01*
X148291147Y-115047703D01*
X148354703Y-115076728D01*
X148372378Y-115097513D01*
X148372946Y-115097065D01*
X148377427Y-115102732D01*
X148497267Y-115222572D01*
X148497271Y-115222575D01*
X148641507Y-115311542D01*
X148641518Y-115311547D01*
X148802393Y-115364855D01*
X148901683Y-115374999D01*
X149450000Y-115374999D01*
X149498308Y-115374999D01*
X149498322Y-115374998D01*
X149597607Y-115364855D01*
X149758481Y-115311547D01*
X149758492Y-115311542D01*
X149902728Y-115222575D01*
X149902732Y-115222572D01*
X150022572Y-115102732D01*
X150022575Y-115102728D01*
X150111542Y-114958492D01*
X150111547Y-114958481D01*
X150164855Y-114797606D01*
X150174999Y-114698322D01*
X150175000Y-114698309D01*
X150175000Y-114675000D01*
X149450000Y-114675000D01*
X149450000Y-115374999D01*
X148901683Y-115374999D01*
X148949999Y-115374998D01*
X148950000Y-115374998D01*
X148950000Y-114549000D01*
X148969685Y-114481961D01*
X149022489Y-114436206D01*
X149074000Y-114425000D01*
X149200000Y-114425000D01*
X149200000Y-114299000D01*
X149219685Y-114231961D01*
X149272489Y-114186206D01*
X149324000Y-114175000D01*
X150174999Y-114175000D01*
X150174999Y-114149500D01*
X150194684Y-114082461D01*
X150247488Y-114036706D01*
X150298999Y-114025500D01*
X151783480Y-114025500D01*
X151850519Y-114045185D01*
X151871161Y-114061819D01*
X151964811Y-114155469D01*
X151964813Y-114155470D01*
X151964815Y-114155472D01*
X152110394Y-114243478D01*
X152272804Y-114294086D01*
X152343384Y-114300500D01*
X152343387Y-114300500D01*
X152856613Y-114300500D01*
X152856616Y-114300500D01*
X152927196Y-114294086D01*
X152993744Y-114273348D01*
X153063603Y-114272197D01*
X153122995Y-114308998D01*
X153153063Y-114372067D01*
X153144261Y-114441380D01*
X153118315Y-114479415D01*
X153029375Y-114568355D01*
X153029369Y-114568363D01*
X152947320Y-114707103D01*
X152947317Y-114707110D01*
X152902346Y-114861897D01*
X152902345Y-114861903D01*
X152899500Y-114898057D01*
X152899500Y-115301922D01*
X152899501Y-115301947D01*
X152902346Y-115338098D01*
X152939332Y-115465404D01*
X152939332Y-115534594D01*
X152902346Y-115661897D01*
X152902345Y-115661903D01*
X152899500Y-115698057D01*
X152899500Y-116101922D01*
X152899501Y-116101947D01*
X152902346Y-116138098D01*
X152928197Y-116227079D01*
X152927998Y-116296949D01*
X152890056Y-116355619D01*
X152826417Y-116384462D01*
X152796519Y-116385032D01*
X152698324Y-116375000D01*
X152650000Y-116375000D01*
X152650000Y-117075000D01*
X152866008Y-117075000D01*
X152933047Y-117094685D01*
X152972740Y-117135880D01*
X153029369Y-117231636D01*
X153029378Y-117231648D01*
X153143351Y-117345621D01*
X153143355Y-117345624D01*
X153143357Y-117345626D01*
X153143359Y-117345627D01*
X153182488Y-117368768D01*
X153230171Y-117419837D01*
X153242675Y-117488578D01*
X153216030Y-117553168D01*
X153158695Y-117593098D01*
X153145423Y-117596731D01*
X153132540Y-117599500D01*
X153105949Y-117599500D01*
X152970615Y-117626420D01*
X152931061Y-117642803D01*
X152920056Y-117645169D01*
X152895987Y-117643387D01*
X152871982Y-117645968D01*
X152861766Y-117640854D01*
X152850377Y-117640011D01*
X152831090Y-117625498D01*
X152809503Y-117614692D01*
X152807061Y-117610576D01*
X152806319Y-117611319D01*
X152770000Y-117575000D01*
X151425001Y-117575000D01*
X151425001Y-117598311D01*
X151435144Y-117697607D01*
X151488452Y-117858481D01*
X151488457Y-117858492D01*
X151577424Y-118002728D01*
X151577427Y-118002732D01*
X151586660Y-118011965D01*
X151620145Y-118073288D01*
X151615161Y-118142980D01*
X151586663Y-118187324D01*
X151577033Y-118196953D01*
X151577029Y-118196959D01*
X151488001Y-118341294D01*
X151487996Y-118341305D01*
X151434651Y-118502290D01*
X151424500Y-118601647D01*
X151424500Y-119148337D01*
X151424501Y-119148355D01*
X151434650Y-119247707D01*
X151434651Y-119247710D01*
X151487996Y-119408694D01*
X151488001Y-119408705D01*
X151577029Y-119553040D01*
X151577032Y-119553044D01*
X151696955Y-119672967D01*
X151696959Y-119672970D01*
X151841294Y-119761998D01*
X151841297Y-119761999D01*
X151841303Y-119762003D01*
X152002292Y-119815349D01*
X152101655Y-119825500D01*
X152153737Y-119825499D01*
X152220775Y-119845182D01*
X152266530Y-119897985D01*
X152275354Y-119925305D01*
X152278189Y-119939558D01*
X152278191Y-119939565D01*
X152338529Y-120085236D01*
X152338536Y-120085249D01*
X152426137Y-120216352D01*
X152426140Y-120216356D01*
X152537634Y-120327850D01*
X152537638Y-120327853D01*
X152668741Y-120415454D01*
X152668754Y-120415461D01*
X152820057Y-120478132D01*
X152819278Y-120480012D01*
X152869929Y-120513202D01*
X152898389Y-120577013D01*
X152899500Y-120593571D01*
X152899500Y-120901922D01*
X152899501Y-120901947D01*
X152902346Y-120938098D01*
X152947317Y-121092889D01*
X152947320Y-121092896D01*
X153029369Y-121231636D01*
X153029373Y-121231641D01*
X153029374Y-121231643D01*
X153125682Y-121327951D01*
X153159166Y-121389272D01*
X153162000Y-121415631D01*
X153162000Y-127605342D01*
X153152562Y-127652793D01*
X153140841Y-127681090D01*
X153140840Y-127681093D01*
X153112000Y-127826079D01*
X153112000Y-127826082D01*
X153112000Y-127973918D01*
X153112000Y-127973920D01*
X153111999Y-127973920D01*
X153140840Y-128118907D01*
X153140843Y-128118917D01*
X153152561Y-128147206D01*
X153162000Y-128194658D01*
X153162000Y-133318506D01*
X153162000Y-133456494D01*
X153162000Y-133456496D01*
X153161999Y-133456496D01*
X153188918Y-133591822D01*
X153188921Y-133591832D01*
X153241722Y-133719307D01*
X153318387Y-133834045D01*
X153318388Y-133834046D01*
X153938181Y-134453838D01*
X153971666Y-134515161D01*
X153974500Y-134541519D01*
X153974500Y-135089363D01*
X153989953Y-135206753D01*
X153989956Y-135206762D01*
X154041212Y-135330506D01*
X154050464Y-135352841D01*
X154146718Y-135478282D01*
X154272159Y-135574536D01*
X154418238Y-135635044D01*
X154535639Y-135650500D01*
X154814360Y-135650499D01*
X154814361Y-135650499D01*
X154826594Y-135648888D01*
X154931762Y-135635044D01*
X154952545Y-135626434D01*
X155022014Y-135618965D01*
X155047453Y-135626434D01*
X155068238Y-135635044D01*
X155185639Y-135650500D01*
X155464360Y-135650499D01*
X155464361Y-135650499D01*
X155476594Y-135648888D01*
X155581762Y-135635044D01*
X155602545Y-135626434D01*
X155672014Y-135618965D01*
X155675764Y-135619701D01*
X155686916Y-135622069D01*
X155718238Y-135635044D01*
X155796514Y-135645349D01*
X155801264Y-135646358D01*
X155827901Y-135660734D01*
X155855581Y-135672979D01*
X155858340Y-135677162D01*
X155862750Y-135679542D01*
X155877386Y-135706036D01*
X155894053Y-135731303D01*
X155895061Y-135738030D01*
X155896536Y-135740700D01*
X155896205Y-135745665D01*
X155899500Y-135767652D01*
X155899500Y-136405342D01*
X155890062Y-136452793D01*
X155878341Y-136481090D01*
X155878340Y-136481093D01*
X155849500Y-136626079D01*
X155849500Y-136626082D01*
X155849500Y-136773918D01*
X155849500Y-136773920D01*
X155849499Y-136773920D01*
X155878340Y-136918906D01*
X155878342Y-136918914D01*
X155890061Y-136947205D01*
X155899500Y-136994657D01*
X155899500Y-137697870D01*
X155899501Y-137697876D01*
X155905908Y-137757483D01*
X155956202Y-137892328D01*
X155956206Y-137892335D01*
X156042452Y-138007544D01*
X156042455Y-138007547D01*
X156157664Y-138093793D01*
X156157671Y-138093797D01*
X156202618Y-138110561D01*
X156292517Y-138144091D01*
X156352127Y-138150500D01*
X156847872Y-138150499D01*
X156907483Y-138144091D01*
X157042331Y-138093796D01*
X157126105Y-138031082D01*
X157191569Y-138006665D01*
X157259842Y-138021516D01*
X157274727Y-138031082D01*
X157357910Y-138093352D01*
X157357913Y-138093354D01*
X157492620Y-138143596D01*
X157492627Y-138143598D01*
X157552155Y-138149999D01*
X157552172Y-138150000D01*
X157600000Y-138150000D01*
X157600000Y-136824000D01*
X157602550Y-136815314D01*
X157601262Y-136806353D01*
X157612240Y-136782312D01*
X157619685Y-136756961D01*
X157626525Y-136751033D01*
X157630287Y-136742797D01*
X157652521Y-136728507D01*
X157672489Y-136711206D01*
X157683003Y-136708918D01*
X157689065Y-136705023D01*
X157724000Y-136700000D01*
X157876000Y-136700000D01*
X157943039Y-136719685D01*
X157988794Y-136772489D01*
X158000000Y-136824000D01*
X158000000Y-138150000D01*
X158047828Y-138150000D01*
X158047844Y-138149999D01*
X158107372Y-138143598D01*
X158107379Y-138143596D01*
X158242086Y-138093354D01*
X158242089Y-138093352D01*
X158325271Y-138031082D01*
X158343061Y-138024446D01*
X158358474Y-138013361D01*
X158375117Y-138012489D01*
X158390735Y-138006664D01*
X158409288Y-138010699D01*
X158428248Y-138009707D01*
X158448655Y-138019263D01*
X158459008Y-138021515D01*
X158461075Y-138022669D01*
X158467740Y-138026475D01*
X158557669Y-138093796D01*
X158638260Y-138123854D01*
X158646992Y-138128841D01*
X158664526Y-138147057D01*
X158684766Y-138162208D01*
X158688344Y-138171802D01*
X158695446Y-138179180D01*
X158700348Y-138203983D01*
X158709184Y-138227672D01*
X158709500Y-138236520D01*
X158709500Y-138359209D01*
X158711456Y-138371557D01*
X158740537Y-138555168D01*
X158787140Y-138698596D01*
X158801850Y-138743868D01*
X158863021Y-138863922D01*
X158891923Y-138920646D01*
X159008544Y-139081161D01*
X159148839Y-139221456D01*
X159309354Y-139338077D01*
X159309357Y-139338078D01*
X159311750Y-139339545D01*
X159312470Y-139340341D01*
X159313296Y-139340941D01*
X159313170Y-139341114D01*
X159358628Y-139391354D01*
X159370055Y-139460283D01*
X159342401Y-139524447D01*
X159284448Y-139563475D01*
X159227568Y-139567749D01*
X159049209Y-139539500D01*
X159049204Y-139539500D01*
X158850796Y-139539500D01*
X158850791Y-139539500D01*
X158654837Y-139570536D01*
X158654835Y-139570536D01*
X158654832Y-139570537D01*
X158565045Y-139599711D01*
X158466131Y-139631850D01*
X158289352Y-139721924D01*
X158289349Y-139721926D01*
X158257843Y-139744817D01*
X158128839Y-139838544D01*
X158128837Y-139838546D01*
X158128836Y-139838546D01*
X157988546Y-139978836D01*
X157988546Y-139978837D01*
X157988544Y-139978839D01*
X157947093Y-140035892D01*
X157871926Y-140139349D01*
X157871924Y-140139352D01*
X157781850Y-140316131D01*
X157764347Y-140370000D01*
X157720537Y-140504832D01*
X157720536Y-140504835D01*
X157720536Y-140504837D01*
X157689500Y-140700790D01*
X157689500Y-140899209D01*
X157717709Y-141077314D01*
X157720537Y-141095168D01*
X157746085Y-141173794D01*
X157781850Y-141283868D01*
X157810541Y-141340176D01*
X157871923Y-141460646D01*
X157988544Y-141621161D01*
X158128839Y-141761456D01*
X158289354Y-141878077D01*
X158385007Y-141926814D01*
X158466131Y-141968149D01*
X158466133Y-141968149D01*
X158466136Y-141968151D01*
X158654832Y-142029463D01*
X158752814Y-142044981D01*
X158850791Y-142060500D01*
X158850796Y-142060500D01*
X159049209Y-142060500D01*
X159138278Y-142046392D01*
X159245168Y-142029463D01*
X159433864Y-141968151D01*
X159610646Y-141878077D01*
X159771161Y-141761456D01*
X159882319Y-141650298D01*
X159943642Y-141616813D01*
X160013334Y-141621797D01*
X160057681Y-141650298D01*
X160168839Y-141761456D01*
X160329354Y-141878077D01*
X160425007Y-141926814D01*
X160506131Y-141968149D01*
X160506133Y-141968149D01*
X160506136Y-141968151D01*
X160694832Y-142029463D01*
X160792814Y-142044981D01*
X160890791Y-142060500D01*
X160890796Y-142060500D01*
X161089209Y-142060500D01*
X161178278Y-142046392D01*
X161285168Y-142029463D01*
X161473864Y-141968151D01*
X161650646Y-141878077D01*
X161811161Y-141761456D01*
X161951456Y-141621161D01*
X162068077Y-141460646D01*
X162113470Y-141371554D01*
X162136269Y-141340176D01*
X162587861Y-140888584D01*
X162610667Y-140973694D01*
X162669910Y-141076306D01*
X162753694Y-141160090D01*
X162856306Y-141219333D01*
X162941414Y-141242137D01*
X162332714Y-141850837D01*
X162332715Y-141850838D01*
X162369612Y-141877645D01*
X162546327Y-141967688D01*
X162546330Y-141967689D01*
X162734947Y-142028973D01*
X162930837Y-142060000D01*
X163129163Y-142060000D01*
X163325052Y-142028973D01*
X163513669Y-141967689D01*
X163513672Y-141967688D01*
X163690382Y-141877648D01*
X163727283Y-141850837D01*
X163727284Y-141850836D01*
X163118585Y-141242137D01*
X163203694Y-141219333D01*
X163306306Y-141160090D01*
X163390090Y-141076306D01*
X163449333Y-140973694D01*
X163472138Y-140888585D01*
X164080836Y-141497284D01*
X164080837Y-141497283D01*
X164107648Y-141460382D01*
X164197688Y-141283672D01*
X164197689Y-141283669D01*
X164258973Y-141095052D01*
X164290000Y-140899163D01*
X164290000Y-140700836D01*
X164258973Y-140504947D01*
X164197689Y-140316330D01*
X164197688Y-140316327D01*
X164107645Y-140139612D01*
X164080838Y-140102715D01*
X164080837Y-140102714D01*
X163472137Y-140711414D01*
X163449333Y-140626306D01*
X163390090Y-140523694D01*
X163306306Y-140439910D01*
X163203694Y-140380667D01*
X163118584Y-140357861D01*
X163727283Y-139749161D01*
X163727283Y-139749160D01*
X163721305Y-139744817D01*
X163678639Y-139689488D01*
X163672660Y-139619874D01*
X163705265Y-139558079D01*
X163766104Y-139523722D01*
X163794184Y-139520499D01*
X164857872Y-139520499D01*
X164917483Y-139514091D01*
X165052331Y-139463796D01*
X165167546Y-139377546D01*
X165253796Y-139262331D01*
X165304091Y-139127483D01*
X165310500Y-139067873D01*
X165310499Y-137452128D01*
X165304091Y-137392517D01*
X165269041Y-137298544D01*
X165253797Y-137257671D01*
X165253793Y-137257664D01*
X165167547Y-137142455D01*
X165167544Y-137142452D01*
X165052335Y-137056206D01*
X165052328Y-137056202D01*
X164917482Y-137005908D01*
X164917483Y-137005908D01*
X164857883Y-136999501D01*
X164857881Y-136999500D01*
X164857873Y-136999500D01*
X164857865Y-136999500D01*
X163246336Y-136999500D01*
X163179297Y-136979815D01*
X163133542Y-136927011D01*
X163123598Y-136857853D01*
X163140218Y-136811351D01*
X163168478Y-136764606D01*
X163219086Y-136602196D01*
X163225500Y-136531616D01*
X163225500Y-136212085D01*
X171231466Y-136212085D01*
X171231466Y-136212086D01*
X171247267Y-136223566D01*
X171247275Y-136223571D01*
X171408552Y-136305747D01*
X171408555Y-136305748D01*
X171580706Y-136361682D01*
X171759494Y-136390000D01*
X171940506Y-136390000D01*
X172119293Y-136361682D01*
X172291444Y-136305748D01*
X172291452Y-136305745D01*
X172452730Y-136223568D01*
X172468532Y-136212085D01*
X172468533Y-136212085D01*
X171850001Y-135593553D01*
X171850000Y-135593553D01*
X171231466Y-136212085D01*
X163225500Y-136212085D01*
X163225500Y-135868384D01*
X163219086Y-135797804D01*
X163219084Y-135797800D01*
X163217806Y-135791369D01*
X163220407Y-135790851D01*
X163219423Y-135732835D01*
X163256195Y-135673424D01*
X163319249Y-135643325D01*
X163322793Y-135642807D01*
X163354839Y-135638588D01*
X163381762Y-135635044D01*
X163527841Y-135574536D01*
X163653282Y-135478282D01*
X163749536Y-135352841D01*
X163810044Y-135206762D01*
X163817584Y-135149493D01*
X170700000Y-135149493D01*
X170700000Y-135330506D01*
X170728317Y-135509293D01*
X170784251Y-135681444D01*
X170784252Y-135681447D01*
X170866431Y-135842730D01*
X170877913Y-135858532D01*
X170877913Y-135858533D01*
X171496446Y-135240001D01*
X171496446Y-135239999D01*
X171450369Y-135193922D01*
X171500000Y-135193922D01*
X171500000Y-135286078D01*
X171523852Y-135375095D01*
X171569930Y-135454905D01*
X171635095Y-135520070D01*
X171714905Y-135566148D01*
X171803922Y-135590000D01*
X171896078Y-135590000D01*
X171985095Y-135566148D01*
X172064905Y-135520070D01*
X172130070Y-135454905D01*
X172176148Y-135375095D01*
X172200000Y-135286078D01*
X172200000Y-135239999D01*
X172203553Y-135239999D01*
X172203553Y-135240000D01*
X172822085Y-135858532D01*
X172833568Y-135842730D01*
X172915745Y-135681452D01*
X172915748Y-135681444D01*
X172971682Y-135509293D01*
X173000000Y-135330506D01*
X173000000Y-135149493D01*
X172971682Y-134970706D01*
X172915748Y-134798555D01*
X172915747Y-134798552D01*
X172833571Y-134637275D01*
X172833566Y-134637267D01*
X172822085Y-134621466D01*
X172203553Y-135239999D01*
X172200000Y-135239999D01*
X172200000Y-135193922D01*
X172176148Y-135104905D01*
X172130070Y-135025095D01*
X172064905Y-134959930D01*
X171985095Y-134913852D01*
X171896078Y-134890000D01*
X171803922Y-134890000D01*
X171714905Y-134913852D01*
X171635095Y-134959930D01*
X171569930Y-135025095D01*
X171523852Y-135104905D01*
X171500000Y-135193922D01*
X171450369Y-135193922D01*
X170877912Y-134621466D01*
X170866432Y-134637269D01*
X170784254Y-134798547D01*
X170784251Y-134798555D01*
X170728317Y-134970706D01*
X170700000Y-135149493D01*
X163817584Y-135149493D01*
X163825500Y-135089361D01*
X163825500Y-134263757D01*
X163825500Y-132581007D01*
X163823094Y-132568913D01*
X163798580Y-132445672D01*
X163798579Y-132445670D01*
X163798470Y-132445121D01*
X163804697Y-132375530D01*
X163832404Y-132333251D01*
X166703521Y-129462135D01*
X170699500Y-129462135D01*
X170699500Y-130857870D01*
X170699501Y-130857876D01*
X170705908Y-130917483D01*
X170756202Y-131052328D01*
X170756206Y-131052335D01*
X170842452Y-131167544D01*
X170842455Y-131167547D01*
X170957664Y-131253793D01*
X170957671Y-131253797D01*
X171092517Y-131304091D01*
X171092516Y-131304091D01*
X171099444Y-131304835D01*
X171152127Y-131310500D01*
X171692873Y-131310499D01*
X171759910Y-131330183D01*
X171805665Y-131382987D01*
X171815609Y-131452146D01*
X171786584Y-131515702D01*
X171727806Y-131553476D01*
X171712270Y-131556972D01*
X171580589Y-131577829D01*
X171408363Y-131633787D01*
X171408360Y-131633788D01*
X171247002Y-131716006D01*
X171100505Y-131822441D01*
X171100500Y-131822445D01*
X170972445Y-131950500D01*
X170972441Y-131950505D01*
X170866006Y-132097002D01*
X170783788Y-132258360D01*
X170783787Y-132258363D01*
X170727829Y-132430589D01*
X170699500Y-132609448D01*
X170699500Y-132790551D01*
X170727829Y-132969410D01*
X170783787Y-133141636D01*
X170783788Y-133141639D01*
X170866006Y-133302997D01*
X170972441Y-133449494D01*
X170972445Y-133449499D01*
X171100500Y-133577554D01*
X171100505Y-133577558D01*
X171120152Y-133591832D01*
X171247006Y-133683996D01*
X171352484Y-133737740D01*
X171408360Y-133766211D01*
X171408363Y-133766212D01*
X171494476Y-133794191D01*
X171580591Y-133822171D01*
X171700038Y-133841089D01*
X171742279Y-133847780D01*
X171805414Y-133877709D01*
X171842345Y-133937021D01*
X171841347Y-134006883D01*
X171802737Y-134065116D01*
X171742279Y-134092726D01*
X171580706Y-134118317D01*
X171408555Y-134174251D01*
X171408547Y-134174254D01*
X171247269Y-134256432D01*
X171231466Y-134267912D01*
X171231466Y-134267913D01*
X171850000Y-134886446D01*
X171850001Y-134886446D01*
X172468533Y-134267913D01*
X172452730Y-134256431D01*
X172291447Y-134174252D01*
X172291444Y-134174251D01*
X172119293Y-134118317D01*
X171957720Y-134092726D01*
X171894585Y-134062797D01*
X171857654Y-134003485D01*
X171858652Y-133933623D01*
X171897262Y-133875390D01*
X171957720Y-133847780D01*
X171972270Y-133845475D01*
X172119409Y-133822171D01*
X172291639Y-133766211D01*
X172452994Y-133683996D01*
X172599501Y-133577553D01*
X172727553Y-133449501D01*
X172833996Y-133302994D01*
X172916211Y-133141639D01*
X172972171Y-132969409D01*
X172988306Y-132867538D01*
X173000500Y-132790551D01*
X173000500Y-132609448D01*
X172979033Y-132473918D01*
X172972171Y-132430591D01*
X172916211Y-132258361D01*
X172916211Y-132258360D01*
X172859106Y-132146287D01*
X172833996Y-132097006D01*
X172727553Y-131950499D01*
X172710767Y-131933713D01*
X175274500Y-131933713D01*
X175274500Y-132146287D01*
X175307754Y-132356243D01*
X175354239Y-132499309D01*
X175373444Y-132558414D01*
X175469951Y-132747820D01*
X175594890Y-132919786D01*
X175745213Y-133070109D01*
X175917182Y-133195050D01*
X175925946Y-133199516D01*
X175976742Y-133247491D01*
X175993536Y-133315312D01*
X175970998Y-133381447D01*
X175925946Y-133420484D01*
X175917182Y-133424949D01*
X175745213Y-133549890D01*
X175594890Y-133700213D01*
X175469951Y-133872179D01*
X175373444Y-134061585D01*
X175307753Y-134263760D01*
X175277648Y-134453838D01*
X175274500Y-134473713D01*
X175274500Y-134686287D01*
X175307754Y-134896243D01*
X175370505Y-135089371D01*
X175373444Y-135098414D01*
X175469951Y-135287820D01*
X175594890Y-135459786D01*
X175745213Y-135610109D01*
X175917182Y-135735050D01*
X175925946Y-135739516D01*
X175976742Y-135787491D01*
X175993536Y-135855312D01*
X175970998Y-135921447D01*
X175925946Y-135960484D01*
X175917182Y-135964949D01*
X175745213Y-136089890D01*
X175594890Y-136240213D01*
X175469951Y-136412179D01*
X175373444Y-136601585D01*
X175307753Y-136803760D01*
X175281425Y-136969993D01*
X175274500Y-137013713D01*
X175274500Y-137226287D01*
X175307754Y-137436243D01*
X175312915Y-137452128D01*
X175373444Y-137638414D01*
X175469951Y-137827820D01*
X175594890Y-137999786D01*
X175745213Y-138150109D01*
X175917179Y-138275048D01*
X175917181Y-138275049D01*
X175917184Y-138275051D01*
X176106588Y-138371557D01*
X176308757Y-138437246D01*
X176518713Y-138470500D01*
X176518714Y-138470500D01*
X176731286Y-138470500D01*
X176731287Y-138470500D01*
X176941243Y-138437246D01*
X177143412Y-138371557D01*
X177332816Y-138275051D01*
X177398028Y-138227672D01*
X177504786Y-138150109D01*
X177504788Y-138150106D01*
X177504792Y-138150104D01*
X177655104Y-137999792D01*
X177655106Y-137999788D01*
X177655109Y-137999786D01*
X177780048Y-137827820D01*
X177780047Y-137827820D01*
X177780051Y-137827816D01*
X177876557Y-137638412D01*
X177942246Y-137436243D01*
X177975500Y-137226287D01*
X177975500Y-137013713D01*
X177942246Y-136803757D01*
X177876557Y-136601588D01*
X177780051Y-136412184D01*
X177780049Y-136412181D01*
X177780048Y-136412179D01*
X177655109Y-136240213D01*
X177504786Y-136089890D01*
X177332820Y-135964951D01*
X177332115Y-135964591D01*
X177324054Y-135960485D01*
X177273259Y-135912512D01*
X177256463Y-135844692D01*
X177278999Y-135778556D01*
X177324054Y-135739515D01*
X177332816Y-135735051D01*
X177378132Y-135702127D01*
X177504786Y-135610109D01*
X177504788Y-135610106D01*
X177504792Y-135610104D01*
X177655104Y-135459792D01*
X177655106Y-135459788D01*
X177655109Y-135459786D01*
X177764086Y-135309789D01*
X177780051Y-135287816D01*
X177876557Y-135098412D01*
X177942246Y-134896243D01*
X177975500Y-134686287D01*
X177975500Y-134473713D01*
X177942246Y-134263757D01*
X177876557Y-134061588D01*
X177780051Y-133872184D01*
X177780049Y-133872181D01*
X177780048Y-133872179D01*
X177655109Y-133700213D01*
X177504786Y-133549890D01*
X177332820Y-133424951D01*
X177332115Y-133424591D01*
X177324054Y-133420485D01*
X177273259Y-133372512D01*
X177256463Y-133304692D01*
X177278999Y-133238556D01*
X177324054Y-133199515D01*
X177332816Y-133195051D01*
X177451760Y-133108634D01*
X177504786Y-133070109D01*
X177504788Y-133070106D01*
X177504792Y-133070104D01*
X177655104Y-132919792D01*
X177655106Y-132919788D01*
X177655109Y-132919786D01*
X177778827Y-132749501D01*
X177780051Y-132747816D01*
X177876557Y-132558412D01*
X177942246Y-132356243D01*
X177975500Y-132146287D01*
X177975500Y-131933713D01*
X177942246Y-131723757D01*
X177876557Y-131521588D01*
X177780051Y-131332184D01*
X177780049Y-131332181D01*
X177780048Y-131332179D01*
X177655109Y-131160213D01*
X177541181Y-131046285D01*
X177507696Y-130984962D01*
X177512680Y-130915270D01*
X177554552Y-130859337D01*
X177585529Y-130842422D01*
X177717086Y-130793354D01*
X177717093Y-130793350D01*
X177832187Y-130707190D01*
X177832190Y-130707187D01*
X177918350Y-130592093D01*
X177918354Y-130592086D01*
X177968596Y-130457379D01*
X177968598Y-130457372D01*
X177974999Y-130397844D01*
X177975000Y-130397827D01*
X177975000Y-129750000D01*
X177058012Y-129750000D01*
X177090925Y-129692993D01*
X177125000Y-129565826D01*
X177125000Y-129434174D01*
X177090925Y-129307007D01*
X177058012Y-129250000D01*
X177975000Y-129250000D01*
X177975000Y-128602172D01*
X177974999Y-128602155D01*
X177968598Y-128542627D01*
X177968596Y-128542620D01*
X177918354Y-128407913D01*
X177918350Y-128407906D01*
X177832190Y-128292812D01*
X177832187Y-128292809D01*
X177717093Y-128206649D01*
X177717086Y-128206645D01*
X177582379Y-128156403D01*
X177582372Y-128156401D01*
X177522844Y-128150000D01*
X176875000Y-128150000D01*
X176875000Y-129066988D01*
X176817993Y-129034075D01*
X176690826Y-129000000D01*
X176559174Y-129000000D01*
X176432007Y-129034075D01*
X176375000Y-129066988D01*
X176375000Y-128150000D01*
X175727155Y-128150000D01*
X175667627Y-128156401D01*
X175667620Y-128156403D01*
X175532913Y-128206645D01*
X175532906Y-128206649D01*
X175417812Y-128292809D01*
X175417809Y-128292812D01*
X175331649Y-128407906D01*
X175331645Y-128407913D01*
X175281403Y-128542620D01*
X175281401Y-128542627D01*
X175275000Y-128602155D01*
X175275000Y-129250000D01*
X176191988Y-129250000D01*
X176159075Y-129307007D01*
X176125000Y-129434174D01*
X176125000Y-129565826D01*
X176159075Y-129692993D01*
X176191988Y-129750000D01*
X175275000Y-129750000D01*
X175275000Y-130397844D01*
X175281401Y-130457372D01*
X175281403Y-130457379D01*
X175331645Y-130592086D01*
X175331649Y-130592093D01*
X175417809Y-130707187D01*
X175417812Y-130707190D01*
X175532906Y-130793350D01*
X175532913Y-130793354D01*
X175664470Y-130842422D01*
X175720404Y-130884293D01*
X175744821Y-130949758D01*
X175729969Y-131018031D01*
X175708819Y-131046285D01*
X175594889Y-131160215D01*
X175469951Y-131332179D01*
X175373444Y-131521585D01*
X175307753Y-131723760D01*
X175298490Y-131782246D01*
X175274500Y-131933713D01*
X172710767Y-131933713D01*
X172599501Y-131822447D01*
X172599499Y-131822445D01*
X172599494Y-131822441D01*
X172452997Y-131716006D01*
X172452996Y-131716005D01*
X172452994Y-131716004D01*
X172401300Y-131689664D01*
X172291639Y-131633788D01*
X172291636Y-131633787D01*
X172119410Y-131577829D01*
X171987728Y-131556972D01*
X171924594Y-131527042D01*
X171887663Y-131467731D01*
X171888661Y-131397868D01*
X171927271Y-131339636D01*
X171991235Y-131311522D01*
X172007120Y-131310499D01*
X172547872Y-131310499D01*
X172607483Y-131304091D01*
X172742331Y-131253796D01*
X172857546Y-131167546D01*
X172943796Y-131052331D01*
X172994091Y-130917483D01*
X173000500Y-130857873D01*
X173000499Y-129462128D01*
X172994091Y-129402517D01*
X172959565Y-129309949D01*
X172943797Y-129267671D01*
X172943793Y-129267664D01*
X172857547Y-129152455D01*
X172857544Y-129152452D01*
X172742335Y-129066206D01*
X172742328Y-129066202D01*
X172607482Y-129015908D01*
X172607483Y-129015908D01*
X172547883Y-129009501D01*
X172547881Y-129009500D01*
X172547873Y-129009500D01*
X172547864Y-129009500D01*
X171152129Y-129009500D01*
X171152123Y-129009501D01*
X171092516Y-129015908D01*
X170957671Y-129066202D01*
X170957664Y-129066206D01*
X170842455Y-129152452D01*
X170842452Y-129152455D01*
X170756206Y-129267664D01*
X170756202Y-129267671D01*
X170705908Y-129402517D01*
X170699501Y-129462116D01*
X170699501Y-129462123D01*
X170699500Y-129462135D01*
X166703521Y-129462135D01*
X172294114Y-123871543D01*
X172370775Y-123756811D01*
X172423580Y-123629328D01*
X172448585Y-123503621D01*
X172450500Y-123493996D01*
X172450500Y-122891519D01*
X172459127Y-122862138D01*
X172465608Y-122832201D01*
X172469413Y-122827106D01*
X172470185Y-122824480D01*
X172486731Y-122803926D01*
X172487232Y-122803424D01*
X172548520Y-122769879D01*
X172618216Y-122774794D01*
X172662680Y-122803338D01*
X172764811Y-122905469D01*
X172764813Y-122905470D01*
X172764815Y-122905472D01*
X172910394Y-122993478D01*
X173072804Y-123044086D01*
X173143384Y-123050500D01*
X173143387Y-123050500D01*
X173656613Y-123050500D01*
X173656616Y-123050500D01*
X173727196Y-123044086D01*
X173889606Y-122993478D01*
X173889608Y-122993476D01*
X173896767Y-122991246D01*
X173897363Y-122993161D01*
X173956380Y-122984992D01*
X174019782Y-123014350D01*
X174025770Y-123019955D01*
X174067786Y-123061971D01*
X174168088Y-123134843D01*
X174233390Y-123182287D01*
X174324840Y-123228883D01*
X174326080Y-123229515D01*
X174376876Y-123277490D01*
X174393671Y-123345311D01*
X174371134Y-123411446D01*
X174326080Y-123450485D01*
X174233386Y-123497715D01*
X174067786Y-123618028D01*
X173923028Y-123762786D01*
X173802715Y-123928386D01*
X173709781Y-124110776D01*
X173646522Y-124305465D01*
X173614500Y-124507648D01*
X173614500Y-124712351D01*
X173646522Y-124914534D01*
X173709781Y-125109223D01*
X173773691Y-125234653D01*
X173802585Y-125291359D01*
X173802715Y-125291613D01*
X173923028Y-125457213D01*
X174067786Y-125601971D01*
X174204425Y-125701243D01*
X174233390Y-125722287D01*
X174349607Y-125781503D01*
X174415776Y-125815218D01*
X174415778Y-125815218D01*
X174415781Y-125815220D01*
X174520137Y-125849127D01*
X174610465Y-125878477D01*
X174711557Y-125894488D01*
X174812648Y-125910500D01*
X174812649Y-125910500D01*
X175017351Y-125910500D01*
X175017352Y-125910500D01*
X175219534Y-125878477D01*
X175414219Y-125815220D01*
X175596610Y-125722287D01*
X175699260Y-125647708D01*
X175762213Y-125601971D01*
X175762215Y-125601968D01*
X175762219Y-125601966D01*
X175906966Y-125457219D01*
X175906968Y-125457215D01*
X175906971Y-125457213D01*
X175970168Y-125370228D01*
X176027287Y-125291610D01*
X176120220Y-125109219D01*
X176183477Y-124914534D01*
X176215500Y-124712352D01*
X176215500Y-124507648D01*
X176214654Y-124502303D01*
X176183477Y-124305465D01*
X176135157Y-124156753D01*
X176120220Y-124110781D01*
X176120218Y-124110778D01*
X176120218Y-124110776D01*
X176081353Y-124034500D01*
X176027287Y-123928390D01*
X176001086Y-123892327D01*
X175906971Y-123762786D01*
X175762213Y-123618028D01*
X175596614Y-123497715D01*
X175589311Y-123493994D01*
X175503917Y-123450483D01*
X175453123Y-123402511D01*
X175436328Y-123334690D01*
X175458865Y-123268555D01*
X175503917Y-123229516D01*
X175596610Y-123182287D01*
X175661912Y-123134843D01*
X175762213Y-123061971D01*
X175762215Y-123061968D01*
X175762219Y-123061966D01*
X175906966Y-122917219D01*
X175906968Y-122917215D01*
X175906971Y-122917213D01*
X175974447Y-122824338D01*
X176027287Y-122751610D01*
X176120220Y-122569219D01*
X176183477Y-122374534D01*
X176215500Y-122172352D01*
X176215500Y-121967648D01*
X176183477Y-121765466D01*
X176167549Y-121716446D01*
X176127262Y-121592454D01*
X176120220Y-121570781D01*
X176120218Y-121570778D01*
X176120218Y-121570776D01*
X176076215Y-121484417D01*
X176027287Y-121388390D01*
X176010159Y-121364815D01*
X175906971Y-121222786D01*
X175762213Y-121078028D01*
X175596614Y-120957715D01*
X175558113Y-120938098D01*
X175503917Y-120910483D01*
X175453123Y-120862511D01*
X175436328Y-120794690D01*
X175458865Y-120728555D01*
X175503917Y-120689516D01*
X175596610Y-120642287D01*
X175629341Y-120618507D01*
X175762213Y-120521971D01*
X175762215Y-120521968D01*
X175762219Y-120521966D01*
X175906966Y-120377219D01*
X175906968Y-120377215D01*
X175906971Y-120377213D01*
X175978556Y-120278683D01*
X176027287Y-120211610D01*
X176120220Y-120029219D01*
X176183477Y-119834534D01*
X176215500Y-119632352D01*
X176215500Y-119427648D01*
X176207315Y-119375972D01*
X176183477Y-119225465D01*
X176120218Y-119030776D01*
X176086503Y-118964607D01*
X176027287Y-118848390D01*
X175981054Y-118784755D01*
X175906971Y-118682786D01*
X175762213Y-118538028D01*
X175596614Y-118417715D01*
X175560865Y-118399500D01*
X175503917Y-118370483D01*
X175453123Y-118322511D01*
X175436328Y-118254690D01*
X175458865Y-118188555D01*
X175503917Y-118149516D01*
X175596610Y-118102287D01*
X175667376Y-118050873D01*
X175762213Y-117981971D01*
X175762215Y-117981968D01*
X175762219Y-117981966D01*
X175906966Y-117837219D01*
X175906968Y-117837215D01*
X175906971Y-117837213D01*
X175976373Y-117741687D01*
X176027287Y-117671610D01*
X176120220Y-117489219D01*
X176183477Y-117294534D01*
X176215500Y-117092352D01*
X176215500Y-116887648D01*
X176209833Y-116851865D01*
X176183477Y-116685465D01*
X176140295Y-116552567D01*
X176120220Y-116490781D01*
X176120218Y-116490778D01*
X176120218Y-116490776D01*
X176075668Y-116403343D01*
X176027287Y-116308390D01*
X175996056Y-116265404D01*
X175906971Y-116142786D01*
X175762217Y-115998032D01*
X175762212Y-115998028D01*
X175666615Y-115928573D01*
X175663274Y-115924241D01*
X175658297Y-115921968D01*
X175642164Y-115896865D01*
X175623949Y-115873243D01*
X175622696Y-115866571D01*
X175620523Y-115863190D01*
X175615500Y-115828255D01*
X175615500Y-115681477D01*
X175617883Y-115657284D01*
X175625500Y-115618994D01*
X175625500Y-115131004D01*
X175598581Y-114995676D01*
X175598580Y-114995674D01*
X175598580Y-114995672D01*
X175588585Y-114971543D01*
X175573835Y-114935931D01*
X175545775Y-114868189D01*
X175481486Y-114771973D01*
X175478589Y-114766542D01*
X175472697Y-114738112D01*
X175464021Y-114710403D01*
X175465692Y-114704311D01*
X175464410Y-114698126D01*
X175474825Y-114671018D01*
X175482506Y-114643023D01*
X175487500Y-114638031D01*
X175489470Y-114632906D01*
X175501339Y-114624201D01*
X175522904Y-114602651D01*
X175652733Y-114522571D01*
X175772573Y-114402731D01*
X175856965Y-114265913D01*
X175861543Y-114258488D01*
X175861547Y-114258481D01*
X175914855Y-114097606D01*
X175924999Y-113998322D01*
X175925000Y-113998309D01*
X175925000Y-113950000D01*
X175099000Y-113950000D01*
X175031961Y-113930315D01*
X174986206Y-113877511D01*
X174975000Y-113826000D01*
X174975000Y-113700000D01*
X174849000Y-113700000D01*
X174781961Y-113680315D01*
X174736206Y-113627511D01*
X174725000Y-113576000D01*
X174725000Y-113450000D01*
X175225000Y-113450000D01*
X175924999Y-113450000D01*
X175924999Y-113401692D01*
X175924998Y-113401677D01*
X175914855Y-113302392D01*
X175861547Y-113141518D01*
X175861542Y-113141507D01*
X175772575Y-112997271D01*
X175772572Y-112997267D01*
X175652732Y-112877427D01*
X175652728Y-112877424D01*
X175508492Y-112788457D01*
X175508481Y-112788452D01*
X175347606Y-112735144D01*
X175248322Y-112725000D01*
X175225000Y-112725000D01*
X175225000Y-113450000D01*
X174725000Y-113450000D01*
X174725000Y-112724999D01*
X174701693Y-112725000D01*
X174701674Y-112725001D01*
X174602392Y-112735144D01*
X174441518Y-112788452D01*
X174441507Y-112788457D01*
X174297271Y-112877424D01*
X174297265Y-112877428D01*
X174288031Y-112886663D01*
X174226707Y-112920146D01*
X174157015Y-112915159D01*
X174112672Y-112886660D01*
X174103044Y-112877032D01*
X174103040Y-112877029D01*
X173958705Y-112788001D01*
X173958699Y-112787998D01*
X173958697Y-112787997D01*
X173953144Y-112786157D01*
X173797709Y-112734651D01*
X173698346Y-112724500D01*
X173151662Y-112724500D01*
X173151644Y-112724501D01*
X173052292Y-112734650D01*
X173052289Y-112734651D01*
X172891305Y-112787996D01*
X172891296Y-112788000D01*
X172815902Y-112834504D01*
X172748510Y-112852944D01*
X172681846Y-112832021D01*
X172644074Y-112792086D01*
X172618083Y-112748138D01*
X172618076Y-112748129D01*
X172501870Y-112631923D01*
X172501862Y-112631917D01*
X172360396Y-112548255D01*
X172360393Y-112548254D01*
X172202573Y-112502402D01*
X172202567Y-112502401D01*
X172165701Y-112499500D01*
X172165694Y-112499500D01*
X171734306Y-112499500D01*
X171734298Y-112499500D01*
X171697422Y-112502402D01*
X171696768Y-112502522D01*
X171696399Y-112502483D01*
X171691114Y-112502899D01*
X171691036Y-112501917D01*
X171676764Y-112500412D01*
X171656853Y-112503276D01*
X171642725Y-112496824D01*
X171627283Y-112495196D01*
X171611595Y-112482607D01*
X171593297Y-112474251D01*
X171584900Y-112461186D01*
X171572789Y-112451467D01*
X171566397Y-112432393D01*
X171555523Y-112415473D01*
X171551612Y-112388276D01*
X171550588Y-112385219D01*
X171550500Y-112380538D01*
X171550500Y-112376751D01*
X171570185Y-112309712D01*
X171601614Y-112276433D01*
X171699792Y-112205104D01*
X171850104Y-112054792D01*
X171850106Y-112054788D01*
X171850109Y-112054786D01*
X171963656Y-111898500D01*
X171975051Y-111882816D01*
X172019369Y-111795837D01*
X176586500Y-111795837D01*
X176586500Y-112024162D01*
X176622215Y-112249660D01*
X176692770Y-112466803D01*
X176796421Y-112670228D01*
X176930621Y-112854937D01*
X177092063Y-113016379D01*
X177179616Y-113079990D01*
X177222280Y-113135319D01*
X177228259Y-113204933D01*
X177204766Y-113249456D01*
X177203689Y-113263136D01*
X177866766Y-113926212D01*
X177824708Y-113937482D01*
X177699292Y-114009890D01*
X177596890Y-114112292D01*
X177524482Y-114237708D01*
X177513212Y-114279765D01*
X176850136Y-113616689D01*
X176850135Y-113616689D01*
X176796849Y-113690033D01*
X176796848Y-113690035D01*
X176693230Y-113893395D01*
X176622704Y-114110455D01*
X176587000Y-114335883D01*
X176587000Y-114564116D01*
X176622704Y-114789544D01*
X176693230Y-115006604D01*
X176796851Y-115209969D01*
X176850135Y-115283309D01*
X176850137Y-115283309D01*
X177513212Y-114620234D01*
X177524482Y-114662292D01*
X177596890Y-114787708D01*
X177699292Y-114890110D01*
X177824708Y-114962518D01*
X177866765Y-114973787D01*
X177203688Y-115636862D01*
X177204892Y-115652152D01*
X177222281Y-115674702D01*
X177228260Y-115744315D01*
X177195655Y-115806110D01*
X177179617Y-115820008D01*
X177092063Y-115883620D01*
X176930622Y-116045061D01*
X176796421Y-116229771D01*
X176692770Y-116433196D01*
X176622215Y-116650339D01*
X176586500Y-116875837D01*
X176586500Y-117104162D01*
X176622215Y-117329660D01*
X176692770Y-117546803D01*
X176774878Y-117707948D01*
X176796421Y-117750228D01*
X176930621Y-117934937D01*
X177092063Y-118096379D01*
X177104610Y-118105495D01*
X177179191Y-118159683D01*
X177221857Y-118215013D01*
X177227835Y-118284627D01*
X177195228Y-118346421D01*
X177179191Y-118360317D01*
X177092069Y-118423616D01*
X177092060Y-118423623D01*
X176930622Y-118585061D01*
X176796421Y-118769771D01*
X176692770Y-118973196D01*
X176622215Y-119190339D01*
X176586500Y-119415837D01*
X176586500Y-119644162D01*
X176622215Y-119869660D01*
X176692770Y-120086803D01*
X176791761Y-120281082D01*
X176796421Y-120290228D01*
X176930621Y-120474937D01*
X177092063Y-120636379D01*
X177179616Y-120699990D01*
X177222280Y-120755319D01*
X177228259Y-120824933D01*
X177204766Y-120869456D01*
X177203689Y-120883136D01*
X177866766Y-121546212D01*
X177824708Y-121557482D01*
X177699292Y-121629890D01*
X177596890Y-121732292D01*
X177524482Y-121857708D01*
X177513212Y-121899765D01*
X176850136Y-121236689D01*
X176850135Y-121236689D01*
X176796849Y-121310033D01*
X176796848Y-121310035D01*
X176693230Y-121513395D01*
X176622704Y-121730455D01*
X176587000Y-121955883D01*
X176587000Y-122184116D01*
X176622704Y-122409544D01*
X176693230Y-122626604D01*
X176796851Y-122829969D01*
X176850135Y-122903309D01*
X176850137Y-122903309D01*
X177513212Y-122240234D01*
X177524482Y-122282292D01*
X177596890Y-122407708D01*
X177699292Y-122510110D01*
X177824708Y-122582518D01*
X177866765Y-122593787D01*
X177203688Y-123256862D01*
X177204892Y-123272152D01*
X177222281Y-123294702D01*
X177228260Y-123364315D01*
X177195655Y-123426110D01*
X177179617Y-123440008D01*
X177092063Y-123503620D01*
X176930622Y-123665061D01*
X176796421Y-123849771D01*
X176692770Y-124053196D01*
X176622215Y-124270339D01*
X176586500Y-124495837D01*
X176586500Y-124724162D01*
X176622215Y-124949660D01*
X176692770Y-125166803D01*
X176785350Y-125348500D01*
X176796421Y-125370228D01*
X176930621Y-125554937D01*
X177092063Y-125716379D01*
X177276772Y-125850579D01*
X177331525Y-125878477D01*
X177480196Y-125954229D01*
X177480198Y-125954229D01*
X177480201Y-125954231D01*
X177554730Y-125978447D01*
X177697339Y-126024784D01*
X177922838Y-126060500D01*
X177922843Y-126060500D01*
X178151162Y-126060500D01*
X178376660Y-126024784D01*
X178408215Y-126014531D01*
X178593799Y-125954231D01*
X178797228Y-125850579D01*
X178981937Y-125716379D01*
X179143379Y-125554937D01*
X179277579Y-125370228D01*
X179381231Y-125166799D01*
X179451784Y-124949660D01*
X179456628Y-124919075D01*
X179487500Y-124724162D01*
X179487500Y-124495837D01*
X179451784Y-124270339D01*
X179399938Y-124110776D01*
X179381231Y-124053201D01*
X179381229Y-124053198D01*
X179381229Y-124053196D01*
X179299262Y-123892327D01*
X179277579Y-123849772D01*
X179143379Y-123665063D01*
X178981937Y-123503621D01*
X178974397Y-123498143D01*
X178894382Y-123440007D01*
X178851716Y-123384677D01*
X178845738Y-123315064D01*
X178869234Y-123270534D01*
X178870310Y-123256862D01*
X178207234Y-122593787D01*
X178249292Y-122582518D01*
X178374708Y-122510110D01*
X178477110Y-122407708D01*
X178549518Y-122282292D01*
X178560787Y-122240234D01*
X179223862Y-122903310D01*
X179223862Y-122903309D01*
X179277150Y-122829966D01*
X179380769Y-122626604D01*
X179451295Y-122409544D01*
X179487000Y-122184116D01*
X179487000Y-121955883D01*
X179451295Y-121730455D01*
X179380769Y-121513395D01*
X179277148Y-121310030D01*
X179223863Y-121236689D01*
X179223862Y-121236688D01*
X178560787Y-121899764D01*
X178549518Y-121857708D01*
X178477110Y-121732292D01*
X178374708Y-121629890D01*
X178249292Y-121557482D01*
X178207233Y-121546212D01*
X178870309Y-120883137D01*
X178869105Y-120867845D01*
X178851717Y-120845295D01*
X178845739Y-120775681D01*
X178878346Y-120713887D01*
X178894380Y-120699992D01*
X178981937Y-120636379D01*
X179143379Y-120474937D01*
X179277579Y-120290228D01*
X179381231Y-120086799D01*
X179451784Y-119869660D01*
X179455661Y-119845182D01*
X179487500Y-119644162D01*
X179487500Y-119415837D01*
X179451784Y-119190339D01*
X179394221Y-119013181D01*
X179381231Y-118973201D01*
X179381229Y-118973198D01*
X179381229Y-118973196D01*
X179305464Y-118824500D01*
X179277579Y-118769772D01*
X179143379Y-118585063D01*
X178981937Y-118423621D01*
X178894807Y-118360317D01*
X178852143Y-118304988D01*
X178846164Y-118235374D01*
X178878770Y-118173579D01*
X178894807Y-118159683D01*
X178981937Y-118096379D01*
X179143379Y-117934937D01*
X179277579Y-117750228D01*
X179381231Y-117546799D01*
X179451784Y-117329660D01*
X179456790Y-117298052D01*
X179487500Y-117104162D01*
X179487500Y-116875837D01*
X179451784Y-116650339D01*
X179408032Y-116515686D01*
X179381231Y-116433201D01*
X179381229Y-116433198D01*
X179381229Y-116433196D01*
X179317633Y-116308383D01*
X179277579Y-116229772D01*
X179143379Y-116045063D01*
X178981937Y-115883621D01*
X178958470Y-115866571D01*
X178894382Y-115820007D01*
X178851716Y-115764677D01*
X178845738Y-115695064D01*
X178869234Y-115650534D01*
X178870310Y-115636862D01*
X178207234Y-114973787D01*
X178249292Y-114962518D01*
X178374708Y-114890110D01*
X178477110Y-114787708D01*
X178549518Y-114662292D01*
X178560787Y-114620234D01*
X179223862Y-115283310D01*
X179223862Y-115283309D01*
X179277150Y-115209966D01*
X179380769Y-115006604D01*
X179451295Y-114789544D01*
X179487000Y-114564116D01*
X179487000Y-114335883D01*
X179451295Y-114110455D01*
X179380769Y-113893395D01*
X179277148Y-113690030D01*
X179223863Y-113616689D01*
X179223862Y-113616688D01*
X178560787Y-114279764D01*
X178549518Y-114237708D01*
X178477110Y-114112292D01*
X178374708Y-114009890D01*
X178249292Y-113937482D01*
X178207233Y-113926212D01*
X178870309Y-113263137D01*
X178869105Y-113247845D01*
X178851717Y-113225295D01*
X178845739Y-113155681D01*
X178878346Y-113093887D01*
X178894380Y-113079992D01*
X178981937Y-113016379D01*
X179143379Y-112854937D01*
X179277579Y-112670228D01*
X179380213Y-112468797D01*
X179381229Y-112466803D01*
X179381229Y-112466802D01*
X179381231Y-112466799D01*
X179451784Y-112249660D01*
X179458840Y-112205109D01*
X179487500Y-112024162D01*
X179487500Y-111795837D01*
X179451784Y-111570339D01*
X179381229Y-111353196D01*
X179290433Y-111175000D01*
X179277579Y-111149772D01*
X179143379Y-110965063D01*
X178981937Y-110803621D01*
X178797228Y-110669421D01*
X178772036Y-110656585D01*
X178593803Y-110565770D01*
X178376660Y-110495215D01*
X178151162Y-110459500D01*
X178151157Y-110459500D01*
X177922843Y-110459500D01*
X177922838Y-110459500D01*
X177697339Y-110495215D01*
X177480196Y-110565770D01*
X177276771Y-110669421D01*
X177092061Y-110803622D01*
X176930622Y-110965061D01*
X176796421Y-111149771D01*
X176692770Y-111353196D01*
X176622215Y-111570339D01*
X176586500Y-111795837D01*
X172019369Y-111795837D01*
X172071557Y-111693412D01*
X172137246Y-111491243D01*
X172170500Y-111281287D01*
X172170500Y-111068713D01*
X172137246Y-110858757D01*
X172071557Y-110656588D01*
X171975051Y-110467184D01*
X171975049Y-110467181D01*
X171975048Y-110467179D01*
X171850109Y-110295213D01*
X171699786Y-110144890D01*
X171527819Y-110019951D01*
X171527818Y-110019950D01*
X171527816Y-110019949D01*
X171387275Y-109948340D01*
X171361065Y-109934985D01*
X171310269Y-109887010D01*
X171293474Y-109819189D01*
X171316011Y-109753054D01*
X171370727Y-109709603D01*
X171417360Y-109700500D01*
X179541203Y-109700500D01*
X179608242Y-109720185D01*
G37*
G04 #@! TD.AperFunction*
G04 #@! TA.AperFunction,Conductor*
G36*
X162358159Y-139501000D02*
G01*
X162411611Y-139545996D01*
X162432251Y-139612747D01*
X162413526Y-139680061D01*
X162373052Y-139720246D01*
X162369619Y-139722349D01*
X162332715Y-139749160D01*
X162332715Y-139749161D01*
X162941415Y-140357861D01*
X162856306Y-140380667D01*
X162753694Y-140439910D01*
X162669910Y-140523694D01*
X162610667Y-140626306D01*
X162587861Y-140711414D01*
X162136269Y-140259822D01*
X162113466Y-140228437D01*
X162068077Y-140139354D01*
X161951456Y-139978839D01*
X161811161Y-139838544D01*
X161650646Y-139721923D01*
X161650645Y-139721922D01*
X161650639Y-139721918D01*
X161648245Y-139720451D01*
X161647525Y-139719656D01*
X161646704Y-139719059D01*
X161646829Y-139718886D01*
X161601369Y-139668640D01*
X161589945Y-139599711D01*
X161617601Y-139535547D01*
X161675556Y-139496522D01*
X161732429Y-139492250D01*
X161787048Y-139500900D01*
X161910791Y-139520500D01*
X161910796Y-139520500D01*
X162109209Y-139520500D01*
X162288866Y-139492045D01*
X162358159Y-139501000D01*
G37*
G04 #@! TD.AperFunction*
G04 #@! TA.AperFunction,Conductor*
G36*
X160316861Y-139501204D02*
G01*
X160370313Y-139546200D01*
X160390953Y-139612952D01*
X160372228Y-139680266D01*
X160333238Y-139718979D01*
X160333296Y-139719059D01*
X160332784Y-139719430D01*
X160331761Y-139720447D01*
X160329361Y-139721917D01*
X160228923Y-139794890D01*
X160168839Y-139838544D01*
X160168837Y-139838546D01*
X160168836Y-139838546D01*
X160057681Y-139949702D01*
X159996358Y-139983187D01*
X159926666Y-139978203D01*
X159882319Y-139949702D01*
X159771163Y-139838546D01*
X159771161Y-139838544D01*
X159610646Y-139721923D01*
X159610645Y-139721922D01*
X159610639Y-139721918D01*
X159608245Y-139720451D01*
X159607525Y-139719656D01*
X159606704Y-139719059D01*
X159606829Y-139718886D01*
X159561369Y-139668640D01*
X159549945Y-139599711D01*
X159577601Y-139535547D01*
X159635556Y-139496522D01*
X159692429Y-139492250D01*
X159747048Y-139500900D01*
X159870791Y-139520500D01*
X159870796Y-139520500D01*
X160069209Y-139520500D01*
X160177873Y-139503288D01*
X160247569Y-139492250D01*
X160316861Y-139501204D01*
G37*
G04 #@! TD.AperFunction*
G04 #@! TA.AperFunction,Conductor*
G36*
X161006974Y-139079911D02*
G01*
X161033334Y-139081797D01*
X161042387Y-139087615D01*
X161049427Y-139089147D01*
X161077681Y-139110298D01*
X161188839Y-139221456D01*
X161349354Y-139338077D01*
X161349357Y-139338078D01*
X161351750Y-139339545D01*
X161352470Y-139340341D01*
X161353296Y-139340941D01*
X161353170Y-139341114D01*
X161398628Y-139391354D01*
X161410055Y-139460283D01*
X161382401Y-139524447D01*
X161324448Y-139563475D01*
X161267568Y-139567749D01*
X161089209Y-139539500D01*
X161089204Y-139539500D01*
X160890796Y-139539500D01*
X160890791Y-139539500D01*
X160712431Y-139567749D01*
X160643137Y-139558794D01*
X160589685Y-139513798D01*
X160569046Y-139447046D01*
X160587771Y-139379733D01*
X160626763Y-139341022D01*
X160626704Y-139340941D01*
X160627229Y-139340559D01*
X160628256Y-139339540D01*
X160630622Y-139338089D01*
X160630646Y-139338077D01*
X160791161Y-139221456D01*
X160902319Y-139110298D01*
X160910264Y-139105959D01*
X160915690Y-139098712D01*
X160940449Y-139089477D01*
X160963642Y-139076813D01*
X160972671Y-139077458D01*
X160981154Y-139074295D01*
X161006974Y-139079911D01*
G37*
G04 #@! TD.AperFunction*
G04 #@! TA.AperFunction,Conductor*
G36*
X158724972Y-132419185D02*
G01*
X158770727Y-132471989D01*
X158779550Y-132499309D01*
X158799839Y-132601309D01*
X158793612Y-132670900D01*
X158750749Y-132726078D01*
X158684859Y-132749322D01*
X158678223Y-132749500D01*
X158435636Y-132749500D01*
X158318246Y-132764953D01*
X158318234Y-132764957D01*
X158297450Y-132773566D01*
X158227981Y-132781033D01*
X158202550Y-132773566D01*
X158181765Y-132764957D01*
X158181760Y-132764955D01*
X158064361Y-132749500D01*
X157785636Y-132749500D01*
X157668241Y-132764954D01*
X157668239Y-132764955D01*
X157646796Y-132773837D01*
X157577327Y-132781304D01*
X157551895Y-132773837D01*
X157531631Y-132765444D01*
X157475000Y-132757987D01*
X157475000Y-132800499D01*
X157466372Y-132829880D01*
X157459892Y-132859816D01*
X157456374Y-132863928D01*
X157455315Y-132867538D01*
X157438769Y-132888092D01*
X157432977Y-132893895D01*
X157396718Y-132921718D01*
X157368466Y-132958535D01*
X157362769Y-132964245D01*
X157338913Y-132977302D01*
X157316948Y-132993341D01*
X157308715Y-132993831D01*
X157301480Y-132997792D01*
X157274349Y-132995878D01*
X157247202Y-132997496D01*
X157240010Y-132993457D01*
X157231783Y-132992877D01*
X157209994Y-132976600D01*
X157186281Y-132963283D01*
X157176630Y-132952146D01*
X157153282Y-132921718D01*
X157153280Y-132921717D01*
X157153280Y-132921716D01*
X157123511Y-132898873D01*
X157082310Y-132842444D01*
X157075000Y-132800499D01*
X157075000Y-132757987D01*
X157074999Y-132757987D01*
X157058720Y-132760131D01*
X156989684Y-132749366D01*
X156937428Y-132702986D01*
X156918543Y-132635717D01*
X156939023Y-132568916D01*
X156954846Y-132549518D01*
X157068547Y-132435816D01*
X157129869Y-132402334D01*
X157156227Y-132399500D01*
X158657933Y-132399500D01*
X158724972Y-132419185D01*
G37*
G04 #@! TD.AperFunction*
G04 #@! TA.AperFunction,Conductor*
G36*
X162263019Y-121495184D02*
G01*
X162283661Y-121511818D01*
X163292517Y-122520674D01*
X163321017Y-122565019D01*
X163331205Y-122592334D01*
X163417452Y-122707544D01*
X163417455Y-122707547D01*
X163532664Y-122793793D01*
X163532671Y-122793797D01*
X163667516Y-122844091D01*
X163693419Y-122846875D01*
X163727127Y-122850500D01*
X163818838Y-122850499D01*
X163818842Y-122850500D01*
X163843506Y-122850500D01*
X164808427Y-122850500D01*
X164808435Y-122850499D01*
X165722871Y-122850499D01*
X165722872Y-122850499D01*
X165782483Y-122844091D01*
X165917331Y-122793796D01*
X165973684Y-122751610D01*
X166008380Y-122725637D01*
X166073844Y-122701219D01*
X166142117Y-122716070D01*
X166183008Y-122752016D01*
X166294497Y-122905469D01*
X166303034Y-122917219D01*
X166447786Y-123061971D01*
X166613385Y-123182284D01*
X166613387Y-123182285D01*
X166613390Y-123182287D01*
X166638765Y-123195216D01*
X166706630Y-123229795D01*
X166757426Y-123277770D01*
X166774221Y-123345591D01*
X166751684Y-123411725D01*
X166706630Y-123450765D01*
X166613644Y-123498143D01*
X166569077Y-123530523D01*
X166569077Y-123530524D01*
X167248554Y-124210000D01*
X167242339Y-124210000D01*
X167140606Y-124237259D01*
X167049394Y-124289920D01*
X166974920Y-124364394D01*
X166922259Y-124455606D01*
X166895000Y-124557339D01*
X166895000Y-124563553D01*
X166215524Y-123884077D01*
X166215523Y-123884077D01*
X166183143Y-123928644D01*
X166090244Y-124110968D01*
X166027009Y-124305582D01*
X165995000Y-124507682D01*
X165995000Y-124712317D01*
X166027009Y-124914417D01*
X166090244Y-125109031D01*
X166183141Y-125291350D01*
X166183147Y-125291359D01*
X166215523Y-125335921D01*
X166215524Y-125335922D01*
X166895000Y-124656446D01*
X166895000Y-124662661D01*
X166922259Y-124764394D01*
X166974920Y-124855606D01*
X167049394Y-124930080D01*
X167140606Y-124982741D01*
X167242339Y-125010000D01*
X167248553Y-125010000D01*
X166569076Y-125689474D01*
X166613652Y-125721861D01*
X166645282Y-125737977D01*
X166696079Y-125785951D01*
X166712874Y-125853772D01*
X166690337Y-125919907D01*
X166676669Y-125936143D01*
X161650633Y-130962181D01*
X161589310Y-130995666D01*
X161562952Y-130998500D01*
X156745711Y-130998500D01*
X156637298Y-131020065D01*
X156637297Y-131020065D01*
X156610379Y-131025420D01*
X156482898Y-131078224D01*
X156368162Y-131154887D01*
X156368161Y-131154888D01*
X154809869Y-132713181D01*
X154782941Y-132727884D01*
X154757123Y-132744477D01*
X154750922Y-132745368D01*
X154748546Y-132746666D01*
X154722188Y-132749500D01*
X154687000Y-132749500D01*
X154619961Y-132729815D01*
X154574206Y-132677011D01*
X154563000Y-132625500D01*
X154563000Y-128774499D01*
X154582685Y-128707460D01*
X154635489Y-128661705D01*
X154687000Y-128650499D01*
X154814362Y-128650499D01*
X154836520Y-128647581D01*
X154931762Y-128635044D01*
X154952545Y-128626434D01*
X155022014Y-128618965D01*
X155047453Y-128626434D01*
X155068238Y-128635044D01*
X155185639Y-128650500D01*
X155464360Y-128650499D01*
X155464361Y-128650499D01*
X155476594Y-128648888D01*
X155581762Y-128635044D01*
X155602545Y-128626434D01*
X155672014Y-128618965D01*
X155674200Y-128619379D01*
X155686171Y-128621761D01*
X155718238Y-128635044D01*
X155820732Y-128648537D01*
X155824700Y-128649327D01*
X155852203Y-128663716D01*
X155880581Y-128676270D01*
X155882890Y-128679771D01*
X155886609Y-128681717D01*
X155901966Y-128708691D01*
X155919053Y-128734594D01*
X155919888Y-128740168D01*
X155921179Y-128742435D01*
X155920928Y-128747107D01*
X155924500Y-128770943D01*
X155924500Y-128937770D01*
X155904815Y-129004809D01*
X155895419Y-129016468D01*
X155895914Y-129016874D01*
X155892048Y-129021584D01*
X155809919Y-129144498D01*
X155809912Y-129144511D01*
X155753343Y-129281082D01*
X155753340Y-129281092D01*
X155724500Y-129426079D01*
X155724500Y-129426082D01*
X155724500Y-129573918D01*
X155724500Y-129573920D01*
X155724499Y-129573920D01*
X155753340Y-129718907D01*
X155753343Y-129718917D01*
X155809912Y-129855488D01*
X155809919Y-129855501D01*
X155892048Y-129978415D01*
X155892051Y-129978419D01*
X155996580Y-130082948D01*
X155996584Y-130082951D01*
X156119498Y-130165080D01*
X156119511Y-130165087D01*
X156209176Y-130202227D01*
X156256087Y-130221658D01*
X156256091Y-130221658D01*
X156256092Y-130221659D01*
X156401079Y-130250500D01*
X156401082Y-130250500D01*
X156548920Y-130250500D01*
X156646462Y-130231096D01*
X156693913Y-130221658D01*
X156830495Y-130165084D01*
X156953416Y-130082951D01*
X157057951Y-129978416D01*
X157140084Y-129855495D01*
X157152763Y-129824883D01*
X157166434Y-129802081D01*
X157165729Y-129801610D01*
X157245774Y-129681812D01*
X157245776Y-129681809D01*
X157285789Y-129585208D01*
X157298580Y-129554328D01*
X157316921Y-129462123D01*
X157325500Y-129418996D01*
X157325500Y-128770942D01*
X157334442Y-128740488D01*
X157341742Y-128709589D01*
X157344216Y-128707200D01*
X157345185Y-128703903D01*
X157369166Y-128683122D01*
X157392018Y-128661070D01*
X157396111Y-128659774D01*
X157397989Y-128658148D01*
X157425300Y-128649326D01*
X157429267Y-128648536D01*
X157531762Y-128635044D01*
X157563828Y-128621761D01*
X157575800Y-128619379D01*
X157598929Y-128621447D01*
X157622014Y-128618965D01*
X157644278Y-128625502D01*
X157645393Y-128625602D01*
X157645864Y-128625967D01*
X157647453Y-128626434D01*
X157668238Y-128635044D01*
X157785639Y-128650500D01*
X158064360Y-128650499D01*
X158146806Y-128639645D01*
X158215838Y-128650410D01*
X158250668Y-128674902D01*
X158507285Y-128931520D01*
X158507287Y-128931521D01*
X158507291Y-128931524D01*
X158642353Y-129009501D01*
X158644217Y-129010577D01*
X158796944Y-129051501D01*
X158796946Y-129051501D01*
X158962655Y-129051501D01*
X158962671Y-129051500D01*
X162657201Y-129051500D01*
X162657217Y-129051501D01*
X162664813Y-129051501D01*
X162822924Y-129051501D01*
X162822927Y-129051501D01*
X162975655Y-129010577D01*
X163025774Y-128981639D01*
X163112586Y-128931520D01*
X163224390Y-128819716D01*
X163224390Y-128819714D01*
X163234598Y-128809507D01*
X163234600Y-128809504D01*
X163410925Y-128633178D01*
X163451147Y-128606302D01*
X163527841Y-128574536D01*
X163653282Y-128478282D01*
X163749536Y-128352841D01*
X163810044Y-128206762D01*
X163825500Y-128089361D01*
X163825499Y-126310640D01*
X163825499Y-126310636D01*
X163810046Y-126193246D01*
X163810044Y-126193242D01*
X163810044Y-126193238D01*
X163749848Y-126047914D01*
X163742380Y-125978447D01*
X163758870Y-125935367D01*
X163837003Y-125808697D01*
X163890349Y-125647708D01*
X163900500Y-125548345D01*
X163900499Y-124951656D01*
X163890349Y-124852292D01*
X163837003Y-124691303D01*
X163836999Y-124691297D01*
X163836998Y-124691294D01*
X163760895Y-124567913D01*
X163747970Y-124546959D01*
X163747967Y-124546955D01*
X163628044Y-124427032D01*
X163628040Y-124427029D01*
X163483705Y-124338001D01*
X163483699Y-124337998D01*
X163483697Y-124337997D01*
X163483694Y-124337996D01*
X163322709Y-124284651D01*
X163223346Y-124274500D01*
X162676662Y-124274500D01*
X162676644Y-124274501D01*
X162577292Y-124284650D01*
X162577289Y-124284651D01*
X162416305Y-124337996D01*
X162416294Y-124338001D01*
X162271959Y-124427029D01*
X162271953Y-124427033D01*
X162262324Y-124436663D01*
X162201000Y-124470146D01*
X162131308Y-124465159D01*
X162086965Y-124436660D01*
X162077732Y-124427427D01*
X162077728Y-124427424D01*
X161933492Y-124338457D01*
X161933481Y-124338452D01*
X161772606Y-124285144D01*
X161673322Y-124275000D01*
X161650000Y-124275000D01*
X161650000Y-125126000D01*
X161630315Y-125193039D01*
X161577511Y-125238794D01*
X161526000Y-125250000D01*
X161400000Y-125250000D01*
X161400000Y-125376000D01*
X161380315Y-125443039D01*
X161327511Y-125488794D01*
X161276000Y-125500000D01*
X160800598Y-125500000D01*
X160737050Y-125482478D01*
X160723815Y-125474579D01*
X160717716Y-125468480D01*
X160592204Y-125396016D01*
X160580785Y-125389423D01*
X160428057Y-125348499D01*
X160269943Y-125348499D01*
X160262347Y-125348499D01*
X160262331Y-125348500D01*
X158312670Y-125348500D01*
X158305062Y-125348499D01*
X158305059Y-125348499D01*
X158146944Y-125348499D01*
X158146943Y-125348499D01*
X158141461Y-125348499D01*
X158074422Y-125328814D01*
X158028667Y-125276010D01*
X158018724Y-125206851D01*
X158034900Y-125171432D01*
X158047749Y-125143296D01*
X158053781Y-125136818D01*
X158238922Y-124951677D01*
X160450000Y-124951677D01*
X160450000Y-125000000D01*
X161150000Y-125000000D01*
X161150000Y-124274999D01*
X161126693Y-124275000D01*
X161126674Y-124275001D01*
X161027392Y-124285144D01*
X160866518Y-124338452D01*
X160866507Y-124338457D01*
X160722271Y-124427424D01*
X160722267Y-124427427D01*
X160602427Y-124547267D01*
X160602424Y-124547271D01*
X160513457Y-124691507D01*
X160513452Y-124691518D01*
X160460144Y-124852393D01*
X160450000Y-124951677D01*
X158238922Y-124951677D01*
X158919112Y-124271487D01*
X158919114Y-124271485D01*
X158995775Y-124156753D01*
X159029186Y-124076090D01*
X159037299Y-124060914D01*
X159037212Y-124060868D01*
X159040080Y-124055500D01*
X159040084Y-124055495D01*
X159096658Y-123918913D01*
X159125500Y-123773918D01*
X159125500Y-123626082D01*
X159125500Y-123626079D01*
X159096659Y-123481092D01*
X159096658Y-123481091D01*
X159096658Y-123481087D01*
X159086496Y-123456555D01*
X159079028Y-123387088D01*
X159110303Y-123324609D01*
X159170391Y-123288956D01*
X159235653Y-123290027D01*
X159261902Y-123297654D01*
X159298065Y-123300500D01*
X159701934Y-123300499D01*
X159738098Y-123297654D01*
X159865406Y-123260667D01*
X159934594Y-123260667D01*
X160061902Y-123297654D01*
X160098065Y-123300500D01*
X160501934Y-123300499D01*
X160538098Y-123297654D01*
X160665406Y-123260667D01*
X160734594Y-123260667D01*
X160861902Y-123297654D01*
X160898065Y-123300500D01*
X161301934Y-123300499D01*
X161338098Y-123297654D01*
X161492894Y-123252681D01*
X161631643Y-123170626D01*
X161745626Y-123056643D01*
X161827681Y-122917894D01*
X161872654Y-122763098D01*
X161875500Y-122726935D01*
X161875499Y-121599498D01*
X161878049Y-121590813D01*
X161876761Y-121581852D01*
X161887739Y-121557811D01*
X161895184Y-121532460D01*
X161902024Y-121526532D01*
X161905786Y-121518296D01*
X161928018Y-121504008D01*
X161947987Y-121486705D01*
X161958502Y-121484417D01*
X161964564Y-121480522D01*
X161999499Y-121475499D01*
X162195980Y-121475499D01*
X162263019Y-121495184D01*
G37*
G04 #@! TD.AperFunction*
G04 #@! TA.AperFunction,Conductor*
G36*
X168213891Y-123047819D02*
G01*
X168243384Y-123050500D01*
X168476500Y-123050500D01*
X168543539Y-123070185D01*
X168589294Y-123122989D01*
X168600500Y-123174500D01*
X168600500Y-123813540D01*
X168580815Y-123880579D01*
X168528011Y-123926334D01*
X168458853Y-123936278D01*
X168395297Y-123907253D01*
X168376183Y-123886427D01*
X168374475Y-123884077D01*
X168374474Y-123884076D01*
X167695000Y-124563553D01*
X167695000Y-124557339D01*
X167667741Y-124455606D01*
X167615080Y-124364394D01*
X167540606Y-124289920D01*
X167449394Y-124237259D01*
X167347661Y-124210000D01*
X167341446Y-124210000D01*
X168020922Y-123530524D01*
X168020921Y-123530523D01*
X167976359Y-123498147D01*
X167976350Y-123498141D01*
X167883369Y-123450765D01*
X167832573Y-123402790D01*
X167815778Y-123334969D01*
X167838315Y-123268835D01*
X167883370Y-123229795D01*
X167976608Y-123182288D01*
X167976607Y-123182288D01*
X167976610Y-123182287D01*
X168129796Y-123070991D01*
X168195599Y-123047513D01*
X168213891Y-123047819D01*
G37*
G04 #@! TD.AperFunction*
G04 #@! TA.AperFunction,Conductor*
G36*
X166289471Y-120379502D02*
G01*
X166333818Y-120408003D01*
X166447786Y-120521971D01*
X166580659Y-120618507D01*
X166613390Y-120642287D01*
X166685092Y-120678821D01*
X166706080Y-120689515D01*
X166756876Y-120737490D01*
X166773671Y-120805311D01*
X166751134Y-120871446D01*
X166706080Y-120910485D01*
X166613386Y-120957715D01*
X166447788Y-121078027D01*
X166363088Y-121162727D01*
X166301764Y-121196211D01*
X166232073Y-121191227D01*
X166187726Y-121162726D01*
X166175000Y-121150000D01*
X164849000Y-121150000D01*
X164840314Y-121147449D01*
X164831353Y-121148738D01*
X164807312Y-121137759D01*
X164781961Y-121130315D01*
X164776033Y-121123474D01*
X164767797Y-121119713D01*
X164753507Y-121097478D01*
X164736206Y-121077511D01*
X164733918Y-121066996D01*
X164730023Y-121060935D01*
X164725000Y-121026000D01*
X164725000Y-120874000D01*
X164744685Y-120806961D01*
X164797489Y-120761206D01*
X164849000Y-120750000D01*
X166175000Y-120750000D01*
X166175000Y-120702172D01*
X166174999Y-120702155D01*
X166168598Y-120642627D01*
X166168596Y-120642620D01*
X166129955Y-120539017D01*
X166124971Y-120469326D01*
X166158456Y-120408003D01*
X166219779Y-120374518D01*
X166289471Y-120379502D01*
G37*
G04 #@! TD.AperFunction*
G04 #@! TA.AperFunction,Conductor*
G36*
X156061902Y-114972654D02*
G01*
X156098065Y-114975500D01*
X156501934Y-114975499D01*
X156538098Y-114972654D01*
X156665406Y-114935667D01*
X156734594Y-114935667D01*
X156861902Y-114972654D01*
X156898065Y-114975500D01*
X157301934Y-114975499D01*
X157338098Y-114972654D01*
X157338100Y-114972653D01*
X157342718Y-114972290D01*
X157411094Y-114986655D01*
X157460850Y-115035708D01*
X157474061Y-115071716D01*
X157503340Y-115218907D01*
X157503343Y-115218917D01*
X157559912Y-115355488D01*
X157559919Y-115355501D01*
X157642048Y-115478415D01*
X157642051Y-115478419D01*
X157746580Y-115582948D01*
X157746584Y-115582951D01*
X157869498Y-115665080D01*
X157869511Y-115665087D01*
X157949157Y-115698077D01*
X158006087Y-115721658D01*
X158006091Y-115721658D01*
X158006092Y-115721659D01*
X158151079Y-115750500D01*
X158151082Y-115750500D01*
X158298920Y-115750500D01*
X158433657Y-115723698D01*
X158443913Y-115721658D01*
X158580495Y-115665084D01*
X158703416Y-115582951D01*
X158807951Y-115478416D01*
X158890084Y-115355495D01*
X158901803Y-115327200D01*
X158928680Y-115286975D01*
X159203993Y-115011663D01*
X159265316Y-114978178D01*
X159295630Y-114975521D01*
X159295630Y-114975500D01*
X159295875Y-114975499D01*
X159296560Y-114975440D01*
X159298024Y-114975496D01*
X159298065Y-114975500D01*
X159701934Y-114975499D01*
X159738098Y-114972654D01*
X159865406Y-114935667D01*
X159934594Y-114935667D01*
X160061902Y-114972654D01*
X160098065Y-114975500D01*
X160501934Y-114975499D01*
X160538098Y-114972654D01*
X160665406Y-114935667D01*
X160734594Y-114935667D01*
X160861902Y-114972654D01*
X160898065Y-114975500D01*
X161100500Y-114975499D01*
X161167539Y-114995183D01*
X161213294Y-115047987D01*
X161224500Y-115099498D01*
X161224500Y-115301921D01*
X161224501Y-115301947D01*
X161227346Y-115338098D01*
X161264332Y-115465404D01*
X161264332Y-115534594D01*
X161227346Y-115661897D01*
X161227345Y-115661903D01*
X161224500Y-115698057D01*
X161224500Y-116101922D01*
X161224501Y-116101947D01*
X161227346Y-116138098D01*
X161249951Y-116215905D01*
X161249752Y-116285774D01*
X161211810Y-116344444D01*
X161148172Y-116373288D01*
X161130875Y-116374500D01*
X161126080Y-116374500D01*
X160981092Y-116403340D01*
X160981082Y-116403343D01*
X160844511Y-116459912D01*
X160844498Y-116459919D01*
X160721584Y-116542048D01*
X160721580Y-116542051D01*
X160617051Y-116646580D01*
X160617048Y-116646584D01*
X160534919Y-116769498D01*
X160534912Y-116769511D01*
X160478343Y-116906082D01*
X160478340Y-116906092D01*
X160449500Y-117051079D01*
X160449500Y-117051082D01*
X160449500Y-117198918D01*
X160449500Y-117198920D01*
X160449499Y-117198920D01*
X160478340Y-117343907D01*
X160478343Y-117343917D01*
X160534912Y-117480488D01*
X160534919Y-117480501D01*
X160617048Y-117603415D01*
X160617051Y-117603419D01*
X160721580Y-117707948D01*
X160721588Y-117707954D01*
X160844494Y-117790077D01*
X160844497Y-117790078D01*
X160844505Y-117790084D01*
X160844511Y-117790086D01*
X160844512Y-117790087D01*
X160872797Y-117801803D01*
X160913026Y-117828683D01*
X161128453Y-118044111D01*
X161128454Y-118044112D01*
X161243192Y-118120777D01*
X161370667Y-118173578D01*
X161370672Y-118173580D01*
X161420688Y-118183529D01*
X161480998Y-118195526D01*
X161542909Y-118227911D01*
X161577484Y-118288627D01*
X161573744Y-118358396D01*
X161534489Y-118413794D01*
X161527566Y-118419358D01*
X161468357Y-118454374D01*
X161404294Y-118518436D01*
X161399051Y-118522651D01*
X161372728Y-118533514D01*
X161347728Y-118547166D01*
X161336805Y-118548340D01*
X161334466Y-118549306D01*
X161331997Y-118548857D01*
X161321369Y-118550000D01*
X161231325Y-118550000D01*
X161264593Y-118664510D01*
X161264592Y-118733699D01*
X161227346Y-118861897D01*
X161227345Y-118861903D01*
X161224500Y-118898057D01*
X161224500Y-119301922D01*
X161224501Y-119301947D01*
X161227346Y-119338098D01*
X161264332Y-119465404D01*
X161264332Y-119534594D01*
X161227346Y-119661897D01*
X161227345Y-119661903D01*
X161224500Y-119698057D01*
X161224500Y-120101922D01*
X161224501Y-120101947D01*
X161227346Y-120138098D01*
X161264332Y-120265404D01*
X161264332Y-120334594D01*
X161227346Y-120461897D01*
X161227345Y-120461903D01*
X161224500Y-120498057D01*
X161224500Y-120700500D01*
X161204815Y-120767539D01*
X161152011Y-120813294D01*
X161100501Y-120824500D01*
X160898078Y-120824500D01*
X160898052Y-120824501D01*
X160861901Y-120827346D01*
X160734595Y-120864332D01*
X160717910Y-120864553D01*
X160703643Y-120869202D01*
X160671933Y-120865163D01*
X160668576Y-120865208D01*
X160666969Y-120864787D01*
X160538098Y-120827346D01*
X160518016Y-120825765D01*
X160507326Y-120822965D01*
X160486471Y-120810412D01*
X160463729Y-120801744D01*
X160457072Y-120792717D01*
X160447463Y-120786934D01*
X160436706Y-120765101D01*
X160422260Y-120745512D01*
X160421373Y-120733980D01*
X160416584Y-120724259D01*
X160418997Y-120703071D01*
X160417133Y-120678821D01*
X160438000Y-120573920D01*
X160438000Y-120426079D01*
X160409159Y-120281092D01*
X160409158Y-120281091D01*
X160409158Y-120281087D01*
X160382346Y-120216356D01*
X160352587Y-120144511D01*
X160352580Y-120144498D01*
X160270451Y-120021584D01*
X160270448Y-120021580D01*
X160165919Y-119917051D01*
X160165915Y-119917048D01*
X160043001Y-119834919D01*
X160042988Y-119834912D01*
X159906417Y-119778343D01*
X159906407Y-119778340D01*
X159761420Y-119749500D01*
X159761418Y-119749500D01*
X159613582Y-119749500D01*
X159613580Y-119749500D01*
X159468592Y-119778340D01*
X159468582Y-119778343D01*
X159332011Y-119834912D01*
X159331998Y-119834919D01*
X159209084Y-119917048D01*
X159209080Y-119917051D01*
X159104551Y-120021580D01*
X159104548Y-120021584D01*
X159022419Y-120144498D01*
X159022416Y-120144505D01*
X159010696Y-120172799D01*
X158983819Y-120213023D01*
X158956766Y-120240077D01*
X158955885Y-120240958D01*
X158879223Y-120355691D01*
X158826421Y-120483167D01*
X158826421Y-120483169D01*
X158826420Y-120483172D01*
X158808437Y-120573580D01*
X158799500Y-120618507D01*
X158799500Y-120705144D01*
X158799154Y-120709763D01*
X158788401Y-120738297D01*
X158779815Y-120767539D01*
X158776202Y-120770669D01*
X158774516Y-120775145D01*
X158750042Y-120793337D01*
X158727011Y-120813294D01*
X158721615Y-120814467D01*
X158718442Y-120816827D01*
X158707272Y-120817588D01*
X158675501Y-120824500D01*
X158498076Y-120824500D01*
X158498052Y-120824501D01*
X158461901Y-120827346D01*
X158334595Y-120864332D01*
X158265405Y-120864332D01*
X158138102Y-120827346D01*
X158138096Y-120827345D01*
X158101935Y-120824500D01*
X157698077Y-120824500D01*
X157698052Y-120824501D01*
X157661901Y-120827346D01*
X157534595Y-120864332D01*
X157465405Y-120864332D01*
X157338102Y-120827346D01*
X157338096Y-120827345D01*
X157301935Y-120824500D01*
X156898077Y-120824500D01*
X156898052Y-120824501D01*
X156861901Y-120827346D01*
X156734595Y-120864332D01*
X156665405Y-120864332D01*
X156538102Y-120827346D01*
X156538096Y-120827345D01*
X156501935Y-120824500D01*
X156098077Y-120824500D01*
X156098052Y-120824501D01*
X156061901Y-120827346D01*
X155934595Y-120864332D01*
X155865405Y-120864332D01*
X155738102Y-120827346D01*
X155738096Y-120827345D01*
X155701942Y-120824500D01*
X155701935Y-120824500D01*
X155499499Y-120824500D01*
X155490813Y-120821949D01*
X155481852Y-120823238D01*
X155457811Y-120812259D01*
X155432460Y-120804815D01*
X155426532Y-120797974D01*
X155418296Y-120794213D01*
X155404006Y-120771978D01*
X155386705Y-120752011D01*
X155384417Y-120741496D01*
X155380522Y-120735435D01*
X155375499Y-120700500D01*
X155375499Y-120607976D01*
X155395184Y-120540937D01*
X155430606Y-120504875D01*
X155521543Y-120444114D01*
X155686975Y-120278680D01*
X155727200Y-120251803D01*
X155755495Y-120240084D01*
X155878416Y-120157951D01*
X155982951Y-120053416D01*
X156065084Y-119930495D01*
X156121658Y-119793913D01*
X156140724Y-119698065D01*
X156150500Y-119648920D01*
X156150500Y-119501079D01*
X156121659Y-119356092D01*
X156121658Y-119356091D01*
X156121658Y-119356087D01*
X156099222Y-119301922D01*
X156065087Y-119219511D01*
X156065080Y-119219498D01*
X155982951Y-119096584D01*
X155982948Y-119096580D01*
X155878419Y-118992051D01*
X155878415Y-118992048D01*
X155755501Y-118909919D01*
X155755488Y-118909912D01*
X155618917Y-118853343D01*
X155618907Y-118853340D01*
X155473920Y-118824500D01*
X155473918Y-118824500D01*
X155454889Y-118824500D01*
X155429418Y-118817021D01*
X155403148Y-118813189D01*
X155396413Y-118807329D01*
X155387850Y-118804815D01*
X155370468Y-118784755D01*
X155350437Y-118767327D01*
X155345006Y-118755370D01*
X155342095Y-118752011D01*
X155335841Y-118735193D01*
X155335694Y-118734689D01*
X155335667Y-118665406D01*
X155372654Y-118538098D01*
X155375500Y-118501935D01*
X155375499Y-118098066D01*
X155372654Y-118061902D01*
X155339139Y-117946543D01*
X155335407Y-117933698D01*
X155335407Y-117864508D01*
X155368674Y-117750000D01*
X155278631Y-117750000D01*
X155256736Y-117743570D01*
X155233993Y-117741687D01*
X155220563Y-117732949D01*
X155211592Y-117730315D01*
X155203208Y-117724425D01*
X155196729Y-117719460D01*
X155131643Y-117654374D01*
X155044676Y-117602942D01*
X155038781Y-117598425D01*
X155022371Y-117575981D01*
X155003400Y-117555664D01*
X155002037Y-117548171D01*
X154997542Y-117542024D01*
X154995870Y-117514270D01*
X154990896Y-117486922D01*
X154993799Y-117479882D01*
X154993342Y-117472280D01*
X155006940Y-117448029D01*
X155017541Y-117422333D01*
X155024949Y-117415913D01*
X155027515Y-117411338D01*
X155034536Y-117407605D01*
X155051080Y-117393269D01*
X155131643Y-117345626D01*
X155190951Y-117286317D01*
X155252272Y-117252834D01*
X155278631Y-117250000D01*
X155368675Y-117250000D01*
X155368674Y-117249999D01*
X155335407Y-117135490D01*
X155335407Y-117066301D01*
X155372654Y-116938098D01*
X155375500Y-116901935D01*
X155375499Y-116498066D01*
X155372654Y-116461902D01*
X155335667Y-116334593D01*
X155335667Y-116265406D01*
X155372654Y-116138098D01*
X155375500Y-116101935D01*
X155375499Y-115698066D01*
X155375382Y-115696584D01*
X155372654Y-115661902D01*
X155360188Y-115618994D01*
X155335667Y-115534593D01*
X155335667Y-115465406D01*
X155372654Y-115338098D01*
X155375500Y-115301935D01*
X155375499Y-115099498D01*
X155395183Y-115032460D01*
X155447987Y-114986705D01*
X155499499Y-114975499D01*
X155701922Y-114975499D01*
X155701934Y-114975499D01*
X155738098Y-114972654D01*
X155865406Y-114935667D01*
X155934594Y-114935667D01*
X156061902Y-114972654D01*
G37*
G04 #@! TD.AperFunction*
G04 #@! TA.AperFunction,Conductor*
G36*
X169395270Y-111936717D02*
G01*
X169395270Y-111936716D01*
X169434622Y-111882555D01*
X169439232Y-111873507D01*
X169487205Y-111822709D01*
X169555025Y-111805912D01*
X169621161Y-111828447D01*
X169660204Y-111873504D01*
X169664949Y-111882817D01*
X169789890Y-112054786D01*
X169789896Y-112054792D01*
X169940208Y-112205104D01*
X170036662Y-112275182D01*
X170079328Y-112330511D01*
X170085307Y-112400124D01*
X170052702Y-112461920D01*
X169991863Y-112496277D01*
X169963777Y-112499500D01*
X169834298Y-112499500D01*
X169797432Y-112502401D01*
X169797426Y-112502402D01*
X169639606Y-112548254D01*
X169639603Y-112548255D01*
X169498137Y-112631917D01*
X169498129Y-112631923D01*
X169381923Y-112748129D01*
X169381917Y-112748137D01*
X169298255Y-112889603D01*
X169298254Y-112889606D01*
X169252402Y-113047426D01*
X169252401Y-113047432D01*
X169249500Y-113084298D01*
X169249500Y-113862934D01*
X169229815Y-113929973D01*
X169177011Y-113975728D01*
X169107853Y-113985672D01*
X169086496Y-113980640D01*
X168947709Y-113934651D01*
X168848346Y-113924500D01*
X168301662Y-113924500D01*
X168301644Y-113924501D01*
X168202292Y-113934650D01*
X168202289Y-113934651D01*
X168041305Y-113987996D01*
X168041294Y-113988001D01*
X167896959Y-114077029D01*
X167896953Y-114077033D01*
X167887324Y-114086663D01*
X167826000Y-114120146D01*
X167756308Y-114115159D01*
X167711965Y-114086660D01*
X167702732Y-114077427D01*
X167702728Y-114077424D01*
X167558492Y-113988457D01*
X167558481Y-113988452D01*
X167397606Y-113935144D01*
X167298322Y-113925000D01*
X167275000Y-113925000D01*
X167275000Y-114776000D01*
X167255315Y-114843039D01*
X167202511Y-114888794D01*
X167151000Y-114900000D01*
X167025000Y-114900000D01*
X167025000Y-115026000D01*
X167005315Y-115093039D01*
X166952511Y-115138794D01*
X166901000Y-115150000D01*
X166075001Y-115150000D01*
X166075001Y-115198322D01*
X166085144Y-115297607D01*
X166138452Y-115458481D01*
X166138457Y-115458492D01*
X166227424Y-115602728D01*
X166227427Y-115602732D01*
X166287070Y-115662375D01*
X166320555Y-115723698D01*
X166315571Y-115793390D01*
X166280639Y-115841369D01*
X166281451Y-115842181D01*
X166152289Y-115971342D01*
X166060187Y-116120663D01*
X166060185Y-116120668D01*
X166032976Y-116202780D01*
X166005001Y-116287203D01*
X166005001Y-116287204D01*
X166005000Y-116287204D01*
X165994500Y-116389983D01*
X165994500Y-117083770D01*
X165974815Y-117150809D01*
X165922011Y-117196564D01*
X165852853Y-117206508D01*
X165789297Y-117177483D01*
X165782819Y-117171451D01*
X165778419Y-117167051D01*
X165778415Y-117167048D01*
X165655501Y-117084919D01*
X165655488Y-117084912D01*
X165518917Y-117028343D01*
X165518907Y-117028340D01*
X165373920Y-116999500D01*
X165373918Y-116999500D01*
X165226082Y-116999500D01*
X165226080Y-116999500D01*
X165081092Y-117028340D01*
X165081082Y-117028343D01*
X164944511Y-117084912D01*
X164944498Y-117084919D01*
X164821584Y-117167048D01*
X164821580Y-117167051D01*
X164717051Y-117271580D01*
X164717048Y-117271584D01*
X164634919Y-117394498D01*
X164634912Y-117394511D01*
X164578343Y-117531082D01*
X164578340Y-117531092D01*
X164549500Y-117676079D01*
X164549500Y-117676082D01*
X164549500Y-117823918D01*
X164549500Y-117823920D01*
X164549499Y-117823920D01*
X164578340Y-117968907D01*
X164578343Y-117968917D01*
X164634912Y-118105488D01*
X164634919Y-118105501D01*
X164702478Y-118206609D01*
X164723356Y-118273286D01*
X164704872Y-118340667D01*
X164652893Y-118387357D01*
X164599376Y-118399500D01*
X163480633Y-118399500D01*
X163413594Y-118379815D01*
X163367839Y-118327011D01*
X163357895Y-118257853D01*
X163386920Y-118194297D01*
X163401709Y-118179860D01*
X163409178Y-118173696D01*
X163456643Y-118145626D01*
X163520141Y-118082127D01*
X163524707Y-118078360D01*
X163551597Y-118066853D01*
X163577272Y-118052834D01*
X163586738Y-118051816D01*
X163588943Y-118050873D01*
X163591502Y-118051304D01*
X163603631Y-118050000D01*
X163693675Y-118050000D01*
X163693674Y-118049999D01*
X163660407Y-117935490D01*
X163660407Y-117866301D01*
X163697654Y-117738098D01*
X163700500Y-117701935D01*
X163700499Y-117298066D01*
X163697654Y-117261902D01*
X163660666Y-117134593D01*
X163660461Y-117117830D01*
X163655789Y-117103389D01*
X163659893Y-117071424D01*
X163659856Y-117068330D01*
X163660240Y-117066873D01*
X163697654Y-116938098D01*
X163699094Y-116919793D01*
X163701948Y-116908992D01*
X163714475Y-116888275D01*
X163723096Y-116865652D01*
X163732229Y-116858915D01*
X163738102Y-116849203D01*
X163759842Y-116838546D01*
X163779324Y-116824177D01*
X163790648Y-116823447D01*
X163800840Y-116818452D01*
X163824889Y-116821241D01*
X163849049Y-116819685D01*
X163862978Y-116825659D01*
X163870245Y-116826502D01*
X163876061Y-116831269D01*
X163890723Y-116837558D01*
X163894497Y-116840079D01*
X163894499Y-116840080D01*
X163894505Y-116840084D01*
X163894507Y-116840085D01*
X163894511Y-116840087D01*
X164029938Y-116896182D01*
X164031087Y-116896658D01*
X164031091Y-116896658D01*
X164031092Y-116896659D01*
X164176079Y-116925500D01*
X164176082Y-116925500D01*
X164323920Y-116925500D01*
X164442389Y-116901934D01*
X164468913Y-116896658D01*
X164605495Y-116840084D01*
X164728416Y-116757951D01*
X164832951Y-116653416D01*
X164915084Y-116530495D01*
X164971658Y-116393913D01*
X164988671Y-116308386D01*
X165000500Y-116248920D01*
X165000500Y-116101079D01*
X164971659Y-115956092D01*
X164971658Y-115956091D01*
X164971658Y-115956087D01*
X164971656Y-115956082D01*
X164915087Y-115819511D01*
X164915080Y-115819498D01*
X164832951Y-115696584D01*
X164832948Y-115696580D01*
X164728419Y-115592051D01*
X164728415Y-115592048D01*
X164605501Y-115509919D01*
X164605491Y-115509914D01*
X164577201Y-115498196D01*
X164536973Y-115471316D01*
X164139584Y-115073927D01*
X164106099Y-115012604D01*
X164111083Y-114942912D01*
X164152955Y-114886979D01*
X164218419Y-114862562D01*
X164251457Y-114864629D01*
X164301079Y-114874500D01*
X164301082Y-114874500D01*
X164448920Y-114874500D01*
X164546462Y-114855096D01*
X164593913Y-114845658D01*
X164709921Y-114797606D01*
X164730488Y-114789087D01*
X164730488Y-114789086D01*
X164730495Y-114789084D01*
X164853416Y-114706951D01*
X164957951Y-114602416D01*
X164958445Y-114601677D01*
X166075000Y-114601677D01*
X166075000Y-114650000D01*
X166775000Y-114650000D01*
X166775000Y-113924999D01*
X166751693Y-113925000D01*
X166751674Y-113925001D01*
X166652392Y-113935144D01*
X166491518Y-113988452D01*
X166491507Y-113988457D01*
X166347271Y-114077424D01*
X166347267Y-114077427D01*
X166227427Y-114197267D01*
X166227424Y-114197271D01*
X166138457Y-114341507D01*
X166138452Y-114341518D01*
X166085144Y-114502393D01*
X166075000Y-114601677D01*
X164958445Y-114601677D01*
X164985027Y-114561894D01*
X165006581Y-114529637D01*
X165040080Y-114479501D01*
X165040080Y-114479500D01*
X165040084Y-114479495D01*
X165096658Y-114342913D01*
X165107037Y-114290734D01*
X165125500Y-114197920D01*
X165125500Y-114050079D01*
X165096659Y-113905092D01*
X165096658Y-113905091D01*
X165096658Y-113905087D01*
X165063692Y-113825499D01*
X165040087Y-113768511D01*
X165040080Y-113768498D01*
X164957951Y-113645584D01*
X164957948Y-113645580D01*
X164853419Y-113541051D01*
X164853415Y-113541048D01*
X164730501Y-113458919D01*
X164730491Y-113458914D01*
X164702201Y-113447196D01*
X164661973Y-113420316D01*
X163978837Y-112737180D01*
X163945352Y-112675857D01*
X163950336Y-112606165D01*
X163992208Y-112550232D01*
X164057672Y-112525815D01*
X164066518Y-112525499D01*
X164097871Y-112525499D01*
X164097872Y-112525499D01*
X164157483Y-112519091D01*
X164292331Y-112468796D01*
X164407546Y-112382546D01*
X164493796Y-112267331D01*
X164542810Y-112135916D01*
X164584681Y-112079984D01*
X164650145Y-112055566D01*
X164718418Y-112070417D01*
X164746673Y-112091569D01*
X164860213Y-112205109D01*
X165032179Y-112330048D01*
X165032181Y-112330049D01*
X165032184Y-112330051D01*
X165221588Y-112426557D01*
X165423757Y-112492246D01*
X165633713Y-112525500D01*
X165633714Y-112525500D01*
X165846286Y-112525500D01*
X165846287Y-112525500D01*
X166056243Y-112492246D01*
X166258412Y-112426557D01*
X166447816Y-112330051D01*
X166534138Y-112267335D01*
X166619786Y-112205109D01*
X166619788Y-112205106D01*
X166619792Y-112205104D01*
X166770104Y-112054792D01*
X166770106Y-112054788D01*
X166770109Y-112054786D01*
X166855890Y-111936717D01*
X166895051Y-111882816D01*
X166899793Y-111873508D01*
X166947763Y-111822711D01*
X167015583Y-111805911D01*
X167081719Y-111828445D01*
X167120763Y-111873500D01*
X167125373Y-111882547D01*
X167164728Y-111936716D01*
X167797037Y-111304408D01*
X167814075Y-111367993D01*
X167879901Y-111482007D01*
X167972993Y-111575099D01*
X168087007Y-111640925D01*
X168150590Y-111657962D01*
X167518282Y-112290269D01*
X167518282Y-112290270D01*
X167572449Y-112329624D01*
X167761782Y-112426095D01*
X167963870Y-112491757D01*
X168173754Y-112525000D01*
X168386246Y-112525000D01*
X168596127Y-112491757D01*
X168596130Y-112491757D01*
X168798217Y-112426095D01*
X168987554Y-112329622D01*
X169041716Y-112290270D01*
X169041717Y-112290270D01*
X168409408Y-111657962D01*
X168472993Y-111640925D01*
X168587007Y-111575099D01*
X168680099Y-111482007D01*
X168745925Y-111367993D01*
X168762962Y-111304408D01*
X169395270Y-111936717D01*
G37*
G04 #@! TD.AperFunction*
G04 #@! TA.AperFunction,Conductor*
G36*
X162043541Y-109720185D02*
G01*
X162089296Y-109772989D01*
X162099240Y-109842147D01*
X162070215Y-109905703D01*
X162050816Y-109923764D01*
X161992454Y-109967454D01*
X161992453Y-109967455D01*
X161992452Y-109967456D01*
X161906206Y-110082664D01*
X161906202Y-110082671D01*
X161855908Y-110217517D01*
X161852371Y-110250420D01*
X161849500Y-110277127D01*
X161849500Y-111084736D01*
X161849501Y-111774500D01*
X161829816Y-111841539D01*
X161777013Y-111887294D01*
X161725501Y-111898500D01*
X159990519Y-111898500D01*
X159923480Y-111878815D01*
X159902838Y-111862181D01*
X158420546Y-110379888D01*
X158420545Y-110379887D01*
X158305807Y-110303222D01*
X158178332Y-110250421D01*
X158178322Y-110250418D01*
X158042996Y-110223500D01*
X158042994Y-110223500D01*
X158042993Y-110223500D01*
X153544994Y-110223500D01*
X153407006Y-110223500D01*
X153407004Y-110223500D01*
X153271677Y-110250418D01*
X153271667Y-110250421D01*
X153144192Y-110303222D01*
X153029454Y-110379887D01*
X153029453Y-110379888D01*
X152621162Y-110788181D01*
X152559839Y-110821666D01*
X152533481Y-110824500D01*
X152343384Y-110824500D01*
X152324145Y-110826248D01*
X152272807Y-110830913D01*
X152110393Y-110881522D01*
X151964811Y-110969530D01*
X151844530Y-111089811D01*
X151756522Y-111235393D01*
X151705913Y-111397807D01*
X151699500Y-111468386D01*
X151699500Y-112131613D01*
X151705913Y-112202192D01*
X151705913Y-112202194D01*
X151705914Y-112202196D01*
X151733795Y-112291672D01*
X151756522Y-112364606D01*
X151799893Y-112436350D01*
X151817729Y-112503905D01*
X151796211Y-112570379D01*
X151742171Y-112614666D01*
X151693776Y-112624500D01*
X150289811Y-112624500D01*
X150222772Y-112604815D01*
X150177017Y-112552011D01*
X150166453Y-112513100D01*
X150165349Y-112502292D01*
X150165348Y-112502289D01*
X150154250Y-112468797D01*
X150112003Y-112341303D01*
X150111999Y-112341297D01*
X150111998Y-112341294D01*
X150022970Y-112196959D01*
X150022969Y-112196958D01*
X150022968Y-112196956D01*
X149936818Y-112110806D01*
X149903334Y-112049482D01*
X149900500Y-112023125D01*
X149900500Y-111122351D01*
X149920185Y-111055312D01*
X149921398Y-111053460D01*
X149940084Y-111025495D01*
X149996658Y-110888913D01*
X150013624Y-110803621D01*
X150025500Y-110743920D01*
X150025500Y-110596079D01*
X149996659Y-110451092D01*
X149996658Y-110451091D01*
X149996658Y-110451087D01*
X149968466Y-110383025D01*
X149940087Y-110314511D01*
X149940080Y-110314498D01*
X149857951Y-110191584D01*
X149857948Y-110191580D01*
X149753419Y-110087051D01*
X149753415Y-110087048D01*
X149630501Y-110004919D01*
X149630488Y-110004912D01*
X149493917Y-109948343D01*
X149493907Y-109948340D01*
X149482729Y-109946117D01*
X149420818Y-109913732D01*
X149386244Y-109853016D01*
X149389984Y-109783247D01*
X149430851Y-109726575D01*
X149495869Y-109700993D01*
X149506921Y-109700500D01*
X161976502Y-109700500D01*
X162043541Y-109720185D01*
G37*
G04 #@! TD.AperFunction*
G04 #@! TA.AperFunction,Conductor*
G36*
X167750780Y-109720185D02*
G01*
X167796535Y-109772989D01*
X167806479Y-109842147D01*
X167777454Y-109905703D01*
X167740036Y-109934984D01*
X167572448Y-110020375D01*
X167572440Y-110020380D01*
X167518282Y-110059727D01*
X167518282Y-110059728D01*
X168150591Y-110692037D01*
X168087007Y-110709075D01*
X167972993Y-110774901D01*
X167879901Y-110867993D01*
X167814075Y-110982007D01*
X167797037Y-111045591D01*
X167164728Y-110413282D01*
X167164727Y-110413282D01*
X167125380Y-110467440D01*
X167125376Y-110467446D01*
X167120760Y-110476505D01*
X167072781Y-110527297D01*
X167004959Y-110544087D01*
X166938826Y-110521543D01*
X166899794Y-110476493D01*
X166895051Y-110467184D01*
X166895049Y-110467181D01*
X166895048Y-110467179D01*
X166770109Y-110295213D01*
X166619786Y-110144890D01*
X166447819Y-110019951D01*
X166447818Y-110019950D01*
X166447816Y-110019949D01*
X166307275Y-109948340D01*
X166281065Y-109934985D01*
X166230269Y-109887010D01*
X166213474Y-109819189D01*
X166236011Y-109753054D01*
X166290727Y-109709603D01*
X166337360Y-109700500D01*
X167683741Y-109700500D01*
X167750780Y-109720185D01*
G37*
G04 #@! TD.AperFunction*
G04 #@! TA.AperFunction,Conductor*
G36*
X170289679Y-109720185D02*
G01*
X170335434Y-109772989D01*
X170345378Y-109842147D01*
X170316353Y-109905703D01*
X170278935Y-109934985D01*
X170112180Y-110019951D01*
X169940213Y-110144890D01*
X169789890Y-110295213D01*
X169664949Y-110467182D01*
X169660202Y-110476499D01*
X169612227Y-110527293D01*
X169544405Y-110544087D01*
X169478271Y-110521548D01*
X169439234Y-110476495D01*
X169434626Y-110467452D01*
X169395270Y-110413282D01*
X169395269Y-110413282D01*
X168762962Y-111045590D01*
X168745925Y-110982007D01*
X168680099Y-110867993D01*
X168587007Y-110774901D01*
X168472993Y-110709075D01*
X168409409Y-110692037D01*
X169041716Y-110059728D01*
X168987550Y-110020375D01*
X168819964Y-109934985D01*
X168769168Y-109887010D01*
X168752373Y-109819189D01*
X168774911Y-109753054D01*
X168829626Y-109709603D01*
X168876259Y-109700500D01*
X170222640Y-109700500D01*
X170289679Y-109720185D01*
G37*
G04 #@! TD.AperFunction*
G04 #@! TA.AperFunction,Conductor*
G36*
X186355270Y-147601717D02*
G01*
X186355270Y-147601716D01*
X186394622Y-147547555D01*
X186399232Y-147538507D01*
X186447205Y-147487709D01*
X186515025Y-147470912D01*
X186581161Y-147493447D01*
X186620204Y-147538504D01*
X186624949Y-147547817D01*
X186749890Y-147719786D01*
X186900213Y-147870109D01*
X187072179Y-147995048D01*
X187072181Y-147995049D01*
X187072184Y-147995051D01*
X187261588Y-148091557D01*
X187463757Y-148157246D01*
X187673713Y-148190500D01*
X187673714Y-148190500D01*
X187886286Y-148190500D01*
X187886287Y-148190500D01*
X188096243Y-148157246D01*
X188298412Y-148091557D01*
X188487816Y-147995051D01*
X188659792Y-147870104D01*
X188773329Y-147756566D01*
X188834648Y-147723084D01*
X188904340Y-147728068D01*
X188960274Y-147769939D01*
X188977189Y-147800917D01*
X189026202Y-147932328D01*
X189026206Y-147932335D01*
X189112452Y-148047544D01*
X189112455Y-148047547D01*
X189227664Y-148133793D01*
X189227671Y-148133797D01*
X189362517Y-148184091D01*
X189362516Y-148184091D01*
X189369444Y-148184835D01*
X189422127Y-148190500D01*
X191217872Y-148190499D01*
X191277483Y-148184091D01*
X191412331Y-148133796D01*
X191486189Y-148078505D01*
X191551652Y-148054088D01*
X191619925Y-148068939D01*
X191669331Y-148118344D01*
X191684500Y-148177772D01*
X191684500Y-150371324D01*
X191675855Y-150400764D01*
X191669332Y-150430751D01*
X191665577Y-150435766D01*
X191664815Y-150438363D01*
X191648181Y-150459005D01*
X191514005Y-150593181D01*
X191452682Y-150626666D01*
X191426324Y-150629500D01*
X181543676Y-150629500D01*
X181476637Y-150609815D01*
X181455995Y-150593181D01*
X181321819Y-150459005D01*
X181288334Y-150397682D01*
X181285500Y-150371324D01*
X181285500Y-147555116D01*
X181305185Y-147488077D01*
X181357989Y-147442322D01*
X181427147Y-147432378D01*
X181490703Y-147461403D01*
X181519985Y-147498821D01*
X181544951Y-147547820D01*
X181669890Y-147719786D01*
X181820213Y-147870109D01*
X181992179Y-147995048D01*
X181992181Y-147995049D01*
X181992184Y-147995051D01*
X182181588Y-148091557D01*
X182383757Y-148157246D01*
X182593713Y-148190500D01*
X182593714Y-148190500D01*
X182806286Y-148190500D01*
X182806287Y-148190500D01*
X183016243Y-148157246D01*
X183218412Y-148091557D01*
X183407816Y-147995051D01*
X183494138Y-147932335D01*
X183579786Y-147870109D01*
X183579788Y-147870106D01*
X183579792Y-147870104D01*
X183730104Y-147719792D01*
X183730106Y-147719788D01*
X183730109Y-147719786D01*
X183815890Y-147601717D01*
X183855051Y-147547816D01*
X183859793Y-147538508D01*
X183907763Y-147487711D01*
X183975583Y-147470911D01*
X184041719Y-147493445D01*
X184080763Y-147538500D01*
X184085373Y-147547547D01*
X184124728Y-147601716D01*
X184757037Y-146969408D01*
X184774075Y-147032993D01*
X184839901Y-147147007D01*
X184932993Y-147240099D01*
X185047007Y-147305925D01*
X185110590Y-147322962D01*
X184478282Y-147955269D01*
X184478282Y-147955270D01*
X184532449Y-147994624D01*
X184721782Y-148091095D01*
X184923870Y-148156757D01*
X185133754Y-148190000D01*
X185346246Y-148190000D01*
X185556127Y-148156757D01*
X185556130Y-148156757D01*
X185758217Y-148091095D01*
X185947554Y-147994622D01*
X186001716Y-147955270D01*
X186001717Y-147955270D01*
X185369408Y-147322962D01*
X185432993Y-147305925D01*
X185547007Y-147240099D01*
X185640099Y-147147007D01*
X185705925Y-147032993D01*
X185722962Y-146969408D01*
X186355270Y-147601717D01*
G37*
G04 #@! TD.AperFunction*
G04 #@! TA.AperFunction,Conductor*
G36*
X189864902Y-138270185D02*
G01*
X189910657Y-138322989D01*
X189920601Y-138392147D01*
X189891576Y-138455703D01*
X189845316Y-138489061D01*
X189707139Y-138546295D01*
X189567837Y-138639373D01*
X189449373Y-138757837D01*
X189356295Y-138897139D01*
X189292184Y-139051917D01*
X189292182Y-139051925D01*
X189259500Y-139216228D01*
X189259500Y-139383771D01*
X189292182Y-139548074D01*
X189292184Y-139548082D01*
X189356295Y-139702860D01*
X189449373Y-139842162D01*
X189567837Y-139960626D01*
X189660494Y-140022537D01*
X189707137Y-140053703D01*
X189861918Y-140117816D01*
X190026228Y-140150499D01*
X190026232Y-140150500D01*
X190026233Y-140150500D01*
X190193768Y-140150500D01*
X190193769Y-140150499D01*
X190358082Y-140117816D01*
X190512863Y-140053703D01*
X190652162Y-139960626D01*
X190770626Y-139842162D01*
X190863703Y-139702863D01*
X190927816Y-139548082D01*
X190960500Y-139383767D01*
X190960500Y-139216233D01*
X190927816Y-139051918D01*
X190863703Y-138897137D01*
X190832537Y-138850494D01*
X190770626Y-138757837D01*
X190652162Y-138639373D01*
X190512860Y-138546295D01*
X190374684Y-138489061D01*
X190320281Y-138445220D01*
X190298216Y-138378926D01*
X190315495Y-138311226D01*
X190366633Y-138263616D01*
X190422137Y-138250500D01*
X191426324Y-138250500D01*
X191455764Y-138259144D01*
X191485751Y-138265668D01*
X191490766Y-138269422D01*
X191493363Y-138270185D01*
X191514005Y-138286819D01*
X191648181Y-138420995D01*
X191681666Y-138482318D01*
X191684500Y-138508676D01*
X191684500Y-145502227D01*
X191664815Y-145569266D01*
X191612011Y-145615021D01*
X191542853Y-145624965D01*
X191486189Y-145601494D01*
X191468755Y-145588443D01*
X191412331Y-145546204D01*
X191412329Y-145546203D01*
X191412328Y-145546202D01*
X191277482Y-145495908D01*
X191277483Y-145495908D01*
X191217883Y-145489501D01*
X191217881Y-145489500D01*
X191217873Y-145489500D01*
X191217864Y-145489500D01*
X189422129Y-145489500D01*
X189422123Y-145489501D01*
X189362516Y-145495908D01*
X189227671Y-145546202D01*
X189227664Y-145546206D01*
X189112455Y-145632452D01*
X189112452Y-145632455D01*
X189026206Y-145747664D01*
X189026203Y-145747669D01*
X188977189Y-145879083D01*
X188935317Y-145935016D01*
X188869853Y-145959433D01*
X188801580Y-145944581D01*
X188773326Y-145923430D01*
X188659786Y-145809890D01*
X188487820Y-145684951D01*
X188298414Y-145588444D01*
X188298413Y-145588443D01*
X188298412Y-145588443D01*
X188096243Y-145522754D01*
X188096241Y-145522753D01*
X188096240Y-145522753D01*
X187934957Y-145497208D01*
X187886287Y-145489500D01*
X187673713Y-145489500D01*
X187625042Y-145497208D01*
X187463760Y-145522753D01*
X187261585Y-145588444D01*
X187072179Y-145684951D01*
X186900213Y-145809890D01*
X186749890Y-145960213D01*
X186624949Y-146132182D01*
X186620202Y-146141499D01*
X186572227Y-146192293D01*
X186504405Y-146209087D01*
X186438271Y-146186548D01*
X186399234Y-146141495D01*
X186394626Y-146132452D01*
X186355270Y-146078282D01*
X186355269Y-146078282D01*
X185722962Y-146710590D01*
X185705925Y-146647007D01*
X185640099Y-146532993D01*
X185547007Y-146439901D01*
X185432993Y-146374075D01*
X185369409Y-146357037D01*
X186001716Y-145724728D01*
X185947550Y-145685375D01*
X185758217Y-145588904D01*
X185556129Y-145523242D01*
X185346246Y-145490000D01*
X185133754Y-145490000D01*
X184923872Y-145523242D01*
X184923869Y-145523242D01*
X184721782Y-145588904D01*
X184532439Y-145685380D01*
X184478282Y-145724727D01*
X184478282Y-145724728D01*
X185110591Y-146357037D01*
X185047007Y-146374075D01*
X184932993Y-146439901D01*
X184839901Y-146532993D01*
X184774075Y-146647007D01*
X184757037Y-146710591D01*
X184124728Y-146078282D01*
X184124727Y-146078282D01*
X184085380Y-146132440D01*
X184085376Y-146132446D01*
X184080760Y-146141505D01*
X184032781Y-146192297D01*
X183964959Y-146209087D01*
X183898826Y-146186543D01*
X183859794Y-146141493D01*
X183855051Y-146132184D01*
X183855049Y-146132181D01*
X183855048Y-146132179D01*
X183730109Y-145960213D01*
X183579786Y-145809890D01*
X183407820Y-145684951D01*
X183218414Y-145588444D01*
X183218413Y-145588443D01*
X183218412Y-145588443D01*
X183016243Y-145522754D01*
X183016241Y-145522753D01*
X183016240Y-145522753D01*
X182854957Y-145497208D01*
X182806287Y-145489500D01*
X182593713Y-145489500D01*
X182545042Y-145497208D01*
X182383760Y-145522753D01*
X182181585Y-145588444D01*
X181992179Y-145684951D01*
X181820213Y-145809890D01*
X181669890Y-145960213D01*
X181544949Y-146132182D01*
X181519984Y-146181179D01*
X181472010Y-146231974D01*
X181404189Y-146248769D01*
X181338054Y-146226231D01*
X181294603Y-146171516D01*
X181285500Y-146124883D01*
X181285500Y-143516228D01*
X181959500Y-143516228D01*
X181959500Y-143683771D01*
X181992182Y-143848074D01*
X181992184Y-143848082D01*
X182056295Y-144002860D01*
X182149373Y-144142162D01*
X182267837Y-144260626D01*
X182360494Y-144322537D01*
X182407137Y-144353703D01*
X182561918Y-144417816D01*
X182726228Y-144450499D01*
X182726232Y-144450500D01*
X182726233Y-144450500D01*
X182893768Y-144450500D01*
X182893769Y-144450499D01*
X183058082Y-144417816D01*
X183212863Y-144353703D01*
X183352162Y-144260626D01*
X183389466Y-144223322D01*
X184960001Y-144223322D01*
X184970144Y-144322607D01*
X185023452Y-144483481D01*
X185023457Y-144483492D01*
X185112424Y-144627728D01*
X185112427Y-144627732D01*
X185232267Y-144747572D01*
X185232271Y-144747575D01*
X185376507Y-144836542D01*
X185376518Y-144836547D01*
X185537393Y-144889855D01*
X185636683Y-144899999D01*
X185660000Y-144899998D01*
X185660000Y-144175000D01*
X184960001Y-144175000D01*
X184960001Y-144223322D01*
X183389466Y-144223322D01*
X183470626Y-144142162D01*
X183563703Y-144002863D01*
X183627816Y-143848082D01*
X183660500Y-143683767D01*
X183660500Y-143626677D01*
X184960000Y-143626677D01*
X184960000Y-143675000D01*
X185660000Y-143675000D01*
X185660000Y-142950000D01*
X186160000Y-142950000D01*
X186160000Y-144899999D01*
X186183308Y-144899999D01*
X186183322Y-144899998D01*
X186282607Y-144889855D01*
X186443481Y-144836547D01*
X186443492Y-144836542D01*
X186587731Y-144747573D01*
X186596959Y-144738345D01*
X186658279Y-144704856D01*
X186727971Y-144709835D01*
X186772327Y-144738339D01*
X186781955Y-144747967D01*
X186781959Y-144747970D01*
X186926294Y-144836998D01*
X186926297Y-144836999D01*
X186926303Y-144837003D01*
X187087292Y-144890349D01*
X187186655Y-144900500D01*
X187733344Y-144900499D01*
X187733352Y-144900498D01*
X187733355Y-144900498D01*
X187787760Y-144894940D01*
X187832708Y-144890349D01*
X187993697Y-144837003D01*
X188138044Y-144747968D01*
X188257968Y-144628044D01*
X188347003Y-144483697D01*
X188400349Y-144322708D01*
X188410500Y-144223345D01*
X188410499Y-143626656D01*
X188400349Y-143527292D01*
X188396683Y-143516228D01*
X189259500Y-143516228D01*
X189259500Y-143683771D01*
X189292182Y-143848074D01*
X189292184Y-143848082D01*
X189356295Y-144002860D01*
X189449373Y-144142162D01*
X189567837Y-144260626D01*
X189660494Y-144322537D01*
X189707137Y-144353703D01*
X189861918Y-144417816D01*
X190026228Y-144450499D01*
X190026232Y-144450500D01*
X190026233Y-144450500D01*
X190193768Y-144450500D01*
X190193769Y-144450499D01*
X190358082Y-144417816D01*
X190512863Y-144353703D01*
X190652162Y-144260626D01*
X190770626Y-144142162D01*
X190863703Y-144002863D01*
X190927816Y-143848082D01*
X190960500Y-143683767D01*
X190960500Y-143516233D01*
X190927816Y-143351918D01*
X190873985Y-143221959D01*
X190863704Y-143197139D01*
X190770626Y-143057837D01*
X190652162Y-142939373D01*
X190512860Y-142846295D01*
X190358082Y-142782184D01*
X190358074Y-142782182D01*
X190193771Y-142749500D01*
X190193767Y-142749500D01*
X190026233Y-142749500D01*
X190026228Y-142749500D01*
X189861925Y-142782182D01*
X189861917Y-142782184D01*
X189707139Y-142846295D01*
X189567837Y-142939373D01*
X189449373Y-143057837D01*
X189356295Y-143197139D01*
X189292184Y-143351917D01*
X189292182Y-143351925D01*
X189259500Y-143516228D01*
X188396683Y-143516228D01*
X188347003Y-143366303D01*
X188346999Y-143366297D01*
X188346998Y-143366294D01*
X188257970Y-143221959D01*
X188257967Y-143221955D01*
X188138044Y-143102032D01*
X188138040Y-143102029D01*
X187993705Y-143013001D01*
X187993699Y-143012998D01*
X187993697Y-143012997D01*
X187993694Y-143012996D01*
X187832709Y-142959651D01*
X187733346Y-142949500D01*
X187186662Y-142949500D01*
X187186644Y-142949501D01*
X187087292Y-142959650D01*
X187087289Y-142959651D01*
X186926305Y-143012996D01*
X186926294Y-143013001D01*
X186781959Y-143102029D01*
X186781953Y-143102033D01*
X186772324Y-143111663D01*
X186711000Y-143145146D01*
X186641308Y-143140159D01*
X186596965Y-143111660D01*
X186587732Y-143102427D01*
X186587728Y-143102424D01*
X186443492Y-143013457D01*
X186443481Y-143013452D01*
X186282606Y-142960144D01*
X186183322Y-142950000D01*
X186160000Y-142950000D01*
X185660000Y-142950000D01*
X185660000Y-142949999D01*
X185636693Y-142950000D01*
X185636674Y-142950001D01*
X185537392Y-142960144D01*
X185376518Y-143013452D01*
X185376507Y-143013457D01*
X185232271Y-143102424D01*
X185232267Y-143102427D01*
X185112427Y-143222267D01*
X185112424Y-143222271D01*
X185023457Y-143366507D01*
X185023452Y-143366518D01*
X184970144Y-143527393D01*
X184960000Y-143626677D01*
X183660500Y-143626677D01*
X183660500Y-143516233D01*
X183627816Y-143351918D01*
X183573985Y-143221959D01*
X183563704Y-143197139D01*
X183470626Y-143057837D01*
X183352162Y-142939373D01*
X183212860Y-142846295D01*
X183058082Y-142782184D01*
X183058074Y-142782182D01*
X182893771Y-142749500D01*
X182893767Y-142749500D01*
X182726233Y-142749500D01*
X182726228Y-142749500D01*
X182561925Y-142782182D01*
X182561917Y-142782184D01*
X182407139Y-142846295D01*
X182267837Y-142939373D01*
X182149373Y-143057837D01*
X182056295Y-143197139D01*
X181992184Y-143351917D01*
X181992182Y-143351925D01*
X181959500Y-143516228D01*
X181285500Y-143516228D01*
X181285500Y-142226048D01*
X181305185Y-142159009D01*
X181310011Y-142153066D01*
X181310000Y-142150000D01*
X181300000Y-139410000D01*
X181299947Y-139395545D01*
X181283648Y-139366501D01*
X181280500Y-139338739D01*
X181280500Y-138508676D01*
X181289144Y-138479235D01*
X181295668Y-138449249D01*
X181299422Y-138444233D01*
X181300185Y-138441637D01*
X181316819Y-138420995D01*
X181450995Y-138286819D01*
X181512318Y-138253334D01*
X181538676Y-138250500D01*
X189797863Y-138250500D01*
X189864902Y-138270185D01*
G37*
G04 #@! TD.AperFunction*
M02*
