G04 #@! TF.GenerationSoftware,KiCad,Pcbnew,9.0.6*
G04 #@! TF.CreationDate,2026-03-09T11:50:09+09:00*
G04 #@! TF.ProjectId,PitotBoard2026,5069746f-7442-46f6-9172-64323032362e,rev?*
G04 #@! TF.SameCoordinates,Original*
G04 #@! TF.FileFunction,Profile,NP*
%FSLAX46Y46*%
G04 Gerber Fmt 4.6, Leading zero omitted, Abs format (unit mm)*
G04 Created by KiCad (PCBNEW 9.0.6) date 2026-03-09 11:50:09*
%MOMM*%
%LPD*%
G01*
G04 APERTURE LIST*
G04 #@! TA.AperFunction,Profile*
%ADD10C,0.050000*%
G04 #@! TD*
G04 #@! TA.AperFunction,Profile*
%ADD11C,0.010000*%
G04 #@! TD*
G04 APERTURE END LIST*
D10*
X146200000Y-109700000D02*
X146700000Y-109200000D01*
X144524369Y-144269677D02*
G75*
G02*
X145416692Y-145330000I-1489369J-2159023D01*
G01*
X180299669Y-109700000D02*
X179800000Y-109200000D01*
X146210000Y-147750000D02*
X146210000Y-148900000D01*
X146210000Y-147750000D02*
G75*
G02*
X145341174Y-147559344I-350000J480000D01*
G01*
X180300000Y-148900000D02*
X179800000Y-149400000D01*
X146710000Y-149400000D02*
X179800000Y-149400000D01*
X181285000Y-151130000D02*
X191685000Y-151130000D01*
X144035000Y-130635000D02*
X144534461Y-131135000D01*
X144520287Y-144275598D02*
X144534461Y-131135000D01*
X180300000Y-142120000D02*
X180300000Y-148900000D01*
X146210000Y-148900000D02*
X146710000Y-149400000D01*
X191685000Y-137750000D02*
X192185000Y-138250000D01*
X132935000Y-144541165D02*
X132935000Y-131135000D01*
X192185000Y-138250000D02*
X192185000Y-150630000D01*
X133435000Y-130635000D02*
X144035000Y-130635000D01*
X181280000Y-137750000D02*
X191685000Y-137750000D01*
X191685000Y-151130000D02*
X192185000Y-150630000D01*
X180785000Y-142120000D02*
X180785000Y-150630000D01*
X145415442Y-145329035D02*
G75*
G02*
X146200000Y-145210000I454558J-350965D01*
G01*
X180780000Y-139410000D02*
X180780000Y-138250000D01*
X146200000Y-145210002D02*
X146200000Y-109700000D01*
X180780000Y-138250000D02*
X181280000Y-137750000D01*
X180280000Y-139410000D02*
X180299669Y-109700000D01*
X145340000Y-147560000D02*
G75*
G02*
X141731648Y-148560932I-2305000J1305000D01*
G01*
X136034999Y-148555000D02*
X141735003Y-148555000D01*
X136035000Y-148555000D02*
G75*
G02*
X132928069Y-144548069I-1300000J2200000D01*
G01*
X181285000Y-151130000D02*
X180785000Y-150630000D01*
X180280000Y-139410000D02*
X180780000Y-139410000D01*
X180300000Y-142120000D02*
X180785000Y-142120000D01*
X133435000Y-130635000D02*
X132935000Y-131135000D01*
X179800000Y-109200000D02*
X146700000Y-109200000D01*
D11*
X183160000Y-143600000D02*
G75*
G02*
X182460000Y-143600000I-350000J0D01*
G01*
X182460000Y-143600000D02*
G75*
G02*
X183160000Y-143600000I350000J0D01*
G01*
X190460000Y-139300000D02*
G75*
G02*
X189760000Y-139300000I-350000J0D01*
G01*
X189760000Y-139300000D02*
G75*
G02*
X190460000Y-139300000I350000J0D01*
G01*
X190460000Y-143600000D02*
G75*
G02*
X189760000Y-143600000I-350000J0D01*
G01*
X189760000Y-143600000D02*
G75*
G02*
X190460000Y-143600000I350000J0D01*
G01*
M02*
