G04 #@! TF.GenerationSoftware,KiCad,Pcbnew,9.0.6*
G04 #@! TF.CreationDate,2026-03-09T11:50:09+09:00*
G04 #@! TF.ProjectId,PitotBoard2026,5069746f-7442-46f6-9172-64323032362e,rev?*
G04 #@! TF.SameCoordinates,Original*
G04 #@! TF.FileFunction,Soldermask,Bot*
G04 #@! TF.FilePolarity,Negative*
%FSLAX46Y46*%
G04 Gerber Fmt 4.6, Leading zero omitted, Abs format (unit mm)*
G04 Created by KiCad (PCBNEW 9.0.6) date 2026-03-09 11:50:09*
%MOMM*%
%LPD*%
G01*
G04 APERTURE LIST*
G04 Aperture macros list*
%AMRoundRect*
0 Rectangle with rounded corners*
0 $1 Rounding radius*
0 $2 $3 $4 $5 $6 $7 $8 $9 X,Y pos of 4 corners*
0 Add a 4 corners polygon primitive as box body*
4,1,4,$2,$3,$4,$5,$6,$7,$8,$9,$2,$3,0*
0 Add four circle primitives for the rounded corners*
1,1,$1+$1,$2,$3*
1,1,$1+$1,$4,$5*
1,1,$1+$1,$6,$7*
1,1,$1+$1,$8,$9*
0 Add four rect primitives between the rounded corners*
20,1,$1+$1,$2,$3,$4,$5,0*
20,1,$1+$1,$4,$5,$6,$7,0*
20,1,$1+$1,$6,$7,$8,$9,0*
20,1,$1+$1,$8,$9,$2,$3,0*%
G04 Aperture macros list end*
%ADD10C,0.500000*%
%ADD11C,2.200000*%
%ADD12R,1.700000X1.700000*%
%ADD13C,1.700000*%
%ADD14C,2.300000*%
%ADD15R,1.520000X1.520000*%
%ADD16C,1.520000*%
%ADD17RoundRect,0.250000X-0.550000X-0.550000X0.550000X-0.550000X0.550000X0.550000X-0.550000X0.550000X0*%
%ADD18C,1.600000*%
%ADD19C,0.000010*%
%ADD20C,1.900000*%
%ADD21RoundRect,0.137500X0.600000X0.137500X-0.600000X0.137500X-0.600000X-0.137500X0.600000X-0.137500X0*%
%ADD22RoundRect,0.137500X0.137500X0.600000X-0.137500X0.600000X-0.137500X-0.600000X0.137500X-0.600000X0*%
%ADD23RoundRect,0.225000X-0.225000X-0.250000X0.225000X-0.250000X0.225000X0.250000X-0.225000X0.250000X0*%
%ADD24RoundRect,0.100000X0.100000X-0.850000X0.100000X0.850000X-0.100000X0.850000X-0.100000X-0.850000X0*%
%ADD25RoundRect,0.200000X0.200000X0.275000X-0.200000X0.275000X-0.200000X-0.275000X0.200000X-0.275000X0*%
%ADD26RoundRect,0.200000X-0.200000X-0.275000X0.200000X-0.275000X0.200000X0.275000X-0.200000X0.275000X0*%
%ADD27RoundRect,0.150000X0.150000X-0.512500X0.150000X0.512500X-0.150000X0.512500X-0.150000X-0.512500X0*%
%ADD28RoundRect,0.225000X0.225000X0.250000X-0.225000X0.250000X-0.225000X-0.250000X0.225000X-0.250000X0*%
%ADD29R,1.300000X1.300000*%
%ADD30C,1.300000*%
%ADD31RoundRect,0.225000X-0.250000X0.225000X-0.250000X-0.225000X0.250000X-0.225000X0.250000X0.225000X0*%
%ADD32R,0.400000X1.900000*%
%ADD33RoundRect,0.225000X0.250000X-0.225000X0.250000X0.225000X-0.250000X0.225000X-0.250000X-0.225000X0*%
%ADD34R,1.900000X0.400000*%
%ADD35RoundRect,0.225000X-0.225000X-0.375000X0.225000X-0.375000X0.225000X0.375000X-0.225000X0.375000X0*%
G04 APERTURE END LIST*
D10*
X180510000Y-139970000D03*
D11*
X177300000Y-146400000D03*
D10*
X180500000Y-141570000D03*
D11*
X143035000Y-146355000D03*
D12*
X134850000Y-134890000D03*
D13*
X137390000Y-134890000D03*
X139930000Y-134890000D03*
X142470000Y-134890000D03*
D10*
X180510000Y-139970000D03*
D11*
X149200000Y-146400000D03*
D10*
X145860000Y-146470000D03*
X180510000Y-140770000D03*
X180500000Y-141570000D03*
D12*
X190320000Y-146840000D03*
D13*
X187780000Y-146840000D03*
X185240000Y-146840000D03*
X182700000Y-146840000D03*
D14*
X155500000Y-143100000D03*
X167500000Y-143100000D03*
D15*
X164050000Y-138260000D03*
D16*
X163030000Y-140800000D03*
X162010000Y-138260000D03*
X160990000Y-140800000D03*
X159970000Y-138260000D03*
X158950000Y-140800000D03*
D12*
X163200000Y-111175000D03*
D13*
X165740000Y-111175000D03*
X168280000Y-111175000D03*
X170820000Y-111175000D03*
D17*
X167295000Y-116990000D03*
D18*
X167295000Y-119530000D03*
X167295000Y-122070000D03*
X167295000Y-124610000D03*
X174915000Y-124610000D03*
X174915000Y-122070000D03*
X174915000Y-119530000D03*
X174915000Y-116990000D03*
D10*
X145860000Y-145670000D03*
D19*
X182810000Y-143600000D03*
X190110000Y-139300000D03*
X190110000Y-143600000D03*
D11*
X134735000Y-146355000D03*
D10*
X145850000Y-147270000D03*
D20*
X178037000Y-111910000D03*
X178037000Y-114450000D03*
X178037000Y-116990000D03*
X178037000Y-119530000D03*
X178037000Y-122070000D03*
X178037000Y-124610000D03*
D12*
X176625000Y-129500000D03*
D13*
X176625000Y-132040000D03*
X176625000Y-134580000D03*
X176625000Y-137120000D03*
D10*
X180510000Y-140770000D03*
D12*
X148700000Y-125385000D03*
D13*
X151240000Y-125385000D03*
X148700000Y-127925000D03*
X151240000Y-127925000D03*
X148700000Y-130465000D03*
X151240000Y-130465000D03*
D21*
X162462500Y-115100000D03*
X162462500Y-115900000D03*
X162462500Y-116700000D03*
X162462500Y-117500000D03*
X162462500Y-118300000D03*
X162462500Y-119100000D03*
X162462500Y-119900000D03*
X162462500Y-120700000D03*
D22*
X161100000Y-122062500D03*
X160300000Y-122062500D03*
X159500000Y-122062500D03*
X158700000Y-122062500D03*
X157900000Y-122062500D03*
X157100000Y-122062500D03*
X156300000Y-122062500D03*
X155500000Y-122062500D03*
D21*
X154137500Y-120700000D03*
X154137500Y-119900000D03*
X154137500Y-119100000D03*
X154137500Y-118300000D03*
X154137500Y-117500000D03*
X154137500Y-116700000D03*
X154137500Y-115900000D03*
X154137500Y-115100000D03*
D22*
X155500000Y-113737500D03*
X156300000Y-113737500D03*
X157100000Y-113737500D03*
X157900000Y-113737500D03*
X158700000Y-113737500D03*
X159500000Y-113737500D03*
X160300000Y-113737500D03*
X161100000Y-113737500D03*
D23*
X173425000Y-113700000D03*
X174975000Y-113700000D03*
D24*
X163125000Y-134200000D03*
X162475000Y-134200000D03*
X161825000Y-134200000D03*
X161175000Y-134200000D03*
X160525000Y-134200000D03*
X159875000Y-134200000D03*
X159225000Y-134200000D03*
X158575000Y-134200000D03*
X157925000Y-134200000D03*
X157275000Y-134200000D03*
X156625000Y-134200000D03*
X155975000Y-134200000D03*
X155325000Y-134200000D03*
X154675000Y-134200000D03*
X154675000Y-127200000D03*
X155325000Y-127200000D03*
X155975000Y-127200000D03*
X156625000Y-127200000D03*
X157275000Y-127200000D03*
X157925000Y-127200000D03*
X158575000Y-127200000D03*
X159225000Y-127200000D03*
X159875000Y-127200000D03*
X160525000Y-127200000D03*
X161175000Y-127200000D03*
X161825000Y-127200000D03*
X162475000Y-127200000D03*
X163125000Y-127200000D03*
D25*
X170150000Y-120000000D03*
X168500000Y-120000000D03*
D26*
X152600000Y-111800000D03*
X154250000Y-111800000D03*
D25*
X170150000Y-122075000D03*
X168500000Y-122075000D03*
D27*
X171950000Y-115937500D03*
X171000000Y-115937500D03*
X170050000Y-115937500D03*
X170050000Y-113662500D03*
X171950000Y-113662500D03*
D26*
X152600000Y-113325000D03*
X154250000Y-113325000D03*
D28*
X162950000Y-125250000D03*
X161400000Y-125250000D03*
D26*
X171750000Y-120025000D03*
X173400000Y-120025000D03*
D29*
X171850000Y-130160000D03*
D30*
X171850000Y-132700000D03*
X171850000Y-135240000D03*
D31*
X149200000Y-112875000D03*
X149200000Y-114425000D03*
D32*
X156600000Y-136700000D03*
X157800000Y-136700000D03*
X159000000Y-136700000D03*
D33*
X152400000Y-118875000D03*
X152400000Y-117325000D03*
D26*
X171750000Y-122075000D03*
X173400000Y-122075000D03*
D28*
X187460000Y-143925000D03*
X185910000Y-143925000D03*
D34*
X164725000Y-122150000D03*
X164725000Y-120950000D03*
X164725000Y-119750000D03*
D26*
X160675000Y-136200000D03*
X162325000Y-136200000D03*
D28*
X168575000Y-114900000D03*
X167025000Y-114900000D03*
D35*
X169650000Y-118100000D03*
X172950000Y-118100000D03*
M02*
