G04 #@! TF.GenerationSoftware,KiCad,Pcbnew,9.0.6*
G04 #@! TF.CreationDate,2026-03-10T19:02:13+09:00*
G04 #@! TF.ProjectId,PitotBoard2026,5069746f-7442-46f6-9172-64323032362e,rev?*
G04 #@! TF.SameCoordinates,Original*
G04 #@! TF.FileFunction,Copper,L2,Bot*
G04 #@! TF.FilePolarity,Positive*
%FSLAX46Y46*%
G04 Gerber Fmt 4.6, Leading zero omitted, Abs format (unit mm)*
G04 Created by KiCad (PCBNEW 9.0.6) date 2026-03-10 19:02:13*
%MOMM*%
%LPD*%
G01*
G04 APERTURE LIST*
G04 Aperture macros list*
%AMRoundRect*
0 Rectangle with rounded corners*
0 $1 Rounding radius*
0 $2 $3 $4 $5 $6 $7 $8 $9 X,Y pos of 4 corners*
0 Add a 4 corners polygon primitive as box body*
4,1,4,$2,$3,$4,$5,$6,$7,$8,$9,$2,$3,0*
0 Add four circle primitives for the rounded corners*
1,1,$1+$1,$2,$3*
1,1,$1+$1,$4,$5*
1,1,$1+$1,$6,$7*
1,1,$1+$1,$8,$9*
0 Add four rect primitives between the rounded corners*
20,1,$1+$1,$2,$3,$4,$5,0*
20,1,$1+$1,$4,$5,$6,$7,0*
20,1,$1+$1,$6,$7,$8,$9,0*
20,1,$1+$1,$8,$9,$2,$3,0*%
G04 Aperture macros list end*
G04 #@! TA.AperFunction,ComponentPad*
%ADD10R,1.700000X1.700000*%
G04 #@! TD*
G04 #@! TA.AperFunction,ComponentPad*
%ADD11C,1.700000*%
G04 #@! TD*
G04 #@! TA.AperFunction,ComponentPad*
%ADD12R,1.520000X1.520000*%
G04 #@! TD*
G04 #@! TA.AperFunction,ComponentPad*
%ADD13C,1.520000*%
G04 #@! TD*
G04 #@! TA.AperFunction,ComponentPad*
%ADD14RoundRect,0.250000X-0.550000X-0.550000X0.550000X-0.550000X0.550000X0.550000X-0.550000X0.550000X0*%
G04 #@! TD*
G04 #@! TA.AperFunction,ComponentPad*
%ADD15C,1.600000*%
G04 #@! TD*
G04 #@! TA.AperFunction,ComponentPad*
%ADD16C,1.900000*%
G04 #@! TD*
G04 #@! TA.AperFunction,SMDPad,CuDef*
%ADD17RoundRect,0.137500X0.600000X0.137500X-0.600000X0.137500X-0.600000X-0.137500X0.600000X-0.137500X0*%
G04 #@! TD*
G04 #@! TA.AperFunction,SMDPad,CuDef*
%ADD18RoundRect,0.137500X0.137500X0.600000X-0.137500X0.600000X-0.137500X-0.600000X0.137500X-0.600000X0*%
G04 #@! TD*
G04 #@! TA.AperFunction,SMDPad,CuDef*
%ADD19RoundRect,0.225000X-0.225000X-0.250000X0.225000X-0.250000X0.225000X0.250000X-0.225000X0.250000X0*%
G04 #@! TD*
G04 #@! TA.AperFunction,SMDPad,CuDef*
%ADD20RoundRect,0.100000X0.100000X-0.850000X0.100000X0.850000X-0.100000X0.850000X-0.100000X-0.850000X0*%
G04 #@! TD*
G04 #@! TA.AperFunction,SMDPad,CuDef*
%ADD21RoundRect,0.200000X0.200000X0.275000X-0.200000X0.275000X-0.200000X-0.275000X0.200000X-0.275000X0*%
G04 #@! TD*
G04 #@! TA.AperFunction,SMDPad,CuDef*
%ADD22RoundRect,0.200000X-0.200000X-0.275000X0.200000X-0.275000X0.200000X0.275000X-0.200000X0.275000X0*%
G04 #@! TD*
G04 #@! TA.AperFunction,SMDPad,CuDef*
%ADD23RoundRect,0.150000X0.150000X-0.512500X0.150000X0.512500X-0.150000X0.512500X-0.150000X-0.512500X0*%
G04 #@! TD*
G04 #@! TA.AperFunction,SMDPad,CuDef*
%ADD24RoundRect,0.225000X0.225000X0.250000X-0.225000X0.250000X-0.225000X-0.250000X0.225000X-0.250000X0*%
G04 #@! TD*
G04 #@! TA.AperFunction,ComponentPad*
%ADD25R,1.300000X1.300000*%
G04 #@! TD*
G04 #@! TA.AperFunction,ComponentPad*
%ADD26C,1.300000*%
G04 #@! TD*
G04 #@! TA.AperFunction,SMDPad,CuDef*
%ADD27RoundRect,0.225000X-0.250000X0.225000X-0.250000X-0.225000X0.250000X-0.225000X0.250000X0.225000X0*%
G04 #@! TD*
G04 #@! TA.AperFunction,SMDPad,CuDef*
%ADD28R,0.400000X1.900000*%
G04 #@! TD*
G04 #@! TA.AperFunction,SMDPad,CuDef*
%ADD29RoundRect,0.225000X0.250000X-0.225000X0.250000X0.225000X-0.250000X0.225000X-0.250000X-0.225000X0*%
G04 #@! TD*
G04 #@! TA.AperFunction,SMDPad,CuDef*
%ADD30R,1.900000X0.400000*%
G04 #@! TD*
G04 #@! TA.AperFunction,SMDPad,CuDef*
%ADD31RoundRect,0.225000X-0.225000X-0.375000X0.225000X-0.375000X0.225000X0.375000X-0.225000X0.375000X0*%
G04 #@! TD*
G04 #@! TA.AperFunction,ViaPad*
%ADD32C,0.700000*%
G04 #@! TD*
G04 #@! TA.AperFunction,ViaPad*
%ADD33C,0.600000*%
G04 #@! TD*
G04 #@! TA.AperFunction,ViaPad*
%ADD34C,0.500000*%
G04 #@! TD*
G04 #@! TA.AperFunction,Conductor*
%ADD35C,0.400000*%
G04 #@! TD*
G04 #@! TA.AperFunction,Conductor*
%ADD36C,0.200000*%
G04 #@! TD*
G04 APERTURE END LIST*
D10*
X135095000Y-129025000D03*
D11*
X137635000Y-129025000D03*
X140175000Y-129025000D03*
X142715000Y-129025000D03*
D10*
X182585000Y-137000000D03*
D11*
X185125000Y-137000000D03*
X187665000Y-137000000D03*
X190205000Y-137000000D03*
D12*
X164050000Y-138260000D03*
D13*
X163030000Y-140800000D03*
X162010000Y-138260000D03*
X160990000Y-140800000D03*
X159970000Y-138260000D03*
X158950000Y-140800000D03*
D10*
X163200000Y-111175000D03*
D11*
X165740000Y-111175000D03*
X168280000Y-111175000D03*
X170820000Y-111175000D03*
D14*
X167295000Y-116990000D03*
D15*
X167295000Y-119530000D03*
X167295000Y-122070000D03*
X167295000Y-124610000D03*
X174915000Y-124610000D03*
X174915000Y-122070000D03*
X174915000Y-119530000D03*
X174915000Y-116990000D03*
D16*
X178037000Y-111910000D03*
X178037000Y-114450000D03*
X178037000Y-116990000D03*
X178037000Y-119530000D03*
X178037000Y-122070000D03*
X178037000Y-124610000D03*
D10*
X176625000Y-129500000D03*
D11*
X176625000Y-132040000D03*
X176625000Y-134580000D03*
X176625000Y-137120000D03*
D10*
X148700000Y-125385000D03*
D11*
X151240000Y-125385000D03*
X148700000Y-127925000D03*
X151240000Y-127925000D03*
X148700000Y-130465000D03*
X151240000Y-130465000D03*
D17*
X162462500Y-115100000D03*
X162462500Y-115900000D03*
X162462500Y-116700000D03*
X162462500Y-117500000D03*
X162462500Y-118300000D03*
X162462500Y-119100000D03*
X162462500Y-119900000D03*
X162462500Y-120700000D03*
D18*
X161100000Y-122062500D03*
X160300000Y-122062500D03*
X159500000Y-122062500D03*
X158700000Y-122062500D03*
X157900000Y-122062500D03*
X157100000Y-122062500D03*
X156300000Y-122062500D03*
X155500000Y-122062500D03*
D17*
X154137500Y-120700000D03*
X154137500Y-119900000D03*
X154137500Y-119100000D03*
X154137500Y-118300000D03*
X154137500Y-117500000D03*
X154137500Y-116700000D03*
X154137500Y-115900000D03*
X154137500Y-115100000D03*
D18*
X155500000Y-113737500D03*
X156300000Y-113737500D03*
X157100000Y-113737500D03*
X157900000Y-113737500D03*
X158700000Y-113737500D03*
X159500000Y-113737500D03*
X160300000Y-113737500D03*
X161100000Y-113737500D03*
D19*
X173425000Y-113700000D03*
X174975000Y-113700000D03*
D20*
X163125000Y-134200000D03*
X162475000Y-134200000D03*
X161825000Y-134200000D03*
X161175000Y-134200000D03*
X160525000Y-134200000D03*
X159875000Y-134200000D03*
X159225000Y-134200000D03*
X158575000Y-134200000D03*
X157925000Y-134200000D03*
X157275000Y-134200000D03*
X156625000Y-134200000D03*
X155975000Y-134200000D03*
X155325000Y-134200000D03*
X154675000Y-134200000D03*
X154675000Y-127200000D03*
X155325000Y-127200000D03*
X155975000Y-127200000D03*
X156625000Y-127200000D03*
X157275000Y-127200000D03*
X157925000Y-127200000D03*
X158575000Y-127200000D03*
X159225000Y-127200000D03*
X159875000Y-127200000D03*
X160525000Y-127200000D03*
X161175000Y-127200000D03*
X161825000Y-127200000D03*
X162475000Y-127200000D03*
X163125000Y-127200000D03*
D21*
X170150000Y-120000000D03*
X168500000Y-120000000D03*
D22*
X152600000Y-111800000D03*
X154250000Y-111800000D03*
D21*
X170150000Y-122075000D03*
X168500000Y-122075000D03*
D23*
X171950000Y-115937500D03*
X171000000Y-115937500D03*
X170050000Y-115937500D03*
X170050000Y-113662500D03*
X171950000Y-113662500D03*
D22*
X152600000Y-113325000D03*
X154250000Y-113325000D03*
D24*
X162950000Y-125250000D03*
X161400000Y-125250000D03*
D22*
X171750000Y-120025000D03*
X173400000Y-120025000D03*
D25*
X171850000Y-130160000D03*
D26*
X171850000Y-132700000D03*
X171850000Y-135240000D03*
D27*
X149200000Y-112875000D03*
X149200000Y-114425000D03*
D28*
X156600000Y-136700000D03*
X157800000Y-136700000D03*
X159000000Y-136700000D03*
D29*
X152400000Y-118875000D03*
X152400000Y-117325000D03*
D22*
X171750000Y-122075000D03*
X173400000Y-122075000D03*
D19*
X185445000Y-139915000D03*
X186995000Y-139915000D03*
D30*
X164725000Y-122150000D03*
X164725000Y-120950000D03*
X164725000Y-119750000D03*
D22*
X160675000Y-136200000D03*
X162325000Y-136200000D03*
D24*
X168575000Y-114900000D03*
X167025000Y-114900000D03*
D31*
X169650000Y-118100000D03*
X172950000Y-118100000D03*
D32*
X152870000Y-139700000D03*
X160200000Y-111000000D03*
X162700000Y-146300000D03*
X170800000Y-147300000D03*
X155000000Y-131000000D03*
X176200000Y-140800000D03*
D33*
X155400000Y-118025000D03*
D32*
X152130000Y-132620000D03*
X159500000Y-130850000D03*
X157875000Y-132400000D03*
X170900000Y-125900000D03*
X160800000Y-115300000D03*
X150100000Y-116800000D03*
X161400000Y-125250000D03*
D33*
X147570000Y-110480000D03*
D32*
X170800000Y-141500000D03*
X172800000Y-112300000D03*
X175700000Y-111700000D03*
X166600000Y-130500000D03*
X172800000Y-112300000D03*
X166800000Y-134000000D03*
X168100000Y-138800000D03*
X152750000Y-145960000D03*
X168700000Y-113500000D03*
X173800000Y-143800000D03*
D33*
X156750000Y-120320000D03*
D32*
X164800000Y-124600000D03*
X147840000Y-134160000D03*
X152600000Y-117762500D03*
X159000000Y-143600000D03*
X149800000Y-120600000D03*
X147620000Y-143160000D03*
X151275000Y-111450000D03*
X179300000Y-137600000D03*
D33*
X154780000Y-123120000D03*
D32*
X173675000Y-128700000D03*
X161200000Y-118675000D03*
D33*
X151900000Y-115470000D03*
D32*
X156300000Y-146600000D03*
D33*
X152590000Y-123730000D03*
D32*
X161200000Y-117125000D03*
X149275000Y-110670000D03*
X155400000Y-119575000D03*
X158375000Y-123700000D03*
X152875000Y-119875000D03*
X164375000Y-114124000D03*
X162825000Y-132350000D03*
D33*
X135370000Y-126650000D03*
D32*
X138680000Y-141090000D03*
X138580000Y-134590000D03*
D33*
X142680000Y-126430000D03*
D32*
X141680000Y-130690000D03*
X142055000Y-137065000D03*
X136865000Y-137025000D03*
X162950000Y-125250000D03*
D33*
X181770000Y-143600000D03*
X182010000Y-141160000D03*
X182540000Y-134550000D03*
D32*
X190120000Y-144790000D03*
X186445000Y-139940000D03*
D33*
X190300000Y-134470000D03*
X183245000Y-142390000D03*
X181830000Y-138990000D03*
D32*
X185445000Y-139940000D03*
X159687500Y-120500000D03*
X160675000Y-136200000D03*
X156300000Y-123800000D03*
X154700000Y-125550000D03*
X153862500Y-127500000D03*
D34*
X155325000Y-127200000D03*
X162462500Y-116700000D03*
D33*
X170850000Y-113900000D03*
D32*
X154250000Y-113325000D03*
X154250000Y-111800000D03*
X158225000Y-115000000D03*
D34*
X159525000Y-132400000D03*
D32*
X156475000Y-129500000D03*
X165300000Y-117750000D03*
X164037500Y-115962500D03*
X156600000Y-136700000D03*
D34*
X157925000Y-134200000D03*
D35*
X154137500Y-118300000D02*
X153174943Y-118300000D01*
X153174943Y-118300000D02*
X152599943Y-118875000D01*
D36*
X152599943Y-118875000D02*
X152400000Y-118875000D01*
D35*
X157800000Y-136700000D02*
X157800000Y-136600000D01*
X159171000Y-139421000D02*
X161651000Y-139421000D01*
D36*
X152400000Y-117625000D02*
X152400000Y-117325000D01*
D35*
X161651000Y-139421000D02*
X163030000Y-140800000D01*
X152950000Y-117325000D02*
X152400000Y-117325000D01*
X154137500Y-117500000D02*
X154875000Y-117500000D01*
X163175000Y-118300000D02*
X166575000Y-114900000D01*
X168280000Y-111175000D02*
X167025000Y-112430000D01*
D36*
X169024110Y-114124000D02*
X167801000Y-114124000D01*
D35*
X176625000Y-123482000D02*
X178037000Y-122070000D01*
X157800000Y-136700000D02*
X157800000Y-138050000D01*
X149200000Y-114425000D02*
X152100000Y-117325000D01*
X165475000Y-120950000D02*
X166094000Y-121569000D01*
D36*
X171000000Y-115937500D02*
X171000000Y-115275001D01*
X171000000Y-115275001D02*
X170376990Y-114651991D01*
D35*
X169531000Y-109924000D02*
X168280000Y-111175000D01*
X174975000Y-113700000D02*
X174975000Y-113225000D01*
D36*
X152537500Y-117762500D02*
X152400000Y-117625000D01*
D35*
X153125000Y-117500000D02*
X152950000Y-117325000D01*
X166575000Y-114900000D02*
X167025000Y-114900000D01*
X157275000Y-134200000D02*
X157275000Y-133000000D01*
X176625000Y-129500000D02*
X174475000Y-129500000D01*
X157800000Y-136600000D02*
X157274000Y-136074000D01*
X174975000Y-113700000D02*
X177287000Y-113700000D01*
X171674000Y-109924000D02*
X169531000Y-109924000D01*
X157275000Y-133000000D02*
X157875000Y-132400000D01*
D36*
X169552101Y-114651991D02*
X169024110Y-114124000D01*
X167801000Y-114124000D02*
X167025000Y-114900000D01*
D35*
X177287000Y-113700000D02*
X178037000Y-114450000D01*
D36*
X170376990Y-114651991D02*
X169552101Y-114651991D01*
D35*
X157274000Y-136074000D02*
X157274000Y-134200000D01*
X166094000Y-123409000D02*
X167295000Y-124610000D01*
X167025000Y-112430000D02*
X167025000Y-114900000D01*
X161825000Y-127200000D02*
X161825000Y-125675000D01*
X161575000Y-118300000D02*
X161200000Y-118675000D01*
X162462500Y-118300000D02*
X163175000Y-118300000D01*
X154875000Y-117500000D02*
X155400000Y-118025000D01*
X161825000Y-125675000D02*
X161400000Y-125250000D01*
X154137500Y-117500000D02*
X153125000Y-117500000D01*
X152100000Y-117325000D02*
X152400000Y-117325000D01*
X157800000Y-138050000D02*
X159171000Y-139421000D01*
X174975000Y-113225000D02*
X171674000Y-109924000D01*
X166094000Y-121569000D02*
X166094000Y-123409000D01*
X162462500Y-118300000D02*
X161575000Y-118300000D01*
X176625000Y-129500000D02*
X176625000Y-123482000D01*
X174475000Y-129500000D02*
X173675000Y-128700000D01*
X164725000Y-120950000D02*
X165475000Y-120950000D01*
X161575000Y-117500000D02*
X161200000Y-117125000D01*
X162462500Y-117500000D02*
X161575000Y-117500000D01*
X157275000Y-124924942D02*
X158375000Y-123824942D01*
X168575000Y-114900000D02*
X169012500Y-114900000D01*
X164375000Y-114124000D02*
X162850000Y-112599000D01*
X149200000Y-110745000D02*
X149275000Y-110670000D01*
X171950000Y-115937500D02*
X171950000Y-116433388D01*
X168575000Y-114900000D02*
X168575000Y-115710000D01*
X155075000Y-119900000D02*
X155400000Y-119575000D01*
X170150000Y-118600000D02*
X169650000Y-118100000D01*
X147449000Y-129214000D02*
X148700000Y-130465000D01*
X157275000Y-127200000D02*
X157275000Y-124924942D01*
X171950000Y-116433388D02*
X171382388Y-117001000D01*
X170150000Y-120000000D02*
X170150000Y-118600000D01*
X149650000Y-113325000D02*
X149200000Y-112875000D01*
X159649000Y-112599000D02*
X157974000Y-110924000D01*
X157974000Y-110924000D02*
X153476000Y-110924000D01*
X168575000Y-115710000D02*
X167295000Y-116990000D01*
X170150000Y-120000000D02*
X170150000Y-122075000D01*
X152600000Y-113325000D02*
X149650000Y-113325000D01*
X153476000Y-110924000D02*
X152600000Y-111800000D01*
X149200000Y-112875000D02*
X149200000Y-110745000D01*
X171382388Y-117001000D02*
X170401000Y-117001000D01*
X169012500Y-114900000D02*
X170050000Y-115937500D01*
X149275000Y-110670000D02*
X147449000Y-112496000D01*
X170050000Y-117700000D02*
X169650000Y-118100000D01*
X153216863Y-119875000D02*
X153241863Y-119900000D01*
X152875000Y-119875000D02*
X153216863Y-119875000D01*
X162850000Y-112599000D02*
X159649000Y-112599000D01*
X170050000Y-116650000D02*
X170050000Y-115937500D01*
X158375000Y-123824942D02*
X158375000Y-123700000D01*
X170050000Y-115937500D02*
X170050000Y-117700000D01*
X147449000Y-112496000D02*
X147449000Y-129214000D01*
X152600000Y-111800000D02*
X152600000Y-113325000D01*
X153241863Y-119900000D02*
X154137500Y-119900000D01*
X154137500Y-119900000D02*
X155075000Y-119900000D01*
X170401000Y-117001000D02*
X170050000Y-116650000D01*
X173425000Y-113700000D02*
X171987500Y-113700000D01*
X171750000Y-123425000D02*
X162825000Y-132350000D01*
X171987500Y-113700000D02*
X171950000Y-113662500D01*
X174925000Y-115550000D02*
X174915000Y-115560000D01*
X172950000Y-118825000D02*
X171750000Y-120025000D01*
X171750000Y-120025000D02*
X171750000Y-122075000D01*
X163125000Y-132650000D02*
X162825000Y-132350000D01*
X174060000Y-116990000D02*
X172950000Y-118100000D01*
X174915000Y-115560000D02*
X174915000Y-116990000D01*
X174925000Y-115200000D02*
X174925000Y-115550000D01*
X171750000Y-122075000D02*
X171750000Y-123425000D01*
X173425000Y-113700000D02*
X174925000Y-115200000D01*
X174915000Y-116990000D02*
X174060000Y-116990000D01*
X172950000Y-118100000D02*
X172950000Y-118825000D01*
X163125000Y-134200000D02*
X163125000Y-132650000D01*
X142055000Y-137065000D02*
X136905000Y-137065000D01*
X136905000Y-137065000D02*
X136865000Y-137025000D01*
X162475000Y-127200000D02*
X162475000Y-125725000D01*
X162475000Y-125725000D02*
X162950000Y-125250000D01*
X186445000Y-139940000D02*
X186970000Y-139940000D01*
X186970000Y-139940000D02*
X186995000Y-139915000D01*
X185445000Y-139915000D02*
X185445000Y-139940000D01*
X159500000Y-122062500D02*
X159500000Y-120687500D01*
X159500000Y-120687500D02*
X159687500Y-120500000D01*
X161825000Y-135700000D02*
X161825000Y-134200000D01*
X162325000Y-137945000D02*
X162010000Y-138260000D01*
X162325000Y-136200000D02*
X161825000Y-135700000D01*
X162325000Y-136200000D02*
X162325000Y-137945000D01*
X161175000Y-135700000D02*
X160675000Y-136200000D01*
X161175000Y-134200000D02*
X161175000Y-135700000D01*
X154675000Y-125725000D02*
X154700000Y-125700000D01*
X154675000Y-127200000D02*
X154675000Y-125725000D01*
X154700000Y-125700000D02*
X154700000Y-125550000D01*
X156300000Y-123800000D02*
X156300000Y-122062500D01*
X153862500Y-127500000D02*
X153862500Y-133387500D01*
X153862500Y-127500000D02*
X153862500Y-120975000D01*
X153862500Y-133387500D02*
X154675000Y-134200000D01*
X153862500Y-120975000D02*
X154137500Y-120700000D01*
X155500000Y-125820654D02*
X155500000Y-122062500D01*
X155325000Y-127200000D02*
X155325000Y-125995654D01*
X155325000Y-125995000D02*
X155500000Y-125820000D01*
X167300000Y-122075000D02*
X167295000Y-122070000D01*
X168500000Y-122075000D02*
X167300000Y-122075000D01*
X167765000Y-120000000D02*
X167295000Y-119530000D01*
X166865000Y-119100000D02*
X167295000Y-119530000D01*
X162462500Y-119100000D02*
X166865000Y-119100000D01*
X168500000Y-120000000D02*
X167765000Y-120000000D01*
X170850000Y-113900000D02*
X170850000Y-111205000D01*
X174910000Y-122075000D02*
X174915000Y-122070000D01*
X173400000Y-122075000D02*
X174910000Y-122075000D01*
X170850000Y-111205000D02*
X170820000Y-111175000D01*
X173895000Y-119530000D02*
X173400000Y-120025000D01*
X174915000Y-119530000D02*
X173895000Y-119530000D01*
X156912364Y-112599000D02*
X157100000Y-112786636D01*
X157100000Y-112786636D02*
X157100000Y-113737500D01*
X154250000Y-113325000D02*
X154976000Y-112599000D01*
X154976000Y-112599000D02*
X156912364Y-112599000D01*
X157900000Y-112736694D02*
X157900000Y-113737500D01*
X156963306Y-111800000D02*
X157900000Y-112736694D01*
X154250000Y-111800000D02*
X156963306Y-111800000D01*
X158700000Y-114525000D02*
X158225000Y-115000000D01*
X158700000Y-113737500D02*
X158700000Y-114525000D01*
X160525000Y-133188708D02*
X159736292Y-132400000D01*
X160525000Y-134200000D02*
X160525000Y-133188708D01*
X159736292Y-132400000D02*
X159525000Y-132400000D01*
X156625000Y-127200000D02*
X156625000Y-129350000D01*
X156625000Y-129350000D02*
X156475000Y-129500000D01*
X156101000Y-126069596D02*
X155975000Y-126195596D01*
X155975000Y-126195596D02*
X155975000Y-127200000D01*
X157100000Y-124250000D02*
X156101000Y-125249000D01*
X156101000Y-125249000D02*
X156101000Y-126069596D01*
X157100000Y-122062500D02*
X157100000Y-124250000D01*
X162462500Y-119900000D02*
X164575000Y-119900000D01*
X164575000Y-119900000D02*
X164725000Y-119750000D01*
X156888708Y-131625000D02*
X161978471Y-131625000D01*
X155325000Y-134200000D02*
X155325000Y-133188708D01*
X164037500Y-115962500D02*
X163175000Y-115100000D01*
X168159484Y-118329000D02*
X165879000Y-118329000D01*
X163175000Y-115100000D02*
X162462500Y-115100000D01*
X161978471Y-131625000D02*
X169301000Y-124302471D01*
X155325000Y-133188708D02*
X156888708Y-131625000D01*
X169301000Y-124302471D02*
X169301000Y-119470516D01*
X169301000Y-119470516D02*
X168159484Y-118329000D01*
X165879000Y-118329000D02*
X165300000Y-117750000D01*
X162462500Y-120700000D02*
X163912500Y-122150000D01*
X163912500Y-122150000D02*
X164725000Y-122150000D01*
D36*
X158575000Y-128149999D02*
X158876001Y-128451000D01*
X163125000Y-128069870D02*
X163125000Y-127200000D01*
X158575000Y-127200000D02*
X158575000Y-128149999D01*
X158876001Y-128451000D02*
X162743870Y-128451000D01*
X162743870Y-128451000D02*
X163125000Y-128069870D01*
X158575000Y-134200000D02*
X158575000Y-136275000D01*
X158575000Y-136275000D02*
X159000000Y-136700000D01*
X158226001Y-125949000D02*
X160349000Y-125949000D01*
X157925000Y-126250001D02*
X158226001Y-125949000D01*
X160349000Y-125949000D02*
X160525000Y-126125000D01*
X160525000Y-126125000D02*
X160525000Y-127200000D01*
X157925000Y-127200000D02*
X157925000Y-126250001D01*
G04 #@! TA.AperFunction,Conductor*
G36*
X144205329Y-129266925D02*
G01*
X144256805Y-129314169D01*
X144274618Y-129378337D01*
X144264832Y-138377558D01*
X144264825Y-138383629D01*
X144259615Y-138436207D01*
X144264735Y-138467341D01*
X144264724Y-138477536D01*
X144264715Y-138485347D01*
X144270926Y-138508627D01*
X144273472Y-138520464D01*
X144281001Y-138566243D01*
X144281003Y-138566247D01*
X144293909Y-138594778D01*
X144298685Y-138612679D01*
X144314167Y-138639562D01*
X144316669Y-138645092D01*
X144335317Y-138686317D01*
X144348275Y-138702126D01*
X144348276Y-138702126D01*
X144354741Y-138710014D01*
X144364453Y-138726878D01*
X144387471Y-138749946D01*
X144418856Y-138788237D01*
X144434664Y-138799580D01*
X144436128Y-138800648D01*
X144443552Y-138806149D01*
X144457538Y-138820166D01*
X144480044Y-138833192D01*
X144485686Y-138837373D01*
X144486167Y-138838009D01*
X144489248Y-138840114D01*
X144542542Y-138882686D01*
X144632436Y-138954493D01*
X144642007Y-138962983D01*
X144783460Y-139102145D01*
X144792097Y-139111566D01*
X144872821Y-139209308D01*
X144899790Y-139269542D01*
X145096892Y-140559662D01*
X145096372Y-140600250D01*
X144893645Y-141732140D01*
X144888290Y-141744371D01*
X144887530Y-141754247D01*
X144870447Y-141785131D01*
X144840485Y-141824703D01*
X144830238Y-141836590D01*
X144659402Y-142011116D01*
X144647737Y-142021614D01*
X144456228Y-142173163D01*
X144443329Y-142182104D01*
X144234206Y-142308252D01*
X144220282Y-142315491D01*
X143996908Y-142414212D01*
X143982181Y-142419635D01*
X143748119Y-142489354D01*
X143732825Y-142492873D01*
X143491842Y-142532467D01*
X143476226Y-142534027D01*
X143232157Y-142542867D01*
X143216469Y-142542441D01*
X142973246Y-142520382D01*
X142957740Y-142517979D01*
X142719238Y-142465373D01*
X142704173Y-142461034D01*
X142588516Y-142419635D01*
X142474235Y-142378728D01*
X142459826Y-142372516D01*
X142341419Y-142312312D01*
X142238601Y-142260034D01*
X142231722Y-142256257D01*
X142178391Y-142224744D01*
X142178393Y-142224744D01*
X142093763Y-142201148D01*
X142051449Y-142189350D01*
X142051447Y-142189349D01*
X142051446Y-142189349D01*
X141926194Y-142188083D01*
X141919671Y-142188018D01*
X141919670Y-142188018D01*
X141919666Y-142188018D01*
X141914906Y-142188596D01*
X141899963Y-142189500D01*
X136343322Y-142189500D01*
X136340829Y-142188859D01*
X136277414Y-142189500D01*
X136213907Y-142189500D01*
X136212174Y-142189746D01*
X136209060Y-142190188D01*
X136148561Y-142207055D01*
X136147356Y-142207384D01*
X136086813Y-142223607D01*
X136083904Y-142224811D01*
X136083866Y-142224828D01*
X136082276Y-142225486D01*
X136028886Y-142257033D01*
X136021747Y-142260941D01*
X135791934Y-142377109D01*
X135776957Y-142383483D01*
X135537760Y-142467201D01*
X135522077Y-142471558D01*
X135273975Y-142523224D01*
X135257857Y-142525489D01*
X135005132Y-142544213D01*
X134988855Y-142544348D01*
X134735844Y-142529806D01*
X134719691Y-142527807D01*
X134470775Y-142480254D01*
X134455022Y-142476157D01*
X134214477Y-142396409D01*
X134199396Y-142390284D01*
X133971368Y-142279715D01*
X133957220Y-142271668D01*
X133745631Y-142132180D01*
X133732659Y-142122348D01*
X133541177Y-141956359D01*
X133529605Y-141944914D01*
X133361501Y-141755261D01*
X133351531Y-141742404D01*
X133209719Y-141532367D01*
X133201518Y-141518312D01*
X133088440Y-141291514D01*
X133082149Y-141276502D01*
X132999751Y-141036845D01*
X132995481Y-141021138D01*
X132945185Y-140772759D01*
X132943010Y-140756643D01*
X132925678Y-140503791D01*
X132925634Y-140487539D01*
X132932175Y-140383713D01*
X133629500Y-140383713D01*
X133629500Y-140596286D01*
X133662753Y-140806239D01*
X133728444Y-141008414D01*
X133824951Y-141197820D01*
X133949890Y-141369786D01*
X134100213Y-141520109D01*
X134272179Y-141645048D01*
X134272181Y-141645049D01*
X134272184Y-141645051D01*
X134461588Y-141741557D01*
X134663757Y-141807246D01*
X134873713Y-141840500D01*
X134873714Y-141840500D01*
X135086286Y-141840500D01*
X135086287Y-141840500D01*
X135296243Y-141807246D01*
X135498412Y-141741557D01*
X135687816Y-141645051D01*
X135792787Y-141568786D01*
X135859786Y-141520109D01*
X135859788Y-141520106D01*
X135859792Y-141520104D01*
X136010104Y-141369792D01*
X136010106Y-141369788D01*
X136010109Y-141369786D01*
X136135048Y-141197820D01*
X136135047Y-141197820D01*
X136135051Y-141197816D01*
X136231557Y-141008412D01*
X136297246Y-140806243D01*
X136330500Y-140596287D01*
X136330500Y-140383713D01*
X141929500Y-140383713D01*
X141929500Y-140596286D01*
X141962753Y-140806239D01*
X142028444Y-141008414D01*
X142124951Y-141197820D01*
X142249890Y-141369786D01*
X142400213Y-141520109D01*
X142572179Y-141645048D01*
X142572181Y-141645049D01*
X142572184Y-141645051D01*
X142761588Y-141741557D01*
X142963757Y-141807246D01*
X143173713Y-141840500D01*
X143173714Y-141840500D01*
X143386286Y-141840500D01*
X143386287Y-141840500D01*
X143596243Y-141807246D01*
X143798412Y-141741557D01*
X143987816Y-141645051D01*
X144092787Y-141568786D01*
X144159786Y-141520109D01*
X144159788Y-141520106D01*
X144159792Y-141520104D01*
X144310104Y-141369792D01*
X144310106Y-141369788D01*
X144310109Y-141369786D01*
X144435048Y-141197820D01*
X144435047Y-141197820D01*
X144435051Y-141197816D01*
X144531557Y-141008412D01*
X144597246Y-140806243D01*
X144630500Y-140596287D01*
X144630500Y-140383713D01*
X144597246Y-140173757D01*
X144531557Y-139971588D01*
X144435051Y-139782184D01*
X144435049Y-139782181D01*
X144435048Y-139782179D01*
X144310109Y-139610213D01*
X144159786Y-139459890D01*
X143987820Y-139334951D01*
X143798414Y-139238444D01*
X143798413Y-139238443D01*
X143798412Y-139238443D01*
X143596243Y-139172754D01*
X143596241Y-139172753D01*
X143596240Y-139172753D01*
X143434957Y-139147208D01*
X143386287Y-139139500D01*
X143173713Y-139139500D01*
X143125042Y-139147208D01*
X142963760Y-139172753D01*
X142761585Y-139238444D01*
X142572179Y-139334951D01*
X142400213Y-139459890D01*
X142249890Y-139610213D01*
X142124951Y-139782179D01*
X142028444Y-139971585D01*
X141962753Y-140173760D01*
X141929500Y-140383713D01*
X136330500Y-140383713D01*
X136297246Y-140173757D01*
X136231557Y-139971588D01*
X136135051Y-139782184D01*
X136135049Y-139782181D01*
X136135048Y-139782179D01*
X136010109Y-139610213D01*
X135859786Y-139459890D01*
X135687820Y-139334951D01*
X135498414Y-139238444D01*
X135498413Y-139238443D01*
X135498412Y-139238443D01*
X135296243Y-139172754D01*
X135296241Y-139172753D01*
X135296240Y-139172753D01*
X135134957Y-139147208D01*
X135086287Y-139139500D01*
X134873713Y-139139500D01*
X134825042Y-139147208D01*
X134663760Y-139172753D01*
X134461585Y-139238444D01*
X134272179Y-139334951D01*
X134100213Y-139459890D01*
X133949890Y-139610213D01*
X133824951Y-139782179D01*
X133728444Y-139971585D01*
X133662753Y-140173760D01*
X133629500Y-140383713D01*
X132932175Y-140383713D01*
X132941570Y-140234593D01*
X132943658Y-140218459D01*
X132992233Y-139971588D01*
X132992584Y-139969800D01*
X132996764Y-139954088D01*
X133077845Y-139713962D01*
X133084044Y-139698939D01*
X133195873Y-139471514D01*
X133203997Y-139457413D01*
X133344651Y-139246594D01*
X133354544Y-139233688D01*
X133524100Y-139040255D01*
X133529650Y-139034327D01*
X133580500Y-138983479D01*
X133646392Y-138869351D01*
X133680500Y-138742057D01*
X133680500Y-136941228D01*
X136014500Y-136941228D01*
X136014500Y-137108771D01*
X136047182Y-137273074D01*
X136047184Y-137273082D01*
X136111295Y-137427860D01*
X136204373Y-137567162D01*
X136322837Y-137685626D01*
X136382702Y-137725626D01*
X136462137Y-137778703D01*
X136616918Y-137842816D01*
X136781228Y-137875499D01*
X136781232Y-137875500D01*
X136781233Y-137875500D01*
X136948768Y-137875500D01*
X136948769Y-137875499D01*
X137113082Y-137842816D01*
X137267863Y-137778703D01*
X137267862Y-137778703D01*
X137273491Y-137776372D01*
X137274123Y-137777899D01*
X137323625Y-137765500D01*
X141534898Y-137765500D01*
X141601937Y-137785185D01*
X141603789Y-137786398D01*
X141652137Y-137818703D01*
X141806918Y-137882816D01*
X141971228Y-137915499D01*
X141971232Y-137915500D01*
X141971233Y-137915500D01*
X142138768Y-137915500D01*
X142138769Y-137915499D01*
X142303082Y-137882816D01*
X142457863Y-137818703D01*
X142597162Y-137725626D01*
X142715626Y-137607162D01*
X142808703Y-137467863D01*
X142872816Y-137313082D01*
X142905500Y-137148767D01*
X142905500Y-136981233D01*
X142872816Y-136816918D01*
X142808703Y-136662137D01*
X142777537Y-136615494D01*
X142715626Y-136522837D01*
X142597162Y-136404373D01*
X142457860Y-136311295D01*
X142303082Y-136247184D01*
X142303074Y-136247182D01*
X142138771Y-136214500D01*
X142138767Y-136214500D01*
X141971233Y-136214500D01*
X141971228Y-136214500D01*
X141806925Y-136247182D01*
X141806917Y-136247184D01*
X141652140Y-136311295D01*
X141652131Y-136311300D01*
X141603789Y-136343602D01*
X141537112Y-136364480D01*
X141534898Y-136364500D01*
X137444966Y-136364500D01*
X137377927Y-136344815D01*
X137376075Y-136343602D01*
X137267860Y-136271295D01*
X137113082Y-136207184D01*
X137113074Y-136207182D01*
X136948771Y-136174500D01*
X136948767Y-136174500D01*
X136781233Y-136174500D01*
X136781228Y-136174500D01*
X136616925Y-136207182D01*
X136616917Y-136207184D01*
X136462139Y-136271295D01*
X136322837Y-136364373D01*
X136204373Y-136482837D01*
X136111295Y-136622139D01*
X136047184Y-136776917D01*
X136047182Y-136776925D01*
X136014500Y-136941228D01*
X133680500Y-136941228D01*
X133680500Y-130324240D01*
X133700185Y-130257201D01*
X133752989Y-130211446D01*
X133822147Y-130201502D01*
X133879946Y-130227897D01*
X133880712Y-130226875D01*
X133885414Y-130230395D01*
X133885703Y-130230527D01*
X133886164Y-130230956D01*
X134002906Y-130318350D01*
X134002913Y-130318354D01*
X134137620Y-130368596D01*
X134137627Y-130368598D01*
X134197155Y-130374999D01*
X134197172Y-130375000D01*
X134845000Y-130375000D01*
X134845000Y-129458012D01*
X134902007Y-129490925D01*
X135029174Y-129525000D01*
X135160826Y-129525000D01*
X135287993Y-129490925D01*
X135345000Y-129458012D01*
X135345000Y-130375000D01*
X135992828Y-130375000D01*
X135992844Y-130374999D01*
X136052372Y-130368598D01*
X136052379Y-130368596D01*
X136187086Y-130318354D01*
X136187093Y-130318350D01*
X136302187Y-130232190D01*
X136302190Y-130232187D01*
X136388350Y-130117093D01*
X136388354Y-130117086D01*
X136437422Y-129985529D01*
X136479293Y-129929595D01*
X136544757Y-129905178D01*
X136613030Y-129920030D01*
X136641285Y-129941181D01*
X136755213Y-130055109D01*
X136927179Y-130180048D01*
X136927181Y-130180049D01*
X136927184Y-130180051D01*
X137116588Y-130276557D01*
X137318757Y-130342246D01*
X137528713Y-130375500D01*
X137528714Y-130375500D01*
X137741286Y-130375500D01*
X137741287Y-130375500D01*
X137951243Y-130342246D01*
X138153412Y-130276557D01*
X138342816Y-130180051D01*
X138429471Y-130117093D01*
X138514786Y-130055109D01*
X138514788Y-130055106D01*
X138514792Y-130055104D01*
X138665104Y-129904792D01*
X138665106Y-129904788D01*
X138665109Y-129904786D01*
X138790048Y-129732820D01*
X138790047Y-129732820D01*
X138790051Y-129732816D01*
X138794514Y-129724054D01*
X138842488Y-129673259D01*
X138910308Y-129656463D01*
X138976444Y-129678999D01*
X139015486Y-129724056D01*
X139019951Y-129732820D01*
X139144890Y-129904786D01*
X139295213Y-130055109D01*
X139467179Y-130180048D01*
X139467181Y-130180049D01*
X139467184Y-130180051D01*
X139656588Y-130276557D01*
X139858757Y-130342246D01*
X140068713Y-130375500D01*
X140068714Y-130375500D01*
X140281286Y-130375500D01*
X140281287Y-130375500D01*
X140491243Y-130342246D01*
X140693412Y-130276557D01*
X140882816Y-130180051D01*
X140969471Y-130117093D01*
X141054786Y-130055109D01*
X141054788Y-130055106D01*
X141054792Y-130055104D01*
X141205104Y-129904792D01*
X141205106Y-129904788D01*
X141205109Y-129904786D01*
X141330048Y-129732820D01*
X141330047Y-129732820D01*
X141330051Y-129732816D01*
X141334514Y-129724054D01*
X141382488Y-129673259D01*
X141450308Y-129656463D01*
X141516444Y-129678999D01*
X141555486Y-129724056D01*
X141559951Y-129732820D01*
X141684890Y-129904786D01*
X141835213Y-130055109D01*
X142007179Y-130180048D01*
X142007181Y-130180049D01*
X142007184Y-130180051D01*
X142196588Y-130276557D01*
X142398757Y-130342246D01*
X142608713Y-130375500D01*
X142608714Y-130375500D01*
X142821286Y-130375500D01*
X142821287Y-130375500D01*
X143031243Y-130342246D01*
X143233412Y-130276557D01*
X143422816Y-130180051D01*
X143509471Y-130117093D01*
X143594786Y-130055109D01*
X143594788Y-130055106D01*
X143594792Y-130055104D01*
X143745104Y-129904792D01*
X143745106Y-129904788D01*
X143745109Y-129904786D01*
X143870048Y-129732820D01*
X143870047Y-129732820D01*
X143870051Y-129732816D01*
X143966557Y-129543412D01*
X144032246Y-129341243D01*
X144032246Y-129341239D01*
X144032687Y-129339884D01*
X144072124Y-129282208D01*
X144136483Y-129255010D01*
X144205329Y-129266925D01*
G37*
G04 #@! TD.AperFunction*
G04 #@! TA.AperFunction,Conductor*
G36*
X144088164Y-125410185D02*
G01*
X144108850Y-125426863D01*
X144242404Y-125560562D01*
X144275854Y-125621902D01*
X144278674Y-125648329D01*
X144275383Y-128674289D01*
X144255625Y-128741307D01*
X144202772Y-128787004D01*
X144133602Y-128796873D01*
X144070078Y-128767779D01*
X144033452Y-128712472D01*
X144032247Y-128708763D01*
X144032246Y-128708757D01*
X143966557Y-128506588D01*
X143870051Y-128317184D01*
X143870049Y-128317181D01*
X143870048Y-128317179D01*
X143745109Y-128145213D01*
X143594786Y-127994890D01*
X143422820Y-127869951D01*
X143233414Y-127773444D01*
X143233413Y-127773443D01*
X143233412Y-127773443D01*
X143031243Y-127707754D01*
X143031241Y-127707753D01*
X143031240Y-127707753D01*
X142869957Y-127682208D01*
X142821287Y-127674500D01*
X142608713Y-127674500D01*
X142560042Y-127682208D01*
X142398760Y-127707753D01*
X142196585Y-127773444D01*
X142007179Y-127869951D01*
X141835213Y-127994890D01*
X141684890Y-128145213D01*
X141559949Y-128317182D01*
X141555484Y-128325946D01*
X141507509Y-128376742D01*
X141439688Y-128393536D01*
X141373553Y-128370998D01*
X141334516Y-128325946D01*
X141330050Y-128317182D01*
X141205109Y-128145213D01*
X141054786Y-127994890D01*
X140882820Y-127869951D01*
X140693414Y-127773444D01*
X140693413Y-127773443D01*
X140693412Y-127773443D01*
X140491243Y-127707754D01*
X140491241Y-127707753D01*
X140491240Y-127707753D01*
X140329957Y-127682208D01*
X140281287Y-127674500D01*
X140068713Y-127674500D01*
X140020042Y-127682208D01*
X139858760Y-127707753D01*
X139656585Y-127773444D01*
X139467179Y-127869951D01*
X139295213Y-127994890D01*
X139144890Y-128145213D01*
X139019949Y-128317182D01*
X139015484Y-128325946D01*
X138967509Y-128376742D01*
X138899688Y-128393536D01*
X138833553Y-128370998D01*
X138794516Y-128325946D01*
X138790050Y-128317182D01*
X138665109Y-128145213D01*
X138514786Y-127994890D01*
X138342820Y-127869951D01*
X138153414Y-127773444D01*
X138153413Y-127773443D01*
X138153412Y-127773443D01*
X137951243Y-127707754D01*
X137951241Y-127707753D01*
X137951240Y-127707753D01*
X137789957Y-127682208D01*
X137741287Y-127674500D01*
X137528713Y-127674500D01*
X137480042Y-127682208D01*
X137318760Y-127707753D01*
X137116585Y-127773444D01*
X136927179Y-127869951D01*
X136755215Y-127994889D01*
X136641285Y-128108819D01*
X136579962Y-128142303D01*
X136510270Y-128137319D01*
X136454337Y-128095447D01*
X136437422Y-128064470D01*
X136388354Y-127932913D01*
X136388350Y-127932906D01*
X136302190Y-127817812D01*
X136302187Y-127817809D01*
X136187093Y-127731649D01*
X136187086Y-127731645D01*
X136052379Y-127681403D01*
X136052372Y-127681401D01*
X135992844Y-127675000D01*
X135345000Y-127675000D01*
X135345000Y-128591988D01*
X135287993Y-128559075D01*
X135160826Y-128525000D01*
X135029174Y-128525000D01*
X134902007Y-128559075D01*
X134845000Y-128591988D01*
X134845000Y-127675000D01*
X134197155Y-127675000D01*
X134137627Y-127681401D01*
X134137620Y-127681403D01*
X134002913Y-127731645D01*
X134002906Y-127731649D01*
X133880712Y-127823125D01*
X133878893Y-127820696D01*
X133830858Y-127846926D01*
X133761166Y-127841942D01*
X133705233Y-127800070D01*
X133680816Y-127734606D01*
X133680500Y-127725760D01*
X133680500Y-125648676D01*
X133689144Y-125619235D01*
X133695668Y-125589249D01*
X133699422Y-125584233D01*
X133700185Y-125581637D01*
X133716819Y-125560995D01*
X133850995Y-125426819D01*
X133912318Y-125393334D01*
X133938676Y-125390500D01*
X144021125Y-125390500D01*
X144088164Y-125410185D01*
G37*
G04 #@! TD.AperFunction*
G04 #@! TA.AperFunction,Conductor*
G36*
X179608363Y-109720185D02*
G01*
X179629005Y-109736819D01*
X179763181Y-109870995D01*
X179796666Y-109932318D01*
X179799500Y-109958676D01*
X179799500Y-140226000D01*
X179779815Y-140293039D01*
X179727011Y-140338794D01*
X179675500Y-140350000D01*
X179650000Y-140350000D01*
X179650000Y-143090000D01*
X179673244Y-143089577D01*
X179740630Y-143108038D01*
X179787338Y-143160000D01*
X179799500Y-143213556D01*
X179799500Y-148631377D01*
X179790857Y-148660808D01*
X179784341Y-148690787D01*
X179780578Y-148695814D01*
X179779815Y-148698416D01*
X179763195Y-148719044D01*
X179628885Y-148853395D01*
X179567569Y-148886888D01*
X179541228Y-148889726D01*
X146958813Y-148899272D01*
X146891768Y-148879607D01*
X146871110Y-148862968D01*
X146737045Y-148728947D01*
X146703550Y-148667629D01*
X146700712Y-148641255D01*
X146700669Y-147279792D01*
X146700638Y-146293713D01*
X147849500Y-146293713D01*
X147849500Y-146506286D01*
X147882753Y-146716239D01*
X147948444Y-146918414D01*
X148044951Y-147107820D01*
X148169890Y-147279786D01*
X148320213Y-147430109D01*
X148492179Y-147555048D01*
X148492181Y-147555049D01*
X148492184Y-147555051D01*
X148681588Y-147651557D01*
X148883757Y-147717246D01*
X149093713Y-147750500D01*
X149093714Y-147750500D01*
X149306286Y-147750500D01*
X149306287Y-147750500D01*
X149516243Y-147717246D01*
X149718412Y-147651557D01*
X149907816Y-147555051D01*
X149929789Y-147539086D01*
X150079786Y-147430109D01*
X150079788Y-147430106D01*
X150079792Y-147430104D01*
X150230104Y-147279792D01*
X150230106Y-147279788D01*
X150230109Y-147279786D01*
X150355048Y-147107820D01*
X150355047Y-147107820D01*
X150355051Y-147107816D01*
X150451557Y-146918412D01*
X150517246Y-146716243D01*
X150550500Y-146506287D01*
X150550500Y-146293713D01*
X175949500Y-146293713D01*
X175949500Y-146506286D01*
X175982753Y-146716239D01*
X176048444Y-146918414D01*
X176144951Y-147107820D01*
X176269890Y-147279786D01*
X176420213Y-147430109D01*
X176592179Y-147555048D01*
X176592181Y-147555049D01*
X176592184Y-147555051D01*
X176781588Y-147651557D01*
X176983757Y-147717246D01*
X177193713Y-147750500D01*
X177193714Y-147750500D01*
X177406286Y-147750500D01*
X177406287Y-147750500D01*
X177616243Y-147717246D01*
X177818412Y-147651557D01*
X178007816Y-147555051D01*
X178029789Y-147539086D01*
X178179786Y-147430109D01*
X178179788Y-147430106D01*
X178179792Y-147430104D01*
X178330104Y-147279792D01*
X178330106Y-147279788D01*
X178330109Y-147279786D01*
X178455048Y-147107820D01*
X178455047Y-147107820D01*
X178455051Y-147107816D01*
X178551557Y-146918412D01*
X178617246Y-146716243D01*
X178650500Y-146506287D01*
X178650500Y-146293713D01*
X178617246Y-146083757D01*
X178551557Y-145881588D01*
X178455051Y-145692184D01*
X178455049Y-145692181D01*
X178455048Y-145692179D01*
X178330109Y-145520213D01*
X178179786Y-145369890D01*
X178007820Y-145244951D01*
X177818414Y-145148444D01*
X177818413Y-145148443D01*
X177818412Y-145148443D01*
X177616243Y-145082754D01*
X177616241Y-145082753D01*
X177616240Y-145082753D01*
X177454957Y-145057208D01*
X177406287Y-145049500D01*
X177193713Y-145049500D01*
X177145042Y-145057208D01*
X176983760Y-145082753D01*
X176781585Y-145148444D01*
X176592179Y-145244951D01*
X176420213Y-145369890D01*
X176269890Y-145520213D01*
X176144951Y-145692179D01*
X176048444Y-145881585D01*
X175982753Y-146083760D01*
X175949500Y-146293713D01*
X150550500Y-146293713D01*
X150517246Y-146083757D01*
X150451557Y-145881588D01*
X150355051Y-145692184D01*
X150355049Y-145692181D01*
X150355048Y-145692179D01*
X150230109Y-145520213D01*
X150079786Y-145369890D01*
X149907820Y-145244951D01*
X149718414Y-145148444D01*
X149718413Y-145148443D01*
X149718412Y-145148443D01*
X149516243Y-145082754D01*
X149516241Y-145082753D01*
X149516240Y-145082753D01*
X149354957Y-145057208D01*
X149306287Y-145049500D01*
X149093713Y-145049500D01*
X149045042Y-145057208D01*
X148883760Y-145082753D01*
X148681585Y-145148444D01*
X148492179Y-145244951D01*
X148320213Y-145369890D01*
X148169890Y-145520213D01*
X148044951Y-145692179D01*
X147948444Y-145881585D01*
X147882753Y-146083760D01*
X147849500Y-146293713D01*
X146700638Y-146293713D01*
X146700534Y-142989778D01*
X154099500Y-142989778D01*
X154099500Y-143210221D01*
X154133985Y-143427952D01*
X154202103Y-143637603D01*
X154202104Y-143637606D01*
X154302187Y-143834025D01*
X154431752Y-144012358D01*
X154431756Y-144012363D01*
X154587636Y-144168243D01*
X154587641Y-144168247D01*
X154743192Y-144281260D01*
X154765978Y-144297815D01*
X154894375Y-144363237D01*
X154962393Y-144397895D01*
X154962396Y-144397896D01*
X155067221Y-144431955D01*
X155172049Y-144466015D01*
X155389778Y-144500500D01*
X155389779Y-144500500D01*
X155610221Y-144500500D01*
X155610222Y-144500500D01*
X155827951Y-144466015D01*
X156037606Y-144397895D01*
X156234022Y-144297815D01*
X156412365Y-144168242D01*
X156568242Y-144012365D01*
X156697815Y-143834022D01*
X156797895Y-143637606D01*
X156866015Y-143427951D01*
X156900500Y-143210222D01*
X156900500Y-142989778D01*
X166099500Y-142989778D01*
X166099500Y-143210221D01*
X166133985Y-143427952D01*
X166202103Y-143637603D01*
X166202104Y-143637606D01*
X166302187Y-143834025D01*
X166431752Y-144012358D01*
X166431756Y-144012363D01*
X166587636Y-144168243D01*
X166587641Y-144168247D01*
X166743192Y-144281260D01*
X166765978Y-144297815D01*
X166894375Y-144363237D01*
X166962393Y-144397895D01*
X166962396Y-144397896D01*
X167067221Y-144431955D01*
X167172049Y-144466015D01*
X167389778Y-144500500D01*
X167389779Y-144500500D01*
X167610221Y-144500500D01*
X167610222Y-144500500D01*
X167827951Y-144466015D01*
X168037606Y-144397895D01*
X168234022Y-144297815D01*
X168412365Y-144168242D01*
X168568242Y-144012365D01*
X168697815Y-143834022D01*
X168797895Y-143637606D01*
X168866015Y-143427951D01*
X168900500Y-143210222D01*
X168900500Y-142989778D01*
X168866015Y-142772049D01*
X168828703Y-142657212D01*
X168797896Y-142562396D01*
X168797895Y-142562393D01*
X168732529Y-142434108D01*
X168697815Y-142365978D01*
X168571912Y-142192686D01*
X168568247Y-142187641D01*
X168568243Y-142187636D01*
X168412363Y-142031756D01*
X168412358Y-142031752D01*
X168234025Y-141902187D01*
X168234024Y-141902186D01*
X168234022Y-141902185D01*
X168133247Y-141850837D01*
X168037606Y-141802104D01*
X168037603Y-141802103D01*
X167827952Y-141733985D01*
X167713748Y-141715897D01*
X167610222Y-141699500D01*
X167389778Y-141699500D01*
X167317201Y-141710995D01*
X167172047Y-141733985D01*
X166962396Y-141802103D01*
X166962393Y-141802104D01*
X166765974Y-141902187D01*
X166587641Y-142031752D01*
X166587636Y-142031756D01*
X166431756Y-142187636D01*
X166431752Y-142187641D01*
X166302187Y-142365974D01*
X166202104Y-142562393D01*
X166202103Y-142562396D01*
X166133985Y-142772047D01*
X166099500Y-142989778D01*
X156900500Y-142989778D01*
X156866015Y-142772049D01*
X156828703Y-142657212D01*
X156797896Y-142562396D01*
X156797895Y-142562393D01*
X156732529Y-142434108D01*
X156697815Y-142365978D01*
X156571912Y-142192686D01*
X156568247Y-142187641D01*
X156568243Y-142187636D01*
X156412363Y-142031756D01*
X156412358Y-142031752D01*
X156234025Y-141902187D01*
X156234024Y-141902186D01*
X156234022Y-141902185D01*
X156133247Y-141850837D01*
X156037606Y-141802104D01*
X156037603Y-141802103D01*
X155827952Y-141733985D01*
X155713748Y-141715897D01*
X155610222Y-141699500D01*
X155389778Y-141699500D01*
X155317201Y-141710995D01*
X155172047Y-141733985D01*
X154962396Y-141802103D01*
X154962393Y-141802104D01*
X154765974Y-141902187D01*
X154587641Y-142031752D01*
X154587636Y-142031756D01*
X154431756Y-142187636D01*
X154431752Y-142187641D01*
X154302187Y-142365974D01*
X154202104Y-142562393D01*
X154202103Y-142562396D01*
X154133985Y-142772047D01*
X154099500Y-142989778D01*
X146700534Y-142989778D01*
X146700505Y-142063175D01*
X146720186Y-141996140D01*
X146772989Y-141950383D01*
X146781872Y-141948334D01*
X146790000Y-141940001D01*
X146790000Y-139310000D01*
X146775658Y-139295658D01*
X146757461Y-139290315D01*
X146711706Y-139237511D01*
X146700500Y-139186000D01*
X146700500Y-129755519D01*
X146720185Y-129688480D01*
X146772989Y-129642725D01*
X146842147Y-129632781D01*
X146905703Y-129661806D01*
X146912181Y-129667838D01*
X147339492Y-130095149D01*
X147372977Y-130156472D01*
X147374284Y-130202227D01*
X147349500Y-130358712D01*
X147349500Y-130571286D01*
X147371024Y-130707187D01*
X147382754Y-130781243D01*
X147438048Y-130951421D01*
X147448444Y-130983414D01*
X147544951Y-131172820D01*
X147669890Y-131344786D01*
X147820213Y-131495109D01*
X147992179Y-131620048D01*
X147992181Y-131620049D01*
X147992184Y-131620051D01*
X148181588Y-131716557D01*
X148383757Y-131782246D01*
X148593713Y-131815500D01*
X148593714Y-131815500D01*
X148806286Y-131815500D01*
X148806287Y-131815500D01*
X149016243Y-131782246D01*
X149218412Y-131716557D01*
X149407816Y-131620051D01*
X149465930Y-131577829D01*
X149579786Y-131495109D01*
X149579788Y-131495106D01*
X149579792Y-131495104D01*
X149730104Y-131344792D01*
X149730106Y-131344788D01*
X149730109Y-131344786D01*
X149855048Y-131172820D01*
X149855047Y-131172820D01*
X149855051Y-131172816D01*
X149859514Y-131164054D01*
X149907488Y-131113259D01*
X149975308Y-131096463D01*
X150041444Y-131118999D01*
X150080484Y-131164054D01*
X150084591Y-131172115D01*
X150084951Y-131172820D01*
X150209890Y-131344786D01*
X150360213Y-131495109D01*
X150532179Y-131620048D01*
X150532181Y-131620049D01*
X150532184Y-131620051D01*
X150721588Y-131716557D01*
X150923757Y-131782246D01*
X151133713Y-131815500D01*
X151133714Y-131815500D01*
X151346286Y-131815500D01*
X151346287Y-131815500D01*
X151556243Y-131782246D01*
X151758412Y-131716557D01*
X151947816Y-131620051D01*
X152005930Y-131577829D01*
X152119786Y-131495109D01*
X152119788Y-131495106D01*
X152119792Y-131495104D01*
X152270104Y-131344792D01*
X152270106Y-131344788D01*
X152270109Y-131344786D01*
X152395048Y-131172820D01*
X152395047Y-131172820D01*
X152395051Y-131172816D01*
X152491557Y-130983412D01*
X152557246Y-130781243D01*
X152590500Y-130571287D01*
X152590500Y-130358713D01*
X152557246Y-130148757D01*
X152491557Y-129946588D01*
X152395051Y-129757184D01*
X152395049Y-129757181D01*
X152395048Y-129757179D01*
X152270109Y-129585213D01*
X152119786Y-129434890D01*
X151947820Y-129309951D01*
X151947115Y-129309591D01*
X151939054Y-129305485D01*
X151888259Y-129257512D01*
X151871463Y-129189692D01*
X151893999Y-129123556D01*
X151939054Y-129084515D01*
X151947816Y-129080051D01*
X152036102Y-129015908D01*
X152119786Y-128955109D01*
X152119788Y-128955106D01*
X152119792Y-128955104D01*
X152270104Y-128804792D01*
X152270106Y-128804788D01*
X152270109Y-128804786D01*
X152395048Y-128632820D01*
X152395047Y-128632820D01*
X152395051Y-128632816D01*
X152491557Y-128443412D01*
X152557246Y-128241243D01*
X152590500Y-128031287D01*
X152590500Y-127818713D01*
X152557246Y-127608757D01*
X152491557Y-127406588D01*
X152395051Y-127217184D01*
X152395049Y-127217181D01*
X152395048Y-127217179D01*
X152270109Y-127045213D01*
X152119786Y-126894890D01*
X151947820Y-126769951D01*
X151947115Y-126769591D01*
X151939054Y-126765485D01*
X151888259Y-126717512D01*
X151871463Y-126649692D01*
X151893999Y-126583556D01*
X151939054Y-126544515D01*
X151947816Y-126540051D01*
X152034471Y-126477093D01*
X152119786Y-126415109D01*
X152119788Y-126415106D01*
X152119792Y-126415104D01*
X152270104Y-126264792D01*
X152270106Y-126264788D01*
X152270109Y-126264786D01*
X152395048Y-126092820D01*
X152395047Y-126092820D01*
X152395051Y-126092816D01*
X152491557Y-125903412D01*
X152557246Y-125701243D01*
X152590500Y-125491287D01*
X152590500Y-125278713D01*
X152557246Y-125068757D01*
X152491557Y-124866588D01*
X152395051Y-124677184D01*
X152395049Y-124677181D01*
X152395048Y-124677179D01*
X152270109Y-124505213D01*
X152119786Y-124354890D01*
X151947820Y-124229951D01*
X151758414Y-124133444D01*
X151758413Y-124133443D01*
X151758412Y-124133443D01*
X151556243Y-124067754D01*
X151556241Y-124067753D01*
X151556240Y-124067753D01*
X151394957Y-124042208D01*
X151346287Y-124034500D01*
X151133713Y-124034500D01*
X151085042Y-124042208D01*
X150923760Y-124067753D01*
X150721585Y-124133444D01*
X150532179Y-124229951D01*
X150360215Y-124354889D01*
X150246285Y-124468819D01*
X150184962Y-124502303D01*
X150115270Y-124497319D01*
X150059337Y-124455447D01*
X150042422Y-124424470D01*
X149993354Y-124292913D01*
X149993350Y-124292906D01*
X149907190Y-124177812D01*
X149907187Y-124177809D01*
X149792093Y-124091649D01*
X149792086Y-124091645D01*
X149657379Y-124041403D01*
X149657372Y-124041401D01*
X149597844Y-124035000D01*
X148950000Y-124035000D01*
X148950000Y-124951988D01*
X148892993Y-124919075D01*
X148765826Y-124885000D01*
X148634174Y-124885000D01*
X148507007Y-124919075D01*
X148450000Y-124951988D01*
X148450000Y-124035000D01*
X148273500Y-124035000D01*
X148206461Y-124015315D01*
X148160706Y-123962511D01*
X148149500Y-123911000D01*
X148149500Y-117051677D01*
X151425000Y-117051677D01*
X151425000Y-117075000D01*
X152150000Y-117075000D01*
X152150000Y-116375000D01*
X152149999Y-116374999D01*
X152101693Y-116375000D01*
X152101675Y-116375001D01*
X152002392Y-116385144D01*
X151841518Y-116438452D01*
X151841507Y-116438457D01*
X151697271Y-116527424D01*
X151697267Y-116527427D01*
X151577427Y-116647267D01*
X151577424Y-116647271D01*
X151488457Y-116791507D01*
X151488452Y-116791518D01*
X151435144Y-116952393D01*
X151425000Y-117051677D01*
X148149500Y-117051677D01*
X148149500Y-115170441D01*
X148169185Y-115103402D01*
X148221989Y-115057647D01*
X148291147Y-115047703D01*
X148354703Y-115076728D01*
X148372378Y-115097513D01*
X148372946Y-115097065D01*
X148377427Y-115102732D01*
X148497267Y-115222572D01*
X148497271Y-115222575D01*
X148641507Y-115311542D01*
X148641518Y-115311547D01*
X148802393Y-115364855D01*
X148901683Y-115374999D01*
X149450000Y-115374999D01*
X149498308Y-115374999D01*
X149498322Y-115374998D01*
X149597607Y-115364855D01*
X149758481Y-115311547D01*
X149758492Y-115311542D01*
X149902728Y-115222575D01*
X149902732Y-115222572D01*
X150022572Y-115102732D01*
X150022575Y-115102728D01*
X150111542Y-114958492D01*
X150111547Y-114958481D01*
X150164855Y-114797606D01*
X150174999Y-114698322D01*
X150175000Y-114698309D01*
X150175000Y-114675000D01*
X149450000Y-114675000D01*
X149450000Y-115374999D01*
X148901683Y-115374999D01*
X148949999Y-115374998D01*
X148950000Y-115374998D01*
X148950000Y-114549000D01*
X148969685Y-114481961D01*
X149022489Y-114436206D01*
X149074000Y-114425000D01*
X149200000Y-114425000D01*
X149200000Y-114299000D01*
X149219685Y-114231961D01*
X149272489Y-114186206D01*
X149324000Y-114175000D01*
X150174999Y-114175000D01*
X150174999Y-114149500D01*
X150194684Y-114082461D01*
X150247488Y-114036706D01*
X150298999Y-114025500D01*
X151783480Y-114025500D01*
X151850519Y-114045185D01*
X151871161Y-114061819D01*
X151964811Y-114155469D01*
X151964813Y-114155470D01*
X151964815Y-114155472D01*
X152110394Y-114243478D01*
X152272804Y-114294086D01*
X152343384Y-114300500D01*
X152343387Y-114300500D01*
X152856613Y-114300500D01*
X152856616Y-114300500D01*
X152927196Y-114294086D01*
X152993744Y-114273348D01*
X153063603Y-114272197D01*
X153122995Y-114308998D01*
X153153063Y-114372067D01*
X153144261Y-114441380D01*
X153118315Y-114479415D01*
X153029375Y-114568355D01*
X153029369Y-114568363D01*
X152947320Y-114707103D01*
X152947317Y-114707110D01*
X152902346Y-114861897D01*
X152902345Y-114861903D01*
X152899500Y-114898057D01*
X152899500Y-115301922D01*
X152899501Y-115301947D01*
X152902346Y-115338098D01*
X152939332Y-115465404D01*
X152939332Y-115534594D01*
X152902346Y-115661897D01*
X152902345Y-115661903D01*
X152899500Y-115698057D01*
X152899500Y-116101922D01*
X152899501Y-116101947D01*
X152902346Y-116138098D01*
X152928197Y-116227079D01*
X152927998Y-116296949D01*
X152890056Y-116355619D01*
X152826417Y-116384462D01*
X152796519Y-116385032D01*
X152698324Y-116375000D01*
X152650000Y-116375000D01*
X152650000Y-117075000D01*
X152866008Y-117075000D01*
X152933047Y-117094685D01*
X152972740Y-117135880D01*
X153029369Y-117231636D01*
X153029378Y-117231648D01*
X153143351Y-117345621D01*
X153143355Y-117345624D01*
X153143357Y-117345626D01*
X153159757Y-117355325D01*
X153182488Y-117368768D01*
X153230171Y-117419837D01*
X153242675Y-117488578D01*
X153216030Y-117553168D01*
X153158695Y-117593098D01*
X153145423Y-117596731D01*
X153132540Y-117599500D01*
X153105949Y-117599500D01*
X152970615Y-117626420D01*
X152931061Y-117642803D01*
X152920056Y-117645169D01*
X152895987Y-117643387D01*
X152871982Y-117645968D01*
X152861766Y-117640854D01*
X152850377Y-117640011D01*
X152831090Y-117625498D01*
X152809503Y-117614692D01*
X152807061Y-117610576D01*
X152806319Y-117611319D01*
X152770000Y-117575000D01*
X151425001Y-117575000D01*
X151425001Y-117598311D01*
X151435144Y-117697607D01*
X151488452Y-117858481D01*
X151488457Y-117858492D01*
X151577424Y-118002728D01*
X151577427Y-118002732D01*
X151586660Y-118011965D01*
X151620145Y-118073288D01*
X151615161Y-118142980D01*
X151586663Y-118187324D01*
X151577033Y-118196953D01*
X151577029Y-118196959D01*
X151488001Y-118341294D01*
X151487996Y-118341305D01*
X151434651Y-118502290D01*
X151424500Y-118601647D01*
X151424500Y-119148337D01*
X151424501Y-119148355D01*
X151434650Y-119247707D01*
X151434651Y-119247710D01*
X151487996Y-119408694D01*
X151488001Y-119408705D01*
X151577029Y-119553040D01*
X151577032Y-119553044D01*
X151696955Y-119672967D01*
X151696959Y-119672970D01*
X151841294Y-119761998D01*
X151841297Y-119761999D01*
X151841303Y-119762003D01*
X151939504Y-119794543D01*
X151996949Y-119834315D01*
X152023772Y-119898831D01*
X152024500Y-119912249D01*
X152024500Y-119958771D01*
X152057182Y-120123074D01*
X152057184Y-120123082D01*
X152121295Y-120277860D01*
X152214373Y-120417162D01*
X152332837Y-120535626D01*
X152340786Y-120540937D01*
X152472137Y-120628703D01*
X152626918Y-120692816D01*
X152701051Y-120707561D01*
X152797208Y-120726689D01*
X152796780Y-120728838D01*
X152852417Y-120751288D01*
X152892791Y-120808312D01*
X152899501Y-120848550D01*
X152899501Y-120901947D01*
X152902346Y-120938098D01*
X152947317Y-121092889D01*
X152947320Y-121092896D01*
X153029369Y-121231636D01*
X153029373Y-121231641D01*
X153029374Y-121231643D01*
X153125682Y-121327951D01*
X153159166Y-121389272D01*
X153162000Y-121415631D01*
X153162000Y-126979897D01*
X153142315Y-127046936D01*
X153141102Y-127048788D01*
X153108800Y-127097130D01*
X153108795Y-127097140D01*
X153044684Y-127251917D01*
X153044682Y-127251925D01*
X153012000Y-127416228D01*
X153012000Y-127583771D01*
X153044682Y-127748074D01*
X153044684Y-127748082D01*
X153108795Y-127902860D01*
X153141102Y-127951210D01*
X153161980Y-128017887D01*
X153162000Y-128020101D01*
X153162000Y-133318506D01*
X153162000Y-133456494D01*
X153162000Y-133456496D01*
X153161999Y-133456496D01*
X153188918Y-133591822D01*
X153188921Y-133591832D01*
X153241722Y-133719307D01*
X153318387Y-133834045D01*
X153318388Y-133834046D01*
X153938181Y-134453838D01*
X153971666Y-134515161D01*
X153974500Y-134541519D01*
X153974500Y-135089363D01*
X153989953Y-135206753D01*
X153989956Y-135206762D01*
X154041212Y-135330506D01*
X154050464Y-135352841D01*
X154146718Y-135478282D01*
X154272159Y-135574536D01*
X154418238Y-135635044D01*
X154535639Y-135650500D01*
X154814360Y-135650499D01*
X154814361Y-135650499D01*
X154826594Y-135648888D01*
X154931762Y-135635044D01*
X154952545Y-135626434D01*
X155022014Y-135618965D01*
X155047453Y-135626434D01*
X155068238Y-135635044D01*
X155185639Y-135650500D01*
X155464360Y-135650499D01*
X155464361Y-135650499D01*
X155476594Y-135648888D01*
X155581762Y-135635044D01*
X155602545Y-135626434D01*
X155672014Y-135618965D01*
X155675764Y-135619701D01*
X155686916Y-135622069D01*
X155718238Y-135635044D01*
X155796514Y-135645349D01*
X155801264Y-135646358D01*
X155827901Y-135660734D01*
X155855581Y-135672979D01*
X155858340Y-135677162D01*
X155862750Y-135679542D01*
X155877386Y-135706036D01*
X155894053Y-135731303D01*
X155895061Y-135738030D01*
X155896536Y-135740700D01*
X155896205Y-135745665D01*
X155899500Y-135767652D01*
X155899500Y-136179897D01*
X155879815Y-136246936D01*
X155878602Y-136248788D01*
X155846300Y-136297130D01*
X155846295Y-136297140D01*
X155782184Y-136451917D01*
X155782182Y-136451925D01*
X155749500Y-136616228D01*
X155749500Y-136783771D01*
X155782182Y-136948074D01*
X155782184Y-136948082D01*
X155846295Y-137102859D01*
X155846300Y-137102868D01*
X155878602Y-137151211D01*
X155899480Y-137217888D01*
X155899500Y-137220102D01*
X155899500Y-137697870D01*
X155899501Y-137697876D01*
X155905908Y-137757483D01*
X155956202Y-137892328D01*
X155956206Y-137892335D01*
X156042452Y-138007544D01*
X156042455Y-138007547D01*
X156157664Y-138093793D01*
X156157671Y-138093797D01*
X156202618Y-138110561D01*
X156292517Y-138144091D01*
X156352127Y-138150500D01*
X156847872Y-138150499D01*
X156907483Y-138144091D01*
X157042331Y-138093796D01*
X157126105Y-138031082D01*
X157191569Y-138006665D01*
X157259842Y-138021516D01*
X157274727Y-138031082D01*
X157357910Y-138093352D01*
X157357913Y-138093354D01*
X157492620Y-138143596D01*
X157492627Y-138143598D01*
X157552155Y-138149999D01*
X157552172Y-138150000D01*
X157600000Y-138150000D01*
X157600000Y-136824000D01*
X157602550Y-136815314D01*
X157601262Y-136806353D01*
X157612240Y-136782312D01*
X157619685Y-136756961D01*
X157626525Y-136751033D01*
X157630287Y-136742797D01*
X157652521Y-136728507D01*
X157672489Y-136711206D01*
X157683003Y-136708918D01*
X157689065Y-136705023D01*
X157724000Y-136700000D01*
X157876000Y-136700000D01*
X157943039Y-136719685D01*
X157988794Y-136772489D01*
X158000000Y-136824000D01*
X158000000Y-138150000D01*
X158047828Y-138150000D01*
X158047844Y-138149999D01*
X158107372Y-138143598D01*
X158107379Y-138143596D01*
X158242086Y-138093354D01*
X158242089Y-138093352D01*
X158325271Y-138031082D01*
X158343061Y-138024446D01*
X158358474Y-138013361D01*
X158375117Y-138012489D01*
X158390735Y-138006664D01*
X158409288Y-138010699D01*
X158428248Y-138009707D01*
X158448655Y-138019263D01*
X158459008Y-138021515D01*
X158461075Y-138022669D01*
X158467740Y-138026475D01*
X158557669Y-138093796D01*
X158638260Y-138123854D01*
X158646992Y-138128841D01*
X158664526Y-138147057D01*
X158684766Y-138162208D01*
X158688344Y-138171802D01*
X158695446Y-138179180D01*
X158700348Y-138203983D01*
X158709184Y-138227672D01*
X158709500Y-138236520D01*
X158709500Y-138359209D01*
X158711456Y-138371557D01*
X158740537Y-138555168D01*
X158784185Y-138689500D01*
X158801850Y-138743868D01*
X158825101Y-138789500D01*
X158891923Y-138920646D01*
X159008544Y-139081161D01*
X159148839Y-139221456D01*
X159309354Y-139338077D01*
X159309357Y-139338078D01*
X159311750Y-139339545D01*
X159312470Y-139340341D01*
X159313296Y-139340941D01*
X159313170Y-139341114D01*
X159358628Y-139391354D01*
X159370055Y-139460283D01*
X159342401Y-139524447D01*
X159284448Y-139563475D01*
X159227568Y-139567749D01*
X159049209Y-139539500D01*
X159049204Y-139539500D01*
X158850796Y-139539500D01*
X158850791Y-139539500D01*
X158654837Y-139570536D01*
X158654835Y-139570536D01*
X158654832Y-139570537D01*
X158565045Y-139599711D01*
X158466131Y-139631850D01*
X158289352Y-139721924D01*
X158289349Y-139721926D01*
X158257843Y-139744817D01*
X158128839Y-139838544D01*
X158128837Y-139838546D01*
X158128836Y-139838546D01*
X157988546Y-139978836D01*
X157988546Y-139978837D01*
X157988544Y-139978839D01*
X157953325Y-140027314D01*
X157871926Y-140139349D01*
X157871924Y-140139352D01*
X157781850Y-140316131D01*
X157760881Y-140380667D01*
X157720537Y-140504832D01*
X157720536Y-140504835D01*
X157720536Y-140504837D01*
X157689500Y-140700790D01*
X157689500Y-140899209D01*
X157720223Y-141093186D01*
X157720537Y-141095168D01*
X157730820Y-141126814D01*
X157781850Y-141283868D01*
X157810541Y-141340176D01*
X157871923Y-141460646D01*
X157988544Y-141621161D01*
X158128839Y-141761456D01*
X158289354Y-141878077D01*
X158402800Y-141935880D01*
X158466131Y-141968149D01*
X158466133Y-141968149D01*
X158466136Y-141968151D01*
X158654832Y-142029463D01*
X158752814Y-142044981D01*
X158850791Y-142060500D01*
X158850796Y-142060500D01*
X159049209Y-142060500D01*
X159138278Y-142046392D01*
X159245168Y-142029463D01*
X159433864Y-141968151D01*
X159610646Y-141878077D01*
X159771161Y-141761456D01*
X159882319Y-141650298D01*
X159943642Y-141616813D01*
X160013334Y-141621797D01*
X160057681Y-141650298D01*
X160168839Y-141761456D01*
X160329354Y-141878077D01*
X160442800Y-141935880D01*
X160506131Y-141968149D01*
X160506133Y-141968149D01*
X160506136Y-141968151D01*
X160694832Y-142029463D01*
X160792814Y-142044981D01*
X160890791Y-142060500D01*
X160890796Y-142060500D01*
X161089209Y-142060500D01*
X161178278Y-142046392D01*
X161285168Y-142029463D01*
X161473864Y-141968151D01*
X161650646Y-141878077D01*
X161811161Y-141761456D01*
X161951456Y-141621161D01*
X162068077Y-141460646D01*
X162113470Y-141371554D01*
X162136269Y-141340176D01*
X162587861Y-140888584D01*
X162610667Y-140973694D01*
X162669910Y-141076306D01*
X162753694Y-141160090D01*
X162856306Y-141219333D01*
X162941414Y-141242137D01*
X162332714Y-141850837D01*
X162332715Y-141850838D01*
X162369612Y-141877645D01*
X162546327Y-141967688D01*
X162546330Y-141967689D01*
X162734947Y-142028973D01*
X162930837Y-142060000D01*
X163129163Y-142060000D01*
X163325052Y-142028973D01*
X163513669Y-141967689D01*
X163513672Y-141967688D01*
X163690382Y-141877648D01*
X163727283Y-141850837D01*
X163727284Y-141850836D01*
X163118585Y-141242137D01*
X163203694Y-141219333D01*
X163306306Y-141160090D01*
X163390090Y-141076306D01*
X163449333Y-140973694D01*
X163472138Y-140888585D01*
X164080836Y-141497284D01*
X164080837Y-141497283D01*
X164107648Y-141460382D01*
X164197688Y-141283672D01*
X164197689Y-141283669D01*
X164258973Y-141095052D01*
X164290000Y-140899163D01*
X164290000Y-140700836D01*
X164258973Y-140504947D01*
X164197689Y-140316330D01*
X164197688Y-140316327D01*
X164107645Y-140139612D01*
X164080838Y-140102715D01*
X164080837Y-140102714D01*
X163472137Y-140711414D01*
X163449333Y-140626306D01*
X163390090Y-140523694D01*
X163306306Y-140439910D01*
X163203694Y-140380667D01*
X163118584Y-140357861D01*
X163727283Y-139749161D01*
X163727283Y-139749160D01*
X163721305Y-139744817D01*
X163678639Y-139689488D01*
X163672660Y-139619874D01*
X163705265Y-139558079D01*
X163766104Y-139523722D01*
X163794184Y-139520499D01*
X164857872Y-139520499D01*
X164917483Y-139514091D01*
X165052331Y-139463796D01*
X165167546Y-139377546D01*
X165253796Y-139262331D01*
X165304091Y-139127483D01*
X165310500Y-139067873D01*
X165310499Y-137452128D01*
X165304091Y-137392517D01*
X165269041Y-137298544D01*
X165253797Y-137257671D01*
X165253793Y-137257664D01*
X165167547Y-137142455D01*
X165167544Y-137142452D01*
X165052335Y-137056206D01*
X165052328Y-137056202D01*
X164917482Y-137005908D01*
X164917483Y-137005908D01*
X164857883Y-136999501D01*
X164857881Y-136999500D01*
X164857873Y-136999500D01*
X164857865Y-136999500D01*
X163246336Y-136999500D01*
X163179297Y-136979815D01*
X163133542Y-136927011D01*
X163123598Y-136857853D01*
X163140218Y-136811351D01*
X163168478Y-136764606D01*
X163219086Y-136602196D01*
X163225500Y-136531616D01*
X163225500Y-136212085D01*
X171231466Y-136212085D01*
X171231466Y-136212086D01*
X171247267Y-136223566D01*
X171247275Y-136223571D01*
X171408552Y-136305747D01*
X171408555Y-136305748D01*
X171580706Y-136361682D01*
X171759494Y-136390000D01*
X171940506Y-136390000D01*
X172119293Y-136361682D01*
X172291444Y-136305748D01*
X172291452Y-136305745D01*
X172452730Y-136223568D01*
X172468532Y-136212085D01*
X172468533Y-136212085D01*
X171850001Y-135593553D01*
X171850000Y-135593553D01*
X171231466Y-136212085D01*
X163225500Y-136212085D01*
X163225500Y-135868384D01*
X163219086Y-135797804D01*
X163219084Y-135797800D01*
X163217806Y-135791369D01*
X163220407Y-135790851D01*
X163219423Y-135732835D01*
X163256195Y-135673424D01*
X163319249Y-135643325D01*
X163322793Y-135642807D01*
X163354839Y-135638588D01*
X163381762Y-135635044D01*
X163527841Y-135574536D01*
X163653282Y-135478282D01*
X163749536Y-135352841D01*
X163810044Y-135206762D01*
X163817584Y-135149493D01*
X170700000Y-135149493D01*
X170700000Y-135330506D01*
X170728317Y-135509293D01*
X170784251Y-135681444D01*
X170784252Y-135681447D01*
X170866431Y-135842730D01*
X170877913Y-135858532D01*
X170877913Y-135858533D01*
X171496446Y-135240001D01*
X171496446Y-135239999D01*
X171450369Y-135193922D01*
X171500000Y-135193922D01*
X171500000Y-135286078D01*
X171523852Y-135375095D01*
X171569930Y-135454905D01*
X171635095Y-135520070D01*
X171714905Y-135566148D01*
X171803922Y-135590000D01*
X171896078Y-135590000D01*
X171985095Y-135566148D01*
X172064905Y-135520070D01*
X172130070Y-135454905D01*
X172176148Y-135375095D01*
X172200000Y-135286078D01*
X172200000Y-135239999D01*
X172203553Y-135239999D01*
X172203553Y-135240000D01*
X172822085Y-135858532D01*
X172833568Y-135842730D01*
X172915745Y-135681452D01*
X172915748Y-135681444D01*
X172971682Y-135509293D01*
X173000000Y-135330506D01*
X173000000Y-135149493D01*
X172971682Y-134970706D01*
X172915748Y-134798555D01*
X172915747Y-134798552D01*
X172833571Y-134637275D01*
X172833566Y-134637267D01*
X172822085Y-134621466D01*
X172203553Y-135239999D01*
X172200000Y-135239999D01*
X172200000Y-135193922D01*
X172176148Y-135104905D01*
X172130070Y-135025095D01*
X172064905Y-134959930D01*
X171985095Y-134913852D01*
X171896078Y-134890000D01*
X171803922Y-134890000D01*
X171714905Y-134913852D01*
X171635095Y-134959930D01*
X171569930Y-135025095D01*
X171523852Y-135104905D01*
X171500000Y-135193922D01*
X171450369Y-135193922D01*
X170877912Y-134621466D01*
X170866432Y-134637269D01*
X170784254Y-134798547D01*
X170784251Y-134798555D01*
X170728317Y-134970706D01*
X170700000Y-135149493D01*
X163817584Y-135149493D01*
X163825500Y-135089361D01*
X163825500Y-134263757D01*
X163825500Y-132581007D01*
X163823094Y-132568913D01*
X163798580Y-132445672D01*
X163798579Y-132445670D01*
X163798470Y-132445121D01*
X163804697Y-132375530D01*
X163832404Y-132333251D01*
X166703521Y-129462135D01*
X170699500Y-129462135D01*
X170699500Y-130857870D01*
X170699501Y-130857876D01*
X170705908Y-130917483D01*
X170756202Y-131052328D01*
X170756206Y-131052335D01*
X170842452Y-131167544D01*
X170842455Y-131167547D01*
X170957664Y-131253793D01*
X170957671Y-131253797D01*
X171092517Y-131304091D01*
X171092516Y-131304091D01*
X171099444Y-131304835D01*
X171152127Y-131310500D01*
X171692873Y-131310499D01*
X171759910Y-131330183D01*
X171805665Y-131382987D01*
X171815609Y-131452146D01*
X171786584Y-131515702D01*
X171727806Y-131553476D01*
X171712270Y-131556972D01*
X171580589Y-131577829D01*
X171408363Y-131633787D01*
X171408360Y-131633788D01*
X171247002Y-131716006D01*
X171100505Y-131822441D01*
X171100500Y-131822445D01*
X170972445Y-131950500D01*
X170972441Y-131950505D01*
X170866006Y-132097002D01*
X170783788Y-132258360D01*
X170783787Y-132258363D01*
X170727829Y-132430589D01*
X170699500Y-132609448D01*
X170699500Y-132790551D01*
X170727829Y-132969410D01*
X170783787Y-133141636D01*
X170783788Y-133141639D01*
X170866006Y-133302997D01*
X170972441Y-133449494D01*
X170972445Y-133449499D01*
X171100500Y-133577554D01*
X171100505Y-133577558D01*
X171228287Y-133670396D01*
X171247006Y-133683996D01*
X171352484Y-133737740D01*
X171408360Y-133766211D01*
X171408363Y-133766212D01*
X171494476Y-133794191D01*
X171580591Y-133822171D01*
X171700038Y-133841089D01*
X171742279Y-133847780D01*
X171805414Y-133877709D01*
X171842345Y-133937021D01*
X171841347Y-134006883D01*
X171802737Y-134065116D01*
X171742279Y-134092726D01*
X171580706Y-134118317D01*
X171408555Y-134174251D01*
X171408547Y-134174254D01*
X171247269Y-134256432D01*
X171231466Y-134267912D01*
X171231466Y-134267913D01*
X171850000Y-134886446D01*
X171850001Y-134886446D01*
X172468533Y-134267913D01*
X172452730Y-134256431D01*
X172291447Y-134174252D01*
X172291444Y-134174251D01*
X172119293Y-134118317D01*
X171957720Y-134092726D01*
X171894585Y-134062797D01*
X171857654Y-134003485D01*
X171858652Y-133933623D01*
X171897262Y-133875390D01*
X171957720Y-133847780D01*
X171972270Y-133845475D01*
X172119409Y-133822171D01*
X172291639Y-133766211D01*
X172452994Y-133683996D01*
X172599501Y-133577553D01*
X172727553Y-133449501D01*
X172833996Y-133302994D01*
X172916211Y-133141639D01*
X172972171Y-132969409D01*
X172988306Y-132867538D01*
X173000500Y-132790551D01*
X173000500Y-132609448D01*
X172981501Y-132489500D01*
X172972171Y-132430591D01*
X172938128Y-132325816D01*
X172916212Y-132258363D01*
X172916211Y-132258360D01*
X172859106Y-132146287D01*
X172833996Y-132097006D01*
X172727553Y-131950499D01*
X172710767Y-131933713D01*
X175274500Y-131933713D01*
X175274500Y-132146286D01*
X175306002Y-132345185D01*
X175307754Y-132356243D01*
X175346619Y-132475858D01*
X175373444Y-132558414D01*
X175469951Y-132747820D01*
X175594890Y-132919786D01*
X175745213Y-133070109D01*
X175917182Y-133195050D01*
X175925946Y-133199516D01*
X175976742Y-133247491D01*
X175993536Y-133315312D01*
X175970998Y-133381447D01*
X175925946Y-133420484D01*
X175917182Y-133424949D01*
X175745213Y-133549890D01*
X175594890Y-133700213D01*
X175469951Y-133872179D01*
X175373444Y-134061585D01*
X175307753Y-134263760D01*
X175277648Y-134453838D01*
X175274500Y-134473713D01*
X175274500Y-134686287D01*
X175307754Y-134896243D01*
X175370505Y-135089371D01*
X175373444Y-135098414D01*
X175469951Y-135287820D01*
X175594890Y-135459786D01*
X175745213Y-135610109D01*
X175917182Y-135735050D01*
X175925946Y-135739516D01*
X175976742Y-135787491D01*
X175993536Y-135855312D01*
X175970998Y-135921447D01*
X175925946Y-135960484D01*
X175917182Y-135964949D01*
X175745213Y-136089890D01*
X175594890Y-136240213D01*
X175469951Y-136412179D01*
X175373444Y-136601585D01*
X175307753Y-136803760D01*
X175279869Y-136979815D01*
X175274500Y-137013713D01*
X175274500Y-137226287D01*
X175307754Y-137436243D01*
X175312915Y-137452128D01*
X175373444Y-137638414D01*
X175469951Y-137827820D01*
X175594890Y-137999786D01*
X175745213Y-138150109D01*
X175917179Y-138275048D01*
X175917181Y-138275049D01*
X175917184Y-138275051D01*
X176106588Y-138371557D01*
X176308757Y-138437246D01*
X176518713Y-138470500D01*
X176518714Y-138470500D01*
X176731286Y-138470500D01*
X176731287Y-138470500D01*
X176941243Y-138437246D01*
X177143412Y-138371557D01*
X177332816Y-138275051D01*
X177398028Y-138227672D01*
X177504786Y-138150109D01*
X177504788Y-138150106D01*
X177504792Y-138150104D01*
X177655104Y-137999792D01*
X177655106Y-137999788D01*
X177655109Y-137999786D01*
X177780048Y-137827820D01*
X177780047Y-137827820D01*
X177780051Y-137827816D01*
X177876557Y-137638412D01*
X177942246Y-137436243D01*
X177975500Y-137226287D01*
X177975500Y-137013713D01*
X177942246Y-136803757D01*
X177876557Y-136601588D01*
X177780051Y-136412184D01*
X177780049Y-136412181D01*
X177780048Y-136412179D01*
X177655109Y-136240213D01*
X177504786Y-136089890D01*
X177332820Y-135964951D01*
X177332115Y-135964591D01*
X177324054Y-135960485D01*
X177273259Y-135912512D01*
X177256463Y-135844692D01*
X177278999Y-135778556D01*
X177324054Y-135739515D01*
X177332816Y-135735051D01*
X177378132Y-135702127D01*
X177504786Y-135610109D01*
X177504788Y-135610106D01*
X177504792Y-135610104D01*
X177655104Y-135459792D01*
X177655106Y-135459788D01*
X177655109Y-135459786D01*
X177764086Y-135309789D01*
X177780051Y-135287816D01*
X177876557Y-135098412D01*
X177942246Y-134896243D01*
X177975500Y-134686287D01*
X177975500Y-134473713D01*
X177942246Y-134263757D01*
X177876557Y-134061588D01*
X177780051Y-133872184D01*
X177780049Y-133872181D01*
X177780048Y-133872179D01*
X177655109Y-133700213D01*
X177504786Y-133549890D01*
X177332820Y-133424951D01*
X177332115Y-133424591D01*
X177324054Y-133420485D01*
X177273259Y-133372512D01*
X177256463Y-133304692D01*
X177278999Y-133238556D01*
X177324054Y-133199515D01*
X177332816Y-133195051D01*
X177451760Y-133108634D01*
X177504786Y-133070109D01*
X177504788Y-133070106D01*
X177504792Y-133070104D01*
X177655104Y-132919792D01*
X177655106Y-132919788D01*
X177655109Y-132919786D01*
X177778827Y-132749501D01*
X177780051Y-132747816D01*
X177876557Y-132558412D01*
X177942246Y-132356243D01*
X177975500Y-132146287D01*
X177975500Y-131933713D01*
X177942246Y-131723757D01*
X177876557Y-131521588D01*
X177780051Y-131332184D01*
X177780049Y-131332181D01*
X177780048Y-131332179D01*
X177655109Y-131160213D01*
X177541181Y-131046285D01*
X177507696Y-130984962D01*
X177512680Y-130915270D01*
X177554552Y-130859337D01*
X177585529Y-130842422D01*
X177717086Y-130793354D01*
X177717093Y-130793350D01*
X177832187Y-130707190D01*
X177832190Y-130707187D01*
X177918350Y-130592093D01*
X177918354Y-130592086D01*
X177968596Y-130457379D01*
X177968598Y-130457372D01*
X177974999Y-130397844D01*
X177975000Y-130397827D01*
X177975000Y-129750000D01*
X177058012Y-129750000D01*
X177090925Y-129692993D01*
X177125000Y-129565826D01*
X177125000Y-129434174D01*
X177090925Y-129307007D01*
X177058012Y-129250000D01*
X177975000Y-129250000D01*
X177975000Y-128602172D01*
X177974999Y-128602155D01*
X177968598Y-128542627D01*
X177968596Y-128542620D01*
X177918354Y-128407913D01*
X177918350Y-128407906D01*
X177832190Y-128292812D01*
X177832187Y-128292809D01*
X177717093Y-128206649D01*
X177717086Y-128206645D01*
X177582379Y-128156403D01*
X177582372Y-128156401D01*
X177522844Y-128150000D01*
X176875000Y-128150000D01*
X176875000Y-129066988D01*
X176817993Y-129034075D01*
X176690826Y-129000000D01*
X176559174Y-129000000D01*
X176432007Y-129034075D01*
X176375000Y-129066988D01*
X176375000Y-128150000D01*
X175727155Y-128150000D01*
X175667627Y-128156401D01*
X175667620Y-128156403D01*
X175532913Y-128206645D01*
X175532906Y-128206649D01*
X175417812Y-128292809D01*
X175417809Y-128292812D01*
X175331649Y-128407906D01*
X175331645Y-128407913D01*
X175281403Y-128542620D01*
X175281401Y-128542627D01*
X175275000Y-128602155D01*
X175275000Y-129250000D01*
X176191988Y-129250000D01*
X176159075Y-129307007D01*
X176125000Y-129434174D01*
X176125000Y-129565826D01*
X176159075Y-129692993D01*
X176191988Y-129750000D01*
X175275000Y-129750000D01*
X175275000Y-130397844D01*
X175281401Y-130457372D01*
X175281403Y-130457379D01*
X175331645Y-130592086D01*
X175331649Y-130592093D01*
X175417809Y-130707187D01*
X175417812Y-130707190D01*
X175532906Y-130793350D01*
X175532913Y-130793354D01*
X175664470Y-130842422D01*
X175720404Y-130884293D01*
X175744821Y-130949758D01*
X175729969Y-131018031D01*
X175708819Y-131046285D01*
X175594889Y-131160215D01*
X175469951Y-131332179D01*
X175373444Y-131521585D01*
X175307753Y-131723760D01*
X175274500Y-131933713D01*
X172710767Y-131933713D01*
X172599501Y-131822447D01*
X172599499Y-131822445D01*
X172599494Y-131822441D01*
X172452997Y-131716006D01*
X172452996Y-131716005D01*
X172452994Y-131716004D01*
X172401300Y-131689664D01*
X172291639Y-131633788D01*
X172291636Y-131633787D01*
X172119410Y-131577829D01*
X171987728Y-131556972D01*
X171924594Y-131527042D01*
X171887663Y-131467731D01*
X171888661Y-131397868D01*
X171927271Y-131339636D01*
X171991235Y-131311522D01*
X172007120Y-131310499D01*
X172547872Y-131310499D01*
X172607483Y-131304091D01*
X172742331Y-131253796D01*
X172857546Y-131167546D01*
X172943796Y-131052331D01*
X172994091Y-130917483D01*
X173000500Y-130857873D01*
X173000499Y-129462128D01*
X172994091Y-129402517D01*
X172959565Y-129309949D01*
X172943797Y-129267671D01*
X172943793Y-129267664D01*
X172857547Y-129152455D01*
X172857544Y-129152452D01*
X172742335Y-129066206D01*
X172742328Y-129066202D01*
X172607482Y-129015908D01*
X172607483Y-129015908D01*
X172547883Y-129009501D01*
X172547881Y-129009500D01*
X172547873Y-129009500D01*
X172547864Y-129009500D01*
X171152129Y-129009500D01*
X171152123Y-129009501D01*
X171092516Y-129015908D01*
X170957671Y-129066202D01*
X170957664Y-129066206D01*
X170842455Y-129152452D01*
X170842452Y-129152455D01*
X170756206Y-129267664D01*
X170756202Y-129267671D01*
X170705908Y-129402517D01*
X170699501Y-129462116D01*
X170699501Y-129462123D01*
X170699500Y-129462135D01*
X166703521Y-129462135D01*
X172294114Y-123871543D01*
X172370775Y-123756811D01*
X172423580Y-123629328D01*
X172448585Y-123503621D01*
X172450500Y-123493996D01*
X172450500Y-122891519D01*
X172459127Y-122862138D01*
X172465608Y-122832201D01*
X172469413Y-122827106D01*
X172470185Y-122824480D01*
X172486731Y-122803926D01*
X172487232Y-122803424D01*
X172548520Y-122769879D01*
X172618216Y-122774794D01*
X172662680Y-122803338D01*
X172764811Y-122905469D01*
X172764813Y-122905470D01*
X172764815Y-122905472D01*
X172910394Y-122993478D01*
X173072804Y-123044086D01*
X173143384Y-123050500D01*
X173143387Y-123050500D01*
X173656613Y-123050500D01*
X173656616Y-123050500D01*
X173727196Y-123044086D01*
X173889606Y-122993478D01*
X173889608Y-122993476D01*
X173896767Y-122991246D01*
X173897363Y-122993161D01*
X173956380Y-122984992D01*
X174019782Y-123014350D01*
X174025770Y-123019955D01*
X174067786Y-123061971D01*
X174168088Y-123134843D01*
X174233390Y-123182287D01*
X174324840Y-123228883D01*
X174326080Y-123229515D01*
X174376876Y-123277490D01*
X174393671Y-123345311D01*
X174371134Y-123411446D01*
X174326080Y-123450485D01*
X174233386Y-123497715D01*
X174067786Y-123618028D01*
X173923028Y-123762786D01*
X173802715Y-123928386D01*
X173709781Y-124110776D01*
X173646522Y-124305465D01*
X173614500Y-124507648D01*
X173614500Y-124712351D01*
X173646522Y-124914534D01*
X173709781Y-125109223D01*
X173773691Y-125234653D01*
X173802585Y-125291359D01*
X173802715Y-125291613D01*
X173923028Y-125457213D01*
X174067786Y-125601971D01*
X174204425Y-125701243D01*
X174233390Y-125722287D01*
X174349607Y-125781503D01*
X174415776Y-125815218D01*
X174415778Y-125815218D01*
X174415781Y-125815220D01*
X174520137Y-125849127D01*
X174610465Y-125878477D01*
X174711557Y-125894488D01*
X174812648Y-125910500D01*
X174812649Y-125910500D01*
X175017351Y-125910500D01*
X175017352Y-125910500D01*
X175219534Y-125878477D01*
X175414219Y-125815220D01*
X175596610Y-125722287D01*
X175699260Y-125647708D01*
X175762213Y-125601971D01*
X175762215Y-125601968D01*
X175762219Y-125601966D01*
X175906966Y-125457219D01*
X175906968Y-125457215D01*
X175906971Y-125457213D01*
X175970168Y-125370228D01*
X176027287Y-125291610D01*
X176120220Y-125109219D01*
X176183477Y-124914534D01*
X176215500Y-124712352D01*
X176215500Y-124507648D01*
X176214654Y-124502303D01*
X176183477Y-124305465D01*
X176141999Y-124177809D01*
X176120220Y-124110781D01*
X176120218Y-124110778D01*
X176120218Y-124110776D01*
X176081353Y-124034500D01*
X176027287Y-123928390D01*
X176001086Y-123892327D01*
X175906971Y-123762786D01*
X175762213Y-123618028D01*
X175596614Y-123497715D01*
X175589311Y-123493994D01*
X175503917Y-123450483D01*
X175453123Y-123402511D01*
X175436328Y-123334690D01*
X175458865Y-123268555D01*
X175503917Y-123229516D01*
X175596610Y-123182287D01*
X175661912Y-123134843D01*
X175762213Y-123061971D01*
X175762215Y-123061968D01*
X175762219Y-123061966D01*
X175906966Y-122917219D01*
X175906968Y-122917215D01*
X175906971Y-122917213D01*
X175974447Y-122824338D01*
X176027287Y-122751610D01*
X176120220Y-122569219D01*
X176183477Y-122374534D01*
X176215500Y-122172352D01*
X176215500Y-121967648D01*
X176183477Y-121765466D01*
X176167549Y-121716446D01*
X176127262Y-121592454D01*
X176120220Y-121570781D01*
X176120218Y-121570778D01*
X176120218Y-121570776D01*
X176076215Y-121484417D01*
X176027287Y-121388390D01*
X176010159Y-121364815D01*
X175906971Y-121222786D01*
X175762213Y-121078028D01*
X175596614Y-120957715D01*
X175558113Y-120938098D01*
X175503917Y-120910483D01*
X175453123Y-120862511D01*
X175436328Y-120794690D01*
X175458865Y-120728555D01*
X175503917Y-120689516D01*
X175596610Y-120642287D01*
X175629342Y-120618506D01*
X175762213Y-120521971D01*
X175762215Y-120521968D01*
X175762219Y-120521966D01*
X175906966Y-120377219D01*
X175906968Y-120377215D01*
X175906971Y-120377213D01*
X175979154Y-120277860D01*
X176027287Y-120211610D01*
X176120220Y-120029219D01*
X176183477Y-119834534D01*
X176215500Y-119632352D01*
X176215500Y-119427648D01*
X176207315Y-119375972D01*
X176183477Y-119225465D01*
X176120218Y-119030776D01*
X176086503Y-118964607D01*
X176027287Y-118848390D01*
X176007603Y-118821297D01*
X175906971Y-118682786D01*
X175762213Y-118538028D01*
X175596614Y-118417715D01*
X175560865Y-118399500D01*
X175503917Y-118370483D01*
X175453123Y-118322511D01*
X175436328Y-118254690D01*
X175458865Y-118188555D01*
X175503917Y-118149516D01*
X175596610Y-118102287D01*
X175667376Y-118050873D01*
X175762213Y-117981971D01*
X175762215Y-117981968D01*
X175762219Y-117981966D01*
X175906966Y-117837219D01*
X175906968Y-117837215D01*
X175906971Y-117837213D01*
X175976373Y-117741687D01*
X176027287Y-117671610D01*
X176120220Y-117489219D01*
X176183477Y-117294534D01*
X176215500Y-117092352D01*
X176215500Y-116887648D01*
X176213801Y-116876917D01*
X176183477Y-116685465D01*
X176128317Y-116515701D01*
X176120220Y-116490781D01*
X176120218Y-116490778D01*
X176120218Y-116490776D01*
X176068865Y-116389991D01*
X176027287Y-116308390D01*
X175991776Y-116259513D01*
X175906971Y-116142786D01*
X175762217Y-115998032D01*
X175762212Y-115998028D01*
X175666615Y-115928573D01*
X175663274Y-115924241D01*
X175658297Y-115921968D01*
X175642164Y-115896865D01*
X175623949Y-115873243D01*
X175622696Y-115866571D01*
X175620523Y-115863190D01*
X175615500Y-115828255D01*
X175615500Y-115681477D01*
X175617883Y-115657284D01*
X175625500Y-115618994D01*
X175625500Y-115131004D01*
X175598581Y-114995676D01*
X175598580Y-114995674D01*
X175598580Y-114995672D01*
X175589810Y-114974500D01*
X175575199Y-114939225D01*
X175545775Y-114868189D01*
X175482041Y-114772805D01*
X175479547Y-114768305D01*
X175472983Y-114739026D01*
X175464021Y-114710404D01*
X175465421Y-114705297D01*
X175464263Y-114700128D01*
X175474568Y-114671953D01*
X175482505Y-114643023D01*
X175486675Y-114638855D01*
X175488265Y-114634510D01*
X175499713Y-114625825D01*
X175522904Y-114602651D01*
X175652733Y-114522571D01*
X175772573Y-114402731D01*
X175856965Y-114265913D01*
X175861543Y-114258488D01*
X175861547Y-114258481D01*
X175914855Y-114097606D01*
X175924999Y-113998322D01*
X175925000Y-113998309D01*
X175925000Y-113950000D01*
X175099000Y-113950000D01*
X175031961Y-113930315D01*
X174986206Y-113877511D01*
X174975000Y-113826000D01*
X174975000Y-113700000D01*
X174849000Y-113700000D01*
X174781961Y-113680315D01*
X174736206Y-113627511D01*
X174725000Y-113576000D01*
X174725000Y-113450000D01*
X175225000Y-113450000D01*
X175924999Y-113450000D01*
X175924999Y-113401692D01*
X175924998Y-113401677D01*
X175914855Y-113302392D01*
X175861547Y-113141518D01*
X175861542Y-113141507D01*
X175772575Y-112997271D01*
X175772572Y-112997267D01*
X175652732Y-112877427D01*
X175652728Y-112877424D01*
X175508492Y-112788457D01*
X175508481Y-112788452D01*
X175347606Y-112735144D01*
X175248322Y-112725000D01*
X175225000Y-112725000D01*
X175225000Y-113450000D01*
X174725000Y-113450000D01*
X174725000Y-112724999D01*
X174701693Y-112725000D01*
X174701674Y-112725001D01*
X174602392Y-112735144D01*
X174441518Y-112788452D01*
X174441507Y-112788457D01*
X174297271Y-112877424D01*
X174297265Y-112877428D01*
X174288031Y-112886663D01*
X174226707Y-112920146D01*
X174157015Y-112915159D01*
X174112672Y-112886660D01*
X174103044Y-112877032D01*
X174103040Y-112877029D01*
X173958705Y-112788001D01*
X173958699Y-112787998D01*
X173958697Y-112787997D01*
X173953144Y-112786157D01*
X173797709Y-112734651D01*
X173698346Y-112724500D01*
X173151662Y-112724500D01*
X173151644Y-112724501D01*
X173052292Y-112734650D01*
X173052289Y-112734651D01*
X172891305Y-112787996D01*
X172891296Y-112788000D01*
X172815902Y-112834504D01*
X172748510Y-112852944D01*
X172681846Y-112832021D01*
X172644074Y-112792086D01*
X172618083Y-112748138D01*
X172618076Y-112748129D01*
X172501870Y-112631923D01*
X172501862Y-112631917D01*
X172360396Y-112548255D01*
X172360393Y-112548254D01*
X172202573Y-112502402D01*
X172202567Y-112502401D01*
X172165701Y-112499500D01*
X172165694Y-112499500D01*
X171734306Y-112499500D01*
X171734298Y-112499500D01*
X171697422Y-112502402D01*
X171696768Y-112502522D01*
X171696399Y-112502483D01*
X171691114Y-112502899D01*
X171691036Y-112501917D01*
X171676764Y-112500412D01*
X171656853Y-112503276D01*
X171642725Y-112496824D01*
X171627283Y-112495196D01*
X171611595Y-112482607D01*
X171593297Y-112474251D01*
X171584900Y-112461186D01*
X171572789Y-112451467D01*
X171566397Y-112432393D01*
X171555523Y-112415473D01*
X171551612Y-112388276D01*
X171550588Y-112385219D01*
X171550500Y-112380538D01*
X171550500Y-112376751D01*
X171570185Y-112309712D01*
X171601614Y-112276433D01*
X171699792Y-112205104D01*
X171850104Y-112054792D01*
X171850106Y-112054788D01*
X171850109Y-112054786D01*
X171963656Y-111898500D01*
X171975051Y-111882816D01*
X172019369Y-111795837D01*
X176586500Y-111795837D01*
X176586500Y-112024162D01*
X176622215Y-112249660D01*
X176692770Y-112466803D01*
X176796421Y-112670228D01*
X176930621Y-112854937D01*
X177092063Y-113016379D01*
X177179616Y-113079990D01*
X177222280Y-113135319D01*
X177228259Y-113204933D01*
X177204766Y-113249456D01*
X177203689Y-113263136D01*
X177866766Y-113926212D01*
X177824708Y-113937482D01*
X177699292Y-114009890D01*
X177596890Y-114112292D01*
X177524482Y-114237708D01*
X177513212Y-114279765D01*
X176850136Y-113616689D01*
X176850135Y-113616689D01*
X176796849Y-113690033D01*
X176796848Y-113690035D01*
X176693230Y-113893395D01*
X176622704Y-114110455D01*
X176587000Y-114335883D01*
X176587000Y-114564116D01*
X176622704Y-114789544D01*
X176693230Y-115006604D01*
X176796851Y-115209969D01*
X176850135Y-115283309D01*
X176850137Y-115283309D01*
X177513212Y-114620234D01*
X177524482Y-114662292D01*
X177596890Y-114787708D01*
X177699292Y-114890110D01*
X177824708Y-114962518D01*
X177866765Y-114973787D01*
X177203688Y-115636862D01*
X177204892Y-115652152D01*
X177222281Y-115674702D01*
X177228260Y-115744315D01*
X177195655Y-115806110D01*
X177179617Y-115820008D01*
X177092063Y-115883620D01*
X176930622Y-116045061D01*
X176796421Y-116229771D01*
X176692770Y-116433196D01*
X176622215Y-116650339D01*
X176586500Y-116875837D01*
X176586500Y-117104162D01*
X176622215Y-117329660D01*
X176692770Y-117546803D01*
X176783274Y-117724425D01*
X176796421Y-117750228D01*
X176930621Y-117934937D01*
X177092063Y-118096379D01*
X177100195Y-118102287D01*
X177179191Y-118159683D01*
X177221857Y-118215013D01*
X177227835Y-118284627D01*
X177195228Y-118346421D01*
X177179191Y-118360317D01*
X177092069Y-118423616D01*
X177092060Y-118423623D01*
X176930622Y-118585061D01*
X176796421Y-118769771D01*
X176692770Y-118973196D01*
X176622215Y-119190339D01*
X176586500Y-119415837D01*
X176586500Y-119644162D01*
X176622215Y-119869660D01*
X176692770Y-120086803D01*
X176790119Y-120277860D01*
X176796421Y-120290228D01*
X176930621Y-120474937D01*
X177092063Y-120636379D01*
X177179616Y-120699990D01*
X177222280Y-120755319D01*
X177228259Y-120824933D01*
X177204766Y-120869456D01*
X177203689Y-120883136D01*
X177866766Y-121546212D01*
X177824708Y-121557482D01*
X177699292Y-121629890D01*
X177596890Y-121732292D01*
X177524482Y-121857708D01*
X177513212Y-121899765D01*
X176850136Y-121236689D01*
X176850135Y-121236689D01*
X176796849Y-121310033D01*
X176796848Y-121310035D01*
X176693230Y-121513395D01*
X176622704Y-121730455D01*
X176587000Y-121955883D01*
X176587000Y-122184116D01*
X176622704Y-122409544D01*
X176693230Y-122626604D01*
X176796851Y-122829969D01*
X176850135Y-122903309D01*
X176850137Y-122903309D01*
X177513212Y-122240234D01*
X177524482Y-122282292D01*
X177596890Y-122407708D01*
X177699292Y-122510110D01*
X177824708Y-122582518D01*
X177866765Y-122593787D01*
X177203688Y-123256862D01*
X177204892Y-123272152D01*
X177222281Y-123294702D01*
X177228260Y-123364315D01*
X177195655Y-123426110D01*
X177179617Y-123440008D01*
X177092063Y-123503620D01*
X176930622Y-123665061D01*
X176796421Y-123849771D01*
X176692770Y-124053196D01*
X176622215Y-124270339D01*
X176586500Y-124495837D01*
X176586500Y-124724162D01*
X176622215Y-124949660D01*
X176692770Y-125166803D01*
X176785350Y-125348500D01*
X176796421Y-125370228D01*
X176930621Y-125554937D01*
X177092063Y-125716379D01*
X177276772Y-125850579D01*
X177331525Y-125878477D01*
X177480196Y-125954229D01*
X177480198Y-125954229D01*
X177480201Y-125954231D01*
X177554730Y-125978447D01*
X177697339Y-126024784D01*
X177922838Y-126060500D01*
X177922843Y-126060500D01*
X178151162Y-126060500D01*
X178376660Y-126024784D01*
X178408215Y-126014531D01*
X178593799Y-125954231D01*
X178797228Y-125850579D01*
X178981937Y-125716379D01*
X179143379Y-125554937D01*
X179277579Y-125370228D01*
X179381231Y-125166799D01*
X179451784Y-124949660D01*
X179456628Y-124919075D01*
X179487500Y-124724162D01*
X179487500Y-124495837D01*
X179451784Y-124270339D01*
X179397366Y-124102860D01*
X179381231Y-124053201D01*
X179381229Y-124053198D01*
X179381229Y-124053196D01*
X179299262Y-123892327D01*
X179277579Y-123849772D01*
X179143379Y-123665063D01*
X178981937Y-123503621D01*
X178974397Y-123498143D01*
X178894382Y-123440007D01*
X178851716Y-123384677D01*
X178845738Y-123315064D01*
X178869234Y-123270534D01*
X178870310Y-123256862D01*
X178207234Y-122593787D01*
X178249292Y-122582518D01*
X178374708Y-122510110D01*
X178477110Y-122407708D01*
X178549518Y-122282292D01*
X178560787Y-122240234D01*
X179223862Y-122903310D01*
X179223862Y-122903309D01*
X179277150Y-122829966D01*
X179380769Y-122626604D01*
X179451295Y-122409544D01*
X179487000Y-122184116D01*
X179487000Y-121955883D01*
X179451295Y-121730455D01*
X179380769Y-121513395D01*
X179277148Y-121310030D01*
X179223863Y-121236689D01*
X179223862Y-121236688D01*
X178560787Y-121899764D01*
X178549518Y-121857708D01*
X178477110Y-121732292D01*
X178374708Y-121629890D01*
X178249292Y-121557482D01*
X178207233Y-121546212D01*
X178870309Y-120883137D01*
X178869105Y-120867845D01*
X178851717Y-120845295D01*
X178845739Y-120775681D01*
X178878346Y-120713887D01*
X178894380Y-120699992D01*
X178981937Y-120636379D01*
X179143379Y-120474937D01*
X179277579Y-120290228D01*
X179381231Y-120086799D01*
X179451784Y-119869660D01*
X179456581Y-119839373D01*
X179487500Y-119644162D01*
X179487500Y-119415837D01*
X179451784Y-119190339D01*
X179381229Y-118973196D01*
X179303831Y-118821295D01*
X179277579Y-118769772D01*
X179143379Y-118585063D01*
X178981937Y-118423621D01*
X178894807Y-118360317D01*
X178852143Y-118304988D01*
X178846164Y-118235374D01*
X178878770Y-118173579D01*
X178894807Y-118159683D01*
X178981937Y-118096379D01*
X179143379Y-117934937D01*
X179277579Y-117750228D01*
X179381231Y-117546799D01*
X179451784Y-117329660D01*
X179456790Y-117298052D01*
X179487500Y-117104162D01*
X179487500Y-116875837D01*
X179451784Y-116650339D01*
X179404450Y-116504662D01*
X179381231Y-116433201D01*
X179381229Y-116433198D01*
X179381229Y-116433196D01*
X179317021Y-116307182D01*
X179277579Y-116229772D01*
X179143379Y-116045063D01*
X178981937Y-115883621D01*
X178958470Y-115866571D01*
X178894382Y-115820007D01*
X178851716Y-115764677D01*
X178845738Y-115695064D01*
X178869234Y-115650534D01*
X178870310Y-115636862D01*
X178207234Y-114973787D01*
X178249292Y-114962518D01*
X178374708Y-114890110D01*
X178477110Y-114787708D01*
X178549518Y-114662292D01*
X178560787Y-114620234D01*
X179223862Y-115283310D01*
X179223862Y-115283309D01*
X179277150Y-115209966D01*
X179380769Y-115006604D01*
X179451295Y-114789544D01*
X179487000Y-114564116D01*
X179487000Y-114335883D01*
X179451295Y-114110455D01*
X179380769Y-113893395D01*
X179277148Y-113690030D01*
X179223863Y-113616689D01*
X179223862Y-113616688D01*
X178560787Y-114279764D01*
X178549518Y-114237708D01*
X178477110Y-114112292D01*
X178374708Y-114009890D01*
X178249292Y-113937482D01*
X178207233Y-113926212D01*
X178870309Y-113263137D01*
X178869105Y-113247845D01*
X178851717Y-113225295D01*
X178845739Y-113155681D01*
X178878346Y-113093887D01*
X178894380Y-113079992D01*
X178981937Y-113016379D01*
X179143379Y-112854937D01*
X179277579Y-112670228D01*
X179380213Y-112468797D01*
X179381229Y-112466803D01*
X179381229Y-112466802D01*
X179381231Y-112466799D01*
X179451784Y-112249660D01*
X179458840Y-112205109D01*
X179487500Y-112024162D01*
X179487500Y-111795837D01*
X179451784Y-111570339D01*
X179381229Y-111353196D01*
X179290433Y-111175000D01*
X179277579Y-111149772D01*
X179143379Y-110965063D01*
X178981937Y-110803621D01*
X178797228Y-110669421D01*
X178772036Y-110656585D01*
X178593803Y-110565770D01*
X178376660Y-110495215D01*
X178151162Y-110459500D01*
X178151157Y-110459500D01*
X177922843Y-110459500D01*
X177922838Y-110459500D01*
X177697339Y-110495215D01*
X177480196Y-110565770D01*
X177276771Y-110669421D01*
X177092061Y-110803622D01*
X176930622Y-110965061D01*
X176796421Y-111149771D01*
X176692770Y-111353196D01*
X176622215Y-111570339D01*
X176586500Y-111795837D01*
X172019369Y-111795837D01*
X172071557Y-111693412D01*
X172137246Y-111491243D01*
X172170500Y-111281287D01*
X172170500Y-111068713D01*
X172137246Y-110858757D01*
X172071557Y-110656588D01*
X171975051Y-110467184D01*
X171975049Y-110467181D01*
X171975048Y-110467179D01*
X171850109Y-110295213D01*
X171699786Y-110144890D01*
X171527819Y-110019951D01*
X171527818Y-110019950D01*
X171527816Y-110019949D01*
X171407561Y-109958676D01*
X171361065Y-109934985D01*
X171310269Y-109887010D01*
X171293474Y-109819189D01*
X171316011Y-109753054D01*
X171370727Y-109709603D01*
X171417360Y-109700500D01*
X179541324Y-109700500D01*
X179608363Y-109720185D01*
G37*
G04 #@! TD.AperFunction*
G04 #@! TA.AperFunction,Conductor*
G36*
X162358159Y-139501000D02*
G01*
X162411611Y-139545996D01*
X162432251Y-139612747D01*
X162413526Y-139680061D01*
X162373052Y-139720246D01*
X162369619Y-139722349D01*
X162332715Y-139749160D01*
X162332715Y-139749161D01*
X162941415Y-140357861D01*
X162856306Y-140380667D01*
X162753694Y-140439910D01*
X162669910Y-140523694D01*
X162610667Y-140626306D01*
X162587861Y-140711414D01*
X162136269Y-140259822D01*
X162113466Y-140228437D01*
X162068077Y-140139354D01*
X161951456Y-139978839D01*
X161811161Y-139838544D01*
X161650646Y-139721923D01*
X161650645Y-139721922D01*
X161650639Y-139721918D01*
X161648245Y-139720451D01*
X161647525Y-139719656D01*
X161646704Y-139719059D01*
X161646829Y-139718886D01*
X161601369Y-139668640D01*
X161589945Y-139599711D01*
X161617601Y-139535547D01*
X161675556Y-139496522D01*
X161732429Y-139492250D01*
X161787048Y-139500900D01*
X161910791Y-139520500D01*
X161910796Y-139520500D01*
X162109209Y-139520500D01*
X162288866Y-139492045D01*
X162358159Y-139501000D01*
G37*
G04 #@! TD.AperFunction*
G04 #@! TA.AperFunction,Conductor*
G36*
X160316861Y-139501204D02*
G01*
X160370313Y-139546200D01*
X160390953Y-139612952D01*
X160372228Y-139680266D01*
X160333238Y-139718979D01*
X160333296Y-139719059D01*
X160332784Y-139719430D01*
X160331761Y-139720447D01*
X160329361Y-139721917D01*
X160241308Y-139785892D01*
X160168839Y-139838544D01*
X160168837Y-139838546D01*
X160168836Y-139838546D01*
X160057681Y-139949702D01*
X159996358Y-139983187D01*
X159926666Y-139978203D01*
X159882319Y-139949702D01*
X159771163Y-139838546D01*
X159771161Y-139838544D01*
X159610646Y-139721923D01*
X159610645Y-139721922D01*
X159610639Y-139721918D01*
X159608245Y-139720451D01*
X159607525Y-139719656D01*
X159606704Y-139719059D01*
X159606829Y-139718886D01*
X159561369Y-139668640D01*
X159549945Y-139599711D01*
X159577601Y-139535547D01*
X159635556Y-139496522D01*
X159692429Y-139492250D01*
X159747048Y-139500900D01*
X159870791Y-139520500D01*
X159870796Y-139520500D01*
X160069209Y-139520500D01*
X160177873Y-139503288D01*
X160247569Y-139492250D01*
X160316861Y-139501204D01*
G37*
G04 #@! TD.AperFunction*
G04 #@! TA.AperFunction,Conductor*
G36*
X161006974Y-139079911D02*
G01*
X161033334Y-139081797D01*
X161042387Y-139087615D01*
X161049427Y-139089147D01*
X161077681Y-139110298D01*
X161188839Y-139221456D01*
X161349354Y-139338077D01*
X161349357Y-139338078D01*
X161351750Y-139339545D01*
X161352470Y-139340341D01*
X161353296Y-139340941D01*
X161353170Y-139341114D01*
X161398628Y-139391354D01*
X161410055Y-139460283D01*
X161382401Y-139524447D01*
X161324448Y-139563475D01*
X161267568Y-139567749D01*
X161089209Y-139539500D01*
X161089204Y-139539500D01*
X160890796Y-139539500D01*
X160890791Y-139539500D01*
X160712431Y-139567749D01*
X160643137Y-139558794D01*
X160589685Y-139513798D01*
X160569046Y-139447046D01*
X160587771Y-139379733D01*
X160626763Y-139341022D01*
X160626704Y-139340941D01*
X160627229Y-139340559D01*
X160628256Y-139339540D01*
X160630622Y-139338089D01*
X160630646Y-139338077D01*
X160791161Y-139221456D01*
X160902319Y-139110298D01*
X160910264Y-139105959D01*
X160915690Y-139098712D01*
X160940449Y-139089477D01*
X160963642Y-139076813D01*
X160972671Y-139077458D01*
X160981154Y-139074295D01*
X161006974Y-139079911D01*
G37*
G04 #@! TD.AperFunction*
G04 #@! TA.AperFunction,Conductor*
G36*
X158683232Y-132335111D02*
G01*
X158716133Y-132344294D01*
X158716709Y-132344941D01*
X158717539Y-132345185D01*
X158739859Y-132370943D01*
X158762593Y-132396479D01*
X158762928Y-132397567D01*
X158763294Y-132397989D01*
X158763858Y-132400584D01*
X158772990Y-132430206D01*
X158774500Y-132439792D01*
X158774500Y-132473918D01*
X158800322Y-132603733D01*
X158800712Y-132606206D01*
X158796512Y-132638486D01*
X158793612Y-132670900D01*
X158792030Y-132672935D01*
X158791698Y-132675492D01*
X158770719Y-132700370D01*
X158750749Y-132726078D01*
X158748317Y-132726935D01*
X158746656Y-132728906D01*
X158715550Y-132738494D01*
X158684859Y-132749322D01*
X158682351Y-132748729D01*
X158679887Y-132749489D01*
X158678223Y-132749500D01*
X158435636Y-132749500D01*
X158318246Y-132764953D01*
X158318234Y-132764957D01*
X158297450Y-132773566D01*
X158227981Y-132781033D01*
X158202550Y-132773566D01*
X158181765Y-132764957D01*
X158181760Y-132764955D01*
X158064361Y-132749500D01*
X157785636Y-132749500D01*
X157668241Y-132764954D01*
X157668239Y-132764955D01*
X157646796Y-132773837D01*
X157577327Y-132781304D01*
X157551895Y-132773837D01*
X157531631Y-132765444D01*
X157475000Y-132757987D01*
X157475000Y-132800499D01*
X157466372Y-132829880D01*
X157459892Y-132859816D01*
X157456374Y-132863928D01*
X157455315Y-132867538D01*
X157438769Y-132888092D01*
X157432977Y-132893895D01*
X157396718Y-132921718D01*
X157368466Y-132958535D01*
X157362769Y-132964245D01*
X157338913Y-132977302D01*
X157316948Y-132993341D01*
X157308715Y-132993831D01*
X157301480Y-132997792D01*
X157274349Y-132995878D01*
X157247202Y-132997496D01*
X157240010Y-132993457D01*
X157231783Y-132992877D01*
X157209994Y-132976600D01*
X157186281Y-132963283D01*
X157176630Y-132952146D01*
X157153282Y-132921718D01*
X157153280Y-132921717D01*
X157153280Y-132921716D01*
X157123511Y-132898873D01*
X157082310Y-132842444D01*
X157075000Y-132800499D01*
X157075000Y-132757987D01*
X157074999Y-132757987D01*
X157058720Y-132760131D01*
X156989684Y-132749366D01*
X156937428Y-132702986D01*
X156918543Y-132635717D01*
X156939023Y-132568916D01*
X156954853Y-132549511D01*
X156967184Y-132537181D01*
X157142546Y-132361819D01*
X157203869Y-132328334D01*
X157230227Y-132325500D01*
X158650500Y-132325500D01*
X158683232Y-132335111D01*
G37*
G04 #@! TD.AperFunction*
G04 #@! TA.AperFunction,Conductor*
G36*
X162263019Y-121495184D02*
G01*
X162283661Y-121511818D01*
X163292517Y-122520674D01*
X163321017Y-122565019D01*
X163331205Y-122592334D01*
X163417452Y-122707544D01*
X163417455Y-122707547D01*
X163532664Y-122793793D01*
X163532671Y-122793797D01*
X163667516Y-122844091D01*
X163693419Y-122846875D01*
X163727127Y-122850500D01*
X163818838Y-122850499D01*
X163818842Y-122850500D01*
X163843506Y-122850500D01*
X164808427Y-122850500D01*
X164808435Y-122850499D01*
X165722871Y-122850499D01*
X165722872Y-122850499D01*
X165782483Y-122844091D01*
X165917331Y-122793796D01*
X165973684Y-122751610D01*
X166008380Y-122725637D01*
X166073844Y-122701219D01*
X166142117Y-122716070D01*
X166183008Y-122752016D01*
X166294497Y-122905469D01*
X166303034Y-122917219D01*
X166447786Y-123061971D01*
X166613385Y-123182284D01*
X166613387Y-123182285D01*
X166613390Y-123182287D01*
X166638765Y-123195216D01*
X166706630Y-123229795D01*
X166757426Y-123277770D01*
X166774221Y-123345591D01*
X166751684Y-123411725D01*
X166706630Y-123450765D01*
X166613644Y-123498143D01*
X166569077Y-123530523D01*
X166569077Y-123530524D01*
X167248554Y-124210000D01*
X167242339Y-124210000D01*
X167140606Y-124237259D01*
X167049394Y-124289920D01*
X166974920Y-124364394D01*
X166922259Y-124455606D01*
X166895000Y-124557339D01*
X166895000Y-124563553D01*
X166215524Y-123884077D01*
X166215523Y-123884077D01*
X166183143Y-123928644D01*
X166090244Y-124110968D01*
X166027009Y-124305582D01*
X165995000Y-124507682D01*
X165995000Y-124712317D01*
X166027009Y-124914417D01*
X166090244Y-125109031D01*
X166183141Y-125291350D01*
X166183147Y-125291359D01*
X166215523Y-125335921D01*
X166215524Y-125335922D01*
X166895000Y-124656446D01*
X166895000Y-124662661D01*
X166922259Y-124764394D01*
X166974920Y-124855606D01*
X167049394Y-124930080D01*
X167140606Y-124982741D01*
X167242339Y-125010000D01*
X167248553Y-125010000D01*
X166569076Y-125689474D01*
X166613652Y-125721861D01*
X166645282Y-125737977D01*
X166696079Y-125785951D01*
X166712874Y-125853772D01*
X166690337Y-125919907D01*
X166676669Y-125936143D01*
X161724633Y-130888181D01*
X161663310Y-130921666D01*
X161636952Y-130924500D01*
X156819712Y-130924500D01*
X156684385Y-130951418D01*
X156684375Y-130951421D01*
X156556900Y-131004222D01*
X156442162Y-131080887D01*
X156442161Y-131080888D01*
X154809869Y-132713181D01*
X154782941Y-132727884D01*
X154757123Y-132744477D01*
X154750922Y-132745368D01*
X154748546Y-132746666D01*
X154722188Y-132749500D01*
X154687000Y-132749500D01*
X154619961Y-132729815D01*
X154574206Y-132677011D01*
X154563000Y-132625500D01*
X154563000Y-128774499D01*
X154582685Y-128707460D01*
X154635489Y-128661705D01*
X154687000Y-128650499D01*
X154814362Y-128650499D01*
X154836520Y-128647581D01*
X154931762Y-128635044D01*
X154952545Y-128626434D01*
X155022014Y-128618965D01*
X155047453Y-128626434D01*
X155068238Y-128635044D01*
X155185639Y-128650500D01*
X155464360Y-128650499D01*
X155464361Y-128650499D01*
X155476594Y-128648888D01*
X155581762Y-128635044D01*
X155602545Y-128626434D01*
X155672014Y-128618965D01*
X155674200Y-128619379D01*
X155686171Y-128621761D01*
X155718238Y-128635044D01*
X155820732Y-128648537D01*
X155824700Y-128649327D01*
X155852203Y-128663716D01*
X155880581Y-128676270D01*
X155882890Y-128679771D01*
X155886609Y-128681717D01*
X155901966Y-128708691D01*
X155919053Y-128734594D01*
X155919888Y-128740168D01*
X155921179Y-128742435D01*
X155920928Y-128747107D01*
X155924500Y-128770943D01*
X155924500Y-128796349D01*
X155904815Y-128863388D01*
X155888181Y-128884030D01*
X155814376Y-128957834D01*
X155814373Y-128957837D01*
X155721295Y-129097139D01*
X155657184Y-129251917D01*
X155657182Y-129251925D01*
X155624500Y-129416228D01*
X155624500Y-129583771D01*
X155657182Y-129748074D01*
X155657184Y-129748082D01*
X155721295Y-129902860D01*
X155814373Y-130042162D01*
X155932837Y-130160626D01*
X155995098Y-130202227D01*
X156072137Y-130253703D01*
X156226918Y-130317816D01*
X156391228Y-130350499D01*
X156391232Y-130350500D01*
X156391233Y-130350500D01*
X156558768Y-130350500D01*
X156558769Y-130350499D01*
X156723082Y-130317816D01*
X156877863Y-130253703D01*
X157017162Y-130160626D01*
X157135626Y-130042162D01*
X157228703Y-129902863D01*
X157292816Y-129748082D01*
X157325500Y-129583767D01*
X157325500Y-129416233D01*
X157325500Y-129281006D01*
X157325500Y-128770942D01*
X157334442Y-128740488D01*
X157341742Y-128709589D01*
X157344216Y-128707200D01*
X157345185Y-128703903D01*
X157369166Y-128683122D01*
X157392018Y-128661070D01*
X157396111Y-128659774D01*
X157397989Y-128658148D01*
X157425300Y-128649326D01*
X157429267Y-128648536D01*
X157531762Y-128635044D01*
X157563828Y-128621761D01*
X157575800Y-128619379D01*
X157598929Y-128621447D01*
X157622014Y-128618965D01*
X157644278Y-128625502D01*
X157645393Y-128625602D01*
X157645864Y-128625967D01*
X157647453Y-128626434D01*
X157668238Y-128635044D01*
X157785639Y-128650500D01*
X158064360Y-128650499D01*
X158146806Y-128639645D01*
X158215838Y-128650410D01*
X158250668Y-128674902D01*
X158507285Y-128931520D01*
X158507287Y-128931521D01*
X158507291Y-128931524D01*
X158644210Y-129010573D01*
X158644213Y-129010575D01*
X158644217Y-129010577D01*
X158796944Y-129051501D01*
X158796946Y-129051501D01*
X158962655Y-129051501D01*
X158962671Y-129051500D01*
X162657201Y-129051500D01*
X162657217Y-129051501D01*
X162664813Y-129051501D01*
X162822924Y-129051501D01*
X162822927Y-129051501D01*
X162975655Y-129010577D01*
X163067001Y-128957838D01*
X163112586Y-128931520D01*
X163224390Y-128819716D01*
X163224390Y-128819714D01*
X163234593Y-128809512D01*
X163234597Y-128809506D01*
X163410925Y-128633178D01*
X163451147Y-128606302D01*
X163527841Y-128574536D01*
X163653282Y-128478282D01*
X163749536Y-128352841D01*
X163810044Y-128206762D01*
X163825500Y-128089361D01*
X163825499Y-126310640D01*
X163825499Y-126310636D01*
X163810046Y-126193246D01*
X163810044Y-126193242D01*
X163810044Y-126193238D01*
X163749848Y-126047914D01*
X163742380Y-125978447D01*
X163758870Y-125935367D01*
X163837003Y-125808697D01*
X163890349Y-125647708D01*
X163900500Y-125548345D01*
X163900499Y-124951656D01*
X163890349Y-124852292D01*
X163837003Y-124691303D01*
X163836999Y-124691297D01*
X163836998Y-124691294D01*
X163760895Y-124567913D01*
X163747970Y-124546959D01*
X163747967Y-124546955D01*
X163628044Y-124427032D01*
X163628040Y-124427029D01*
X163483705Y-124338001D01*
X163483699Y-124337998D01*
X163483697Y-124337997D01*
X163483694Y-124337996D01*
X163322709Y-124284651D01*
X163223346Y-124274500D01*
X162676662Y-124274500D01*
X162676644Y-124274501D01*
X162577292Y-124284650D01*
X162577289Y-124284651D01*
X162416305Y-124337996D01*
X162416294Y-124338001D01*
X162271959Y-124427029D01*
X162271953Y-124427033D01*
X162262324Y-124436663D01*
X162201000Y-124470146D01*
X162131308Y-124465159D01*
X162086965Y-124436660D01*
X162077732Y-124427427D01*
X162077728Y-124427424D01*
X161933492Y-124338457D01*
X161933481Y-124338452D01*
X161772606Y-124285144D01*
X161673322Y-124275000D01*
X161650000Y-124275000D01*
X161650000Y-125126000D01*
X161630315Y-125193039D01*
X161577511Y-125238794D01*
X161526000Y-125250000D01*
X161400000Y-125250000D01*
X161400000Y-125376000D01*
X161380315Y-125443039D01*
X161327511Y-125488794D01*
X161276000Y-125500000D01*
X160800598Y-125500000D01*
X160737050Y-125482478D01*
X160723815Y-125474579D01*
X160717716Y-125468480D01*
X160592204Y-125396016D01*
X160580785Y-125389423D01*
X160428057Y-125348499D01*
X160269943Y-125348499D01*
X160262347Y-125348499D01*
X160262331Y-125348500D01*
X158312670Y-125348500D01*
X158305062Y-125348499D01*
X158305059Y-125348499D01*
X158146944Y-125348499D01*
X158146943Y-125348499D01*
X158141461Y-125348499D01*
X158074422Y-125328814D01*
X158028667Y-125276010D01*
X158018724Y-125206851D01*
X158034900Y-125171432D01*
X158047749Y-125143296D01*
X158053781Y-125136818D01*
X158190599Y-125000000D01*
X158238922Y-124951677D01*
X160450000Y-124951677D01*
X160450000Y-125000000D01*
X161150000Y-125000000D01*
X161150000Y-124274999D01*
X161126693Y-124275000D01*
X161126674Y-124275001D01*
X161027392Y-124285144D01*
X160866518Y-124338452D01*
X160866507Y-124338457D01*
X160722271Y-124427424D01*
X160722267Y-124427427D01*
X160602427Y-124547267D01*
X160602424Y-124547271D01*
X160513457Y-124691507D01*
X160513452Y-124691518D01*
X160460144Y-124852393D01*
X160450000Y-124951677D01*
X158238922Y-124951677D01*
X158690488Y-124500109D01*
X158730710Y-124473233D01*
X158777863Y-124453703D01*
X158917162Y-124360626D01*
X159035626Y-124242162D01*
X159128703Y-124102863D01*
X159192816Y-123948082D01*
X159225500Y-123783767D01*
X159225500Y-123616233D01*
X159192816Y-123451918D01*
X159192174Y-123448690D01*
X159198401Y-123379099D01*
X159241264Y-123323921D01*
X159307154Y-123300677D01*
X159313755Y-123300499D01*
X159701934Y-123300499D01*
X159738098Y-123297654D01*
X159865406Y-123260667D01*
X159934594Y-123260667D01*
X160061902Y-123297654D01*
X160098065Y-123300500D01*
X160501934Y-123300499D01*
X160538098Y-123297654D01*
X160665406Y-123260667D01*
X160734594Y-123260667D01*
X160861902Y-123297654D01*
X160898065Y-123300500D01*
X161301934Y-123300499D01*
X161338098Y-123297654D01*
X161492894Y-123252681D01*
X161631643Y-123170626D01*
X161745626Y-123056643D01*
X161827681Y-122917894D01*
X161872654Y-122763098D01*
X161875500Y-122726935D01*
X161875499Y-121599498D01*
X161878049Y-121590813D01*
X161876761Y-121581852D01*
X161887739Y-121557811D01*
X161895184Y-121532460D01*
X161902024Y-121526532D01*
X161905786Y-121518296D01*
X161928018Y-121504008D01*
X161947987Y-121486705D01*
X161958502Y-121484417D01*
X161964564Y-121480522D01*
X161999499Y-121475499D01*
X162195980Y-121475499D01*
X162263019Y-121495184D01*
G37*
G04 #@! TD.AperFunction*
G04 #@! TA.AperFunction,Conductor*
G36*
X168213891Y-123047819D02*
G01*
X168243384Y-123050500D01*
X168476500Y-123050500D01*
X168543539Y-123070185D01*
X168589294Y-123122989D01*
X168600500Y-123174500D01*
X168600500Y-123813540D01*
X168580815Y-123880579D01*
X168528011Y-123926334D01*
X168458853Y-123936278D01*
X168395297Y-123907253D01*
X168376183Y-123886427D01*
X168374475Y-123884077D01*
X168374474Y-123884076D01*
X167695000Y-124563553D01*
X167695000Y-124557339D01*
X167667741Y-124455606D01*
X167615080Y-124364394D01*
X167540606Y-124289920D01*
X167449394Y-124237259D01*
X167347661Y-124210000D01*
X167341446Y-124210000D01*
X168020922Y-123530524D01*
X168020921Y-123530523D01*
X167976359Y-123498147D01*
X167976350Y-123498141D01*
X167883369Y-123450765D01*
X167832573Y-123402790D01*
X167815778Y-123334969D01*
X167838315Y-123268835D01*
X167883370Y-123229795D01*
X167976608Y-123182288D01*
X167976607Y-123182288D01*
X167976610Y-123182287D01*
X168129796Y-123070991D01*
X168195599Y-123047513D01*
X168213891Y-123047819D01*
G37*
G04 #@! TD.AperFunction*
G04 #@! TA.AperFunction,Conductor*
G36*
X166289471Y-120379502D02*
G01*
X166333818Y-120408003D01*
X166447786Y-120521971D01*
X166580658Y-120618506D01*
X166613390Y-120642287D01*
X166704840Y-120688883D01*
X166706080Y-120689515D01*
X166756876Y-120737490D01*
X166773671Y-120805311D01*
X166751134Y-120871446D01*
X166706080Y-120910485D01*
X166613386Y-120957715D01*
X166447788Y-121078027D01*
X166363088Y-121162727D01*
X166301764Y-121196211D01*
X166232073Y-121191227D01*
X166187726Y-121162726D01*
X166175000Y-121150000D01*
X164849000Y-121150000D01*
X164840314Y-121147449D01*
X164831353Y-121148738D01*
X164807312Y-121137759D01*
X164781961Y-121130315D01*
X164776033Y-121123474D01*
X164767797Y-121119713D01*
X164753507Y-121097478D01*
X164736206Y-121077511D01*
X164733918Y-121066996D01*
X164730023Y-121060935D01*
X164725000Y-121026000D01*
X164725000Y-120874000D01*
X164744685Y-120806961D01*
X164797489Y-120761206D01*
X164849000Y-120750000D01*
X166175000Y-120750000D01*
X166175000Y-120702172D01*
X166174999Y-120702155D01*
X166168598Y-120642627D01*
X166168596Y-120642620D01*
X166129955Y-120539017D01*
X166124971Y-120469326D01*
X166158456Y-120408003D01*
X166219779Y-120374518D01*
X166289471Y-120379502D01*
G37*
G04 #@! TD.AperFunction*
G04 #@! TA.AperFunction,Conductor*
G36*
X156061902Y-114972654D02*
G01*
X156098065Y-114975500D01*
X156501934Y-114975499D01*
X156538098Y-114972654D01*
X156665406Y-114935667D01*
X156734594Y-114935667D01*
X156861902Y-114972654D01*
X156898065Y-114975500D01*
X157251449Y-114975499D01*
X157318488Y-114995183D01*
X157364243Y-115047987D01*
X157372331Y-115077986D01*
X157373311Y-115077792D01*
X157407182Y-115248074D01*
X157407184Y-115248082D01*
X157471295Y-115402860D01*
X157564373Y-115542162D01*
X157682837Y-115660626D01*
X157775494Y-115722537D01*
X157822137Y-115753703D01*
X157976918Y-115817816D01*
X158125085Y-115847288D01*
X158141228Y-115850499D01*
X158141232Y-115850500D01*
X158141233Y-115850500D01*
X158308768Y-115850500D01*
X158308769Y-115850499D01*
X158473082Y-115817816D01*
X158627863Y-115753703D01*
X158767162Y-115660626D01*
X158885626Y-115542162D01*
X158978703Y-115402863D01*
X159042816Y-115248082D01*
X159054160Y-115191047D01*
X159062925Y-115174290D01*
X159066945Y-115155812D01*
X159085685Y-115130776D01*
X159086543Y-115129138D01*
X159087977Y-115127678D01*
X159203995Y-115011659D01*
X159265315Y-114978178D01*
X159295630Y-114975521D01*
X159295630Y-114975500D01*
X159295873Y-114975499D01*
X159296558Y-114975440D01*
X159298026Y-114975496D01*
X159298065Y-114975500D01*
X159701934Y-114975499D01*
X159738098Y-114972654D01*
X159865406Y-114935667D01*
X159934594Y-114935667D01*
X160061902Y-114972654D01*
X160098065Y-114975500D01*
X160501934Y-114975499D01*
X160538098Y-114972654D01*
X160665406Y-114935667D01*
X160734594Y-114935667D01*
X160861902Y-114972654D01*
X160898065Y-114975500D01*
X161100500Y-114975499D01*
X161167539Y-114995183D01*
X161213294Y-115047987D01*
X161224500Y-115099498D01*
X161224500Y-115301921D01*
X161224501Y-115301947D01*
X161227346Y-115338098D01*
X161264332Y-115465404D01*
X161264332Y-115534594D01*
X161227346Y-115661897D01*
X161227345Y-115661903D01*
X161224500Y-115698057D01*
X161224500Y-116101922D01*
X161224502Y-116101949D01*
X161227604Y-116141382D01*
X161213238Y-116209758D01*
X161164184Y-116259513D01*
X161122077Y-116272656D01*
X161122208Y-116273311D01*
X160951925Y-116307182D01*
X160951917Y-116307184D01*
X160797139Y-116371295D01*
X160657837Y-116464373D01*
X160539373Y-116582837D01*
X160446295Y-116722139D01*
X160382184Y-116876917D01*
X160382182Y-116876925D01*
X160349500Y-117041228D01*
X160349500Y-117208771D01*
X160382182Y-117373074D01*
X160382184Y-117373082D01*
X160446295Y-117527860D01*
X160539373Y-117667162D01*
X160657837Y-117785626D01*
X160723594Y-117829563D01*
X160797137Y-117878703D01*
X160951918Y-117942816D01*
X161008948Y-117954159D01*
X161070859Y-117986544D01*
X161072438Y-117988096D01*
X161128454Y-118044112D01*
X161243192Y-118120777D01*
X161370667Y-118173578D01*
X161370672Y-118173580D01*
X161420688Y-118183529D01*
X161480998Y-118195526D01*
X161542909Y-118227911D01*
X161577484Y-118288627D01*
X161573744Y-118358396D01*
X161534489Y-118413794D01*
X161527566Y-118419358D01*
X161468357Y-118454374D01*
X161404294Y-118518436D01*
X161399051Y-118522651D01*
X161372728Y-118533514D01*
X161347728Y-118547166D01*
X161336805Y-118548340D01*
X161334466Y-118549306D01*
X161331997Y-118548857D01*
X161321369Y-118550000D01*
X161231325Y-118550000D01*
X161264593Y-118664510D01*
X161264592Y-118733699D01*
X161227346Y-118861897D01*
X161227345Y-118861903D01*
X161224500Y-118898057D01*
X161224500Y-119301922D01*
X161224501Y-119301947D01*
X161227346Y-119338098D01*
X161264332Y-119465404D01*
X161264332Y-119534594D01*
X161227346Y-119661897D01*
X161227345Y-119661903D01*
X161224500Y-119698057D01*
X161224500Y-120101922D01*
X161224501Y-120101947D01*
X161227346Y-120138098D01*
X161264332Y-120265404D01*
X161264332Y-120334594D01*
X161227346Y-120461897D01*
X161227345Y-120461903D01*
X161224500Y-120498057D01*
X161224500Y-120700500D01*
X161204815Y-120767539D01*
X161152011Y-120813294D01*
X161100501Y-120824500D01*
X160898078Y-120824500D01*
X160898052Y-120824501D01*
X160861901Y-120827346D01*
X160734595Y-120864332D01*
X160716945Y-120864332D01*
X160700353Y-120869255D01*
X160665404Y-120864332D01*
X160601409Y-120845739D01*
X160542523Y-120808132D01*
X160513318Y-120744659D01*
X160514387Y-120702473D01*
X160538000Y-120583767D01*
X160538000Y-120416233D01*
X160505316Y-120251918D01*
X160449498Y-120117162D01*
X160441204Y-120097139D01*
X160348126Y-119957837D01*
X160229662Y-119839373D01*
X160090360Y-119746295D01*
X159935582Y-119682184D01*
X159935574Y-119682182D01*
X159771271Y-119649500D01*
X159771267Y-119649500D01*
X159603733Y-119649500D01*
X159603728Y-119649500D01*
X159439425Y-119682182D01*
X159439417Y-119682184D01*
X159284639Y-119746295D01*
X159145337Y-119839373D01*
X159026873Y-119957837D01*
X158933795Y-120097139D01*
X158869684Y-120251917D01*
X158869682Y-120251925D01*
X158837000Y-120416228D01*
X158837000Y-120432963D01*
X158833979Y-120460167D01*
X158831639Y-120470570D01*
X158826420Y-120483172D01*
X158808437Y-120573580D01*
X158808138Y-120575078D01*
X158808137Y-120575087D01*
X158799500Y-120618506D01*
X158799500Y-120700500D01*
X158779815Y-120767539D01*
X158727011Y-120813294D01*
X158675501Y-120824500D01*
X158498076Y-120824500D01*
X158498052Y-120824501D01*
X158461901Y-120827346D01*
X158334595Y-120864332D01*
X158265405Y-120864332D01*
X158138102Y-120827346D01*
X158138096Y-120827345D01*
X158101935Y-120824500D01*
X157698077Y-120824500D01*
X157698052Y-120824501D01*
X157661901Y-120827346D01*
X157534595Y-120864332D01*
X157465405Y-120864332D01*
X157338102Y-120827346D01*
X157338096Y-120827345D01*
X157301935Y-120824500D01*
X156898077Y-120824500D01*
X156898052Y-120824501D01*
X156861901Y-120827346D01*
X156734595Y-120864332D01*
X156665405Y-120864332D01*
X156538102Y-120827346D01*
X156538096Y-120827345D01*
X156501935Y-120824500D01*
X156098077Y-120824500D01*
X156098052Y-120824501D01*
X156061901Y-120827346D01*
X155934595Y-120864332D01*
X155865405Y-120864332D01*
X155738102Y-120827346D01*
X155738096Y-120827345D01*
X155701942Y-120824500D01*
X155701935Y-120824500D01*
X155499499Y-120824500D01*
X155490813Y-120821949D01*
X155481852Y-120823238D01*
X155457811Y-120812259D01*
X155432460Y-120804815D01*
X155426532Y-120797974D01*
X155418296Y-120794213D01*
X155404006Y-120771978D01*
X155386705Y-120752011D01*
X155384417Y-120741496D01*
X155380522Y-120735435D01*
X155375499Y-120700500D01*
X155375499Y-120607976D01*
X155395184Y-120540937D01*
X155430606Y-120504875D01*
X155521543Y-120444114D01*
X155527557Y-120438100D01*
X155588878Y-120404612D01*
X155590990Y-120404171D01*
X155648082Y-120392816D01*
X155802863Y-120328703D01*
X155942162Y-120235626D01*
X156060626Y-120117162D01*
X156153703Y-119977863D01*
X156217816Y-119823082D01*
X156250500Y-119658767D01*
X156250500Y-119491233D01*
X156217816Y-119326918D01*
X156153703Y-119172137D01*
X156076045Y-119055914D01*
X156060626Y-119032837D01*
X155942162Y-118914373D01*
X155802860Y-118821295D01*
X155648082Y-118757184D01*
X155648074Y-118757182D01*
X155483771Y-118724500D01*
X155483767Y-118724500D01*
X155483652Y-118724500D01*
X155483593Y-118724482D01*
X155477706Y-118723903D01*
X155477815Y-118722786D01*
X155416613Y-118704815D01*
X155370858Y-118652011D01*
X155360914Y-118582853D01*
X155364575Y-118565906D01*
X155369196Y-118550000D01*
X155372654Y-118538098D01*
X155375500Y-118501935D01*
X155375499Y-118098066D01*
X155372654Y-118061902D01*
X155338056Y-117942815D01*
X155335407Y-117933698D01*
X155335407Y-117864508D01*
X155368674Y-117750000D01*
X155278631Y-117750000D01*
X155256736Y-117743570D01*
X155233993Y-117741687D01*
X155220563Y-117732949D01*
X155211592Y-117730315D01*
X155203208Y-117724425D01*
X155196729Y-117719460D01*
X155131643Y-117654374D01*
X155044676Y-117602942D01*
X155038781Y-117598425D01*
X155022371Y-117575981D01*
X155003400Y-117555664D01*
X155002037Y-117548171D01*
X154997542Y-117542024D01*
X154995870Y-117514270D01*
X154990896Y-117486922D01*
X154993799Y-117479882D01*
X154993342Y-117472280D01*
X155006940Y-117448029D01*
X155017541Y-117422333D01*
X155024949Y-117415913D01*
X155027515Y-117411338D01*
X155034536Y-117407605D01*
X155051080Y-117393269D01*
X155131643Y-117345626D01*
X155190951Y-117286317D01*
X155252272Y-117252834D01*
X155278631Y-117250000D01*
X155368675Y-117250000D01*
X155368674Y-117249999D01*
X155335407Y-117135490D01*
X155335407Y-117066301D01*
X155372654Y-116938098D01*
X155375500Y-116901935D01*
X155375499Y-116498066D01*
X155372654Y-116461902D01*
X155335667Y-116334593D01*
X155335667Y-116265406D01*
X155372654Y-116138098D01*
X155375500Y-116101935D01*
X155375499Y-115698066D01*
X155372654Y-115661902D01*
X155335667Y-115534593D01*
X155335667Y-115465406D01*
X155372654Y-115338098D01*
X155375500Y-115301935D01*
X155375499Y-115099498D01*
X155395183Y-115032460D01*
X155447987Y-114986705D01*
X155499499Y-114975499D01*
X155701922Y-114975499D01*
X155701934Y-114975499D01*
X155738098Y-114972654D01*
X155865406Y-114935667D01*
X155934594Y-114935667D01*
X156061902Y-114972654D01*
G37*
G04 #@! TD.AperFunction*
G04 #@! TA.AperFunction,Conductor*
G36*
X169395270Y-111936717D02*
G01*
X169395270Y-111936716D01*
X169434622Y-111882555D01*
X169439232Y-111873507D01*
X169487205Y-111822709D01*
X169555025Y-111805912D01*
X169621161Y-111828447D01*
X169660204Y-111873504D01*
X169664949Y-111882817D01*
X169789890Y-112054786D01*
X169789896Y-112054792D01*
X169940208Y-112205104D01*
X170036662Y-112275182D01*
X170079328Y-112330511D01*
X170085307Y-112400124D01*
X170052702Y-112461920D01*
X169991863Y-112496277D01*
X169963777Y-112499500D01*
X169834298Y-112499500D01*
X169797432Y-112502401D01*
X169797426Y-112502402D01*
X169639606Y-112548254D01*
X169639603Y-112548255D01*
X169498137Y-112631917D01*
X169498129Y-112631923D01*
X169381923Y-112748129D01*
X169381917Y-112748137D01*
X169298255Y-112889603D01*
X169298254Y-112889606D01*
X169252402Y-113047426D01*
X169252401Y-113047432D01*
X169249500Y-113084298D01*
X169249500Y-113862934D01*
X169229815Y-113929973D01*
X169177011Y-113975728D01*
X169107853Y-113985672D01*
X169086496Y-113980640D01*
X168947709Y-113934651D01*
X168848346Y-113924500D01*
X168301662Y-113924500D01*
X168301644Y-113924501D01*
X168202292Y-113934650D01*
X168202289Y-113934651D01*
X168041305Y-113987996D01*
X168041294Y-113988001D01*
X167896959Y-114077029D01*
X167896953Y-114077033D01*
X167887324Y-114086663D01*
X167826000Y-114120146D01*
X167756308Y-114115159D01*
X167711965Y-114086660D01*
X167702732Y-114077427D01*
X167702728Y-114077424D01*
X167558492Y-113988457D01*
X167558481Y-113988452D01*
X167397606Y-113935144D01*
X167298322Y-113925000D01*
X167275000Y-113925000D01*
X167275000Y-114776000D01*
X167255315Y-114843039D01*
X167202511Y-114888794D01*
X167151000Y-114900000D01*
X167025000Y-114900000D01*
X167025000Y-115026000D01*
X167005315Y-115093039D01*
X166952511Y-115138794D01*
X166901000Y-115150000D01*
X166075001Y-115150000D01*
X166075001Y-115198322D01*
X166085144Y-115297607D01*
X166138452Y-115458481D01*
X166138457Y-115458492D01*
X166227424Y-115602728D01*
X166227427Y-115602732D01*
X166287070Y-115662375D01*
X166320555Y-115723698D01*
X166315571Y-115793390D01*
X166280639Y-115841369D01*
X166281451Y-115842181D01*
X166152289Y-115971342D01*
X166060187Y-116120663D01*
X166060185Y-116120668D01*
X166032976Y-116202780D01*
X166005001Y-116287203D01*
X166005001Y-116287204D01*
X166005000Y-116287204D01*
X165994500Y-116389983D01*
X165994500Y-116959175D01*
X165974815Y-117026214D01*
X165922011Y-117071969D01*
X165852853Y-117081913D01*
X165801609Y-117062277D01*
X165702860Y-116996295D01*
X165548082Y-116932184D01*
X165548074Y-116932182D01*
X165383771Y-116899500D01*
X165383767Y-116899500D01*
X165216233Y-116899500D01*
X165216228Y-116899500D01*
X165051925Y-116932182D01*
X165051917Y-116932184D01*
X164897139Y-116996295D01*
X164757837Y-117089373D01*
X164639373Y-117207837D01*
X164546295Y-117347139D01*
X164482184Y-117501917D01*
X164482182Y-117501925D01*
X164449500Y-117666228D01*
X164449500Y-117833771D01*
X164482182Y-117998074D01*
X164482184Y-117998082D01*
X164546296Y-118152861D01*
X164546298Y-118152865D01*
X164582209Y-118206610D01*
X164603087Y-118273287D01*
X164584602Y-118340667D01*
X164532623Y-118387357D01*
X164479107Y-118399500D01*
X163480633Y-118399500D01*
X163413594Y-118379815D01*
X163367839Y-118327011D01*
X163357895Y-118257853D01*
X163386920Y-118194297D01*
X163401709Y-118179860D01*
X163409178Y-118173696D01*
X163456643Y-118145626D01*
X163520141Y-118082127D01*
X163524707Y-118078360D01*
X163551597Y-118066853D01*
X163577272Y-118052834D01*
X163586738Y-118051816D01*
X163588943Y-118050873D01*
X163591502Y-118051304D01*
X163603631Y-118050000D01*
X163693675Y-118050000D01*
X163693674Y-118049999D01*
X163660407Y-117935490D01*
X163660407Y-117866301D01*
X163697654Y-117738098D01*
X163700500Y-117701935D01*
X163700499Y-117298066D01*
X163697654Y-117261902D01*
X163660666Y-117134593D01*
X163660276Y-117118924D01*
X163655915Y-117106525D01*
X163659248Y-117077674D01*
X163659092Y-117071375D01*
X163659800Y-117068389D01*
X163697654Y-116938098D01*
X163700500Y-116901935D01*
X163700499Y-116896847D01*
X163703313Y-116884991D01*
X163716066Y-116862642D01*
X163725229Y-116838600D01*
X163733096Y-116832797D01*
X163737942Y-116824306D01*
X163760753Y-116812400D01*
X163781460Y-116797128D01*
X163791490Y-116796356D01*
X163799882Y-116791977D01*
X163822204Y-116793994D01*
X163848153Y-116791999D01*
X163953731Y-116812999D01*
X163953732Y-116813000D01*
X163953733Y-116813000D01*
X164121268Y-116813000D01*
X164121269Y-116812999D01*
X164285582Y-116780316D01*
X164440363Y-116716203D01*
X164579662Y-116623126D01*
X164698126Y-116504662D01*
X164791203Y-116365363D01*
X164855316Y-116210582D01*
X164888000Y-116046267D01*
X164888000Y-115878733D01*
X164855316Y-115714418D01*
X164791203Y-115559637D01*
X164756103Y-115507106D01*
X164698126Y-115420337D01*
X164579662Y-115301873D01*
X164440360Y-115208795D01*
X164434985Y-115205922D01*
X164435748Y-115204494D01*
X164387450Y-115165569D01*
X164365388Y-115099274D01*
X164382670Y-115031576D01*
X164433810Y-114983967D01*
X164465118Y-114973237D01*
X164539245Y-114958492D01*
X164623082Y-114941816D01*
X164777863Y-114877703D01*
X164917162Y-114784626D01*
X165035626Y-114666162D01*
X165078714Y-114601677D01*
X166075000Y-114601677D01*
X166075000Y-114650000D01*
X166775000Y-114650000D01*
X166775000Y-113924999D01*
X166751693Y-113925000D01*
X166751674Y-113925001D01*
X166652392Y-113935144D01*
X166491518Y-113988452D01*
X166491507Y-113988457D01*
X166347271Y-114077424D01*
X166347267Y-114077427D01*
X166227427Y-114197267D01*
X166227424Y-114197271D01*
X166138457Y-114341507D01*
X166138452Y-114341518D01*
X166085144Y-114502393D01*
X166075000Y-114601677D01*
X165078714Y-114601677D01*
X165128703Y-114526863D01*
X165192816Y-114372082D01*
X165225500Y-114207767D01*
X165225500Y-114040233D01*
X165192816Y-113875918D01*
X165128703Y-113721137D01*
X165058913Y-113616689D01*
X165035626Y-113581837D01*
X164917162Y-113463373D01*
X164777860Y-113370295D01*
X164623082Y-113306184D01*
X164623074Y-113306182D01*
X164566050Y-113294839D01*
X164504139Y-113262454D01*
X164502560Y-113260903D01*
X163978837Y-112737180D01*
X163945352Y-112675857D01*
X163950336Y-112606165D01*
X163992208Y-112550232D01*
X164057672Y-112525815D01*
X164066518Y-112525499D01*
X164097871Y-112525499D01*
X164097872Y-112525499D01*
X164157483Y-112519091D01*
X164292331Y-112468796D01*
X164407546Y-112382546D01*
X164493796Y-112267331D01*
X164542810Y-112135916D01*
X164584681Y-112079984D01*
X164650145Y-112055566D01*
X164718418Y-112070417D01*
X164746673Y-112091569D01*
X164860213Y-112205109D01*
X165032179Y-112330048D01*
X165032181Y-112330049D01*
X165032184Y-112330051D01*
X165221588Y-112426557D01*
X165423757Y-112492246D01*
X165633713Y-112525500D01*
X165633714Y-112525500D01*
X165846286Y-112525500D01*
X165846287Y-112525500D01*
X166056243Y-112492246D01*
X166258412Y-112426557D01*
X166447816Y-112330051D01*
X166534138Y-112267335D01*
X166619786Y-112205109D01*
X166619788Y-112205106D01*
X166619792Y-112205104D01*
X166770104Y-112054792D01*
X166770106Y-112054788D01*
X166770109Y-112054786D01*
X166855890Y-111936717D01*
X166895051Y-111882816D01*
X166899793Y-111873508D01*
X166947763Y-111822711D01*
X167015583Y-111805911D01*
X167081719Y-111828445D01*
X167120763Y-111873500D01*
X167125373Y-111882547D01*
X167164728Y-111936716D01*
X167797037Y-111304408D01*
X167814075Y-111367993D01*
X167879901Y-111482007D01*
X167972993Y-111575099D01*
X168087007Y-111640925D01*
X168150590Y-111657962D01*
X167518282Y-112290269D01*
X167518282Y-112290270D01*
X167572449Y-112329624D01*
X167761782Y-112426095D01*
X167963870Y-112491757D01*
X168173754Y-112525000D01*
X168386246Y-112525000D01*
X168596127Y-112491757D01*
X168596130Y-112491757D01*
X168798217Y-112426095D01*
X168987554Y-112329622D01*
X169041716Y-112290270D01*
X169041717Y-112290270D01*
X168409408Y-111657962D01*
X168472993Y-111640925D01*
X168587007Y-111575099D01*
X168680099Y-111482007D01*
X168745925Y-111367993D01*
X168762962Y-111304408D01*
X169395270Y-111936717D01*
G37*
G04 #@! TD.AperFunction*
G04 #@! TA.AperFunction,Conductor*
G36*
X162043541Y-109720185D02*
G01*
X162089296Y-109772989D01*
X162099240Y-109842147D01*
X162070215Y-109905703D01*
X162050816Y-109923764D01*
X161992454Y-109967454D01*
X161992453Y-109967455D01*
X161992452Y-109967456D01*
X161906206Y-110082664D01*
X161906202Y-110082671D01*
X161855908Y-110217517D01*
X161852371Y-110250420D01*
X161849500Y-110277127D01*
X161849500Y-111072863D01*
X161849501Y-111774500D01*
X161829816Y-111841539D01*
X161777013Y-111887294D01*
X161725501Y-111898500D01*
X159990519Y-111898500D01*
X159923480Y-111878815D01*
X159902838Y-111862181D01*
X158420546Y-110379888D01*
X158420545Y-110379887D01*
X158305807Y-110303222D01*
X158178332Y-110250421D01*
X158178322Y-110250418D01*
X158042996Y-110223500D01*
X158042994Y-110223500D01*
X158042993Y-110223500D01*
X153544994Y-110223500D01*
X153407006Y-110223500D01*
X153407004Y-110223500D01*
X153271677Y-110250418D01*
X153271667Y-110250421D01*
X153144192Y-110303222D01*
X153029454Y-110379887D01*
X153029453Y-110379888D01*
X152621162Y-110788181D01*
X152559839Y-110821666D01*
X152533481Y-110824500D01*
X152343384Y-110824500D01*
X152324145Y-110826248D01*
X152272807Y-110830913D01*
X152110393Y-110881522D01*
X151964811Y-110969530D01*
X151844530Y-111089811D01*
X151756522Y-111235393D01*
X151705913Y-111397807D01*
X151699500Y-111468386D01*
X151699500Y-112131613D01*
X151705913Y-112202192D01*
X151705913Y-112202194D01*
X151705914Y-112202196D01*
X151733795Y-112291672D01*
X151756522Y-112364606D01*
X151799893Y-112436350D01*
X151817729Y-112503905D01*
X151796211Y-112570379D01*
X151742171Y-112614666D01*
X151693776Y-112624500D01*
X150289811Y-112624500D01*
X150222772Y-112604815D01*
X150177017Y-112552011D01*
X150166453Y-112513100D01*
X150165349Y-112502292D01*
X150165348Y-112502289D01*
X150154250Y-112468797D01*
X150112003Y-112341303D01*
X150111999Y-112341297D01*
X150111998Y-112341294D01*
X150022970Y-112196959D01*
X150022969Y-112196958D01*
X150022968Y-112196956D01*
X149936818Y-112110806D01*
X149903334Y-112049482D01*
X149900500Y-112023125D01*
X149900500Y-111298650D01*
X149920185Y-111231611D01*
X149931943Y-111217021D01*
X149931761Y-111216872D01*
X149935626Y-111212162D01*
X149960457Y-111175000D01*
X150028703Y-111072863D01*
X150092816Y-110918082D01*
X150125500Y-110753767D01*
X150125500Y-110586233D01*
X150092816Y-110421918D01*
X150040333Y-110295213D01*
X150028704Y-110267139D01*
X150017533Y-110250421D01*
X149947020Y-110144890D01*
X149935626Y-110127837D01*
X149817165Y-110009376D01*
X149817161Y-110009373D01*
X149694782Y-109927602D01*
X149649977Y-109873990D01*
X149641270Y-109804665D01*
X149671424Y-109741638D01*
X149730867Y-109704918D01*
X149763673Y-109700500D01*
X161976502Y-109700500D01*
X162043541Y-109720185D01*
G37*
G04 #@! TD.AperFunction*
G04 #@! TA.AperFunction,Conductor*
G36*
X148853366Y-109720185D02*
G01*
X148899121Y-109772989D01*
X148909065Y-109842147D01*
X148880040Y-109905703D01*
X148855218Y-109927602D01*
X148732838Y-110009373D01*
X148732834Y-110009376D01*
X148614373Y-110127837D01*
X148521295Y-110267139D01*
X148457184Y-110421917D01*
X148457182Y-110421923D01*
X148445839Y-110478949D01*
X148413454Y-110540860D01*
X148411903Y-110542438D01*
X146912181Y-112042161D01*
X146850858Y-112075646D01*
X146781166Y-112070662D01*
X146725233Y-112028790D01*
X146700816Y-111963326D01*
X146700500Y-111954480D01*
X146700500Y-109958676D01*
X146709144Y-109929235D01*
X146715668Y-109899249D01*
X146719422Y-109894233D01*
X146720185Y-109891637D01*
X146736819Y-109870995D01*
X146870995Y-109736819D01*
X146932318Y-109703334D01*
X146958676Y-109700500D01*
X148786327Y-109700500D01*
X148853366Y-109720185D01*
G37*
G04 #@! TD.AperFunction*
G04 #@! TA.AperFunction,Conductor*
G36*
X167750780Y-109720185D02*
G01*
X167796535Y-109772989D01*
X167806479Y-109842147D01*
X167777454Y-109905703D01*
X167740036Y-109934984D01*
X167572448Y-110020375D01*
X167572440Y-110020380D01*
X167518282Y-110059727D01*
X167518282Y-110059728D01*
X168150591Y-110692037D01*
X168087007Y-110709075D01*
X167972993Y-110774901D01*
X167879901Y-110867993D01*
X167814075Y-110982007D01*
X167797037Y-111045591D01*
X167164728Y-110413282D01*
X167164727Y-110413282D01*
X167125380Y-110467440D01*
X167125376Y-110467446D01*
X167120760Y-110476505D01*
X167072781Y-110527297D01*
X167004959Y-110544087D01*
X166938826Y-110521543D01*
X166899794Y-110476493D01*
X166895051Y-110467184D01*
X166895049Y-110467181D01*
X166895048Y-110467179D01*
X166770109Y-110295213D01*
X166619786Y-110144890D01*
X166447819Y-110019951D01*
X166447818Y-110019950D01*
X166447816Y-110019949D01*
X166327561Y-109958676D01*
X166281065Y-109934985D01*
X166230269Y-109887010D01*
X166213474Y-109819189D01*
X166236011Y-109753054D01*
X166290727Y-109709603D01*
X166337360Y-109700500D01*
X167683741Y-109700500D01*
X167750780Y-109720185D01*
G37*
G04 #@! TD.AperFunction*
G04 #@! TA.AperFunction,Conductor*
G36*
X170289679Y-109720185D02*
G01*
X170335434Y-109772989D01*
X170345378Y-109842147D01*
X170316353Y-109905703D01*
X170278935Y-109934985D01*
X170112180Y-110019951D01*
X169940213Y-110144890D01*
X169789890Y-110295213D01*
X169664949Y-110467182D01*
X169660202Y-110476499D01*
X169612227Y-110527293D01*
X169544405Y-110544087D01*
X169478271Y-110521548D01*
X169439234Y-110476495D01*
X169434626Y-110467452D01*
X169395270Y-110413282D01*
X169395269Y-110413282D01*
X168762962Y-111045590D01*
X168745925Y-110982007D01*
X168680099Y-110867993D01*
X168587007Y-110774901D01*
X168472993Y-110709075D01*
X168409409Y-110692037D01*
X169041716Y-110059728D01*
X168987550Y-110020375D01*
X168819964Y-109934985D01*
X168769168Y-109887010D01*
X168752373Y-109819189D01*
X168774911Y-109753054D01*
X168829626Y-109709603D01*
X168876259Y-109700500D01*
X170222640Y-109700500D01*
X170289679Y-109720185D01*
G37*
G04 #@! TD.AperFunction*
G04 #@! TA.AperFunction,Conductor*
G36*
X188780270Y-137761717D02*
G01*
X188780270Y-137761716D01*
X188819622Y-137707555D01*
X188824232Y-137698507D01*
X188872205Y-137647709D01*
X188940025Y-137630912D01*
X189006161Y-137653447D01*
X189045204Y-137698504D01*
X189049949Y-137707817D01*
X189174890Y-137879786D01*
X189325213Y-138030109D01*
X189497179Y-138155048D01*
X189497181Y-138155049D01*
X189497184Y-138155051D01*
X189686588Y-138251557D01*
X189888757Y-138317246D01*
X190098713Y-138350500D01*
X190098714Y-138350500D01*
X190311286Y-138350500D01*
X190311287Y-138350500D01*
X190521243Y-138317246D01*
X190723412Y-138251557D01*
X190912816Y-138155051D01*
X190999138Y-138092335D01*
X191084786Y-138030109D01*
X191084788Y-138030106D01*
X191084792Y-138030104D01*
X191235104Y-137879792D01*
X191235106Y-137879788D01*
X191235109Y-137879786D01*
X191360048Y-137707820D01*
X191360047Y-137707820D01*
X191360051Y-137707816D01*
X191385015Y-137658820D01*
X191432989Y-137608025D01*
X191500810Y-137591230D01*
X191566945Y-137613767D01*
X191610397Y-137668482D01*
X191619500Y-137715116D01*
X191619500Y-145331324D01*
X191610855Y-145360764D01*
X191604332Y-145390751D01*
X191600577Y-145395766D01*
X191599815Y-145398363D01*
X191583181Y-145419005D01*
X191449005Y-145553181D01*
X191387682Y-145586666D01*
X191361324Y-145589500D01*
X183107137Y-145589500D01*
X183040098Y-145569815D01*
X182994343Y-145517011D01*
X182984399Y-145447853D01*
X183013424Y-145384297D01*
X183059684Y-145350939D01*
X183197863Y-145293703D01*
X183337162Y-145200626D01*
X183455626Y-145082162D01*
X183548703Y-144942863D01*
X183612816Y-144788082D01*
X183645500Y-144623767D01*
X183645500Y-144456233D01*
X183612816Y-144291918D01*
X183548703Y-144137137D01*
X183517537Y-144090494D01*
X183455626Y-143997837D01*
X183337162Y-143879373D01*
X183197860Y-143786295D01*
X183043082Y-143722184D01*
X183043074Y-143722182D01*
X182878771Y-143689500D01*
X182878767Y-143689500D01*
X182711233Y-143689500D01*
X182711228Y-143689500D01*
X182546925Y-143722182D01*
X182546917Y-143722184D01*
X182392139Y-143786295D01*
X182252837Y-143879373D01*
X182134373Y-143997837D01*
X182041295Y-144137139D01*
X181977184Y-144291917D01*
X181977182Y-144291925D01*
X181944500Y-144456228D01*
X181944500Y-144623771D01*
X181977182Y-144788074D01*
X181977184Y-144788082D01*
X182041295Y-144942860D01*
X182134373Y-145082162D01*
X182252837Y-145200626D01*
X182345494Y-145262537D01*
X182392137Y-145293703D01*
X182392138Y-145293703D01*
X182392139Y-145293704D01*
X182530316Y-145350939D01*
X182584719Y-145394780D01*
X182606784Y-145461074D01*
X182589505Y-145528774D01*
X182538367Y-145576384D01*
X182482863Y-145589500D01*
X181478676Y-145589500D01*
X181449235Y-145580855D01*
X181419249Y-145574332D01*
X181414233Y-145570577D01*
X181411637Y-145569815D01*
X181390995Y-145553181D01*
X181256819Y-145419005D01*
X181223334Y-145357682D01*
X181220500Y-145331324D01*
X181220500Y-143004110D01*
X181220500Y-143004108D01*
X181194971Y-142908831D01*
X181190748Y-142876296D01*
X181199410Y-140520466D01*
X181203631Y-140488846D01*
X181220500Y-140425892D01*
X181220500Y-140156228D01*
X181944500Y-140156228D01*
X181944500Y-140323771D01*
X181977182Y-140488074D01*
X181977184Y-140488082D01*
X182041295Y-140642860D01*
X182134373Y-140782162D01*
X182252837Y-140900626D01*
X182345494Y-140962537D01*
X182392137Y-140993703D01*
X182546918Y-141057816D01*
X182711228Y-141090499D01*
X182711232Y-141090500D01*
X182711233Y-141090500D01*
X182878768Y-141090500D01*
X182878769Y-141090499D01*
X183043082Y-141057816D01*
X183197863Y-140993703D01*
X183337162Y-140900626D01*
X183455626Y-140782162D01*
X183548703Y-140642863D01*
X183612816Y-140488082D01*
X183645500Y-140323767D01*
X183645500Y-140156233D01*
X183612816Y-139991918D01*
X183548703Y-139837137D01*
X183517537Y-139790494D01*
X183455626Y-139697837D01*
X183374436Y-139616647D01*
X184494500Y-139616647D01*
X184494500Y-140213337D01*
X184494501Y-140213355D01*
X184504650Y-140312707D01*
X184504651Y-140312710D01*
X184557996Y-140473694D01*
X184558001Y-140473705D01*
X184647029Y-140618040D01*
X184647032Y-140618044D01*
X184766955Y-140737967D01*
X184766959Y-140737970D01*
X184911294Y-140826998D01*
X184911297Y-140826999D01*
X184911303Y-140827003D01*
X185072292Y-140880349D01*
X185171655Y-140890500D01*
X185718344Y-140890499D01*
X185718352Y-140890498D01*
X185718355Y-140890498D01*
X185772760Y-140884940D01*
X185817708Y-140880349D01*
X185978697Y-140827003D01*
X186123044Y-140737968D01*
X186132668Y-140728343D01*
X186193987Y-140694856D01*
X186263679Y-140699835D01*
X186308034Y-140728339D01*
X186317267Y-140737572D01*
X186317271Y-140737575D01*
X186461507Y-140826542D01*
X186461518Y-140826547D01*
X186622393Y-140879855D01*
X186721683Y-140889999D01*
X187245000Y-140889999D01*
X187268308Y-140889999D01*
X187268322Y-140889998D01*
X187367607Y-140879855D01*
X187528481Y-140826547D01*
X187528492Y-140826542D01*
X187672728Y-140737575D01*
X187672732Y-140737572D01*
X187792572Y-140617732D01*
X187792575Y-140617728D01*
X187881542Y-140473492D01*
X187881547Y-140473481D01*
X187934855Y-140312606D01*
X187944999Y-140213322D01*
X187945000Y-140213309D01*
X187945000Y-140165000D01*
X187245000Y-140165000D01*
X187245000Y-140889999D01*
X186721683Y-140889999D01*
X186745000Y-140889998D01*
X186745000Y-140156228D01*
X189244500Y-140156228D01*
X189244500Y-140323771D01*
X189277182Y-140488074D01*
X189277184Y-140488082D01*
X189341295Y-140642860D01*
X189434373Y-140782162D01*
X189552837Y-140900626D01*
X189645494Y-140962537D01*
X189692137Y-140993703D01*
X189846918Y-141057816D01*
X190011228Y-141090499D01*
X190011232Y-141090500D01*
X190011233Y-141090500D01*
X190178768Y-141090500D01*
X190178769Y-141090499D01*
X190343082Y-141057816D01*
X190497863Y-140993703D01*
X190637162Y-140900626D01*
X190755626Y-140782162D01*
X190848703Y-140642863D01*
X190912816Y-140488082D01*
X190945500Y-140323767D01*
X190945500Y-140156233D01*
X190912816Y-139991918D01*
X190848703Y-139837137D01*
X190817537Y-139790494D01*
X190755626Y-139697837D01*
X190637162Y-139579373D01*
X190497860Y-139486295D01*
X190343082Y-139422184D01*
X190343074Y-139422182D01*
X190178771Y-139389500D01*
X190178767Y-139389500D01*
X190011233Y-139389500D01*
X190011228Y-139389500D01*
X189846925Y-139422182D01*
X189846917Y-139422184D01*
X189692139Y-139486295D01*
X189552837Y-139579373D01*
X189434373Y-139697837D01*
X189341295Y-139837139D01*
X189277184Y-139991917D01*
X189277182Y-139991925D01*
X189244500Y-140156228D01*
X186745000Y-140156228D01*
X186745000Y-139665000D01*
X187245000Y-139665000D01*
X187944999Y-139665000D01*
X187944999Y-139616692D01*
X187944998Y-139616677D01*
X187934855Y-139517392D01*
X187881547Y-139356518D01*
X187881542Y-139356507D01*
X187792575Y-139212271D01*
X187792572Y-139212267D01*
X187672732Y-139092427D01*
X187672728Y-139092424D01*
X187528492Y-139003457D01*
X187528481Y-139003452D01*
X187367606Y-138950144D01*
X187268322Y-138940000D01*
X187245000Y-138940000D01*
X187245000Y-139665000D01*
X186745000Y-139665000D01*
X186745000Y-138939999D01*
X186721693Y-138940000D01*
X186721674Y-138940001D01*
X186622392Y-138950144D01*
X186461518Y-139003452D01*
X186461507Y-139003457D01*
X186317271Y-139092424D01*
X186317265Y-139092428D01*
X186308031Y-139101663D01*
X186246707Y-139135146D01*
X186177015Y-139130159D01*
X186132672Y-139101660D01*
X186123044Y-139092032D01*
X186123040Y-139092029D01*
X185978705Y-139003001D01*
X185978699Y-139002998D01*
X185978697Y-139002997D01*
X185978694Y-139002996D01*
X185817709Y-138949651D01*
X185718346Y-138939500D01*
X185171662Y-138939500D01*
X185171644Y-138939501D01*
X185072292Y-138949650D01*
X185072289Y-138949651D01*
X184911305Y-139002996D01*
X184911294Y-139003001D01*
X184766959Y-139092029D01*
X184766955Y-139092032D01*
X184647032Y-139211955D01*
X184647029Y-139211959D01*
X184558001Y-139356294D01*
X184557996Y-139356305D01*
X184504651Y-139517290D01*
X184494500Y-139616647D01*
X183374436Y-139616647D01*
X183337162Y-139579373D01*
X183197860Y-139486295D01*
X183043082Y-139422184D01*
X183043074Y-139422182D01*
X182878771Y-139389500D01*
X182878767Y-139389500D01*
X182711233Y-139389500D01*
X182711228Y-139389500D01*
X182546925Y-139422182D01*
X182546917Y-139422184D01*
X182392139Y-139486295D01*
X182252837Y-139579373D01*
X182134373Y-139697837D01*
X182041295Y-139837139D01*
X181977184Y-139991917D01*
X181977182Y-139991925D01*
X181944500Y-140156228D01*
X181220500Y-140156228D01*
X181220500Y-138337772D01*
X181240185Y-138270733D01*
X181292989Y-138224978D01*
X181362147Y-138215034D01*
X181418810Y-138238505D01*
X181461861Y-138270733D01*
X181492668Y-138293795D01*
X181492671Y-138293797D01*
X181627517Y-138344091D01*
X181627516Y-138344091D01*
X181634444Y-138344835D01*
X181687127Y-138350500D01*
X183482872Y-138350499D01*
X183542483Y-138344091D01*
X183677331Y-138293796D01*
X183792546Y-138207546D01*
X183878796Y-138092331D01*
X183927810Y-137960916D01*
X183969681Y-137904984D01*
X184035145Y-137880566D01*
X184103418Y-137895417D01*
X184131673Y-137916569D01*
X184245213Y-138030109D01*
X184417179Y-138155048D01*
X184417181Y-138155049D01*
X184417184Y-138155051D01*
X184606588Y-138251557D01*
X184808757Y-138317246D01*
X185018713Y-138350500D01*
X185018714Y-138350500D01*
X185231286Y-138350500D01*
X185231287Y-138350500D01*
X185441243Y-138317246D01*
X185643412Y-138251557D01*
X185832816Y-138155051D01*
X185919138Y-138092335D01*
X186004786Y-138030109D01*
X186004788Y-138030106D01*
X186004792Y-138030104D01*
X186155104Y-137879792D01*
X186155106Y-137879788D01*
X186155109Y-137879786D01*
X186240890Y-137761717D01*
X186280051Y-137707816D01*
X186284793Y-137698508D01*
X186332763Y-137647711D01*
X186400583Y-137630911D01*
X186466719Y-137653445D01*
X186505763Y-137698500D01*
X186510373Y-137707547D01*
X186549728Y-137761716D01*
X187182037Y-137129408D01*
X187199075Y-137192993D01*
X187264901Y-137307007D01*
X187357993Y-137400099D01*
X187472007Y-137465925D01*
X187535590Y-137482962D01*
X186903282Y-138115269D01*
X186903282Y-138115270D01*
X186957449Y-138154624D01*
X187146782Y-138251095D01*
X187348870Y-138316757D01*
X187558754Y-138350000D01*
X187771246Y-138350000D01*
X187981127Y-138316757D01*
X187981130Y-138316757D01*
X188183217Y-138251095D01*
X188372554Y-138154622D01*
X188426716Y-138115270D01*
X188426717Y-138115270D01*
X187794408Y-137482962D01*
X187857993Y-137465925D01*
X187972007Y-137400099D01*
X188065099Y-137307007D01*
X188130925Y-137192993D01*
X188147962Y-137129408D01*
X188780270Y-137761717D01*
G37*
G04 #@! TD.AperFunction*
G04 #@! TA.AperFunction,Conductor*
G36*
X191428363Y-133410185D02*
G01*
X191449005Y-133426819D01*
X191583181Y-133560995D01*
X191616666Y-133622318D01*
X191619500Y-133648676D01*
X191619500Y-136284883D01*
X191599815Y-136351922D01*
X191547011Y-136397677D01*
X191477853Y-136407621D01*
X191414297Y-136378596D01*
X191385016Y-136341179D01*
X191360050Y-136292182D01*
X191235109Y-136120213D01*
X191084786Y-135969890D01*
X190912820Y-135844951D01*
X190723414Y-135748444D01*
X190723413Y-135748443D01*
X190723412Y-135748443D01*
X190521243Y-135682754D01*
X190521241Y-135682753D01*
X190521240Y-135682753D01*
X190359957Y-135657208D01*
X190311287Y-135649500D01*
X190098713Y-135649500D01*
X190050042Y-135657208D01*
X189888760Y-135682753D01*
X189686585Y-135748444D01*
X189497179Y-135844951D01*
X189325213Y-135969890D01*
X189174890Y-136120213D01*
X189049949Y-136292182D01*
X189045202Y-136301499D01*
X188997227Y-136352293D01*
X188929405Y-136369087D01*
X188863271Y-136346548D01*
X188824234Y-136301495D01*
X188819626Y-136292452D01*
X188780270Y-136238282D01*
X188780269Y-136238282D01*
X188147962Y-136870590D01*
X188130925Y-136807007D01*
X188065099Y-136692993D01*
X187972007Y-136599901D01*
X187857993Y-136534075D01*
X187794409Y-136517037D01*
X188426716Y-135884728D01*
X188372550Y-135845375D01*
X188183217Y-135748904D01*
X187981129Y-135683242D01*
X187771246Y-135650000D01*
X187558754Y-135650000D01*
X187348872Y-135683242D01*
X187348869Y-135683242D01*
X187146782Y-135748904D01*
X186957439Y-135845380D01*
X186903282Y-135884727D01*
X186903282Y-135884728D01*
X187535591Y-136517037D01*
X187472007Y-136534075D01*
X187357993Y-136599901D01*
X187264901Y-136692993D01*
X187199075Y-136807007D01*
X187182037Y-136870590D01*
X186549728Y-136238282D01*
X186549727Y-136238282D01*
X186510380Y-136292440D01*
X186510376Y-136292446D01*
X186505760Y-136301505D01*
X186457781Y-136352297D01*
X186389959Y-136369087D01*
X186323826Y-136346543D01*
X186284794Y-136301493D01*
X186280051Y-136292184D01*
X186280049Y-136292181D01*
X186280048Y-136292179D01*
X186155109Y-136120213D01*
X186004786Y-135969890D01*
X185832820Y-135844951D01*
X185643414Y-135748444D01*
X185643413Y-135748443D01*
X185643412Y-135748443D01*
X185441243Y-135682754D01*
X185441241Y-135682753D01*
X185441240Y-135682753D01*
X185279957Y-135657208D01*
X185231287Y-135649500D01*
X185018713Y-135649500D01*
X184970042Y-135657208D01*
X184808760Y-135682753D01*
X184606585Y-135748444D01*
X184417179Y-135844951D01*
X184245215Y-135969889D01*
X184131673Y-136083431D01*
X184070350Y-136116915D01*
X184000658Y-136111931D01*
X183944725Y-136070059D01*
X183927810Y-136039082D01*
X183878797Y-135907671D01*
X183878793Y-135907664D01*
X183792547Y-135792455D01*
X183792544Y-135792452D01*
X183677335Y-135706206D01*
X183677328Y-135706202D01*
X183542482Y-135655908D01*
X183542483Y-135655908D01*
X183482883Y-135649501D01*
X183482881Y-135649500D01*
X183482873Y-135649500D01*
X183482864Y-135649500D01*
X181687129Y-135649500D01*
X181687123Y-135649501D01*
X181627516Y-135655908D01*
X181492671Y-135706202D01*
X181492669Y-135706204D01*
X181418811Y-135761494D01*
X181353347Y-135785911D01*
X181285074Y-135771059D01*
X181235668Y-135721654D01*
X181220500Y-135662227D01*
X181220500Y-133648676D01*
X181229144Y-133619235D01*
X181235668Y-133589249D01*
X181239422Y-133584233D01*
X181240185Y-133581637D01*
X181256819Y-133560995D01*
X181390995Y-133426819D01*
X181452318Y-133393334D01*
X181478676Y-133390500D01*
X191361324Y-133390500D01*
X191428363Y-133410185D01*
G37*
G04 #@! TD.AperFunction*
M02*
