M48
; DRILL file {KiCad 9.0.2} date 2025-11-17T19:56:27+0900
; FORMAT={-:-/ absolute / metric / decimal}
; #@! TF.CreationDate,2025-11-17T19:56:27+09:00
; #@! TF.GenerationSoftware,Kicad,Pcbnew,9.0.2
; #@! TF.FileFunction,Plated,1,2,PTH
FMAT,2
METRIC
; #@! TA.AperFunction,Plated,PTH,ViaDrill
T1C0.300
; #@! TA.AperFunction,Plated,PTH,ViaDrill
T2C0.500
; #@! TA.AperFunction,Plated,PTH,ComponentDrill
T3C0.800
; #@! TA.AperFunction,Plated,PTH,ComponentDrill
T4C0.900
; #@! TA.AperFunction,Plated,PTH,ComponentDrill
T5C1.000
; #@! TA.AperFunction,Plated,PTH,ComponentDrill
T6C1.100
%
G90
G05
T1
X138.625Y-39.4
X146.5Y-69.5
X146.6Y-44.6
X146.6Y-45.775
X147.975Y-66.6
X148.0Y-59.2
X148.3Y-70.5
X150.55Y-59.1
X151.9Y-60.1
X152.327Y-39.248
X152.725Y-41.725
X153.0Y-53.0
X153.224Y-66.276
X154.826Y-54.0
X155.5Y-53.5
X156.2Y-43.204
X156.229Y-42.049
X156.875Y-53.0
X158.8Y-53.6
X159.8Y-44.4
X161.5Y-46.3
X214.0Y-49.0
X214.0Y-54.5
X221.5Y-54.5
X221.6Y-56.3
T2
X144.0Y-48.3
X144.1Y-52.175
X152.69Y-55.49
T3
X133.78Y-47.5
X133.78Y-55.12
X136.32Y-47.5
X136.32Y-55.12
X138.86Y-47.5
X138.86Y-55.12
X141.4Y-47.5
X141.4Y-55.12
T4
X147.25Y-74.5
X148.27Y-71.96
X149.29Y-74.5
X150.31Y-71.96
X151.33Y-74.5
X152.35Y-71.96
T5
X82.99Y-65.915
X85.53Y-65.915
X88.07Y-65.915
X90.61Y-65.915
X133.553Y-79.108
X136.093Y-79.108
X138.633Y-79.108
X148.83Y-40.2
X151.37Y-40.2
X153.91Y-40.2
X156.45Y-40.2
X157.3Y-57.575
X157.3Y-60.115
X157.3Y-62.655
X159.84Y-57.575
X159.84Y-60.115
X159.84Y-62.655
X159.892Y-72.853
X159.892Y-75.393
X159.892Y-77.933
X163.025Y-44.1
X163.025Y-46.64
X163.025Y-49.18
X163.025Y-51.72
X214.28Y-58.9
X216.82Y-58.9
X219.36Y-58.9
X221.9Y-58.9
T6
X139.663Y-57.99
X139.663Y-60.53
X139.663Y-63.07
X139.663Y-65.61
X139.663Y-68.15
X139.663Y-70.69
M30
