G04 #@! TF.GenerationSoftware,KiCad,Pcbnew,9.0.2*
G04 #@! TF.CreationDate,2025-11-17T19:55:37+09:00*
G04 #@! TF.ProjectId,PitoBoard2026,5069746f-426f-4617-9264-323032362e6b,rev?*
G04 #@! TF.SameCoordinates,Original*
G04 #@! TF.FileFunction,Soldermask,Bot*
G04 #@! TF.FilePolarity,Negative*
%FSLAX46Y46*%
G04 Gerber Fmt 4.6, Leading zero omitted, Abs format (unit mm)*
G04 Created by KiCad (PCBNEW 9.0.2) date 2025-11-17 19:55:37*
%MOMM*%
%LPD*%
G01*
G04 APERTURE LIST*
G04 Aperture macros list*
%AMRoundRect*
0 Rectangle with rounded corners*
0 $1 Rounding radius*
0 $2 $3 $4 $5 $6 $7 $8 $9 X,Y pos of 4 corners*
0 Add a 4 corners polygon primitive as box body*
4,1,4,$2,$3,$4,$5,$6,$7,$8,$9,$2,$3,0*
0 Add four circle primitives for the rounded corners*
1,1,$1+$1,$2,$3*
1,1,$1+$1,$4,$5*
1,1,$1+$1,$6,$7*
1,1,$1+$1,$8,$9*
0 Add four rect primitives between the rounded corners*
20,1,$1+$1,$2,$3,$4,$5,0*
20,1,$1+$1,$4,$5,$6,$7,0*
20,1,$1+$1,$6,$7,$8,$9,0*
20,1,$1+$1,$8,$9,$2,$3,0*%
G04 Aperture macros list end*
%ADD10R,2.300000X1.500000*%
%ADD11O,2.300000X1.500000*%
%ADD12R,1.700000X1.700000*%
%ADD13O,1.700000X1.700000*%
%ADD14C,1.900000*%
%ADD15C,2.300000*%
%ADD16R,1.520000X1.520000*%
%ADD17C,1.520000*%
%ADD18C,1.700000*%
%ADD19R,1.500000X2.300000*%
%ADD20O,1.500000X2.300000*%
%ADD21C,0.000010*%
%ADD22R,1.600000X1.600000*%
%ADD23O,1.600000X1.600000*%
%ADD24RoundRect,0.200000X0.275000X-0.200000X0.275000X0.200000X-0.275000X0.200000X-0.275000X-0.200000X0*%
%ADD25RoundRect,0.225000X0.375000X-0.225000X0.375000X0.225000X-0.375000X0.225000X-0.375000X-0.225000X0*%
%ADD26RoundRect,0.200000X0.200000X0.275000X-0.200000X0.275000X-0.200000X-0.275000X0.200000X-0.275000X0*%
%ADD27RoundRect,0.225000X-0.375000X0.225000X-0.375000X-0.225000X0.375000X-0.225000X0.375000X0.225000X0*%
%ADD28RoundRect,0.225000X-0.225000X-0.375000X0.225000X-0.375000X0.225000X0.375000X-0.225000X0.375000X0*%
%ADD29RoundRect,0.250000X-0.650000X0.325000X-0.650000X-0.325000X0.650000X-0.325000X0.650000X0.325000X0*%
%ADD30RoundRect,0.200000X-0.200000X-0.275000X0.200000X-0.275000X0.200000X0.275000X-0.200000X0.275000X0*%
G04 APERTURE END LIST*
D10*
X159892500Y-72853000D03*
D11*
X159892500Y-75393000D03*
X159892500Y-77933000D03*
D12*
X221900000Y-58900000D03*
D13*
X219360000Y-58900000D03*
X216820000Y-58900000D03*
X214280000Y-58900000D03*
D14*
X139663000Y-70690000D03*
X139663000Y-68150000D03*
X139663000Y-65610000D03*
X139663000Y-63070000D03*
X139663000Y-60530000D03*
X139663000Y-57990000D03*
D15*
X143800000Y-76800000D03*
X155800000Y-76800000D03*
D16*
X152350000Y-71960000D03*
D17*
X151330000Y-74500000D03*
X150310000Y-71960000D03*
X149290000Y-74500000D03*
X148270000Y-71960000D03*
X147250000Y-74500000D03*
D12*
X148830000Y-40200000D03*
D18*
X151370000Y-40200000D03*
X153910000Y-40200000D03*
X156450000Y-40200000D03*
D19*
X133553000Y-79107500D03*
D20*
X136093000Y-79107500D03*
X138633000Y-79107500D03*
D12*
X90610000Y-65915000D03*
D18*
X88070000Y-65915000D03*
X85530000Y-65915000D03*
X82990000Y-65915000D03*
D21*
X82850000Y-61350000D03*
X90150000Y-57050000D03*
X90150000Y-61350000D03*
D22*
X141400000Y-47500000D03*
D23*
X138860000Y-47500000D03*
X136320000Y-47500000D03*
X133780000Y-47500000D03*
X133780000Y-55120000D03*
X136320000Y-55120000D03*
X138860000Y-55120000D03*
X141400000Y-55120000D03*
D12*
X157300000Y-57575000D03*
D13*
X159840000Y-57575000D03*
X157300000Y-60115000D03*
X159840000Y-60115000D03*
X157300000Y-62655000D03*
X159840000Y-62655000D03*
D12*
X163025000Y-44100000D03*
D13*
X163025000Y-46640000D03*
X163025000Y-49180000D03*
X163025000Y-51720000D03*
D24*
X141700000Y-64725000D03*
X141700000Y-63075000D03*
D25*
X146500000Y-79950000D03*
X146500000Y-76650000D03*
D26*
X139425000Y-53300000D03*
X137775000Y-53300000D03*
D27*
X161800000Y-73550000D03*
X161800000Y-76850000D03*
D24*
X135100000Y-52125000D03*
X135100000Y-50475000D03*
D26*
X151925000Y-62100000D03*
X150275000Y-62100000D03*
D28*
X134650000Y-77400000D03*
X137950000Y-77400000D03*
D29*
X157600000Y-71925000D03*
X157600000Y-74875000D03*
D30*
X148750000Y-67400000D03*
X150400000Y-67400000D03*
D26*
X140925000Y-49300000D03*
X139275000Y-49300000D03*
M02*
