G04 #@! TF.GenerationSoftware,KiCad,Pcbnew,9.0.2*
G04 #@! TF.CreationDate,2025-11-17T19:55:36+09:00*
G04 #@! TF.ProjectId,PitoBoard2026,5069746f-426f-4617-9264-323032362e6b,rev?*
G04 #@! TF.SameCoordinates,Original*
G04 #@! TF.FileFunction,Copper,L2,Bot*
G04 #@! TF.FilePolarity,Positive*
%FSLAX46Y46*%
G04 Gerber Fmt 4.6, Leading zero omitted, Abs format (unit mm)*
G04 Created by KiCad (PCBNEW 9.0.2) date 2025-11-17 19:55:36*
%MOMM*%
%LPD*%
G01*
G04 APERTURE LIST*
G04 Aperture macros list*
%AMRoundRect*
0 Rectangle with rounded corners*
0 $1 Rounding radius*
0 $2 $3 $4 $5 $6 $7 $8 $9 X,Y pos of 4 corners*
0 Add a 4 corners polygon primitive as box body*
4,1,4,$2,$3,$4,$5,$6,$7,$8,$9,$2,$3,0*
0 Add four circle primitives for the rounded corners*
1,1,$1+$1,$2,$3*
1,1,$1+$1,$4,$5*
1,1,$1+$1,$6,$7*
1,1,$1+$1,$8,$9*
0 Add four rect primitives between the rounded corners*
20,1,$1+$1,$2,$3,$4,$5,0*
20,1,$1+$1,$4,$5,$6,$7,0*
20,1,$1+$1,$6,$7,$8,$9,0*
20,1,$1+$1,$8,$9,$2,$3,0*%
G04 Aperture macros list end*
G04 #@! TA.AperFunction,ComponentPad*
%ADD10R,2.300000X1.500000*%
G04 #@! TD*
G04 #@! TA.AperFunction,ComponentPad*
%ADD11O,2.300000X1.500000*%
G04 #@! TD*
G04 #@! TA.AperFunction,ComponentPad*
%ADD12R,1.700000X1.700000*%
G04 #@! TD*
G04 #@! TA.AperFunction,ComponentPad*
%ADD13O,1.700000X1.700000*%
G04 #@! TD*
G04 #@! TA.AperFunction,ComponentPad*
%ADD14C,1.900000*%
G04 #@! TD*
G04 #@! TA.AperFunction,ComponentPad*
%ADD15R,1.520000X1.520000*%
G04 #@! TD*
G04 #@! TA.AperFunction,ComponentPad*
%ADD16C,1.520000*%
G04 #@! TD*
G04 #@! TA.AperFunction,ComponentPad*
%ADD17C,1.700000*%
G04 #@! TD*
G04 #@! TA.AperFunction,ComponentPad*
%ADD18R,1.500000X2.300000*%
G04 #@! TD*
G04 #@! TA.AperFunction,ComponentPad*
%ADD19O,1.500000X2.300000*%
G04 #@! TD*
G04 #@! TA.AperFunction,ComponentPad*
%ADD20R,1.600000X1.600000*%
G04 #@! TD*
G04 #@! TA.AperFunction,ComponentPad*
%ADD21O,1.600000X1.600000*%
G04 #@! TD*
G04 #@! TA.AperFunction,SMDPad,CuDef*
%ADD22RoundRect,0.200000X0.275000X-0.200000X0.275000X0.200000X-0.275000X0.200000X-0.275000X-0.200000X0*%
G04 #@! TD*
G04 #@! TA.AperFunction,SMDPad,CuDef*
%ADD23RoundRect,0.225000X0.375000X-0.225000X0.375000X0.225000X-0.375000X0.225000X-0.375000X-0.225000X0*%
G04 #@! TD*
G04 #@! TA.AperFunction,SMDPad,CuDef*
%ADD24RoundRect,0.200000X0.200000X0.275000X-0.200000X0.275000X-0.200000X-0.275000X0.200000X-0.275000X0*%
G04 #@! TD*
G04 #@! TA.AperFunction,SMDPad,CuDef*
%ADD25RoundRect,0.225000X-0.375000X0.225000X-0.375000X-0.225000X0.375000X-0.225000X0.375000X0.225000X0*%
G04 #@! TD*
G04 #@! TA.AperFunction,SMDPad,CuDef*
%ADD26RoundRect,0.225000X-0.225000X-0.375000X0.225000X-0.375000X0.225000X0.375000X-0.225000X0.375000X0*%
G04 #@! TD*
G04 #@! TA.AperFunction,SMDPad,CuDef*
%ADD27RoundRect,0.250000X-0.650000X0.325000X-0.650000X-0.325000X0.650000X-0.325000X0.650000X0.325000X0*%
G04 #@! TD*
G04 #@! TA.AperFunction,SMDPad,CuDef*
%ADD28RoundRect,0.200000X-0.200000X-0.275000X0.200000X-0.275000X0.200000X0.275000X-0.200000X0.275000X0*%
G04 #@! TD*
G04 #@! TA.AperFunction,ViaPad*
%ADD29C,0.700000*%
G04 #@! TD*
G04 #@! TA.AperFunction,ViaPad*
%ADD30C,0.600000*%
G04 #@! TD*
G04 #@! TA.AperFunction,Conductor*
%ADD31C,0.200000*%
G04 #@! TD*
G04 #@! TA.AperFunction,Conductor*
%ADD32C,0.700000*%
G04 #@! TD*
G04 APERTURE END LIST*
D10*
X159892500Y-72853000D03*
D11*
X159892500Y-75393000D03*
X159892500Y-77933000D03*
D12*
X221900000Y-58900000D03*
D13*
X219360000Y-58900000D03*
X216820000Y-58900000D03*
X214280000Y-58900000D03*
D14*
X139663000Y-70690000D03*
X139663000Y-68150000D03*
X139663000Y-65610000D03*
X139663000Y-63070000D03*
X139663000Y-60530000D03*
X139663000Y-57990000D03*
D15*
X152350000Y-71960000D03*
D16*
X151330000Y-74500000D03*
X150310000Y-71960000D03*
X149290000Y-74500000D03*
X148270000Y-71960000D03*
X147250000Y-74500000D03*
D12*
X148830000Y-40200000D03*
D17*
X151370000Y-40200000D03*
X153910000Y-40200000D03*
X156450000Y-40200000D03*
D18*
X133553000Y-79107500D03*
D19*
X136093000Y-79107500D03*
X138633000Y-79107500D03*
D12*
X90610000Y-65915000D03*
D17*
X88070000Y-65915000D03*
X85530000Y-65915000D03*
X82990000Y-65915000D03*
D20*
X141400000Y-47500000D03*
D21*
X138860000Y-47500000D03*
X136320000Y-47500000D03*
X133780000Y-47500000D03*
X133780000Y-55120000D03*
X136320000Y-55120000D03*
X138860000Y-55120000D03*
X141400000Y-55120000D03*
D12*
X157300000Y-57575000D03*
D13*
X159840000Y-57575000D03*
X157300000Y-60115000D03*
X159840000Y-60115000D03*
X157300000Y-62655000D03*
X159840000Y-62655000D03*
D12*
X163025000Y-44100000D03*
D13*
X163025000Y-46640000D03*
X163025000Y-49180000D03*
X163025000Y-51720000D03*
D22*
X141700000Y-64725000D03*
X141700000Y-63075000D03*
D23*
X146500000Y-79950000D03*
X146500000Y-76650000D03*
D24*
X139425000Y-53300000D03*
X137775000Y-53300000D03*
D25*
X161800000Y-73550000D03*
X161800000Y-76850000D03*
D22*
X135100000Y-52125000D03*
X135100000Y-50475000D03*
D24*
X151925000Y-62100000D03*
X150275000Y-62100000D03*
D26*
X134650000Y-77400000D03*
X137950000Y-77400000D03*
D27*
X157600000Y-71925000D03*
X157600000Y-74875000D03*
D28*
X148750000Y-67400000D03*
X150400000Y-67400000D03*
D24*
X140925000Y-49300000D03*
X139275000Y-49300000D03*
D29*
X144000000Y-48300000D03*
X144100000Y-52175000D03*
D30*
X158800000Y-53600000D03*
X138625000Y-39400000D03*
X221600000Y-56300000D03*
D29*
X152690380Y-55490380D03*
D30*
X214000000Y-54500000D03*
X221500000Y-54500000D03*
X214000000Y-49000000D03*
X156875000Y-53000000D03*
X154826000Y-54000000D03*
X153000000Y-53000000D03*
X146500000Y-69500000D03*
X148300000Y-70500000D03*
X155500000Y-53500000D03*
X159800000Y-44400000D03*
X161500000Y-46300000D03*
X156228760Y-42049000D03*
X152327180Y-39248000D03*
X152724735Y-41724735D03*
X156199999Y-43203528D03*
X147975000Y-66600000D03*
X151900000Y-60100000D03*
X146600000Y-45775000D03*
X146600000Y-44600000D03*
X153224265Y-66275735D03*
X150550000Y-59100000D03*
X148000000Y-59200000D03*
D31*
X146600000Y-45775000D02*
X138045000Y-45775000D01*
D32*
X153661000Y-70661000D02*
X153661000Y-73271000D01*
X151330000Y-74500000D02*
X147230000Y-78600000D01*
X144000000Y-48300000D02*
X144000000Y-52075000D01*
X153661000Y-73271000D02*
X152432000Y-74500000D01*
X137279397Y-60530000D02*
X132429000Y-55679603D01*
X138162000Y-62031000D02*
X139663000Y-60530000D01*
X154000000Y-40110000D02*
X153910000Y-40200000D01*
X132429000Y-55679603D02*
X132429000Y-48851000D01*
X142400000Y-78600000D02*
X140100000Y-80900000D01*
X150400000Y-67400000D02*
X153661000Y-70661000D01*
X147230000Y-78600000D02*
X142400000Y-78600000D01*
X139663000Y-68150000D02*
X136093000Y-71720000D01*
X139663000Y-68150000D02*
X138162000Y-66649000D01*
X138162000Y-66649000D02*
X138162000Y-62031000D01*
X139663000Y-60530000D02*
X137279397Y-60530000D01*
X152432000Y-74500000D02*
X151330000Y-74500000D01*
X136093000Y-71720000D02*
X136093000Y-79107500D01*
X137885500Y-80900000D02*
X136093000Y-79107500D01*
X140100000Y-80900000D02*
X137885500Y-80900000D01*
X144000000Y-52075000D02*
X144100000Y-52175000D01*
X159374500Y-74875000D02*
X159892500Y-75393000D01*
X157600000Y-74875000D02*
X159374500Y-74875000D01*
X132429000Y-48851000D02*
X133780000Y-47500000D01*
X133553000Y-80953000D02*
X133553000Y-79107500D01*
X160589500Y-73550000D02*
X159892500Y-72853000D01*
X159892500Y-72853000D02*
X158528000Y-72853000D01*
X158528000Y-72853000D02*
X157600000Y-71925000D01*
X135300000Y-82700000D02*
X133553000Y-80953000D01*
X161800000Y-73550000D02*
X160589500Y-73550000D01*
X133553000Y-78147000D02*
X133553000Y-79107500D01*
X146500000Y-79950000D02*
X143750000Y-82700000D01*
X134650000Y-77400000D02*
X134300000Y-77400000D01*
X149575000Y-79950000D02*
X146500000Y-79950000D01*
X134300000Y-77400000D02*
X133553000Y-78147000D01*
X157600000Y-71925000D02*
X149575000Y-79950000D01*
X143750000Y-82700000D02*
X135300000Y-82700000D01*
X160975500Y-76850000D02*
X159892500Y-77933000D01*
X149969000Y-38799000D02*
X139226000Y-38799000D01*
X140925000Y-49300000D02*
X138100000Y-52125000D01*
X141400000Y-47500000D02*
X141400000Y-48825000D01*
X151370000Y-43270000D02*
X159900000Y-51800000D01*
D31*
X216880000Y-56300000D02*
X214280000Y-58900000D01*
D32*
X161800000Y-76850000D02*
X160975500Y-76850000D01*
X162945000Y-51800000D02*
X163025000Y-51720000D01*
X151370000Y-40200000D02*
X151370000Y-43270000D01*
X159900000Y-51800000D02*
X162945000Y-51800000D01*
X151370000Y-40200000D02*
X149969000Y-38799000D01*
X135100000Y-52125000D02*
X135100000Y-53800000D01*
X163875000Y-67382000D02*
X162951000Y-68306000D01*
D31*
X161145000Y-53600000D02*
X163025000Y-51720000D01*
D32*
X157300000Y-62655000D02*
X152800000Y-58155000D01*
D31*
X221600000Y-56300000D02*
X216880000Y-56300000D01*
D32*
X162951000Y-75699000D02*
X161800000Y-76850000D01*
D31*
X158800000Y-53600000D02*
X161145000Y-53600000D01*
D32*
X162951000Y-68306000D02*
X162951000Y-75699000D01*
X152800000Y-55600000D02*
X152725735Y-55525735D01*
X135100000Y-53800000D02*
X133780000Y-55120000D01*
X139226000Y-38799000D02*
X138625000Y-39400000D01*
X138100000Y-52125000D02*
X135100000Y-52125000D01*
X141400000Y-48825000D02*
X140925000Y-49300000D01*
X157300000Y-62655000D02*
X162951000Y-68306000D01*
X163875000Y-52570000D02*
X163875000Y-67382000D01*
X163025000Y-51720000D02*
X163875000Y-52570000D01*
X152800000Y-58155000D02*
X152800000Y-55600000D01*
D31*
X221500000Y-54500000D02*
X222201000Y-55201000D01*
X214000000Y-54500000D02*
X221500000Y-54500000D01*
X214000000Y-49000000D02*
X214000000Y-54500000D01*
X222201000Y-58599000D02*
X221900000Y-58900000D01*
X222201000Y-55201000D02*
X222201000Y-58599000D01*
D32*
X141245000Y-55120000D02*
X139425000Y-53300000D01*
X141400000Y-59175000D02*
X144325000Y-62100000D01*
X140573000Y-64700000D02*
X141675000Y-64700000D01*
X137950000Y-77400000D02*
X137950000Y-77450000D01*
X138633000Y-78133000D02*
X138633000Y-79107500D01*
X141400000Y-55120000D02*
X141400000Y-59175000D01*
X141675000Y-64700000D02*
X141700000Y-64725000D01*
X150275000Y-62100000D02*
X144325000Y-62100000D01*
X144325000Y-62100000D02*
X141700000Y-64725000D01*
X137950000Y-77450000D02*
X138633000Y-78133000D01*
X139663000Y-65610000D02*
X140573000Y-64700000D01*
X141400000Y-55120000D02*
X141245000Y-55120000D01*
X147195198Y-71960000D02*
X145900000Y-73255198D01*
X148270000Y-71960000D02*
X147195198Y-71960000D01*
X145900000Y-73255198D02*
X145900000Y-76050000D01*
X145900000Y-76050000D02*
X146500000Y-76650000D01*
D31*
X157275000Y-53400000D02*
X157292760Y-53400000D01*
X160991000Y-57098240D02*
X160991000Y-58964000D01*
X160991000Y-58964000D02*
X159840000Y-60115000D01*
X157292760Y-53400000D02*
X160991000Y-57098240D01*
X156875000Y-53000000D02*
X157000000Y-53125000D01*
X156875000Y-53000000D02*
X157275000Y-53400000D01*
X154826000Y-53426000D02*
X154826000Y-54000000D01*
X154400000Y-53000000D02*
X154700000Y-53300000D01*
X153000000Y-53000000D02*
X154400000Y-53000000D01*
X154700000Y-53300000D02*
X154826000Y-53426000D01*
X148300000Y-70500000D02*
X147500000Y-70500000D01*
X147500000Y-70500000D02*
X146500000Y-69500000D01*
X158451000Y-56451000D02*
X155500000Y-53500000D01*
X158451000Y-61266000D02*
X158451000Y-56451000D01*
X159840000Y-62655000D02*
X158451000Y-61266000D01*
X159800000Y-44600000D02*
X159800000Y-44400000D01*
X161500000Y-46300000D02*
X159800000Y-44600000D01*
X156228760Y-42383760D02*
X156228760Y-42049000D01*
X154386760Y-39049000D02*
X155299000Y-39961240D01*
X155299000Y-39961240D02*
X155299000Y-41119240D01*
X163025000Y-49180000D02*
X156228760Y-42383760D01*
X152651000Y-39049000D02*
X154386760Y-39049000D01*
X155299000Y-41119240D02*
X156228760Y-42049000D01*
X152452000Y-39248000D02*
X152651000Y-39049000D01*
X152327180Y-39248000D02*
X152452000Y-39248000D01*
X156585000Y-40200000D02*
X156450000Y-40200000D01*
X163025000Y-46640000D02*
X156585000Y-40200000D01*
X154721206Y-41724735D02*
X156199999Y-43203528D01*
X152724735Y-41724735D02*
X154721206Y-41724735D01*
X147975000Y-66625000D02*
X148750000Y-67400000D01*
X147975000Y-66600000D02*
X147975000Y-66625000D01*
X151900000Y-60100000D02*
X151925000Y-60125000D01*
X151925000Y-60125000D02*
X151925000Y-62100000D01*
X138860000Y-47500000D02*
X138860000Y-48885000D01*
X138860000Y-48885000D02*
X139275000Y-49300000D01*
X136320000Y-47500000D02*
X136320000Y-49255000D01*
X138045000Y-45775000D02*
X136320000Y-47500000D01*
X136320000Y-49255000D02*
X135100000Y-50475000D01*
X153224265Y-66275735D02*
X151200000Y-64251470D01*
X153200000Y-66300000D02*
X153224265Y-66275735D01*
X151200000Y-49200000D02*
X146600000Y-44600000D01*
X151200000Y-64251470D02*
X151200000Y-49200000D01*
X148200000Y-59400000D02*
X148000000Y-59200000D01*
X150550000Y-59100000D02*
X150250000Y-59400000D01*
X150250000Y-59400000D02*
X148200000Y-59400000D01*
X136320000Y-55120000D02*
X136320000Y-54755000D01*
X136320000Y-54755000D02*
X137775000Y-53300000D01*
X136793000Y-55120000D02*
X136320000Y-55120000D01*
X139663000Y-57990000D02*
X136793000Y-55120000D01*
X141700000Y-63075000D02*
X139668000Y-63075000D01*
X139668000Y-63075000D02*
X139663000Y-63070000D01*
M02*
