G04 #@! TF.GenerationSoftware,KiCad,Pcbnew,9.0.2*
G04 #@! TF.CreationDate,2025-11-17T19:55:37+09:00*
G04 #@! TF.ProjectId,PitoBoard2026,5069746f-426f-4617-9264-323032362e6b,rev?*
G04 #@! TF.SameCoordinates,Original*
G04 #@! TF.FileFunction,Soldermask,Top*
G04 #@! TF.FilePolarity,Negative*
%FSLAX46Y46*%
G04 Gerber Fmt 4.6, Leading zero omitted, Abs format (unit mm)*
G04 Created by KiCad (PCBNEW 9.0.2) date 2025-11-17 19:55:37*
%MOMM*%
%LPD*%
G01*
G04 APERTURE LIST*
G04 Aperture macros list*
%AMRoundRect*
0 Rectangle with rounded corners*
0 $1 Rounding radius*
0 $2 $3 $4 $5 $6 $7 $8 $9 X,Y pos of 4 corners*
0 Add a 4 corners polygon primitive as box body*
4,1,4,$2,$3,$4,$5,$6,$7,$8,$9,$2,$3,0*
0 Add four circle primitives for the rounded corners*
1,1,$1+$1,$2,$3*
1,1,$1+$1,$4,$5*
1,1,$1+$1,$6,$7*
1,1,$1+$1,$8,$9*
0 Add four rect primitives between the rounded corners*
20,1,$1+$1,$2,$3,$4,$5,0*
20,1,$1+$1,$4,$5,$6,$7,0*
20,1,$1+$1,$6,$7,$8,$9,0*
20,1,$1+$1,$8,$9,$2,$3,0*%
G04 Aperture macros list end*
%ADD10RoundRect,0.250000X-0.475000X0.250000X-0.475000X-0.250000X0.475000X-0.250000X0.475000X0.250000X0*%
%ADD11R,0.400000X1.900000*%
%ADD12R,2.300000X1.500000*%
%ADD13O,2.300000X1.500000*%
%ADD14RoundRect,0.225000X0.250000X-0.225000X0.250000X0.225000X-0.250000X0.225000X-0.250000X-0.225000X0*%
%ADD15RoundRect,0.150000X-0.150000X0.825000X-0.150000X-0.825000X0.150000X-0.825000X0.150000X0.825000X0*%
%ADD16RoundRect,0.225000X0.225000X0.250000X-0.225000X0.250000X-0.225000X-0.250000X0.225000X-0.250000X0*%
%ADD17R,1.700000X1.700000*%
%ADD18O,1.700000X1.700000*%
%ADD19C,1.900000*%
%ADD20C,2.300000*%
%ADD21R,1.520000X1.520000*%
%ADD22C,1.520000*%
%ADD23RoundRect,0.200000X-0.200000X-0.275000X0.200000X-0.275000X0.200000X0.275000X-0.200000X0.275000X0*%
%ADD24RoundRect,0.218750X0.218750X0.256250X-0.218750X0.256250X-0.218750X-0.256250X0.218750X-0.256250X0*%
%ADD25R,0.450000X1.750000*%
%ADD26RoundRect,0.200000X0.200000X0.275000X-0.200000X0.275000X-0.200000X-0.275000X0.200000X-0.275000X0*%
%ADD27RoundRect,0.225000X-0.250000X0.225000X-0.250000X-0.225000X0.250000X-0.225000X0.250000X0.225000X0*%
%ADD28RoundRect,0.225000X-0.225000X-0.250000X0.225000X-0.250000X0.225000X0.250000X-0.225000X0.250000X0*%
%ADD29R,1.600000X0.550000*%
%ADD30R,0.550000X1.600000*%
%ADD31C,1.700000*%
%ADD32R,1.050000X0.650000*%
%ADD33R,1.500000X2.300000*%
%ADD34O,1.500000X2.300000*%
%ADD35C,0.000010*%
%ADD36RoundRect,0.125000X-0.625000X-0.125000X0.625000X-0.125000X0.625000X0.125000X-0.625000X0.125000X0*%
%ADD37RoundRect,0.125000X-0.125000X0.625000X-0.125000X-0.625000X0.125000X-0.625000X0.125000X0.625000X0*%
%ADD38RoundRect,0.125000X0.625000X0.125000X-0.625000X0.125000X-0.625000X-0.125000X0.625000X-0.125000X0*%
%ADD39RoundRect,0.125000X0.125000X-0.625000X0.125000X0.625000X-0.125000X0.625000X-0.125000X-0.625000X0*%
%ADD40RoundRect,0.225000X-0.675000X-0.225000X0.675000X-0.225000X0.675000X0.225000X-0.675000X0.225000X0*%
%ADD41RoundRect,0.150000X-0.825000X-0.150000X0.825000X-0.150000X0.825000X0.150000X-0.825000X0.150000X0*%
%ADD42R,1.600000X1.600000*%
%ADD43O,1.600000X1.600000*%
%ADD44R,1.900000X0.400000*%
%ADD45RoundRect,0.200000X0.275000X-0.200000X0.275000X0.200000X-0.275000X0.200000X-0.275000X-0.200000X0*%
G04 APERTURE END LIST*
D10*
X134400000Y-42450000D03*
X134400000Y-44350000D03*
D11*
X151800000Y-67600000D03*
X150600000Y-67600000D03*
X149400000Y-67600000D03*
D12*
X159892500Y-72853000D03*
D13*
X159892500Y-75393000D03*
X159892500Y-77933000D03*
D14*
X145050000Y-48275000D03*
X145050000Y-46725000D03*
D15*
X219705000Y-49325000D03*
X218435000Y-49325000D03*
X217165000Y-49325000D03*
X215895000Y-49325000D03*
X215895000Y-54275000D03*
X217165000Y-54275000D03*
X218435000Y-54275000D03*
X219705000Y-54275000D03*
D16*
X160400000Y-50900000D03*
X158850000Y-50900000D03*
D17*
X221900000Y-58900000D03*
D18*
X219360000Y-58900000D03*
X216820000Y-58900000D03*
X214280000Y-58900000D03*
D19*
X139663000Y-70690000D03*
X139663000Y-68150000D03*
X139663000Y-65610000D03*
X139663000Y-63070000D03*
X139663000Y-60530000D03*
X139663000Y-57990000D03*
D20*
X143800000Y-76800000D03*
X155800000Y-76800000D03*
D21*
X152350000Y-71960000D03*
D22*
X151330000Y-74500000D03*
X150310000Y-71960000D03*
X149290000Y-74500000D03*
X148270000Y-71960000D03*
X147250000Y-74500000D03*
D23*
X158775000Y-52400000D03*
X160425000Y-52400000D03*
D14*
X151600000Y-55475000D03*
X151600000Y-53925000D03*
X150100000Y-55475000D03*
X150100000Y-53925000D03*
D24*
X156787500Y-54800000D03*
X155212500Y-54800000D03*
D25*
X145350000Y-64700000D03*
X146000000Y-64700000D03*
X146650000Y-64700000D03*
X147300000Y-64700000D03*
X147950000Y-64700000D03*
X148600000Y-64700000D03*
X149250000Y-64700000D03*
X149900000Y-64700000D03*
X150550000Y-64700000D03*
X151200000Y-64700000D03*
X151850000Y-64700000D03*
X152500000Y-64700000D03*
X153150000Y-64700000D03*
X153800000Y-64700000D03*
X153800000Y-57500000D03*
X153150000Y-57500000D03*
X152500000Y-57500000D03*
X151850000Y-57500000D03*
X151200000Y-57500000D03*
X150550000Y-57500000D03*
X149900000Y-57500000D03*
X149250000Y-57500000D03*
X148600000Y-57500000D03*
X147950000Y-57500000D03*
X147300000Y-57500000D03*
X146650000Y-57500000D03*
X146000000Y-57500000D03*
X145350000Y-57500000D03*
D26*
X148100000Y-68100000D03*
X146450000Y-68100000D03*
D27*
X221300000Y-50925000D03*
X221300000Y-52475000D03*
D23*
X215475000Y-56300000D03*
X217125000Y-56300000D03*
D14*
X159125000Y-47675000D03*
X159125000Y-46125000D03*
D16*
X87575000Y-63300000D03*
X86025000Y-63300000D03*
D27*
X143475000Y-66625000D03*
X143475000Y-68175000D03*
D28*
X138625000Y-39400000D03*
X140175000Y-39400000D03*
D29*
X148375000Y-44600000D03*
X148375000Y-45400000D03*
X148375000Y-46200000D03*
X148375000Y-47000000D03*
X148375000Y-47800000D03*
X148375000Y-48600000D03*
X148375000Y-49400000D03*
X148375000Y-50200000D03*
D30*
X149825000Y-51650000D03*
X150625000Y-51650000D03*
X151425000Y-51650000D03*
X152225000Y-51650000D03*
X153025000Y-51650000D03*
X153825000Y-51650000D03*
X154625000Y-51650000D03*
X155425000Y-51650000D03*
D29*
X156875000Y-50200000D03*
X156875000Y-49400000D03*
X156875000Y-48600000D03*
X156875000Y-47800000D03*
X156875000Y-47000000D03*
X156875000Y-46200000D03*
X156875000Y-45400000D03*
X156875000Y-44600000D03*
D30*
X155425000Y-43150000D03*
X154625000Y-43150000D03*
X153825000Y-43150000D03*
X153025000Y-43150000D03*
X152225000Y-43150000D03*
X151425000Y-43150000D03*
X150625000Y-43150000D03*
X149825000Y-43150000D03*
D17*
X148830000Y-40200000D03*
D31*
X151370000Y-40200000D03*
X153910000Y-40200000D03*
X156450000Y-40200000D03*
D32*
X160350000Y-67575000D03*
X156200000Y-67575000D03*
X160350000Y-65425000D03*
X156200000Y-65425000D03*
D10*
X214100000Y-50850000D03*
X214100000Y-52750000D03*
D14*
X144100000Y-55475000D03*
X144100000Y-53925000D03*
X145600000Y-55475000D03*
X145600000Y-53925000D03*
D16*
X160400000Y-49400000D03*
X158850000Y-49400000D03*
D27*
X144975000Y-66625000D03*
X144975000Y-68175000D03*
D33*
X133553000Y-79107500D03*
D34*
X136093000Y-79107500D03*
X138633000Y-79107500D03*
D17*
X90610000Y-65915000D03*
D31*
X88070000Y-65915000D03*
X85530000Y-65915000D03*
X82990000Y-65915000D03*
D35*
X82850000Y-61350000D03*
X90150000Y-57050000D03*
X90150000Y-61350000D03*
D36*
X83300000Y-58200000D03*
X83300000Y-59200000D03*
X83300000Y-60200000D03*
D37*
X84500000Y-61650000D03*
X85500000Y-61650000D03*
X86500000Y-61650000D03*
X87500000Y-61650000D03*
X88500000Y-61650000D03*
D38*
X89700000Y-60200000D03*
X89700000Y-59200000D03*
X89700000Y-58200000D03*
D39*
X88500000Y-56750000D03*
X87500000Y-56750000D03*
X86500000Y-56750000D03*
X85500000Y-56750000D03*
X84500000Y-56750000D03*
D40*
X86500000Y-58350000D03*
X86500000Y-60050000D03*
D41*
X136925000Y-40995000D03*
X136925000Y-42265000D03*
X136925000Y-43535000D03*
X136925000Y-44805000D03*
X141875000Y-44805000D03*
X141875000Y-43535000D03*
X141875000Y-42265000D03*
X141875000Y-40995000D03*
D42*
X141400000Y-47500000D03*
D43*
X138860000Y-47500000D03*
X136320000Y-47500000D03*
X133780000Y-47500000D03*
X133780000Y-55120000D03*
X136320000Y-55120000D03*
X138860000Y-55120000D03*
X141400000Y-55120000D03*
D17*
X157300000Y-57575000D03*
D18*
X159840000Y-57575000D03*
X157300000Y-60115000D03*
X159840000Y-60115000D03*
X157300000Y-62655000D03*
X159840000Y-62655000D03*
D44*
X146125000Y-52100000D03*
X146125000Y-50900000D03*
X146125000Y-49700000D03*
D23*
X158175000Y-54800000D03*
X159825000Y-54800000D03*
X158625000Y-42900000D03*
X160275000Y-42900000D03*
D45*
X145050000Y-45325000D03*
X145050000Y-43675000D03*
D24*
X148662500Y-55400000D03*
X147087500Y-55400000D03*
D26*
X220625000Y-56300000D03*
X218975000Y-56300000D03*
D14*
X146525000Y-48275000D03*
X146525000Y-46725000D03*
D17*
X163025000Y-44100000D03*
D18*
X163025000Y-46640000D03*
X163025000Y-49180000D03*
X163025000Y-51720000D03*
M02*
